<?xml version="1.0" encoding="utf-8" ?>
<svg baseProfile="full" height="100%" preserveAspectRatio="xMidYMid meet" version="1.1" viewBox="-40,-40,590,170" width="100%" xmlns="http://www.w3.org/2000/svg" xmlns:ev="http://www.w3.org/2001/xml-events" xmlns:xlink="http://www.w3.org/1999/xlink"><defs><style type="text/css"><![CDATA[
        @import url(https://cdn.jsdelivr.net/npm/firacode@6.2.0/distr/fira_code.css);
        text {
            font-family: 'STIX Two', 'STIX Two Math', 'STIXMath', 'DejaVu Math TeX Glyph',
                        'DejaVu Serif', 'Cambria Math', 'Latin Modern Math', 'FiraCode',
                        'serif';
        }
    ]]></style><style type="text/css"><![CDATA[
        @import url(https://cdn.jsdelivr.net/npm/firacode@6.2.0/distr/fira_code.css);
        text {
            font-family: 'STIX Two', 'STIX Two Math', 'STIXMath', 'DejaVu Math TeX Glyph',
                        'DejaVu Serif', 'Cambria Math', 'Latin Modern Math', 'FiraCode',
                        'serif';
        }
    ]]></style></defs><g><rect fill="black" height="4.1" stroke="none" stroke-width="0" width="4.1" x="3.0" y="3.0" /><rect fill="black" height="8.5" stroke="none" stroke-width="0" width="8.5" x="10.8" y="0.8" /><rect fill="black" height="9.2" stroke="none" stroke-width="0" width="9.2" x="20.4" y="0.4" /><rect fill="black" height="9.5" stroke="none" stroke-width="0" width="9.5" x="30.2" y="0.2" /><rect fill="black" height="8.3" stroke="none" stroke-width="0" width="8.3" x="40.8" y="0.8" /><rect fill="black" height="7.8" stroke="none" stroke-width="0" width="7.8" x="51.1" y="1.1" /><rect fill="black" height="6.8" stroke="none" stroke-width="0" width="6.8" x="61.6" y="1.6" /><rect fill="black" height="7.1" stroke="none" stroke-width="0" width="7.1" x="71.4" y="1.4" /><rect fill="black" height="7.2" stroke="none" stroke-width="0" width="7.2" x="81.4" y="1.4" /><rect fill="black" height="7.0" stroke="none" stroke-width="0" width="7.0" x="91.5" y="1.5" /><rect fill="black" height="6.1" stroke="none" stroke-width="0" width="6.1" x="102.0" y="2.0" /><rect fill="black" height="5.5" stroke="none" stroke-width="0" width="5.5" x="112.3" y="2.3" /><rect fill="black" height="6.5" stroke="none" stroke-width="0" width="6.5" x="121.8" y="1.8" /><rect fill="black" height="5.4" stroke="none" stroke-width="0" width="5.4" x="132.3" y="2.3" /><rect fill="black" height="5.6" stroke="none" stroke-width="0" width="5.6" x="142.2" y="2.2" /><rect fill="black" height="6.0" stroke="none" stroke-width="0" width="6.0" x="152.0" y="2.0" /><rect fill="black" height="5.5" stroke="none" stroke-width="0" width="5.5" x="162.3" y="2.3" /><rect fill="black" height="5.5" stroke="none" stroke-width="0" width="5.5" x="172.3" y="2.3" /><rect fill="black" height="4.2" stroke="none" stroke-width="0" width="4.2" x="182.9" y="2.9" /><rect fill="black" height="6.3" stroke="none" stroke-width="0" width="6.3" x="191.9" y="1.9" /><rect fill="black" height="4.3" stroke="none" stroke-width="0" width="4.3" x="202.8" y="2.8" /><rect fill="black" height="5.8" stroke="none" stroke-width="0" width="5.8" x="212.1" y="2.1" /><rect fill="black" height="5.2" stroke="none" stroke-width="0" width="5.2" x="222.4" y="2.4" /><rect fill="black" height="5.7" stroke="none" stroke-width="0" width="5.7" x="232.2" y="2.2" /><rect fill="black" height="4.9" stroke="none" stroke-width="0" width="4.9" x="242.5" y="2.5" /><rect fill="black" height="4.8" stroke="none" stroke-width="0" width="4.8" x="252.6" y="2.6" /><rect fill="black" height="5.6" stroke="none" stroke-width="0" width="5.6" x="262.2" y="2.2" /><rect fill="black" height="4.7" stroke="none" stroke-width="0" width="4.7" x="272.6" y="2.6" /><rect fill="black" height="6.0" stroke="none" stroke-width="0" width="6.0" x="282.0" y="2.0" /><rect fill="black" height="4.8" stroke="none" stroke-width="0" width="4.8" x="292.6" y="2.6" /><rect fill="black" height="4.4" stroke="none" stroke-width="0" width="4.4" x="302.8" y="2.8" /><rect fill="black" height="5.8" stroke="none" stroke-width="0" width="5.8" x="312.1" y="2.1" /><rect fill="black" height="4.8" stroke="none" stroke-width="0" width="4.8" x="322.6" y="2.6" /><rect fill="black" height="4.9" stroke="none" stroke-width="0" width="4.9" x="332.5" y="2.5" /><rect fill="black" height="4.3" stroke="none" stroke-width="0" width="4.3" x="342.9" y="2.9" /><rect fill="black" height="4.6" stroke="none" stroke-width="0" width="4.6" x="352.7" y="2.7" /><rect fill="black" height="4.8" stroke="none" stroke-width="0" width="4.8" x="362.6" y="2.6" /><rect fill="black" height="4.4" stroke="none" stroke-width="0" width="4.4" x="372.8" y="2.8" /><rect fill="black" height="2.9" stroke="none" stroke-width="0" width="2.9" x="383.5" y="3.5" /><rect fill="black" height="3.9" stroke="none" stroke-width="0" width="3.9" x="393.0" y="3.0" /><rect fill="black" height="4.5" stroke="none" stroke-width="0" width="4.5" x="402.7" y="2.7" /><rect fill="black" height="5.0" stroke="none" stroke-width="0" width="5.0" x="412.5" y="2.5" /><rect fill="black" height="5.0" stroke="none" stroke-width="0" width="5.0" x="422.5" y="2.5" /><rect fill="black" height="4.8" stroke="none" stroke-width="0" width="4.8" x="432.6" y="2.6" /><rect fill="black" height="4.9" stroke="none" stroke-width="0" width="4.9" x="442.6" y="2.6" /><rect fill="black" height="5.5" stroke="none" stroke-width="0" width="5.5" x="452.2" y="2.2" /><rect fill="black" height="3.6" stroke="none" stroke-width="0" width="3.6" x="463.2" y="3.2" /><rect fill="black" height="4.9" stroke="none" stroke-width="0" width="4.9" x="472.5" y="2.5" /><rect fill="black" height="4.4" stroke="none" stroke-width="0" width="4.4" x="482.8" y="2.8" /><rect fill="black" height="4.9" stroke="none" stroke-width="0" width="4.9" x="492.5" y="2.5" /><rect fill="black" height="4.7" stroke="none" stroke-width="0" width="4.7" x="502.6" y="2.6" /><rect fill="black" height="5.2" stroke="none" stroke-width="0" width="5.2" x="2.4" y="12.4" /><rect fill="black" height="7.1" stroke="none" stroke-width="0" width="7.1" x="11.5" y="11.5" /><rect fill="black" height="8.2" stroke="none" stroke-width="0" width="8.2" x="20.9" y="10.9" /><rect fill="black" height="9.5" stroke="none" stroke-width="0" width="9.5" x="30.3" y="10.3" /><rect fill="black" height="8.9" stroke="none" stroke-width="0" width="8.9" x="40.6" y="10.6" /><rect fill="black" height="8.8" stroke="none" stroke-width="0" width="8.8" x="50.6" y="10.6" /><rect fill="black" height="8.1" stroke="none" stroke-width="0" width="8.1" x="61.0" y="11.0" /><rect fill="black" height="8.7" stroke="none" stroke-width="0" width="8.7" x="70.6" y="10.6" /><rect fill="black" height="9.5" stroke="none" stroke-width="0" width="9.5" x="80.2" y="10.2" /><rect fill="black" height="8.2" stroke="none" stroke-width="0" width="8.2" x="90.9" y="10.9" /><rect fill="black" height="8.6" stroke="none" stroke-width="0" width="8.6" x="100.7" y="10.7" /><rect fill="black" height="7.7" stroke="none" stroke-width="0" width="7.7" x="111.1" y="11.1" /><rect fill="black" height="8.0" stroke="none" stroke-width="0" width="8.0" x="121.0" y="11.0" /><rect fill="black" height="7.3" stroke="none" stroke-width="0" width="7.3" x="131.3" y="11.3" /><rect fill="black" height="7.7" stroke="none" stroke-width="0" width="7.7" x="141.2" y="11.2" /><rect fill="black" height="8.0" stroke="none" stroke-width="0" width="8.0" x="151.0" y="11.0" /><rect fill="black" height="7.6" stroke="none" stroke-width="0" width="7.6" x="161.2" y="11.2" /><rect fill="black" height="7.4" stroke="none" stroke-width="0" width="7.4" x="171.3" y="11.3" /><rect fill="black" height="5.8" stroke="none" stroke-width="0" width="5.8" x="182.1" y="12.1" /><rect fill="black" height="7.7" stroke="none" stroke-width="0" width="7.7" x="191.2" y="11.2" /><rect fill="black" height="5.7" stroke="none" stroke-width="0" width="5.7" x="202.2" y="12.2" /><rect fill="black" height="8.0" stroke="none" stroke-width="0" width="8.0" x="211.0" y="11.0" /><rect fill="black" height="6.3" stroke="none" stroke-width="0" width="6.3" x="221.9" y="11.9" /><rect fill="black" height="7.1" stroke="none" stroke-width="0" width="7.1" x="231.4" y="11.4" /><rect fill="black" height="6.8" stroke="none" stroke-width="0" width="6.8" x="241.6" y="11.6" /><rect fill="black" height="6.4" stroke="none" stroke-width="0" width="6.4" x="251.8" y="11.8" /><rect fill="black" height="7.7" stroke="none" stroke-width="0" width="7.7" x="261.1" y="11.1" /><rect fill="black" height="6.4" stroke="none" stroke-width="0" width="6.4" x="271.8" y="11.8" /><rect fill="black" height="7.7" stroke="none" stroke-width="0" width="7.7" x="281.1" y="11.1" /><rect fill="black" height="6.4" stroke="none" stroke-width="0" width="6.4" x="291.8" y="11.8" /><rect fill="black" height="6.4" stroke="none" stroke-width="0" width="6.4" x="301.8" y="11.8" /><rect fill="black" height="7.8" stroke="none" stroke-width="0" width="7.8" x="311.1" y="11.1" /><rect fill="black" height="6.5" stroke="none" stroke-width="0" width="6.5" x="321.7" y="11.7" /><rect fill="black" height="6.9" stroke="none" stroke-width="0" width="6.9" x="331.5" y="11.5" /><rect fill="black" height="5.7" stroke="none" stroke-width="0" width="5.7" x="342.1" y="12.1" /><rect fill="black" height="6.5" stroke="none" stroke-width="0" width="6.5" x="351.8" y="11.8" /><rect fill="black" height="6.2" stroke="none" stroke-width="0" width="6.2" x="361.9" y="11.9" /><rect fill="black" height="5.8" stroke="none" stroke-width="0" width="5.8" x="372.1" y="12.1" /><rect fill="black" height="4.7" stroke="none" stroke-width="0" width="4.7" x="382.7" y="12.7" /><rect fill="black" height="5.5" stroke="none" stroke-width="0" width="5.5" x="392.3" y="12.3" /><rect fill="black" height="6.4" stroke="none" stroke-width="0" width="6.4" x="401.8" y="11.8" /><rect fill="black" height="6.4" stroke="none" stroke-width="0" width="6.4" x="411.8" y="11.8" /><rect fill="black" height="6.1" stroke="none" stroke-width="0" width="6.1" x="422.0" y="12.0" /><rect fill="black" height="6.8" stroke="none" stroke-width="0" width="6.8" x="431.6" y="11.6" /><rect fill="black" height="6.2" stroke="none" stroke-width="0" width="6.2" x="441.9" y="11.9" /><rect fill="black" height="7.9" stroke="none" stroke-width="0" width="7.9" x="451.0" y="11.0" /><rect fill="black" height="5.6" stroke="none" stroke-width="0" width="5.6" x="462.2" y="12.2" /><rect fill="black" height="6.7" stroke="none" stroke-width="0" width="6.7" x="471.6" y="11.6" /><rect fill="black" height="5.7" stroke="none" stroke-width="0" width="5.7" x="482.1" y="12.1" /><rect fill="black" height="6.7" stroke="none" stroke-width="0" width="6.7" x="491.6" y="11.6" /><rect fill="black" height="6.2" stroke="none" stroke-width="0" width="6.2" x="501.9" y="11.9" /><rect fill="black" height="7.4" stroke="none" stroke-width="0" width="7.4" x="1.3" y="21.3" /><rect fill="black" height="9.5" stroke="none" stroke-width="0" width="9.5" x="10.2" y="20.2" /><rect fill="black" height="3.5" stroke="none" stroke-width="0" width="3.5" x="23.3" y="23.3" /><rect fill="black" height="7.8" stroke="none" stroke-width="0" width="7.8" x="31.1" y="21.1" /><rect fill="black" height="4.7" stroke="none" stroke-width="0" width="4.7" x="42.7" y="22.7" /><rect fill="black" height="2.2" stroke="none" stroke-width="0" width="2.2" x="53.9" y="23.9" /><rect fill="black" height="2.1" stroke="none" stroke-width="0" width="2.1" x="63.9" y="23.9" /><rect fill="black" height="2.1" stroke="none" stroke-width="0" width="2.1" x="73.9" y="23.9" /><rect fill="black" height="2.1" stroke="none" stroke-width="0" width="2.1" x="83.9" y="23.9" /><rect fill="black" height="2.1" stroke="none" stroke-width="0" width="2.1" x="93.9" y="23.9" /><rect fill="black" height="2.1" stroke="none" stroke-width="0" width="2.1" x="103.9" y="23.9" /><rect fill="black" height="2.1" stroke="none" stroke-width="0" width="2.1" x="113.9" y="23.9" /><rect fill="black" height="2.1" stroke="none" stroke-width="0" width="2.1" x="123.9" y="23.9" /><rect fill="black" height="2.1" stroke="none" stroke-width="0" width="2.1" x="133.9" y="23.9" /><rect fill="black" height="2.1" stroke="none" stroke-width="0" width="2.1" x="143.9" y="23.9" /><rect fill="black" height="2.1" stroke="none" stroke-width="0" width="2.1" x="153.9" y="23.9" /><rect fill="black" height="2.1" stroke="none" stroke-width="0" width="2.1" x="163.9" y="23.9" /><rect fill="black" height="2.1" stroke="none" stroke-width="0" width="2.1" x="173.9" y="23.9" /><rect fill="black" height="2.1" stroke="none" stroke-width="0" width="2.1" x="183.9" y="23.9" /><rect fill="black" height="2.1" stroke="none" stroke-width="0" width="2.1" x="193.9" y="23.9" /><rect fill="black" height="2.1" stroke="none" stroke-width="0" width="2.1" x="203.9" y="23.9" /><rect fill="black" height="2.1" stroke="none" stroke-width="0" width="2.1" x="213.9" y="23.9" /><rect fill="black" height="2.1" stroke="none" stroke-width="0" width="2.1" x="223.9" y="23.9" /><rect fill="black" height="2.1" stroke="none" stroke-width="0" width="2.1" x="233.9" y="23.9" /><rect fill="black" height="2.1" stroke="none" stroke-width="0" width="2.1" x="243.9" y="23.9" /><rect fill="black" height="2.1" stroke="none" stroke-width="0" width="2.1" x="253.9" y="23.9" /><rect fill="black" height="2.1" stroke="none" stroke-width="0" width="2.1" x="263.9" y="23.9" /><rect fill="black" height="2.1" stroke="none" stroke-width="0" width="2.1" x="273.9" y="23.9" /><rect fill="black" height="2.1" stroke="none" stroke-width="0" width="2.1" x="283.9" y="23.9" /><rect fill="black" height="2.1" stroke="none" stroke-width="0" width="2.1" x="293.9" y="23.9" /><rect fill="black" height="2.1" stroke="none" stroke-width="0" width="2.1" x="303.9" y="23.9" /><rect fill="black" height="2.1" stroke="none" stroke-width="0" width="2.1" x="313.9" y="23.9" /><rect fill="black" height="2.1" stroke="none" stroke-width="0" width="2.1" x="323.9" y="23.9" /><rect fill="black" height="2.1" stroke="none" stroke-width="0" width="2.1" x="333.9" y="23.9" /><rect fill="black" height="2.1" stroke="none" stroke-width="0" width="2.1" x="343.9" y="23.9" /><rect fill="black" height="2.1" stroke="none" stroke-width="0" width="2.1" x="353.9" y="23.9" /><rect fill="black" height="2.1" stroke="none" stroke-width="0" width="2.1" x="363.9" y="23.9" /><rect fill="black" height="2.1" stroke="none" stroke-width="0" width="2.1" x="373.9" y="23.9" /><rect fill="black" height="2.1" stroke="none" stroke-width="0" width="2.1" x="383.9" y="23.9" /><rect fill="black" height="2.1" stroke="none" stroke-width="0" width="2.1" x="393.9" y="23.9" /><rect fill="black" height="2.1" stroke="none" stroke-width="0" width="2.1" x="403.9" y="23.9" /><rect fill="black" height="2.1" stroke="none" stroke-width="0" width="2.1" x="413.9" y="23.9" /><rect fill="black" height="2.1" stroke="none" stroke-width="0" width="2.1" x="423.9" y="23.9" /><rect fill="black" height="2.1" stroke="none" stroke-width="0" width="2.1" x="433.9" y="23.9" /><rect fill="black" height="2.1" stroke="none" stroke-width="0" width="2.1" x="443.9" y="23.9" /><rect fill="black" height="2.1" stroke="none" stroke-width="0" width="2.1" x="453.9" y="23.9" /><rect fill="black" height="2.1" stroke="none" stroke-width="0" width="2.1" x="463.9" y="23.9" /><rect fill="black" height="2.1" stroke="none" stroke-width="0" width="2.1" x="473.9" y="23.9" /><rect fill="black" height="2.1" stroke="none" stroke-width="0" width="2.1" x="483.9" y="23.9" /><rect fill="black" height="2.1" stroke="none" stroke-width="0" width="2.1" x="493.9" y="23.9" /><rect fill="black" height="2.1" stroke="none" stroke-width="0" width="2.1" x="503.9" y="23.9" /><rect fill="black" height="7.5" stroke="none" stroke-width="0" width="7.5" x="1.2" y="31.2" /><rect fill="black" height="9.5" stroke="none" stroke-width="0" width="9.5" x="10.2" y="30.2" /><rect fill="black" height="8.7" stroke="none" stroke-width="0" width="8.7" x="20.7" y="30.7" /><rect fill="black" height="9.5" stroke="none" stroke-width="0" width="9.5" x="30.3" y="30.3" /><rect fill="black" height="8.5" stroke="none" stroke-width="0" width="8.5" x="40.7" y="30.7" /><rect fill="black" height="8.2" stroke="none" stroke-width="0" width="8.2" x="50.9" y="30.9" /><rect fill="black" height="7.4" stroke="none" stroke-width="0" width="7.4" x="61.3" y="31.3" /><rect fill="black" height="7.9" stroke="none" stroke-width="0" width="7.9" x="71.0" y="31.0" /><rect fill="black" height="8.8" stroke="none" stroke-width="0" width="8.8" x="80.6" y="30.6" /><rect fill="black" height="7.4" stroke="none" stroke-width="0" width="7.4" x="91.3" y="31.3" /><rect fill="black" height="7.9" stroke="none" stroke-width="0" width="7.9" x="101.1" y="31.1" /><rect fill="black" height="6.9" stroke="none" stroke-width="0" width="6.9" x="111.6" y="31.6" /><rect fill="black" height="7.1" stroke="none" stroke-width="0" width="7.1" x="121.5" y="31.5" /><rect fill="black" height="6.4" stroke="none" stroke-width="0" width="6.4" x="131.8" y="31.8" /><rect fill="black" height="6.9" stroke="none" stroke-width="0" width="6.9" x="141.6" y="31.6" /><rect fill="black" height="7.0" stroke="none" stroke-width="0" width="7.0" x="151.5" y="31.5" /><rect fill="black" height="6.5" stroke="none" stroke-width="0" width="6.5" x="161.7" y="31.7" /><rect fill="black" height="6.4" stroke="none" stroke-width="0" width="6.4" x="171.8" y="31.8" /><rect fill="black" height="4.9" stroke="none" stroke-width="0" width="4.9" x="182.6" y="32.6" /><rect fill="black" height="6.6" stroke="none" stroke-width="0" width="6.6" x="191.7" y="31.7" /><rect fill="black" height="4.9" stroke="none" stroke-width="0" width="4.9" x="202.6" y="32.6" /><rect fill="black" height="7.1" stroke="none" stroke-width="0" width="7.1" x="211.5" y="31.5" /><rect fill="black" height="5.3" stroke="none" stroke-width="0" width="5.3" x="222.3" y="32.3" /><rect fill="black" height="6.2" stroke="none" stroke-width="0" width="6.2" x="231.9" y="31.9" /><rect fill="black" height="5.9" stroke="none" stroke-width="0" width="5.9" x="242.0" y="32.0" /><rect fill="black" height="5.5" stroke="none" stroke-width="0" width="5.5" x="252.3" y="32.3" /><rect fill="black" height="6.7" stroke="none" stroke-width="0" width="6.7" x="261.6" y="31.6" /><rect fill="black" height="5.4" stroke="none" stroke-width="0" width="5.4" x="272.3" y="32.3" /><rect fill="black" height="6.6" stroke="none" stroke-width="0" width="6.6" x="281.7" y="31.7" /><rect fill="black" height="5.4" stroke="none" stroke-width="0" width="5.4" x="292.3" y="32.3" /><rect fill="black" height="5.5" stroke="none" stroke-width="0" width="5.5" x="302.3" y="32.3" /><rect fill="black" height="6.7" stroke="none" stroke-width="0" width="6.7" x="311.6" y="31.6" /><rect fill="black" height="5.6" stroke="none" stroke-width="0" width="5.6" x="322.2" y="32.2" /><rect fill="black" height="6.0" stroke="none" stroke-width="0" width="6.0" x="332.0" y="32.0" /><rect fill="black" height="4.8" stroke="none" stroke-width="0" width="4.8" x="342.6" y="32.6" /><rect fill="black" height="5.6" stroke="none" stroke-width="0" width="5.6" x="352.2" y="32.2" /><rect fill="black" height="5.3" stroke="none" stroke-width="0" width="5.3" x="362.4" y="32.4" /><rect fill="black" height="5.0" stroke="none" stroke-width="0" width="5.0" x="372.5" y="32.5" /><rect fill="black" height="3.9" stroke="none" stroke-width="0" width="3.9" x="383.1" y="33.1" /><rect fill="black" height="4.6" stroke="none" stroke-width="0" width="4.6" x="392.7" y="32.7" /><rect fill="black" height="5.4" stroke="none" stroke-width="0" width="5.4" x="402.3" y="32.3" /><rect fill="black" height="5.4" stroke="none" stroke-width="0" width="5.4" x="412.3" y="32.3" /><rect fill="black" height="5.0" stroke="none" stroke-width="0" width="5.0" x="422.5" y="32.5" /><rect fill="black" height="5.8" stroke="none" stroke-width="0" width="5.8" x="432.1" y="32.1" /><rect fill="black" height="5.2" stroke="none" stroke-width="0" width="5.2" x="442.4" y="32.4" /><rect fill="black" height="6.9" stroke="none" stroke-width="0" width="6.9" x="451.5" y="31.5" /><rect fill="black" height="4.5" stroke="none" stroke-width="0" width="4.5" x="462.7" y="32.7" /><rect fill="black" height="5.7" stroke="none" stroke-width="0" width="5.7" x="472.2" y="32.2" /><rect fill="black" height="4.8" stroke="none" stroke-width="0" width="4.8" x="482.6" y="32.6" /><rect fill="black" height="5.7" stroke="none" stroke-width="0" width="5.7" x="492.1" y="32.1" /><rect fill="black" height="5.2" stroke="none" stroke-width="0" width="5.2" x="502.4" y="32.4" /><rect fill="black" height="9.5" stroke="none" stroke-width="0" width="9.5" x="0.2" y="40.2" /><rect fill="black" height="3.1" stroke="none" stroke-width="0" width="3.1" x="13.5" y="43.5" /><rect fill="black" height="2.1" stroke="none" stroke-width="0" width="2.1" x="23.9" y="43.9" /><rect fill="black" height="2.6" stroke="none" stroke-width="0" width="2.6" x="33.7" y="43.7" /><rect fill="black" height="2.1" stroke="none" stroke-width="0" width="2.1" x="43.9" y="43.9" /><rect fill="black" height="2.1" stroke="none" stroke-width="0" width="2.1" x="53.9" y="43.9" /><rect fill="black" height="2.1" stroke="none" stroke-width="0" width="2.1" x="63.9" y="43.9" /><rect fill="black" height="2.1" stroke="none" stroke-width="0" width="2.1" x="73.9" y="43.9" /><rect fill="black" height="2.1" stroke="none" stroke-width="0" width="2.1" x="83.9" y="43.9" /><rect fill="black" height="2.1" stroke="none" stroke-width="0" width="2.1" x="93.9" y="43.9" /><rect fill="black" height="2.1" stroke="none" stroke-width="0" width="2.1" x="103.9" y="43.9" /><rect fill="black" height="2.1" stroke="none" stroke-width="0" width="2.1" x="113.9" y="43.9" /><rect fill="black" height="2.1" stroke="none" stroke-width="0" width="2.1" x="123.9" y="43.9" /><rect fill="black" height="2.1" stroke="none" stroke-width="0" width="2.1" x="133.9" y="43.9" /><rect fill="black" height="2.1" stroke="none" stroke-width="0" width="2.1" x="143.9" y="43.9" /><rect fill="black" height="2.1" stroke="none" stroke-width="0" width="2.1" x="153.9" y="43.9" /><rect fill="black" height="2.1" stroke="none" stroke-width="0" width="2.1" x="163.9" y="43.9" /><rect fill="black" height="2.1" stroke="none" stroke-width="0" width="2.1" x="173.9" y="43.9" /><rect fill="black" height="2.1" stroke="none" stroke-width="0" width="2.1" x="183.9" y="43.9" /><rect fill="black" height="2.1" stroke="none" stroke-width="0" width="2.1" x="193.9" y="43.9" /><rect fill="black" height="2.1" stroke="none" stroke-width="0" width="2.1" x="203.9" y="43.9" /><rect fill="black" height="2.1" stroke="none" stroke-width="0" width="2.1" x="213.9" y="43.9" /><rect fill="black" height="2.1" stroke="none" stroke-width="0" width="2.1" x="223.9" y="43.9" /><rect fill="black" height="2.1" stroke="none" stroke-width="0" width="2.1" x="233.9" y="43.9" /><rect fill="black" height="2.1" stroke="none" stroke-width="0" width="2.1" x="243.9" y="43.9" /><rect fill="black" height="2.1" stroke="none" stroke-width="0" width="2.1" x="253.9" y="43.9" /><rect fill="black" height="2.1" stroke="none" stroke-width="0" width="2.1" x="263.9" y="43.9" /><rect fill="black" height="2.1" stroke="none" stroke-width="0" width="2.1" x="273.9" y="43.9" /><rect fill="black" height="2.1" stroke="none" stroke-width="0" width="2.1" x="283.9" y="43.9" /><rect fill="black" height="2.1" stroke="none" stroke-width="0" width="2.1" x="293.9" y="43.9" /><rect fill="black" height="2.1" stroke="none" stroke-width="0" width="2.1" x="303.9" y="43.9" /><rect fill="black" height="2.1" stroke="none" stroke-width="0" width="2.1" x="313.9" y="43.9" /><rect fill="black" height="2.1" stroke="none" stroke-width="0" width="2.1" x="323.9" y="43.9" /><rect fill="black" height="2.1" stroke="none" stroke-width="0" width="2.1" x="333.9" y="43.9" /><rect fill="black" height="2.1" stroke="none" stroke-width="0" width="2.1" x="343.9" y="43.9" /><rect fill="black" height="2.1" stroke="none" stroke-width="0" width="2.1" x="353.9" y="43.9" /><rect fill="black" height="2.1" stroke="none" stroke-width="0" width="2.1" x="363.9" y="43.9" /><rect fill="black" height="2.1" stroke="none" stroke-width="0" width="2.1" x="373.9" y="43.9" /><rect fill="black" height="2.1" stroke="none" stroke-width="0" width="2.1" x="383.9" y="43.9" /><rect fill="black" height="2.1" stroke="none" stroke-width="0" width="2.1" x="393.9" y="43.9" /><rect fill="black" height="2.1" stroke="none" stroke-width="0" width="2.1" x="403.9" y="43.9" /><rect fill="black" height="2.1" stroke="none" stroke-width="0" width="2.1" x="413.9" y="43.9" /><rect fill="black" height="2.1" stroke="none" stroke-width="0" width="2.1" x="423.9" y="43.9" /><rect fill="black" height="2.1" stroke="none" stroke-width="0" width="2.1" x="433.9" y="43.9" /><rect fill="black" height="2.1" stroke="none" stroke-width="0" width="2.1" x="443.9" y="43.9" /><rect fill="black" height="2.1" stroke="none" stroke-width="0" width="2.1" x="453.9" y="43.9" /><rect fill="black" height="2.1" stroke="none" stroke-width="0" width="2.1" x="463.9" y="43.9" /><rect fill="black" height="2.1" stroke="none" stroke-width="0" width="2.1" x="473.9" y="43.9" /><rect fill="black" height="2.1" stroke="none" stroke-width="0" width="2.1" x="483.9" y="43.9" /><rect fill="black" height="2.1" stroke="none" stroke-width="0" width="2.1" x="493.9" y="43.9" /><rect fill="black" height="2.1" stroke="none" stroke-width="0" width="2.1" x="503.9" y="43.9" /><rect fill="black" height="5.6" stroke="none" stroke-width="0" width="5.6" x="2.2" y="52.2" /><rect fill="black" height="9.5" stroke="none" stroke-width="0" width="9.5" x="10.2" y="50.2" /><rect fill="black" height="7.4" stroke="none" stroke-width="0" width="7.4" x="21.3" y="51.3" /><rect fill="black" height="5.9" stroke="none" stroke-width="0" width="5.9" x="32.0" y="52.0" /><rect fill="black" height="4.7" stroke="none" stroke-width="0" width="4.7" x="42.7" y="52.7" /><rect fill="black" height="4.0" stroke="none" stroke-width="0" width="4.0" x="53.0" y="53.0" /><rect fill="black" height="3.3" stroke="none" stroke-width="0" width="3.3" x="63.3" y="53.3" /><rect fill="black" height="3.4" stroke="none" stroke-width="0" width="3.4" x="73.3" y="53.3" /><rect fill="black" height="3.5" stroke="none" stroke-width="0" width="3.5" x="83.2" y="53.2" /><rect fill="black" height="2.9" stroke="none" stroke-width="0" width="2.9" x="93.5" y="53.5" /><rect fill="black" height="2.9" stroke="none" stroke-width="0" width="2.9" x="103.5" y="53.5" /><rect fill="black" height="2.6" stroke="none" stroke-width="0" width="2.6" x="113.7" y="53.7" /><rect fill="black" height="2.6" stroke="none" stroke-width="0" width="2.6" x="123.7" y="53.7" /><rect fill="black" height="2.3" stroke="none" stroke-width="0" width="2.3" x="133.8" y="53.8" /><rect fill="black" height="2.5" stroke="none" stroke-width="0" width="2.5" x="143.8" y="53.8" /><rect fill="black" height="2.5" stroke="none" stroke-width="0" width="2.5" x="153.8" y="53.8" /><rect fill="black" height="2.3" stroke="none" stroke-width="0" width="2.3" x="163.8" y="53.8" /><rect fill="black" height="2.3" stroke="none" stroke-width="0" width="2.3" x="173.9" y="53.9" /><rect fill="black" height="2.1" stroke="none" stroke-width="0" width="2.1" x="183.9" y="53.9" /><rect fill="black" height="2.3" stroke="none" stroke-width="0" width="2.3" x="193.9" y="53.9" /><rect fill="black" height="2.1" stroke="none" stroke-width="0" width="2.1" x="203.9" y="53.9" /><rect fill="black" height="2.4" stroke="none" stroke-width="0" width="2.4" x="213.8" y="53.8" /><rect fill="black" height="2.1" stroke="none" stroke-width="0" width="2.1" x="223.9" y="53.9" /><rect fill="black" height="2.1" stroke="none" stroke-width="0" width="2.1" x="233.9" y="53.9" /><rect fill="black" height="2.1" stroke="none" stroke-width="0" width="2.1" x="243.9" y="53.9" /><rect fill="black" height="2.1" stroke="none" stroke-width="0" width="2.1" x="253.9" y="53.9" /><rect fill="black" height="2.3" stroke="none" stroke-width="0" width="2.3" x="263.8" y="53.8" /><rect fill="black" height="2.1" stroke="none" stroke-width="0" width="2.1" x="273.9" y="53.9" /><rect fill="black" height="2.3" stroke="none" stroke-width="0" width="2.3" x="283.9" y="53.9" /><rect fill="black" height="2.1" stroke="none" stroke-width="0" width="2.1" x="293.9" y="53.9" /><rect fill="black" height="2.1" stroke="none" stroke-width="0" width="2.1" x="303.9" y="53.9" /><rect fill="black" height="2.3" stroke="none" stroke-width="0" width="2.3" x="313.9" y="53.9" /><rect fill="black" height="2.1" stroke="none" stroke-width="0" width="2.1" x="323.9" y="53.9" /><rect fill="black" height="2.1" stroke="none" stroke-width="0" width="2.1" x="333.9" y="53.9" /><rect fill="black" height="2.1" stroke="none" stroke-width="0" width="2.1" x="343.9" y="53.9" /><rect fill="black" height="2.1" stroke="none" stroke-width="0" width="2.1" x="353.9" y="53.9" /><rect fill="black" height="2.1" stroke="none" stroke-width="0" width="2.1" x="363.9" y="53.9" /><rect fill="black" height="2.1" stroke="none" stroke-width="0" width="2.1" x="373.9" y="53.9" /><rect fill="black" height="2.1" stroke="none" stroke-width="0" width="2.1" x="383.9" y="53.9" /><rect fill="black" height="2.1" stroke="none" stroke-width="0" width="2.1" x="393.9" y="53.9" /><rect fill="black" height="2.1" stroke="none" stroke-width="0" width="2.1" x="403.9" y="53.9" /><rect fill="black" height="2.1" stroke="none" stroke-width="0" width="2.1" x="413.9" y="53.9" /><rect fill="black" height="2.1" stroke="none" stroke-width="0" width="2.1" x="423.9" y="53.9" /><rect fill="black" height="2.1" stroke="none" stroke-width="0" width="2.1" x="433.9" y="53.9" /><rect fill="black" height="2.1" stroke="none" stroke-width="0" width="2.1" x="443.9" y="53.9" /><rect fill="black" height="2.3" stroke="none" stroke-width="0" width="2.3" x="453.8" y="53.8" /><rect fill="black" height="2.1" stroke="none" stroke-width="0" width="2.1" x="463.9" y="53.9" /><rect fill="black" height="2.1" stroke="none" stroke-width="0" width="2.1" x="473.9" y="53.9" /><rect fill="black" height="2.1" stroke="none" stroke-width="0" width="2.1" x="483.9" y="53.9" /><rect fill="black" height="2.1" stroke="none" stroke-width="0" width="2.1" x="493.9" y="53.9" /><rect fill="black" height="2.1" stroke="none" stroke-width="0" width="2.1" x="503.9" y="53.9" /><rect fill="black" height="7.6" stroke="none" stroke-width="0" width="7.6" x="1.2" y="61.2" /><rect fill="black" height="5.5" stroke="none" stroke-width="0" width="5.5" x="12.3" y="62.3" /><rect fill="black" height="7.3" stroke="none" stroke-width="0" width="7.3" x="21.3" y="61.3" /><rect fill="black" height="8.7" stroke="none" stroke-width="0" width="8.7" x="30.7" y="60.7" /><rect fill="black" height="8.4" stroke="none" stroke-width="0" width="8.4" x="40.8" y="60.8" /><rect fill="black" height="8.5" stroke="none" stroke-width="0" width="8.5" x="50.8" y="60.8" /><rect fill="black" height="8.1" stroke="none" stroke-width="0" width="8.1" x="61.0" y="61.0" /><rect fill="black" height="8.4" stroke="none" stroke-width="0" width="8.4" x="70.8" y="60.8" /><rect fill="black" height="9.5" stroke="none" stroke-width="0" width="9.5" x="80.2" y="60.2" /><rect fill="black" height="8.1" stroke="none" stroke-width="0" width="8.1" x="91.0" y="61.0" /><rect fill="black" height="8.7" stroke="none" stroke-width="0" width="8.7" x="100.6" y="60.6" /><rect fill="black" height="7.7" stroke="none" stroke-width="0" width="7.7" x="111.2" y="61.2" /><rect fill="black" height="8.1" stroke="none" stroke-width="0" width="8.1" x="121.0" y="61.0" /><rect fill="black" height="7.2" stroke="none" stroke-width="0" width="7.2" x="131.4" y="61.4" /><rect fill="black" height="7.7" stroke="none" stroke-width="0" width="7.7" x="141.1" y="61.1" /><rect fill="black" height="8.4" stroke="none" stroke-width="0" width="8.4" x="150.8" y="60.8" /><rect fill="black" height="7.8" stroke="none" stroke-width="0" width="7.8" x="161.1" y="61.1" /><rect fill="black" height="7.2" stroke="none" stroke-width="0" width="7.2" x="171.4" y="61.4" /><rect fill="black" height="5.7" stroke="none" stroke-width="0" width="5.7" x="182.2" y="62.2" /><rect fill="black" height="7.8" stroke="none" stroke-width="0" width="7.8" x="191.1" y="61.1" /><rect fill="black" height="5.8" stroke="none" stroke-width="0" width="5.8" x="202.1" y="62.1" /><rect fill="black" height="8.5" stroke="none" stroke-width="0" width="8.5" x="210.7" y="60.7" /><rect fill="black" height="6.6" stroke="none" stroke-width="0" width="6.6" x="221.7" y="61.7" /><rect fill="black" height="7.6" stroke="none" stroke-width="0" width="7.6" x="231.2" y="61.2" /><rect fill="black" height="7.1" stroke="none" stroke-width="0" width="7.1" x="241.5" y="61.5" /><rect fill="black" height="6.5" stroke="none" stroke-width="0" width="6.5" x="251.8" y="61.8" /><rect fill="black" height="8.1" stroke="none" stroke-width="0" width="8.1" x="260.9" y="60.9" /><rect fill="black" height="6.4" stroke="none" stroke-width="0" width="6.4" x="271.8" y="61.8" /><rect fill="black" height="8.1" stroke="none" stroke-width="0" width="8.1" x="281.0" y="61.0" /><rect fill="black" height="6.9" stroke="none" stroke-width="0" width="6.9" x="291.6" y="61.6" /><rect fill="black" height="6.5" stroke="none" stroke-width="0" width="6.5" x="301.7" y="61.7" /><rect fill="black" height="8.0" stroke="none" stroke-width="0" width="8.0" x="311.0" y="61.0" /><rect fill="black" height="6.9" stroke="none" stroke-width="0" width="6.9" x="321.6" y="61.6" /><rect fill="black" height="7.3" stroke="none" stroke-width="0" width="7.3" x="331.3" y="61.3" /><rect fill="black" height="5.8" stroke="none" stroke-width="0" width="5.8" x="342.1" y="62.1" /><rect fill="black" height="7.1" stroke="none" stroke-width="0" width="7.1" x="351.5" y="61.5" /><rect fill="black" height="6.8" stroke="none" stroke-width="0" width="6.8" x="361.6" y="61.6" /><rect fill="black" height="6.2" stroke="none" stroke-width="0" width="6.2" x="371.9" y="61.9" /><rect fill="black" height="4.7" stroke="none" stroke-width="0" width="4.7" x="382.6" y="62.6" /><rect fill="black" height="5.7" stroke="none" stroke-width="0" width="5.7" x="392.1" y="62.1" /><rect fill="black" height="6.6" stroke="none" stroke-width="0" width="6.6" x="401.7" y="61.7" /><rect fill="black" height="6.8" stroke="none" stroke-width="0" width="6.8" x="411.6" y="61.6" /><rect fill="black" height="6.1" stroke="none" stroke-width="0" width="6.1" x="422.0" y="62.0" /><rect fill="black" height="7.4" stroke="none" stroke-width="0" width="7.4" x="431.3" y="61.3" /><rect fill="black" height="6.4" stroke="none" stroke-width="0" width="6.4" x="441.8" y="61.8" /><rect fill="black" height="8.9" stroke="none" stroke-width="0" width="8.9" x="450.5" y="60.5" /><rect fill="black" height="5.5" stroke="none" stroke-width="0" width="5.5" x="462.2" y="62.2" /><rect fill="black" height="6.9" stroke="none" stroke-width="0" width="6.9" x="471.5" y="61.5" /><rect fill="black" height="6.0" stroke="none" stroke-width="0" width="6.0" x="482.0" y="62.0" /><rect fill="black" height="7.2" stroke="none" stroke-width="0" width="7.2" x="491.4" y="61.4" /><rect fill="black" height="6.3" stroke="none" stroke-width="0" width="6.3" x="501.8" y="61.8" /><rect fill="black" height="3.0" stroke="none" stroke-width="0" width="3.0" x="3.5" y="73.5" /><rect fill="black" height="3.5" stroke="none" stroke-width="0" width="3.5" x="13.2" y="73.2" /><rect fill="black" height="5.6" stroke="none" stroke-width="0" width="5.6" x="22.2" y="72.2" /><rect fill="black" height="7.6" stroke="none" stroke-width="0" width="7.6" x="31.2" y="71.2" /><rect fill="black" height="8.1" stroke="none" stroke-width="0" width="8.1" x="41.0" y="71.0" /><rect fill="black" height="8.3" stroke="none" stroke-width="0" width="8.3" x="50.8" y="70.8" /><rect fill="black" height="9.3" stroke="none" stroke-width="0" width="9.3" x="60.3" y="70.3" /><rect fill="black" height="8.9" stroke="none" stroke-width="0" width="8.9" x="70.5" y="70.5" /><rect fill="black" height="9.5" stroke="none" stroke-width="0" width="9.5" x="80.2" y="70.2" /><rect fill="black" height="9.1" stroke="none" stroke-width="0" width="9.1" x="90.5" y="70.5" /><rect fill="black" height="9.2" stroke="none" stroke-width="0" width="9.2" x="100.4" y="70.4" /><rect fill="black" height="8.7" stroke="none" stroke-width="0" width="8.7" x="110.7" y="70.7" /><rect fill="black" height="8.7" stroke="none" stroke-width="0" width="8.7" x="120.7" y="70.7" /><rect fill="black" height="7.4" stroke="none" stroke-width="0" width="7.4" x="131.3" y="71.3" /><rect fill="black" height="8.4" stroke="none" stroke-width="0" width="8.4" x="140.8" y="70.8" /><rect fill="black" height="8.7" stroke="none" stroke-width="0" width="8.7" x="150.6" y="70.6" /><rect fill="black" height="7.8" stroke="none" stroke-width="0" width="7.8" x="161.1" y="71.1" /><rect fill="black" height="6.5" stroke="none" stroke-width="0" width="6.5" x="171.8" y="71.8" /><rect fill="black" height="6.2" stroke="none" stroke-width="0" width="6.2" x="181.9" y="71.9" /><rect fill="black" height="9.0" stroke="none" stroke-width="0" width="9.0" x="190.5" y="70.5" /><rect fill="black" height="6.4" stroke="none" stroke-width="0" width="6.4" x="201.8" y="71.8" /><rect fill="black" height="8.9" stroke="none" stroke-width="0" width="8.9" x="210.5" y="70.5" /><rect fill="black" height="7.4" stroke="none" stroke-width="0" width="7.4" x="221.3" y="71.3" /><rect fill="black" height="8.1" stroke="none" stroke-width="0" width="8.1" x="230.9" y="70.9" /><rect fill="black" height="7.0" stroke="none" stroke-width="0" width="7.0" x="241.5" y="71.5" /><rect fill="black" height="6.7" stroke="none" stroke-width="0" width="6.7" x="251.7" y="71.7" /><rect fill="black" height="7.9" stroke="none" stroke-width="0" width="7.9" x="261.1" y="71.1" /><rect fill="black" height="6.5" stroke="none" stroke-width="0" width="6.5" x="271.7" y="71.7" /><rect fill="black" height="7.9" stroke="none" stroke-width="0" width="7.9" x="281.1" y="71.1" /><rect fill="black" height="7.1" stroke="none" stroke-width="0" width="7.1" x="291.5" y="71.5" /><rect fill="black" height="6.3" stroke="none" stroke-width="0" width="6.3" x="301.8" y="71.8" /><rect fill="black" height="7.7" stroke="none" stroke-width="0" width="7.7" x="311.2" y="71.2" /><rect fill="black" height="7.1" stroke="none" stroke-width="0" width="7.1" x="321.5" y="71.5" /><rect fill="black" height="7.8" stroke="none" stroke-width="0" width="7.8" x="331.1" y="71.1" /><rect fill="black" height="5.2" stroke="none" stroke-width="0" width="5.2" x="342.4" y="72.4" /><rect fill="black" height="7.3" stroke="none" stroke-width="0" width="7.3" x="351.3" y="71.3" /><rect fill="black" height="6.9" stroke="none" stroke-width="0" width="6.9" x="361.6" y="71.6" /><rect fill="black" height="6.5" stroke="none" stroke-width="0" width="6.5" x="371.7" y="71.7" /><rect fill="black" height="5.3" stroke="none" stroke-width="0" width="5.3" x="382.3" y="72.3" /><rect fill="black" height="5.5" stroke="none" stroke-width="0" width="5.5" x="392.3" y="72.3" /><rect fill="black" height="6.1" stroke="none" stroke-width="0" width="6.1" x="401.9" y="71.9" /><rect fill="black" height="6.6" stroke="none" stroke-width="0" width="6.6" x="411.7" y="71.7" /><rect fill="black" height="6.1" stroke="none" stroke-width="0" width="6.1" x="422.0" y="72.0" /><rect fill="black" height="7.6" stroke="none" stroke-width="0" width="7.6" x="431.2" y="71.2" /><rect fill="black" height="6.0" stroke="none" stroke-width="0" width="6.0" x="442.0" y="72.0" /><rect fill="black" height="9.4" stroke="none" stroke-width="0" width="9.4" x="450.3" y="70.3" /><rect fill="black" height="5.4" stroke="none" stroke-width="0" width="5.4" x="462.3" y="72.3" /><rect fill="black" height="7.5" stroke="none" stroke-width="0" width="7.5" x="471.3" y="71.3" /><rect fill="black" height="6.6" stroke="none" stroke-width="0" width="6.6" x="481.7" y="71.7" /><rect fill="black" height="7.0" stroke="none" stroke-width="0" width="7.0" x="491.5" y="71.5" /><rect fill="black" height="5.7" stroke="none" stroke-width="0" width="5.7" x="502.1" y="72.1" /><rect fill="black" height="9.5" stroke="none" stroke-width="0" width="9.5" x="0.2" y="80.2" /><rect fill="black" height="3.7" stroke="none" stroke-width="0" width="3.7" x="13.1" y="83.1" /><rect fill="black" height="3.7" stroke="none" stroke-width="0" width="3.7" x="23.1" y="83.1" /><rect fill="black" height="4.0" stroke="none" stroke-width="0" width="4.0" x="33.0" y="83.0" /><rect fill="black" height="3.8" stroke="none" stroke-width="0" width="3.8" x="43.1" y="83.1" /><rect fill="black" height="3.9" stroke="none" stroke-width="0" width="3.9" x="53.1" y="83.1" /><rect fill="black" height="4.0" stroke="none" stroke-width="0" width="4.0" x="63.0" y="83.0" /><rect fill="black" height="4.1" stroke="none" stroke-width="0" width="4.1" x="72.9" y="82.9" /><rect fill="black" height="4.3" stroke="none" stroke-width="0" width="4.3" x="82.9" y="82.9" /><rect fill="black" height="4.2" stroke="none" stroke-width="0" width="4.2" x="92.9" y="82.9" /><rect fill="black" height="4.2" stroke="none" stroke-width="0" width="4.2" x="102.9" y="82.9" /><rect fill="black" height="4.1" stroke="none" stroke-width="0" width="4.1" x="112.9" y="82.9" /><rect fill="black" height="4.3" stroke="none" stroke-width="0" width="4.3" x="122.9" y="82.9" /><rect fill="black" height="4.1" stroke="none" stroke-width="0" width="4.1" x="133.0" y="83.0" /><rect fill="black" height="4.3" stroke="none" stroke-width="0" width="4.3" x="142.8" y="82.8" /><rect fill="black" height="4.6" stroke="none" stroke-width="0" width="4.6" x="152.7" y="82.7" /><rect fill="black" height="4.2" stroke="none" stroke-width="0" width="4.2" x="162.9" y="82.9" /><rect fill="black" height="4.0" stroke="none" stroke-width="0" width="4.0" x="173.0" y="83.0" /><rect fill="black" height="3.8" stroke="none" stroke-width="0" width="3.8" x="183.1" y="83.1" /><rect fill="black" height="4.8" stroke="none" stroke-width="0" width="4.8" x="192.6" y="82.6" /><rect fill="black" height="3.8" stroke="none" stroke-width="0" width="3.8" x="203.1" y="83.1" /><rect fill="black" height="4.9" stroke="none" stroke-width="0" width="4.9" x="212.6" y="82.6" /><rect fill="black" height="4.2" stroke="none" stroke-width="0" width="4.2" x="222.9" y="82.9" /><rect fill="black" height="4.9" stroke="none" stroke-width="0" width="4.9" x="232.6" y="82.6" /><rect fill="black" height="4.4" stroke="none" stroke-width="0" width="4.4" x="242.8" y="82.8" /><rect fill="black" height="4.1" stroke="none" stroke-width="0" width="4.1" x="252.9" y="82.9" /><rect fill="black" height="4.8" stroke="none" stroke-width="0" width="4.8" x="262.6" y="82.6" /><rect fill="black" height="3.9" stroke="none" stroke-width="0" width="3.9" x="273.0" y="83.0" /><rect fill="black" height="4.5" stroke="none" stroke-width="0" width="4.5" x="282.7" y="82.7" /><rect fill="black" height="4.1" stroke="none" stroke-width="0" width="4.1" x="292.9" y="82.9" /><rect fill="black" height="4.0" stroke="none" stroke-width="0" width="4.0" x="303.0" y="83.0" /><rect fill="black" height="4.7" stroke="none" stroke-width="0" width="4.7" x="312.7" y="82.7" /><rect fill="black" height="4.3" stroke="none" stroke-width="0" width="4.3" x="322.8" y="82.8" /><rect fill="black" height="4.5" stroke="none" stroke-width="0" width="4.5" x="332.8" y="82.8" /><rect fill="black" height="3.6" stroke="none" stroke-width="0" width="3.6" x="343.2" y="83.2" /><rect fill="black" height="4.4" stroke="none" stroke-width="0" width="4.4" x="352.8" y="82.8" /><rect fill="black" height="4.0" stroke="none" stroke-width="0" width="4.0" x="363.0" y="83.0" /><rect fill="black" height="3.9" stroke="none" stroke-width="0" width="3.9" x="373.1" y="83.1" /><rect fill="black" height="3.0" stroke="none" stroke-width="0" width="3.0" x="383.5" y="83.5" /><rect fill="black" height="3.5" stroke="none" stroke-width="0" width="3.5" x="393.3" y="83.3" /><rect fill="black" height="3.8" stroke="none" stroke-width="0" width="3.8" x="403.1" y="83.1" /><rect fill="black" height="4.1" stroke="none" stroke-width="0" width="4.1" x="413.0" y="83.0" /><rect fill="black" height="3.8" stroke="none" stroke-width="0" width="3.8" x="423.1" y="83.1" /><rect fill="black" height="4.2" stroke="none" stroke-width="0" width="4.2" x="432.9" y="82.9" /><rect fill="black" height="3.8" stroke="none" stroke-width="0" width="3.8" x="443.1" y="83.1" /><rect fill="black" height="5.2" stroke="none" stroke-width="0" width="5.2" x="452.4" y="82.4" /><rect fill="black" height="3.4" stroke="none" stroke-width="0" width="3.4" x="463.3" y="83.3" /><rect fill="black" height="4.4" stroke="none" stroke-width="0" width="4.4" x="472.8" y="82.8" /><rect fill="black" height="3.9" stroke="none" stroke-width="0" width="3.9" x="483.0" y="83.0" /><rect fill="black" height="4.3" stroke="none" stroke-width="0" width="4.3" x="492.8" y="82.8" /><rect fill="black" height="4.0" stroke="none" stroke-width="0" width="4.0" x="503.0" y="83.0" /></g><g><line stroke="black" stroke-width="0.5" x1="5.0" x2="5.0" y1="-4.0" y2="-7.0" /><text dominant-baseline="middle" font-size="6px" text-anchor="middle" x="5.0" y="-13.0">1</text><line stroke="black" stroke-width="0.5" x1="495.0" x2="495.0" y1="-4.0" y2="-7.0" /><text dominant-baseline="middle" font-size="6px" text-anchor="middle" x="495.0" y="-13.0">65536</text><text font-size="6px" text-anchor="middle" x="255.0" y="-17.0">Time (linear)</text><line stroke="black" stroke-width="0.5" x1="514.0" x2="517.0" y1="5.0" y2="5.0" /><text dominant-baseline="middle" font-size="6px" text-anchor="start" x="523.0" y="5.0">emb_pos</text><line stroke="black" stroke-width="0.5" x1="514.0" x2="517.0" y1="15.0" y2="15.0" /><text dominant-baseline="middle" font-size="6px" text-anchor="start" x="523.0" y="15.0">emb_tok</text><line stroke="black" stroke-width="0.5" x1="514.0" x2="517.0" y1="25.0" y2="25.0" /><text dominant-baseline="middle" font-size="6px" text-anchor="start" x="523.0" y="25.0">k</text><line stroke="black" stroke-width="0.5" x1="514.0" x2="517.0" y1="35.0" y2="35.0" /><text dominant-baseline="middle" font-size="6px" text-anchor="start" x="523.0" y="35.0">o</text><line stroke="black" stroke-width="0.5" x1="514.0" x2="517.0" y1="45.0" y2="45.0" /><text dominant-baseline="middle" font-size="6px" text-anchor="start" x="523.0" y="45.0">q</text><line stroke="black" stroke-width="0.5" x1="514.0" x2="517.0" y1="55.0" y2="55.0" /><text dominant-baseline="middle" font-size="6px" text-anchor="start" x="523.0" y="55.0">v</text><line stroke="black" stroke-width="0.5" x1="514.0" x2="517.0" y1="65.0" y2="65.0" /><text dominant-baseline="middle" font-size="6px" text-anchor="start" x="523.0" y="65.0">w_in</text><line stroke="black" stroke-width="0.5" x1="514.0" x2="517.0" y1="75.0" y2="75.0" /><text dominant-baseline="middle" font-size="6px" text-anchor="start" x="523.0" y="75.0">w_out</text><line stroke="black" stroke-width="0.5" x1="514.0" x2="517.0" y1="85.0" y2="85.0" /><text dominant-baseline="middle" font-size="6px" text-anchor="start" x="523.0" y="85.0">unbeds</text><text font-size="6px" text-anchor="middle" transform="rotate(-90, -17.0, 45.0)" x="-17.0" y="45.0">Gradient Norm (L2)</text></g></svg>