<?xml version="1.0" encoding="utf-8" ?>
<svg baseProfile="full" height="100%" preserveAspectRatio="xMidYMid meet" version="1.1" viewBox="-20,-20,100,80" width="100%" xmlns="http://www.w3.org/2000/svg" xmlns:ev="http://www.w3.org/2001/xml-events" xmlns:xlink="http://www.w3.org/1999/xlink"><defs><style type="text/css"><![CDATA[
        @import url(https://cdn.jsdelivr.net/npm/firacode@6.2.0/distr/fira_code.css);
        text { font-family: 'Fira Code', monospace; }
    ]]></style></defs><g><rect fill="black" height="6.4" stroke="none" stroke-width="0" width="6.4" x="1.8" y="1.8" /><rect fill="black" height="6.4" stroke="none" stroke-width="0" width="6.4" x="11.8" y="1.8" /><rect fill="black" height="6.4" stroke="none" stroke-width="0" width="6.4" x="1.8" y="11.8" /><rect fill="black" height="6.4" stroke="none" stroke-width="0" width="6.4" x="11.8" y="11.8" /><rect fill="black" height="6.4" stroke="none" stroke-width="0" width="6.4" x="1.8" y="21.8" /><rect fill="black" height="6.4" stroke="none" stroke-width="0" width="6.4" x="11.8" y="21.8" /><rect fill="black" height="6.2" stroke="none" stroke-width="0" width="6.2" x="1.9" y="31.9" /><rect fill="black" height="6.2" stroke="none" stroke-width="0" width="6.2" x="11.9" y="31.9" /></g><g><text font-size="6px" text-anchor="middle" x="10.0" y="-19.0">A_bar</text></g><g><rect fill="black" height="5.3" stroke="none" stroke-width="0" width="5.3" x="42.4" y="2.4" /><rect fill="black" height="7.3" stroke="none" stroke-width="0" width="7.3" x="51.3" y="1.3" /><rect fill="black" height="9.0" stroke="none" stroke-width="0" width="9.0" x="40.5" y="10.5" /><rect fill="black" height="2.0" stroke="none" stroke-width="0" width="2.0" x="54.0" y="14.0" /><rect fill="black" height="7.0" stroke="none" stroke-width="0" width="7.0" x="41.5" y="21.5" /><rect fill="black" height="5.7" stroke="none" stroke-width="0" width="5.7" x="52.1" y="22.1" /><rect fill="black" height="2.0" stroke="none" stroke-width="0" width="2.0" x="44.0" y="34.0" /><rect fill="black" height="9.0" stroke="none" stroke-width="0" width="9.0" x="50.5" y="30.5" /></g><g><text font-size="6px" text-anchor="middle" x="50.0" y="-19.0">A_7</text></g></svg>