<?xml version="1.0" encoding="utf-8" ?>
<svg baseProfile="full" height="100%" preserveAspectRatio="xMidYMid meet" version="1.1" viewBox="-40,-40,1210,90" width="100%" xmlns="http://www.w3.org/2000/svg" xmlns:ev="http://www.w3.org/2001/xml-events" xmlns:xlink="http://www.w3.org/1999/xlink"><defs><style type="text/css"><![CDATA[
        @import url(https://cdn.jsdelivr.net/npm/firacode@6.2.0/distr/fira_code.css);
        text {
            font-family: 'STIX Two', 'STIX Two Math', 'STIXMath', 'DejaVu Math TeX Glyph',
                        'DejaVu Serif', 'Cambria Math', 'Latin Modern Math', 'FiraCode',
                        'serif';
        }
    ]]></style><style type="text/css"><![CDATA[
        @import url(https://cdn.jsdelivr.net/npm/firacode@6.2.0/distr/fira_code.css);
        text {
            font-family: 'STIX Two', 'STIX Two Math', 'STIXMath', 'DejaVu Math TeX Glyph',
                        'DejaVu Serif', 'Cambria Math', 'Latin Modern Math', 'FiraCode',
                        'serif';
        }
    ]]></style></defs><g><rect fill="black" height="9.5" stroke="none" stroke-width="0" width="9.5" x="0.2" y="0.2" /><rect fill="black" height="9.4" stroke="none" stroke-width="0" width="9.4" x="10.3" y="0.3" /><rect fill="black" height="9.4" stroke="none" stroke-width="0" width="9.4" x="20.3" y="0.3" /><rect fill="black" height="9.4" stroke="none" stroke-width="0" width="9.4" x="30.3" y="0.3" /><rect fill="black" height="9.3" stroke="none" stroke-width="0" width="9.3" x="40.4" y="0.4" /><rect fill="black" height="9.3" stroke="none" stroke-width="0" width="9.3" x="50.4" y="0.4" /><rect fill="black" height="9.3" stroke="none" stroke-width="0" width="9.3" x="60.4" y="0.4" /><rect fill="black" height="9.2" stroke="none" stroke-width="0" width="9.2" x="70.4" y="0.4" /><rect fill="black" height="9.2" stroke="none" stroke-width="0" width="9.2" x="80.4" y="0.4" /><rect fill="black" height="9.2" stroke="none" stroke-width="0" width="9.2" x="90.4" y="0.4" /><rect fill="black" height="9.2" stroke="none" stroke-width="0" width="9.2" x="100.4" y="0.4" /><rect fill="black" height="9.2" stroke="none" stroke-width="0" width="9.2" x="110.4" y="0.4" /><rect fill="black" height="9.1" stroke="none" stroke-width="0" width="9.1" x="120.4" y="0.4" /><rect fill="black" height="9.1" stroke="none" stroke-width="0" width="9.1" x="130.4" y="0.4" /><rect fill="black" height="9.1" stroke="none" stroke-width="0" width="9.1" x="140.4" y="0.4" /><rect fill="black" height="9.1" stroke="none" stroke-width="0" width="9.1" x="150.5" y="0.5" /><rect fill="black" height="9.1" stroke="none" stroke-width="0" width="9.1" x="160.5" y="0.5" /><rect fill="black" height="9.1" stroke="none" stroke-width="0" width="9.1" x="170.5" y="0.5" /><rect fill="black" height="9.0" stroke="none" stroke-width="0" width="9.0" x="180.5" y="0.5" /><rect fill="black" height="9.0" stroke="none" stroke-width="0" width="9.0" x="190.5" y="0.5" /><rect fill="black" height="9.0" stroke="none" stroke-width="0" width="9.0" x="200.5" y="0.5" /><rect fill="black" height="9.0" stroke="none" stroke-width="0" width="9.0" x="210.5" y="0.5" /><rect fill="black" height="9.0" stroke="none" stroke-width="0" width="9.0" x="220.5" y="0.5" /><rect fill="black" height="9.0" stroke="none" stroke-width="0" width="9.0" x="230.5" y="0.5" /><rect fill="black" height="8.9" stroke="none" stroke-width="0" width="8.9" x="240.5" y="0.5" /><rect fill="black" height="8.9" stroke="none" stroke-width="0" width="8.9" x="250.5" y="0.5" /><rect fill="black" height="8.9" stroke="none" stroke-width="0" width="8.9" x="260.6" y="0.6" /><rect fill="black" height="8.9" stroke="none" stroke-width="0" width="8.9" x="270.6" y="0.6" /><rect fill="black" height="8.9" stroke="none" stroke-width="0" width="8.9" x="280.6" y="0.6" /><rect fill="black" height="8.8" stroke="none" stroke-width="0" width="8.8" x="290.6" y="0.6" /><rect fill="black" height="8.8" stroke="none" stroke-width="0" width="8.8" x="300.6" y="0.6" /><rect fill="black" height="8.8" stroke="none" stroke-width="0" width="8.8" x="310.6" y="0.6" /><rect fill="black" height="8.8" stroke="none" stroke-width="0" width="8.8" x="320.6" y="0.6" /><rect fill="black" height="8.8" stroke="none" stroke-width="0" width="8.8" x="330.6" y="0.6" /><rect fill="black" height="8.8" stroke="none" stroke-width="0" width="8.8" x="340.6" y="0.6" /><rect fill="black" height="8.8" stroke="none" stroke-width="0" width="8.8" x="350.6" y="0.6" /><rect fill="black" height="8.7" stroke="none" stroke-width="0" width="8.7" x="360.6" y="0.6" /><rect fill="black" height="8.7" stroke="none" stroke-width="0" width="8.7" x="370.6" y="0.6" /><rect fill="black" height="8.7" stroke="none" stroke-width="0" width="8.7" x="380.7" y="0.7" /><rect fill="black" height="8.7" stroke="none" stroke-width="0" width="8.7" x="390.7" y="0.7" /><rect fill="black" height="8.6" stroke="none" stroke-width="0" width="8.6" x="400.7" y="0.7" /><rect fill="black" height="8.6" stroke="none" stroke-width="0" width="8.6" x="410.7" y="0.7" /><rect fill="black" height="8.6" stroke="none" stroke-width="0" width="8.6" x="420.7" y="0.7" /><rect fill="black" height="8.6" stroke="none" stroke-width="0" width="8.6" x="430.7" y="0.7" /><rect fill="black" height="8.6" stroke="none" stroke-width="0" width="8.6" x="440.7" y="0.7" /><rect fill="black" height="8.5" stroke="none" stroke-width="0" width="8.5" x="450.7" y="0.7" /><rect fill="black" height="8.5" stroke="none" stroke-width="0" width="8.5" x="460.7" y="0.7" /><rect fill="black" height="8.5" stroke="none" stroke-width="0" width="8.5" x="470.7" y="0.7" /><rect fill="black" height="8.5" stroke="none" stroke-width="0" width="8.5" x="480.8" y="0.8" /><rect fill="black" height="8.4" stroke="none" stroke-width="0" width="8.4" x="490.8" y="0.8" /><rect fill="black" height="8.4" stroke="none" stroke-width="0" width="8.4" x="500.8" y="0.8" /><rect fill="black" height="8.4" stroke="none" stroke-width="0" width="8.4" x="510.8" y="0.8" /><rect fill="black" height="8.4" stroke="none" stroke-width="0" width="8.4" x="520.8" y="0.8" /><rect fill="black" height="8.4" stroke="none" stroke-width="0" width="8.4" x="530.8" y="0.8" /><rect fill="black" height="8.3" stroke="none" stroke-width="0" width="8.3" x="540.8" y="0.8" /><rect fill="black" height="8.3" stroke="none" stroke-width="0" width="8.3" x="550.8" y="0.8" /><rect fill="black" height="8.3" stroke="none" stroke-width="0" width="8.3" x="560.9" y="0.9" /><rect fill="black" height="8.3" stroke="none" stroke-width="0" width="8.3" x="570.9" y="0.9" /><rect fill="black" height="8.2" stroke="none" stroke-width="0" width="8.2" x="580.9" y="0.9" /><rect fill="black" height="8.2" stroke="none" stroke-width="0" width="8.2" x="590.9" y="0.9" /><rect fill="black" height="8.1" stroke="none" stroke-width="0" width="8.1" x="600.9" y="0.9" /><rect fill="black" height="8.1" stroke="none" stroke-width="0" width="8.1" x="610.9" y="0.9" /><rect fill="black" height="8.0" stroke="none" stroke-width="0" width="8.0" x="621.0" y="1.0" /><rect fill="black" height="8.0" stroke="none" stroke-width="0" width="8.0" x="631.0" y="1.0" /><rect fill="black" height="8.0" stroke="none" stroke-width="0" width="8.0" x="641.0" y="1.0" /><rect fill="black" height="7.9" stroke="none" stroke-width="0" width="7.9" x="651.0" y="1.0" /><rect fill="black" height="7.9" stroke="none" stroke-width="0" width="7.9" x="661.1" y="1.1" /><rect fill="black" height="7.9" stroke="none" stroke-width="0" width="7.9" x="671.1" y="1.1" /><rect fill="black" height="7.8" stroke="none" stroke-width="0" width="7.8" x="681.1" y="1.1" /><rect fill="black" height="7.8" stroke="none" stroke-width="0" width="7.8" x="691.1" y="1.1" /><rect fill="black" height="7.8" stroke="none" stroke-width="0" width="7.8" x="701.1" y="1.1" /><rect fill="black" height="7.7" stroke="none" stroke-width="0" width="7.7" x="711.1" y="1.1" /><rect fill="black" height="7.7" stroke="none" stroke-width="0" width="7.7" x="721.1" y="1.1" /><rect fill="black" height="7.7" stroke="none" stroke-width="0" width="7.7" x="731.1" y="1.1" /><rect fill="black" height="7.6" stroke="none" stroke-width="0" width="7.6" x="741.2" y="1.2" /><rect fill="black" height="7.6" stroke="none" stroke-width="0" width="7.6" x="751.2" y="1.2" /><rect fill="black" height="7.6" stroke="none" stroke-width="0" width="7.6" x="761.2" y="1.2" /><rect fill="black" height="7.5" stroke="none" stroke-width="0" width="7.5" x="771.2" y="1.2" /><rect fill="black" height="7.5" stroke="none" stroke-width="0" width="7.5" x="781.2" y="1.2" /><rect fill="black" height="7.5" stroke="none" stroke-width="0" width="7.5" x="791.3" y="1.3" /><rect fill="black" height="7.5" stroke="none" stroke-width="0" width="7.5" x="801.3" y="1.3" /><rect fill="black" height="7.4" stroke="none" stroke-width="0" width="7.4" x="811.3" y="1.3" /><rect fill="black" height="7.4" stroke="none" stroke-width="0" width="7.4" x="821.3" y="1.3" /><rect fill="black" height="7.4" stroke="none" stroke-width="0" width="7.4" x="831.3" y="1.3" /><rect fill="black" height="7.3" stroke="none" stroke-width="0" width="7.3" x="841.3" y="1.3" /><rect fill="black" height="7.3" stroke="none" stroke-width="0" width="7.3" x="851.4" y="1.4" /><rect fill="black" height="7.3" stroke="none" stroke-width="0" width="7.3" x="861.4" y="1.4" /><rect fill="black" height="7.2" stroke="none" stroke-width="0" width="7.2" x="871.4" y="1.4" /><rect fill="black" height="7.2" stroke="none" stroke-width="0" width="7.2" x="881.4" y="1.4" /><rect fill="black" height="7.2" stroke="none" stroke-width="0" width="7.2" x="891.4" y="1.4" /><rect fill="black" height="7.1" stroke="none" stroke-width="0" width="7.1" x="901.4" y="1.4" /><rect fill="black" height="7.1" stroke="none" stroke-width="0" width="7.1" x="911.5" y="1.5" /><rect fill="black" height="7.1" stroke="none" stroke-width="0" width="7.1" x="921.5" y="1.5" /><rect fill="black" height="7.0" stroke="none" stroke-width="0" width="7.0" x="931.5" y="1.5" /><rect fill="black" height="7.0" stroke="none" stroke-width="0" width="7.0" x="941.5" y="1.5" /><rect fill="black" height="6.9" stroke="none" stroke-width="0" width="6.9" x="951.5" y="1.5" /><rect fill="black" height="6.9" stroke="none" stroke-width="0" width="6.9" x="961.5" y="1.5" /><rect fill="black" height="6.9" stroke="none" stroke-width="0" width="6.9" x="971.6" y="1.6" /><rect fill="black" height="6.8" stroke="none" stroke-width="0" width="6.8" x="981.6" y="1.6" /><rect fill="black" height="6.8" stroke="none" stroke-width="0" width="6.8" x="991.6" y="1.6" /><rect fill="black" height="6.7" stroke="none" stroke-width="0" width="6.7" x="1001.6" y="1.6" /><rect fill="black" height="6.6" stroke="none" stroke-width="0" width="6.6" x="1011.7" y="1.7" /><rect fill="black" height="6.6" stroke="none" stroke-width="0" width="6.6" x="1021.7" y="1.7" /><rect fill="black" height="6.6" stroke="none" stroke-width="0" width="6.6" x="1031.7" y="1.7" /><rect fill="black" height="6.5" stroke="none" stroke-width="0" width="6.5" x="1041.8" y="1.8" /><rect fill="black" height="6.4" stroke="none" stroke-width="0" width="6.4" x="1051.8" y="1.8" /><rect fill="black" height="6.3" stroke="none" stroke-width="0" width="6.3" x="1061.8" y="1.8" /><rect fill="black" height="6.2" stroke="none" stroke-width="0" width="6.2" x="1071.9" y="1.9" /><rect fill="black" height="6.2" stroke="none" stroke-width="0" width="6.2" x="1081.9" y="1.9" /><rect fill="black" height="6.1" stroke="none" stroke-width="0" width="6.1" x="1092.0" y="2.0" /><rect fill="black" height="5.9" stroke="none" stroke-width="0" width="5.9" x="1102.0" y="2.0" /><rect fill="black" height="5.7" stroke="none" stroke-width="0" width="5.7" x="1112.1" y="2.1" /><rect fill="black" height="2.7" stroke="none" stroke-width="0" width="2.7" x="1123.7" y="3.7" /></g><g><line stroke="black" stroke-width="0.5" x1="455.0" x2="455.0" y1="16.0" y2="22.0" /><text dominant-baseline="middle" font-size="24px" text-anchor="middle" x="455.0" y="34.0">0.5</text><line stroke="black" stroke-width="0.5" x1="935.0" x2="935.0" y1="16.0" y2="22.0" /><text dominant-baseline="middle" font-size="24px" text-anchor="middle" x="935.0" y="34.0">0.9</text><text font-size="24px" text-anchor="middle" transform="rotate(-90, -22.0, 5.0)" x="-22.0" y="5.0">basis</text></g></svg>