<?xml version="1.0" encoding="utf-8" ?>
<svg baseProfile="full" height="100%" preserveAspectRatio="xMidYMid meet" version="1.1" viewBox="-40,-40,580,170" width="100%" xmlns="http://www.w3.org/2000/svg" xmlns:ev="http://www.w3.org/2001/xml-events" xmlns:xlink="http://www.w3.org/1999/xlink"><defs><style type="text/css"><![CDATA[
        @import url(https://cdn.jsdelivr.net/npm/firacode@6.2.0/distr/fira_code.css);
        text {
            font-family: 'STIX Two', 'STIX Two Math', 'STIXMath', 'DejaVu Math TeX Glyph',
                        'DejaVu Serif', 'Cambria Math', 'Latin Modern Math', 'FiraCode',
                        'serif';
        }
    ]]></style><style type="text/css"><![CDATA[
        @import url(https://cdn.jsdelivr.net/npm/firacode@6.2.0/distr/fira_code.css);
        text {
            font-family: 'STIX Two', 'STIX Two Math', 'STIXMath', 'DejaVu Math TeX Glyph',
                        'DejaVu Serif', 'Cambria Math', 'Latin Modern Math', 'FiraCode',
                        'serif';
        }
    ]]></style></defs><g><rect fill="black" height="5.4" stroke="none" stroke-width="0" width="5.4" x="2.3" y="2.3" /><rect fill="black" height="5.4" stroke="none" stroke-width="0" width="5.4" x="12.3" y="2.3" /><rect fill="black" height="5.1" stroke="none" stroke-width="0" width="5.1" x="22.5" y="2.5" /><rect fill="black" height="5.2" stroke="none" stroke-width="0" width="5.2" x="32.4" y="2.4" /><rect fill="black" height="5.3" stroke="none" stroke-width="0" width="5.3" x="42.4" y="2.4" /><rect fill="black" height="5.0" stroke="none" stroke-width="0" width="5.0" x="52.5" y="2.5" /><rect fill="black" height="5.2" stroke="none" stroke-width="0" width="5.2" x="62.4" y="2.4" /><rect fill="black" height="4.2" stroke="none" stroke-width="0" width="4.2" x="72.9" y="2.9" /><rect fill="black" height="4.4" stroke="none" stroke-width="0" width="4.4" x="82.8" y="2.8" /><rect fill="black" height="4.4" stroke="none" stroke-width="0" width="4.4" x="92.8" y="2.8" /><rect fill="black" height="4.0" stroke="none" stroke-width="0" width="4.0" x="103.0" y="3.0" /><rect fill="black" height="3.9" stroke="none" stroke-width="0" width="3.9" x="113.1" y="3.1" /><rect fill="black" height="3.6" stroke="none" stroke-width="0" width="3.6" x="123.2" y="3.2" /><rect fill="black" height="3.6" stroke="none" stroke-width="0" width="3.6" x="133.2" y="3.2" /><rect fill="black" height="3.4" stroke="none" stroke-width="0" width="3.4" x="143.3" y="3.3" /><rect fill="black" height="3.7" stroke="none" stroke-width="0" width="3.7" x="153.1" y="3.1" /><rect fill="black" height="3.7" stroke="none" stroke-width="0" width="3.7" x="163.2" y="3.2" /><rect fill="black" height="3.6" stroke="none" stroke-width="0" width="3.6" x="173.2" y="3.2" /><rect fill="black" height="3.8" stroke="none" stroke-width="0" width="3.8" x="183.1" y="3.1" /><rect fill="black" height="3.9" stroke="none" stroke-width="0" width="3.9" x="193.0" y="3.0" /><rect fill="black" height="3.6" stroke="none" stroke-width="0" width="3.6" x="203.2" y="3.2" /><rect fill="black" height="3.8" stroke="none" stroke-width="0" width="3.8" x="213.1" y="3.1" /><rect fill="black" height="3.6" stroke="none" stroke-width="0" width="3.6" x="223.2" y="3.2" /><rect fill="black" height="3.9" stroke="none" stroke-width="0" width="3.9" x="233.1" y="3.1" /><rect fill="black" height="3.5" stroke="none" stroke-width="0" width="3.5" x="243.3" y="3.3" /><rect fill="black" height="4.0" stroke="none" stroke-width="0" width="4.0" x="253.0" y="3.0" /><rect fill="black" height="4.0" stroke="none" stroke-width="0" width="4.0" x="263.0" y="3.0" /><rect fill="black" height="3.4" stroke="none" stroke-width="0" width="3.4" x="273.3" y="3.3" /><rect fill="black" height="3.4" stroke="none" stroke-width="0" width="3.4" x="283.3" y="3.3" /><rect fill="black" height="3.6" stroke="none" stroke-width="0" width="3.6" x="293.2" y="3.2" /><rect fill="black" height="3.7" stroke="none" stroke-width="0" width="3.7" x="303.1" y="3.1" /><rect fill="black" height="4.1" stroke="none" stroke-width="0" width="4.1" x="313.0" y="3.0" /><rect fill="black" height="3.5" stroke="none" stroke-width="0" width="3.5" x="323.2" y="3.2" /><rect fill="black" height="3.5" stroke="none" stroke-width="0" width="3.5" x="333.3" y="3.3" /><rect fill="black" height="3.6" stroke="none" stroke-width="0" width="3.6" x="343.2" y="3.2" /><rect fill="black" height="3.7" stroke="none" stroke-width="0" width="3.7" x="353.2" y="3.2" /><rect fill="black" height="3.6" stroke="none" stroke-width="0" width="3.6" x="363.2" y="3.2" /><rect fill="black" height="4.1" stroke="none" stroke-width="0" width="4.1" x="372.9" y="2.9" /><rect fill="black" height="3.2" stroke="none" stroke-width="0" width="3.2" x="383.4" y="3.4" /><rect fill="black" height="3.6" stroke="none" stroke-width="0" width="3.6" x="393.2" y="3.2" /><rect fill="black" height="3.8" stroke="none" stroke-width="0" width="3.8" x="403.1" y="3.1" /><rect fill="black" height="3.6" stroke="none" stroke-width="0" width="3.6" x="413.2" y="3.2" /><rect fill="black" height="3.2" stroke="none" stroke-width="0" width="3.2" x="423.4" y="3.4" /><rect fill="black" height="3.6" stroke="none" stroke-width="0" width="3.6" x="433.2" y="3.2" /><rect fill="black" height="3.7" stroke="none" stroke-width="0" width="3.7" x="443.2" y="3.2" /><rect fill="black" height="3.9" stroke="none" stroke-width="0" width="3.9" x="453.0" y="3.0" /><rect fill="black" height="3.5" stroke="none" stroke-width="0" width="3.5" x="463.3" y="3.3" /><rect fill="black" height="3.5" stroke="none" stroke-width="0" width="3.5" x="473.2" y="3.2" /><rect fill="black" height="3.5" stroke="none" stroke-width="0" width="3.5" x="483.2" y="3.2" /><rect fill="black" height="3.5" stroke="none" stroke-width="0" width="3.5" x="493.2" y="3.2" /><rect fill="black" height="4.8" stroke="none" stroke-width="0" width="4.8" x="2.6" y="12.6" /><rect fill="black" height="4.8" stroke="none" stroke-width="0" width="4.8" x="12.6" y="12.6" /><rect fill="black" height="5.0" stroke="none" stroke-width="0" width="5.0" x="22.5" y="12.5" /><rect fill="black" height="5.2" stroke="none" stroke-width="0" width="5.2" x="32.4" y="12.4" /><rect fill="black" height="5.3" stroke="none" stroke-width="0" width="5.3" x="42.3" y="12.3" /><rect fill="black" height="5.4" stroke="none" stroke-width="0" width="5.4" x="52.3" y="12.3" /><rect fill="black" height="5.2" stroke="none" stroke-width="0" width="5.2" x="62.4" y="12.4" /><rect fill="black" height="5.6" stroke="none" stroke-width="0" width="5.6" x="72.2" y="12.2" /><rect fill="black" height="5.4" stroke="none" stroke-width="0" width="5.4" x="82.3" y="12.3" /><rect fill="black" height="5.5" stroke="none" stroke-width="0" width="5.5" x="92.2" y="12.2" /><rect fill="black" height="5.6" stroke="none" stroke-width="0" width="5.6" x="102.2" y="12.2" /><rect fill="black" height="5.2" stroke="none" stroke-width="0" width="5.2" x="112.4" y="12.4" /><rect fill="black" height="5.1" stroke="none" stroke-width="0" width="5.1" x="122.4" y="12.4" /><rect fill="black" height="5.2" stroke="none" stroke-width="0" width="5.2" x="132.4" y="12.4" /><rect fill="black" height="5.3" stroke="none" stroke-width="0" width="5.3" x="142.4" y="12.4" /><rect fill="black" height="5.6" stroke="none" stroke-width="0" width="5.6" x="152.2" y="12.2" /><rect fill="black" height="5.1" stroke="none" stroke-width="0" width="5.1" x="162.4" y="12.4" /><rect fill="black" height="5.2" stroke="none" stroke-width="0" width="5.2" x="172.4" y="12.4" /><rect fill="black" height="5.2" stroke="none" stroke-width="0" width="5.2" x="182.4" y="12.4" /><rect fill="black" height="5.5" stroke="none" stroke-width="0" width="5.5" x="192.2" y="12.2" /><rect fill="black" height="5.2" stroke="none" stroke-width="0" width="5.2" x="202.4" y="12.4" /><rect fill="black" height="5.2" stroke="none" stroke-width="0" width="5.2" x="212.4" y="12.4" /><rect fill="black" height="5.2" stroke="none" stroke-width="0" width="5.2" x="222.4" y="12.4" /><rect fill="black" height="5.3" stroke="none" stroke-width="0" width="5.3" x="232.4" y="12.4" /><rect fill="black" height="4.9" stroke="none" stroke-width="0" width="4.9" x="242.5" y="12.5" /><rect fill="black" height="5.3" stroke="none" stroke-width="0" width="5.3" x="252.4" y="12.4" /><rect fill="black" height="5.4" stroke="none" stroke-width="0" width="5.4" x="262.3" y="12.3" /><rect fill="black" height="5.0" stroke="none" stroke-width="0" width="5.0" x="272.5" y="12.5" /><rect fill="black" height="5.2" stroke="none" stroke-width="0" width="5.2" x="282.4" y="12.4" /><rect fill="black" height="5.4" stroke="none" stroke-width="0" width="5.4" x="292.3" y="12.3" /><rect fill="black" height="5.0" stroke="none" stroke-width="0" width="5.0" x="302.5" y="12.5" /><rect fill="black" height="5.6" stroke="none" stroke-width="0" width="5.6" x="312.2" y="12.2" /><rect fill="black" height="5.2" stroke="none" stroke-width="0" width="5.2" x="322.4" y="12.4" /><rect fill="black" height="5.1" stroke="none" stroke-width="0" width="5.1" x="332.4" y="12.4" /><rect fill="black" height="5.0" stroke="none" stroke-width="0" width="5.0" x="342.5" y="12.5" /><rect fill="black" height="5.2" stroke="none" stroke-width="0" width="5.2" x="352.4" y="12.4" /><rect fill="black" height="5.0" stroke="none" stroke-width="0" width="5.0" x="362.5" y="12.5" /><rect fill="black" height="5.2" stroke="none" stroke-width="0" width="5.2" x="372.4" y="12.4" /><rect fill="black" height="5.1" stroke="none" stroke-width="0" width="5.1" x="382.4" y="12.4" /><rect fill="black" height="5.3" stroke="none" stroke-width="0" width="5.3" x="392.4" y="12.4" /><rect fill="black" height="5.1" stroke="none" stroke-width="0" width="5.1" x="402.4" y="12.4" /><rect fill="black" height="5.2" stroke="none" stroke-width="0" width="5.2" x="412.4" y="12.4" /><rect fill="black" height="5.0" stroke="none" stroke-width="0" width="5.0" x="422.5" y="12.5" /><rect fill="black" height="5.2" stroke="none" stroke-width="0" width="5.2" x="432.4" y="12.4" /><rect fill="black" height="5.2" stroke="none" stroke-width="0" width="5.2" x="442.4" y="12.4" /><rect fill="black" height="4.9" stroke="none" stroke-width="0" width="4.9" x="452.6" y="12.6" /><rect fill="black" height="5.1" stroke="none" stroke-width="0" width="5.1" x="462.5" y="12.5" /><rect fill="black" height="5.0" stroke="none" stroke-width="0" width="5.0" x="472.5" y="12.5" /><rect fill="black" height="5.2" stroke="none" stroke-width="0" width="5.2" x="482.4" y="12.4" /><rect fill="black" height="4.9" stroke="none" stroke-width="0" width="4.9" x="492.5" y="12.5" /><rect fill="black" height="3.2" stroke="none" stroke-width="0" width="3.2" x="3.4" y="23.4" /><rect fill="black" height="5.5" stroke="none" stroke-width="0" width="5.5" x="12.3" y="22.3" /><rect fill="black" height="4.6" stroke="none" stroke-width="0" width="4.6" x="22.7" y="22.7" /><rect fill="black" height="3.6" stroke="none" stroke-width="0" width="3.6" x="33.2" y="23.2" /><rect fill="black" height="3.2" stroke="none" stroke-width="0" width="3.2" x="43.4" y="23.4" /><rect fill="black" height="2.4" stroke="none" stroke-width="0" width="2.4" x="53.8" y="23.8" /><rect fill="black" height="2.9" stroke="none" stroke-width="0" width="2.9" x="63.5" y="23.5" /><rect fill="black" height="2.1" stroke="none" stroke-width="0" width="2.1" x="73.9" y="23.9" /><rect fill="black" height="2.1" stroke="none" stroke-width="0" width="2.1" x="83.9" y="23.9" /><rect fill="black" height="2.1" stroke="none" stroke-width="0" width="2.1" x="93.9" y="23.9" /><rect fill="black" height="2.1" stroke="none" stroke-width="0" width="2.1" x="103.9" y="23.9" /><rect fill="black" height="2.1" stroke="none" stroke-width="0" width="2.1" x="113.9" y="23.9" /><rect fill="black" height="2.1" stroke="none" stroke-width="0" width="2.1" x="123.9" y="23.9" /><rect fill="black" height="2.1" stroke="none" stroke-width="0" width="2.1" x="133.9" y="23.9" /><rect fill="black" height="2.1" stroke="none" stroke-width="0" width="2.1" x="143.9" y="23.9" /><rect fill="black" height="2.1" stroke="none" stroke-width="0" width="2.1" x="153.9" y="23.9" /><rect fill="black" height="2.1" stroke="none" stroke-width="0" width="2.1" x="163.9" y="23.9" /><rect fill="black" height="2.1" stroke="none" stroke-width="0" width="2.1" x="173.9" y="23.9" /><rect fill="black" height="2.1" stroke="none" stroke-width="0" width="2.1" x="183.9" y="23.9" /><rect fill="black" height="2.1" stroke="none" stroke-width="0" width="2.1" x="193.9" y="23.9" /><rect fill="black" height="2.1" stroke="none" stroke-width="0" width="2.1" x="203.9" y="23.9" /><rect fill="black" height="2.1" stroke="none" stroke-width="0" width="2.1" x="213.9" y="23.9" /><rect fill="black" height="2.1" stroke="none" stroke-width="0" width="2.1" x="223.9" y="23.9" /><rect fill="black" height="2.1" stroke="none" stroke-width="0" width="2.1" x="233.9" y="23.9" /><rect fill="black" height="2.1" stroke="none" stroke-width="0" width="2.1" x="243.9" y="23.9" /><rect fill="black" height="2.1" stroke="none" stroke-width="0" width="2.1" x="253.9" y="23.9" /><rect fill="black" height="2.1" stroke="none" stroke-width="0" width="2.1" x="263.9" y="23.9" /><rect fill="black" height="2.1" stroke="none" stroke-width="0" width="2.1" x="273.9" y="23.9" /><rect fill="black" height="2.1" stroke="none" stroke-width="0" width="2.1" x="283.9" y="23.9" /><rect fill="black" height="2.1" stroke="none" stroke-width="0" width="2.1" x="293.9" y="23.9" /><rect fill="black" height="2.1" stroke="none" stroke-width="0" width="2.1" x="303.9" y="23.9" /><rect fill="black" height="2.1" stroke="none" stroke-width="0" width="2.1" x="313.9" y="23.9" /><rect fill="black" height="2.1" stroke="none" stroke-width="0" width="2.1" x="323.9" y="23.9" /><rect fill="black" height="2.1" stroke="none" stroke-width="0" width="2.1" x="333.9" y="23.9" /><rect fill="black" height="2.1" stroke="none" stroke-width="0" width="2.1" x="343.9" y="23.9" /><rect fill="black" height="2.1" stroke="none" stroke-width="0" width="2.1" x="353.9" y="23.9" /><rect fill="black" height="2.1" stroke="none" stroke-width="0" width="2.1" x="363.9" y="23.9" /><rect fill="black" height="2.1" stroke="none" stroke-width="0" width="2.1" x="373.9" y="23.9" /><rect fill="black" height="2.1" stroke="none" stroke-width="0" width="2.1" x="383.9" y="23.9" /><rect fill="black" height="2.1" stroke="none" stroke-width="0" width="2.1" x="393.9" y="23.9" /><rect fill="black" height="2.1" stroke="none" stroke-width="0" width="2.1" x="403.9" y="23.9" /><rect fill="black" height="2.1" stroke="none" stroke-width="0" width="2.1" x="413.9" y="23.9" /><rect fill="black" height="2.1" stroke="none" stroke-width="0" width="2.1" x="423.9" y="23.9" /><rect fill="black" height="2.1" stroke="none" stroke-width="0" width="2.1" x="433.9" y="23.9" /><rect fill="black" height="2.1" stroke="none" stroke-width="0" width="2.1" x="443.9" y="23.9" /><rect fill="black" height="2.1" stroke="none" stroke-width="0" width="2.1" x="453.9" y="23.9" /><rect fill="black" height="2.1" stroke="none" stroke-width="0" width="2.1" x="463.9" y="23.9" /><rect fill="black" height="2.1" stroke="none" stroke-width="0" width="2.1" x="473.9" y="23.9" /><rect fill="black" height="2.1" stroke="none" stroke-width="0" width="2.1" x="483.9" y="23.9" /><rect fill="black" height="2.1" stroke="none" stroke-width="0" width="2.1" x="493.9" y="23.9" /><rect fill="black" height="5.7" stroke="none" stroke-width="0" width="5.7" x="2.1" y="32.1" /><rect fill="black" height="5.1" stroke="none" stroke-width="0" width="5.1" x="12.4" y="32.4" /><rect fill="black" height="5.2" stroke="none" stroke-width="0" width="5.2" x="22.4" y="32.4" /><rect fill="black" height="5.1" stroke="none" stroke-width="0" width="5.1" x="32.4" y="32.4" /><rect fill="black" height="5.3" stroke="none" stroke-width="0" width="5.3" x="42.3" y="32.3" /><rect fill="black" height="5.3" stroke="none" stroke-width="0" width="5.3" x="52.4" y="32.4" /><rect fill="black" height="5.0" stroke="none" stroke-width="0" width="5.0" x="62.5" y="32.5" /><rect fill="black" height="5.5" stroke="none" stroke-width="0" width="5.5" x="72.2" y="32.2" /><rect fill="black" height="5.2" stroke="none" stroke-width="0" width="5.2" x="82.4" y="32.4" /><rect fill="black" height="5.3" stroke="none" stroke-width="0" width="5.3" x="92.4" y="32.4" /><rect fill="black" height="5.2" stroke="none" stroke-width="0" width="5.2" x="102.4" y="32.4" /><rect fill="black" height="4.7" stroke="none" stroke-width="0" width="4.7" x="112.6" y="32.6" /><rect fill="black" height="4.6" stroke="none" stroke-width="0" width="4.6" x="122.7" y="32.7" /><rect fill="black" height="4.6" stroke="none" stroke-width="0" width="4.6" x="132.7" y="32.7" /><rect fill="black" height="4.6" stroke="none" stroke-width="0" width="4.6" x="142.7" y="32.7" /><rect fill="black" height="4.8" stroke="none" stroke-width="0" width="4.8" x="152.6" y="32.6" /><rect fill="black" height="4.3" stroke="none" stroke-width="0" width="4.3" x="162.9" y="32.9" /><rect fill="black" height="4.3" stroke="none" stroke-width="0" width="4.3" x="172.9" y="32.9" /><rect fill="black" height="4.3" stroke="none" stroke-width="0" width="4.3" x="182.9" y="32.9" /><rect fill="black" height="4.6" stroke="none" stroke-width="0" width="4.6" x="192.7" y="32.7" /><rect fill="black" height="4.2" stroke="none" stroke-width="0" width="4.2" x="202.9" y="32.9" /><rect fill="black" height="4.2" stroke="none" stroke-width="0" width="4.2" x="212.9" y="32.9" /><rect fill="black" height="4.1" stroke="none" stroke-width="0" width="4.1" x="222.9" y="32.9" /><rect fill="black" height="4.2" stroke="none" stroke-width="0" width="4.2" x="232.9" y="32.9" /><rect fill="black" height="3.8" stroke="none" stroke-width="0" width="3.8" x="243.1" y="33.1" /><rect fill="black" height="4.1" stroke="none" stroke-width="0" width="4.1" x="252.9" y="32.9" /><rect fill="black" height="4.2" stroke="none" stroke-width="0" width="4.2" x="262.9" y="32.9" /><rect fill="black" height="3.7" stroke="none" stroke-width="0" width="3.7" x="273.1" y="33.1" /><rect fill="black" height="4.0" stroke="none" stroke-width="0" width="4.0" x="283.0" y="33.0" /><rect fill="black" height="4.1" stroke="none" stroke-width="0" width="4.1" x="293.0" y="33.0" /><rect fill="black" height="3.9" stroke="none" stroke-width="0" width="3.9" x="303.1" y="33.1" /><rect fill="black" height="4.0" stroke="none" stroke-width="0" width="4.0" x="313.0" y="33.0" /><rect fill="black" height="3.9" stroke="none" stroke-width="0" width="3.9" x="323.0" y="33.0" /><rect fill="black" height="3.9" stroke="none" stroke-width="0" width="3.9" x="333.1" y="33.1" /><rect fill="black" height="3.8" stroke="none" stroke-width="0" width="3.8" x="343.1" y="33.1" /><rect fill="black" height="4.0" stroke="none" stroke-width="0" width="4.0" x="353.0" y="33.0" /><rect fill="black" height="3.7" stroke="none" stroke-width="0" width="3.7" x="363.1" y="33.1" /><rect fill="black" height="4.0" stroke="none" stroke-width="0" width="4.0" x="373.0" y="33.0" /><rect fill="black" height="4.0" stroke="none" stroke-width="0" width="4.0" x="383.0" y="33.0" /><rect fill="black" height="3.9" stroke="none" stroke-width="0" width="3.9" x="393.1" y="33.1" /><rect fill="black" height="3.9" stroke="none" stroke-width="0" width="3.9" x="403.0" y="33.0" /><rect fill="black" height="3.9" stroke="none" stroke-width="0" width="3.9" x="413.0" y="33.0" /><rect fill="black" height="3.8" stroke="none" stroke-width="0" width="3.8" x="423.1" y="33.1" /><rect fill="black" height="3.9" stroke="none" stroke-width="0" width="3.9" x="433.1" y="33.1" /><rect fill="black" height="3.8" stroke="none" stroke-width="0" width="3.8" x="443.1" y="33.1" /><rect fill="black" height="3.5" stroke="none" stroke-width="0" width="3.5" x="453.3" y="33.3" /><rect fill="black" height="3.7" stroke="none" stroke-width="0" width="3.7" x="463.2" y="33.2" /><rect fill="black" height="3.7" stroke="none" stroke-width="0" width="3.7" x="473.2" y="33.2" /><rect fill="black" height="3.9" stroke="none" stroke-width="0" width="3.9" x="483.0" y="33.0" /><rect fill="black" height="3.6" stroke="none" stroke-width="0" width="3.6" x="493.2" y="33.2" /><rect fill="black" height="4.3" stroke="none" stroke-width="0" width="4.3" x="2.9" y="42.9" /><rect fill="black" height="3.8" stroke="none" stroke-width="0" width="3.8" x="13.1" y="43.1" /><rect fill="black" height="4.9" stroke="none" stroke-width="0" width="4.9" x="22.5" y="42.5" /><rect fill="black" height="5.2" stroke="none" stroke-width="0" width="5.2" x="32.4" y="42.4" /><rect fill="black" height="3.7" stroke="none" stroke-width="0" width="3.7" x="43.1" y="43.1" /><rect fill="black" height="3.3" stroke="none" stroke-width="0" width="3.3" x="53.4" y="43.4" /><rect fill="black" height="2.4" stroke="none" stroke-width="0" width="2.4" x="63.8" y="43.8" /><rect fill="black" height="2.1" stroke="none" stroke-width="0" width="2.1" x="73.9" y="43.9" /><rect fill="black" height="2.1" stroke="none" stroke-width="0" width="2.1" x="83.9" y="43.9" /><rect fill="black" height="2.1" stroke="none" stroke-width="0" width="2.1" x="93.9" y="43.9" /><rect fill="black" height="2.1" stroke="none" stroke-width="0" width="2.1" x="103.9" y="43.9" /><rect fill="black" height="2.1" stroke="none" stroke-width="0" width="2.1" x="113.9" y="43.9" /><rect fill="black" height="2.1" stroke="none" stroke-width="0" width="2.1" x="123.9" y="43.9" /><rect fill="black" height="2.1" stroke="none" stroke-width="0" width="2.1" x="133.9" y="43.9" /><rect fill="black" height="2.1" stroke="none" stroke-width="0" width="2.1" x="143.9" y="43.9" /><rect fill="black" height="2.1" stroke="none" stroke-width="0" width="2.1" x="153.9" y="43.9" /><rect fill="black" height="2.1" stroke="none" stroke-width="0" width="2.1" x="163.9" y="43.9" /><rect fill="black" height="2.1" stroke="none" stroke-width="0" width="2.1" x="173.9" y="43.9" /><rect fill="black" height="2.1" stroke="none" stroke-width="0" width="2.1" x="183.9" y="43.9" /><rect fill="black" height="2.1" stroke="none" stroke-width="0" width="2.1" x="193.9" y="43.9" /><rect fill="black" height="2.1" stroke="none" stroke-width="0" width="2.1" x="203.9" y="43.9" /><rect fill="black" height="2.1" stroke="none" stroke-width="0" width="2.1" x="213.9" y="43.9" /><rect fill="black" height="2.1" stroke="none" stroke-width="0" width="2.1" x="223.9" y="43.9" /><rect fill="black" height="2.1" stroke="none" stroke-width="0" width="2.1" x="233.9" y="43.9" /><rect fill="black" height="2.1" stroke="none" stroke-width="0" width="2.1" x="243.9" y="43.9" /><rect fill="black" height="2.1" stroke="none" stroke-width="0" width="2.1" x="253.9" y="43.9" /><rect fill="black" height="2.1" stroke="none" stroke-width="0" width="2.1" x="263.9" y="43.9" /><rect fill="black" height="2.1" stroke="none" stroke-width="0" width="2.1" x="273.9" y="43.9" /><rect fill="black" height="2.1" stroke="none" stroke-width="0" width="2.1" x="283.9" y="43.9" /><rect fill="black" height="2.1" stroke="none" stroke-width="0" width="2.1" x="293.9" y="43.9" /><rect fill="black" height="2.1" stroke="none" stroke-width="0" width="2.1" x="303.9" y="43.9" /><rect fill="black" height="2.1" stroke="none" stroke-width="0" width="2.1" x="313.9" y="43.9" /><rect fill="black" height="2.1" stroke="none" stroke-width="0" width="2.1" x="323.9" y="43.9" /><rect fill="black" height="2.1" stroke="none" stroke-width="0" width="2.1" x="333.9" y="43.9" /><rect fill="black" height="2.1" stroke="none" stroke-width="0" width="2.1" x="343.9" y="43.9" /><rect fill="black" height="2.1" stroke="none" stroke-width="0" width="2.1" x="353.9" y="43.9" /><rect fill="black" height="2.1" stroke="none" stroke-width="0" width="2.1" x="363.9" y="43.9" /><rect fill="black" height="2.1" stroke="none" stroke-width="0" width="2.1" x="373.9" y="43.9" /><rect fill="black" height="2.1" stroke="none" stroke-width="0" width="2.1" x="383.9" y="43.9" /><rect fill="black" height="2.1" stroke="none" stroke-width="0" width="2.1" x="393.9" y="43.9" /><rect fill="black" height="2.1" stroke="none" stroke-width="0" width="2.1" x="403.9" y="43.9" /><rect fill="black" height="2.1" stroke="none" stroke-width="0" width="2.1" x="413.9" y="43.9" /><rect fill="black" height="2.1" stroke="none" stroke-width="0" width="2.1" x="423.9" y="43.9" /><rect fill="black" height="2.1" stroke="none" stroke-width="0" width="2.1" x="433.9" y="43.9" /><rect fill="black" height="2.1" stroke="none" stroke-width="0" width="2.1" x="443.9" y="43.9" /><rect fill="black" height="2.1" stroke="none" stroke-width="0" width="2.1" x="453.9" y="43.9" /><rect fill="black" height="2.1" stroke="none" stroke-width="0" width="2.1" x="463.9" y="43.9" /><rect fill="black" height="2.1" stroke="none" stroke-width="0" width="2.1" x="473.9" y="43.9" /><rect fill="black" height="2.1" stroke="none" stroke-width="0" width="2.1" x="483.9" y="43.9" /><rect fill="black" height="2.1" stroke="none" stroke-width="0" width="2.1" x="493.9" y="43.9" /><rect fill="black" height="5.8" stroke="none" stroke-width="0" width="5.8" x="2.1" y="52.1" /><rect fill="black" height="4.8" stroke="none" stroke-width="0" width="4.8" x="12.6" y="52.6" /><rect fill="black" height="4.3" stroke="none" stroke-width="0" width="4.3" x="22.9" y="52.9" /><rect fill="black" height="4.1" stroke="none" stroke-width="0" width="4.1" x="33.0" y="53.0" /><rect fill="black" height="3.8" stroke="none" stroke-width="0" width="3.8" x="43.1" y="53.1" /><rect fill="black" height="3.4" stroke="none" stroke-width="0" width="3.4" x="53.3" y="53.3" /><rect fill="black" height="3.1" stroke="none" stroke-width="0" width="3.1" x="63.5" y="53.5" /><rect fill="black" height="2.7" stroke="none" stroke-width="0" width="2.7" x="73.7" y="53.7" /><rect fill="black" height="2.5" stroke="none" stroke-width="0" width="2.5" x="83.8" y="53.8" /><rect fill="black" height="2.4" stroke="none" stroke-width="0" width="2.4" x="93.8" y="53.8" /><rect fill="black" height="2.2" stroke="none" stroke-width="0" width="2.2" x="103.9" y="53.9" /><rect fill="black" height="2.1" stroke="none" stroke-width="0" width="2.1" x="113.9" y="53.9" /><rect fill="black" height="2.1" stroke="none" stroke-width="0" width="2.1" x="123.9" y="53.9" /><rect fill="black" height="2.1" stroke="none" stroke-width="0" width="2.1" x="133.9" y="53.9" /><rect fill="black" height="2.1" stroke="none" stroke-width="0" width="2.1" x="143.9" y="53.9" /><rect fill="black" height="2.1" stroke="none" stroke-width="0" width="2.1" x="153.9" y="53.9" /><rect fill="black" height="2.1" stroke="none" stroke-width="0" width="2.1" x="163.9" y="53.9" /><rect fill="black" height="2.1" stroke="none" stroke-width="0" width="2.1" x="173.9" y="53.9" /><rect fill="black" height="2.1" stroke="none" stroke-width="0" width="2.1" x="183.9" y="53.9" /><rect fill="black" height="2.1" stroke="none" stroke-width="0" width="2.1" x="193.9" y="53.9" /><rect fill="black" height="2.1" stroke="none" stroke-width="0" width="2.1" x="203.9" y="53.9" /><rect fill="black" height="2.1" stroke="none" stroke-width="0" width="2.1" x="213.9" y="53.9" /><rect fill="black" height="2.1" stroke="none" stroke-width="0" width="2.1" x="223.9" y="53.9" /><rect fill="black" height="2.1" stroke="none" stroke-width="0" width="2.1" x="233.9" y="53.9" /><rect fill="black" height="2.1" stroke="none" stroke-width="0" width="2.1" x="243.9" y="53.9" /><rect fill="black" height="2.1" stroke="none" stroke-width="0" width="2.1" x="253.9" y="53.9" /><rect fill="black" height="2.1" stroke="none" stroke-width="0" width="2.1" x="263.9" y="53.9" /><rect fill="black" height="2.1" stroke="none" stroke-width="0" width="2.1" x="273.9" y="53.9" /><rect fill="black" height="2.1" stroke="none" stroke-width="0" width="2.1" x="283.9" y="53.9" /><rect fill="black" height="2.1" stroke="none" stroke-width="0" width="2.1" x="293.9" y="53.9" /><rect fill="black" height="2.1" stroke="none" stroke-width="0" width="2.1" x="303.9" y="53.9" /><rect fill="black" height="2.1" stroke="none" stroke-width="0" width="2.1" x="313.9" y="53.9" /><rect fill="black" height="2.1" stroke="none" stroke-width="0" width="2.1" x="323.9" y="53.9" /><rect fill="black" height="2.1" stroke="none" stroke-width="0" width="2.1" x="333.9" y="53.9" /><rect fill="black" height="2.1" stroke="none" stroke-width="0" width="2.1" x="343.9" y="53.9" /><rect fill="black" height="2.1" stroke="none" stroke-width="0" width="2.1" x="353.9" y="53.9" /><rect fill="black" height="2.1" stroke="none" stroke-width="0" width="2.1" x="363.9" y="53.9" /><rect fill="black" height="2.1" stroke="none" stroke-width="0" width="2.1" x="373.9" y="53.9" /><rect fill="black" height="2.1" stroke="none" stroke-width="0" width="2.1" x="383.9" y="53.9" /><rect fill="black" height="2.1" stroke="none" stroke-width="0" width="2.1" x="393.9" y="53.9" /><rect fill="black" height="2.1" stroke="none" stroke-width="0" width="2.1" x="403.9" y="53.9" /><rect fill="black" height="2.1" stroke="none" stroke-width="0" width="2.1" x="413.9" y="53.9" /><rect fill="black" height="2.1" stroke="none" stroke-width="0" width="2.1" x="423.9" y="53.9" /><rect fill="black" height="2.1" stroke="none" stroke-width="0" width="2.1" x="433.9" y="53.9" /><rect fill="black" height="2.1" stroke="none" stroke-width="0" width="2.1" x="443.9" y="53.9" /><rect fill="black" height="2.1" stroke="none" stroke-width="0" width="2.1" x="453.9" y="53.9" /><rect fill="black" height="2.1" stroke="none" stroke-width="0" width="2.1" x="463.9" y="53.9" /><rect fill="black" height="2.1" stroke="none" stroke-width="0" width="2.1" x="473.9" y="53.9" /><rect fill="black" height="2.1" stroke="none" stroke-width="0" width="2.1" x="483.9" y="53.9" /><rect fill="black" height="2.1" stroke="none" stroke-width="0" width="2.1" x="493.9" y="53.9" /><rect fill="black" height="4.4" stroke="none" stroke-width="0" width="4.4" x="2.8" y="62.8" /><rect fill="black" height="4.6" stroke="none" stroke-width="0" width="4.6" x="12.7" y="62.7" /><rect fill="black" height="5.1" stroke="none" stroke-width="0" width="5.1" x="22.5" y="62.5" /><rect fill="black" height="5.1" stroke="none" stroke-width="0" width="5.1" x="32.4" y="62.4" /><rect fill="black" height="5.6" stroke="none" stroke-width="0" width="5.6" x="42.2" y="62.2" /><rect fill="black" height="5.8" stroke="none" stroke-width="0" width="5.8" x="52.1" y="62.1" /><rect fill="black" height="5.8" stroke="none" stroke-width="0" width="5.8" x="62.1" y="62.1" /><rect fill="black" height="6.3" stroke="none" stroke-width="0" width="6.3" x="71.8" y="61.8" /><rect fill="black" height="6.3" stroke="none" stroke-width="0" width="6.3" x="81.9" y="61.9" /><rect fill="black" height="6.4" stroke="none" stroke-width="0" width="6.4" x="91.8" y="61.8" /><rect fill="black" height="6.5" stroke="none" stroke-width="0" width="6.5" x="101.8" y="61.8" /><rect fill="black" height="6.3" stroke="none" stroke-width="0" width="6.3" x="111.8" y="61.8" /><rect fill="black" height="6.4" stroke="none" stroke-width="0" width="6.4" x="121.8" y="61.8" /><rect fill="black" height="6.5" stroke="none" stroke-width="0" width="6.5" x="131.8" y="61.8" /><rect fill="black" height="6.5" stroke="none" stroke-width="0" width="6.5" x="141.7" y="61.7" /><rect fill="black" height="6.6" stroke="none" stroke-width="0" width="6.6" x="151.7" y="61.7" /><rect fill="black" height="6.4" stroke="none" stroke-width="0" width="6.4" x="161.8" y="61.8" /><rect fill="black" height="6.3" stroke="none" stroke-width="0" width="6.3" x="171.8" y="61.8" /><rect fill="black" height="6.5" stroke="none" stroke-width="0" width="6.5" x="181.8" y="61.8" /><rect fill="black" height="6.7" stroke="none" stroke-width="0" width="6.7" x="191.7" y="61.7" /><rect fill="black" height="6.4" stroke="none" stroke-width="0" width="6.4" x="201.8" y="61.8" /><rect fill="black" height="6.4" stroke="none" stroke-width="0" width="6.4" x="211.8" y="61.8" /><rect fill="black" height="6.4" stroke="none" stroke-width="0" width="6.4" x="221.8" y="61.8" /><rect fill="black" height="6.4" stroke="none" stroke-width="0" width="6.4" x="231.8" y="61.8" /><rect fill="black" height="6.2" stroke="none" stroke-width="0" width="6.2" x="241.9" y="61.9" /><rect fill="black" height="6.3" stroke="none" stroke-width="0" width="6.3" x="251.8" y="61.8" /><rect fill="black" height="6.4" stroke="none" stroke-width="0" width="6.4" x="261.8" y="61.8" /><rect fill="black" height="6.2" stroke="none" stroke-width="0" width="6.2" x="271.9" y="61.9" /><rect fill="black" height="6.3" stroke="none" stroke-width="0" width="6.3" x="281.8" y="61.8" /><rect fill="black" height="6.3" stroke="none" stroke-width="0" width="6.3" x="291.8" y="61.8" /><rect fill="black" height="6.3" stroke="none" stroke-width="0" width="6.3" x="301.9" y="61.9" /><rect fill="black" height="6.1" stroke="none" stroke-width="0" width="6.1" x="311.9" y="61.9" /><rect fill="black" height="6.2" stroke="none" stroke-width="0" width="6.2" x="321.9" y="61.9" /><rect fill="black" height="6.3" stroke="none" stroke-width="0" width="6.3" x="331.9" y="61.9" /><rect fill="black" height="6.2" stroke="none" stroke-width="0" width="6.2" x="341.9" y="61.9" /><rect fill="black" height="6.3" stroke="none" stroke-width="0" width="6.3" x="351.9" y="61.9" /><rect fill="black" height="6.3" stroke="none" stroke-width="0" width="6.3" x="361.9" y="61.9" /><rect fill="black" height="6.2" stroke="none" stroke-width="0" width="6.2" x="371.9" y="61.9" /><rect fill="black" height="6.2" stroke="none" stroke-width="0" width="6.2" x="381.9" y="61.9" /><rect fill="black" height="6.3" stroke="none" stroke-width="0" width="6.3" x="391.8" y="61.8" /><rect fill="black" height="6.3" stroke="none" stroke-width="0" width="6.3" x="401.9" y="61.9" /><rect fill="black" height="6.3" stroke="none" stroke-width="0" width="6.3" x="411.9" y="61.9" /><rect fill="black" height="6.2" stroke="none" stroke-width="0" width="6.2" x="421.9" y="61.9" /><rect fill="black" height="6.2" stroke="none" stroke-width="0" width="6.2" x="431.9" y="61.9" /><rect fill="black" height="6.3" stroke="none" stroke-width="0" width="6.3" x="441.9" y="61.9" /><rect fill="black" height="5.6" stroke="none" stroke-width="0" width="5.6" x="452.2" y="62.2" /><rect fill="black" height="6.1" stroke="none" stroke-width="0" width="6.1" x="461.9" y="61.9" /><rect fill="black" height="6.3" stroke="none" stroke-width="0" width="6.3" x="471.9" y="61.9" /><rect fill="black" height="6.3" stroke="none" stroke-width="0" width="6.3" x="481.8" y="61.8" /><rect fill="black" height="6.0" stroke="none" stroke-width="0" width="6.0" x="492.0" y="62.0" /><rect fill="black" height="4.0" stroke="none" stroke-width="0" width="4.0" x="3.0" y="73.0" /><rect fill="black" height="4.5" stroke="none" stroke-width="0" width="4.5" x="12.8" y="72.8" /><rect fill="black" height="4.6" stroke="none" stroke-width="0" width="4.6" x="22.7" y="72.7" /><rect fill="black" height="5.2" stroke="none" stroke-width="0" width="5.2" x="32.4" y="72.4" /><rect fill="black" height="5.5" stroke="none" stroke-width="0" width="5.5" x="42.2" y="72.2" /><rect fill="black" height="6.0" stroke="none" stroke-width="0" width="6.0" x="52.0" y="72.0" /><rect fill="black" height="6.3" stroke="none" stroke-width="0" width="6.3" x="61.8" y="71.8" /><rect fill="black" height="6.3" stroke="none" stroke-width="0" width="6.3" x="71.9" y="71.9" /><rect fill="black" height="6.5" stroke="none" stroke-width="0" width="6.5" x="81.8" y="71.8" /><rect fill="black" height="6.4" stroke="none" stroke-width="0" width="6.4" x="91.8" y="71.8" /><rect fill="black" height="6.1" stroke="none" stroke-width="0" width="6.1" x="101.9" y="71.9" /><rect fill="black" height="6.7" stroke="none" stroke-width="0" width="6.7" x="111.7" y="71.7" /><rect fill="black" height="6.2" stroke="none" stroke-width="0" width="6.2" x="121.9" y="71.9" /><rect fill="black" height="5.9" stroke="none" stroke-width="0" width="5.9" x="132.1" y="72.1" /><rect fill="black" height="6.1" stroke="none" stroke-width="0" width="6.1" x="142.0" y="72.0" /><rect fill="black" height="5.6" stroke="none" stroke-width="0" width="5.6" x="152.2" y="72.2" /><rect fill="black" height="6.6" stroke="none" stroke-width="0" width="6.6" x="161.7" y="71.7" /><rect fill="black" height="6.5" stroke="none" stroke-width="0" width="6.5" x="171.8" y="71.8" /><rect fill="black" height="6.0" stroke="none" stroke-width="0" width="6.0" x="182.0" y="72.0" /><rect fill="black" height="5.4" stroke="none" stroke-width="0" width="5.4" x="192.3" y="72.3" /><rect fill="black" height="6.5" stroke="none" stroke-width="0" width="6.5" x="201.8" y="71.8" /><rect fill="black" height="6.1" stroke="none" stroke-width="0" width="6.1" x="212.0" y="72.0" /><rect fill="black" height="6.2" stroke="none" stroke-width="0" width="6.2" x="221.9" y="71.9" /><rect fill="black" height="5.9" stroke="none" stroke-width="0" width="5.9" x="232.0" y="72.0" /><rect fill="black" height="6.6" stroke="none" stroke-width="0" width="6.6" x="241.7" y="71.7" /><rect fill="black" height="5.4" stroke="none" stroke-width="0" width="5.4" x="252.3" y="72.3" /><rect fill="black" height="6.2" stroke="none" stroke-width="0" width="6.2" x="261.9" y="71.9" /><rect fill="black" height="5.8" stroke="none" stroke-width="0" width="5.8" x="272.1" y="72.1" /><rect fill="black" height="6.0" stroke="none" stroke-width="0" width="6.0" x="282.0" y="72.0" /><rect fill="black" height="5.6" stroke="none" stroke-width="0" width="5.6" x="292.2" y="72.2" /><rect fill="black" height="6.3" stroke="none" stroke-width="0" width="6.3" x="301.9" y="71.9" /><rect fill="black" height="5.2" stroke="none" stroke-width="0" width="5.2" x="312.4" y="72.4" /><rect fill="black" height="6.1" stroke="none" stroke-width="0" width="6.1" x="322.0" y="72.0" /><rect fill="black" height="6.8" stroke="none" stroke-width="0" width="6.8" x="331.6" y="71.6" /><rect fill="black" height="6.4" stroke="none" stroke-width="0" width="6.4" x="341.8" y="71.8" /><rect fill="black" height="5.7" stroke="none" stroke-width="0" width="5.7" x="352.1" y="72.1" /><rect fill="black" height="6.0" stroke="none" stroke-width="0" width="6.0" x="362.0" y="72.0" /><rect fill="black" height="5.3" stroke="none" stroke-width="0" width="5.3" x="372.3" y="72.3" /><rect fill="black" height="6.1" stroke="none" stroke-width="0" width="6.1" x="382.0" y="72.0" /><rect fill="black" height="5.2" stroke="none" stroke-width="0" width="5.2" x="392.4" y="72.4" /><rect fill="black" height="6.2" stroke="none" stroke-width="0" width="6.2" x="401.9" y="71.9" /><rect fill="black" height="5.7" stroke="none" stroke-width="0" width="5.7" x="412.2" y="72.2" /><rect fill="black" height="6.5" stroke="none" stroke-width="0" width="6.5" x="421.7" y="71.7" /><rect fill="black" height="5.7" stroke="none" stroke-width="0" width="5.7" x="432.1" y="72.1" /><rect fill="black" height="6.2" stroke="none" stroke-width="0" width="6.2" x="441.9" y="71.9" /><rect fill="black" height="7.2" stroke="none" stroke-width="0" width="7.2" x="451.4" y="71.4" /><rect fill="black" height="5.7" stroke="none" stroke-width="0" width="5.7" x="462.1" y="72.1" /><rect fill="black" height="6.1" stroke="none" stroke-width="0" width="6.1" x="472.0" y="72.0" /><rect fill="black" height="5.7" stroke="none" stroke-width="0" width="5.7" x="482.1" y="72.1" /><rect fill="black" height="6.3" stroke="none" stroke-width="0" width="6.3" x="491.9" y="71.9" /><rect fill="black" height="5.7" stroke="none" stroke-width="0" width="5.7" x="2.1" y="82.1" /><rect fill="black" height="5.1" stroke="none" stroke-width="0" width="5.1" x="12.5" y="82.5" /><rect fill="black" height="5.0" stroke="none" stroke-width="0" width="5.0" x="22.5" y="82.5" /><rect fill="black" height="5.0" stroke="none" stroke-width="0" width="5.0" x="32.5" y="82.5" /><rect fill="black" height="5.4" stroke="none" stroke-width="0" width="5.4" x="42.3" y="82.3" /><rect fill="black" height="5.9" stroke="none" stroke-width="0" width="5.9" x="52.0" y="82.0" /><rect fill="black" height="6.0" stroke="none" stroke-width="0" width="6.0" x="62.0" y="82.0" /><rect fill="black" height="6.6" stroke="none" stroke-width="0" width="6.6" x="71.7" y="81.7" /><rect fill="black" height="6.8" stroke="none" stroke-width="0" width="6.8" x="81.6" y="81.6" /><rect fill="black" height="6.8" stroke="none" stroke-width="0" width="6.8" x="91.6" y="81.6" /><rect fill="black" height="7.1" stroke="none" stroke-width="0" width="7.1" x="101.4" y="81.4" /><rect fill="black" height="7.8" stroke="none" stroke-width="0" width="7.8" x="111.1" y="81.1" /><rect fill="black" height="8.2" stroke="none" stroke-width="0" width="8.2" x="120.9" y="80.9" /><rect fill="black" height="8.3" stroke="none" stroke-width="0" width="8.3" x="130.8" y="80.8" /><rect fill="black" height="8.4" stroke="none" stroke-width="0" width="8.4" x="140.8" y="80.8" /><rect fill="black" height="8.3" stroke="none" stroke-width="0" width="8.3" x="150.9" y="80.9" /><rect fill="black" height="8.3" stroke="none" stroke-width="0" width="8.3" x="160.9" y="80.9" /><rect fill="black" height="8.5" stroke="none" stroke-width="0" width="8.5" x="170.8" y="80.8" /><rect fill="black" height="8.6" stroke="none" stroke-width="0" width="8.6" x="180.7" y="80.7" /><rect fill="black" height="8.4" stroke="none" stroke-width="0" width="8.4" x="190.8" y="80.8" /><rect fill="black" height="8.5" stroke="none" stroke-width="0" width="8.5" x="200.8" y="80.8" /><rect fill="black" height="8.7" stroke="none" stroke-width="0" width="8.7" x="210.7" y="80.7" /><rect fill="black" height="8.7" stroke="none" stroke-width="0" width="8.7" x="220.7" y="80.7" /><rect fill="black" height="8.7" stroke="none" stroke-width="0" width="8.7" x="230.7" y="80.7" /><rect fill="black" height="8.9" stroke="none" stroke-width="0" width="8.9" x="240.6" y="80.6" /><rect fill="black" height="9.1" stroke="none" stroke-width="0" width="9.1" x="250.5" y="80.5" /><rect fill="black" height="8.3" stroke="none" stroke-width="0" width="8.3" x="260.9" y="80.9" /><rect fill="black" height="9.5" stroke="none" stroke-width="0" width="9.5" x="270.3" y="80.3" /><rect fill="black" height="9.0" stroke="none" stroke-width="0" width="9.0" x="280.5" y="80.5" /><rect fill="black" height="9.0" stroke="none" stroke-width="0" width="9.0" x="290.5" y="80.5" /><rect fill="black" height="8.9" stroke="none" stroke-width="0" width="8.9" x="300.5" y="80.5" /><rect fill="black" height="9.1" stroke="none" stroke-width="0" width="9.1" x="310.4" y="80.4" /><rect fill="black" height="9.0" stroke="none" stroke-width="0" width="9.0" x="320.5" y="80.5" /><rect fill="black" height="8.6" stroke="none" stroke-width="0" width="8.6" x="330.7" y="80.7" /><rect fill="black" height="9.0" stroke="none" stroke-width="0" width="9.0" x="340.5" y="80.5" /><rect fill="black" height="9.2" stroke="none" stroke-width="0" width="9.2" x="350.4" y="80.4" /><rect fill="black" height="9.3" stroke="none" stroke-width="0" width="9.3" x="360.4" y="80.4" /><rect fill="black" height="9.2" stroke="none" stroke-width="0" width="9.2" x="370.4" y="80.4" /><rect fill="black" height="9.1" stroke="none" stroke-width="0" width="9.1" x="380.4" y="80.4" /><rect fill="black" height="9.4" stroke="none" stroke-width="0" width="9.4" x="390.3" y="80.3" /><rect fill="black" height="8.8" stroke="none" stroke-width="0" width="8.8" x="400.6" y="80.6" /><rect fill="black" height="9.2" stroke="none" stroke-width="0" width="9.2" x="410.4" y="80.4" /><rect fill="black" height="9.1" stroke="none" stroke-width="0" width="9.1" x="420.5" y="80.5" /><rect fill="black" height="9.3" stroke="none" stroke-width="0" width="9.3" x="430.4" y="80.4" /><rect fill="black" height="8.9" stroke="none" stroke-width="0" width="8.9" x="440.6" y="80.6" /><rect fill="black" height="8.8" stroke="none" stroke-width="0" width="8.8" x="450.6" y="80.6" /><rect fill="black" height="9.5" stroke="none" stroke-width="0" width="9.5" x="460.2" y="80.2" /><rect fill="black" height="9.2" stroke="none" stroke-width="0" width="9.2" x="470.4" y="80.4" /><rect fill="black" height="9.1" stroke="none" stroke-width="0" width="9.1" x="480.4" y="80.4" /><rect fill="black" height="9.3" stroke="none" stroke-width="0" width="9.3" x="490.3" y="80.3" /></g><g><line stroke="black" stroke-width="0.5" x1="5.0" x2="5.0" y1="-4.0" y2="-7.0" /><text dominant-baseline="middle" font-size="6px" text-anchor="middle" x="5.0" y="-13.0">1</text><line stroke="black" stroke-width="0.5" x1="495.0" x2="495.0" y1="-4.0" y2="-7.0" /><text dominant-baseline="middle" font-size="6px" text-anchor="middle" x="495.0" y="-13.0">65536</text><text font-size="6px" text-anchor="middle" x="250.0" y="-17.0">Time (linear)</text><line stroke="black" stroke-width="0.5" x1="504.0" x2="507.0" y1="5.0" y2="5.0" /><text dominant-baseline="middle" font-size="6px" text-anchor="start" x="513.0" y="5.0">emb_pos</text><line stroke="black" stroke-width="0.5" x1="504.0" x2="507.0" y1="15.0" y2="15.0" /><text dominant-baseline="middle" font-size="6px" text-anchor="start" x="513.0" y="15.0">emb_tok</text><line stroke="black" stroke-width="0.5" x1="504.0" x2="507.0" y1="25.0" y2="25.0" /><text dominant-baseline="middle" font-size="6px" text-anchor="start" x="513.0" y="25.0">k</text><line stroke="black" stroke-width="0.5" x1="504.0" x2="507.0" y1="35.0" y2="35.0" /><text dominant-baseline="middle" font-size="6px" text-anchor="start" x="513.0" y="35.0">o</text><line stroke="black" stroke-width="0.5" x1="504.0" x2="507.0" y1="45.0" y2="45.0" /><text dominant-baseline="middle" font-size="6px" text-anchor="start" x="513.0" y="45.0">q</text><line stroke="black" stroke-width="0.5" x1="504.0" x2="507.0" y1="55.0" y2="55.0" /><text dominant-baseline="middle" font-size="6px" text-anchor="start" x="513.0" y="55.0">v</text><line stroke="black" stroke-width="0.5" x1="504.0" x2="507.0" y1="65.0" y2="65.0" /><text dominant-baseline="middle" font-size="6px" text-anchor="start" x="513.0" y="65.0">w_in</text><line stroke="black" stroke-width="0.5" x1="504.0" x2="507.0" y1="75.0" y2="75.0" /><text dominant-baseline="middle" font-size="6px" text-anchor="start" x="513.0" y="75.0">w_out</text><line stroke="black" stroke-width="0.5" x1="504.0" x2="507.0" y1="85.0" y2="85.0" /><text dominant-baseline="middle" font-size="6px" text-anchor="start" x="513.0" y="85.0">unbeds</text><text font-size="6px" text-anchor="middle" transform="rotate(-90, -17.0, 45.0)" x="-17.0" y="45.0">Gradient Norm (L2)</text></g></svg>