<?xml version="1.0" encoding="utf-8" ?>
<svg baseProfile="full" height="100%" preserveAspectRatio="xMidYMid meet" version="1.1" viewBox="-20,-20,460,150" width="100%" xmlns="http://www.w3.org/2000/svg" xmlns:ev="http://www.w3.org/2001/xml-events" xmlns:xlink="http://www.w3.org/1999/xlink"><defs><style type="text/css"><![CDATA[
        @import url(https://cdn.jsdelivr.net/npm/firacode@6.2.0/distr/fira_code.css);
        text { font-family: 'Fira Code', monospace; }
    ]]></style></defs><g><rect fill="black" height="1.8" stroke="none" stroke-width="0" width="1.8" x="4.1" y="4.1" /><rect fill="black" height="1.8" stroke="none" stroke-width="0" width="1.8" x="14.1" y="4.1" /><rect fill="black" height="2.5" stroke="none" stroke-width="0" width="2.5" x="3.7" y="13.7" /><rect fill="black" height="1.8" stroke="none" stroke-width="0" width="1.8" x="14.1" y="14.1" /><rect fill="black" height="3.6" stroke="none" stroke-width="0" width="3.6" x="3.2" y="23.2" /><rect fill="black" height="1.8" stroke="none" stroke-width="0" width="1.8" x="14.1" y="24.1" /><rect fill="black" height="4.4" stroke="none" stroke-width="0" width="4.4" x="2.8" y="32.8" /><rect fill="black" height="1.8" stroke="none" stroke-width="0" width="1.8" x="14.1" y="34.1" /><rect fill="black" height="5.1" stroke="none" stroke-width="0" width="5.1" x="2.5" y="42.5" /><rect fill="black" height="1.8" stroke="none" stroke-width="0" width="1.8" x="14.1" y="44.1" /><rect fill="black" height="5.7" stroke="none" stroke-width="0" width="5.7" x="2.2" y="52.2" /><rect fill="black" height="1.8" stroke="none" stroke-width="0" width="1.8" x="14.1" y="54.1" /><rect fill="black" height="6.2" stroke="none" stroke-width="0" width="6.2" x="1.9" y="61.9" /><rect fill="black" height="1.8" stroke="none" stroke-width="0" width="1.8" x="14.1" y="64.1" /><rect fill="black" height="6.7" stroke="none" stroke-width="0" width="6.7" x="1.7" y="71.7" /><rect fill="black" height="1.8" stroke="none" stroke-width="0" width="1.8" x="14.1" y="74.1" /><rect fill="black" height="7.2" stroke="none" stroke-width="0" width="7.2" x="1.4" y="81.4" /><rect fill="black" height="1.8" stroke="none" stroke-width="0" width="1.8" x="14.1" y="84.1" /><rect fill="black" height="7.6" stroke="none" stroke-width="0" width="7.6" x="1.2" y="91.2" /><rect fill="black" height="1.8" stroke="none" stroke-width="0" width="1.8" x="14.1" y="94.1" /><rect fill="black" height="8.0" stroke="none" stroke-width="0" width="8.0" x="1.0" y="101.0" /><rect fill="black" height="1.8" stroke="none" stroke-width="0" width="1.8" x="14.1" y="104.1" /></g><g><text font-size="6px" text-anchor="middle" x="10.0" y="127.0">0</text><line stroke="black" stroke-width="0.5" x1="-4.0" x2="-7.0" y1="5.0" y2="5.0" /><text dominant-baseline="middle" font-size="6px" text-anchor="end" x="-13.0" y="5.0">0</text><line stroke="black" stroke-width="0.5" x1="-4.0" x2="-7.0" y1="15.0" y2="15.0" /><text dominant-baseline="middle" font-size="6px" text-anchor="end" x="-13.0" y="15.0">1</text><line stroke="black" stroke-width="0.5" x1="-4.0" x2="-7.0" y1="25.0" y2="25.0" /><text dominant-baseline="middle" font-size="6px" text-anchor="end" x="-13.0" y="25.0">2</text><line stroke="black" stroke-width="0.5" x1="-4.0" x2="-7.0" y1="35.0" y2="35.0" /><text dominant-baseline="middle" font-size="6px" text-anchor="end" x="-13.0" y="35.0">3</text><line stroke="black" stroke-width="0.5" x1="-4.0" x2="-7.0" y1="45.0" y2="45.0" /><text dominant-baseline="middle" font-size="6px" text-anchor="end" x="-13.0" y="45.0">4</text><line stroke="black" stroke-width="0.5" x1="-4.0" x2="-7.0" y1="55.0" y2="55.0" /><text dominant-baseline="middle" font-size="6px" text-anchor="end" x="-13.0" y="55.0">5</text><line stroke="black" stroke-width="0.5" x1="-4.0" x2="-7.0" y1="65.0" y2="65.0" /><text dominant-baseline="middle" font-size="6px" text-anchor="end" x="-13.0" y="65.0">6</text><line stroke="black" stroke-width="0.5" x1="-4.0" x2="-7.0" y1="75.0" y2="75.0" /><text dominant-baseline="middle" font-size="6px" text-anchor="end" x="-13.0" y="75.0">7</text><line stroke="black" stroke-width="0.5" x1="-4.0" x2="-7.0" y1="85.0" y2="85.0" /><text dominant-baseline="middle" font-size="6px" text-anchor="end" x="-13.0" y="85.0">8</text><line stroke="black" stroke-width="0.5" x1="-4.0" x2="-7.0" y1="95.0" y2="95.0" /><text dominant-baseline="middle" font-size="6px" text-anchor="end" x="-13.0" y="95.0">9</text><line stroke="black" stroke-width="0.5" x1="-4.0" x2="-7.0" y1="105.0" y2="105.0" /><text dominant-baseline="middle" font-size="6px" text-anchor="end" x="-13.0" y="105.0">10</text></g><g><rect fill="black" height="1.8" stroke="none" stroke-width="0" width="1.8" x="44.1" y="4.1" /><rect fill="black" height="2.5" stroke="none" stroke-width="0" width="2.5" x="53.7" y="3.7" /><rect fill="black" height="2.5" stroke="none" stroke-width="0" width="2.5" x="43.7" y="13.7" /><rect fill="black" height="2.5" stroke="none" stroke-width="0" width="2.5" x="53.7" y="13.7" /><rect fill="black" height="3.6" stroke="none" stroke-width="0" width="3.6" x="43.2" y="23.2" /><rect fill="black" height="2.5" stroke="none" stroke-width="0" width="2.5" x="53.7" y="23.7" /><rect fill="black" height="4.4" stroke="none" stroke-width="0" width="4.4" x="42.8" y="32.8" /><rect fill="black" height="2.5" stroke="none" stroke-width="0" width="2.5" x="53.7" y="33.7" /><rect fill="black" height="5.1" stroke="none" stroke-width="0" width="5.1" x="42.5" y="42.5" /><rect fill="black" height="2.5" stroke="none" stroke-width="0" width="2.5" x="53.7" y="43.7" /><rect fill="black" height="5.7" stroke="none" stroke-width="0" width="5.7" x="42.2" y="52.2" /><rect fill="black" height="2.5" stroke="none" stroke-width="0" width="2.5" x="53.7" y="53.7" /><rect fill="black" height="6.2" stroke="none" stroke-width="0" width="6.2" x="41.9" y="61.9" /><rect fill="black" height="2.5" stroke="none" stroke-width="0" width="2.5" x="53.7" y="63.7" /><rect fill="black" height="6.7" stroke="none" stroke-width="0" width="6.7" x="41.7" y="71.7" /><rect fill="black" height="2.5" stroke="none" stroke-width="0" width="2.5" x="53.7" y="73.7" /><rect fill="black" height="7.2" stroke="none" stroke-width="0" width="7.2" x="41.4" y="81.4" /><rect fill="black" height="2.5" stroke="none" stroke-width="0" width="2.5" x="53.7" y="83.7" /><rect fill="black" height="7.6" stroke="none" stroke-width="0" width="7.6" x="41.2" y="91.2" /><rect fill="black" height="2.5" stroke="none" stroke-width="0" width="2.5" x="53.7" y="93.7" /><rect fill="black" height="8.0" stroke="none" stroke-width="0" width="8.0" x="41.0" y="101.0" /><rect fill="black" height="2.5" stroke="none" stroke-width="0" width="2.5" x="53.7" y="103.7" /></g><g><text font-size="6px" text-anchor="middle" x="50.0" y="127.0">1</text></g><g><rect fill="black" height="1.8" stroke="none" stroke-width="0" width="1.8" x="84.1" y="4.1" /><rect fill="black" height="3.6" stroke="none" stroke-width="0" width="3.6" x="93.2" y="3.2" /><rect fill="black" height="2.5" stroke="none" stroke-width="0" width="2.5" x="83.7" y="13.7" /><rect fill="black" height="3.6" stroke="none" stroke-width="0" width="3.6" x="93.2" y="13.2" /><rect fill="black" height="3.6" stroke="none" stroke-width="0" width="3.6" x="83.2" y="23.2" /><rect fill="black" height="3.6" stroke="none" stroke-width="0" width="3.6" x="93.2" y="23.2" /><rect fill="black" height="4.4" stroke="none" stroke-width="0" width="4.4" x="82.8" y="32.8" /><rect fill="black" height="3.6" stroke="none" stroke-width="0" width="3.6" x="93.2" y="33.2" /><rect fill="black" height="5.1" stroke="none" stroke-width="0" width="5.1" x="82.5" y="42.5" /><rect fill="black" height="3.6" stroke="none" stroke-width="0" width="3.6" x="93.2" y="43.2" /><rect fill="black" height="5.7" stroke="none" stroke-width="0" width="5.7" x="82.2" y="52.2" /><rect fill="black" height="3.6" stroke="none" stroke-width="0" width="3.6" x="93.2" y="53.2" /><rect fill="black" height="6.2" stroke="none" stroke-width="0" width="6.2" x="81.9" y="61.9" /><rect fill="black" height="3.6" stroke="none" stroke-width="0" width="3.6" x="93.2" y="63.2" /><rect fill="black" height="6.7" stroke="none" stroke-width="0" width="6.7" x="81.7" y="71.7" /><rect fill="black" height="3.6" stroke="none" stroke-width="0" width="3.6" x="93.2" y="73.2" /><rect fill="black" height="7.2" stroke="none" stroke-width="0" width="7.2" x="81.4" y="81.4" /><rect fill="black" height="3.6" stroke="none" stroke-width="0" width="3.6" x="93.2" y="83.2" /><rect fill="black" height="7.6" stroke="none" stroke-width="0" width="7.6" x="81.2" y="91.2" /><rect fill="black" height="3.6" stroke="none" stroke-width="0" width="3.6" x="93.2" y="93.2" /><rect fill="black" height="8.0" stroke="none" stroke-width="0" width="8.0" x="81.0" y="101.0" /><rect fill="black" height="3.6" stroke="none" stroke-width="0" width="3.6" x="93.2" y="103.2" /></g><g><text font-size="6px" text-anchor="middle" x="90.0" y="127.0">2</text></g><g><rect fill="black" height="1.8" stroke="none" stroke-width="0" width="1.8" x="124.1" y="4.1" /><rect fill="black" height="4.4" stroke="none" stroke-width="0" width="4.4" x="132.8" y="2.8" /><rect fill="black" height="2.5" stroke="none" stroke-width="0" width="2.5" x="123.7" y="13.7" /><rect fill="black" height="4.4" stroke="none" stroke-width="0" width="4.4" x="132.8" y="12.8" /><rect fill="black" height="3.6" stroke="none" stroke-width="0" width="3.6" x="123.2" y="23.2" /><rect fill="black" height="4.4" stroke="none" stroke-width="0" width="4.4" x="132.8" y="22.8" /><rect fill="black" height="4.4" stroke="none" stroke-width="0" width="4.4" x="122.8" y="32.8" /><rect fill="black" height="4.4" stroke="none" stroke-width="0" width="4.4" x="132.8" y="32.8" /><rect fill="black" height="5.1" stroke="none" stroke-width="0" width="5.1" x="122.5" y="42.5" /><rect fill="black" height="4.4" stroke="none" stroke-width="0" width="4.4" x="132.8" y="42.8" /><rect fill="black" height="5.7" stroke="none" stroke-width="0" width="5.7" x="122.2" y="52.2" /><rect fill="black" height="4.4" stroke="none" stroke-width="0" width="4.4" x="132.8" y="52.8" /><rect fill="black" height="6.2" stroke="none" stroke-width="0" width="6.2" x="121.9" y="61.9" /><rect fill="black" height="4.4" stroke="none" stroke-width="0" width="4.4" x="132.8" y="62.8" /><rect fill="black" height="6.7" stroke="none" stroke-width="0" width="6.7" x="121.7" y="71.7" /><rect fill="black" height="4.4" stroke="none" stroke-width="0" width="4.4" x="132.8" y="72.8" /><rect fill="black" height="7.2" stroke="none" stroke-width="0" width="7.2" x="121.4" y="81.4" /><rect fill="black" height="4.4" stroke="none" stroke-width="0" width="4.4" x="132.8" y="82.8" /><rect fill="black" height="7.6" stroke="none" stroke-width="0" width="7.6" x="121.2" y="91.2" /><rect fill="black" height="4.4" stroke="none" stroke-width="0" width="4.4" x="132.8" y="92.8" /><rect fill="black" height="8.0" stroke="none" stroke-width="0" width="8.0" x="121.0" y="101.0" /><rect fill="black" height="4.4" stroke="none" stroke-width="0" width="4.4" x="132.8" y="102.8" /></g><g><text font-size="6px" text-anchor="middle" x="130.0" y="127.0">3</text></g><g><rect fill="black" height="1.8" stroke="none" stroke-width="0" width="1.8" x="164.1" y="4.1" /><rect fill="black" height="5.1" stroke="none" stroke-width="0" width="5.1" x="172.5" y="2.5" /><rect fill="black" height="2.5" stroke="none" stroke-width="0" width="2.5" x="163.7" y="13.7" /><rect fill="black" height="5.1" stroke="none" stroke-width="0" width="5.1" x="172.5" y="12.5" /><rect fill="black" height="3.6" stroke="none" stroke-width="0" width="3.6" x="163.2" y="23.2" /><rect fill="black" height="5.1" stroke="none" stroke-width="0" width="5.1" x="172.5" y="22.5" /><rect fill="black" height="4.4" stroke="none" stroke-width="0" width="4.4" x="162.8" y="32.8" /><rect fill="black" height="5.1" stroke="none" stroke-width="0" width="5.1" x="172.5" y="32.5" /><rect fill="black" height="5.1" stroke="none" stroke-width="0" width="5.1" x="162.5" y="42.5" /><rect fill="black" height="5.1" stroke="none" stroke-width="0" width="5.1" x="172.5" y="42.5" /><rect fill="black" height="5.7" stroke="none" stroke-width="0" width="5.7" x="162.2" y="52.2" /><rect fill="black" height="5.1" stroke="none" stroke-width="0" width="5.1" x="172.5" y="52.5" /><rect fill="black" height="6.2" stroke="none" stroke-width="0" width="6.2" x="161.9" y="61.9" /><rect fill="black" height="5.1" stroke="none" stroke-width="0" width="5.1" x="172.5" y="62.5" /><rect fill="black" height="6.7" stroke="none" stroke-width="0" width="6.7" x="161.7" y="71.7" /><rect fill="black" height="5.1" stroke="none" stroke-width="0" width="5.1" x="172.5" y="72.5" /><rect fill="black" height="7.2" stroke="none" stroke-width="0" width="7.2" x="161.4" y="81.4" /><rect fill="black" height="5.1" stroke="none" stroke-width="0" width="5.1" x="172.5" y="82.5" /><rect fill="black" height="7.6" stroke="none" stroke-width="0" width="7.6" x="161.2" y="91.2" /><rect fill="black" height="5.1" stroke="none" stroke-width="0" width="5.1" x="172.5" y="92.5" /><rect fill="black" height="8.0" stroke="none" stroke-width="0" width="8.0" x="161.0" y="101.0" /><rect fill="black" height="5.1" stroke="none" stroke-width="0" width="5.1" x="172.5" y="102.5" /></g><g><text font-size="6px" text-anchor="middle" x="170.0" y="127.0">4</text></g><g><rect fill="black" height="1.8" stroke="none" stroke-width="0" width="1.8" x="204.1" y="4.1" /><rect fill="black" height="5.7" stroke="none" stroke-width="0" width="5.7" x="212.2" y="2.2" /><rect fill="black" height="2.5" stroke="none" stroke-width="0" width="2.5" x="203.7" y="13.7" /><rect fill="black" height="5.7" stroke="none" stroke-width="0" width="5.7" x="212.2" y="12.2" /><rect fill="black" height="3.6" stroke="none" stroke-width="0" width="3.6" x="203.2" y="23.2" /><rect fill="black" height="5.7" stroke="none" stroke-width="0" width="5.7" x="212.2" y="22.2" /><rect fill="black" height="4.4" stroke="none" stroke-width="0" width="4.4" x="202.8" y="32.8" /><rect fill="black" height="5.7" stroke="none" stroke-width="0" width="5.7" x="212.2" y="32.2" /><rect fill="black" height="5.1" stroke="none" stroke-width="0" width="5.1" x="202.5" y="42.5" /><rect fill="black" height="5.7" stroke="none" stroke-width="0" width="5.7" x="212.2" y="42.2" /><rect fill="black" height="5.7" stroke="none" stroke-width="0" width="5.7" x="202.2" y="52.2" /><rect fill="black" height="5.7" stroke="none" stroke-width="0" width="5.7" x="212.2" y="52.2" /><rect fill="black" height="6.2" stroke="none" stroke-width="0" width="6.2" x="201.9" y="61.9" /><rect fill="black" height="5.7" stroke="none" stroke-width="0" width="5.7" x="212.2" y="62.2" /><rect fill="black" height="6.7" stroke="none" stroke-width="0" width="6.7" x="201.7" y="71.7" /><rect fill="black" height="5.7" stroke="none" stroke-width="0" width="5.7" x="212.2" y="72.2" /><rect fill="black" height="7.2" stroke="none" stroke-width="0" width="7.2" x="201.4" y="81.4" /><rect fill="black" height="5.7" stroke="none" stroke-width="0" width="5.7" x="212.2" y="82.2" /><rect fill="black" height="7.6" stroke="none" stroke-width="0" width="7.6" x="201.2" y="91.2" /><rect fill="black" height="5.7" stroke="none" stroke-width="0" width="5.7" x="212.2" y="92.2" /><rect fill="black" height="8.0" stroke="none" stroke-width="0" width="8.0" x="201.0" y="101.0" /><rect fill="black" height="5.7" stroke="none" stroke-width="0" width="5.7" x="212.2" y="102.2" /></g><g><text font-size="6px" text-anchor="middle" x="210.0" y="127.0">5</text></g><g><rect fill="black" height="1.8" stroke="none" stroke-width="0" width="1.8" x="244.1" y="4.1" /><rect fill="black" height="6.2" stroke="none" stroke-width="0" width="6.2" x="251.9" y="1.9" /><rect fill="black" height="2.5" stroke="none" stroke-width="0" width="2.5" x="243.7" y="13.7" /><rect fill="black" height="6.2" stroke="none" stroke-width="0" width="6.2" x="251.9" y="11.9" /><rect fill="black" height="3.6" stroke="none" stroke-width="0" width="3.6" x="243.2" y="23.2" /><rect fill="black" height="6.2" stroke="none" stroke-width="0" width="6.2" x="251.9" y="21.9" /><rect fill="black" height="4.4" stroke="none" stroke-width="0" width="4.4" x="242.8" y="32.8" /><rect fill="black" height="6.2" stroke="none" stroke-width="0" width="6.2" x="251.9" y="31.9" /><rect fill="black" height="5.1" stroke="none" stroke-width="0" width="5.1" x="242.5" y="42.5" /><rect fill="black" height="6.2" stroke="none" stroke-width="0" width="6.2" x="251.9" y="41.9" /><rect fill="black" height="5.7" stroke="none" stroke-width="0" width="5.7" x="242.2" y="52.2" /><rect fill="black" height="6.2" stroke="none" stroke-width="0" width="6.2" x="251.9" y="51.9" /><rect fill="black" height="6.2" stroke="none" stroke-width="0" width="6.2" x="241.9" y="61.9" /><rect fill="black" height="6.2" stroke="none" stroke-width="0" width="6.2" x="251.9" y="61.9" /><rect fill="black" height="6.7" stroke="none" stroke-width="0" width="6.7" x="241.7" y="71.7" /><rect fill="black" height="6.2" stroke="none" stroke-width="0" width="6.2" x="251.9" y="71.9" /><rect fill="black" height="7.2" stroke="none" stroke-width="0" width="7.2" x="241.4" y="81.4" /><rect fill="black" height="6.2" stroke="none" stroke-width="0" width="6.2" x="251.9" y="81.9" /><rect fill="black" height="7.6" stroke="none" stroke-width="0" width="7.6" x="241.2" y="91.2" /><rect fill="black" height="6.2" stroke="none" stroke-width="0" width="6.2" x="251.9" y="91.9" /><rect fill="black" height="8.0" stroke="none" stroke-width="0" width="8.0" x="241.0" y="101.0" /><rect fill="black" height="6.2" stroke="none" stroke-width="0" width="6.2" x="251.9" y="101.9" /></g><g><text font-size="6px" text-anchor="middle" x="250.0" y="127.0">6</text></g><g><rect fill="black" height="1.8" stroke="none" stroke-width="0" width="1.8" x="284.1" y="4.1" /><rect fill="black" height="6.7" stroke="none" stroke-width="0" width="6.7" x="291.7" y="1.7" /><rect fill="black" height="2.5" stroke="none" stroke-width="0" width="2.5" x="283.7" y="13.7" /><rect fill="black" height="6.7" stroke="none" stroke-width="0" width="6.7" x="291.7" y="11.7" /><rect fill="black" height="3.6" stroke="none" stroke-width="0" width="3.6" x="283.2" y="23.2" /><rect fill="black" height="6.7" stroke="none" stroke-width="0" width="6.7" x="291.7" y="21.7" /><rect fill="black" height="4.4" stroke="none" stroke-width="0" width="4.4" x="282.8" y="32.8" /><rect fill="black" height="6.7" stroke="none" stroke-width="0" width="6.7" x="291.7" y="31.7" /><rect fill="black" height="5.1" stroke="none" stroke-width="0" width="5.1" x="282.5" y="42.5" /><rect fill="black" height="6.7" stroke="none" stroke-width="0" width="6.7" x="291.7" y="41.7" /><rect fill="black" height="5.7" stroke="none" stroke-width="0" width="5.7" x="282.2" y="52.2" /><rect fill="black" height="6.7" stroke="none" stroke-width="0" width="6.7" x="291.7" y="51.7" /><rect fill="black" height="6.2" stroke="none" stroke-width="0" width="6.2" x="281.9" y="61.9" /><rect fill="black" height="6.7" stroke="none" stroke-width="0" width="6.7" x="291.7" y="61.7" /><rect fill="black" height="6.7" stroke="none" stroke-width="0" width="6.7" x="281.7" y="71.7" /><rect fill="black" height="6.7" stroke="none" stroke-width="0" width="6.7" x="291.7" y="71.7" /><rect fill="black" height="7.2" stroke="none" stroke-width="0" width="7.2" x="281.4" y="81.4" /><rect fill="black" height="6.7" stroke="none" stroke-width="0" width="6.7" x="291.7" y="81.7" /><rect fill="black" height="7.6" stroke="none" stroke-width="0" width="7.6" x="281.2" y="91.2" /><rect fill="black" height="6.7" stroke="none" stroke-width="0" width="6.7" x="291.7" y="91.7" /><rect fill="black" height="8.0" stroke="none" stroke-width="0" width="8.0" x="281.0" y="101.0" /><rect fill="black" height="6.7" stroke="none" stroke-width="0" width="6.7" x="291.7" y="101.7" /></g><g><text font-size="6px" text-anchor="middle" x="290.0" y="127.0">7</text></g><g><rect fill="black" height="1.8" stroke="none" stroke-width="0" width="1.8" x="324.1" y="4.1" /><rect fill="black" height="7.2" stroke="none" stroke-width="0" width="7.2" x="331.4" y="1.4" /><rect fill="black" height="2.5" stroke="none" stroke-width="0" width="2.5" x="323.7" y="13.7" /><rect fill="black" height="7.2" stroke="none" stroke-width="0" width="7.2" x="331.4" y="11.4" /><rect fill="black" height="3.6" stroke="none" stroke-width="0" width="3.6" x="323.2" y="23.2" /><rect fill="black" height="7.2" stroke="none" stroke-width="0" width="7.2" x="331.4" y="21.4" /><rect fill="black" height="4.4" stroke="none" stroke-width="0" width="4.4" x="322.8" y="32.8" /><rect fill="black" height="7.2" stroke="none" stroke-width="0" width="7.2" x="331.4" y="31.4" /><rect fill="black" height="5.1" stroke="none" stroke-width="0" width="5.1" x="322.5" y="42.5" /><rect fill="black" height="7.2" stroke="none" stroke-width="0" width="7.2" x="331.4" y="41.4" /><rect fill="black" height="5.7" stroke="none" stroke-width="0" width="5.7" x="322.2" y="52.2" /><rect fill="black" height="7.2" stroke="none" stroke-width="0" width="7.2" x="331.4" y="51.4" /><rect fill="black" height="6.2" stroke="none" stroke-width="0" width="6.2" x="321.9" y="61.9" /><rect fill="black" height="7.2" stroke="none" stroke-width="0" width="7.2" x="331.4" y="61.4" /><rect fill="black" height="6.7" stroke="none" stroke-width="0" width="6.7" x="321.7" y="71.7" /><rect fill="black" height="7.2" stroke="none" stroke-width="0" width="7.2" x="331.4" y="71.4" /><rect fill="black" height="7.2" stroke="none" stroke-width="0" width="7.2" x="321.4" y="81.4" /><rect fill="black" height="7.2" stroke="none" stroke-width="0" width="7.2" x="331.4" y="81.4" /><rect fill="black" height="7.6" stroke="none" stroke-width="0" width="7.6" x="321.2" y="91.2" /><rect fill="black" height="7.2" stroke="none" stroke-width="0" width="7.2" x="331.4" y="91.4" /><rect fill="black" height="8.0" stroke="none" stroke-width="0" width="8.0" x="321.0" y="101.0" /><rect fill="black" height="7.2" stroke="none" stroke-width="0" width="7.2" x="331.4" y="101.4" /></g><g><text font-size="6px" text-anchor="middle" x="330.0" y="127.0">8</text></g><g><rect fill="black" height="1.8" stroke="none" stroke-width="0" width="1.8" x="364.1" y="4.1" /><rect fill="black" height="7.6" stroke="none" stroke-width="0" width="7.6" x="371.2" y="1.2" /><rect fill="black" height="2.5" stroke="none" stroke-width="0" width="2.5" x="363.7" y="13.7" /><rect fill="black" height="7.6" stroke="none" stroke-width="0" width="7.6" x="371.2" y="11.2" /><rect fill="black" height="3.6" stroke="none" stroke-width="0" width="3.6" x="363.2" y="23.2" /><rect fill="black" height="7.6" stroke="none" stroke-width="0" width="7.6" x="371.2" y="21.2" /><rect fill="black" height="4.4" stroke="none" stroke-width="0" width="4.4" x="362.8" y="32.8" /><rect fill="black" height="7.6" stroke="none" stroke-width="0" width="7.6" x="371.2" y="31.2" /><rect fill="black" height="5.1" stroke="none" stroke-width="0" width="5.1" x="362.5" y="42.5" /><rect fill="black" height="7.6" stroke="none" stroke-width="0" width="7.6" x="371.2" y="41.2" /><rect fill="black" height="5.7" stroke="none" stroke-width="0" width="5.7" x="362.2" y="52.2" /><rect fill="black" height="7.6" stroke="none" stroke-width="0" width="7.6" x="371.2" y="51.2" /><rect fill="black" height="6.2" stroke="none" stroke-width="0" width="6.2" x="361.9" y="61.9" /><rect fill="black" height="7.6" stroke="none" stroke-width="0" width="7.6" x="371.2" y="61.2" /><rect fill="black" height="6.7" stroke="none" stroke-width="0" width="6.7" x="361.7" y="71.7" /><rect fill="black" height="7.6" stroke="none" stroke-width="0" width="7.6" x="371.2" y="71.2" /><rect fill="black" height="7.2" stroke="none" stroke-width="0" width="7.2" x="361.4" y="81.4" /><rect fill="black" height="7.6" stroke="none" stroke-width="0" width="7.6" x="371.2" y="81.2" /><rect fill="black" height="7.6" stroke="none" stroke-width="0" width="7.6" x="361.2" y="91.2" /><rect fill="black" height="7.6" stroke="none" stroke-width="0" width="7.6" x="371.2" y="91.2" /><rect fill="black" height="8.0" stroke="none" stroke-width="0" width="8.0" x="361.0" y="101.0" /><rect fill="black" height="7.6" stroke="none" stroke-width="0" width="7.6" x="371.2" y="101.2" /></g><g><text font-size="6px" text-anchor="middle" x="370.0" y="127.0">9</text></g><g><rect fill="black" height="1.8" stroke="none" stroke-width="0" width="1.8" x="404.1" y="4.1" /><rect fill="black" height="8.0" stroke="none" stroke-width="0" width="8.0" x="411.0" y="1.0" /><rect fill="black" height="2.5" stroke="none" stroke-width="0" width="2.5" x="403.7" y="13.7" /><rect fill="black" height="8.0" stroke="none" stroke-width="0" width="8.0" x="411.0" y="11.0" /><rect fill="black" height="3.6" stroke="none" stroke-width="0" width="3.6" x="403.2" y="23.2" /><rect fill="black" height="8.0" stroke="none" stroke-width="0" width="8.0" x="411.0" y="21.0" /><rect fill="black" height="4.4" stroke="none" stroke-width="0" width="4.4" x="402.8" y="32.8" /><rect fill="black" height="8.0" stroke="none" stroke-width="0" width="8.0" x="411.0" y="31.0" /><rect fill="black" height="5.1" stroke="none" stroke-width="0" width="5.1" x="402.5" y="42.5" /><rect fill="black" height="8.0" stroke="none" stroke-width="0" width="8.0" x="411.0" y="41.0" /><rect fill="black" height="5.7" stroke="none" stroke-width="0" width="5.7" x="402.2" y="52.2" /><rect fill="black" height="8.0" stroke="none" stroke-width="0" width="8.0" x="411.0" y="51.0" /><rect fill="black" height="6.2" stroke="none" stroke-width="0" width="6.2" x="401.9" y="61.9" /><rect fill="black" height="8.0" stroke="none" stroke-width="0" width="8.0" x="411.0" y="61.0" /><rect fill="black" height="6.7" stroke="none" stroke-width="0" width="6.7" x="401.7" y="71.7" /><rect fill="black" height="8.0" stroke="none" stroke-width="0" width="8.0" x="411.0" y="71.0" /><rect fill="black" height="7.2" stroke="none" stroke-width="0" width="7.2" x="401.4" y="81.4" /><rect fill="black" height="8.0" stroke="none" stroke-width="0" width="8.0" x="411.0" y="81.0" /><rect fill="black" height="7.6" stroke="none" stroke-width="0" width="7.6" x="401.2" y="91.2" /><rect fill="black" height="8.0" stroke="none" stroke-width="0" width="8.0" x="411.0" y="91.0" /><rect fill="black" height="8.0" stroke="none" stroke-width="0" width="8.0" x="401.0" y="101.0" /><rect fill="black" height="8.0" stroke="none" stroke-width="0" width="8.0" x="411.0" y="101.0" /></g><g><text font-size="6px" text-anchor="middle" x="410.0" y="127.0">10</text></g></svg>