<?xml version="1.0" encoding="utf-8" ?>
<svg baseProfile="full" height="100%" preserveAspectRatio="xMidYMid meet" version="1.1" viewBox="-40,-40,640,190" width="100%" xmlns="http://www.w3.org/2000/svg" xmlns:ev="http://www.w3.org/2001/xml-events" xmlns:xlink="http://www.w3.org/1999/xlink"><defs><style type="text/css"><![CDATA[
        @import url(https://cdn.jsdelivr.net/npm/firacode@6.2.0/distr/fira_code.css);
        text {
            font-family: 'STIX Two', 'STIX Two Math', 'STIXMath', 'DejaVu Math TeX Glyph',
                        'DejaVu Serif', 'Cambria Math', 'Latin Modern Math', 'FiraCode',
                        'serif';
        }
    ]]></style><style type="text/css"><![CDATA[
        @import url(https://cdn.jsdelivr.net/npm/firacode@6.2.0/distr/fira_code.css);
        text {
            font-family: 'STIX Two', 'STIX Two Math', 'STIXMath', 'DejaVu Math TeX Glyph',
                        'DejaVu Serif', 'Cambria Math', 'Latin Modern Math', 'FiraCode',
                        'serif';
        }
    ]]></style></defs><g><rect fill="black" height="9.5" stroke="none" stroke-width="0" width="9.5" x="0.2" y="0.2" /><rect fill="black" height="2.1" stroke="none" stroke-width="0" width="2.1" x="13.9" y="3.9" /><rect fill="black" height="9.5" stroke="none" stroke-width="0" width="9.5" x="20.2" y="0.2" /><rect fill="black" height="2.1" stroke="none" stroke-width="0" width="2.1" x="33.9" y="3.9" /><rect fill="black" height="9.5" stroke="none" stroke-width="0" width="9.5" x="40.2" y="0.2" /><rect fill="black" height="2.1" stroke="none" stroke-width="0" width="2.1" x="53.9" y="3.9" /><rect fill="black" height="9.5" stroke="none" stroke-width="0" width="9.5" x="60.2" y="0.2" /><rect fill="black" height="2.1" stroke="none" stroke-width="0" width="2.1" x="73.9" y="3.9" /><rect fill="black" height="9.5" stroke="none" stroke-width="0" width="9.5" x="80.2" y="0.2" /><rect fill="black" height="2.1" stroke="none" stroke-width="0" width="2.1" x="93.9" y="3.9" /><rect fill="black" height="9.5" stroke="none" stroke-width="0" width="9.5" x="100.2" y="0.2" /><rect fill="black" height="2.1" stroke="none" stroke-width="0" width="2.1" x="3.9" y="13.9" /><rect fill="black" height="9.5" stroke="none" stroke-width="0" width="9.5" x="10.2" y="10.2" /><rect fill="black" height="2.1" stroke="none" stroke-width="0" width="2.1" x="23.9" y="13.9" /><rect fill="black" height="9.5" stroke="none" stroke-width="0" width="9.5" x="30.2" y="10.2" /><rect fill="black" height="2.1" stroke="none" stroke-width="0" width="2.1" x="43.9" y="13.9" /><rect fill="black" height="9.5" stroke="none" stroke-width="0" width="9.5" x="50.2" y="10.2" /><rect fill="black" height="2.1" stroke="none" stroke-width="0" width="2.1" x="63.9" y="13.9" /><rect fill="black" height="9.5" stroke="none" stroke-width="0" width="9.5" x="70.2" y="10.2" /><rect fill="black" height="2.1" stroke="none" stroke-width="0" width="2.1" x="83.9" y="13.9" /><rect fill="black" height="9.5" stroke="none" stroke-width="0" width="9.5" x="90.2" y="10.2" /><rect fill="black" height="2.1" stroke="none" stroke-width="0" width="2.1" x="103.9" y="13.9" /><rect fill="black" height="9.5" stroke="none" stroke-width="0" width="9.5" x="0.2" y="20.2" /><rect fill="black" height="2.1" stroke="none" stroke-width="0" width="2.1" x="13.9" y="23.9" /><rect fill="black" height="9.5" stroke="none" stroke-width="0" width="9.5" x="20.2" y="20.2" /><rect fill="black" height="2.1" stroke="none" stroke-width="0" width="2.1" x="33.9" y="23.9" /><rect fill="black" height="9.5" stroke="none" stroke-width="0" width="9.5" x="40.2" y="20.2" /><rect fill="black" height="2.1" stroke="none" stroke-width="0" width="2.1" x="53.9" y="23.9" /><rect fill="black" height="9.5" stroke="none" stroke-width="0" width="9.5" x="60.2" y="20.2" /><rect fill="black" height="2.1" stroke="none" stroke-width="0" width="2.1" x="73.9" y="23.9" /><rect fill="black" height="9.5" stroke="none" stroke-width="0" width="9.5" x="80.2" y="20.2" /><rect fill="black" height="2.1" stroke="none" stroke-width="0" width="2.1" x="93.9" y="23.9" /><rect fill="black" height="9.5" stroke="none" stroke-width="0" width="9.5" x="100.2" y="20.2" /><rect fill="black" height="2.1" stroke="none" stroke-width="0" width="2.1" x="3.9" y="33.9" /><rect fill="black" height="9.5" stroke="none" stroke-width="0" width="9.5" x="10.2" y="30.2" /><rect fill="black" height="2.1" stroke="none" stroke-width="0" width="2.1" x="23.9" y="33.9" /><rect fill="black" height="9.5" stroke="none" stroke-width="0" width="9.5" x="30.2" y="30.2" /><rect fill="black" height="2.1" stroke="none" stroke-width="0" width="2.1" x="43.9" y="33.9" /><rect fill="black" height="9.5" stroke="none" stroke-width="0" width="9.5" x="50.2" y="30.2" /><rect fill="black" height="2.1" stroke="none" stroke-width="0" width="2.1" x="63.9" y="33.9" /><rect fill="black" height="9.5" stroke="none" stroke-width="0" width="9.5" x="70.2" y="30.2" /><rect fill="black" height="2.1" stroke="none" stroke-width="0" width="2.1" x="83.9" y="33.9" /><rect fill="black" height="9.5" stroke="none" stroke-width="0" width="9.5" x="90.2" y="30.2" /><rect fill="black" height="2.1" stroke="none" stroke-width="0" width="2.1" x="103.9" y="33.9" /><rect fill="black" height="9.5" stroke="none" stroke-width="0" width="9.5" x="0.2" y="40.2" /><rect fill="black" height="2.1" stroke="none" stroke-width="0" width="2.1" x="13.9" y="43.9" /><rect fill="black" height="9.5" stroke="none" stroke-width="0" width="9.5" x="20.2" y="40.2" /><rect fill="black" height="2.1" stroke="none" stroke-width="0" width="2.1" x="33.9" y="43.9" /><rect fill="black" height="9.5" stroke="none" stroke-width="0" width="9.5" x="40.2" y="40.2" /><rect fill="black" height="2.1" stroke="none" stroke-width="0" width="2.1" x="53.9" y="43.9" /><rect fill="black" height="9.5" stroke="none" stroke-width="0" width="9.5" x="60.2" y="40.2" /><rect fill="black" height="2.1" stroke="none" stroke-width="0" width="2.1" x="73.9" y="43.9" /><rect fill="black" height="9.5" stroke="none" stroke-width="0" width="9.5" x="80.2" y="40.2" /><rect fill="black" height="2.1" stroke="none" stroke-width="0" width="2.1" x="93.9" y="43.9" /><rect fill="black" height="9.5" stroke="none" stroke-width="0" width="9.5" x="100.2" y="40.2" /><rect fill="black" height="2.1" stroke="none" stroke-width="0" width="2.1" x="3.9" y="53.9" /><rect fill="black" height="9.5" stroke="none" stroke-width="0" width="9.5" x="10.2" y="50.2" /><rect fill="black" height="2.1" stroke="none" stroke-width="0" width="2.1" x="23.9" y="53.9" /><rect fill="black" height="9.5" stroke="none" stroke-width="0" width="9.5" x="30.2" y="50.2" /><rect fill="black" height="2.1" stroke="none" stroke-width="0" width="2.1" x="43.9" y="53.9" /><rect fill="black" height="9.5" stroke="none" stroke-width="0" width="9.5" x="50.2" y="50.2" /><rect fill="black" height="2.1" stroke="none" stroke-width="0" width="2.1" x="63.9" y="53.9" /><rect fill="black" height="9.5" stroke="none" stroke-width="0" width="9.5" x="70.2" y="50.2" /><rect fill="black" height="2.1" stroke="none" stroke-width="0" width="2.1" x="83.9" y="53.9" /><rect fill="black" height="9.5" stroke="none" stroke-width="0" width="9.5" x="90.2" y="50.2" /><rect fill="black" height="2.1" stroke="none" stroke-width="0" width="2.1" x="103.9" y="53.9" /><rect fill="black" height="9.5" stroke="none" stroke-width="0" width="9.5" x="0.2" y="60.2" /><rect fill="black" height="2.1" stroke="none" stroke-width="0" width="2.1" x="13.9" y="63.9" /><rect fill="black" height="9.5" stroke="none" stroke-width="0" width="9.5" x="20.2" y="60.2" /><rect fill="black" height="2.1" stroke="none" stroke-width="0" width="2.1" x="33.9" y="63.9" /><rect fill="black" height="9.5" stroke="none" stroke-width="0" width="9.5" x="40.2" y="60.2" /><rect fill="black" height="2.1" stroke="none" stroke-width="0" width="2.1" x="53.9" y="63.9" /><rect fill="black" height="9.5" stroke="none" stroke-width="0" width="9.5" x="60.2" y="60.2" /><rect fill="black" height="2.1" stroke="none" stroke-width="0" width="2.1" x="73.9" y="63.9" /><rect fill="black" height="9.5" stroke="none" stroke-width="0" width="9.5" x="80.2" y="60.2" /><rect fill="black" height="2.1" stroke="none" stroke-width="0" width="2.1" x="93.9" y="63.9" /><rect fill="black" height="9.5" stroke="none" stroke-width="0" width="9.5" x="100.2" y="60.2" /><rect fill="black" height="2.1" stroke="none" stroke-width="0" width="2.1" x="3.9" y="73.9" /><rect fill="black" height="9.5" stroke="none" stroke-width="0" width="9.5" x="10.2" y="70.2" /><rect fill="black" height="2.1" stroke="none" stroke-width="0" width="2.1" x="23.9" y="73.9" /><rect fill="black" height="9.5" stroke="none" stroke-width="0" width="9.5" x="30.2" y="70.2" /><rect fill="black" height="2.1" stroke="none" stroke-width="0" width="2.1" x="43.9" y="73.9" /><rect fill="black" height="9.5" stroke="none" stroke-width="0" width="9.5" x="50.2" y="70.2" /><rect fill="black" height="2.1" stroke="none" stroke-width="0" width="2.1" x="63.9" y="73.9" /><rect fill="black" height="9.5" stroke="none" stroke-width="0" width="9.5" x="70.2" y="70.2" /><rect fill="black" height="2.1" stroke="none" stroke-width="0" width="2.1" x="83.9" y="73.9" /><rect fill="black" height="9.5" stroke="none" stroke-width="0" width="9.5" x="90.2" y="70.2" /><rect fill="black" height="2.1" stroke="none" stroke-width="0" width="2.1" x="103.9" y="73.9" /><rect fill="black" height="9.5" stroke="none" stroke-width="0" width="9.5" x="0.2" y="80.2" /><rect fill="black" height="2.1" stroke="none" stroke-width="0" width="2.1" x="13.9" y="83.9" /><rect fill="black" height="9.5" stroke="none" stroke-width="0" width="9.5" x="20.2" y="80.2" /><rect fill="black" height="2.1" stroke="none" stroke-width="0" width="2.1" x="33.9" y="83.9" /><rect fill="black" height="9.5" stroke="none" stroke-width="0" width="9.5" x="40.2" y="80.2" /><rect fill="black" height="2.1" stroke="none" stroke-width="0" width="2.1" x="53.9" y="83.9" /><rect fill="black" height="9.5" stroke="none" stroke-width="0" width="9.5" x="60.2" y="80.2" /><rect fill="black" height="2.1" stroke="none" stroke-width="0" width="2.1" x="73.9" y="83.9" /><rect fill="black" height="9.5" stroke="none" stroke-width="0" width="9.5" x="80.2" y="80.2" /><rect fill="black" height="2.1" stroke="none" stroke-width="0" width="2.1" x="93.9" y="83.9" /><rect fill="black" height="9.5" stroke="none" stroke-width="0" width="9.5" x="100.2" y="80.2" /><rect fill="black" height="2.1" stroke="none" stroke-width="0" width="2.1" x="3.9" y="93.9" /><rect fill="black" height="9.5" stroke="none" stroke-width="0" width="9.5" x="10.2" y="90.2" /><rect fill="black" height="2.1" stroke="none" stroke-width="0" width="2.1" x="23.9" y="93.9" /><rect fill="black" height="9.5" stroke="none" stroke-width="0" width="9.5" x="30.2" y="90.2" /><rect fill="black" height="2.1" stroke="none" stroke-width="0" width="2.1" x="43.9" y="93.9" /><rect fill="black" height="9.5" stroke="none" stroke-width="0" width="9.5" x="50.2" y="90.2" /><rect fill="black" height="2.1" stroke="none" stroke-width="0" width="2.1" x="63.9" y="93.9" /><rect fill="black" height="9.5" stroke="none" stroke-width="0" width="9.5" x="70.2" y="90.2" /><rect fill="black" height="2.1" stroke="none" stroke-width="0" width="2.1" x="83.9" y="93.9" /><rect fill="black" height="9.5" stroke="none" stroke-width="0" width="9.5" x="90.2" y="90.2" /><rect fill="black" height="2.1" stroke="none" stroke-width="0" width="2.1" x="103.9" y="93.9" /><rect fill="black" height="9.5" stroke="none" stroke-width="0" width="9.5" x="0.2" y="100.2" /><rect fill="black" height="2.1" stroke="none" stroke-width="0" width="2.1" x="13.9" y="103.9" /><rect fill="black" height="9.5" stroke="none" stroke-width="0" width="9.5" x="20.2" y="100.2" /><rect fill="black" height="2.1" stroke="none" stroke-width="0" width="2.1" x="33.9" y="103.9" /><rect fill="black" height="9.5" stroke="none" stroke-width="0" width="9.5" x="40.2" y="100.2" /><rect fill="black" height="2.1" stroke="none" stroke-width="0" width="2.1" x="53.9" y="103.9" /><rect fill="black" height="9.5" stroke="none" stroke-width="0" width="9.5" x="60.2" y="100.2" /><rect fill="black" height="2.1" stroke="none" stroke-width="0" width="2.1" x="73.9" y="103.9" /><rect fill="black" height="9.5" stroke="none" stroke-width="0" width="9.5" x="80.2" y="100.2" /><rect fill="black" height="2.1" stroke="none" stroke-width="0" width="2.1" x="93.9" y="103.9" /><rect fill="black" height="9.5" stroke="none" stroke-width="0" width="9.5" x="100.2" y="100.2" /></g><g><text font-size="6px" text-anchor="middle" x="55.0" y="-17.0">Task 2</text><text font-size="6px" text-anchor="middle" transform="rotate(-90, -17.0, 55.0)" x="-17.0" y="55.0">ğ‘¥â‚</text></g><g><rect fill="black" height="9.5" stroke="none" stroke-width="0" width="9.5" x="150.2" y="0.2" /><rect fill="black" height="2.1" stroke="none" stroke-width="0" width="2.1" x="163.9" y="3.9" /><rect fill="black" height="2.1" stroke="none" stroke-width="0" width="2.1" x="173.9" y="3.9" /><rect fill="black" height="9.5" stroke="none" stroke-width="0" width="9.5" x="180.2" y="0.2" /><rect fill="black" height="2.1" stroke="none" stroke-width="0" width="2.1" x="193.9" y="3.9" /><rect fill="black" height="2.1" stroke="none" stroke-width="0" width="2.1" x="203.9" y="3.9" /><rect fill="black" height="9.5" stroke="none" stroke-width="0" width="9.5" x="210.2" y="0.2" /><rect fill="black" height="2.1" stroke="none" stroke-width="0" width="2.1" x="223.9" y="3.9" /><rect fill="black" height="2.1" stroke="none" stroke-width="0" width="2.1" x="233.9" y="3.9" /><rect fill="black" height="9.5" stroke="none" stroke-width="0" width="9.5" x="240.2" y="0.2" /><rect fill="black" height="2.1" stroke="none" stroke-width="0" width="2.1" x="253.9" y="3.9" /><rect fill="black" height="2.1" stroke="none" stroke-width="0" width="2.1" x="153.9" y="13.9" /><rect fill="black" height="9.5" stroke="none" stroke-width="0" width="9.5" x="160.2" y="10.2" /><rect fill="black" height="2.1" stroke="none" stroke-width="0" width="2.1" x="173.9" y="13.9" /><rect fill="black" height="2.1" stroke="none" stroke-width="0" width="2.1" x="183.9" y="13.9" /><rect fill="black" height="9.5" stroke="none" stroke-width="0" width="9.5" x="190.2" y="10.2" /><rect fill="black" height="2.1" stroke="none" stroke-width="0" width="2.1" x="203.9" y="13.9" /><rect fill="black" height="2.1" stroke="none" stroke-width="0" width="2.1" x="213.9" y="13.9" /><rect fill="black" height="9.5" stroke="none" stroke-width="0" width="9.5" x="220.2" y="10.2" /><rect fill="black" height="2.1" stroke="none" stroke-width="0" width="2.1" x="233.9" y="13.9" /><rect fill="black" height="2.1" stroke="none" stroke-width="0" width="2.1" x="243.9" y="13.9" /><rect fill="black" height="9.5" stroke="none" stroke-width="0" width="9.5" x="250.2" y="10.2" /><rect fill="black" height="2.1" stroke="none" stroke-width="0" width="2.1" x="153.9" y="23.9" /><rect fill="black" height="2.1" stroke="none" stroke-width="0" width="2.1" x="163.9" y="23.9" /><rect fill="black" height="9.5" stroke="none" stroke-width="0" width="9.5" x="170.2" y="20.2" /><rect fill="black" height="2.1" stroke="none" stroke-width="0" width="2.1" x="183.9" y="23.9" /><rect fill="black" height="2.1" stroke="none" stroke-width="0" width="2.1" x="193.9" y="23.9" /><rect fill="black" height="9.5" stroke="none" stroke-width="0" width="9.5" x="200.2" y="20.2" /><rect fill="black" height="2.1" stroke="none" stroke-width="0" width="2.1" x="213.9" y="23.9" /><rect fill="black" height="2.1" stroke="none" stroke-width="0" width="2.1" x="223.9" y="23.9" /><rect fill="black" height="9.5" stroke="none" stroke-width="0" width="9.5" x="230.2" y="20.2" /><rect fill="black" height="2.1" stroke="none" stroke-width="0" width="2.1" x="243.9" y="23.9" /><rect fill="black" height="2.1" stroke="none" stroke-width="0" width="2.1" x="253.9" y="23.9" /><rect fill="black" height="9.5" stroke="none" stroke-width="0" width="9.5" x="150.2" y="30.2" /><rect fill="black" height="2.1" stroke="none" stroke-width="0" width="2.1" x="163.9" y="33.9" /><rect fill="black" height="2.1" stroke="none" stroke-width="0" width="2.1" x="173.9" y="33.9" /><rect fill="black" height="9.5" stroke="none" stroke-width="0" width="9.5" x="180.2" y="30.2" /><rect fill="black" height="2.1" stroke="none" stroke-width="0" width="2.1" x="193.9" y="33.9" /><rect fill="black" height="2.1" stroke="none" stroke-width="0" width="2.1" x="203.9" y="33.9" /><rect fill="black" height="9.5" stroke="none" stroke-width="0" width="9.5" x="210.2" y="30.2" /><rect fill="black" height="2.1" stroke="none" stroke-width="0" width="2.1" x="223.9" y="33.9" /><rect fill="black" height="2.1" stroke="none" stroke-width="0" width="2.1" x="233.9" y="33.9" /><rect fill="black" height="9.5" stroke="none" stroke-width="0" width="9.5" x="240.2" y="30.2" /><rect fill="black" height="2.1" stroke="none" stroke-width="0" width="2.1" x="253.9" y="33.9" /><rect fill="black" height="2.1" stroke="none" stroke-width="0" width="2.1" x="153.9" y="43.9" /><rect fill="black" height="9.5" stroke="none" stroke-width="0" width="9.5" x="160.2" y="40.2" /><rect fill="black" height="2.1" stroke="none" stroke-width="0" width="2.1" x="173.9" y="43.9" /><rect fill="black" height="2.1" stroke="none" stroke-width="0" width="2.1" x="183.9" y="43.9" /><rect fill="black" height="9.5" stroke="none" stroke-width="0" width="9.5" x="190.2" y="40.2" /><rect fill="black" height="2.1" stroke="none" stroke-width="0" width="2.1" x="203.9" y="43.9" /><rect fill="black" height="2.1" stroke="none" stroke-width="0" width="2.1" x="213.9" y="43.9" /><rect fill="black" height="9.5" stroke="none" stroke-width="0" width="9.5" x="220.2" y="40.2" /><rect fill="black" height="2.1" stroke="none" stroke-width="0" width="2.1" x="233.9" y="43.9" /><rect fill="black" height="2.1" stroke="none" stroke-width="0" width="2.1" x="243.9" y="43.9" /><rect fill="black" height="9.5" stroke="none" stroke-width="0" width="9.5" x="250.2" y="40.2" /><rect fill="black" height="2.1" stroke="none" stroke-width="0" width="2.1" x="153.9" y="53.9" /><rect fill="black" height="2.1" stroke="none" stroke-width="0" width="2.1" x="163.9" y="53.9" /><rect fill="black" height="9.5" stroke="none" stroke-width="0" width="9.5" x="170.2" y="50.2" /><rect fill="black" height="2.1" stroke="none" stroke-width="0" width="2.1" x="183.9" y="53.9" /><rect fill="black" height="2.1" stroke="none" stroke-width="0" width="2.1" x="193.9" y="53.9" /><rect fill="black" height="9.5" stroke="none" stroke-width="0" width="9.5" x="200.2" y="50.2" /><rect fill="black" height="2.1" stroke="none" stroke-width="0" width="2.1" x="213.9" y="53.9" /><rect fill="black" height="2.1" stroke="none" stroke-width="0" width="2.1" x="223.9" y="53.9" /><rect fill="black" height="9.5" stroke="none" stroke-width="0" width="9.5" x="230.2" y="50.2" /><rect fill="black" height="2.1" stroke="none" stroke-width="0" width="2.1" x="243.9" y="53.9" /><rect fill="black" height="2.1" stroke="none" stroke-width="0" width="2.1" x="253.9" y="53.9" /><rect fill="black" height="9.5" stroke="none" stroke-width="0" width="9.5" x="150.2" y="60.2" /><rect fill="black" height="2.1" stroke="none" stroke-width="0" width="2.1" x="163.9" y="63.9" /><rect fill="black" height="2.1" stroke="none" stroke-width="0" width="2.1" x="173.9" y="63.9" /><rect fill="black" height="9.5" stroke="none" stroke-width="0" width="9.5" x="180.2" y="60.2" /><rect fill="black" height="2.1" stroke="none" stroke-width="0" width="2.1" x="193.9" y="63.9" /><rect fill="black" height="2.1" stroke="none" stroke-width="0" width="2.1" x="203.9" y="63.9" /><rect fill="black" height="9.5" stroke="none" stroke-width="0" width="9.5" x="210.2" y="60.2" /><rect fill="black" height="2.1" stroke="none" stroke-width="0" width="2.1" x="223.9" y="63.9" /><rect fill="black" height="2.1" stroke="none" stroke-width="0" width="2.1" x="233.9" y="63.9" /><rect fill="black" height="9.5" stroke="none" stroke-width="0" width="9.5" x="240.2" y="60.2" /><rect fill="black" height="2.1" stroke="none" stroke-width="0" width="2.1" x="253.9" y="63.9" /><rect fill="black" height="2.1" stroke="none" stroke-width="0" width="2.1" x="153.9" y="73.9" /><rect fill="black" height="9.5" stroke="none" stroke-width="0" width="9.5" x="160.2" y="70.2" /><rect fill="black" height="2.1" stroke="none" stroke-width="0" width="2.1" x="173.9" y="73.9" /><rect fill="black" height="2.1" stroke="none" stroke-width="0" width="2.1" x="183.9" y="73.9" /><rect fill="black" height="9.5" stroke="none" stroke-width="0" width="9.5" x="190.2" y="70.2" /><rect fill="black" height="2.1" stroke="none" stroke-width="0" width="2.1" x="203.9" y="73.9" /><rect fill="black" height="2.1" stroke="none" stroke-width="0" width="2.1" x="213.9" y="73.9" /><rect fill="black" height="9.5" stroke="none" stroke-width="0" width="9.5" x="220.2" y="70.2" /><rect fill="black" height="2.1" stroke="none" stroke-width="0" width="2.1" x="233.9" y="73.9" /><rect fill="black" height="2.1" stroke="none" stroke-width="0" width="2.1" x="243.9" y="73.9" /><rect fill="black" height="9.5" stroke="none" stroke-width="0" width="9.5" x="250.2" y="70.2" /><rect fill="black" height="2.1" stroke="none" stroke-width="0" width="2.1" x="153.9" y="83.9" /><rect fill="black" height="2.1" stroke="none" stroke-width="0" width="2.1" x="163.9" y="83.9" /><rect fill="black" height="9.5" stroke="none" stroke-width="0" width="9.5" x="170.2" y="80.2" /><rect fill="black" height="2.1" stroke="none" stroke-width="0" width="2.1" x="183.9" y="83.9" /><rect fill="black" height="2.1" stroke="none" stroke-width="0" width="2.1" x="193.9" y="83.9" /><rect fill="black" height="9.5" stroke="none" stroke-width="0" width="9.5" x="200.2" y="80.2" /><rect fill="black" height="2.1" stroke="none" stroke-width="0" width="2.1" x="213.9" y="83.9" /><rect fill="black" height="2.1" stroke="none" stroke-width="0" width="2.1" x="223.9" y="83.9" /><rect fill="black" height="9.5" stroke="none" stroke-width="0" width="9.5" x="230.2" y="80.2" /><rect fill="black" height="2.1" stroke="none" stroke-width="0" width="2.1" x="243.9" y="83.9" /><rect fill="black" height="2.1" stroke="none" stroke-width="0" width="2.1" x="253.9" y="83.9" /><rect fill="black" height="9.5" stroke="none" stroke-width="0" width="9.5" x="150.2" y="90.2" /><rect fill="black" height="2.1" stroke="none" stroke-width="0" width="2.1" x="163.9" y="93.9" /><rect fill="black" height="2.1" stroke="none" stroke-width="0" width="2.1" x="173.9" y="93.9" /><rect fill="black" height="9.5" stroke="none" stroke-width="0" width="9.5" x="180.2" y="90.2" /><rect fill="black" height="2.1" stroke="none" stroke-width="0" width="2.1" x="193.9" y="93.9" /><rect fill="black" height="2.1" stroke="none" stroke-width="0" width="2.1" x="203.9" y="93.9" /><rect fill="black" height="9.5" stroke="none" stroke-width="0" width="9.5" x="210.2" y="90.2" /><rect fill="black" height="2.1" stroke="none" stroke-width="0" width="2.1" x="223.9" y="93.9" /><rect fill="black" height="2.1" stroke="none" stroke-width="0" width="2.1" x="233.9" y="93.9" /><rect fill="black" height="9.5" stroke="none" stroke-width="0" width="9.5" x="240.2" y="90.2" /><rect fill="black" height="2.1" stroke="none" stroke-width="0" width="2.1" x="253.9" y="93.9" /><rect fill="black" height="2.1" stroke="none" stroke-width="0" width="2.1" x="153.9" y="103.9" /><rect fill="black" height="9.5" stroke="none" stroke-width="0" width="9.5" x="160.2" y="100.2" /><rect fill="black" height="2.1" stroke="none" stroke-width="0" width="2.1" x="173.9" y="103.9" /><rect fill="black" height="2.1" stroke="none" stroke-width="0" width="2.1" x="183.9" y="103.9" /><rect fill="black" height="9.5" stroke="none" stroke-width="0" width="9.5" x="190.2" y="100.2" /><rect fill="black" height="2.1" stroke="none" stroke-width="0" width="2.1" x="203.9" y="103.9" /><rect fill="black" height="2.1" stroke="none" stroke-width="0" width="2.1" x="213.9" y="103.9" /><rect fill="black" height="9.5" stroke="none" stroke-width="0" width="9.5" x="220.2" y="100.2" /><rect fill="black" height="2.1" stroke="none" stroke-width="0" width="2.1" x="233.9" y="103.9" /><rect fill="black" height="2.1" stroke="none" stroke-width="0" width="2.1" x="243.9" y="103.9" /><rect fill="black" height="9.5" stroke="none" stroke-width="0" width="9.5" x="250.2" y="100.2" /></g><g><text font-size="6px" text-anchor="middle" x="205.0" y="-17.0">Task 3</text></g><g><rect fill="black" height="9.5" stroke="none" stroke-width="0" width="9.5" x="300.2" y="0.2" /><rect fill="black" height="2.1" stroke="none" stroke-width="0" width="2.1" x="313.9" y="3.9" /><rect fill="black" height="2.1" stroke="none" stroke-width="0" width="2.1" x="323.9" y="3.9" /><rect fill="black" height="2.1" stroke="none" stroke-width="0" width="2.1" x="333.9" y="3.9" /><rect fill="black" height="2.1" stroke="none" stroke-width="0" width="2.1" x="343.9" y="3.9" /><rect fill="black" height="9.5" stroke="none" stroke-width="0" width="9.5" x="350.2" y="0.2" /><rect fill="black" height="2.1" stroke="none" stroke-width="0" width="2.1" x="363.9" y="3.9" /><rect fill="black" height="2.1" stroke="none" stroke-width="0" width="2.1" x="373.9" y="3.9" /><rect fill="black" height="2.1" stroke="none" stroke-width="0" width="2.1" x="383.9" y="3.9" /><rect fill="black" height="2.1" stroke="none" stroke-width="0" width="2.1" x="393.9" y="3.9" /><rect fill="black" height="9.5" stroke="none" stroke-width="0" width="9.5" x="400.2" y="0.2" /><rect fill="black" height="2.1" stroke="none" stroke-width="0" width="2.1" x="303.9" y="13.9" /><rect fill="black" height="2.1" stroke="none" stroke-width="0" width="2.1" x="313.9" y="13.9" /><rect fill="black" height="2.1" stroke="none" stroke-width="0" width="2.1" x="323.9" y="13.9" /><rect fill="black" height="2.1" stroke="none" stroke-width="0" width="2.1" x="333.9" y="13.9" /><rect fill="black" height="9.5" stroke="none" stroke-width="0" width="9.5" x="340.2" y="10.2" /><rect fill="black" height="2.1" stroke="none" stroke-width="0" width="2.1" x="353.9" y="13.9" /><rect fill="black" height="2.1" stroke="none" stroke-width="0" width="2.1" x="363.9" y="13.9" /><rect fill="black" height="2.1" stroke="none" stroke-width="0" width="2.1" x="373.9" y="13.9" /><rect fill="black" height="2.1" stroke="none" stroke-width="0" width="2.1" x="383.9" y="13.9" /><rect fill="black" height="9.5" stroke="none" stroke-width="0" width="9.5" x="390.2" y="10.2" /><rect fill="black" height="2.1" stroke="none" stroke-width="0" width="2.1" x="403.9" y="13.9" /><rect fill="black" height="2.1" stroke="none" stroke-width="0" width="2.1" x="303.9" y="23.9" /><rect fill="black" height="2.1" stroke="none" stroke-width="0" width="2.1" x="313.9" y="23.9" /><rect fill="black" height="2.1" stroke="none" stroke-width="0" width="2.1" x="323.9" y="23.9" /><rect fill="black" height="9.5" stroke="none" stroke-width="0" width="9.5" x="330.2" y="20.2" /><rect fill="black" height="2.1" stroke="none" stroke-width="0" width="2.1" x="343.9" y="23.9" /><rect fill="black" height="2.1" stroke="none" stroke-width="0" width="2.1" x="353.9" y="23.9" /><rect fill="black" height="2.1" stroke="none" stroke-width="0" width="2.1" x="363.9" y="23.9" /><rect fill="black" height="2.1" stroke="none" stroke-width="0" width="2.1" x="373.9" y="23.9" /><rect fill="black" height="9.5" stroke="none" stroke-width="0" width="9.5" x="380.2" y="20.2" /><rect fill="black" height="2.1" stroke="none" stroke-width="0" width="2.1" x="393.9" y="23.9" /><rect fill="black" height="2.1" stroke="none" stroke-width="0" width="2.1" x="403.9" y="23.9" /><rect fill="black" height="2.1" stroke="none" stroke-width="0" width="2.1" x="303.9" y="33.9" /><rect fill="black" height="2.1" stroke="none" stroke-width="0" width="2.1" x="313.9" y="33.9" /><rect fill="black" height="9.5" stroke="none" stroke-width="0" width="9.5" x="320.2" y="30.2" /><rect fill="black" height="2.1" stroke="none" stroke-width="0" width="2.1" x="333.9" y="33.9" /><rect fill="black" height="2.1" stroke="none" stroke-width="0" width="2.1" x="343.9" y="33.9" /><rect fill="black" height="2.1" stroke="none" stroke-width="0" width="2.1" x="353.9" y="33.9" /><rect fill="black" height="2.1" stroke="none" stroke-width="0" width="2.1" x="363.9" y="33.9" /><rect fill="black" height="9.5" stroke="none" stroke-width="0" width="9.5" x="370.2" y="30.2" /><rect fill="black" height="2.1" stroke="none" stroke-width="0" width="2.1" x="383.9" y="33.9" /><rect fill="black" height="2.1" stroke="none" stroke-width="0" width="2.1" x="393.9" y="33.9" /><rect fill="black" height="2.1" stroke="none" stroke-width="0" width="2.1" x="403.9" y="33.9" /><rect fill="black" height="2.1" stroke="none" stroke-width="0" width="2.1" x="303.9" y="43.9" /><rect fill="black" height="9.5" stroke="none" stroke-width="0" width="9.5" x="310.2" y="40.2" /><rect fill="black" height="2.1" stroke="none" stroke-width="0" width="2.1" x="323.9" y="43.9" /><rect fill="black" height="2.1" stroke="none" stroke-width="0" width="2.1" x="333.9" y="43.9" /><rect fill="black" height="2.1" stroke="none" stroke-width="0" width="2.1" x="343.9" y="43.9" /><rect fill="black" height="2.1" stroke="none" stroke-width="0" width="2.1" x="353.9" y="43.9" /><rect fill="black" height="9.5" stroke="none" stroke-width="0" width="9.5" x="360.2" y="40.2" /><rect fill="black" height="2.1" stroke="none" stroke-width="0" width="2.1" x="373.9" y="43.9" /><rect fill="black" height="2.1" stroke="none" stroke-width="0" width="2.1" x="383.9" y="43.9" /><rect fill="black" height="2.1" stroke="none" stroke-width="0" width="2.1" x="393.9" y="43.9" /><rect fill="black" height="2.1" stroke="none" stroke-width="0" width="2.1" x="403.9" y="43.9" /><rect fill="black" height="9.5" stroke="none" stroke-width="0" width="9.5" x="300.2" y="50.2" /><rect fill="black" height="2.1" stroke="none" stroke-width="0" width="2.1" x="313.9" y="53.9" /><rect fill="black" height="2.1" stroke="none" stroke-width="0" width="2.1" x="323.9" y="53.9" /><rect fill="black" height="2.1" stroke="none" stroke-width="0" width="2.1" x="333.9" y="53.9" /><rect fill="black" height="2.1" stroke="none" stroke-width="0" width="2.1" x="343.9" y="53.9" /><rect fill="black" height="9.5" stroke="none" stroke-width="0" width="9.5" x="350.2" y="50.2" /><rect fill="black" height="2.1" stroke="none" stroke-width="0" width="2.1" x="363.9" y="53.9" /><rect fill="black" height="2.1" stroke="none" stroke-width="0" width="2.1" x="373.9" y="53.9" /><rect fill="black" height="2.1" stroke="none" stroke-width="0" width="2.1" x="383.9" y="53.9" /><rect fill="black" height="2.1" stroke="none" stroke-width="0" width="2.1" x="393.9" y="53.9" /><rect fill="black" height="9.5" stroke="none" stroke-width="0" width="9.5" x="400.2" y="50.2" /><rect fill="black" height="2.1" stroke="none" stroke-width="0" width="2.1" x="303.9" y="63.9" /><rect fill="black" height="2.1" stroke="none" stroke-width="0" width="2.1" x="313.9" y="63.9" /><rect fill="black" height="2.1" stroke="none" stroke-width="0" width="2.1" x="323.9" y="63.9" /><rect fill="black" height="2.1" stroke="none" stroke-width="0" width="2.1" x="333.9" y="63.9" /><rect fill="black" height="9.5" stroke="none" stroke-width="0" width="9.5" x="340.2" y="60.2" /><rect fill="black" height="2.1" stroke="none" stroke-width="0" width="2.1" x="353.9" y="63.9" /><rect fill="black" height="2.1" stroke="none" stroke-width="0" width="2.1" x="363.9" y="63.9" /><rect fill="black" height="2.1" stroke="none" stroke-width="0" width="2.1" x="373.9" y="63.9" /><rect fill="black" height="2.1" stroke="none" stroke-width="0" width="2.1" x="383.9" y="63.9" /><rect fill="black" height="9.5" stroke="none" stroke-width="0" width="9.5" x="390.2" y="60.2" /><rect fill="black" height="2.1" stroke="none" stroke-width="0" width="2.1" x="403.9" y="63.9" /><rect fill="black" height="2.1" stroke="none" stroke-width="0" width="2.1" x="303.9" y="73.9" /><rect fill="black" height="2.1" stroke="none" stroke-width="0" width="2.1" x="313.9" y="73.9" /><rect fill="black" height="2.1" stroke="none" stroke-width="0" width="2.1" x="323.9" y="73.9" /><rect fill="black" height="9.5" stroke="none" stroke-width="0" width="9.5" x="330.2" y="70.2" /><rect fill="black" height="2.1" stroke="none" stroke-width="0" width="2.1" x="343.9" y="73.9" /><rect fill="black" height="2.1" stroke="none" stroke-width="0" width="2.1" x="353.9" y="73.9" /><rect fill="black" height="2.1" stroke="none" stroke-width="0" width="2.1" x="363.9" y="73.9" /><rect fill="black" height="2.1" stroke="none" stroke-width="0" width="2.1" x="373.9" y="73.9" /><rect fill="black" height="9.5" stroke="none" stroke-width="0" width="9.5" x="380.2" y="70.2" /><rect fill="black" height="2.1" stroke="none" stroke-width="0" width="2.1" x="393.9" y="73.9" /><rect fill="black" height="2.1" stroke="none" stroke-width="0" width="2.1" x="403.9" y="73.9" /><rect fill="black" height="2.1" stroke="none" stroke-width="0" width="2.1" x="303.9" y="83.9" /><rect fill="black" height="2.1" stroke="none" stroke-width="0" width="2.1" x="313.9" y="83.9" /><rect fill="black" height="9.5" stroke="none" stroke-width="0" width="9.5" x="320.2" y="80.2" /><rect fill="black" height="2.1" stroke="none" stroke-width="0" width="2.1" x="333.9" y="83.9" /><rect fill="black" height="2.1" stroke="none" stroke-width="0" width="2.1" x="343.9" y="83.9" /><rect fill="black" height="2.1" stroke="none" stroke-width="0" width="2.1" x="353.9" y="83.9" /><rect fill="black" height="2.1" stroke="none" stroke-width="0" width="2.1" x="363.9" y="83.9" /><rect fill="black" height="9.5" stroke="none" stroke-width="0" width="9.5" x="370.2" y="80.2" /><rect fill="black" height="2.1" stroke="none" stroke-width="0" width="2.1" x="383.9" y="83.9" /><rect fill="black" height="2.1" stroke="none" stroke-width="0" width="2.1" x="393.9" y="83.9" /><rect fill="black" height="2.1" stroke="none" stroke-width="0" width="2.1" x="403.9" y="83.9" /><rect fill="black" height="2.1" stroke="none" stroke-width="0" width="2.1" x="303.9" y="93.9" /><rect fill="black" height="9.5" stroke="none" stroke-width="0" width="9.5" x="310.2" y="90.2" /><rect fill="black" height="2.1" stroke="none" stroke-width="0" width="2.1" x="323.9" y="93.9" /><rect fill="black" height="2.1" stroke="none" stroke-width="0" width="2.1" x="333.9" y="93.9" /><rect fill="black" height="2.1" stroke="none" stroke-width="0" width="2.1" x="343.9" y="93.9" /><rect fill="black" height="2.1" stroke="none" stroke-width="0" width="2.1" x="353.9" y="93.9" /><rect fill="black" height="9.5" stroke="none" stroke-width="0" width="9.5" x="360.2" y="90.2" /><rect fill="black" height="2.1" stroke="none" stroke-width="0" width="2.1" x="373.9" y="93.9" /><rect fill="black" height="2.1" stroke="none" stroke-width="0" width="2.1" x="383.9" y="93.9" /><rect fill="black" height="2.1" stroke="none" stroke-width="0" width="2.1" x="393.9" y="93.9" /><rect fill="black" height="2.1" stroke="none" stroke-width="0" width="2.1" x="403.9" y="93.9" /><rect fill="black" height="9.5" stroke="none" stroke-width="0" width="9.5" x="300.2" y="100.2" /><rect fill="black" height="2.1" stroke="none" stroke-width="0" width="2.1" x="313.9" y="103.9" /><rect fill="black" height="2.1" stroke="none" stroke-width="0" width="2.1" x="323.9" y="103.9" /><rect fill="black" height="2.1" stroke="none" stroke-width="0" width="2.1" x="333.9" y="103.9" /><rect fill="black" height="2.1" stroke="none" stroke-width="0" width="2.1" x="343.9" y="103.9" /><rect fill="black" height="9.5" stroke="none" stroke-width="0" width="9.5" x="350.2" y="100.2" /><rect fill="black" height="2.1" stroke="none" stroke-width="0" width="2.1" x="363.9" y="103.9" /><rect fill="black" height="2.1" stroke="none" stroke-width="0" width="2.1" x="373.9" y="103.9" /><rect fill="black" height="2.1" stroke="none" stroke-width="0" width="2.1" x="383.9" y="103.9" /><rect fill="black" height="2.1" stroke="none" stroke-width="0" width="2.1" x="393.9" y="103.9" /><rect fill="black" height="9.5" stroke="none" stroke-width="0" width="9.5" x="400.2" y="100.2" /></g><g><text font-size="6px" text-anchor="middle" x="355.0" y="-17.0">Task 5</text></g><g><rect fill="black" height="9.5" stroke="none" stroke-width="0" width="9.5" x="450.2" y="0.2" /><rect fill="black" height="2.1" stroke="none" stroke-width="0" width="2.1" x="463.9" y="3.9" /><rect fill="black" height="2.1" stroke="none" stroke-width="0" width="2.1" x="473.9" y="3.9" /><rect fill="black" height="2.1" stroke="none" stroke-width="0" width="2.1" x="483.9" y="3.9" /><rect fill="black" height="2.1" stroke="none" stroke-width="0" width="2.1" x="493.9" y="3.9" /><rect fill="black" height="2.1" stroke="none" stroke-width="0" width="2.1" x="503.9" y="3.9" /><rect fill="black" height="2.1" stroke="none" stroke-width="0" width="2.1" x="513.9" y="3.9" /><rect fill="black" height="9.5" stroke="none" stroke-width="0" width="9.5" x="520.2" y="0.2" /><rect fill="black" height="2.1" stroke="none" stroke-width="0" width="2.1" x="533.9" y="3.9" /><rect fill="black" height="2.1" stroke="none" stroke-width="0" width="2.1" x="543.9" y="3.9" /><rect fill="black" height="2.1" stroke="none" stroke-width="0" width="2.1" x="553.9" y="3.9" /><rect fill="black" height="2.1" stroke="none" stroke-width="0" width="2.1" x="453.9" y="13.9" /><rect fill="black" height="2.1" stroke="none" stroke-width="0" width="2.1" x="463.9" y="13.9" /><rect fill="black" height="2.1" stroke="none" stroke-width="0" width="2.1" x="473.9" y="13.9" /><rect fill="black" height="9.5" stroke="none" stroke-width="0" width="9.5" x="480.2" y="10.2" /><rect fill="black" height="2.1" stroke="none" stroke-width="0" width="2.1" x="493.9" y="13.9" /><rect fill="black" height="2.1" stroke="none" stroke-width="0" width="2.1" x="503.9" y="13.9" /><rect fill="black" height="2.1" stroke="none" stroke-width="0" width="2.1" x="513.9" y="13.9" /><rect fill="black" height="2.1" stroke="none" stroke-width="0" width="2.1" x="523.9" y="13.9" /><rect fill="black" height="2.1" stroke="none" stroke-width="0" width="2.1" x="533.9" y="13.9" /><rect fill="black" height="2.1" stroke="none" stroke-width="0" width="2.1" x="543.9" y="13.9" /><rect fill="black" height="9.5" stroke="none" stroke-width="0" width="9.5" x="550.2" y="10.2" /><rect fill="black" height="2.1" stroke="none" stroke-width="0" width="2.1" x="453.9" y="23.9" /><rect fill="black" height="2.1" stroke="none" stroke-width="0" width="2.1" x="463.9" y="23.9" /><rect fill="black" height="2.1" stroke="none" stroke-width="0" width="2.1" x="473.9" y="23.9" /><rect fill="black" height="2.1" stroke="none" stroke-width="0" width="2.1" x="483.9" y="23.9" /><rect fill="black" height="2.1" stroke="none" stroke-width="0" width="2.1" x="493.9" y="23.9" /><rect fill="black" height="2.1" stroke="none" stroke-width="0" width="2.1" x="503.9" y="23.9" /><rect fill="black" height="9.5" stroke="none" stroke-width="0" width="9.5" x="510.2" y="20.2" /><rect fill="black" height="2.1" stroke="none" stroke-width="0" width="2.1" x="523.9" y="23.9" /><rect fill="black" height="2.1" stroke="none" stroke-width="0" width="2.1" x="533.9" y="23.9" /><rect fill="black" height="2.1" stroke="none" stroke-width="0" width="2.1" x="543.9" y="23.9" /><rect fill="black" height="2.1" stroke="none" stroke-width="0" width="2.1" x="553.9" y="23.9" /><rect fill="black" height="2.1" stroke="none" stroke-width="0" width="2.1" x="453.9" y="33.9" /><rect fill="black" height="2.1" stroke="none" stroke-width="0" width="2.1" x="463.9" y="33.9" /><rect fill="black" height="9.5" stroke="none" stroke-width="0" width="9.5" x="470.2" y="30.2" /><rect fill="black" height="2.1" stroke="none" stroke-width="0" width="2.1" x="483.9" y="33.9" /><rect fill="black" height="2.1" stroke="none" stroke-width="0" width="2.1" x="493.9" y="33.9" /><rect fill="black" height="2.1" stroke="none" stroke-width="0" width="2.1" x="503.9" y="33.9" /><rect fill="black" height="2.1" stroke="none" stroke-width="0" width="2.1" x="513.9" y="33.9" /><rect fill="black" height="2.1" stroke="none" stroke-width="0" width="2.1" x="523.9" y="33.9" /><rect fill="black" height="2.1" stroke="none" stroke-width="0" width="2.1" x="533.9" y="33.9" /><rect fill="black" height="9.5" stroke="none" stroke-width="0" width="9.5" x="540.2" y="30.2" /><rect fill="black" height="2.1" stroke="none" stroke-width="0" width="2.1" x="553.9" y="33.9" /><rect fill="black" height="2.1" stroke="none" stroke-width="0" width="2.1" x="453.9" y="43.9" /><rect fill="black" height="2.1" stroke="none" stroke-width="0" width="2.1" x="463.9" y="43.9" /><rect fill="black" height="2.1" stroke="none" stroke-width="0" width="2.1" x="473.9" y="43.9" /><rect fill="black" height="2.1" stroke="none" stroke-width="0" width="2.1" x="483.9" y="43.9" /><rect fill="black" height="2.1" stroke="none" stroke-width="0" width="2.1" x="493.9" y="43.9" /><rect fill="black" height="9.5" stroke="none" stroke-width="0" width="9.5" x="500.2" y="40.2" /><rect fill="black" height="2.1" stroke="none" stroke-width="0" width="2.1" x="513.9" y="43.9" /><rect fill="black" height="2.1" stroke="none" stroke-width="0" width="2.1" x="523.9" y="43.9" /><rect fill="black" height="2.1" stroke="none" stroke-width="0" width="2.1" x="533.9" y="43.9" /><rect fill="black" height="2.1" stroke="none" stroke-width="0" width="2.1" x="543.9" y="43.9" /><rect fill="black" height="2.1" stroke="none" stroke-width="0" width="2.1" x="553.9" y="43.9" /><rect fill="black" height="2.1" stroke="none" stroke-width="0" width="2.1" x="453.9" y="53.9" /><rect fill="black" height="9.5" stroke="none" stroke-width="0" width="9.5" x="460.2" y="50.2" /><rect fill="black" height="2.1" stroke="none" stroke-width="0" width="2.1" x="473.9" y="53.9" /><rect fill="black" height="2.1" stroke="none" stroke-width="0" width="2.1" x="483.9" y="53.9" /><rect fill="black" height="2.1" stroke="none" stroke-width="0" width="2.1" x="493.9" y="53.9" /><rect fill="black" height="2.1" stroke="none" stroke-width="0" width="2.1" x="503.9" y="53.9" /><rect fill="black" height="2.1" stroke="none" stroke-width="0" width="2.1" x="513.9" y="53.9" /><rect fill="black" height="2.1" stroke="none" stroke-width="0" width="2.1" x="523.9" y="53.9" /><rect fill="black" height="9.5" stroke="none" stroke-width="0" width="9.5" x="530.2" y="50.2" /><rect fill="black" height="2.1" stroke="none" stroke-width="0" width="2.1" x="543.9" y="53.9" /><rect fill="black" height="2.1" stroke="none" stroke-width="0" width="2.1" x="553.9" y="53.9" /><rect fill="black" height="2.1" stroke="none" stroke-width="0" width="2.1" x="453.9" y="63.9" /><rect fill="black" height="2.1" stroke="none" stroke-width="0" width="2.1" x="463.9" y="63.9" /><rect fill="black" height="2.1" stroke="none" stroke-width="0" width="2.1" x="473.9" y="63.9" /><rect fill="black" height="2.1" stroke="none" stroke-width="0" width="2.1" x="483.9" y="63.9" /><rect fill="black" height="9.5" stroke="none" stroke-width="0" width="9.5" x="490.2" y="60.2" /><rect fill="black" height="2.1" stroke="none" stroke-width="0" width="2.1" x="503.9" y="63.9" /><rect fill="black" height="2.1" stroke="none" stroke-width="0" width="2.1" x="513.9" y="63.9" /><rect fill="black" height="2.1" stroke="none" stroke-width="0" width="2.1" x="523.9" y="63.9" /><rect fill="black" height="2.1" stroke="none" stroke-width="0" width="2.1" x="533.9" y="63.9" /><rect fill="black" height="2.1" stroke="none" stroke-width="0" width="2.1" x="543.9" y="63.9" /><rect fill="black" height="2.1" stroke="none" stroke-width="0" width="2.1" x="553.9" y="63.9" /><rect fill="black" height="9.5" stroke="none" stroke-width="0" width="9.5" x="450.2" y="70.2" /><rect fill="black" height="2.1" stroke="none" stroke-width="0" width="2.1" x="463.9" y="73.9" /><rect fill="black" height="2.1" stroke="none" stroke-width="0" width="2.1" x="473.9" y="73.9" /><rect fill="black" height="2.1" stroke="none" stroke-width="0" width="2.1" x="483.9" y="73.9" /><rect fill="black" height="2.1" stroke="none" stroke-width="0" width="2.1" x="493.9" y="73.9" /><rect fill="black" height="2.1" stroke="none" stroke-width="0" width="2.1" x="503.9" y="73.9" /><rect fill="black" height="2.1" stroke="none" stroke-width="0" width="2.1" x="513.9" y="73.9" /><rect fill="black" height="9.5" stroke="none" stroke-width="0" width="9.5" x="520.2" y="70.2" /><rect fill="black" height="2.1" stroke="none" stroke-width="0" width="2.1" x="533.9" y="73.9" /><rect fill="black" height="2.1" stroke="none" stroke-width="0" width="2.1" x="543.9" y="73.9" /><rect fill="black" height="2.1" stroke="none" stroke-width="0" width="2.1" x="553.9" y="73.9" /><rect fill="black" height="2.1" stroke="none" stroke-width="0" width="2.1" x="453.9" y="83.9" /><rect fill="black" height="2.1" stroke="none" stroke-width="0" width="2.1" x="463.9" y="83.9" /><rect fill="black" height="2.1" stroke="none" stroke-width="0" width="2.1" x="473.9" y="83.9" /><rect fill="black" height="9.5" stroke="none" stroke-width="0" width="9.5" x="480.2" y="80.2" /><rect fill="black" height="2.1" stroke="none" stroke-width="0" width="2.1" x="493.9" y="83.9" /><rect fill="black" height="2.1" stroke="none" stroke-width="0" width="2.1" x="503.9" y="83.9" /><rect fill="black" height="2.1" stroke="none" stroke-width="0" width="2.1" x="513.9" y="83.9" /><rect fill="black" height="2.1" stroke="none" stroke-width="0" width="2.1" x="523.9" y="83.9" /><rect fill="black" height="2.1" stroke="none" stroke-width="0" width="2.1" x="533.9" y="83.9" /><rect fill="black" height="2.1" stroke="none" stroke-width="0" width="2.1" x="543.9" y="83.9" /><rect fill="black" height="9.5" stroke="none" stroke-width="0" width="9.5" x="550.2" y="80.2" /><rect fill="black" height="2.1" stroke="none" stroke-width="0" width="2.1" x="453.9" y="93.9" /><rect fill="black" height="2.1" stroke="none" stroke-width="0" width="2.1" x="463.9" y="93.9" /><rect fill="black" height="2.1" stroke="none" stroke-width="0" width="2.1" x="473.9" y="93.9" /><rect fill="black" height="2.1" stroke="none" stroke-width="0" width="2.1" x="483.9" y="93.9" /><rect fill="black" height="2.1" stroke="none" stroke-width="0" width="2.1" x="493.9" y="93.9" /><rect fill="black" height="2.1" stroke="none" stroke-width="0" width="2.1" x="503.9" y="93.9" /><rect fill="black" height="9.5" stroke="none" stroke-width="0" width="9.5" x="510.2" y="90.2" /><rect fill="black" height="2.1" stroke="none" stroke-width="0" width="2.1" x="523.9" y="93.9" /><rect fill="black" height="2.1" stroke="none" stroke-width="0" width="2.1" x="533.9" y="93.9" /><rect fill="black" height="2.1" stroke="none" stroke-width="0" width="2.1" x="543.9" y="93.9" /><rect fill="black" height="2.1" stroke="none" stroke-width="0" width="2.1" x="553.9" y="93.9" /><rect fill="black" height="2.1" stroke="none" stroke-width="0" width="2.1" x="453.9" y="103.9" /><rect fill="black" height="2.1" stroke="none" stroke-width="0" width="2.1" x="463.9" y="103.9" /><rect fill="black" height="9.5" stroke="none" stroke-width="0" width="9.5" x="470.2" y="100.2" /><rect fill="black" height="2.1" stroke="none" stroke-width="0" width="2.1" x="483.9" y="103.9" /><rect fill="black" height="2.1" stroke="none" stroke-width="0" width="2.1" x="493.9" y="103.9" /><rect fill="black" height="2.1" stroke="none" stroke-width="0" width="2.1" x="503.9" y="103.9" /><rect fill="black" height="2.1" stroke="none" stroke-width="0" width="2.1" x="513.9" y="103.9" /><rect fill="black" height="2.1" stroke="none" stroke-width="0" width="2.1" x="523.9" y="103.9" /><rect fill="black" height="2.1" stroke="none" stroke-width="0" width="2.1" x="533.9" y="103.9" /><rect fill="black" height="9.5" stroke="none" stroke-width="0" width="9.5" x="540.2" y="100.2" /><rect fill="black" height="2.1" stroke="none" stroke-width="0" width="2.1" x="553.9" y="103.9" /></g><g><text font-size="6px" text-anchor="middle" x="505.0" y="-17.0">Task 7</text></g></svg>