<?xml version="1.0" encoding="utf-8" ?>
<svg baseProfile="full" height="100%" preserveAspectRatio="xMidYMid meet" version="1.1" viewBox="-40,-40,1210,90" width="100%" xmlns="http://www.w3.org/2000/svg" xmlns:ev="http://www.w3.org/2001/xml-events" xmlns:xlink="http://www.w3.org/1999/xlink"><defs><style type="text/css"><![CDATA[
        @import url(https://cdn.jsdelivr.net/npm/firacode@6.2.0/distr/fira_code.css);
        text {
            font-family: 'STIX Two', 'STIX Two Math', 'STIXMath', 'DejaVu Math TeX Glyph',
                        'DejaVu Serif', 'Cambria Math', 'Latin Modern Math', 'FiraCode',
                        'serif';
        }
    ]]></style><style type="text/css"><![CDATA[
        @import url(https://cdn.jsdelivr.net/npm/firacode@6.2.0/distr/fira_code.css);
        text {
            font-family: 'STIX Two', 'STIX Two Math', 'STIXMath', 'DejaVu Math TeX Glyph',
                        'DejaVu Serif', 'Cambria Math', 'Latin Modern Math', 'FiraCode',
                        'serif';
        }
    ]]></style></defs><g><rect fill="black" height="2.7" stroke="none" stroke-width="0" width="2.7" x="3.6" y="3.6" /><rect fill="black" height="5.9" stroke="none" stroke-width="0" width="5.9" x="12.1" y="2.1" /><rect fill="black" height="8.7" stroke="none" stroke-width="0" width="8.7" x="20.7" y="0.7" /><rect fill="black" height="6.1" stroke="none" stroke-width="0" width="6.1" x="31.9" y="1.9" /><rect fill="black" height="4.6" stroke="none" stroke-width="0" width="4.6" x="42.7" y="2.7" /><rect fill="black" height="4.4" stroke="none" stroke-width="0" width="4.4" x="52.8" y="2.8" /><rect fill="black" height="4.7" stroke="none" stroke-width="0" width="4.7" x="62.7" y="2.7" /><rect fill="black" height="6.1" stroke="none" stroke-width="0" width="6.1" x="72.0" y="2.0" /><rect fill="black" height="7.7" stroke="none" stroke-width="0" width="7.7" x="81.1" y="1.1" /><rect fill="black" height="8.7" stroke="none" stroke-width="0" width="8.7" x="90.7" y="0.7" /><rect fill="black" height="9.4" stroke="none" stroke-width="0" width="9.4" x="100.3" y="0.3" /><rect fill="black" height="7.5" stroke="none" stroke-width="0" width="7.5" x="111.2" y="1.2" /><rect fill="black" height="5.3" stroke="none" stroke-width="0" width="5.3" x="122.4" y="2.4" /><rect fill="black" height="5.3" stroke="none" stroke-width="0" width="5.3" x="132.3" y="2.3" /><rect fill="black" height="7.4" stroke="none" stroke-width="0" width="7.4" x="141.3" y="1.3" /><rect fill="black" height="9.1" stroke="none" stroke-width="0" width="9.1" x="150.4" y="0.4" /><rect fill="black" height="8.5" stroke="none" stroke-width="0" width="8.5" x="160.8" y="0.8" /><rect fill="black" height="8.2" stroke="none" stroke-width="0" width="8.2" x="170.9" y="0.9" /><rect fill="black" height="6.8" stroke="none" stroke-width="0" width="6.8" x="181.6" y="1.6" /><rect fill="black" height="6.3" stroke="none" stroke-width="0" width="6.3" x="191.8" y="1.8" /><rect fill="black" height="7.8" stroke="none" stroke-width="0" width="7.8" x="201.1" y="1.1" /><rect fill="black" height="7.1" stroke="none" stroke-width="0" width="7.1" x="211.5" y="1.5" /><rect fill="black" height="9.3" stroke="none" stroke-width="0" width="9.3" x="220.3" y="0.3" /><rect fill="black" height="8.8" stroke="none" stroke-width="0" width="8.8" x="230.6" y="0.6" /><rect fill="black" height="8.2" stroke="none" stroke-width="0" width="8.2" x="240.9" y="0.9" /><rect fill="black" height="8.4" stroke="none" stroke-width="0" width="8.4" x="250.8" y="0.8" /><rect fill="black" height="9.4" stroke="none" stroke-width="0" width="9.4" x="260.3" y="0.3" /><rect fill="black" height="9.0" stroke="none" stroke-width="0" width="9.0" x="270.5" y="0.5" /><rect fill="black" height="6.6" stroke="none" stroke-width="0" width="6.6" x="281.7" y="1.7" /><rect fill="black" height="5.7" stroke="none" stroke-width="0" width="5.7" x="292.1" y="2.1" /><rect fill="black" height="7.8" stroke="none" stroke-width="0" width="7.8" x="301.1" y="1.1" /><rect fill="black" height="8.6" stroke="none" stroke-width="0" width="8.6" x="310.7" y="0.7" /><rect fill="black" height="8.9" stroke="none" stroke-width="0" width="8.9" x="320.5" y="0.5" /><rect fill="black" height="9.0" stroke="none" stroke-width="0" width="9.0" x="330.5" y="0.5" /><rect fill="black" height="8.8" stroke="none" stroke-width="0" width="8.8" x="340.6" y="0.6" /><rect fill="black" height="9.1" stroke="none" stroke-width="0" width="9.1" x="350.5" y="0.5" /><rect fill="black" height="9.3" stroke="none" stroke-width="0" width="9.3" x="360.3" y="0.3" /><rect fill="black" height="8.9" stroke="none" stroke-width="0" width="8.9" x="370.6" y="0.6" /><rect fill="black" height="9.5" stroke="none" stroke-width="0" width="9.5" x="380.2" y="0.2" /><rect fill="black" height="9.0" stroke="none" stroke-width="0" width="9.0" x="390.5" y="0.5" /><rect fill="black" height="7.2" stroke="none" stroke-width="0" width="7.2" x="401.4" y="1.4" /><rect fill="black" height="8.2" stroke="none" stroke-width="0" width="8.2" x="410.9" y="0.9" /><rect fill="black" height="6.8" stroke="none" stroke-width="0" width="6.8" x="421.6" y="1.6" /><rect fill="black" height="8.4" stroke="none" stroke-width="0" width="8.4" x="430.8" y="0.8" /><rect fill="black" height="7.6" stroke="none" stroke-width="0" width="7.6" x="441.2" y="1.2" /><rect fill="black" height="9.1" stroke="none" stroke-width="0" width="9.1" x="450.5" y="0.5" /><rect fill="black" height="8.3" stroke="none" stroke-width="0" width="8.3" x="460.8" y="0.8" /><rect fill="black" height="9.0" stroke="none" stroke-width="0" width="9.0" x="470.5" y="0.5" /><rect fill="black" height="9.4" stroke="none" stroke-width="0" width="9.4" x="480.3" y="0.3" /><rect fill="black" height="9.2" stroke="none" stroke-width="0" width="9.2" x="490.4" y="0.4" /><rect fill="black" height="6.6" stroke="none" stroke-width="0" width="6.6" x="501.7" y="1.7" /><rect fill="black" height="6.9" stroke="none" stroke-width="0" width="6.9" x="511.6" y="1.6" /><rect fill="black" height="7.5" stroke="none" stroke-width="0" width="7.5" x="521.2" y="1.2" /><rect fill="black" height="6.0" stroke="none" stroke-width="0" width="6.0" x="532.0" y="2.0" /><rect fill="black" height="5.5" stroke="none" stroke-width="0" width="5.5" x="542.2" y="2.2" /><rect fill="black" height="6.5" stroke="none" stroke-width="0" width="6.5" x="551.7" y="1.7" /><rect fill="black" height="9.2" stroke="none" stroke-width="0" width="9.2" x="560.4" y="0.4" /><rect fill="black" height="9.2" stroke="none" stroke-width="0" width="9.2" x="570.4" y="0.4" /><rect fill="black" height="6.5" stroke="none" stroke-width="0" width="6.5" x="581.7" y="1.7" /><rect fill="black" height="5.5" stroke="none" stroke-width="0" width="5.5" x="592.2" y="2.2" /><rect fill="black" height="6.0" stroke="none" stroke-width="0" width="6.0" x="602.0" y="2.0" /><rect fill="black" height="7.5" stroke="none" stroke-width="0" width="7.5" x="611.2" y="1.2" /><rect fill="black" height="6.9" stroke="none" stroke-width="0" width="6.9" x="621.6" y="1.6" /><rect fill="black" height="6.6" stroke="none" stroke-width="0" width="6.6" x="631.7" y="1.7" /><rect fill="black" height="9.2" stroke="none" stroke-width="0" width="9.2" x="640.4" y="0.4" /><rect fill="black" height="9.4" stroke="none" stroke-width="0" width="9.4" x="650.3" y="0.3" /><rect fill="black" height="9.0" stroke="none" stroke-width="0" width="9.0" x="660.5" y="0.5" /><rect fill="black" height="8.3" stroke="none" stroke-width="0" width="8.3" x="670.8" y="0.8" /><rect fill="black" height="9.1" stroke="none" stroke-width="0" width="9.1" x="680.5" y="0.5" /><rect fill="black" height="7.6" stroke="none" stroke-width="0" width="7.6" x="691.2" y="1.2" /><rect fill="black" height="8.4" stroke="none" stroke-width="0" width="8.4" x="700.8" y="0.8" /><rect fill="black" height="6.8" stroke="none" stroke-width="0" width="6.8" x="711.6" y="1.6" /><rect fill="black" height="8.2" stroke="none" stroke-width="0" width="8.2" x="720.9" y="0.9" /><rect fill="black" height="7.2" stroke="none" stroke-width="0" width="7.2" x="731.4" y="1.4" /><rect fill="black" height="9.0" stroke="none" stroke-width="0" width="9.0" x="740.5" y="0.5" /><rect fill="black" height="9.5" stroke="none" stroke-width="0" width="9.5" x="750.3" y="0.3" /><rect fill="black" height="8.9" stroke="none" stroke-width="0" width="8.9" x="760.6" y="0.6" /><rect fill="black" height="9.3" stroke="none" stroke-width="0" width="9.3" x="770.3" y="0.3" /><rect fill="black" height="9.1" stroke="none" stroke-width="0" width="9.1" x="780.5" y="0.5" /><rect fill="black" height="8.8" stroke="none" stroke-width="0" width="8.8" x="790.6" y="0.6" /><rect fill="black" height="9.0" stroke="none" stroke-width="0" width="9.0" x="800.5" y="0.5" /><rect fill="black" height="8.9" stroke="none" stroke-width="0" width="8.9" x="810.5" y="0.5" /><rect fill="black" height="8.6" stroke="none" stroke-width="0" width="8.6" x="820.7" y="0.7" /><rect fill="black" height="7.8" stroke="none" stroke-width="0" width="7.8" x="831.1" y="1.1" /><rect fill="black" height="5.7" stroke="none" stroke-width="0" width="5.7" x="842.1" y="2.1" /><rect fill="black" height="6.6" stroke="none" stroke-width="0" width="6.6" x="851.7" y="1.7" /><rect fill="black" height="9.0" stroke="none" stroke-width="0" width="9.0" x="860.5" y="0.5" /><rect fill="black" height="9.4" stroke="none" stroke-width="0" width="9.4" x="870.3" y="0.3" /><rect fill="black" height="8.4" stroke="none" stroke-width="0" width="8.4" x="880.8" y="0.8" /><rect fill="black" height="8.2" stroke="none" stroke-width="0" width="8.2" x="890.9" y="0.9" /><rect fill="black" height="8.8" stroke="none" stroke-width="0" width="8.8" x="900.6" y="0.6" /><rect fill="black" height="9.3" stroke="none" stroke-width="0" width="9.3" x="910.3" y="0.3" /><rect fill="black" height="7.1" stroke="none" stroke-width="0" width="7.1" x="921.5" y="1.5" /><rect fill="black" height="7.8" stroke="none" stroke-width="0" width="7.8" x="931.1" y="1.1" /><rect fill="black" height="6.3" stroke="none" stroke-width="0" width="6.3" x="941.8" y="1.8" /><rect fill="black" height="6.8" stroke="none" stroke-width="0" width="6.8" x="951.6" y="1.6" /><rect fill="black" height="8.2" stroke="none" stroke-width="0" width="8.2" x="960.9" y="0.9" /><rect fill="black" height="8.5" stroke="none" stroke-width="0" width="8.5" x="970.8" y="0.8" /><rect fill="black" height="9.1" stroke="none" stroke-width="0" width="9.1" x="980.4" y="0.4" /><rect fill="black" height="7.4" stroke="none" stroke-width="0" width="7.4" x="991.3" y="1.3" /><rect fill="black" height="5.3" stroke="none" stroke-width="0" width="5.3" x="1002.3" y="2.3" /><rect fill="black" height="5.3" stroke="none" stroke-width="0" width="5.3" x="1012.4" y="2.4" /><rect fill="black" height="7.5" stroke="none" stroke-width="0" width="7.5" x="1021.2" y="1.2" /><rect fill="black" height="9.4" stroke="none" stroke-width="0" width="9.4" x="1030.3" y="0.3" /><rect fill="black" height="8.7" stroke="none" stroke-width="0" width="8.7" x="1040.7" y="0.7" /><rect fill="black" height="7.7" stroke="none" stroke-width="0" width="7.7" x="1051.1" y="1.1" /><rect fill="black" height="6.1" stroke="none" stroke-width="0" width="6.1" x="1062.0" y="2.0" /><rect fill="black" height="4.7" stroke="none" stroke-width="0" width="4.7" x="1072.7" y="2.7" /><rect fill="black" height="4.4" stroke="none" stroke-width="0" width="4.4" x="1082.8" y="2.8" /><rect fill="black" height="4.6" stroke="none" stroke-width="0" width="4.6" x="1092.7" y="2.7" /><rect fill="black" height="6.1" stroke="none" stroke-width="0" width="6.1" x="1101.9" y="1.9" /><rect fill="black" height="8.7" stroke="none" stroke-width="0" width="8.7" x="1110.7" y="0.7" /><rect fill="black" height="5.9" stroke="none" stroke-width="0" width="5.9" x="1122.1" y="2.1" /></g><g /></svg>