<?xml version="1.0" encoding="utf-8" ?>
<svg baseProfile="full" height="100%" preserveAspectRatio="xMidYMid meet" version="1.1" viewBox="-40,-40,2080,100" width="100%" xmlns="http://www.w3.org/2000/svg" xmlns:ev="http://www.w3.org/2001/xml-events" xmlns:xlink="http://www.w3.org/1999/xlink"><defs><style type="text/css"><![CDATA[
        @import url(https://cdn.jsdelivr.net/npm/firacode@6.2.0/distr/fira_code.css);
        text {
            font-family: 'STIX Two', 'STIX Two Math', 'STIXMath', 'DejaVu Math TeX Glyph',
                        'DejaVu Serif', 'Cambria Math', 'Latin Modern Math', 'FiraCode',
                        'serif';
        }
    ]]></style><style type="text/css"><![CDATA[
        @import url(https://cdn.jsdelivr.net/npm/firacode@6.2.0/distr/fira_code.css);
        text {
            font-family: 'STIX Two', 'STIX Two Math', 'STIXMath', 'DejaVu Math TeX Glyph',
                        'DejaVu Serif', 'Cambria Math', 'Latin Modern Math', 'FiraCode',
                        'serif';
        }
    ]]></style></defs><g><rect fill="black" height="2.1" stroke="none" stroke-width="0" width="2.1" x="3.9" y="3.9" /><rect fill="black" height="2.9" stroke="none" stroke-width="0" width="2.9" x="13.5" y="3.5" /><rect fill="black" height="4.0" stroke="none" stroke-width="0" width="4.0" x="23.0" y="3.0" /><rect fill="black" height="5.5" stroke="none" stroke-width="0" width="5.5" x="32.2" y="2.2" /><rect fill="black" height="7.1" stroke="none" stroke-width="0" width="7.1" x="41.5" y="1.5" /><rect fill="black" height="8.0" stroke="none" stroke-width="0" width="8.0" x="51.0" y="1.0" /><rect fill="black" height="8.4" stroke="none" stroke-width="0" width="8.4" x="60.8" y="0.8" /><rect fill="black" height="8.5" stroke="none" stroke-width="0" width="8.5" x="70.7" y="0.7" /><rect fill="black" height="8.7" stroke="none" stroke-width="0" width="8.7" x="80.6" y="0.6" /><rect fill="black" height="8.8" stroke="none" stroke-width="0" width="8.8" x="90.6" y="0.6" /><rect fill="black" height="8.9" stroke="none" stroke-width="0" width="8.9" x="100.5" y="0.5" /><rect fill="black" height="8.9" stroke="none" stroke-width="0" width="8.9" x="110.6" y="0.6" /><rect fill="black" height="8.9" stroke="none" stroke-width="0" width="8.9" x="120.5" y="0.5" /><rect fill="black" height="8.8" stroke="none" stroke-width="0" width="8.8" x="130.6" y="0.6" /><rect fill="black" height="8.8" stroke="none" stroke-width="0" width="8.8" x="140.6" y="0.6" /><rect fill="black" height="8.7" stroke="none" stroke-width="0" width="8.7" x="150.6" y="0.6" /><rect fill="black" height="8.6" stroke="none" stroke-width="0" width="8.6" x="160.7" y="0.7" /><rect fill="black" height="8.5" stroke="none" stroke-width="0" width="8.5" x="170.7" y="0.7" /><rect fill="black" height="8.5" stroke="none" stroke-width="0" width="8.5" x="180.8" y="0.8" /><rect fill="black" height="8.3" stroke="none" stroke-width="0" width="8.3" x="190.9" y="0.9" /><rect fill="black" height="8.2" stroke="none" stroke-width="0" width="8.2" x="200.9" y="0.9" /><rect fill="black" height="8.0" stroke="none" stroke-width="0" width="8.0" x="211.0" y="1.0" /><rect fill="black" height="7.9" stroke="none" stroke-width="0" width="7.9" x="221.0" y="1.0" /><rect fill="black" height="7.8" stroke="none" stroke-width="0" width="7.8" x="231.1" y="1.1" /><rect fill="black" height="7.7" stroke="none" stroke-width="0" width="7.7" x="241.2" y="1.2" /><rect fill="black" height="7.5" stroke="none" stroke-width="0" width="7.5" x="251.3" y="1.3" /><rect fill="black" height="7.3" stroke="none" stroke-width="0" width="7.3" x="261.3" y="1.3" /><rect fill="black" height="7.3" stroke="none" stroke-width="0" width="7.3" x="271.4" y="1.4" /><rect fill="black" height="7.2" stroke="none" stroke-width="0" width="7.2" x="281.4" y="1.4" /><rect fill="black" height="7.2" stroke="none" stroke-width="0" width="7.2" x="291.4" y="1.4" /><rect fill="black" height="7.2" stroke="none" stroke-width="0" width="7.2" x="301.4" y="1.4" /><rect fill="black" height="7.0" stroke="none" stroke-width="0" width="7.0" x="311.5" y="1.5" /><rect fill="black" height="7.0" stroke="none" stroke-width="0" width="7.0" x="321.5" y="1.5" /><rect fill="black" height="6.8" stroke="none" stroke-width="0" width="6.8" x="331.6" y="1.6" /><rect fill="black" height="6.9" stroke="none" stroke-width="0" width="6.9" x="341.6" y="1.6" /><rect fill="black" height="6.6" stroke="none" stroke-width="0" width="6.6" x="351.7" y="1.7" /><rect fill="black" height="6.7" stroke="none" stroke-width="0" width="6.7" x="361.6" y="1.6" /><rect fill="black" height="6.6" stroke="none" stroke-width="0" width="6.6" x="371.7" y="1.7" /><rect fill="black" height="6.5" stroke="none" stroke-width="0" width="6.5" x="381.8" y="1.8" /><rect fill="black" height="6.4" stroke="none" stroke-width="0" width="6.4" x="391.8" y="1.8" /><rect fill="black" height="6.3" stroke="none" stroke-width="0" width="6.3" x="401.9" y="1.9" /><rect fill="black" height="6.4" stroke="none" stroke-width="0" width="6.4" x="411.8" y="1.8" /><rect fill="black" height="6.3" stroke="none" stroke-width="0" width="6.3" x="421.8" y="1.8" /><rect fill="black" height="6.2" stroke="none" stroke-width="0" width="6.2" x="431.9" y="1.9" /><rect fill="black" height="6.3" stroke="none" stroke-width="0" width="6.3" x="441.9" y="1.9" /><rect fill="black" height="6.2" stroke="none" stroke-width="0" width="6.2" x="451.9" y="1.9" /><rect fill="black" height="6.3" stroke="none" stroke-width="0" width="6.3" x="461.9" y="1.9" /><rect fill="black" height="6.2" stroke="none" stroke-width="0" width="6.2" x="471.9" y="1.9" /><rect fill="black" height="6.3" stroke="none" stroke-width="0" width="6.3" x="481.8" y="1.8" /><rect fill="black" height="6.2" stroke="none" stroke-width="0" width="6.2" x="491.9" y="1.9" /><rect fill="black" height="6.2" stroke="none" stroke-width="0" width="6.2" x="501.9" y="1.9" /><rect fill="black" height="6.2" stroke="none" stroke-width="0" width="6.2" x="511.9" y="1.9" /><rect fill="black" height="6.2" stroke="none" stroke-width="0" width="6.2" x="521.9" y="1.9" /><rect fill="black" height="6.2" stroke="none" stroke-width="0" width="6.2" x="531.9" y="1.9" /><rect fill="black" height="6.1" stroke="none" stroke-width="0" width="6.1" x="541.9" y="1.9" /><rect fill="black" height="5.9" stroke="none" stroke-width="0" width="5.9" x="552.0" y="2.0" /><rect fill="black" height="5.9" stroke="none" stroke-width="0" width="5.9" x="562.1" y="2.1" /><rect fill="black" height="5.9" stroke="none" stroke-width="0" width="5.9" x="572.0" y="2.0" /><rect fill="black" height="6.0" stroke="none" stroke-width="0" width="6.0" x="582.0" y="2.0" /><rect fill="black" height="5.8" stroke="none" stroke-width="0" width="5.8" x="592.1" y="2.1" /><rect fill="black" height="5.8" stroke="none" stroke-width="0" width="5.8" x="602.1" y="2.1" /><rect fill="black" height="5.7" stroke="none" stroke-width="0" width="5.7" x="612.2" y="2.2" /><rect fill="black" height="5.6" stroke="none" stroke-width="0" width="5.6" x="622.2" y="2.2" /><rect fill="black" height="5.7" stroke="none" stroke-width="0" width="5.7" x="632.2" y="2.2" /><rect fill="black" height="5.5" stroke="none" stroke-width="0" width="5.5" x="642.2" y="2.2" /><rect fill="black" height="5.4" stroke="none" stroke-width="0" width="5.4" x="652.3" y="2.3" /><rect fill="black" height="5.3" stroke="none" stroke-width="0" width="5.3" x="662.3" y="2.3" /><rect fill="black" height="5.2" stroke="none" stroke-width="0" width="5.2" x="672.4" y="2.4" /><rect fill="black" height="5.2" stroke="none" stroke-width="0" width="5.2" x="682.4" y="2.4" /><rect fill="black" height="5.1" stroke="none" stroke-width="0" width="5.1" x="692.5" y="2.5" /><rect fill="black" height="5.0" stroke="none" stroke-width="0" width="5.0" x="702.5" y="2.5" /><rect fill="black" height="4.9" stroke="none" stroke-width="0" width="4.9" x="712.5" y="2.5" /><rect fill="black" height="4.8" stroke="none" stroke-width="0" width="4.8" x="722.6" y="2.6" /><rect fill="black" height="4.7" stroke="none" stroke-width="0" width="4.7" x="732.7" y="2.7" /><rect fill="black" height="4.6" stroke="none" stroke-width="0" width="4.6" x="742.7" y="2.7" /><rect fill="black" height="4.6" stroke="none" stroke-width="0" width="4.6" x="752.7" y="2.7" /><rect fill="black" height="4.5" stroke="none" stroke-width="0" width="4.5" x="762.7" y="2.7" /><rect fill="black" height="4.7" stroke="none" stroke-width="0" width="4.7" x="772.6" y="2.6" /><rect fill="black" height="4.6" stroke="none" stroke-width="0" width="4.6" x="782.7" y="2.7" /><rect fill="black" height="4.4" stroke="none" stroke-width="0" width="4.4" x="792.8" y="2.8" /><rect fill="black" height="4.2" stroke="none" stroke-width="0" width="4.2" x="802.9" y="2.9" /><rect fill="black" height="4.2" stroke="none" stroke-width="0" width="4.2" x="812.9" y="2.9" /><rect fill="black" height="4.4" stroke="none" stroke-width="0" width="4.4" x="822.8" y="2.8" /><rect fill="black" height="4.2" stroke="none" stroke-width="0" width="4.2" x="832.9" y="2.9" /><rect fill="black" height="4.1" stroke="none" stroke-width="0" width="4.1" x="842.9" y="2.9" /><rect fill="black" height="4.2" stroke="none" stroke-width="0" width="4.2" x="852.9" y="2.9" /><rect fill="black" height="4.1" stroke="none" stroke-width="0" width="4.1" x="863.0" y="3.0" /><rect fill="black" height="3.9" stroke="none" stroke-width="0" width="3.9" x="873.0" y="3.0" /><rect fill="black" height="4.0" stroke="none" stroke-width="0" width="4.0" x="883.0" y="3.0" /><rect fill="black" height="4.2" stroke="none" stroke-width="0" width="4.2" x="892.9" y="2.9" /><rect fill="black" height="4.1" stroke="none" stroke-width="0" width="4.1" x="903.0" y="3.0" /><rect fill="black" height="4.0" stroke="none" stroke-width="0" width="4.0" x="913.0" y="3.0" /><rect fill="black" height="4.1" stroke="none" stroke-width="0" width="4.1" x="922.9" y="2.9" /><rect fill="black" height="3.9" stroke="none" stroke-width="0" width="3.9" x="933.0" y="3.0" /><rect fill="black" height="4.1" stroke="none" stroke-width="0" width="4.1" x="942.9" y="2.9" /><rect fill="black" height="4.1" stroke="none" stroke-width="0" width="4.1" x="953.0" y="3.0" /><rect fill="black" height="4.1" stroke="none" stroke-width="0" width="4.1" x="963.0" y="3.0" /><rect fill="black" height="3.9" stroke="none" stroke-width="0" width="3.9" x="973.1" y="3.1" /><rect fill="black" height="3.9" stroke="none" stroke-width="0" width="3.9" x="983.0" y="3.0" /><rect fill="black" height="3.8" stroke="none" stroke-width="0" width="3.8" x="993.1" y="3.1" /><rect fill="black" height="3.8" stroke="none" stroke-width="0" width="3.8" x="1003.1" y="3.1" /><rect fill="black" height="4.1" stroke="none" stroke-width="0" width="4.1" x="1013.0" y="3.0" /><rect fill="black" height="4.1" stroke="none" stroke-width="0" width="4.1" x="1022.9" y="2.9" /><rect fill="black" height="4.1" stroke="none" stroke-width="0" width="4.1" x="1032.9" y="2.9" /><rect fill="black" height="4.3" stroke="none" stroke-width="0" width="4.3" x="1042.8" y="2.8" /><rect fill="black" height="4.5" stroke="none" stroke-width="0" width="4.5" x="1052.8" y="2.8" /><rect fill="black" height="4.1" stroke="none" stroke-width="0" width="4.1" x="1063.0" y="3.0" /><rect fill="black" height="4.4" stroke="none" stroke-width="0" width="4.4" x="1072.8" y="2.8" /><rect fill="black" height="4.4" stroke="none" stroke-width="0" width="4.4" x="1082.8" y="2.8" /><rect fill="black" height="4.1" stroke="none" stroke-width="0" width="4.1" x="1093.0" y="3.0" /><rect fill="black" height="4.3" stroke="none" stroke-width="0" width="4.3" x="1102.8" y="2.8" /><rect fill="black" height="4.7" stroke="none" stroke-width="0" width="4.7" x="1112.7" y="2.7" /><rect fill="black" height="4.4" stroke="none" stroke-width="0" width="4.4" x="1122.8" y="2.8" /><rect fill="black" height="4.6" stroke="none" stroke-width="0" width="4.6" x="1132.7" y="2.7" /><rect fill="black" height="4.7" stroke="none" stroke-width="0" width="4.7" x="1142.7" y="2.7" /><rect fill="black" height="4.6" stroke="none" stroke-width="0" width="4.6" x="1152.7" y="2.7" /><rect fill="black" height="4.7" stroke="none" stroke-width="0" width="4.7" x="1162.6" y="2.6" /><rect fill="black" height="4.8" stroke="none" stroke-width="0" width="4.8" x="1172.6" y="2.6" /><rect fill="black" height="4.8" stroke="none" stroke-width="0" width="4.8" x="1182.6" y="2.6" /><rect fill="black" height="4.8" stroke="none" stroke-width="0" width="4.8" x="1192.6" y="2.6" /><rect fill="black" height="4.8" stroke="none" stroke-width="0" width="4.8" x="1202.6" y="2.6" /><rect fill="black" height="4.7" stroke="none" stroke-width="0" width="4.7" x="1212.7" y="2.7" /><rect fill="black" height="4.6" stroke="none" stroke-width="0" width="4.6" x="1222.7" y="2.7" /><rect fill="black" height="4.6" stroke="none" stroke-width="0" width="4.6" x="1232.7" y="2.7" /><rect fill="black" height="4.8" stroke="none" stroke-width="0" width="4.8" x="1242.6" y="2.6" /><rect fill="black" height="4.8" stroke="none" stroke-width="0" width="4.8" x="1252.6" y="2.6" /><rect fill="black" height="5.1" stroke="none" stroke-width="0" width="5.1" x="1262.5" y="2.5" /><rect fill="black" height="4.8" stroke="none" stroke-width="0" width="4.8" x="1272.6" y="2.6" /><rect fill="black" height="4.8" stroke="none" stroke-width="0" width="4.8" x="1282.6" y="2.6" /><rect fill="black" height="4.7" stroke="none" stroke-width="0" width="4.7" x="1292.7" y="2.7" /><rect fill="black" height="4.3" stroke="none" stroke-width="0" width="4.3" x="1302.8" y="2.8" /><rect fill="black" height="4.5" stroke="none" stroke-width="0" width="4.5" x="1312.8" y="2.8" /><rect fill="black" height="4.5" stroke="none" stroke-width="0" width="4.5" x="1322.7" y="2.7" /><rect fill="black" height="4.3" stroke="none" stroke-width="0" width="4.3" x="1332.8" y="2.8" /><rect fill="black" height="4.2" stroke="none" stroke-width="0" width="4.2" x="1342.9" y="2.9" /><rect fill="black" height="4.6" stroke="none" stroke-width="0" width="4.6" x="1352.7" y="2.7" /><rect fill="black" height="4.4" stroke="none" stroke-width="0" width="4.4" x="1362.8" y="2.8" /><rect fill="black" height="4.3" stroke="none" stroke-width="0" width="4.3" x="1372.9" y="2.9" /><rect fill="black" height="4.1" stroke="none" stroke-width="0" width="4.1" x="1382.9" y="2.9" /><rect fill="black" height="4.2" stroke="none" stroke-width="0" width="4.2" x="1392.9" y="2.9" /><rect fill="black" height="4.0" stroke="none" stroke-width="0" width="4.0" x="1403.0" y="3.0" /><rect fill="black" height="4.2" stroke="none" stroke-width="0" width="4.2" x="1412.9" y="2.9" /><rect fill="black" height="4.0" stroke="none" stroke-width="0" width="4.0" x="1423.0" y="3.0" /><rect fill="black" height="4.2" stroke="none" stroke-width="0" width="4.2" x="1432.9" y="2.9" /><rect fill="black" height="3.7" stroke="none" stroke-width="0" width="3.7" x="1443.2" y="3.2" /><rect fill="black" height="4.3" stroke="none" stroke-width="0" width="4.3" x="1452.9" y="2.9" /><rect fill="black" height="4.1" stroke="none" stroke-width="0" width="4.1" x="1462.9" y="2.9" /><rect fill="black" height="4.4" stroke="none" stroke-width="0" width="4.4" x="1472.8" y="2.8" /><rect fill="black" height="4.3" stroke="none" stroke-width="0" width="4.3" x="1482.9" y="2.9" /><rect fill="black" height="4.3" stroke="none" stroke-width="0" width="4.3" x="1492.9" y="2.9" /><rect fill="black" height="4.1" stroke="none" stroke-width="0" width="4.1" x="1503.0" y="3.0" /><rect fill="black" height="4.0" stroke="none" stroke-width="0" width="4.0" x="1513.0" y="3.0" /><rect fill="black" height="4.3" stroke="none" stroke-width="0" width="4.3" x="1522.8" y="2.8" /><rect fill="black" height="3.7" stroke="none" stroke-width="0" width="3.7" x="1533.2" y="3.2" /><rect fill="black" height="3.9" stroke="none" stroke-width="0" width="3.9" x="1543.1" y="3.1" /><rect fill="black" height="3.8" stroke="none" stroke-width="0" width="3.8" x="1553.1" y="3.1" /><rect fill="black" height="3.9" stroke="none" stroke-width="0" width="3.9" x="1563.1" y="3.1" /><rect fill="black" height="3.8" stroke="none" stroke-width="0" width="3.8" x="1573.1" y="3.1" /><rect fill="black" height="4.0" stroke="none" stroke-width="0" width="4.0" x="1583.0" y="3.0" /><rect fill="black" height="3.6" stroke="none" stroke-width="0" width="3.6" x="1593.2" y="3.2" /><rect fill="black" height="3.7" stroke="none" stroke-width="0" width="3.7" x="1603.1" y="3.1" /><rect fill="black" height="3.7" stroke="none" stroke-width="0" width="3.7" x="1613.2" y="3.2" /><rect fill="black" height="4.3" stroke="none" stroke-width="0" width="4.3" x="1622.9" y="2.9" /><rect fill="black" height="4.3" stroke="none" stroke-width="0" width="4.3" x="1632.9" y="2.9" /><rect fill="black" height="4.1" stroke="none" stroke-width="0" width="4.1" x="1642.9" y="2.9" /><rect fill="black" height="4.0" stroke="none" stroke-width="0" width="4.0" x="1653.0" y="3.0" /><rect fill="black" height="3.6" stroke="none" stroke-width="0" width="3.6" x="1663.2" y="3.2" /><rect fill="black" height="3.7" stroke="none" stroke-width="0" width="3.7" x="1673.2" y="3.2" /><rect fill="black" height="3.8" stroke="none" stroke-width="0" width="3.8" x="1683.1" y="3.1" /><rect fill="black" height="3.6" stroke="none" stroke-width="0" width="3.6" x="1693.2" y="3.2" /><rect fill="black" height="4.2" stroke="none" stroke-width="0" width="4.2" x="1702.9" y="2.9" /><rect fill="black" height="3.9" stroke="none" stroke-width="0" width="3.9" x="1713.0" y="3.0" /><rect fill="black" height="3.8" stroke="none" stroke-width="0" width="3.8" x="1723.1" y="3.1" /><rect fill="black" height="3.9" stroke="none" stroke-width="0" width="3.9" x="1733.1" y="3.1" /><rect fill="black" height="4.1" stroke="none" stroke-width="0" width="4.1" x="1743.0" y="3.0" /><rect fill="black" height="4.1" stroke="none" stroke-width="0" width="4.1" x="1752.9" y="2.9" /><rect fill="black" height="4.3" stroke="none" stroke-width="0" width="4.3" x="1762.8" y="2.8" /><rect fill="black" height="4.2" stroke="none" stroke-width="0" width="4.2" x="1772.9" y="2.9" /><rect fill="black" height="4.6" stroke="none" stroke-width="0" width="4.6" x="1782.7" y="2.7" /><rect fill="black" height="4.1" stroke="none" stroke-width="0" width="4.1" x="1793.0" y="3.0" /><rect fill="black" height="4.1" stroke="none" stroke-width="0" width="4.1" x="1803.0" y="3.0" /><rect fill="black" height="3.8" stroke="none" stroke-width="0" width="3.8" x="1813.1" y="3.1" /><rect fill="black" height="4.4" stroke="none" stroke-width="0" width="4.4" x="1822.8" y="2.8" /><rect fill="black" height="4.1" stroke="none" stroke-width="0" width="4.1" x="1833.0" y="3.0" /><rect fill="black" height="4.0" stroke="none" stroke-width="0" width="4.0" x="1843.0" y="3.0" /><rect fill="black" height="4.1" stroke="none" stroke-width="0" width="4.1" x="1853.0" y="3.0" /><rect fill="black" height="4.3" stroke="none" stroke-width="0" width="4.3" x="1862.8" y="2.8" /><rect fill="black" height="4.0" stroke="none" stroke-width="0" width="4.0" x="1873.0" y="3.0" /><rect fill="black" height="4.1" stroke="none" stroke-width="0" width="4.1" x="1882.9" y="2.9" /><rect fill="black" height="4.4" stroke="none" stroke-width="0" width="4.4" x="1892.8" y="2.8" /><rect fill="black" height="4.2" stroke="none" stroke-width="0" width="4.2" x="1902.9" y="2.9" /><rect fill="black" height="4.4" stroke="none" stroke-width="0" width="4.4" x="1912.8" y="2.8" /><rect fill="black" height="4.3" stroke="none" stroke-width="0" width="4.3" x="1922.9" y="2.9" /><rect fill="black" height="4.4" stroke="none" stroke-width="0" width="4.4" x="1932.8" y="2.8" /><rect fill="black" height="4.2" stroke="none" stroke-width="0" width="4.2" x="1942.9" y="2.9" /><rect fill="black" height="4.2" stroke="none" stroke-width="0" width="4.2" x="1952.9" y="2.9" /><rect fill="black" height="4.6" stroke="none" stroke-width="0" width="4.6" x="1962.7" y="2.7" /><rect fill="black" height="4.4" stroke="none" stroke-width="0" width="4.4" x="1972.8" y="2.8" /><rect fill="black" height="4.4" stroke="none" stroke-width="0" width="4.4" x="1982.8" y="2.8" /><rect fill="black" height="4.7" stroke="none" stroke-width="0" width="4.7" x="1992.6" y="2.6" /><rect fill="black" height="2.1" stroke="none" stroke-width="0" width="2.1" x="3.9" y="13.9" /><rect fill="black" height="2.1" stroke="none" stroke-width="0" width="2.1" x="13.9" y="13.9" /><rect fill="black" height="2.1" stroke="none" stroke-width="0" width="2.1" x="23.9" y="13.9" /><rect fill="black" height="2.1" stroke="none" stroke-width="0" width="2.1" x="33.9" y="13.9" /><rect fill="black" height="2.1" stroke="none" stroke-width="0" width="2.1" x="43.9" y="13.9" /><rect fill="black" height="4.2" stroke="none" stroke-width="0" width="4.2" x="52.9" y="12.9" /><rect fill="black" height="7.4" stroke="none" stroke-width="0" width="7.4" x="61.3" y="11.3" /><rect fill="black" height="7.4" stroke="none" stroke-width="0" width="7.4" x="71.3" y="11.3" /><rect fill="black" height="7.4" stroke="none" stroke-width="0" width="7.4" x="81.3" y="11.3" /><rect fill="black" height="7.4" stroke="none" stroke-width="0" width="7.4" x="91.3" y="11.3" /><rect fill="black" height="8.5" stroke="none" stroke-width="0" width="8.5" x="100.8" y="10.8" /><rect fill="black" height="9.5" stroke="none" stroke-width="0" width="9.5" x="110.2" y="10.2" /><rect fill="black" height="9.5" stroke="none" stroke-width="0" width="9.5" x="120.2" y="10.2" /><rect fill="black" height="8.5" stroke="none" stroke-width="0" width="8.5" x="130.8" y="10.8" /><rect fill="black" height="9.5" stroke="none" stroke-width="0" width="9.5" x="140.2" y="10.2" /><rect fill="black" height="7.4" stroke="none" stroke-width="0" width="7.4" x="151.3" y="11.3" /><rect fill="black" height="7.4" stroke="none" stroke-width="0" width="7.4" x="161.3" y="11.3" /><rect fill="black" height="7.4" stroke="none" stroke-width="0" width="7.4" x="171.3" y="11.3" /><rect fill="black" height="7.4" stroke="none" stroke-width="0" width="7.4" x="181.3" y="11.3" /><rect fill="black" height="7.4" stroke="none" stroke-width="0" width="7.4" x="191.3" y="11.3" /><rect fill="black" height="8.5" stroke="none" stroke-width="0" width="8.5" x="200.8" y="10.8" /><rect fill="black" height="8.5" stroke="none" stroke-width="0" width="8.5" x="210.8" y="10.8" /><rect fill="black" height="7.4" stroke="none" stroke-width="0" width="7.4" x="221.3" y="11.3" /><rect fill="black" height="7.4" stroke="none" stroke-width="0" width="7.4" x="231.3" y="11.3" /><rect fill="black" height="7.4" stroke="none" stroke-width="0" width="7.4" x="241.3" y="11.3" /><rect fill="black" height="7.4" stroke="none" stroke-width="0" width="7.4" x="251.3" y="11.3" /><rect fill="black" height="7.4" stroke="none" stroke-width="0" width="7.4" x="261.3" y="11.3" /><rect fill="black" height="7.4" stroke="none" stroke-width="0" width="7.4" x="271.3" y="11.3" /><rect fill="black" height="7.4" stroke="none" stroke-width="0" width="7.4" x="281.3" y="11.3" /><rect fill="black" height="7.4" stroke="none" stroke-width="0" width="7.4" x="291.3" y="11.3" /><rect fill="black" height="7.4" stroke="none" stroke-width="0" width="7.4" x="301.3" y="11.3" /><rect fill="black" height="7.4" stroke="none" stroke-width="0" width="7.4" x="311.3" y="11.3" /><rect fill="black" height="7.4" stroke="none" stroke-width="0" width="7.4" x="321.3" y="11.3" /><rect fill="black" height="7.4" stroke="none" stroke-width="0" width="7.4" x="331.3" y="11.3" /><rect fill="black" height="7.4" stroke="none" stroke-width="0" width="7.4" x="341.3" y="11.3" /><rect fill="black" height="7.4" stroke="none" stroke-width="0" width="7.4" x="351.3" y="11.3" /><rect fill="black" height="8.5" stroke="none" stroke-width="0" width="8.5" x="360.8" y="10.8" /><rect fill="black" height="8.5" stroke="none" stroke-width="0" width="8.5" x="370.8" y="10.8" /><rect fill="black" height="8.5" stroke="none" stroke-width="0" width="8.5" x="380.8" y="10.8" /><rect fill="black" height="8.5" stroke="none" stroke-width="0" width="8.5" x="390.8" y="10.8" /><rect fill="black" height="7.4" stroke="none" stroke-width="0" width="7.4" x="401.3" y="11.3" /><rect fill="black" height="8.5" stroke="none" stroke-width="0" width="8.5" x="410.8" y="10.8" /><rect fill="black" height="7.4" stroke="none" stroke-width="0" width="7.4" x="421.3" y="11.3" /><rect fill="black" height="8.5" stroke="none" stroke-width="0" width="8.5" x="430.8" y="10.8" /><rect fill="black" height="8.5" stroke="none" stroke-width="0" width="8.5" x="440.8" y="10.8" /><rect fill="black" height="8.5" stroke="none" stroke-width="0" width="8.5" x="450.8" y="10.8" /><rect fill="black" height="8.5" stroke="none" stroke-width="0" width="8.5" x="460.8" y="10.8" /><rect fill="black" height="7.4" stroke="none" stroke-width="0" width="7.4" x="471.3" y="11.3" /><rect fill="black" height="8.5" stroke="none" stroke-width="0" width="8.5" x="480.8" y="10.8" /><rect fill="black" height="8.5" stroke="none" stroke-width="0" width="8.5" x="490.8" y="10.8" /><rect fill="black" height="9.5" stroke="none" stroke-width="0" width="9.5" x="500.2" y="10.2" /><rect fill="black" height="9.5" stroke="none" stroke-width="0" width="9.5" x="510.2" y="10.2" /><rect fill="black" height="8.5" stroke="none" stroke-width="0" width="8.5" x="520.8" y="10.8" /><rect fill="black" height="7.4" stroke="none" stroke-width="0" width="7.4" x="531.3" y="11.3" /><rect fill="black" height="7.4" stroke="none" stroke-width="0" width="7.4" x="541.3" y="11.3" /><rect fill="black" height="4.2" stroke="none" stroke-width="0" width="4.2" x="552.9" y="12.9" /><rect fill="black" height="4.2" stroke="none" stroke-width="0" width="4.2" x="562.9" y="12.9" /><rect fill="black" height="6.0" stroke="none" stroke-width="0" width="6.0" x="572.0" y="12.0" /><rect fill="black" height="7.4" stroke="none" stroke-width="0" width="7.4" x="581.3" y="11.3" /><rect fill="black" height="6.0" stroke="none" stroke-width="0" width="6.0" x="592.0" y="12.0" /><rect fill="black" height="6.0" stroke="none" stroke-width="0" width="6.0" x="602.0" y="12.0" /><rect fill="black" height="6.0" stroke="none" stroke-width="0" width="6.0" x="612.0" y="12.0" /><rect fill="black" height="6.0" stroke="none" stroke-width="0" width="6.0" x="622.0" y="12.0" /><rect fill="black" height="6.0" stroke="none" stroke-width="0" width="6.0" x="632.0" y="12.0" /><rect fill="black" height="6.0" stroke="none" stroke-width="0" width="6.0" x="642.0" y="12.0" /><rect fill="black" height="6.0" stroke="none" stroke-width="0" width="6.0" x="652.0" y="12.0" /><rect fill="black" height="6.0" stroke="none" stroke-width="0" width="6.0" x="662.0" y="12.0" /><rect fill="black" height="6.0" stroke="none" stroke-width="0" width="6.0" x="672.0" y="12.0" /><rect fill="black" height="6.0" stroke="none" stroke-width="0" width="6.0" x="682.0" y="12.0" /><rect fill="black" height="6.0" stroke="none" stroke-width="0" width="6.0" x="692.0" y="12.0" /><rect fill="black" height="6.0" stroke="none" stroke-width="0" width="6.0" x="702.0" y="12.0" /><rect fill="black" height="6.0" stroke="none" stroke-width="0" width="6.0" x="712.0" y="12.0" /><rect fill="black" height="6.0" stroke="none" stroke-width="0" width="6.0" x="722.0" y="12.0" /><rect fill="black" height="2.1" stroke="none" stroke-width="0" width="2.1" x="733.9" y="13.9" /><rect fill="black" height="4.2" stroke="none" stroke-width="0" width="4.2" x="742.9" y="12.9" /><rect fill="black" height="2.1" stroke="none" stroke-width="0" width="2.1" x="753.9" y="13.9" /><rect fill="black" height="2.1" stroke="none" stroke-width="0" width="2.1" x="763.9" y="13.9" /><rect fill="black" height="2.1" stroke="none" stroke-width="0" width="2.1" x="773.9" y="13.9" /><rect fill="black" height="2.1" stroke="none" stroke-width="0" width="2.1" x="783.9" y="13.9" /><rect fill="black" height="2.1" stroke="none" stroke-width="0" width="2.1" x="793.9" y="13.9" /><rect fill="black" height="2.1" stroke="none" stroke-width="0" width="2.1" x="803.9" y="13.9" /><rect fill="black" height="2.1" stroke="none" stroke-width="0" width="2.1" x="813.9" y="13.9" /><rect fill="black" height="2.1" stroke="none" stroke-width="0" width="2.1" x="823.9" y="13.9" /><rect fill="black" height="2.1" stroke="none" stroke-width="0" width="2.1" x="833.9" y="13.9" /><rect fill="black" height="2.1" stroke="none" stroke-width="0" width="2.1" x="843.9" y="13.9" /><rect fill="black" height="2.1" stroke="none" stroke-width="0" width="2.1" x="853.9" y="13.9" /><rect fill="black" height="2.1" stroke="none" stroke-width="0" width="2.1" x="863.9" y="13.9" /><rect fill="black" height="2.1" stroke="none" stroke-width="0" width="2.1" x="873.9" y="13.9" /><rect fill="black" height="2.1" stroke="none" stroke-width="0" width="2.1" x="883.9" y="13.9" /><rect fill="black" height="2.1" stroke="none" stroke-width="0" width="2.1" x="893.9" y="13.9" /><rect fill="black" height="2.1" stroke="none" stroke-width="0" width="2.1" x="903.9" y="13.9" /><rect fill="black" height="2.1" stroke="none" stroke-width="0" width="2.1" x="913.9" y="13.9" /><rect fill="black" height="2.1" stroke="none" stroke-width="0" width="2.1" x="923.9" y="13.9" /><rect fill="black" height="2.1" stroke="none" stroke-width="0" width="2.1" x="933.9" y="13.9" /><rect fill="black" height="2.1" stroke="none" stroke-width="0" width="2.1" x="943.9" y="13.9" /><rect fill="black" height="2.1" stroke="none" stroke-width="0" width="2.1" x="953.9" y="13.9" /><rect fill="black" height="4.2" stroke="none" stroke-width="0" width="4.2" x="962.9" y="12.9" /><rect fill="black" height="2.1" stroke="none" stroke-width="0" width="2.1" x="973.9" y="13.9" /><rect fill="black" height="2.1" stroke="none" stroke-width="0" width="2.1" x="983.9" y="13.9" /><rect fill="black" height="2.1" stroke="none" stroke-width="0" width="2.1" x="993.9" y="13.9" /><rect fill="black" height="2.1" stroke="none" stroke-width="0" width="2.1" x="1003.9" y="13.9" /><rect fill="black" height="2.1" stroke="none" stroke-width="0" width="2.1" x="1013.9" y="13.9" /><rect fill="black" height="4.2" stroke="none" stroke-width="0" width="4.2" x="1022.9" y="12.9" /><rect fill="black" height="2.1" stroke="none" stroke-width="0" width="2.1" x="1033.9" y="13.9" /><rect fill="black" height="4.2" stroke="none" stroke-width="0" width="4.2" x="1042.9" y="12.9" /><rect fill="black" height="4.2" stroke="none" stroke-width="0" width="4.2" x="1052.9" y="12.9" /><rect fill="black" height="4.2" stroke="none" stroke-width="0" width="4.2" x="1062.9" y="12.9" /><rect fill="black" height="6.0" stroke="none" stroke-width="0" width="6.0" x="1072.0" y="12.0" /><rect fill="black" height="6.0" stroke="none" stroke-width="0" width="6.0" x="1082.0" y="12.0" /><rect fill="black" height="4.2" stroke="none" stroke-width="0" width="4.2" x="1092.9" y="12.9" /><rect fill="black" height="6.0" stroke="none" stroke-width="0" width="6.0" x="1102.0" y="12.0" /><rect fill="black" height="7.4" stroke="none" stroke-width="0" width="7.4" x="1111.3" y="11.3" /><rect fill="black" height="6.0" stroke="none" stroke-width="0" width="6.0" x="1122.0" y="12.0" /><rect fill="black" height="7.4" stroke="none" stroke-width="0" width="7.4" x="1131.3" y="11.3" /><rect fill="black" height="7.4" stroke="none" stroke-width="0" width="7.4" x="1141.3" y="11.3" /><rect fill="black" height="7.4" stroke="none" stroke-width="0" width="7.4" x="1151.3" y="11.3" /><rect fill="black" height="6.0" stroke="none" stroke-width="0" width="6.0" x="1162.0" y="12.0" /><rect fill="black" height="6.0" stroke="none" stroke-width="0" width="6.0" x="1172.0" y="12.0" /><rect fill="black" height="7.4" stroke="none" stroke-width="0" width="7.4" x="1181.3" y="11.3" /><rect fill="black" height="7.4" stroke="none" stroke-width="0" width="7.4" x="1191.3" y="11.3" /><rect fill="black" height="6.0" stroke="none" stroke-width="0" width="6.0" x="1202.0" y="12.0" /><rect fill="black" height="6.0" stroke="none" stroke-width="0" width="6.0" x="1212.0" y="12.0" /><rect fill="black" height="6.0" stroke="none" stroke-width="0" width="6.0" x="1222.0" y="12.0" /><rect fill="black" height="6.0" stroke="none" stroke-width="0" width="6.0" x="1232.0" y="12.0" /><rect fill="black" height="6.0" stroke="none" stroke-width="0" width="6.0" x="1242.0" y="12.0" /><rect fill="black" height="6.0" stroke="none" stroke-width="0" width="6.0" x="1252.0" y="12.0" /><rect fill="black" height="7.4" stroke="none" stroke-width="0" width="7.4" x="1261.3" y="11.3" /><rect fill="black" height="6.0" stroke="none" stroke-width="0" width="6.0" x="1272.0" y="12.0" /><rect fill="black" height="7.4" stroke="none" stroke-width="0" width="7.4" x="1281.3" y="11.3" /><rect fill="black" height="6.0" stroke="none" stroke-width="0" width="6.0" x="1292.0" y="12.0" /><rect fill="black" height="6.0" stroke="none" stroke-width="0" width="6.0" x="1302.0" y="12.0" /><rect fill="black" height="6.0" stroke="none" stroke-width="0" width="6.0" x="1312.0" y="12.0" /><rect fill="black" height="6.0" stroke="none" stroke-width="0" width="6.0" x="1322.0" y="12.0" /><rect fill="black" height="6.0" stroke="none" stroke-width="0" width="6.0" x="1332.0" y="12.0" /><rect fill="black" height="4.2" stroke="none" stroke-width="0" width="4.2" x="1342.9" y="12.9" /><rect fill="black" height="6.0" stroke="none" stroke-width="0" width="6.0" x="1352.0" y="12.0" /><rect fill="black" height="6.0" stroke="none" stroke-width="0" width="6.0" x="1362.0" y="12.0" /><rect fill="black" height="6.0" stroke="none" stroke-width="0" width="6.0" x="1372.0" y="12.0" /><rect fill="black" height="6.0" stroke="none" stroke-width="0" width="6.0" x="1382.0" y="12.0" /><rect fill="black" height="6.0" stroke="none" stroke-width="0" width="6.0" x="1392.0" y="12.0" /><rect fill="black" height="6.0" stroke="none" stroke-width="0" width="6.0" x="1402.0" y="12.0" /><rect fill="black" height="6.0" stroke="none" stroke-width="0" width="6.0" x="1412.0" y="12.0" /><rect fill="black" height="6.0" stroke="none" stroke-width="0" width="6.0" x="1422.0" y="12.0" /><rect fill="black" height="6.0" stroke="none" stroke-width="0" width="6.0" x="1432.0" y="12.0" /><rect fill="black" height="2.1" stroke="none" stroke-width="0" width="2.1" x="1443.9" y="13.9" /><rect fill="black" height="4.2" stroke="none" stroke-width="0" width="4.2" x="1452.9" y="12.9" /><rect fill="black" height="6.0" stroke="none" stroke-width="0" width="6.0" x="1462.0" y="12.0" /><rect fill="black" height="6.0" stroke="none" stroke-width="0" width="6.0" x="1472.0" y="12.0" /><rect fill="black" height="4.2" stroke="none" stroke-width="0" width="4.2" x="1482.9" y="12.9" /><rect fill="black" height="4.2" stroke="none" stroke-width="0" width="4.2" x="1492.9" y="12.9" /><rect fill="black" height="2.1" stroke="none" stroke-width="0" width="2.1" x="1503.9" y="13.9" /><rect fill="black" height="4.2" stroke="none" stroke-width="0" width="4.2" x="1512.9" y="12.9" /><rect fill="black" height="2.1" stroke="none" stroke-width="0" width="2.1" x="1523.9" y="13.9" /><rect fill="black" height="2.1" stroke="none" stroke-width="0" width="2.1" x="1533.9" y="13.9" /><rect fill="black" height="2.1" stroke="none" stroke-width="0" width="2.1" x="1543.9" y="13.9" /><rect fill="black" height="2.1" stroke="none" stroke-width="0" width="2.1" x="1553.9" y="13.9" /><rect fill="black" height="2.1" stroke="none" stroke-width="0" width="2.1" x="1563.9" y="13.9" /><rect fill="black" height="2.1" stroke="none" stroke-width="0" width="2.1" x="1573.9" y="13.9" /><rect fill="black" height="2.1" stroke="none" stroke-width="0" width="2.1" x="1583.9" y="13.9" /><rect fill="black" height="2.1" stroke="none" stroke-width="0" width="2.1" x="1593.9" y="13.9" /><rect fill="black" height="2.1" stroke="none" stroke-width="0" width="2.1" x="1603.9" y="13.9" /><rect fill="black" height="2.1" stroke="none" stroke-width="0" width="2.1" x="1613.9" y="13.9" /><rect fill="black" height="2.1" stroke="none" stroke-width="0" width="2.1" x="1623.9" y="13.9" /><rect fill="black" height="2.1" stroke="none" stroke-width="0" width="2.1" x="1633.9" y="13.9" /><rect fill="black" height="2.1" stroke="none" stroke-width="0" width="2.1" x="1643.9" y="13.9" /><rect fill="black" height="2.1" stroke="none" stroke-width="0" width="2.1" x="1653.9" y="13.9" /><rect fill="black" height="2.1" stroke="none" stroke-width="0" width="2.1" x="1663.9" y="13.9" /><rect fill="black" height="2.1" stroke="none" stroke-width="0" width="2.1" x="1673.9" y="13.9" /><rect fill="black" height="2.1" stroke="none" stroke-width="0" width="2.1" x="1683.9" y="13.9" /><rect fill="black" height="2.1" stroke="none" stroke-width="0" width="2.1" x="1693.9" y="13.9" /><rect fill="black" height="2.1" stroke="none" stroke-width="0" width="2.1" x="1703.9" y="13.9" /><rect fill="black" height="2.1" stroke="none" stroke-width="0" width="2.1" x="1713.9" y="13.9" /><rect fill="black" height="2.1" stroke="none" stroke-width="0" width="2.1" x="1723.9" y="13.9" /><rect fill="black" height="2.1" stroke="none" stroke-width="0" width="2.1" x="1733.9" y="13.9" /><rect fill="black" height="2.1" stroke="none" stroke-width="0" width="2.1" x="1743.9" y="13.9" /><rect fill="black" height="2.1" stroke="none" stroke-width="0" width="2.1" x="1753.9" y="13.9" /><rect fill="black" height="2.1" stroke="none" stroke-width="0" width="2.1" x="1763.9" y="13.9" /><rect fill="black" height="2.1" stroke="none" stroke-width="0" width="2.1" x="1773.9" y="13.9" /><rect fill="black" height="6.0" stroke="none" stroke-width="0" width="6.0" x="1782.0" y="12.0" /><rect fill="black" height="2.1" stroke="none" stroke-width="0" width="2.1" x="1793.9" y="13.9" /><rect fill="black" height="2.1" stroke="none" stroke-width="0" width="2.1" x="1803.9" y="13.9" /><rect fill="black" height="2.1" stroke="none" stroke-width="0" width="2.1" x="1813.9" y="13.9" /><rect fill="black" height="2.1" stroke="none" stroke-width="0" width="2.1" x="1823.9" y="13.9" /><rect fill="black" height="2.1" stroke="none" stroke-width="0" width="2.1" x="1833.9" y="13.9" /><rect fill="black" height="2.1" stroke="none" stroke-width="0" width="2.1" x="1843.9" y="13.9" /><rect fill="black" height="2.1" stroke="none" stroke-width="0" width="2.1" x="1853.9" y="13.9" /><rect fill="black" height="2.1" stroke="none" stroke-width="0" width="2.1" x="1863.9" y="13.9" /><rect fill="black" height="2.1" stroke="none" stroke-width="0" width="2.1" x="1873.9" y="13.9" /><rect fill="black" height="2.1" stroke="none" stroke-width="0" width="2.1" x="1883.9" y="13.9" /><rect fill="black" height="4.2" stroke="none" stroke-width="0" width="4.2" x="1892.9" y="12.9" /><rect fill="black" height="4.2" stroke="none" stroke-width="0" width="4.2" x="1902.9" y="12.9" /><rect fill="black" height="4.2" stroke="none" stroke-width="0" width="4.2" x="1912.9" y="12.9" /><rect fill="black" height="4.2" stroke="none" stroke-width="0" width="4.2" x="1922.9" y="12.9" /><rect fill="black" height="4.2" stroke="none" stroke-width="0" width="4.2" x="1932.9" y="12.9" /><rect fill="black" height="2.1" stroke="none" stroke-width="0" width="2.1" x="1943.9" y="13.9" /><rect fill="black" height="2.1" stroke="none" stroke-width="0" width="2.1" x="1953.9" y="13.9" /><rect fill="black" height="6.0" stroke="none" stroke-width="0" width="6.0" x="1962.0" y="12.0" /><rect fill="black" height="4.2" stroke="none" stroke-width="0" width="4.2" x="1972.9" y="12.9" /><rect fill="black" height="2.1" stroke="none" stroke-width="0" width="2.1" x="1983.9" y="13.9" /><rect fill="black" height="6.0" stroke="none" stroke-width="0" width="6.0" x="1992.0" y="12.0" /></g><g><text font-size="24px" text-anchor="middle" x="1000.0" y="-22.0">Time</text><text font-size="24px" text-anchor="middle" transform="rotate(-90, -22.0, 10.0)" x="-22.0" y="10.0">Frequency</text></g></svg>