<?xml version="1.0" encoding="utf-8" ?>
<svg baseProfile="full" height="100%" preserveAspectRatio="xMidYMid meet" version="1.1" viewBox="-40,-40,650,90" width="100%" xmlns="http://www.w3.org/2000/svg" xmlns:ev="http://www.w3.org/2001/xml-events" xmlns:xlink="http://www.w3.org/1999/xlink"><defs><style type="text/css"><![CDATA[
        @import url(https://cdn.jsdelivr.net/npm/firacode@6.2.0/distr/fira_code.css);
        text {
            font-family: 'STIX Two', 'STIX Two Math', 'STIXMath', 'DejaVu Math TeX Glyph',
                        'DejaVu Serif', 'Cambria Math', 'Latin Modern Math', 'FiraCode',
                        'serif';
        }
    ]]></style><style type="text/css"><![CDATA[
        @import url(https://cdn.jsdelivr.net/npm/firacode@6.2.0/distr/fira_code.css);
        text {
            font-family: 'STIX Two', 'STIX Two Math', 'STIXMath', 'DejaVu Math TeX Glyph',
                        'DejaVu Serif', 'Cambria Math', 'Latin Modern Math', 'FiraCode',
                        'serif';
        }
    ]]></style></defs><g><rect fill="black" height="3.1" stroke="none" stroke-width="0" width="3.1" x="3.5" y="3.5" /><rect fill="black" height="6.7" stroke="none" stroke-width="0" width="6.7" x="11.6" y="1.6" /><rect fill="black" height="8.5" stroke="none" stroke-width="0" width="8.5" x="20.7" y="0.7" /><rect fill="black" height="6.1" stroke="none" stroke-width="0" width="6.1" x="32.0" y="2.0" /><rect fill="black" height="7.1" stroke="none" stroke-width="0" width="7.1" x="41.4" y="1.4" /><rect fill="black" height="8.7" stroke="none" stroke-width="0" width="8.7" x="50.7" y="0.7" /><rect fill="black" height="9.1" stroke="none" stroke-width="0" width="9.1" x="60.4" y="0.4" /><rect fill="black" height="9.5" stroke="none" stroke-width="0" width="9.5" x="70.2" y="0.2" /><rect fill="black" height="5.4" stroke="none" stroke-width="0" width="5.4" x="82.3" y="2.3" /><rect fill="black" height="5.2" stroke="none" stroke-width="0" width="5.2" x="92.4" y="2.4" /><rect fill="black" height="6.3" stroke="none" stroke-width="0" width="6.3" x="101.8" y="1.8" /><rect fill="black" height="4.1" stroke="none" stroke-width="0" width="4.1" x="112.9" y="2.9" /><rect fill="black" height="3.9" stroke="none" stroke-width="0" width="3.9" x="123.0" y="3.0" /><rect fill="black" height="5.0" stroke="none" stroke-width="0" width="5.0" x="132.5" y="2.5" /><rect fill="black" height="6.1" stroke="none" stroke-width="0" width="6.1" x="142.0" y="2.0" /><rect fill="black" height="8.0" stroke="none" stroke-width="0" width="8.0" x="151.0" y="1.0" /><rect fill="black" height="5.4" stroke="none" stroke-width="0" width="5.4" x="162.3" y="2.3" /><rect fill="black" height="7.2" stroke="none" stroke-width="0" width="7.2" x="171.4" y="1.4" /><rect fill="black" height="9.2" stroke="none" stroke-width="0" width="9.2" x="180.4" y="0.4" /><rect fill="black" height="9.1" stroke="none" stroke-width="0" width="9.1" x="190.5" y="0.5" /><rect fill="black" height="8.6" stroke="none" stroke-width="0" width="8.6" x="200.7" y="0.7" /><rect fill="black" height="7.0" stroke="none" stroke-width="0" width="7.0" x="211.5" y="1.5" /><rect fill="black" height="8.5" stroke="none" stroke-width="0" width="8.5" x="220.7" y="0.7" /><rect fill="black" height="9.2" stroke="none" stroke-width="0" width="9.2" x="230.4" y="0.4" /><rect fill="black" height="9.0" stroke="none" stroke-width="0" width="9.0" x="240.5" y="0.5" /><rect fill="black" height="6.8" stroke="none" stroke-width="0" width="6.8" x="251.6" y="1.6" /><rect fill="black" height="5.4" stroke="none" stroke-width="0" width="5.4" x="262.3" y="2.3" /><rect fill="black" height="5.0" stroke="none" stroke-width="0" width="5.0" x="272.5" y="2.5" /><rect fill="black" height="2.1" stroke="none" stroke-width="0" width="2.1" x="283.9" y="3.9" /><rect fill="black" height="2.3" stroke="none" stroke-width="0" width="2.3" x="293.8" y="3.8" /><rect fill="black" height="4.2" stroke="none" stroke-width="0" width="4.2" x="302.9" y="2.9" /><rect fill="black" height="2.1" stroke="none" stroke-width="0" width="2.1" x="313.9" y="3.9" /><rect fill="black" height="2.1" stroke="none" stroke-width="0" width="2.1" x="323.9" y="3.9" /><rect fill="black" height="2.1" stroke="none" stroke-width="0" width="2.1" x="333.9" y="3.9" /><rect fill="black" height="2.1" stroke="none" stroke-width="0" width="2.1" x="343.9" y="3.9" /><rect fill="black" height="2.2" stroke="none" stroke-width="0" width="2.2" x="353.9" y="3.9" /><rect fill="black" height="6.5" stroke="none" stroke-width="0" width="6.5" x="361.8" y="1.8" /><rect fill="black" height="6.7" stroke="none" stroke-width="0" width="6.7" x="371.6" y="1.6" /><rect fill="black" height="6.8" stroke="none" stroke-width="0" width="6.8" x="381.6" y="1.6" /><rect fill="black" height="5.1" stroke="none" stroke-width="0" width="5.1" x="392.5" y="2.5" /><rect fill="black" height="5.5" stroke="none" stroke-width="0" width="5.5" x="402.2" y="2.2" /><rect fill="black" height="2.4" stroke="none" stroke-width="0" width="2.4" x="413.8" y="3.8" /><rect fill="black" height="5.3" stroke="none" stroke-width="0" width="5.3" x="422.4" y="2.4" /><rect fill="black" height="6.5" stroke="none" stroke-width="0" width="6.5" x="431.7" y="1.7" /><rect fill="black" height="4.1" stroke="none" stroke-width="0" width="4.1" x="442.9" y="2.9" /><rect fill="black" height="2.4" stroke="none" stroke-width="0" width="2.4" x="453.8" y="3.8" /><rect fill="black" height="2.5" stroke="none" stroke-width="0" width="2.5" x="463.8" y="3.8" /><rect fill="black" height="5.5" stroke="none" stroke-width="0" width="5.5" x="472.3" y="2.3" /><rect fill="black" height="8.5" stroke="none" stroke-width="0" width="8.5" x="480.7" y="0.7" /><rect fill="black" height="6.4" stroke="none" stroke-width="0" width="6.4" x="491.8" y="1.8" /><rect fill="black" height="2.6" stroke="none" stroke-width="0" width="2.6" x="503.7" y="3.7" /><rect fill="black" height="2.5" stroke="none" stroke-width="0" width="2.5" x="513.8" y="3.8" /><rect fill="black" height="5.6" stroke="none" stroke-width="0" width="5.6" x="522.2" y="2.2" /><rect fill="black" height="6.6" stroke="none" stroke-width="0" width="6.6" x="531.7" y="1.7" /><rect fill="black" height="7.6" stroke="none" stroke-width="0" width="7.6" x="541.2" y="1.2" /><rect fill="black" height="8.2" stroke="none" stroke-width="0" width="8.2" x="550.9" y="0.9" /><rect fill="black" height="3.7" stroke="none" stroke-width="0" width="3.7" x="563.2" y="3.2" /></g><g><line stroke="black" stroke-width="0.5" x1="5.0" x2="5.0" y1="-6.0" y2="-12.0" /><text dominant-baseline="middle" font-size="8px" text-anchor="middle" x="5.0" y="-24.0">const</text><line stroke="black" stroke-width="0.5" x1="25.0" x2="25.0" y1="-6.0" y2="-12.0" /><text dominant-baseline="middle" font-size="8px" text-anchor="middle" x="25.0" y="-24.0">sin 1</text><line stroke="black" stroke-width="0.5" x1="65.0" x2="65.0" y1="-6.0" y2="-12.0" /><text dominant-baseline="middle" font-size="8px" text-anchor="middle" x="65.0" y="-24.0">sin 3</text><line stroke="black" stroke-width="0.5" x1="185.0" x2="185.0" y1="-6.0" y2="-12.0" /><text dominant-baseline="middle" font-size="8px" text-anchor="middle" x="185.0" y="-24.0">sin 9</text><line stroke="black" stroke-width="0.5" x1="205.0" x2="205.0" y1="-6.0" y2="-12.0" /><text dominant-baseline="middle" font-size="8px" text-anchor="middle" x="205.0" y="-24.0">sin 10</text><line stroke="black" stroke-width="0.5" x1="225.0" x2="225.0" y1="-6.0" y2="-12.0" /><text dominant-baseline="middle" font-size="8px" text-anchor="middle" x="225.0" y="-24.0">sin 11</text><line stroke="black" stroke-width="0.5" x1="245.0" x2="245.0" y1="-6.0" y2="-12.0" /><text dominant-baseline="middle" font-size="8px" text-anchor="middle" x="245.0" y="-24.0">sin 12</text><line stroke="black" stroke-width="0.5" x1="485.0" x2="485.0" y1="-6.0" y2="-12.0" /><text dominant-baseline="middle" font-size="8px" text-anchor="middle" x="485.0" y="-24.0">sin 24</text><line stroke="black" stroke-width="0.5" x1="55.0" x2="55.0" y1="16.0" y2="22.0" /><text dominant-baseline="middle" font-size="8px" text-anchor="middle" x="55.0" y="34.0">cos 2</text><line stroke="black" stroke-width="0.5" x1="75.0" x2="75.0" y1="16.0" y2="22.0" /><text dominant-baseline="middle" font-size="8px" text-anchor="middle" x="75.0" y="34.0">cos 3</text><line stroke="black" stroke-width="0.5" x1="195.0" x2="195.0" y1="16.0" y2="22.0" /><text dominant-baseline="middle" font-size="8px" text-anchor="middle" x="195.0" y="34.0">cos 9</text><line stroke="black" stroke-width="0.5" x1="235.0" x2="235.0" y1="16.0" y2="22.0" /><text dominant-baseline="middle" font-size="8px" text-anchor="middle" x="235.0" y="34.0">cos 11</text><line stroke="black" stroke-width="0.5" x1="555.0" x2="555.0" y1="16.0" y2="22.0" /><text dominant-baseline="middle" font-size="8px" text-anchor="middle" x="555.0" y="34.0">cos 27</text></g></svg>