<?xml version="1.0" encoding="utf-8" ?>
<svg baseProfile="full" height="100%" preserveAspectRatio="xMidYMid meet" version="1.1" viewBox="-40,-40,650,90" width="100%" xmlns="http://www.w3.org/2000/svg" xmlns:ev="http://www.w3.org/2001/xml-events" xmlns:xlink="http://www.w3.org/1999/xlink"><defs><style type="text/css"><![CDATA[
        @import url(https://cdn.jsdelivr.net/npm/firacode@6.2.0/distr/fira_code.css);
        text {
            font-family: 'STIX Two', 'STIX Two Math', 'STIXMath', 'DejaVu Math TeX Glyph',
                        'DejaVu Serif', 'Cambria Math', 'Latin Modern Math', 'FiraCode',
                        'serif';
        }
    ]]></style><style type="text/css"><![CDATA[
        @import url(https://cdn.jsdelivr.net/npm/firacode@6.2.0/distr/fira_code.css);
        text {
            font-family: 'STIX Two', 'STIX Two Math', 'STIXMath', 'DejaVu Math TeX Glyph',
                        'DejaVu Serif', 'Cambria Math', 'Latin Modern Math', 'FiraCode',
                        'serif';
        }
    ]]></style></defs><g><rect fill="black" height="9.2" stroke="none" stroke-width="0" width="9.2" x="0.4" y="0.4" /><rect fill="black" height="9.0" stroke="none" stroke-width="0" width="9.0" x="10.5" y="0.5" /><rect fill="black" height="9.3" stroke="none" stroke-width="0" width="9.3" x="20.4" y="0.4" /><rect fill="black" height="9.3" stroke="none" stroke-width="0" width="9.3" x="30.4" y="0.4" /><rect fill="black" height="8.9" stroke="none" stroke-width="0" width="8.9" x="40.6" y="0.6" /><rect fill="black" height="9.1" stroke="none" stroke-width="0" width="9.1" x="50.5" y="0.5" /><rect fill="black" height="9.2" stroke="none" stroke-width="0" width="9.2" x="60.4" y="0.4" /><rect fill="black" height="9.1" stroke="none" stroke-width="0" width="9.1" x="70.4" y="0.4" /><rect fill="black" height="9.2" stroke="none" stroke-width="0" width="9.2" x="80.4" y="0.4" /><rect fill="black" height="9.2" stroke="none" stroke-width="0" width="9.2" x="90.4" y="0.4" /><rect fill="black" height="9.2" stroke="none" stroke-width="0" width="9.2" x="100.4" y="0.4" /><rect fill="black" height="9.4" stroke="none" stroke-width="0" width="9.4" x="110.3" y="0.3" /><rect fill="black" height="9.3" stroke="none" stroke-width="0" width="9.3" x="120.4" y="0.4" /><rect fill="black" height="9.0" stroke="none" stroke-width="0" width="9.0" x="130.5" y="0.5" /><rect fill="black" height="9.0" stroke="none" stroke-width="0" width="9.0" x="140.5" y="0.5" /><rect fill="black" height="9.0" stroke="none" stroke-width="0" width="9.0" x="150.5" y="0.5" /><rect fill="black" height="9.4" stroke="none" stroke-width="0" width="9.4" x="160.3" y="0.3" /><rect fill="black" height="9.0" stroke="none" stroke-width="0" width="9.0" x="170.5" y="0.5" /><rect fill="black" height="9.0" stroke="none" stroke-width="0" width="9.0" x="180.5" y="0.5" /><rect fill="black" height="9.1" stroke="none" stroke-width="0" width="9.1" x="190.4" y="0.4" /><rect fill="black" height="9.3" stroke="none" stroke-width="0" width="9.3" x="200.4" y="0.4" /><rect fill="black" height="9.0" stroke="none" stroke-width="0" width="9.0" x="210.5" y="0.5" /><rect fill="black" height="9.4" stroke="none" stroke-width="0" width="9.4" x="220.3" y="0.3" /><rect fill="black" height="9.0" stroke="none" stroke-width="0" width="9.0" x="230.5" y="0.5" /><rect fill="black" height="9.1" stroke="none" stroke-width="0" width="9.1" x="240.4" y="0.4" /><rect fill="black" height="9.1" stroke="none" stroke-width="0" width="9.1" x="250.4" y="0.4" /><rect fill="black" height="9.2" stroke="none" stroke-width="0" width="9.2" x="260.4" y="0.4" /><rect fill="black" height="8.9" stroke="none" stroke-width="0" width="8.9" x="270.5" y="0.5" /><rect fill="black" height="9.2" stroke="none" stroke-width="0" width="9.2" x="280.4" y="0.4" /><rect fill="black" height="9.1" stroke="none" stroke-width="0" width="9.1" x="290.4" y="0.4" /><rect fill="black" height="9.1" stroke="none" stroke-width="0" width="9.1" x="300.4" y="0.4" /><rect fill="black" height="9.1" stroke="none" stroke-width="0" width="9.1" x="310.5" y="0.5" /><rect fill="black" height="9.0" stroke="none" stroke-width="0" width="9.0" x="320.5" y="0.5" /><rect fill="black" height="9.2" stroke="none" stroke-width="0" width="9.2" x="330.4" y="0.4" /><rect fill="black" height="9.1" stroke="none" stroke-width="0" width="9.1" x="340.5" y="0.5" /><rect fill="black" height="9.2" stroke="none" stroke-width="0" width="9.2" x="350.4" y="0.4" /><rect fill="black" height="9.4" stroke="none" stroke-width="0" width="9.4" x="360.3" y="0.3" /><rect fill="black" height="9.3" stroke="none" stroke-width="0" width="9.3" x="370.4" y="0.4" /><rect fill="black" height="9.2" stroke="none" stroke-width="0" width="9.2" x="380.4" y="0.4" /><rect fill="black" height="8.7" stroke="none" stroke-width="0" width="8.7" x="390.6" y="0.6" /><rect fill="black" height="9.1" stroke="none" stroke-width="0" width="9.1" x="400.5" y="0.5" /><rect fill="black" height="9.3" stroke="none" stroke-width="0" width="9.3" x="410.4" y="0.4" /><rect fill="black" height="9.0" stroke="none" stroke-width="0" width="9.0" x="420.5" y="0.5" /><rect fill="black" height="9.0" stroke="none" stroke-width="0" width="9.0" x="430.5" y="0.5" /><rect fill="black" height="9.1" stroke="none" stroke-width="0" width="9.1" x="440.4" y="0.4" /><rect fill="black" height="9.1" stroke="none" stroke-width="0" width="9.1" x="450.4" y="0.4" /><rect fill="black" height="9.0" stroke="none" stroke-width="0" width="9.0" x="460.5" y="0.5" /><rect fill="black" height="8.9" stroke="none" stroke-width="0" width="8.9" x="470.6" y="0.6" /><rect fill="black" height="9.0" stroke="none" stroke-width="0" width="9.0" x="480.5" y="0.5" /><rect fill="black" height="8.9" stroke="none" stroke-width="0" width="8.9" x="490.5" y="0.5" /><rect fill="black" height="9.1" stroke="none" stroke-width="0" width="9.1" x="500.5" y="0.5" /><rect fill="black" height="9.5" stroke="none" stroke-width="0" width="9.5" x="510.2" y="0.2" /><rect fill="black" height="9.4" stroke="none" stroke-width="0" width="9.4" x="520.3" y="0.3" /><rect fill="black" height="9.3" stroke="none" stroke-width="0" width="9.3" x="530.4" y="0.4" /><rect fill="black" height="9.0" stroke="none" stroke-width="0" width="9.0" x="540.5" y="0.5" /><rect fill="black" height="9.2" stroke="none" stroke-width="0" width="9.2" x="550.4" y="0.4" /><rect fill="black" height="9.1" stroke="none" stroke-width="0" width="9.1" x="560.4" y="0.4" /></g><g /></svg>