<?xml version="1.0" encoding="utf-8" ?>
<svg baseProfile="full" height="100%" preserveAspectRatio="xMidYMid meet" version="1.1" viewBox="-40,-40,650,90" width="100%" xmlns="http://www.w3.org/2000/svg" xmlns:ev="http://www.w3.org/2001/xml-events" xmlns:xlink="http://www.w3.org/1999/xlink"><defs><style type="text/css"><![CDATA[
        @import url(https://cdn.jsdelivr.net/npm/firacode@6.2.0/distr/fira_code.css);
        text {
            font-family: 'STIX Two', 'STIX Two Math', 'STIXMath', 'DejaVu Math TeX Glyph',
                        'DejaVu Serif', 'Cambria Math', 'Latin Modern Math', 'FiraCode',
                        'serif';
        }
    ]]></style><style type="text/css"><![CDATA[
        @import url(https://cdn.jsdelivr.net/npm/firacode@6.2.0/distr/fira_code.css);
        text {
            font-family: 'STIX Two', 'STIX Two Math', 'STIXMath', 'DejaVu Math TeX Glyph',
                        'DejaVu Serif', 'Cambria Math', 'Latin Modern Math', 'FiraCode',
                        'serif';
        }
    ]]></style></defs><g><rect fill="black" height="3.9" stroke="none" stroke-width="0" width="3.9" x="3.1" y="3.1" /><rect fill="black" height="4.2" stroke="none" stroke-width="0" width="4.2" x="12.9" y="2.9" /><rect fill="black" height="5.0" stroke="none" stroke-width="0" width="5.0" x="22.5" y="2.5" /><rect fill="black" height="4.1" stroke="none" stroke-width="0" width="4.1" x="32.9" y="2.9" /><rect fill="black" height="4.9" stroke="none" stroke-width="0" width="4.9" x="42.6" y="2.6" /><rect fill="black" height="5.9" stroke="none" stroke-width="0" width="5.9" x="52.0" y="2.0" /><rect fill="black" height="4.4" stroke="none" stroke-width="0" width="4.4" x="62.8" y="2.8" /><rect fill="black" height="4.4" stroke="none" stroke-width="0" width="4.4" x="72.8" y="2.8" /><rect fill="black" height="6.3" stroke="none" stroke-width="0" width="6.3" x="81.9" y="1.9" /><rect fill="black" height="7.2" stroke="none" stroke-width="0" width="7.2" x="91.4" y="1.4" /><rect fill="black" height="4.5" stroke="none" stroke-width="0" width="4.5" x="102.7" y="2.7" /><rect fill="black" height="5.3" stroke="none" stroke-width="0" width="5.3" x="112.4" y="2.4" /><rect fill="black" height="5.3" stroke="none" stroke-width="0" width="5.3" x="122.4" y="2.4" /><rect fill="black" height="4.4" stroke="none" stroke-width="0" width="4.4" x="132.8" y="2.8" /><rect fill="black" height="4.7" stroke="none" stroke-width="0" width="4.7" x="142.6" y="2.6" /><rect fill="black" height="4.4" stroke="none" stroke-width="0" width="4.4" x="152.8" y="2.8" /><rect fill="black" height="5.8" stroke="none" stroke-width="0" width="5.8" x="162.1" y="2.1" /><rect fill="black" height="4.3" stroke="none" stroke-width="0" width="4.3" x="172.8" y="2.8" /><rect fill="black" height="5.1" stroke="none" stroke-width="0" width="5.1" x="182.4" y="2.4" /><rect fill="black" height="6.6" stroke="none" stroke-width="0" width="6.6" x="191.7" y="1.7" /><rect fill="black" height="6.5" stroke="none" stroke-width="0" width="6.5" x="201.7" y="1.7" /><rect fill="black" height="3.4" stroke="none" stroke-width="0" width="3.4" x="213.3" y="3.3" /><rect fill="black" height="5.5" stroke="none" stroke-width="0" width="5.5" x="222.3" y="2.3" /><rect fill="black" height="4.2" stroke="none" stroke-width="0" width="4.2" x="232.9" y="2.9" /><rect fill="black" height="4.8" stroke="none" stroke-width="0" width="4.8" x="242.6" y="2.6" /><rect fill="black" height="4.5" stroke="none" stroke-width="0" width="4.5" x="252.8" y="2.8" /><rect fill="black" height="4.3" stroke="none" stroke-width="0" width="4.3" x="262.9" y="2.9" /><rect fill="black" height="9.5" stroke="none" stroke-width="0" width="9.5" x="270.2" y="0.2" /><rect fill="black" height="3.7" stroke="none" stroke-width="0" width="3.7" x="283.1" y="3.1" /><rect fill="black" height="2.7" stroke="none" stroke-width="0" width="2.7" x="293.6" y="3.6" /><rect fill="black" height="4.4" stroke="none" stroke-width="0" width="4.4" x="302.8" y="2.8" /><rect fill="black" height="4.1" stroke="none" stroke-width="0" width="4.1" x="313.0" y="3.0" /><rect fill="black" height="4.3" stroke="none" stroke-width="0" width="4.3" x="322.9" y="2.9" /><rect fill="black" height="3.7" stroke="none" stroke-width="0" width="3.7" x="333.1" y="3.1" /><rect fill="black" height="4.1" stroke="none" stroke-width="0" width="4.1" x="342.9" y="2.9" /><rect fill="black" height="3.8" stroke="none" stroke-width="0" width="3.8" x="353.1" y="3.1" /><rect fill="black" height="4.6" stroke="none" stroke-width="0" width="4.6" x="362.7" y="2.7" /><rect fill="black" height="5.9" stroke="none" stroke-width="0" width="5.9" x="372.1" y="2.1" /><rect fill="black" height="5.9" stroke="none" stroke-width="0" width="5.9" x="382.1" y="2.1" /><rect fill="black" height="5.2" stroke="none" stroke-width="0" width="5.2" x="392.4" y="2.4" /><rect fill="black" height="4.1" stroke="none" stroke-width="0" width="4.1" x="403.0" y="3.0" /><rect fill="black" height="4.3" stroke="none" stroke-width="0" width="4.3" x="412.9" y="2.9" /><rect fill="black" height="3.7" stroke="none" stroke-width="0" width="3.7" x="423.1" y="3.1" /><rect fill="black" height="5.4" stroke="none" stroke-width="0" width="5.4" x="432.3" y="2.3" /><rect fill="black" height="6.7" stroke="none" stroke-width="0" width="6.7" x="441.7" y="1.7" /><rect fill="black" height="5.8" stroke="none" stroke-width="0" width="5.8" x="452.1" y="2.1" /><rect fill="black" height="4.7" stroke="none" stroke-width="0" width="4.7" x="462.6" y="2.6" /><rect fill="black" height="4.3" stroke="none" stroke-width="0" width="4.3" x="472.8" y="2.8" /><rect fill="black" height="5.0" stroke="none" stroke-width="0" width="5.0" x="482.5" y="2.5" /><rect fill="black" height="4.3" stroke="none" stroke-width="0" width="4.3" x="492.9" y="2.9" /><rect fill="black" height="6.1" stroke="none" stroke-width="0" width="6.1" x="501.9" y="1.9" /><rect fill="black" height="5.2" stroke="none" stroke-width="0" width="5.2" x="512.4" y="2.4" /><rect fill="black" height="4.5" stroke="none" stroke-width="0" width="4.5" x="522.8" y="2.8" /><rect fill="black" height="3.5" stroke="none" stroke-width="0" width="3.5" x="533.3" y="3.3" /><rect fill="black" height="5.4" stroke="none" stroke-width="0" width="5.4" x="542.3" y="2.3" /><rect fill="black" height="5.4" stroke="none" stroke-width="0" width="5.4" x="552.3" y="2.3" /><rect fill="black" height="3.4" stroke="none" stroke-width="0" width="3.4" x="563.3" y="3.3" /></g><g><line stroke="black" stroke-width="0.5" x1="5.0" x2="5.0" y1="-6.0" y2="-12.0" /><text dominant-baseline="middle" font-size="8px" text-anchor="middle" x="5.0" y="-24.0">const</text><line stroke="black" stroke-width="0.5" x1="85.0" x2="85.0" y1="-6.0" y2="-12.0" /><text dominant-baseline="middle" font-size="8px" text-anchor="middle" x="85.0" y="-24.0">sin 4</text><line stroke="black" stroke-width="0.5" x1="205.0" x2="205.0" y1="-6.0" y2="-12.0" /><text dominant-baseline="middle" font-size="8px" text-anchor="middle" x="205.0" y="-24.0">sin 10</text><line stroke="black" stroke-width="0.5" x1="445.0" x2="445.0" y1="-6.0" y2="-12.0" /><text dominant-baseline="middle" font-size="8px" text-anchor="middle" x="445.0" y="-24.0">sin 22</text><line stroke="black" stroke-width="0.5" x1="505.0" x2="505.0" y1="-6.0" y2="-12.0" /><text dominant-baseline="middle" font-size="8px" text-anchor="middle" x="505.0" y="-24.0">sin 25</text><line stroke="black" stroke-width="0.5" x1="95.0" x2="95.0" y1="16.0" y2="22.0" /><text dominant-baseline="middle" font-size="8px" text-anchor="middle" x="95.0" y="34.0">cos 4</text><line stroke="black" stroke-width="0.5" x1="195.0" x2="195.0" y1="16.0" y2="22.0" /><text dominant-baseline="middle" font-size="8px" text-anchor="middle" x="195.0" y="34.0">cos 9</text><line stroke="black" stroke-width="0.5" x1="275.0" x2="275.0" y1="16.0" y2="22.0" /><text dominant-baseline="middle" font-size="8px" text-anchor="middle" x="275.0" y="34.0">cos 13</text></g></svg>