<?xml version="1.0" encoding="utf-8" ?>
<svg baseProfile="full" height="100%" preserveAspectRatio="xMidYMid meet" version="1.1" viewBox="-40,-40,650,90" width="100%" xmlns="http://www.w3.org/2000/svg" xmlns:ev="http://www.w3.org/2001/xml-events" xmlns:xlink="http://www.w3.org/1999/xlink"><defs><style type="text/css"><![CDATA[
        @import url(https://cdn.jsdelivr.net/npm/firacode@6.2.0/distr/fira_code.css);
        text {
            font-family: 'STIX Two', 'STIX Two Math', 'STIXMath', 'DejaVu Math TeX Glyph',
                        'DejaVu Serif', 'Cambria Math', 'Latin Modern Math', 'FiraCode',
                        'serif';
        }
    ]]></style><style type="text/css"><![CDATA[
        @import url(https://cdn.jsdelivr.net/npm/firacode@6.2.0/distr/fira_code.css);
        text {
            font-family: 'STIX Two', 'STIX Two Math', 'STIXMath', 'DejaVu Math TeX Glyph',
                        'DejaVu Serif', 'Cambria Math', 'Latin Modern Math', 'FiraCode',
                        'serif';
        }
    ]]></style></defs><g><rect fill="black" height="9.3" stroke="none" stroke-width="0" width="9.3" x="0.4" y="0.4" /><rect fill="black" height="9.2" stroke="none" stroke-width="0" width="9.2" x="10.4" y="0.4" /><rect fill="black" height="9.2" stroke="none" stroke-width="0" width="9.2" x="20.4" y="0.4" /><rect fill="black" height="9.4" stroke="none" stroke-width="0" width="9.4" x="30.3" y="0.3" /><rect fill="black" height="9.4" stroke="none" stroke-width="0" width="9.4" x="40.3" y="0.3" /><rect fill="black" height="9.3" stroke="none" stroke-width="0" width="9.3" x="50.3" y="0.3" /><rect fill="black" height="9.1" stroke="none" stroke-width="0" width="9.1" x="60.5" y="0.5" /><rect fill="black" height="9.3" stroke="none" stroke-width="0" width="9.3" x="70.4" y="0.4" /><rect fill="black" height="9.4" stroke="none" stroke-width="0" width="9.4" x="80.3" y="0.3" /><rect fill="black" height="9.4" stroke="none" stroke-width="0" width="9.4" x="90.3" y="0.3" /><rect fill="black" height="9.3" stroke="none" stroke-width="0" width="9.3" x="100.3" y="0.3" /><rect fill="black" height="9.3" stroke="none" stroke-width="0" width="9.3" x="110.4" y="0.4" /><rect fill="black" height="9.2" stroke="none" stroke-width="0" width="9.2" x="120.4" y="0.4" /><rect fill="black" height="9.4" stroke="none" stroke-width="0" width="9.4" x="130.3" y="0.3" /><rect fill="black" height="9.5" stroke="none" stroke-width="0" width="9.5" x="140.3" y="0.3" /><rect fill="black" height="9.4" stroke="none" stroke-width="0" width="9.4" x="150.3" y="0.3" /><rect fill="black" height="9.4" stroke="none" stroke-width="0" width="9.4" x="160.3" y="0.3" /><rect fill="black" height="9.1" stroke="none" stroke-width="0" width="9.1" x="170.4" y="0.4" /><rect fill="black" height="9.3" stroke="none" stroke-width="0" width="9.3" x="180.4" y="0.4" /><rect fill="black" height="9.2" stroke="none" stroke-width="0" width="9.2" x="190.4" y="0.4" /><rect fill="black" height="9.4" stroke="none" stroke-width="0" width="9.4" x="200.3" y="0.3" /><rect fill="black" height="9.3" stroke="none" stroke-width="0" width="9.3" x="210.3" y="0.3" /><rect fill="black" height="9.4" stroke="none" stroke-width="0" width="9.4" x="220.3" y="0.3" /><rect fill="black" height="9.2" stroke="none" stroke-width="0" width="9.2" x="230.4" y="0.4" /><rect fill="black" height="9.2" stroke="none" stroke-width="0" width="9.2" x="240.4" y="0.4" /><rect fill="black" height="9.3" stroke="none" stroke-width="0" width="9.3" x="250.3" y="0.3" /><rect fill="black" height="9.3" stroke="none" stroke-width="0" width="9.3" x="260.3" y="0.3" /><rect fill="black" height="9.4" stroke="none" stroke-width="0" width="9.4" x="270.3" y="0.3" /><rect fill="black" height="3.8" stroke="none" stroke-width="0" width="3.8" x="283.1" y="3.1" /><rect fill="black" height="9.3" stroke="none" stroke-width="0" width="9.3" x="290.3" y="0.3" /><rect fill="black" height="9.5" stroke="none" stroke-width="0" width="9.5" x="300.2" y="0.2" /><rect fill="black" height="9.4" stroke="none" stroke-width="0" width="9.4" x="310.3" y="0.3" /><rect fill="black" height="9.4" stroke="none" stroke-width="0" width="9.4" x="320.3" y="0.3" /><rect fill="black" height="9.3" stroke="none" stroke-width="0" width="9.3" x="330.3" y="0.3" /><rect fill="black" height="9.3" stroke="none" stroke-width="0" width="9.3" x="340.3" y="0.3" /><rect fill="black" height="9.4" stroke="none" stroke-width="0" width="9.4" x="350.3" y="0.3" /><rect fill="black" height="9.3" stroke="none" stroke-width="0" width="9.3" x="360.4" y="0.4" /><rect fill="black" height="9.1" stroke="none" stroke-width="0" width="9.1" x="370.4" y="0.4" /><rect fill="black" height="9.3" stroke="none" stroke-width="0" width="9.3" x="380.4" y="0.4" /><rect fill="black" height="9.3" stroke="none" stroke-width="0" width="9.3" x="390.4" y="0.4" /><rect fill="black" height="9.2" stroke="none" stroke-width="0" width="9.2" x="400.4" y="0.4" /><rect fill="black" height="9.4" stroke="none" stroke-width="0" width="9.4" x="410.3" y="0.3" /><rect fill="black" height="9.5" stroke="none" stroke-width="0" width="9.5" x="420.3" y="0.3" /><rect fill="black" height="9.2" stroke="none" stroke-width="0" width="9.2" x="430.4" y="0.4" /><rect fill="black" height="9.3" stroke="none" stroke-width="0" width="9.3" x="440.4" y="0.4" /><rect fill="black" height="9.3" stroke="none" stroke-width="0" width="9.3" x="450.4" y="0.4" /><rect fill="black" height="9.1" stroke="none" stroke-width="0" width="9.1" x="460.4" y="0.4" /><rect fill="black" height="9.3" stroke="none" stroke-width="0" width="9.3" x="470.4" y="0.4" /><rect fill="black" height="9.5" stroke="none" stroke-width="0" width="9.5" x="480.3" y="0.3" /><rect fill="black" height="9.3" stroke="none" stroke-width="0" width="9.3" x="490.4" y="0.4" /><rect fill="black" height="9.4" stroke="none" stroke-width="0" width="9.4" x="500.3" y="0.3" /><rect fill="black" height="9.4" stroke="none" stroke-width="0" width="9.4" x="510.3" y="0.3" /><rect fill="black" height="9.1" stroke="none" stroke-width="0" width="9.1" x="520.5" y="0.5" /><rect fill="black" height="9.4" stroke="none" stroke-width="0" width="9.4" x="530.3" y="0.3" /><rect fill="black" height="9.2" stroke="none" stroke-width="0" width="9.2" x="540.4" y="0.4" /><rect fill="black" height="9.4" stroke="none" stroke-width="0" width="9.4" x="550.3" y="0.3" /><rect fill="black" height="9.4" stroke="none" stroke-width="0" width="9.4" x="560.3" y="0.3" /></g><g><line stroke="black" stroke-width="0.5" x1="5.0" x2="5.0" y1="-6.0" y2="-12.0" /><text dominant-baseline="middle" font-size="8px" text-anchor="middle" x="5.0" y="-24.0">const</text></g></svg>