<?xml version="1.0" encoding="utf-8" ?>
<svg baseProfile="full" height="100%" preserveAspectRatio="xMidYMid meet" version="1.1" viewBox="-40,-40,650,90" width="100%" xmlns="http://www.w3.org/2000/svg" xmlns:ev="http://www.w3.org/2001/xml-events" xmlns:xlink="http://www.w3.org/1999/xlink"><defs><style type="text/css"><![CDATA[
        @import url(https://cdn.jsdelivr.net/npm/firacode@6.2.0/distr/fira_code.css);
        text {
            font-family: 'STIX Two', 'STIX Two Math', 'STIXMath', 'DejaVu Math TeX Glyph',
                        'DejaVu Serif', 'Cambria Math', 'Latin Modern Math', 'FiraCode',
                        'serif';
        }
    ]]></style><style type="text/css"><![CDATA[
        @import url(https://cdn.jsdelivr.net/npm/firacode@6.2.0/distr/fira_code.css);
        text {
            font-family: 'STIX Two', 'STIX Two Math', 'STIXMath', 'DejaVu Math TeX Glyph',
                        'DejaVu Serif', 'Cambria Math', 'Latin Modern Math', 'FiraCode',
                        'serif';
        }
    ]]></style></defs><g><rect fill="black" height="5.7" stroke="none" stroke-width="0" width="5.7" x="2.1" y="2.1" /><rect fill="black" height="7.8" stroke="none" stroke-width="0" width="7.8" x="11.1" y="1.1" /><rect fill="black" height="8.6" stroke="none" stroke-width="0" width="8.6" x="20.7" y="0.7" /><rect fill="black" height="8.9" stroke="none" stroke-width="0" width="8.9" x="30.5" y="0.5" /><rect fill="black" height="9.0" stroke="none" stroke-width="0" width="9.0" x="40.5" y="0.5" /><rect fill="black" height="8.8" stroke="none" stroke-width="0" width="8.8" x="50.6" y="0.6" /><rect fill="black" height="9.1" stroke="none" stroke-width="0" width="9.1" x="60.5" y="0.5" /><rect fill="black" height="9.3" stroke="none" stroke-width="0" width="9.3" x="70.3" y="0.3" /><rect fill="black" height="8.9" stroke="none" stroke-width="0" width="8.9" x="80.6" y="0.6" /><rect fill="black" height="9.5" stroke="none" stroke-width="0" width="9.5" x="90.2" y="0.2" /><rect fill="black" height="9.0" stroke="none" stroke-width="0" width="9.0" x="100.5" y="0.5" /><rect fill="black" height="7.2" stroke="none" stroke-width="0" width="7.2" x="111.4" y="1.4" /><rect fill="black" height="8.2" stroke="none" stroke-width="0" width="8.2" x="120.9" y="0.9" /><rect fill="black" height="6.8" stroke="none" stroke-width="0" width="6.8" x="131.6" y="1.6" /><rect fill="black" height="8.4" stroke="none" stroke-width="0" width="8.4" x="140.8" y="0.8" /><rect fill="black" height="7.6" stroke="none" stroke-width="0" width="7.6" x="151.2" y="1.2" /><rect fill="black" height="9.1" stroke="none" stroke-width="0" width="9.1" x="160.5" y="0.5" /><rect fill="black" height="8.3" stroke="none" stroke-width="0" width="8.3" x="170.8" y="0.8" /><rect fill="black" height="9.0" stroke="none" stroke-width="0" width="9.0" x="180.5" y="0.5" /><rect fill="black" height="9.4" stroke="none" stroke-width="0" width="9.4" x="190.3" y="0.3" /><rect fill="black" height="9.2" stroke="none" stroke-width="0" width="9.2" x="200.4" y="0.4" /><rect fill="black" height="6.6" stroke="none" stroke-width="0" width="6.6" x="211.7" y="1.7" /><rect fill="black" height="6.9" stroke="none" stroke-width="0" width="6.9" x="221.6" y="1.6" /><rect fill="black" height="7.5" stroke="none" stroke-width="0" width="7.5" x="231.2" y="1.2" /><rect fill="black" height="6.0" stroke="none" stroke-width="0" width="6.0" x="242.0" y="2.0" /><rect fill="black" height="5.5" stroke="none" stroke-width="0" width="5.5" x="252.2" y="2.2" /><rect fill="black" height="6.5" stroke="none" stroke-width="0" width="6.5" x="261.7" y="1.7" /><rect fill="black" height="9.2" stroke="none" stroke-width="0" width="9.2" x="270.4" y="0.4" /><rect fill="black" height="2.7" stroke="none" stroke-width="0" width="2.7" x="283.6" y="3.6" /><rect fill="black" height="5.9" stroke="none" stroke-width="0" width="5.9" x="292.1" y="2.1" /><rect fill="black" height="8.7" stroke="none" stroke-width="0" width="8.7" x="300.7" y="0.7" /><rect fill="black" height="6.1" stroke="none" stroke-width="0" width="6.1" x="311.9" y="1.9" /><rect fill="black" height="4.6" stroke="none" stroke-width="0" width="4.6" x="322.7" y="2.7" /><rect fill="black" height="4.4" stroke="none" stroke-width="0" width="4.4" x="332.8" y="2.8" /><rect fill="black" height="4.7" stroke="none" stroke-width="0" width="4.7" x="342.7" y="2.7" /><rect fill="black" height="6.1" stroke="none" stroke-width="0" width="6.1" x="352.0" y="2.0" /><rect fill="black" height="7.7" stroke="none" stroke-width="0" width="7.7" x="361.1" y="1.1" /><rect fill="black" height="8.7" stroke="none" stroke-width="0" width="8.7" x="370.7" y="0.7" /><rect fill="black" height="9.4" stroke="none" stroke-width="0" width="9.4" x="380.3" y="0.3" /><rect fill="black" height="7.5" stroke="none" stroke-width="0" width="7.5" x="391.2" y="1.2" /><rect fill="black" height="5.3" stroke="none" stroke-width="0" width="5.3" x="402.4" y="2.4" /><rect fill="black" height="5.3" stroke="none" stroke-width="0" width="5.3" x="412.3" y="2.3" /><rect fill="black" height="7.4" stroke="none" stroke-width="0" width="7.4" x="421.3" y="1.3" /><rect fill="black" height="9.1" stroke="none" stroke-width="0" width="9.1" x="430.4" y="0.4" /><rect fill="black" height="8.5" stroke="none" stroke-width="0" width="8.5" x="440.8" y="0.8" /><rect fill="black" height="8.2" stroke="none" stroke-width="0" width="8.2" x="450.9" y="0.9" /><rect fill="black" height="6.8" stroke="none" stroke-width="0" width="6.8" x="461.6" y="1.6" /><rect fill="black" height="6.3" stroke="none" stroke-width="0" width="6.3" x="471.8" y="1.8" /><rect fill="black" height="7.8" stroke="none" stroke-width="0" width="7.8" x="481.1" y="1.1" /><rect fill="black" height="7.1" stroke="none" stroke-width="0" width="7.1" x="491.5" y="1.5" /><rect fill="black" height="9.3" stroke="none" stroke-width="0" width="9.3" x="500.3" y="0.3" /><rect fill="black" height="8.8" stroke="none" stroke-width="0" width="8.8" x="510.6" y="0.6" /><rect fill="black" height="8.2" stroke="none" stroke-width="0" width="8.2" x="520.9" y="0.9" /><rect fill="black" height="8.4" stroke="none" stroke-width="0" width="8.4" x="530.8" y="0.8" /><rect fill="black" height="9.4" stroke="none" stroke-width="0" width="9.4" x="540.3" y="0.3" /><rect fill="black" height="9.0" stroke="none" stroke-width="0" width="9.0" x="550.5" y="0.5" /><rect fill="black" height="6.6" stroke="none" stroke-width="0" width="6.6" x="561.7" y="1.7" /></g><g><line stroke="black" stroke-width="0.5" x1="5.0" x2="5.0" y1="-4.0" y2="-7.0" /><text dominant-baseline="middle" font-size="6px" text-anchor="middle" x="5.0" y="-13.0">constant</text><line stroke="black" stroke-width="0.5" x1="15.0" x2="15.0" y1="-4.0" y2="-7.0" /><text dominant-baseline="middle" font-size="6px" text-anchor="middle" x="15.0" y="-13.0">sin 0</text><line stroke="black" stroke-width="0.5" x1="35.0" x2="35.0" y1="-4.0" y2="-7.0" /><text dominant-baseline="middle" font-size="6px" text-anchor="middle" x="35.0" y="-13.0">sin 1</text><line stroke="black" stroke-width="0.5" x1="55.0" x2="55.0" y1="-4.0" y2="-7.0" /><text dominant-baseline="middle" font-size="6px" text-anchor="middle" x="55.0" y="-13.0">sin 2</text><line stroke="black" stroke-width="0.5" x1="75.0" x2="75.0" y1="-4.0" y2="-7.0" /><text dominant-baseline="middle" font-size="6px" text-anchor="middle" x="75.0" y="-13.0">sin 3</text><line stroke="black" stroke-width="0.5" x1="95.0" x2="95.0" y1="-4.0" y2="-7.0" /><text dominant-baseline="middle" font-size="6px" text-anchor="middle" x="95.0" y="-13.0">sin 4</text><line stroke="black" stroke-width="0.5" x1="175.0" x2="175.0" y1="-4.0" y2="-7.0" /><text dominant-baseline="middle" font-size="6px" text-anchor="middle" x="175.0" y="-13.0">sin 8</text><line stroke="black" stroke-width="0.5" x1="195.0" x2="195.0" y1="-4.0" y2="-7.0" /><text dominant-baseline="middle" font-size="6px" text-anchor="middle" x="195.0" y="-13.0">sin 9</text><line stroke="black" stroke-width="0.5" x1="275.0" x2="275.0" y1="-4.0" y2="-7.0" /><text dominant-baseline="middle" font-size="6px" text-anchor="middle" x="275.0" y="-13.0">sin 13</text><line stroke="black" stroke-width="0.5" x1="375.0" x2="375.0" y1="-4.0" y2="-7.0" /><text dominant-baseline="middle" font-size="6px" text-anchor="middle" x="375.0" y="-13.0">sin 18</text><line stroke="black" stroke-width="0.5" x1="435.0" x2="435.0" y1="-4.0" y2="-7.0" /><text dominant-baseline="middle" font-size="6px" text-anchor="middle" x="435.0" y="-13.0">sin 21</text><line stroke="black" stroke-width="0.5" x1="455.0" x2="455.0" y1="-4.0" y2="-7.0" /><text dominant-baseline="middle" font-size="6px" text-anchor="middle" x="455.0" y="-13.0">sin 22</text><line stroke="black" stroke-width="0.5" x1="515.0" x2="515.0" y1="-4.0" y2="-7.0" /><text dominant-baseline="middle" font-size="6px" text-anchor="middle" x="515.0" y="-13.0">sin 25</text><line stroke="black" stroke-width="0.5" x1="535.0" x2="535.0" y1="-4.0" y2="-7.0" /><text dominant-baseline="middle" font-size="6px" text-anchor="middle" x="535.0" y="-13.0">sin 26</text><line stroke="black" stroke-width="0.5" x1="555.0" x2="555.0" y1="-4.0" y2="-7.0" /><text dominant-baseline="middle" font-size="6px" text-anchor="middle" x="555.0" y="-13.0">sin 27</text><line stroke="black" stroke-width="0.5" x1="25.0" x2="25.0" y1="14.0" y2="17.0" /><text dominant-baseline="middle" font-size="6px" text-anchor="middle" x="25.0" y="23.0">cos 1</text><line stroke="black" stroke-width="0.5" x1="45.0" x2="45.0" y1="14.0" y2="17.0" /><text dominant-baseline="middle" font-size="6px" text-anchor="middle" x="45.0" y="23.0">cos 2</text><line stroke="black" stroke-width="0.5" x1="65.0" x2="65.0" y1="14.0" y2="17.0" /><text dominant-baseline="middle" font-size="6px" text-anchor="middle" x="65.0" y="23.0">cos 3</text><line stroke="black" stroke-width="0.5" x1="85.0" x2="85.0" y1="14.0" y2="17.0" /><text dominant-baseline="middle" font-size="6px" text-anchor="middle" x="85.0" y="23.0">cos 4</text><line stroke="black" stroke-width="0.5" x1="105.0" x2="105.0" y1="14.0" y2="17.0" /><text dominant-baseline="middle" font-size="6px" text-anchor="middle" x="105.0" y="23.0">cos 5</text><line stroke="black" stroke-width="0.5" x1="125.0" x2="125.0" y1="14.0" y2="17.0" /><text dominant-baseline="middle" font-size="6px" text-anchor="middle" x="125.0" y="23.0">cos 6</text><line stroke="black" stroke-width="0.5" x1="145.0" x2="145.0" y1="14.0" y2="17.0" /><text dominant-baseline="middle" font-size="6px" text-anchor="middle" x="145.0" y="23.0">cos 7</text><line stroke="black" stroke-width="0.5" x1="165.0" x2="165.0" y1="14.0" y2="17.0" /><text dominant-baseline="middle" font-size="6px" text-anchor="middle" x="165.0" y="23.0">cos 8</text><line stroke="black" stroke-width="0.5" x1="185.0" x2="185.0" y1="14.0" y2="17.0" /><text dominant-baseline="middle" font-size="6px" text-anchor="middle" x="185.0" y="23.0">cos 9</text><line stroke="black" stroke-width="0.5" x1="205.0" x2="205.0" y1="14.0" y2="17.0" /><text dominant-baseline="middle" font-size="6px" text-anchor="middle" x="205.0" y="23.0">cos 10</text><line stroke="black" stroke-width="0.5" x1="305.0" x2="305.0" y1="14.0" y2="17.0" /><text dominant-baseline="middle" font-size="6px" text-anchor="middle" x="305.0" y="23.0">cos 15</text><line stroke="black" stroke-width="0.5" x1="385.0" x2="385.0" y1="14.0" y2="17.0" /><text dominant-baseline="middle" font-size="6px" text-anchor="middle" x="385.0" y="23.0">cos 19</text><line stroke="black" stroke-width="0.5" x1="445.0" x2="445.0" y1="14.0" y2="17.0" /><text dominant-baseline="middle" font-size="6px" text-anchor="middle" x="445.0" y="23.0">cos 22</text><line stroke="black" stroke-width="0.5" x1="485.0" x2="485.0" y1="14.0" y2="17.0" /><text dominant-baseline="middle" font-size="6px" text-anchor="middle" x="485.0" y="23.0">cos 24</text><line stroke="black" stroke-width="0.5" x1="505.0" x2="505.0" y1="14.0" y2="17.0" /><text dominant-baseline="middle" font-size="6px" text-anchor="middle" x="505.0" y="23.0">cos 25</text><line stroke="black" stroke-width="0.5" x1="525.0" x2="525.0" y1="14.0" y2="17.0" /><text dominant-baseline="middle" font-size="6px" text-anchor="middle" x="525.0" y="23.0">cos 26</text><line stroke="black" stroke-width="0.5" x1="545.0" x2="545.0" y1="14.0" y2="17.0" /><text dominant-baseline="middle" font-size="6px" text-anchor="middle" x="545.0" y="23.0">cos 27</text></g></svg>