<?xml version="1.0" encoding="utf-8" ?>
<svg baseProfile="full" height="100%" preserveAspectRatio="xMidYMid meet" version="1.1" viewBox="-40,-40,650,90" width="100%" xmlns="http://www.w3.org/2000/svg" xmlns:ev="http://www.w3.org/2001/xml-events" xmlns:xlink="http://www.w3.org/1999/xlink"><defs><style type="text/css"><![CDATA[
        @import url(https://cdn.jsdelivr.net/npm/firacode@6.2.0/distr/fira_code.css);
        text {
            font-family: 'STIX Two', 'STIX Two Math', 'STIXMath', 'DejaVu Math TeX Glyph',
                        'DejaVu Serif', 'Cambria Math', 'Latin Modern Math', 'FiraCode',
                        'serif';
        }
    ]]></style><style type="text/css"><![CDATA[
        @import url(https://cdn.jsdelivr.net/npm/firacode@6.2.0/distr/fira_code.css);
        text {
            font-family: 'STIX Two', 'STIX Two Math', 'STIXMath', 'DejaVu Math TeX Glyph',
                        'DejaVu Serif', 'Cambria Math', 'Latin Modern Math', 'FiraCode',
                        'serif';
        }
    ]]></style></defs><g><rect fill="black" height="3.1" stroke="none" stroke-width="0" width="3.1" x="3.5" y="3.5" /><rect fill="black" height="2.8" stroke="none" stroke-width="0" width="2.8" x="13.6" y="3.6" /><rect fill="black" height="2.2" stroke="none" stroke-width="0" width="2.2" x="23.9" y="3.9" /><rect fill="black" height="2.1" stroke="none" stroke-width="0" width="2.1" x="33.9" y="3.9" /><rect fill="black" height="2.1" stroke="none" stroke-width="0" width="2.1" x="43.9" y="3.9" /><rect fill="black" height="2.1" stroke="none" stroke-width="0" width="2.1" x="53.9" y="3.9" /><rect fill="black" height="2.1" stroke="none" stroke-width="0" width="2.1" x="63.9" y="3.9" /><rect fill="black" height="3.1" stroke="none" stroke-width="0" width="3.1" x="73.4" y="3.4" /><rect fill="black" height="2.1" stroke="none" stroke-width="0" width="2.1" x="83.9" y="3.9" /><rect fill="black" height="2.2" stroke="none" stroke-width="0" width="2.2" x="93.9" y="3.9" /><rect fill="black" height="2.1" stroke="none" stroke-width="0" width="2.1" x="103.9" y="3.9" /><rect fill="black" height="2.4" stroke="none" stroke-width="0" width="2.4" x="113.8" y="3.8" /><rect fill="black" height="2.1" stroke="none" stroke-width="0" width="2.1" x="123.9" y="3.9" /><rect fill="black" height="2.1" stroke="none" stroke-width="0" width="2.1" x="133.9" y="3.9" /><rect fill="black" height="2.1" stroke="none" stroke-width="0" width="2.1" x="143.9" y="3.9" /><rect fill="black" height="2.1" stroke="none" stroke-width="0" width="2.1" x="153.9" y="3.9" /><rect fill="black" height="2.6" stroke="none" stroke-width="0" width="2.6" x="163.7" y="3.7" /><rect fill="black" height="2.3" stroke="none" stroke-width="0" width="2.3" x="173.8" y="3.8" /><rect fill="black" height="2.2" stroke="none" stroke-width="0" width="2.2" x="183.9" y="3.9" /><rect fill="black" height="2.3" stroke="none" stroke-width="0" width="2.3" x="193.9" y="3.9" /><rect fill="black" height="2.1" stroke="none" stroke-width="0" width="2.1" x="203.9" y="3.9" /><rect fill="black" height="2.1" stroke="none" stroke-width="0" width="2.1" x="213.9" y="3.9" /><rect fill="black" height="2.1" stroke="none" stroke-width="0" width="2.1" x="223.9" y="3.9" /><rect fill="black" height="2.7" stroke="none" stroke-width="0" width="2.7" x="233.7" y="3.7" /><rect fill="black" height="2.1" stroke="none" stroke-width="0" width="2.1" x="243.9" y="3.9" /><rect fill="black" height="2.2" stroke="none" stroke-width="0" width="2.2" x="253.9" y="3.9" /><rect fill="black" height="2.1" stroke="none" stroke-width="0" width="2.1" x="263.9" y="3.9" /><rect fill="black" height="3.3" stroke="none" stroke-width="0" width="3.3" x="273.4" y="3.4" /><rect fill="black" height="3.9" stroke="none" stroke-width="0" width="3.9" x="283.1" y="3.1" /><rect fill="black" height="2.1" stroke="none" stroke-width="0" width="2.1" x="293.9" y="3.9" /><rect fill="black" height="2.3" stroke="none" stroke-width="0" width="2.3" x="303.9" y="3.9" /><rect fill="black" height="8.4" stroke="none" stroke-width="0" width="8.4" x="310.8" y="0.8" /><rect fill="black" height="2.1" stroke="none" stroke-width="0" width="2.1" x="323.9" y="3.9" /><rect fill="black" height="2.1" stroke="none" stroke-width="0" width="2.1" x="333.9" y="3.9" /><rect fill="black" height="6.5" stroke="none" stroke-width="0" width="6.5" x="341.8" y="1.8" /><rect fill="black" height="2.2" stroke="none" stroke-width="0" width="2.2" x="353.9" y="3.9" /><rect fill="black" height="2.8" stroke="none" stroke-width="0" width="2.8" x="363.6" y="3.6" /><rect fill="black" height="2.7" stroke="none" stroke-width="0" width="2.7" x="373.7" y="3.7" /><rect fill="black" height="9.3" stroke="none" stroke-width="0" width="9.3" x="380.4" y="0.4" /><rect fill="black" height="2.1" stroke="none" stroke-width="0" width="2.1" x="393.9" y="3.9" /><rect fill="black" height="9.5" stroke="none" stroke-width="0" width="9.5" x="400.3" y="0.3" /><rect fill="black" height="2.2" stroke="none" stroke-width="0" width="2.2" x="413.9" y="3.9" /><rect fill="black" height="2.5" stroke="none" stroke-width="0" width="2.5" x="423.7" y="3.7" /><rect fill="black" height="2.4" stroke="none" stroke-width="0" width="2.4" x="433.8" y="3.8" /><rect fill="black" height="2.4" stroke="none" stroke-width="0" width="2.4" x="443.8" y="3.8" /><rect fill="black" height="2.1" stroke="none" stroke-width="0" width="2.1" x="453.9" y="3.9" /><rect fill="black" height="2.4" stroke="none" stroke-width="0" width="2.4" x="463.8" y="3.8" /><rect fill="black" height="2.1" stroke="none" stroke-width="0" width="2.1" x="473.9" y="3.9" /><rect fill="black" height="2.9" stroke="none" stroke-width="0" width="2.9" x="483.6" y="3.6" /><rect fill="black" height="2.3" stroke="none" stroke-width="0" width="2.3" x="493.9" y="3.9" /><rect fill="black" height="2.2" stroke="none" stroke-width="0" width="2.2" x="503.9" y="3.9" /><rect fill="black" height="2.1" stroke="none" stroke-width="0" width="2.1" x="513.9" y="3.9" /><rect fill="black" height="3.2" stroke="none" stroke-width="0" width="3.2" x="523.4" y="3.4" /><rect fill="black" height="2.2" stroke="none" stroke-width="0" width="2.2" x="533.9" y="3.9" /><rect fill="black" height="2.1" stroke="none" stroke-width="0" width="2.1" x="543.9" y="3.9" /><rect fill="black" height="2.2" stroke="none" stroke-width="0" width="2.2" x="553.9" y="3.9" /><rect fill="black" height="9.5" stroke="none" stroke-width="0" width="9.5" x="560.2" y="0.2" /></g><g><line stroke="black" stroke-width="0.5" x1="5.0" x2="5.0" y1="-4.0" y2="-7.0" /><text dominant-baseline="middle" font-size="6px" text-anchor="middle" x="5.0" y="-13.0">constant</text><line stroke="black" stroke-width="0.5" x1="285.0" x2="285.0" y1="-4.0" y2="-7.0" /><text dominant-baseline="middle" font-size="6px" text-anchor="middle" x="285.0" y="-13.0">sin 14</text><line stroke="black" stroke-width="0.5" x1="345.0" x2="345.0" y1="-4.0" y2="-7.0" /><text dominant-baseline="middle" font-size="6px" text-anchor="middle" x="345.0" y="-13.0">sin 17</text><line stroke="black" stroke-width="0.5" x1="385.0" x2="385.0" y1="-4.0" y2="-7.0" /><text dominant-baseline="middle" font-size="6px" text-anchor="middle" x="385.0" y="-13.0">sin 19</text><line stroke="black" stroke-width="0.5" x1="405.0" x2="405.0" y1="-4.0" y2="-7.0" /><text dominant-baseline="middle" font-size="6px" text-anchor="middle" x="405.0" y="-13.0">sin 20</text><line stroke="black" stroke-width="0.5" x1="565.0" x2="565.0" y1="-4.0" y2="-7.0" /><text dominant-baseline="middle" font-size="6px" text-anchor="middle" x="565.0" y="-13.0">sin 28</text><line stroke="black" stroke-width="0.5" x1="315.0" x2="315.0" y1="14.0" y2="17.0" /><text dominant-baseline="middle" font-size="6px" text-anchor="middle" x="315.0" y="23.0">cos 15</text></g></svg>