<?xml version="1.0" encoding="utf-8" ?>
<svg baseProfile="full" height="100%" preserveAspectRatio="xMidYMid meet" version="1.1" viewBox="-40,-40,650,90" width="100%" xmlns="http://www.w3.org/2000/svg" xmlns:ev="http://www.w3.org/2001/xml-events" xmlns:xlink="http://www.w3.org/1999/xlink"><defs><style type="text/css"><![CDATA[
        @import url(https://cdn.jsdelivr.net/npm/firacode@6.2.0/distr/fira_code.css);
        text {
            font-family: 'STIX Two', 'STIX Two Math', 'STIXMath', 'DejaVu Math TeX Glyph',
                        'DejaVu Serif', 'Cambria Math', 'Latin Modern Math', 'FiraCode',
                        'serif';
        }
    ]]></style><style type="text/css"><![CDATA[
        @import url(https://cdn.jsdelivr.net/npm/firacode@6.2.0/distr/fira_code.css);
        text {
            font-family: 'STIX Two', 'STIX Two Math', 'STIXMath', 'DejaVu Math TeX Glyph',
                        'DejaVu Serif', 'Cambria Math', 'Latin Modern Math', 'FiraCode',
                        'serif';
        }
    ]]></style></defs><g><rect fill="black" height="5.1" stroke="none" stroke-width="0" width="5.1" x="2.4" y="2.4" /><rect fill="black" height="6.7" stroke="none" stroke-width="0" width="6.7" x="11.7" y="1.7" /><rect fill="black" height="8.4" stroke="none" stroke-width="0" width="8.4" x="20.8" y="0.8" /><rect fill="black" height="7.7" stroke="none" stroke-width="0" width="7.7" x="31.1" y="1.1" /><rect fill="black" height="8.7" stroke="none" stroke-width="0" width="8.7" x="40.6" y="0.6" /><rect fill="black" height="8.7" stroke="none" stroke-width="0" width="8.7" x="50.6" y="0.6" /><rect fill="black" height="9.2" stroke="none" stroke-width="0" width="9.2" x="60.4" y="0.4" /><rect fill="black" height="9.3" stroke="none" stroke-width="0" width="9.3" x="70.4" y="0.4" /><rect fill="black" height="8.9" stroke="none" stroke-width="0" width="8.9" x="80.5" y="0.5" /><rect fill="black" height="9.5" stroke="none" stroke-width="0" width="9.5" x="90.2" y="0.2" /><rect fill="black" height="8.7" stroke="none" stroke-width="0" width="8.7" x="100.7" y="0.7" /><rect fill="black" height="5.5" stroke="none" stroke-width="0" width="5.5" x="112.2" y="2.2" /><rect fill="black" height="8.2" stroke="none" stroke-width="0" width="8.2" x="120.9" y="0.9" /><rect fill="black" height="7.2" stroke="none" stroke-width="0" width="7.2" x="131.4" y="1.4" /><rect fill="black" height="8.5" stroke="none" stroke-width="0" width="8.5" x="140.8" y="0.8" /><rect fill="black" height="7.8" stroke="none" stroke-width="0" width="7.8" x="151.1" y="1.1" /><rect fill="black" height="9.1" stroke="none" stroke-width="0" width="9.1" x="160.5" y="0.5" /><rect fill="black" height="8.8" stroke="none" stroke-width="0" width="8.8" x="170.6" y="0.6" /><rect fill="black" height="9.2" stroke="none" stroke-width="0" width="9.2" x="180.4" y="0.4" /><rect fill="black" height="9.2" stroke="none" stroke-width="0" width="9.2" x="190.4" y="0.4" /><rect fill="black" height="9.2" stroke="none" stroke-width="0" width="9.2" x="200.4" y="0.4" /><rect fill="black" height="6.3" stroke="none" stroke-width="0" width="6.3" x="211.8" y="1.8" /><rect fill="black" height="4.9" stroke="none" stroke-width="0" width="4.9" x="222.5" y="2.5" /><rect fill="black" height="4.5" stroke="none" stroke-width="0" width="4.5" x="232.7" y="2.7" /><rect fill="black" height="4.6" stroke="none" stroke-width="0" width="4.6" x="242.7" y="2.7" /><rect fill="black" height="4.9" stroke="none" stroke-width="0" width="4.9" x="252.5" y="2.5" /><rect fill="black" height="6.3" stroke="none" stroke-width="0" width="6.3" x="261.9" y="1.9" /><rect fill="black" height="8.9" stroke="none" stroke-width="0" width="8.9" x="270.6" y="0.6" /><rect fill="black" height="2.1" stroke="none" stroke-width="0" width="2.1" x="283.9" y="3.9" /><rect fill="black" height="4.2" stroke="none" stroke-width="0" width="4.2" x="292.9" y="2.9" /><rect fill="black" height="7.5" stroke="none" stroke-width="0" width="7.5" x="301.2" y="1.2" /><rect fill="black" height="5.6" stroke="none" stroke-width="0" width="5.6" x="312.2" y="2.2" /><rect fill="black" height="4.3" stroke="none" stroke-width="0" width="4.3" x="322.9" y="2.9" /><rect fill="black" height="4.6" stroke="none" stroke-width="0" width="4.6" x="332.7" y="2.7" /><rect fill="black" height="7.3" stroke="none" stroke-width="0" width="7.3" x="341.4" y="1.4" /><rect fill="black" height="7.8" stroke="none" stroke-width="0" width="7.8" x="351.1" y="1.1" /><rect fill="black" height="7.4" stroke="none" stroke-width="0" width="7.4" x="361.3" y="1.3" /><rect fill="black" height="8.4" stroke="none" stroke-width="0" width="8.4" x="370.8" y="0.8" /><rect fill="black" height="9.3" stroke="none" stroke-width="0" width="9.3" x="380.3" y="0.3" /><rect fill="black" height="8.1" stroke="none" stroke-width="0" width="8.1" x="391.0" y="1.0" /><rect fill="black" height="7.8" stroke="none" stroke-width="0" width="7.8" x="401.1" y="1.1" /><rect fill="black" height="5.2" stroke="none" stroke-width="0" width="5.2" x="412.4" y="2.4" /><rect fill="black" height="6.6" stroke="none" stroke-width="0" width="6.6" x="421.7" y="1.7" /><rect fill="black" height="8.5" stroke="none" stroke-width="0" width="8.5" x="430.8" y="0.8" /><rect fill="black" height="9.3" stroke="none" stroke-width="0" width="9.3" x="440.4" y="0.4" /><rect fill="black" height="8.2" stroke="none" stroke-width="0" width="8.2" x="450.9" y="0.9" /><rect fill="black" height="8.3" stroke="none" stroke-width="0" width="8.3" x="460.9" y="0.9" /><rect fill="black" height="7.7" stroke="none" stroke-width="0" width="7.7" x="471.2" y="1.2" /><rect fill="black" height="7.8" stroke="none" stroke-width="0" width="7.8" x="481.1" y="1.1" /><rect fill="black" height="7.1" stroke="none" stroke-width="0" width="7.1" x="491.4" y="1.4" /><rect fill="black" height="9.5" stroke="none" stroke-width="0" width="9.5" x="500.3" y="0.3" /><rect fill="black" height="8.8" stroke="none" stroke-width="0" width="8.8" x="510.6" y="0.6" /><rect fill="black" height="8.2" stroke="none" stroke-width="0" width="8.2" x="520.9" y="0.9" /><rect fill="black" height="8.7" stroke="none" stroke-width="0" width="8.7" x="530.7" y="0.7" /><rect fill="black" height="9.4" stroke="none" stroke-width="0" width="9.4" x="540.3" y="0.3" /><rect fill="black" height="8.6" stroke="none" stroke-width="0" width="8.6" x="550.7" y="0.7" /><rect fill="black" height="5.4" stroke="none" stroke-width="0" width="5.4" x="562.3" y="2.3" /></g><g><line stroke="black" stroke-width="0.5" x1="5.0" x2="5.0" y1="-6.0" y2="-12.0" /><text dominant-baseline="middle" font-size="8px" text-anchor="middle" x="5.0" y="-24.0">const</text><line stroke="black" stroke-width="0.5" x1="25.0" x2="25.0" y1="-6.0" y2="-12.0" /><text dominant-baseline="middle" font-size="8px" text-anchor="middle" x="25.0" y="-24.0">sin 1</text><line stroke="black" stroke-width="0.5" x1="45.0" x2="45.0" y1="-6.0" y2="-12.0" /><text dominant-baseline="middle" font-size="8px" text-anchor="middle" x="45.0" y="-24.0">sin 2</text><line stroke="black" stroke-width="0.5" x1="65.0" x2="65.0" y1="-6.0" y2="-12.0" /><text dominant-baseline="middle" font-size="8px" text-anchor="middle" x="65.0" y="-24.0">sin 3</text><line stroke="black" stroke-width="0.5" x1="85.0" x2="85.0" y1="-6.0" y2="-12.0" /><text dominant-baseline="middle" font-size="8px" text-anchor="middle" x="85.0" y="-24.0">sin 4</text><line stroke="black" stroke-width="0.5" x1="105.0" x2="105.0" y1="-6.0" y2="-12.0" /><text dominant-baseline="middle" font-size="8px" text-anchor="middle" x="105.0" y="-24.0">sin 5</text><line stroke="black" stroke-width="0.5" x1="125.0" x2="125.0" y1="-6.0" y2="-12.0" /><text dominant-baseline="middle" font-size="8px" text-anchor="middle" x="125.0" y="-24.0">sin 6</text><line stroke="black" stroke-width="0.5" x1="145.0" x2="145.0" y1="-6.0" y2="-12.0" /><text dominant-baseline="middle" font-size="8px" text-anchor="middle" x="145.0" y="-24.0">sin 7</text><line stroke="black" stroke-width="0.5" x1="165.0" x2="165.0" y1="-6.0" y2="-12.0" /><text dominant-baseline="middle" font-size="8px" text-anchor="middle" x="165.0" y="-24.0">sin 8</text><line stroke="black" stroke-width="0.5" x1="185.0" x2="185.0" y1="-6.0" y2="-12.0" /><text dominant-baseline="middle" font-size="8px" text-anchor="middle" x="185.0" y="-24.0">sin 9</text><line stroke="black" stroke-width="0.5" x1="205.0" x2="205.0" y1="-6.0" y2="-12.0" /><text dominant-baseline="middle" font-size="8px" text-anchor="middle" x="205.0" y="-24.0">sin 10</text><line stroke="black" stroke-width="0.5" x1="385.0" x2="385.0" y1="-6.0" y2="-12.0" /><text dominant-baseline="middle" font-size="8px" text-anchor="middle" x="385.0" y="-24.0">sin 19</text><line stroke="black" stroke-width="0.5" x1="405.0" x2="405.0" y1="-6.0" y2="-12.0" /><text dominant-baseline="middle" font-size="8px" text-anchor="middle" x="405.0" y="-24.0">sin 20</text><line stroke="black" stroke-width="0.5" x1="445.0" x2="445.0" y1="-6.0" y2="-12.0" /><text dominant-baseline="middle" font-size="8px" text-anchor="middle" x="445.0" y="-24.0">sin 22</text><line stroke="black" stroke-width="0.5" x1="465.0" x2="465.0" y1="-6.0" y2="-12.0" /><text dominant-baseline="middle" font-size="8px" text-anchor="middle" x="465.0" y="-24.0">sin 23</text><line stroke="black" stroke-width="0.5" x1="485.0" x2="485.0" y1="-6.0" y2="-12.0" /><text dominant-baseline="middle" font-size="8px" text-anchor="middle" x="485.0" y="-24.0">sin 24</text><line stroke="black" stroke-width="0.5" x1="505.0" x2="505.0" y1="-6.0" y2="-12.0" /><text dominant-baseline="middle" font-size="8px" text-anchor="middle" x="505.0" y="-24.0">sin 25</text><line stroke="black" stroke-width="0.5" x1="525.0" x2="525.0" y1="-6.0" y2="-12.0" /><text dominant-baseline="middle" font-size="8px" text-anchor="middle" x="525.0" y="-24.0">sin 26</text><line stroke="black" stroke-width="0.5" x1="545.0" x2="545.0" y1="-6.0" y2="-12.0" /><text dominant-baseline="middle" font-size="8px" text-anchor="middle" x="545.0" y="-24.0">sin 27</text><line stroke="black" stroke-width="0.5" x1="35.0" x2="35.0" y1="16.0" y2="22.0" /><text dominant-baseline="middle" font-size="8px" text-anchor="middle" x="35.0" y="34.0">cos 1</text><line stroke="black" stroke-width="0.5" x1="55.0" x2="55.0" y1="16.0" y2="22.0" /><text dominant-baseline="middle" font-size="8px" text-anchor="middle" x="55.0" y="34.0">cos 2</text><line stroke="black" stroke-width="0.5" x1="75.0" x2="75.0" y1="16.0" y2="22.0" /><text dominant-baseline="middle" font-size="8px" text-anchor="middle" x="75.0" y="34.0">cos 3</text><line stroke="black" stroke-width="0.5" x1="95.0" x2="95.0" y1="16.0" y2="22.0" /><text dominant-baseline="middle" font-size="8px" text-anchor="middle" x="95.0" y="34.0">cos 4</text><line stroke="black" stroke-width="0.5" x1="155.0" x2="155.0" y1="16.0" y2="22.0" /><text dominant-baseline="middle" font-size="8px" text-anchor="middle" x="155.0" y="34.0">cos 7</text><line stroke="black" stroke-width="0.5" x1="175.0" x2="175.0" y1="16.0" y2="22.0" /><text dominant-baseline="middle" font-size="8px" text-anchor="middle" x="175.0" y="34.0">cos 8</text><line stroke="black" stroke-width="0.5" x1="195.0" x2="195.0" y1="16.0" y2="22.0" /><text dominant-baseline="middle" font-size="8px" text-anchor="middle" x="195.0" y="34.0">cos 9</text><line stroke="black" stroke-width="0.5" x1="275.0" x2="275.0" y1="16.0" y2="22.0" /><text dominant-baseline="middle" font-size="8px" text-anchor="middle" x="275.0" y="34.0">cos 13</text><line stroke="black" stroke-width="0.5" x1="355.0" x2="355.0" y1="16.0" y2="22.0" /><text dominant-baseline="middle" font-size="8px" text-anchor="middle" x="355.0" y="34.0">cos 17</text><line stroke="black" stroke-width="0.5" x1="375.0" x2="375.0" y1="16.0" y2="22.0" /><text dominant-baseline="middle" font-size="8px" text-anchor="middle" x="375.0" y="34.0">cos 18</text><line stroke="black" stroke-width="0.5" x1="395.0" x2="395.0" y1="16.0" y2="22.0" /><text dominant-baseline="middle" font-size="8px" text-anchor="middle" x="395.0" y="34.0">cos 19</text><line stroke="black" stroke-width="0.5" x1="435.0" x2="435.0" y1="16.0" y2="22.0" /><text dominant-baseline="middle" font-size="8px" text-anchor="middle" x="435.0" y="34.0">cos 21</text><line stroke="black" stroke-width="0.5" x1="455.0" x2="455.0" y1="16.0" y2="22.0" /><text dominant-baseline="middle" font-size="8px" text-anchor="middle" x="455.0" y="34.0">cos 22</text><line stroke="black" stroke-width="0.5" x1="475.0" x2="475.0" y1="16.0" y2="22.0" /><text dominant-baseline="middle" font-size="8px" text-anchor="middle" x="475.0" y="34.0">cos 23</text><line stroke="black" stroke-width="0.5" x1="515.0" x2="515.0" y1="16.0" y2="22.0" /><text dominant-baseline="middle" font-size="8px" text-anchor="middle" x="515.0" y="34.0">cos 25</text><line stroke="black" stroke-width="0.5" x1="535.0" x2="535.0" y1="16.0" y2="22.0" /><text dominant-baseline="middle" font-size="8px" text-anchor="middle" x="535.0" y="34.0">cos 26</text><line stroke="black" stroke-width="0.5" x1="555.0" x2="555.0" y1="16.0" y2="22.0" /><text dominant-baseline="middle" font-size="8px" text-anchor="middle" x="555.0" y="34.0">cos 27</text></g></svg>