<?xml version="1.0" encoding="utf-8" ?>
<svg baseProfile="full" height="100%" preserveAspectRatio="xMidYMid meet" version="1.1" viewBox="-40,-40,580,170" width="100%" xmlns="http://www.w3.org/2000/svg" xmlns:ev="http://www.w3.org/2001/xml-events" xmlns:xlink="http://www.w3.org/1999/xlink"><defs><style type="text/css"><![CDATA[
        @import url(https://cdn.jsdelivr.net/npm/firacode@6.2.0/distr/fira_code.css);
        text {
            font-family: 'STIX Two', 'STIX Two Math', 'STIXMath', 'DejaVu Math TeX Glyph',
                        'DejaVu Serif', 'Cambria Math', 'Latin Modern Math', 'FiraCode',
                        'serif';
        }
    ]]></style><style type="text/css"><![CDATA[
        @import url(https://cdn.jsdelivr.net/npm/firacode@6.2.0/distr/fira_code.css);
        text {
            font-family: 'STIX Two', 'STIX Two Math', 'STIXMath', 'DejaVu Math TeX Glyph',
                        'DejaVu Serif', 'Cambria Math', 'Latin Modern Math', 'FiraCode',
                        'serif';
        }
    ]]></style></defs><g><rect fill="black" height="8.1" stroke="none" stroke-width="0" width="8.1" x="1.0" y="1.0" /><rect fill="black" height="8.3" stroke="none" stroke-width="0" width="8.3" x="10.9" y="0.9" /><rect fill="black" height="9.5" stroke="none" stroke-width="0" width="9.5" x="20.2" y="0.2" /><rect fill="black" height="8.7" stroke="none" stroke-width="0" width="8.7" x="30.6" y="0.6" /><rect fill="black" height="8.7" stroke="none" stroke-width="0" width="8.7" x="40.6" y="0.6" /><rect fill="black" height="7.9" stroke="none" stroke-width="0" width="7.9" x="51.0" y="1.0" /><rect fill="black" height="7.6" stroke="none" stroke-width="0" width="7.6" x="61.2" y="1.2" /><rect fill="black" height="7.2" stroke="none" stroke-width="0" width="7.2" x="71.4" y="1.4" /><rect fill="black" height="7.4" stroke="none" stroke-width="0" width="7.4" x="81.3" y="1.3" /><rect fill="black" height="6.8" stroke="none" stroke-width="0" width="6.8" x="91.6" y="1.6" /><rect fill="black" height="6.2" stroke="none" stroke-width="0" width="6.2" x="101.9" y="1.9" /><rect fill="black" height="5.4" stroke="none" stroke-width="0" width="5.4" x="112.3" y="2.3" /><rect fill="black" height="4.3" stroke="none" stroke-width="0" width="4.3" x="122.8" y="2.8" /><rect fill="black" height="4.1" stroke="none" stroke-width="0" width="4.1" x="132.9" y="2.9" /><rect fill="black" height="4.1" stroke="none" stroke-width="0" width="4.1" x="143.0" y="3.0" /><rect fill="black" height="4.5" stroke="none" stroke-width="0" width="4.5" x="152.8" y="2.8" /><rect fill="black" height="3.5" stroke="none" stroke-width="0" width="3.5" x="163.3" y="3.3" /><rect fill="black" height="3.1" stroke="none" stroke-width="0" width="3.1" x="173.4" y="3.4" /><rect fill="black" height="2.9" stroke="none" stroke-width="0" width="2.9" x="183.6" y="3.6" /><rect fill="black" height="3.3" stroke="none" stroke-width="0" width="3.3" x="193.3" y="3.3" /><rect fill="black" height="2.6" stroke="none" stroke-width="0" width="2.6" x="203.7" y="3.7" /><rect fill="black" height="2.7" stroke="none" stroke-width="0" width="2.7" x="213.7" y="3.7" /><rect fill="black" height="2.7" stroke="none" stroke-width="0" width="2.7" x="223.6" y="3.6" /><rect fill="black" height="2.5" stroke="none" stroke-width="0" width="2.5" x="233.7" y="3.7" /><rect fill="black" height="2.3" stroke="none" stroke-width="0" width="2.3" x="243.8" y="3.8" /><rect fill="black" height="2.9" stroke="none" stroke-width="0" width="2.9" x="253.6" y="3.6" /><rect fill="black" height="2.3" stroke="none" stroke-width="0" width="2.3" x="263.8" y="3.8" /><rect fill="black" height="2.1" stroke="none" stroke-width="0" width="2.1" x="273.9" y="3.9" /><rect fill="black" height="2.1" stroke="none" stroke-width="0" width="2.1" x="283.9" y="3.9" /><rect fill="black" height="2.1" stroke="none" stroke-width="0" width="2.1" x="293.9" y="3.9" /><rect fill="black" height="2.3" stroke="none" stroke-width="0" width="2.3" x="303.8" y="3.8" /><rect fill="black" height="2.1" stroke="none" stroke-width="0" width="2.1" x="313.9" y="3.9" /><rect fill="black" height="2.1" stroke="none" stroke-width="0" width="2.1" x="323.9" y="3.9" /><rect fill="black" height="2.1" stroke="none" stroke-width="0" width="2.1" x="333.9" y="3.9" /><rect fill="black" height="2.1" stroke="none" stroke-width="0" width="2.1" x="343.9" y="3.9" /><rect fill="black" height="2.5" stroke="none" stroke-width="0" width="2.5" x="353.7" y="3.7" /><rect fill="black" height="2.1" stroke="none" stroke-width="0" width="2.1" x="363.9" y="3.9" /><rect fill="black" height="2.1" stroke="none" stroke-width="0" width="2.1" x="373.9" y="3.9" /><rect fill="black" height="2.1" stroke="none" stroke-width="0" width="2.1" x="383.9" y="3.9" /><rect fill="black" height="2.1" stroke="none" stroke-width="0" width="2.1" x="393.9" y="3.9" /><rect fill="black" height="2.2" stroke="none" stroke-width="0" width="2.2" x="403.9" y="3.9" /><rect fill="black" height="2.1" stroke="none" stroke-width="0" width="2.1" x="413.9" y="3.9" /><rect fill="black" height="2.1" stroke="none" stroke-width="0" width="2.1" x="423.9" y="3.9" /><rect fill="black" height="2.1" stroke="none" stroke-width="0" width="2.1" x="433.9" y="3.9" /><rect fill="black" height="2.1" stroke="none" stroke-width="0" width="2.1" x="443.9" y="3.9" /><rect fill="black" height="2.1" stroke="none" stroke-width="0" width="2.1" x="453.9" y="3.9" /><rect fill="black" height="2.1" stroke="none" stroke-width="0" width="2.1" x="463.9" y="3.9" /><rect fill="black" height="2.1" stroke="none" stroke-width="0" width="2.1" x="473.9" y="3.9" /><rect fill="black" height="2.2" stroke="none" stroke-width="0" width="2.2" x="483.9" y="3.9" /><rect fill="black" height="2.1" stroke="none" stroke-width="0" width="2.1" x="493.9" y="3.9" /><rect fill="black" height="6.5" stroke="none" stroke-width="0" width="6.5" x="1.7" y="11.7" /><rect fill="black" height="8.2" stroke="none" stroke-width="0" width="8.2" x="10.9" y="10.9" /><rect fill="black" height="9.4" stroke="none" stroke-width="0" width="9.4" x="20.3" y="10.3" /><rect fill="black" height="9.3" stroke="none" stroke-width="0" width="9.3" x="30.3" y="10.3" /><rect fill="black" height="9.5" stroke="none" stroke-width="0" width="9.5" x="40.2" y="10.2" /><rect fill="black" height="8.9" stroke="none" stroke-width="0" width="8.9" x="50.6" y="10.6" /><rect fill="black" height="8.5" stroke="none" stroke-width="0" width="8.5" x="60.7" y="10.7" /><rect fill="black" height="8.5" stroke="none" stroke-width="0" width="8.5" x="70.8" y="10.8" /><rect fill="black" height="8.5" stroke="none" stroke-width="0" width="8.5" x="80.8" y="10.8" /><rect fill="black" height="9.1" stroke="none" stroke-width="0" width="9.1" x="90.4" y="10.4" /><rect fill="black" height="8.3" stroke="none" stroke-width="0" width="8.3" x="100.9" y="10.9" /><rect fill="black" height="7.2" stroke="none" stroke-width="0" width="7.2" x="111.4" y="11.4" /><rect fill="black" height="6.1" stroke="none" stroke-width="0" width="6.1" x="121.9" y="11.9" /><rect fill="black" height="6.0" stroke="none" stroke-width="0" width="6.0" x="132.0" y="12.0" /><rect fill="black" height="6.6" stroke="none" stroke-width="0" width="6.6" x="141.7" y="11.7" /><rect fill="black" height="6.6" stroke="none" stroke-width="0" width="6.6" x="151.7" y="11.7" /><rect fill="black" height="5.6" stroke="none" stroke-width="0" width="5.6" x="162.2" y="12.2" /><rect fill="black" height="5.3" stroke="none" stroke-width="0" width="5.3" x="172.3" y="12.3" /><rect fill="black" height="4.9" stroke="none" stroke-width="0" width="4.9" x="182.5" y="12.5" /><rect fill="black" height="5.4" stroke="none" stroke-width="0" width="5.4" x="192.3" y="12.3" /><rect fill="black" height="4.3" stroke="none" stroke-width="0" width="4.3" x="202.8" y="12.8" /><rect fill="black" height="4.8" stroke="none" stroke-width="0" width="4.8" x="212.6" y="12.6" /><rect fill="black" height="4.4" stroke="none" stroke-width="0" width="4.4" x="222.8" y="12.8" /><rect fill="black" height="4.3" stroke="none" stroke-width="0" width="4.3" x="232.8" y="12.8" /><rect fill="black" height="3.4" stroke="none" stroke-width="0" width="3.4" x="243.3" y="13.3" /><rect fill="black" height="4.5" stroke="none" stroke-width="0" width="4.5" x="252.7" y="12.7" /><rect fill="black" height="4.4" stroke="none" stroke-width="0" width="4.4" x="262.8" y="12.8" /><rect fill="black" height="2.9" stroke="none" stroke-width="0" width="2.9" x="273.5" y="13.5" /><rect fill="black" height="3.4" stroke="none" stroke-width="0" width="3.4" x="283.3" y="13.3" /><rect fill="black" height="3.4" stroke="none" stroke-width="0" width="3.4" x="293.3" y="13.3" /><rect fill="black" height="3.7" stroke="none" stroke-width="0" width="3.7" x="303.1" y="13.1" /><rect fill="black" height="2.8" stroke="none" stroke-width="0" width="2.8" x="313.6" y="13.6" /><rect fill="black" height="3.4" stroke="none" stroke-width="0" width="3.4" x="323.3" y="13.3" /><rect fill="black" height="3.1" stroke="none" stroke-width="0" width="3.1" x="333.5" y="13.5" /><rect fill="black" height="3.4" stroke="none" stroke-width="0" width="3.4" x="343.3" y="13.3" /><rect fill="black" height="4.2" stroke="none" stroke-width="0" width="4.2" x="352.9" y="12.9" /><rect fill="black" height="2.7" stroke="none" stroke-width="0" width="2.7" x="363.7" y="13.7" /><rect fill="black" height="3.1" stroke="none" stroke-width="0" width="3.1" x="373.5" y="13.5" /><rect fill="black" height="3.3" stroke="none" stroke-width="0" width="3.3" x="383.3" y="13.3" /><rect fill="black" height="2.2" stroke="none" stroke-width="0" width="2.2" x="393.9" y="13.9" /><rect fill="black" height="3.7" stroke="none" stroke-width="0" width="3.7" x="403.2" y="13.2" /><rect fill="black" height="3.1" stroke="none" stroke-width="0" width="3.1" x="413.5" y="13.5" /><rect fill="black" height="3.1" stroke="none" stroke-width="0" width="3.1" x="423.4" y="13.4" /><rect fill="black" height="2.8" stroke="none" stroke-width="0" width="2.8" x="433.6" y="13.6" /><rect fill="black" height="2.7" stroke="none" stroke-width="0" width="2.7" x="443.7" y="13.7" /><rect fill="black" height="2.7" stroke="none" stroke-width="0" width="2.7" x="453.7" y="13.7" /><rect fill="black" height="2.1" stroke="none" stroke-width="0" width="2.1" x="463.9" y="13.9" /><rect fill="black" height="2.4" stroke="none" stroke-width="0" width="2.4" x="473.8" y="13.8" /><rect fill="black" height="3.2" stroke="none" stroke-width="0" width="3.2" x="483.4" y="13.4" /><rect fill="black" height="2.2" stroke="none" stroke-width="0" width="2.2" x="493.9" y="13.9" /><rect fill="black" height="9.5" stroke="none" stroke-width="0" width="9.5" x="0.2" y="20.2" /><rect fill="black" height="5.7" stroke="none" stroke-width="0" width="5.7" x="12.1" y="22.1" /><rect fill="black" height="8.5" stroke="none" stroke-width="0" width="8.5" x="20.7" y="20.7" /><rect fill="black" height="6.4" stroke="none" stroke-width="0" width="6.4" x="31.8" y="21.8" /><rect fill="black" height="7.0" stroke="none" stroke-width="0" width="7.0" x="41.5" y="21.5" /><rect fill="black" height="3.8" stroke="none" stroke-width="0" width="3.8" x="53.1" y="23.1" /><rect fill="black" height="3.5" stroke="none" stroke-width="0" width="3.5" x="63.2" y="23.2" /><rect fill="black" height="2.7" stroke="none" stroke-width="0" width="2.7" x="73.7" y="23.7" /><rect fill="black" height="3.6" stroke="none" stroke-width="0" width="3.6" x="83.2" y="23.2" /><rect fill="black" height="2.2" stroke="none" stroke-width="0" width="2.2" x="93.9" y="23.9" /><rect fill="black" height="2.1" stroke="none" stroke-width="0" width="2.1" x="103.9" y="23.9" /><rect fill="black" height="2.1" stroke="none" stroke-width="0" width="2.1" x="113.9" y="23.9" /><rect fill="black" height="2.1" stroke="none" stroke-width="0" width="2.1" x="123.9" y="23.9" /><rect fill="black" height="2.1" stroke="none" stroke-width="0" width="2.1" x="133.9" y="23.9" /><rect fill="black" height="2.1" stroke="none" stroke-width="0" width="2.1" x="143.9" y="23.9" /><rect fill="black" height="2.1" stroke="none" stroke-width="0" width="2.1" x="153.9" y="23.9" /><rect fill="black" height="2.1" stroke="none" stroke-width="0" width="2.1" x="163.9" y="23.9" /><rect fill="black" height="2.1" stroke="none" stroke-width="0" width="2.1" x="173.9" y="23.9" /><rect fill="black" height="2.1" stroke="none" stroke-width="0" width="2.1" x="183.9" y="23.9" /><rect fill="black" height="2.1" stroke="none" stroke-width="0" width="2.1" x="193.9" y="23.9" /><rect fill="black" height="2.1" stroke="none" stroke-width="0" width="2.1" x="203.9" y="23.9" /><rect fill="black" height="2.1" stroke="none" stroke-width="0" width="2.1" x="213.9" y="23.9" /><rect fill="black" height="2.1" stroke="none" stroke-width="0" width="2.1" x="223.9" y="23.9" /><rect fill="black" height="2.1" stroke="none" stroke-width="0" width="2.1" x="233.9" y="23.9" /><rect fill="black" height="2.1" stroke="none" stroke-width="0" width="2.1" x="243.9" y="23.9" /><rect fill="black" height="2.1" stroke="none" stroke-width="0" width="2.1" x="253.9" y="23.9" /><rect fill="black" height="2.1" stroke="none" stroke-width="0" width="2.1" x="263.9" y="23.9" /><rect fill="black" height="2.1" stroke="none" stroke-width="0" width="2.1" x="273.9" y="23.9" /><rect fill="black" height="2.1" stroke="none" stroke-width="0" width="2.1" x="283.9" y="23.9" /><rect fill="black" height="2.1" stroke="none" stroke-width="0" width="2.1" x="293.9" y="23.9" /><rect fill="black" height="2.1" stroke="none" stroke-width="0" width="2.1" x="303.9" y="23.9" /><rect fill="black" height="2.1" stroke="none" stroke-width="0" width="2.1" x="313.9" y="23.9" /><rect fill="black" height="2.1" stroke="none" stroke-width="0" width="2.1" x="323.9" y="23.9" /><rect fill="black" height="2.1" stroke="none" stroke-width="0" width="2.1" x="333.9" y="23.9" /><rect fill="black" height="2.1" stroke="none" stroke-width="0" width="2.1" x="343.9" y="23.9" /><rect fill="black" height="2.1" stroke="none" stroke-width="0" width="2.1" x="353.9" y="23.9" /><rect fill="black" height="2.1" stroke="none" stroke-width="0" width="2.1" x="363.9" y="23.9" /><rect fill="black" height="2.1" stroke="none" stroke-width="0" width="2.1" x="373.9" y="23.9" /><rect fill="black" height="2.1" stroke="none" stroke-width="0" width="2.1" x="383.9" y="23.9" /><rect fill="black" height="2.1" stroke="none" stroke-width="0" width="2.1" x="393.9" y="23.9" /><rect fill="black" height="2.1" stroke="none" stroke-width="0" width="2.1" x="403.9" y="23.9" /><rect fill="black" height="2.1" stroke="none" stroke-width="0" width="2.1" x="413.9" y="23.9" /><rect fill="black" height="2.1" stroke="none" stroke-width="0" width="2.1" x="423.9" y="23.9" /><rect fill="black" height="2.1" stroke="none" stroke-width="0" width="2.1" x="433.9" y="23.9" /><rect fill="black" height="2.1" stroke="none" stroke-width="0" width="2.1" x="443.9" y="23.9" /><rect fill="black" height="2.1" stroke="none" stroke-width="0" width="2.1" x="453.9" y="23.9" /><rect fill="black" height="2.1" stroke="none" stroke-width="0" width="2.1" x="463.9" y="23.9" /><rect fill="black" height="2.1" stroke="none" stroke-width="0" width="2.1" x="473.9" y="23.9" /><rect fill="black" height="2.1" stroke="none" stroke-width="0" width="2.1" x="483.9" y="23.9" /><rect fill="black" height="2.1" stroke="none" stroke-width="0" width="2.1" x="493.9" y="23.9" /><rect fill="black" height="8.6" stroke="none" stroke-width="0" width="8.6" x="0.7" y="30.7" /><rect fill="black" height="9.1" stroke="none" stroke-width="0" width="9.1" x="10.5" y="30.5" /><rect fill="black" height="9.5" stroke="none" stroke-width="0" width="9.5" x="20.2" y="30.2" /><rect fill="black" height="9.3" stroke="none" stroke-width="0" width="9.3" x="30.3" y="30.3" /><rect fill="black" height="9.1" stroke="none" stroke-width="0" width="9.1" x="40.4" y="30.4" /><rect fill="black" height="8.4" stroke="none" stroke-width="0" width="8.4" x="50.8" y="30.8" /><rect fill="black" height="8.0" stroke="none" stroke-width="0" width="8.0" x="61.0" y="31.0" /><rect fill="black" height="7.9" stroke="none" stroke-width="0" width="7.9" x="71.0" y="31.0" /><rect fill="black" height="7.8" stroke="none" stroke-width="0" width="7.8" x="81.1" y="31.1" /><rect fill="black" height="8.5" stroke="none" stroke-width="0" width="8.5" x="90.8" y="30.8" /><rect fill="black" height="7.6" stroke="none" stroke-width="0" width="7.6" x="101.2" y="31.2" /><rect fill="black" height="6.5" stroke="none" stroke-width="0" width="6.5" x="111.7" y="31.7" /><rect fill="black" height="5.6" stroke="none" stroke-width="0" width="5.6" x="122.2" y="32.2" /><rect fill="black" height="5.4" stroke="none" stroke-width="0" width="5.4" x="132.3" y="32.3" /><rect fill="black" height="6.1" stroke="none" stroke-width="0" width="6.1" x="142.0" y="32.0" /><rect fill="black" height="6.0" stroke="none" stroke-width="0" width="6.0" x="152.0" y="32.0" /><rect fill="black" height="5.1" stroke="none" stroke-width="0" width="5.1" x="162.5" y="32.5" /><rect fill="black" height="4.7" stroke="none" stroke-width="0" width="4.7" x="172.7" y="32.7" /><rect fill="black" height="4.3" stroke="none" stroke-width="0" width="4.3" x="182.9" y="32.9" /><rect fill="black" height="4.7" stroke="none" stroke-width="0" width="4.7" x="192.6" y="32.6" /><rect fill="black" height="3.7" stroke="none" stroke-width="0" width="3.7" x="203.2" y="33.2" /><rect fill="black" height="4.1" stroke="none" stroke-width="0" width="4.1" x="212.9" y="32.9" /><rect fill="black" height="3.7" stroke="none" stroke-width="0" width="3.7" x="223.2" y="33.2" /><rect fill="black" height="3.6" stroke="none" stroke-width="0" width="3.6" x="233.2" y="33.2" /><rect fill="black" height="2.7" stroke="none" stroke-width="0" width="2.7" x="243.6" y="33.6" /><rect fill="black" height="3.7" stroke="none" stroke-width="0" width="3.7" x="253.1" y="33.1" /><rect fill="black" height="3.6" stroke="none" stroke-width="0" width="3.6" x="263.2" y="33.2" /><rect fill="black" height="2.3" stroke="none" stroke-width="0" width="2.3" x="273.9" y="33.9" /><rect fill="black" height="2.7" stroke="none" stroke-width="0" width="2.7" x="283.7" y="33.7" /><rect fill="black" height="2.7" stroke="none" stroke-width="0" width="2.7" x="293.7" y="33.7" /><rect fill="black" height="2.9" stroke="none" stroke-width="0" width="2.9" x="303.5" y="33.5" /><rect fill="black" height="2.2" stroke="none" stroke-width="0" width="2.2" x="313.9" y="33.9" /><rect fill="black" height="2.5" stroke="none" stroke-width="0" width="2.5" x="323.7" y="33.7" /><rect fill="black" height="2.3" stroke="none" stroke-width="0" width="2.3" x="333.9" y="33.9" /><rect fill="black" height="2.6" stroke="none" stroke-width="0" width="2.6" x="343.7" y="33.7" /><rect fill="black" height="3.2" stroke="none" stroke-width="0" width="3.2" x="353.4" y="33.4" /><rect fill="black" height="2.1" stroke="none" stroke-width="0" width="2.1" x="363.9" y="33.9" /><rect fill="black" height="2.3" stroke="none" stroke-width="0" width="2.3" x="373.9" y="33.9" /><rect fill="black" height="2.5" stroke="none" stroke-width="0" width="2.5" x="383.7" y="33.7" /><rect fill="black" height="2.1" stroke="none" stroke-width="0" width="2.1" x="393.9" y="33.9" /><rect fill="black" height="2.8" stroke="none" stroke-width="0" width="2.8" x="403.6" y="33.6" /><rect fill="black" height="2.2" stroke="none" stroke-width="0" width="2.2" x="413.9" y="33.9" /><rect fill="black" height="2.3" stroke="none" stroke-width="0" width="2.3" x="423.9" y="33.9" /><rect fill="black" height="2.1" stroke="none" stroke-width="0" width="2.1" x="433.9" y="33.9" /><rect fill="black" height="2.1" stroke="none" stroke-width="0" width="2.1" x="443.9" y="33.9" /><rect fill="black" height="2.1" stroke="none" stroke-width="0" width="2.1" x="453.9" y="33.9" /><rect fill="black" height="2.1" stroke="none" stroke-width="0" width="2.1" x="463.9" y="33.9" /><rect fill="black" height="2.1" stroke="none" stroke-width="0" width="2.1" x="473.9" y="33.9" /><rect fill="black" height="2.4" stroke="none" stroke-width="0" width="2.4" x="483.8" y="33.8" /><rect fill="black" height="2.1" stroke="none" stroke-width="0" width="2.1" x="493.9" y="33.9" /><rect fill="black" height="9.5" stroke="none" stroke-width="0" width="9.5" x="0.2" y="40.2" /><rect fill="black" height="6.0" stroke="none" stroke-width="0" width="6.0" x="12.0" y="42.0" /><rect fill="black" height="6.4" stroke="none" stroke-width="0" width="6.4" x="21.8" y="41.8" /><rect fill="black" height="3.6" stroke="none" stroke-width="0" width="3.6" x="33.2" y="43.2" /><rect fill="black" height="5.2" stroke="none" stroke-width="0" width="5.2" x="42.4" y="42.4" /><rect fill="black" height="3.7" stroke="none" stroke-width="0" width="3.7" x="53.2" y="43.2" /><rect fill="black" height="2.8" stroke="none" stroke-width="0" width="2.8" x="63.6" y="43.6" /><rect fill="black" height="3.3" stroke="none" stroke-width="0" width="3.3" x="73.4" y="43.4" /><rect fill="black" height="2.1" stroke="none" stroke-width="0" width="2.1" x="83.9" y="43.9" /><rect fill="black" height="2.1" stroke="none" stroke-width="0" width="2.1" x="93.9" y="43.9" /><rect fill="black" height="2.1" stroke="none" stroke-width="0" width="2.1" x="103.9" y="43.9" /><rect fill="black" height="2.1" stroke="none" stroke-width="0" width="2.1" x="113.9" y="43.9" /><rect fill="black" height="2.1" stroke="none" stroke-width="0" width="2.1" x="123.9" y="43.9" /><rect fill="black" height="2.1" stroke="none" stroke-width="0" width="2.1" x="133.9" y="43.9" /><rect fill="black" height="2.1" stroke="none" stroke-width="0" width="2.1" x="143.9" y="43.9" /><rect fill="black" height="2.1" stroke="none" stroke-width="0" width="2.1" x="153.9" y="43.9" /><rect fill="black" height="2.1" stroke="none" stroke-width="0" width="2.1" x="163.9" y="43.9" /><rect fill="black" height="2.1" stroke="none" stroke-width="0" width="2.1" x="173.9" y="43.9" /><rect fill="black" height="2.1" stroke="none" stroke-width="0" width="2.1" x="183.9" y="43.9" /><rect fill="black" height="2.1" stroke="none" stroke-width="0" width="2.1" x="193.9" y="43.9" /><rect fill="black" height="2.1" stroke="none" stroke-width="0" width="2.1" x="203.9" y="43.9" /><rect fill="black" height="2.1" stroke="none" stroke-width="0" width="2.1" x="213.9" y="43.9" /><rect fill="black" height="2.1" stroke="none" stroke-width="0" width="2.1" x="223.9" y="43.9" /><rect fill="black" height="2.1" stroke="none" stroke-width="0" width="2.1" x="233.9" y="43.9" /><rect fill="black" height="2.1" stroke="none" stroke-width="0" width="2.1" x="243.9" y="43.9" /><rect fill="black" height="2.1" stroke="none" stroke-width="0" width="2.1" x="253.9" y="43.9" /><rect fill="black" height="2.1" stroke="none" stroke-width="0" width="2.1" x="263.9" y="43.9" /><rect fill="black" height="2.1" stroke="none" stroke-width="0" width="2.1" x="273.9" y="43.9" /><rect fill="black" height="2.1" stroke="none" stroke-width="0" width="2.1" x="283.9" y="43.9" /><rect fill="black" height="2.1" stroke="none" stroke-width="0" width="2.1" x="293.9" y="43.9" /><rect fill="black" height="2.1" stroke="none" stroke-width="0" width="2.1" x="303.9" y="43.9" /><rect fill="black" height="2.1" stroke="none" stroke-width="0" width="2.1" x="313.9" y="43.9" /><rect fill="black" height="2.1" stroke="none" stroke-width="0" width="2.1" x="323.9" y="43.9" /><rect fill="black" height="2.1" stroke="none" stroke-width="0" width="2.1" x="333.9" y="43.9" /><rect fill="black" height="2.1" stroke="none" stroke-width="0" width="2.1" x="343.9" y="43.9" /><rect fill="black" height="2.1" stroke="none" stroke-width="0" width="2.1" x="353.9" y="43.9" /><rect fill="black" height="2.1" stroke="none" stroke-width="0" width="2.1" x="363.9" y="43.9" /><rect fill="black" height="2.1" stroke="none" stroke-width="0" width="2.1" x="373.9" y="43.9" /><rect fill="black" height="2.1" stroke="none" stroke-width="0" width="2.1" x="383.9" y="43.9" /><rect fill="black" height="2.1" stroke="none" stroke-width="0" width="2.1" x="393.9" y="43.9" /><rect fill="black" height="2.1" stroke="none" stroke-width="0" width="2.1" x="403.9" y="43.9" /><rect fill="black" height="2.1" stroke="none" stroke-width="0" width="2.1" x="413.9" y="43.9" /><rect fill="black" height="2.1" stroke="none" stroke-width="0" width="2.1" x="423.9" y="43.9" /><rect fill="black" height="2.1" stroke="none" stroke-width="0" width="2.1" x="433.9" y="43.9" /><rect fill="black" height="2.1" stroke="none" stroke-width="0" width="2.1" x="443.9" y="43.9" /><rect fill="black" height="2.1" stroke="none" stroke-width="0" width="2.1" x="453.9" y="43.9" /><rect fill="black" height="2.1" stroke="none" stroke-width="0" width="2.1" x="463.9" y="43.9" /><rect fill="black" height="2.1" stroke="none" stroke-width="0" width="2.1" x="473.9" y="43.9" /><rect fill="black" height="2.1" stroke="none" stroke-width="0" width="2.1" x="483.9" y="43.9" /><rect fill="black" height="2.1" stroke="none" stroke-width="0" width="2.1" x="493.9" y="43.9" /><rect fill="black" height="7.7" stroke="none" stroke-width="0" width="7.7" x="1.1" y="51.1" /><rect fill="black" height="9.5" stroke="none" stroke-width="0" width="9.5" x="10.2" y="50.2" /><rect fill="black" height="9.2" stroke="none" stroke-width="0" width="9.2" x="20.4" y="50.4" /><rect fill="black" height="7.9" stroke="none" stroke-width="0" width="7.9" x="31.0" y="51.0" /><rect fill="black" height="7.1" stroke="none" stroke-width="0" width="7.1" x="41.4" y="51.4" /><rect fill="black" height="6.4" stroke="none" stroke-width="0" width="6.4" x="51.8" y="51.8" /><rect fill="black" height="5.5" stroke="none" stroke-width="0" width="5.5" x="62.3" y="52.3" /><rect fill="black" height="5.0" stroke="none" stroke-width="0" width="5.0" x="72.5" y="52.5" /><rect fill="black" height="4.4" stroke="none" stroke-width="0" width="4.4" x="82.8" y="52.8" /><rect fill="black" height="4.4" stroke="none" stroke-width="0" width="4.4" x="92.8" y="52.8" /><rect fill="black" height="3.7" stroke="none" stroke-width="0" width="3.7" x="103.2" y="53.2" /><rect fill="black" height="3.0" stroke="none" stroke-width="0" width="3.0" x="113.5" y="53.5" /><rect fill="black" height="2.4" stroke="none" stroke-width="0" width="2.4" x="123.8" y="53.8" /><rect fill="black" height="2.2" stroke="none" stroke-width="0" width="2.2" x="133.9" y="53.9" /><rect fill="black" height="2.4" stroke="none" stroke-width="0" width="2.4" x="143.8" y="53.8" /><rect fill="black" height="2.3" stroke="none" stroke-width="0" width="2.3" x="153.8" y="53.8" /><rect fill="black" height="2.1" stroke="none" stroke-width="0" width="2.1" x="163.9" y="53.9" /><rect fill="black" height="2.1" stroke="none" stroke-width="0" width="2.1" x="173.9" y="53.9" /><rect fill="black" height="2.1" stroke="none" stroke-width="0" width="2.1" x="183.9" y="53.9" /><rect fill="black" height="2.1" stroke="none" stroke-width="0" width="2.1" x="193.9" y="53.9" /><rect fill="black" height="2.1" stroke="none" stroke-width="0" width="2.1" x="203.9" y="53.9" /><rect fill="black" height="2.1" stroke="none" stroke-width="0" width="2.1" x="213.9" y="53.9" /><rect fill="black" height="2.1" stroke="none" stroke-width="0" width="2.1" x="223.9" y="53.9" /><rect fill="black" height="2.1" stroke="none" stroke-width="0" width="2.1" x="233.9" y="53.9" /><rect fill="black" height="2.1" stroke="none" stroke-width="0" width="2.1" x="243.9" y="53.9" /><rect fill="black" height="2.1" stroke="none" stroke-width="0" width="2.1" x="253.9" y="53.9" /><rect fill="black" height="2.1" stroke="none" stroke-width="0" width="2.1" x="263.9" y="53.9" /><rect fill="black" height="2.1" stroke="none" stroke-width="0" width="2.1" x="273.9" y="53.9" /><rect fill="black" height="2.1" stroke="none" stroke-width="0" width="2.1" x="283.9" y="53.9" /><rect fill="black" height="2.1" stroke="none" stroke-width="0" width="2.1" x="293.9" y="53.9" /><rect fill="black" height="2.1" stroke="none" stroke-width="0" width="2.1" x="303.9" y="53.9" /><rect fill="black" height="2.1" stroke="none" stroke-width="0" width="2.1" x="313.9" y="53.9" /><rect fill="black" height="2.1" stroke="none" stroke-width="0" width="2.1" x="323.9" y="53.9" /><rect fill="black" height="2.1" stroke="none" stroke-width="0" width="2.1" x="333.9" y="53.9" /><rect fill="black" height="2.1" stroke="none" stroke-width="0" width="2.1" x="343.9" y="53.9" /><rect fill="black" height="2.1" stroke="none" stroke-width="0" width="2.1" x="353.9" y="53.9" /><rect fill="black" height="2.1" stroke="none" stroke-width="0" width="2.1" x="363.9" y="53.9" /><rect fill="black" height="2.1" stroke="none" stroke-width="0" width="2.1" x="373.9" y="53.9" /><rect fill="black" height="2.1" stroke="none" stroke-width="0" width="2.1" x="383.9" y="53.9" /><rect fill="black" height="2.1" stroke="none" stroke-width="0" width="2.1" x="393.9" y="53.9" /><rect fill="black" height="2.1" stroke="none" stroke-width="0" width="2.1" x="403.9" y="53.9" /><rect fill="black" height="2.1" stroke="none" stroke-width="0" width="2.1" x="413.9" y="53.9" /><rect fill="black" height="2.1" stroke="none" stroke-width="0" width="2.1" x="423.9" y="53.9" /><rect fill="black" height="2.1" stroke="none" stroke-width="0" width="2.1" x="433.9" y="53.9" /><rect fill="black" height="2.1" stroke="none" stroke-width="0" width="2.1" x="443.9" y="53.9" /><rect fill="black" height="2.1" stroke="none" stroke-width="0" width="2.1" x="453.9" y="53.9" /><rect fill="black" height="2.1" stroke="none" stroke-width="0" width="2.1" x="463.9" y="53.9" /><rect fill="black" height="2.1" stroke="none" stroke-width="0" width="2.1" x="473.9" y="53.9" /><rect fill="black" height="2.1" stroke="none" stroke-width="0" width="2.1" x="483.9" y="53.9" /><rect fill="black" height="2.1" stroke="none" stroke-width="0" width="2.1" x="493.9" y="53.9" /><rect fill="black" height="5.2" stroke="none" stroke-width="0" width="5.2" x="2.4" y="62.4" /><rect fill="black" height="7.3" stroke="none" stroke-width="0" width="7.3" x="11.4" y="61.4" /><rect fill="black" height="8.7" stroke="none" stroke-width="0" width="8.7" x="20.6" y="60.6" /><rect fill="black" height="9.1" stroke="none" stroke-width="0" width="9.1" x="30.4" y="60.4" /><rect fill="black" height="9.5" stroke="none" stroke-width="0" width="9.5" x="40.3" y="60.3" /><rect fill="black" height="9.1" stroke="none" stroke-width="0" width="9.1" x="50.5" y="60.5" /><rect fill="black" height="8.9" stroke="none" stroke-width="0" width="8.9" x="60.6" y="60.6" /><rect fill="black" height="8.8" stroke="none" stroke-width="0" width="8.8" x="70.6" y="60.6" /><rect fill="black" height="9.0" stroke="none" stroke-width="0" width="9.0" x="80.5" y="60.5" /><rect fill="black" height="9.5" stroke="none" stroke-width="0" width="9.5" x="90.2" y="60.2" /><rect fill="black" height="9.0" stroke="none" stroke-width="0" width="9.0" x="100.5" y="60.5" /><rect fill="black" height="7.8" stroke="none" stroke-width="0" width="7.8" x="111.1" y="61.1" /><rect fill="black" height="6.7" stroke="none" stroke-width="0" width="6.7" x="121.6" y="61.6" /><rect fill="black" height="6.6" stroke="none" stroke-width="0" width="6.6" x="131.7" y="61.7" /><rect fill="black" height="7.4" stroke="none" stroke-width="0" width="7.4" x="141.3" y="61.3" /><rect fill="black" height="7.3" stroke="none" stroke-width="0" width="7.3" x="151.4" y="61.4" /><rect fill="black" height="6.4" stroke="none" stroke-width="0" width="6.4" x="161.8" y="61.8" /><rect fill="black" height="5.9" stroke="none" stroke-width="0" width="5.9" x="172.1" y="62.1" /><rect fill="black" height="5.5" stroke="none" stroke-width="0" width="5.5" x="182.3" y="62.3" /><rect fill="black" height="6.0" stroke="none" stroke-width="0" width="6.0" x="192.0" y="62.0" /><rect fill="black" height="4.9" stroke="none" stroke-width="0" width="4.9" x="202.5" y="62.5" /><rect fill="black" height="5.5" stroke="none" stroke-width="0" width="5.5" x="212.2" y="62.2" /><rect fill="black" height="5.0" stroke="none" stroke-width="0" width="5.0" x="222.5" y="62.5" /><rect fill="black" height="4.9" stroke="none" stroke-width="0" width="4.9" x="232.5" y="62.5" /><rect fill="black" height="4.1" stroke="none" stroke-width="0" width="4.1" x="242.9" y="62.9" /><rect fill="black" height="5.3" stroke="none" stroke-width="0" width="5.3" x="252.3" y="62.3" /><rect fill="black" height="5.2" stroke="none" stroke-width="0" width="5.2" x="262.4" y="62.4" /><rect fill="black" height="3.6" stroke="none" stroke-width="0" width="3.6" x="273.2" y="63.2" /><rect fill="black" height="4.0" stroke="none" stroke-width="0" width="4.0" x="283.0" y="63.0" /><rect fill="black" height="4.1" stroke="none" stroke-width="0" width="4.1" x="293.0" y="63.0" /><rect fill="black" height="4.6" stroke="none" stroke-width="0" width="4.6" x="302.7" y="62.7" /><rect fill="black" height="3.6" stroke="none" stroke-width="0" width="3.6" x="313.2" y="63.2" /><rect fill="black" height="4.1" stroke="none" stroke-width="0" width="4.1" x="323.0" y="63.0" /><rect fill="black" height="3.7" stroke="none" stroke-width="0" width="3.7" x="333.1" y="63.1" /><rect fill="black" height="4.3" stroke="none" stroke-width="0" width="4.3" x="342.8" y="62.8" /><rect fill="black" height="5.4" stroke="none" stroke-width="0" width="5.4" x="352.3" y="62.3" /><rect fill="black" height="3.4" stroke="none" stroke-width="0" width="3.4" x="363.3" y="63.3" /><rect fill="black" height="3.7" stroke="none" stroke-width="0" width="3.7" x="373.1" y="63.1" /><rect fill="black" height="4.2" stroke="none" stroke-width="0" width="4.2" x="382.9" y="62.9" /><rect fill="black" height="2.8" stroke="none" stroke-width="0" width="2.8" x="393.6" y="63.6" /><rect fill="black" height="4.6" stroke="none" stroke-width="0" width="4.6" x="402.7" y="62.7" /><rect fill="black" height="3.9" stroke="none" stroke-width="0" width="3.9" x="413.1" y="63.1" /><rect fill="black" height="3.9" stroke="none" stroke-width="0" width="3.9" x="423.1" y="63.1" /><rect fill="black" height="3.6" stroke="none" stroke-width="0" width="3.6" x="433.2" y="63.2" /><rect fill="black" height="3.4" stroke="none" stroke-width="0" width="3.4" x="443.3" y="63.3" /><rect fill="black" height="3.3" stroke="none" stroke-width="0" width="3.3" x="453.3" y="63.3" /><rect fill="black" height="2.9" stroke="none" stroke-width="0" width="2.9" x="463.6" y="63.6" /><rect fill="black" height="3.1" stroke="none" stroke-width="0" width="3.1" x="473.4" y="63.4" /><rect fill="black" height="4.2" stroke="none" stroke-width="0" width="4.2" x="482.9" y="62.9" /><rect fill="black" height="2.9" stroke="none" stroke-width="0" width="2.9" x="493.6" y="63.6" /><rect fill="black" height="3.7" stroke="none" stroke-width="0" width="3.7" x="3.2" y="73.2" /><rect fill="black" height="6.0" stroke="none" stroke-width="0" width="6.0" x="12.0" y="72.0" /><rect fill="black" height="7.2" stroke="none" stroke-width="0" width="7.2" x="21.4" y="71.4" /><rect fill="black" height="8.4" stroke="none" stroke-width="0" width="8.4" x="30.8" y="70.8" /><rect fill="black" height="8.7" stroke="none" stroke-width="0" width="8.7" x="40.7" y="70.7" /><rect fill="black" height="8.8" stroke="none" stroke-width="0" width="8.8" x="50.6" y="70.6" /><rect fill="black" height="8.8" stroke="none" stroke-width="0" width="8.8" x="60.6" y="70.6" /><rect fill="black" height="8.5" stroke="none" stroke-width="0" width="8.5" x="70.8" y="70.8" /><rect fill="black" height="9.5" stroke="none" stroke-width="0" width="9.5" x="80.3" y="70.3" /><rect fill="black" height="9.5" stroke="none" stroke-width="0" width="9.5" x="90.2" y="70.2" /><rect fill="black" height="9.4" stroke="none" stroke-width="0" width="9.4" x="100.3" y="70.3" /><rect fill="black" height="8.5" stroke="none" stroke-width="0" width="8.5" x="110.8" y="70.8" /><rect fill="black" height="7.3" stroke="none" stroke-width="0" width="7.3" x="121.4" y="71.4" /><rect fill="black" height="7.2" stroke="none" stroke-width="0" width="7.2" x="131.4" y="71.4" /><rect fill="black" height="8.1" stroke="none" stroke-width="0" width="8.1" x="141.0" y="71.0" /><rect fill="black" height="7.8" stroke="none" stroke-width="0" width="7.8" x="151.1" y="71.1" /><rect fill="black" height="6.8" stroke="none" stroke-width="0" width="6.8" x="161.6" y="71.6" /><rect fill="black" height="6.0" stroke="none" stroke-width="0" width="6.0" x="172.0" y="72.0" /><rect fill="black" height="5.5" stroke="none" stroke-width="0" width="5.5" x="182.3" y="72.3" /><rect fill="black" height="6.6" stroke="none" stroke-width="0" width="6.6" x="191.7" y="71.7" /><rect fill="black" height="5.1" stroke="none" stroke-width="0" width="5.1" x="202.5" y="72.5" /><rect fill="black" height="5.6" stroke="none" stroke-width="0" width="5.6" x="212.2" y="72.2" /><rect fill="black" height="5.1" stroke="none" stroke-width="0" width="5.1" x="222.5" y="72.5" /><rect fill="black" height="4.4" stroke="none" stroke-width="0" width="4.4" x="232.8" y="72.8" /><rect fill="black" height="4.4" stroke="none" stroke-width="0" width="4.4" x="242.8" y="72.8" /><rect fill="black" height="5.9" stroke="none" stroke-width="0" width="5.9" x="252.1" y="72.1" /><rect fill="black" height="5.1" stroke="none" stroke-width="0" width="5.1" x="262.4" y="72.4" /><rect fill="black" height="3.5" stroke="none" stroke-width="0" width="3.5" x="273.3" y="73.3" /><rect fill="black" height="4.0" stroke="none" stroke-width="0" width="4.0" x="283.0" y="73.0" /><rect fill="black" height="3.7" stroke="none" stroke-width="0" width="3.7" x="293.1" y="73.1" /><rect fill="black" height="4.4" stroke="none" stroke-width="0" width="4.4" x="302.8" y="72.8" /><rect fill="black" height="3.5" stroke="none" stroke-width="0" width="3.5" x="313.3" y="73.3" /><rect fill="black" height="3.9" stroke="none" stroke-width="0" width="3.9" x="323.1" y="73.1" /><rect fill="black" height="3.2" stroke="none" stroke-width="0" width="3.2" x="333.4" y="73.4" /><rect fill="black" height="4.0" stroke="none" stroke-width="0" width="4.0" x="343.0" y="73.0" /><rect fill="black" height="5.8" stroke="none" stroke-width="0" width="5.8" x="352.1" y="72.1" /><rect fill="black" height="2.9" stroke="none" stroke-width="0" width="2.9" x="363.5" y="73.5" /><rect fill="black" height="3.0" stroke="none" stroke-width="0" width="3.0" x="373.5" y="73.5" /><rect fill="black" height="3.7" stroke="none" stroke-width="0" width="3.7" x="383.1" y="73.1" /><rect fill="black" height="2.2" stroke="none" stroke-width="0" width="2.2" x="393.9" y="73.9" /><rect fill="black" height="4.1" stroke="none" stroke-width="0" width="4.1" x="403.0" y="73.0" /><rect fill="black" height="3.2" stroke="none" stroke-width="0" width="3.2" x="413.4" y="73.4" /><rect fill="black" height="3.2" stroke="none" stroke-width="0" width="3.2" x="423.4" y="73.4" /><rect fill="black" height="3.0" stroke="none" stroke-width="0" width="3.0" x="433.5" y="73.5" /><rect fill="black" height="2.5" stroke="none" stroke-width="0" width="2.5" x="443.8" y="73.8" /><rect fill="black" height="2.4" stroke="none" stroke-width="0" width="2.4" x="453.8" y="73.8" /><rect fill="black" height="2.5" stroke="none" stroke-width="0" width="2.5" x="463.8" y="73.8" /><rect fill="black" height="2.6" stroke="none" stroke-width="0" width="2.6" x="473.7" y="73.7" /><rect fill="black" height="3.3" stroke="none" stroke-width="0" width="3.3" x="483.4" y="73.4" /><rect fill="black" height="2.1" stroke="none" stroke-width="0" width="2.1" x="493.9" y="73.9" /><rect fill="black" height="8.2" stroke="none" stroke-width="0" width="8.2" x="0.9" y="80.9" /><rect fill="black" height="8.5" stroke="none" stroke-width="0" width="8.5" x="10.8" y="80.8" /><rect fill="black" height="8.8" stroke="none" stroke-width="0" width="8.8" x="20.6" y="80.6" /><rect fill="black" height="8.8" stroke="none" stroke-width="0" width="8.8" x="30.6" y="80.6" /><rect fill="black" height="8.8" stroke="none" stroke-width="0" width="8.8" x="40.6" y="80.6" /><rect fill="black" height="8.7" stroke="none" stroke-width="0" width="8.7" x="50.7" y="80.7" /><rect fill="black" height="8.5" stroke="none" stroke-width="0" width="8.5" x="60.8" y="80.8" /><rect fill="black" height="8.4" stroke="none" stroke-width="0" width="8.4" x="70.8" y="80.8" /><rect fill="black" height="8.9" stroke="none" stroke-width="0" width="8.9" x="80.5" y="80.5" /><rect fill="black" height="9.1" stroke="none" stroke-width="0" width="9.1" x="90.5" y="80.5" /><rect fill="black" height="9.1" stroke="none" stroke-width="0" width="9.1" x="100.4" y="80.4" /><rect fill="black" height="8.6" stroke="none" stroke-width="0" width="8.6" x="110.7" y="80.7" /><rect fill="black" height="7.6" stroke="none" stroke-width="0" width="7.6" x="121.2" y="81.2" /><rect fill="black" height="7.8" stroke="none" stroke-width="0" width="7.8" x="131.1" y="81.1" /><rect fill="black" height="9.0" stroke="none" stroke-width="0" width="9.0" x="140.5" y="80.5" /><rect fill="black" height="9.0" stroke="none" stroke-width="0" width="9.0" x="150.5" y="80.5" /><rect fill="black" height="8.5" stroke="none" stroke-width="0" width="8.5" x="160.7" y="80.7" /><rect fill="black" height="8.2" stroke="none" stroke-width="0" width="8.2" x="170.9" y="80.9" /><rect fill="black" height="7.9" stroke="none" stroke-width="0" width="7.9" x="181.1" y="81.1" /><rect fill="black" height="8.7" stroke="none" stroke-width="0" width="8.7" x="190.6" y="80.6" /><rect fill="black" height="7.5" stroke="none" stroke-width="0" width="7.5" x="201.3" y="81.3" /><rect fill="black" height="8.6" stroke="none" stroke-width="0" width="8.6" x="210.7" y="80.7" /><rect fill="black" height="8.0" stroke="none" stroke-width="0" width="8.0" x="221.0" y="81.0" /><rect fill="black" height="8.0" stroke="none" stroke-width="0" width="8.0" x="231.0" y="81.0" /><rect fill="black" height="7.2" stroke="none" stroke-width="0" width="7.2" x="241.4" y="81.4" /><rect fill="black" height="8.9" stroke="none" stroke-width="0" width="8.9" x="250.5" y="80.5" /><rect fill="black" height="8.4" stroke="none" stroke-width="0" width="8.4" x="260.8" y="80.8" /><rect fill="black" height="6.8" stroke="none" stroke-width="0" width="6.8" x="271.6" y="81.6" /><rect fill="black" height="7.0" stroke="none" stroke-width="0" width="7.0" x="281.5" y="81.5" /><rect fill="black" height="7.3" stroke="none" stroke-width="0" width="7.3" x="291.3" y="81.3" /><rect fill="black" height="8.0" stroke="none" stroke-width="0" width="8.0" x="301.0" y="81.0" /><rect fill="black" height="6.4" stroke="none" stroke-width="0" width="6.4" x="311.8" y="81.8" /><rect fill="black" height="7.4" stroke="none" stroke-width="0" width="7.4" x="321.3" y="81.3" /><rect fill="black" height="6.3" stroke="none" stroke-width="0" width="6.3" x="331.8" y="81.8" /><rect fill="black" height="7.7" stroke="none" stroke-width="0" width="7.7" x="341.2" y="81.2" /><rect fill="black" height="9.5" stroke="none" stroke-width="0" width="9.5" x="350.2" y="80.2" /><rect fill="black" height="6.3" stroke="none" stroke-width="0" width="6.3" x="361.8" y="81.8" /><rect fill="black" height="6.8" stroke="none" stroke-width="0" width="6.8" x="371.6" y="81.6" /><rect fill="black" height="7.7" stroke="none" stroke-width="0" width="7.7" x="381.1" y="81.1" /><rect fill="black" height="5.2" stroke="none" stroke-width="0" width="5.2" x="392.4" y="82.4" /><rect fill="black" height="8.3" stroke="none" stroke-width="0" width="8.3" x="400.9" y="80.9" /><rect fill="black" height="7.3" stroke="none" stroke-width="0" width="7.3" x="411.4" y="81.4" /><rect fill="black" height="7.3" stroke="none" stroke-width="0" width="7.3" x="421.4" y="81.4" /><rect fill="black" height="6.7" stroke="none" stroke-width="0" width="6.7" x="431.6" y="81.6" /><rect fill="black" height="6.1" stroke="none" stroke-width="0" width="6.1" x="441.9" y="81.9" /><rect fill="black" height="6.0" stroke="none" stroke-width="0" width="6.0" x="452.0" y="82.0" /><rect fill="black" height="5.2" stroke="none" stroke-width="0" width="5.2" x="462.4" y="82.4" /><rect fill="black" height="6.0" stroke="none" stroke-width="0" width="6.0" x="472.0" y="82.0" /><rect fill="black" height="7.6" stroke="none" stroke-width="0" width="7.6" x="481.2" y="81.2" /><rect fill="black" height="5.6" stroke="none" stroke-width="0" width="5.6" x="492.2" y="82.2" /></g><g><text font-size="10px" text-anchor="middle" x="250.0" y="-22.0">Gradient L2 norms for different weight parameters</text><line stroke="black" stroke-width="0.5" x1="506.0" x2="512.0" y1="5.0" y2="5.0" /><text dominant-baseline="middle" font-size="10px" text-anchor="start" x="524.0" y="5.0">e.p</text><line stroke="black" stroke-width="0.5" x1="506.0" x2="512.0" y1="15.0" y2="15.0" /><text dominant-baseline="middle" font-size="10px" text-anchor="start" x="524.0" y="15.0">e.t</text><line stroke="black" stroke-width="0.5" x1="506.0" x2="512.0" y1="25.0" y2="25.0" /><text dominant-baseline="middle" font-size="10px" text-anchor="start" x="524.0" y="25.0">a.k</text><line stroke="black" stroke-width="0.5" x1="506.0" x2="512.0" y1="35.0" y2="35.0" /><text dominant-baseline="middle" font-size="10px" text-anchor="start" x="524.0" y="35.0">a.o</text><line stroke="black" stroke-width="0.5" x1="506.0" x2="512.0" y1="45.0" y2="45.0" /><text dominant-baseline="middle" font-size="10px" text-anchor="start" x="524.0" y="45.0">a.q</text><line stroke="black" stroke-width="0.5" x1="506.0" x2="512.0" y1="55.0" y2="55.0" /><text dominant-baseline="middle" font-size="10px" text-anchor="start" x="524.0" y="55.0">a.v</text><line stroke="black" stroke-width="0.5" x1="506.0" x2="512.0" y1="65.0" y2="65.0" /><text dominant-baseline="middle" font-size="10px" text-anchor="start" x="524.0" y="65.0">w.i</text><line stroke="black" stroke-width="0.5" x1="506.0" x2="512.0" y1="75.0" y2="75.0" /><text dominant-baseline="middle" font-size="10px" text-anchor="start" x="524.0" y="75.0">w.o</text><line stroke="black" stroke-width="0.5" x1="506.0" x2="512.0" y1="85.0" y2="85.0" /><text dominant-baseline="middle" font-size="10px" text-anchor="start" x="524.0" y="85.0">e.u</text><line stroke="black" stroke-width="0.5" x1="5.0" x2="5.0" y1="96.0" y2="102.0" /><text dominant-baseline="middle" font-size="10px" text-anchor="middle" x="5.0" y="114.0">1</text><line stroke="black" stroke-width="0.5" x1="495.0" x2="495.0" y1="96.0" y2="102.0" /><text dominant-baseline="middle" font-size="10px" text-anchor="middle" x="495.0" y="114.0">65536</text><text font-size="10px" text-anchor="middle" x="250.0" y="112.0">Time (linear)</text><text font-size="10px" text-anchor="middle" transform="rotate(-90, -22.0, 45.0)" x="-22.0" y="45.0">Gradient Norm (L2)</text></g></svg>