<?xml version="1.0" encoding="utf-8" ?>
<svg baseProfile="full" height="100%" preserveAspectRatio="xMidYMid meet" version="1.1" viewBox="-40,-40,580,170" width="100%" xmlns="http://www.w3.org/2000/svg" xmlns:ev="http://www.w3.org/2001/xml-events" xmlns:xlink="http://www.w3.org/1999/xlink"><defs><style type="text/css"><![CDATA[
        @import url(https://cdn.jsdelivr.net/npm/firacode@6.2.0/distr/fira_code.css);
        text {
            font-family: 'STIX Two', 'STIX Two Math', 'STIXMath', 'DejaVu Math TeX Glyph',
                        'DejaVu Serif', 'Cambria Math', 'Latin Modern Math', 'FiraCode',
                        'serif';
        }
    ]]></style><style type="text/css"><![CDATA[
        @import url(https://cdn.jsdelivr.net/npm/firacode@6.2.0/distr/fira_code.css);
        text {
            font-family: 'STIX Two', 'STIX Two Math', 'STIXMath', 'DejaVu Math TeX Glyph',
                        'DejaVu Serif', 'Cambria Math', 'Latin Modern Math', 'FiraCode',
                        'serif';
        }
    ]]></style></defs><g><rect fill="black" height="8.8" stroke="none" stroke-width="0" width="8.8" x="0.6" y="0.6" /><rect fill="black" height="9.4" stroke="none" stroke-width="0" width="9.4" x="10.3" y="0.3" /><rect fill="black" height="9.3" stroke="none" stroke-width="0" width="9.3" x="20.4" y="0.4" /><rect fill="black" height="9.5" stroke="none" stroke-width="0" width="9.5" x="30.2" y="0.2" /><rect fill="black" height="9.0" stroke="none" stroke-width="0" width="9.0" x="40.5" y="0.5" /><rect fill="black" height="7.4" stroke="none" stroke-width="0" width="7.4" x="51.3" y="1.3" /><rect fill="black" height="7.3" stroke="none" stroke-width="0" width="7.3" x="61.3" y="1.3" /><rect fill="black" height="5.4" stroke="none" stroke-width="0" width="5.4" x="72.3" y="2.3" /><rect fill="black" height="5.6" stroke="none" stroke-width="0" width="5.6" x="82.2" y="2.2" /><rect fill="black" height="5.7" stroke="none" stroke-width="0" width="5.7" x="92.1" y="2.1" /><rect fill="black" height="4.7" stroke="none" stroke-width="0" width="4.7" x="102.6" y="2.6" /><rect fill="black" height="3.6" stroke="none" stroke-width="0" width="3.6" x="113.2" y="3.2" /><rect fill="black" height="2.2" stroke="none" stroke-width="0" width="2.2" x="123.9" y="3.9" /><rect fill="black" height="2.2" stroke="none" stroke-width="0" width="2.2" x="133.9" y="3.9" /><rect fill="black" height="2.7" stroke="none" stroke-width="0" width="2.7" x="143.7" y="3.7" /><rect fill="black" height="2.9" stroke="none" stroke-width="0" width="2.9" x="153.5" y="3.5" /><rect fill="black" height="2.7" stroke="none" stroke-width="0" width="2.7" x="163.6" y="3.6" /><rect fill="black" height="2.5" stroke="none" stroke-width="0" width="2.5" x="173.8" y="3.8" /><rect fill="black" height="2.5" stroke="none" stroke-width="0" width="2.5" x="183.7" y="3.7" /><rect fill="black" height="3.2" stroke="none" stroke-width="0" width="3.2" x="193.4" y="3.4" /><rect fill="black" height="2.3" stroke="none" stroke-width="0" width="2.3" x="203.8" y="3.8" /><rect fill="black" height="2.8" stroke="none" stroke-width="0" width="2.8" x="213.6" y="3.6" /><rect fill="black" height="2.6" stroke="none" stroke-width="0" width="2.6" x="223.7" y="3.7" /><rect fill="black" height="2.7" stroke="none" stroke-width="0" width="2.7" x="233.7" y="3.7" /><rect fill="black" height="2.1" stroke="none" stroke-width="0" width="2.1" x="243.9" y="3.9" /><rect fill="black" height="3.1" stroke="none" stroke-width="0" width="3.1" x="253.4" y="3.4" /><rect fill="black" height="3.2" stroke="none" stroke-width="0" width="3.2" x="263.4" y="3.4" /><rect fill="black" height="2.1" stroke="none" stroke-width="0" width="2.1" x="273.9" y="3.9" /><rect fill="black" height="2.2" stroke="none" stroke-width="0" width="2.2" x="283.9" y="3.9" /><rect fill="black" height="2.2" stroke="none" stroke-width="0" width="2.2" x="293.9" y="3.9" /><rect fill="black" height="2.6" stroke="none" stroke-width="0" width="2.6" x="303.7" y="3.7" /><rect fill="black" height="3.0" stroke="none" stroke-width="0" width="3.0" x="313.5" y="3.5" /><rect fill="black" height="2.2" stroke="none" stroke-width="0" width="2.2" x="323.9" y="3.9" /><rect fill="black" height="2.2" stroke="none" stroke-width="0" width="2.2" x="333.9" y="3.9" /><rect fill="black" height="2.6" stroke="none" stroke-width="0" width="2.6" x="343.7" y="3.7" /><rect fill="black" height="2.8" stroke="none" stroke-width="0" width="2.8" x="353.6" y="3.6" /><rect fill="black" height="2.1" stroke="none" stroke-width="0" width="2.1" x="363.9" y="3.9" /><rect fill="black" height="3.0" stroke="none" stroke-width="0" width="3.0" x="373.5" y="3.5" /><rect fill="black" height="2.2" stroke="none" stroke-width="0" width="2.2" x="383.9" y="3.9" /><rect fill="black" height="2.1" stroke="none" stroke-width="0" width="2.1" x="393.9" y="3.9" /><rect fill="black" height="3.1" stroke="none" stroke-width="0" width="3.1" x="403.5" y="3.5" /><rect fill="black" height="2.2" stroke="none" stroke-width="0" width="2.2" x="413.9" y="3.9" /><rect fill="black" height="2.2" stroke="none" stroke-width="0" width="2.2" x="423.9" y="3.9" /><rect fill="black" height="2.4" stroke="none" stroke-width="0" width="2.4" x="433.8" y="3.8" /><rect fill="black" height="2.3" stroke="none" stroke-width="0" width="2.3" x="443.8" y="3.8" /><rect fill="black" height="4.2" stroke="none" stroke-width="0" width="4.2" x="452.9" y="2.9" /><rect fill="black" height="2.1" stroke="none" stroke-width="0" width="2.1" x="463.9" y="3.9" /><rect fill="black" height="2.1" stroke="none" stroke-width="0" width="2.1" x="473.9" y="3.9" /><rect fill="black" height="2.6" stroke="none" stroke-width="0" width="2.6" x="483.7" y="3.7" /><rect fill="black" height="2.1" stroke="none" stroke-width="0" width="2.1" x="493.9" y="3.9" /><rect fill="black" height="7.9" stroke="none" stroke-width="0" width="7.9" x="1.1" y="11.1" /><rect fill="black" height="8.3" stroke="none" stroke-width="0" width="8.3" x="10.8" y="10.8" /><rect fill="black" height="9.2" stroke="none" stroke-width="0" width="9.2" x="20.4" y="10.4" /><rect fill="black" height="9.5" stroke="none" stroke-width="0" width="9.5" x="30.2" y="10.2" /><rect fill="black" height="9.1" stroke="none" stroke-width="0" width="9.1" x="40.5" y="10.5" /><rect fill="black" height="8.0" stroke="none" stroke-width="0" width="8.0" x="51.0" y="11.0" /><rect fill="black" height="7.4" stroke="none" stroke-width="0" width="7.4" x="61.3" y="11.3" /><rect fill="black" height="7.2" stroke="none" stroke-width="0" width="7.2" x="71.4" y="11.4" /><rect fill="black" height="6.9" stroke="none" stroke-width="0" width="6.9" x="81.5" y="11.5" /><rect fill="black" height="7.1" stroke="none" stroke-width="0" width="7.1" x="91.4" y="11.4" /><rect fill="black" height="6.6" stroke="none" stroke-width="0" width="6.6" x="101.7" y="11.7" /><rect fill="black" height="4.7" stroke="none" stroke-width="0" width="4.7" x="112.6" y="12.6" /><rect fill="black" height="3.2" stroke="none" stroke-width="0" width="3.2" x="123.4" y="13.4" /><rect fill="black" height="3.2" stroke="none" stroke-width="0" width="3.2" x="133.4" y="13.4" /><rect fill="black" height="4.2" stroke="none" stroke-width="0" width="4.2" x="142.9" y="12.9" /><rect fill="black" height="4.4" stroke="none" stroke-width="0" width="4.4" x="152.8" y="12.8" /><rect fill="black" height="3.8" stroke="none" stroke-width="0" width="3.8" x="163.1" y="13.1" /><rect fill="black" height="3.6" stroke="none" stroke-width="0" width="3.6" x="173.2" y="13.2" /><rect fill="black" height="3.5" stroke="none" stroke-width="0" width="3.5" x="183.3" y="13.3" /><rect fill="black" height="4.5" stroke="none" stroke-width="0" width="4.5" x="192.7" y="12.7" /><rect fill="black" height="3.3" stroke="none" stroke-width="0" width="3.3" x="203.3" y="13.3" /><rect fill="black" height="3.9" stroke="none" stroke-width="0" width="3.9" x="213.1" y="13.1" /><rect fill="black" height="3.7" stroke="none" stroke-width="0" width="3.7" x="223.1" y="13.1" /><rect fill="black" height="3.6" stroke="none" stroke-width="0" width="3.6" x="233.2" y="13.2" /><rect fill="black" height="2.8" stroke="none" stroke-width="0" width="2.8" x="243.6" y="13.6" /><rect fill="black" height="4.2" stroke="none" stroke-width="0" width="4.2" x="252.9" y="12.9" /><rect fill="black" height="4.3" stroke="none" stroke-width="0" width="4.3" x="262.8" y="12.8" /><rect fill="black" height="2.7" stroke="none" stroke-width="0" width="2.7" x="273.6" y="13.6" /><rect fill="black" height="3.3" stroke="none" stroke-width="0" width="3.3" x="283.4" y="13.4" /><rect fill="black" height="3.3" stroke="none" stroke-width="0" width="3.3" x="293.4" y="13.4" /><rect fill="black" height="3.5" stroke="none" stroke-width="0" width="3.5" x="303.2" y="13.2" /><rect fill="black" height="4.1" stroke="none" stroke-width="0" width="4.1" x="312.9" y="12.9" /><rect fill="black" height="3.3" stroke="none" stroke-width="0" width="3.3" x="323.4" y="13.4" /><rect fill="black" height="3.2" stroke="none" stroke-width="0" width="3.2" x="333.4" y="13.4" /><rect fill="black" height="3.6" stroke="none" stroke-width="0" width="3.6" x="343.2" y="13.2" /><rect fill="black" height="4.0" stroke="none" stroke-width="0" width="4.0" x="353.0" y="13.0" /><rect fill="black" height="2.9" stroke="none" stroke-width="0" width="2.9" x="363.6" y="13.6" /><rect fill="black" height="3.7" stroke="none" stroke-width="0" width="3.7" x="373.1" y="13.1" /><rect fill="black" height="3.5" stroke="none" stroke-width="0" width="3.5" x="383.3" y="13.3" /><rect fill="black" height="2.4" stroke="none" stroke-width="0" width="2.4" x="393.8" y="13.8" /><rect fill="black" height="4.1" stroke="none" stroke-width="0" width="4.1" x="402.9" y="12.9" /><rect fill="black" height="3.2" stroke="none" stroke-width="0" width="3.2" x="413.4" y="13.4" /><rect fill="black" height="3.5" stroke="none" stroke-width="0" width="3.5" x="423.3" y="13.3" /><rect fill="black" height="3.4" stroke="none" stroke-width="0" width="3.4" x="433.3" y="13.3" /><rect fill="black" height="3.3" stroke="none" stroke-width="0" width="3.3" x="443.4" y="13.4" /><rect fill="black" height="5.3" stroke="none" stroke-width="0" width="5.3" x="452.4" y="12.4" /><rect fill="black" height="2.3" stroke="none" stroke-width="0" width="2.3" x="463.9" y="13.9" /><rect fill="black" height="3.0" stroke="none" stroke-width="0" width="3.0" x="473.5" y="13.5" /><rect fill="black" height="3.9" stroke="none" stroke-width="0" width="3.9" x="483.1" y="13.1" /><rect fill="black" height="2.8" stroke="none" stroke-width="0" width="2.8" x="493.6" y="13.6" /><rect fill="black" height="5.3" stroke="none" stroke-width="0" width="5.3" x="2.3" y="22.3" /><rect fill="black" height="9.5" stroke="none" stroke-width="0" width="9.5" x="10.2" y="20.2" /><rect fill="black" height="8.4" stroke="none" stroke-width="0" width="8.4" x="20.8" y="20.8" /><rect fill="black" height="6.6" stroke="none" stroke-width="0" width="6.6" x="31.7" y="21.7" /><rect fill="black" height="5.4" stroke="none" stroke-width="0" width="5.4" x="42.3" y="22.3" /><rect fill="black" height="3.6" stroke="none" stroke-width="0" width="3.6" x="53.2" y="23.2" /><rect fill="black" height="4.1" stroke="none" stroke-width="0" width="4.1" x="62.9" y="22.9" /><rect fill="black" height="2.1" stroke="none" stroke-width="0" width="2.1" x="73.9" y="23.9" /><rect fill="black" height="2.1" stroke="none" stroke-width="0" width="2.1" x="83.9" y="23.9" /><rect fill="black" height="2.1" stroke="none" stroke-width="0" width="2.1" x="93.9" y="23.9" /><rect fill="black" height="2.1" stroke="none" stroke-width="0" width="2.1" x="103.9" y="23.9" /><rect fill="black" height="2.1" stroke="none" stroke-width="0" width="2.1" x="113.9" y="23.9" /><rect fill="black" height="2.1" stroke="none" stroke-width="0" width="2.1" x="123.9" y="23.9" /><rect fill="black" height="2.1" stroke="none" stroke-width="0" width="2.1" x="133.9" y="23.9" /><rect fill="black" height="2.1" stroke="none" stroke-width="0" width="2.1" x="143.9" y="23.9" /><rect fill="black" height="2.1" stroke="none" stroke-width="0" width="2.1" x="153.9" y="23.9" /><rect fill="black" height="2.1" stroke="none" stroke-width="0" width="2.1" x="163.9" y="23.9" /><rect fill="black" height="2.1" stroke="none" stroke-width="0" width="2.1" x="173.9" y="23.9" /><rect fill="black" height="2.1" stroke="none" stroke-width="0" width="2.1" x="183.9" y="23.9" /><rect fill="black" height="2.1" stroke="none" stroke-width="0" width="2.1" x="193.9" y="23.9" /><rect fill="black" height="2.1" stroke="none" stroke-width="0" width="2.1" x="203.9" y="23.9" /><rect fill="black" height="2.1" stroke="none" stroke-width="0" width="2.1" x="213.9" y="23.9" /><rect fill="black" height="2.1" stroke="none" stroke-width="0" width="2.1" x="223.9" y="23.9" /><rect fill="black" height="2.1" stroke="none" stroke-width="0" width="2.1" x="233.9" y="23.9" /><rect fill="black" height="2.1" stroke="none" stroke-width="0" width="2.1" x="243.9" y="23.9" /><rect fill="black" height="2.1" stroke="none" stroke-width="0" width="2.1" x="253.9" y="23.9" /><rect fill="black" height="2.1" stroke="none" stroke-width="0" width="2.1" x="263.9" y="23.9" /><rect fill="black" height="2.1" stroke="none" stroke-width="0" width="2.1" x="273.9" y="23.9" /><rect fill="black" height="2.1" stroke="none" stroke-width="0" width="2.1" x="283.9" y="23.9" /><rect fill="black" height="2.1" stroke="none" stroke-width="0" width="2.1" x="293.9" y="23.9" /><rect fill="black" height="2.1" stroke="none" stroke-width="0" width="2.1" x="303.9" y="23.9" /><rect fill="black" height="2.1" stroke="none" stroke-width="0" width="2.1" x="313.9" y="23.9" /><rect fill="black" height="2.1" stroke="none" stroke-width="0" width="2.1" x="323.9" y="23.9" /><rect fill="black" height="2.1" stroke="none" stroke-width="0" width="2.1" x="333.9" y="23.9" /><rect fill="black" height="2.1" stroke="none" stroke-width="0" width="2.1" x="343.9" y="23.9" /><rect fill="black" height="2.1" stroke="none" stroke-width="0" width="2.1" x="353.9" y="23.9" /><rect fill="black" height="2.1" stroke="none" stroke-width="0" width="2.1" x="363.9" y="23.9" /><rect fill="black" height="2.1" stroke="none" stroke-width="0" width="2.1" x="373.9" y="23.9" /><rect fill="black" height="2.1" stroke="none" stroke-width="0" width="2.1" x="383.9" y="23.9" /><rect fill="black" height="2.1" stroke="none" stroke-width="0" width="2.1" x="393.9" y="23.9" /><rect fill="black" height="2.1" stroke="none" stroke-width="0" width="2.1" x="403.9" y="23.9" /><rect fill="black" height="2.1" stroke="none" stroke-width="0" width="2.1" x="413.9" y="23.9" /><rect fill="black" height="2.1" stroke="none" stroke-width="0" width="2.1" x="423.9" y="23.9" /><rect fill="black" height="2.1" stroke="none" stroke-width="0" width="2.1" x="433.9" y="23.9" /><rect fill="black" height="2.1" stroke="none" stroke-width="0" width="2.1" x="443.9" y="23.9" /><rect fill="black" height="2.1" stroke="none" stroke-width="0" width="2.1" x="453.9" y="23.9" /><rect fill="black" height="2.1" stroke="none" stroke-width="0" width="2.1" x="463.9" y="23.9" /><rect fill="black" height="2.1" stroke="none" stroke-width="0" width="2.1" x="473.9" y="23.9" /><rect fill="black" height="2.1" stroke="none" stroke-width="0" width="2.1" x="483.9" y="23.9" /><rect fill="black" height="2.1" stroke="none" stroke-width="0" width="2.1" x="493.9" y="23.9" /><rect fill="black" height="9.4" stroke="none" stroke-width="0" width="9.4" x="0.3" y="30.3" /><rect fill="black" height="9.0" stroke="none" stroke-width="0" width="9.0" x="10.5" y="30.5" /><rect fill="black" height="9.5" stroke="none" stroke-width="0" width="9.5" x="20.2" y="30.2" /><rect fill="black" height="9.5" stroke="none" stroke-width="0" width="9.5" x="30.3" y="30.3" /><rect fill="black" height="9.1" stroke="none" stroke-width="0" width="9.1" x="40.5" y="30.5" /><rect fill="black" height="7.9" stroke="none" stroke-width="0" width="7.9" x="51.0" y="31.0" /><rect fill="black" height="7.1" stroke="none" stroke-width="0" width="7.1" x="61.4" y="31.4" /><rect fill="black" height="7.0" stroke="none" stroke-width="0" width="7.0" x="71.5" y="31.5" /><rect fill="black" height="6.6" stroke="none" stroke-width="0" width="6.6" x="81.7" y="31.7" /><rect fill="black" height="6.8" stroke="none" stroke-width="0" width="6.8" x="91.6" y="31.6" /><rect fill="black" height="6.1" stroke="none" stroke-width="0" width="6.1" x="101.9" y="31.9" /><rect fill="black" height="4.3" stroke="none" stroke-width="0" width="4.3" x="112.8" y="32.8" /><rect fill="black" height="2.9" stroke="none" stroke-width="0" width="2.9" x="123.6" y="33.6" /><rect fill="black" height="2.8" stroke="none" stroke-width="0" width="2.8" x="133.6" y="33.6" /><rect fill="black" height="3.7" stroke="none" stroke-width="0" width="3.7" x="143.2" y="33.2" /><rect fill="black" height="3.8" stroke="none" stroke-width="0" width="3.8" x="153.1" y="33.1" /><rect fill="black" height="3.2" stroke="none" stroke-width="0" width="3.2" x="163.4" y="33.4" /><rect fill="black" height="3.0" stroke="none" stroke-width="0" width="3.0" x="173.5" y="33.5" /><rect fill="black" height="2.9" stroke="none" stroke-width="0" width="2.9" x="183.6" y="33.6" /><rect fill="black" height="3.7" stroke="none" stroke-width="0" width="3.7" x="193.1" y="33.1" /><rect fill="black" height="2.7" stroke="none" stroke-width="0" width="2.7" x="203.7" y="33.7" /><rect fill="black" height="3.1" stroke="none" stroke-width="0" width="3.1" x="213.4" y="33.4" /><rect fill="black" height="3.0" stroke="none" stroke-width="0" width="3.0" x="223.5" y="33.5" /><rect fill="black" height="2.9" stroke="none" stroke-width="0" width="2.9" x="233.5" y="33.5" /><rect fill="black" height="2.2" stroke="none" stroke-width="0" width="2.2" x="243.9" y="33.9" /><rect fill="black" height="3.3" stroke="none" stroke-width="0" width="3.3" x="253.4" y="33.4" /><rect fill="black" height="3.4" stroke="none" stroke-width="0" width="3.4" x="263.3" y="33.3" /><rect fill="black" height="2.1" stroke="none" stroke-width="0" width="2.1" x="273.9" y="33.9" /><rect fill="black" height="2.5" stroke="none" stroke-width="0" width="2.5" x="283.8" y="33.8" /><rect fill="black" height="2.5" stroke="none" stroke-width="0" width="2.5" x="293.8" y="33.8" /><rect fill="black" height="2.7" stroke="none" stroke-width="0" width="2.7" x="303.6" y="33.6" /><rect fill="black" height="3.0" stroke="none" stroke-width="0" width="3.0" x="313.5" y="33.5" /><rect fill="black" height="2.5" stroke="none" stroke-width="0" width="2.5" x="323.8" y="33.8" /><rect fill="black" height="2.4" stroke="none" stroke-width="0" width="2.4" x="333.8" y="33.8" /><rect fill="black" height="2.7" stroke="none" stroke-width="0" width="2.7" x="343.6" y="33.6" /><rect fill="black" height="3.0" stroke="none" stroke-width="0" width="3.0" x="353.5" y="33.5" /><rect fill="black" height="2.2" stroke="none" stroke-width="0" width="2.2" x="363.9" y="33.9" /><rect fill="black" height="2.8" stroke="none" stroke-width="0" width="2.8" x="373.6" y="33.6" /><rect fill="black" height="2.7" stroke="none" stroke-width="0" width="2.7" x="383.7" y="33.7" /><rect fill="black" height="2.1" stroke="none" stroke-width="0" width="2.1" x="393.9" y="33.9" /><rect fill="black" height="3.2" stroke="none" stroke-width="0" width="3.2" x="403.4" y="33.4" /><rect fill="black" height="2.4" stroke="none" stroke-width="0" width="2.4" x="413.8" y="33.8" /><rect fill="black" height="2.6" stroke="none" stroke-width="0" width="2.6" x="423.7" y="33.7" /><rect fill="black" height="2.5" stroke="none" stroke-width="0" width="2.5" x="433.7" y="33.7" /><rect fill="black" height="2.4" stroke="none" stroke-width="0" width="2.4" x="443.8" y="33.8" /><rect fill="black" height="3.8" stroke="none" stroke-width="0" width="3.8" x="453.1" y="33.1" /><rect fill="black" height="2.1" stroke="none" stroke-width="0" width="2.1" x="463.9" y="33.9" /><rect fill="black" height="2.2" stroke="none" stroke-width="0" width="2.2" x="473.9" y="33.9" /><rect fill="black" height="2.9" stroke="none" stroke-width="0" width="2.9" x="483.5" y="33.5" /><rect fill="black" height="2.1" stroke="none" stroke-width="0" width="2.1" x="493.9" y="33.9" /><rect fill="black" height="7.0" stroke="none" stroke-width="0" width="7.0" x="1.5" y="41.5" /><rect fill="black" height="6.6" stroke="none" stroke-width="0" width="6.6" x="11.7" y="41.7" /><rect fill="black" height="9.0" stroke="none" stroke-width="0" width="9.0" x="20.5" y="40.5" /><rect fill="black" height="9.5" stroke="none" stroke-width="0" width="9.5" x="30.2" y="40.2" /><rect fill="black" height="6.3" stroke="none" stroke-width="0" width="6.3" x="41.8" y="41.8" /><rect fill="black" height="4.9" stroke="none" stroke-width="0" width="4.9" x="52.5" y="42.5" /><rect fill="black" height="3.4" stroke="none" stroke-width="0" width="3.4" x="63.3" y="43.3" /><rect fill="black" height="2.1" stroke="none" stroke-width="0" width="2.1" x="73.9" y="43.9" /><rect fill="black" height="2.1" stroke="none" stroke-width="0" width="2.1" x="83.9" y="43.9" /><rect fill="black" height="2.1" stroke="none" stroke-width="0" width="2.1" x="93.9" y="43.9" /><rect fill="black" height="2.1" stroke="none" stroke-width="0" width="2.1" x="103.9" y="43.9" /><rect fill="black" height="2.1" stroke="none" stroke-width="0" width="2.1" x="113.9" y="43.9" /><rect fill="black" height="2.1" stroke="none" stroke-width="0" width="2.1" x="123.9" y="43.9" /><rect fill="black" height="2.1" stroke="none" stroke-width="0" width="2.1" x="133.9" y="43.9" /><rect fill="black" height="2.1" stroke="none" stroke-width="0" width="2.1" x="143.9" y="43.9" /><rect fill="black" height="2.1" stroke="none" stroke-width="0" width="2.1" x="153.9" y="43.9" /><rect fill="black" height="2.1" stroke="none" stroke-width="0" width="2.1" x="163.9" y="43.9" /><rect fill="black" height="2.1" stroke="none" stroke-width="0" width="2.1" x="173.9" y="43.9" /><rect fill="black" height="2.1" stroke="none" stroke-width="0" width="2.1" x="183.9" y="43.9" /><rect fill="black" height="2.1" stroke="none" stroke-width="0" width="2.1" x="193.9" y="43.9" /><rect fill="black" height="2.1" stroke="none" stroke-width="0" width="2.1" x="203.9" y="43.9" /><rect fill="black" height="2.1" stroke="none" stroke-width="0" width="2.1" x="213.9" y="43.9" /><rect fill="black" height="2.1" stroke="none" stroke-width="0" width="2.1" x="223.9" y="43.9" /><rect fill="black" height="2.1" stroke="none" stroke-width="0" width="2.1" x="233.9" y="43.9" /><rect fill="black" height="2.1" stroke="none" stroke-width="0" width="2.1" x="243.9" y="43.9" /><rect fill="black" height="2.1" stroke="none" stroke-width="0" width="2.1" x="253.9" y="43.9" /><rect fill="black" height="2.1" stroke="none" stroke-width="0" width="2.1" x="263.9" y="43.9" /><rect fill="black" height="2.1" stroke="none" stroke-width="0" width="2.1" x="273.9" y="43.9" /><rect fill="black" height="2.1" stroke="none" stroke-width="0" width="2.1" x="283.9" y="43.9" /><rect fill="black" height="2.1" stroke="none" stroke-width="0" width="2.1" x="293.9" y="43.9" /><rect fill="black" height="2.1" stroke="none" stroke-width="0" width="2.1" x="303.9" y="43.9" /><rect fill="black" height="2.1" stroke="none" stroke-width="0" width="2.1" x="313.9" y="43.9" /><rect fill="black" height="2.1" stroke="none" stroke-width="0" width="2.1" x="323.9" y="43.9" /><rect fill="black" height="2.1" stroke="none" stroke-width="0" width="2.1" x="333.9" y="43.9" /><rect fill="black" height="2.1" stroke="none" stroke-width="0" width="2.1" x="343.9" y="43.9" /><rect fill="black" height="2.1" stroke="none" stroke-width="0" width="2.1" x="353.9" y="43.9" /><rect fill="black" height="2.1" stroke="none" stroke-width="0" width="2.1" x="363.9" y="43.9" /><rect fill="black" height="2.1" stroke="none" stroke-width="0" width="2.1" x="373.9" y="43.9" /><rect fill="black" height="2.1" stroke="none" stroke-width="0" width="2.1" x="383.9" y="43.9" /><rect fill="black" height="2.1" stroke="none" stroke-width="0" width="2.1" x="393.9" y="43.9" /><rect fill="black" height="2.1" stroke="none" stroke-width="0" width="2.1" x="403.9" y="43.9" /><rect fill="black" height="2.1" stroke="none" stroke-width="0" width="2.1" x="413.9" y="43.9" /><rect fill="black" height="2.1" stroke="none" stroke-width="0" width="2.1" x="423.9" y="43.9" /><rect fill="black" height="2.1" stroke="none" stroke-width="0" width="2.1" x="433.9" y="43.9" /><rect fill="black" height="2.1" stroke="none" stroke-width="0" width="2.1" x="443.9" y="43.9" /><rect fill="black" height="2.1" stroke="none" stroke-width="0" width="2.1" x="453.9" y="43.9" /><rect fill="black" height="2.1" stroke="none" stroke-width="0" width="2.1" x="463.9" y="43.9" /><rect fill="black" height="2.1" stroke="none" stroke-width="0" width="2.1" x="473.9" y="43.9" /><rect fill="black" height="2.1" stroke="none" stroke-width="0" width="2.1" x="483.9" y="43.9" /><rect fill="black" height="2.1" stroke="none" stroke-width="0" width="2.1" x="493.9" y="43.9" /><rect fill="black" height="9.5" stroke="none" stroke-width="0" width="9.5" x="0.2" y="50.2" /><rect fill="black" height="8.4" stroke="none" stroke-width="0" width="8.4" x="10.8" y="50.8" /><rect fill="black" height="7.8" stroke="none" stroke-width="0" width="7.8" x="21.1" y="51.1" /><rect fill="black" height="7.5" stroke="none" stroke-width="0" width="7.5" x="31.2" y="51.2" /><rect fill="black" height="6.4" stroke="none" stroke-width="0" width="6.4" x="41.8" y="51.8" /><rect fill="black" height="5.1" stroke="none" stroke-width="0" width="5.1" x="52.5" y="52.5" /><rect fill="black" height="4.4" stroke="none" stroke-width="0" width="4.4" x="62.8" y="52.8" /><rect fill="black" height="3.4" stroke="none" stroke-width="0" width="3.4" x="73.3" y="53.3" /><rect fill="black" height="3.2" stroke="none" stroke-width="0" width="3.2" x="83.4" y="53.4" /><rect fill="black" height="3.0" stroke="none" stroke-width="0" width="3.0" x="93.5" y="53.5" /><rect fill="black" height="2.6" stroke="none" stroke-width="0" width="2.6" x="103.7" y="53.7" /><rect fill="black" height="2.1" stroke="none" stroke-width="0" width="2.1" x="113.9" y="53.9" /><rect fill="black" height="2.1" stroke="none" stroke-width="0" width="2.1" x="123.9" y="53.9" /><rect fill="black" height="2.1" stroke="none" stroke-width="0" width="2.1" x="133.9" y="53.9" /><rect fill="black" height="2.1" stroke="none" stroke-width="0" width="2.1" x="143.9" y="53.9" /><rect fill="black" height="2.1" stroke="none" stroke-width="0" width="2.1" x="153.9" y="53.9" /><rect fill="black" height="2.1" stroke="none" stroke-width="0" width="2.1" x="163.9" y="53.9" /><rect fill="black" height="2.1" stroke="none" stroke-width="0" width="2.1" x="173.9" y="53.9" /><rect fill="black" height="2.1" stroke="none" stroke-width="0" width="2.1" x="183.9" y="53.9" /><rect fill="black" height="2.1" stroke="none" stroke-width="0" width="2.1" x="193.9" y="53.9" /><rect fill="black" height="2.1" stroke="none" stroke-width="0" width="2.1" x="203.9" y="53.9" /><rect fill="black" height="2.1" stroke="none" stroke-width="0" width="2.1" x="213.9" y="53.9" /><rect fill="black" height="2.1" stroke="none" stroke-width="0" width="2.1" x="223.9" y="53.9" /><rect fill="black" height="2.1" stroke="none" stroke-width="0" width="2.1" x="233.9" y="53.9" /><rect fill="black" height="2.1" stroke="none" stroke-width="0" width="2.1" x="243.9" y="53.9" /><rect fill="black" height="2.1" stroke="none" stroke-width="0" width="2.1" x="253.9" y="53.9" /><rect fill="black" height="2.1" stroke="none" stroke-width="0" width="2.1" x="263.9" y="53.9" /><rect fill="black" height="2.1" stroke="none" stroke-width="0" width="2.1" x="273.9" y="53.9" /><rect fill="black" height="2.1" stroke="none" stroke-width="0" width="2.1" x="283.9" y="53.9" /><rect fill="black" height="2.1" stroke="none" stroke-width="0" width="2.1" x="293.9" y="53.9" /><rect fill="black" height="2.1" stroke="none" stroke-width="0" width="2.1" x="303.9" y="53.9" /><rect fill="black" height="2.1" stroke="none" stroke-width="0" width="2.1" x="313.9" y="53.9" /><rect fill="black" height="2.1" stroke="none" stroke-width="0" width="2.1" x="323.9" y="53.9" /><rect fill="black" height="2.1" stroke="none" stroke-width="0" width="2.1" x="333.9" y="53.9" /><rect fill="black" height="2.1" stroke="none" stroke-width="0" width="2.1" x="343.9" y="53.9" /><rect fill="black" height="2.1" stroke="none" stroke-width="0" width="2.1" x="353.9" y="53.9" /><rect fill="black" height="2.1" stroke="none" stroke-width="0" width="2.1" x="363.9" y="53.9" /><rect fill="black" height="2.1" stroke="none" stroke-width="0" width="2.1" x="373.9" y="53.9" /><rect fill="black" height="2.1" stroke="none" stroke-width="0" width="2.1" x="383.9" y="53.9" /><rect fill="black" height="2.1" stroke="none" stroke-width="0" width="2.1" x="393.9" y="53.9" /><rect fill="black" height="2.1" stroke="none" stroke-width="0" width="2.1" x="403.9" y="53.9" /><rect fill="black" height="2.1" stroke="none" stroke-width="0" width="2.1" x="413.9" y="53.9" /><rect fill="black" height="2.1" stroke="none" stroke-width="0" width="2.1" x="423.9" y="53.9" /><rect fill="black" height="2.1" stroke="none" stroke-width="0" width="2.1" x="433.9" y="53.9" /><rect fill="black" height="2.1" stroke="none" stroke-width="0" width="2.1" x="443.9" y="53.9" /><rect fill="black" height="2.1" stroke="none" stroke-width="0" width="2.1" x="453.9" y="53.9" /><rect fill="black" height="2.1" stroke="none" stroke-width="0" width="2.1" x="463.9" y="53.9" /><rect fill="black" height="2.1" stroke="none" stroke-width="0" width="2.1" x="473.9" y="53.9" /><rect fill="black" height="2.1" stroke="none" stroke-width="0" width="2.1" x="483.9" y="53.9" /><rect fill="black" height="2.1" stroke="none" stroke-width="0" width="2.1" x="493.9" y="53.9" /><rect fill="black" height="7.2" stroke="none" stroke-width="0" width="7.2" x="1.4" y="61.4" /><rect fill="black" height="8.1" stroke="none" stroke-width="0" width="8.1" x="11.0" y="61.0" /><rect fill="black" height="9.3" stroke="none" stroke-width="0" width="9.3" x="20.4" y="60.4" /><rect fill="black" height="9.5" stroke="none" stroke-width="0" width="9.5" x="30.3" y="60.3" /><rect fill="black" height="9.5" stroke="none" stroke-width="0" width="9.5" x="40.2" y="60.2" /><rect fill="black" height="8.7" stroke="none" stroke-width="0" width="8.7" x="50.7" y="60.7" /><rect fill="black" height="8.2" stroke="none" stroke-width="0" width="8.2" x="60.9" y="60.9" /><rect fill="black" height="8.1" stroke="none" stroke-width="0" width="8.1" x="71.0" y="61.0" /><rect fill="black" height="8.0" stroke="none" stroke-width="0" width="8.0" x="81.0" y="61.0" /><rect fill="black" height="8.3" stroke="none" stroke-width="0" width="8.3" x="90.8" y="60.8" /><rect fill="black" height="7.6" stroke="none" stroke-width="0" width="7.6" x="101.2" y="61.2" /><rect fill="black" height="5.8" stroke="none" stroke-width="0" width="5.8" x="112.1" y="62.1" /><rect fill="black" height="4.0" stroke="none" stroke-width="0" width="4.0" x="123.0" y="63.0" /><rect fill="black" height="3.9" stroke="none" stroke-width="0" width="3.9" x="133.0" y="63.0" /><rect fill="black" height="5.2" stroke="none" stroke-width="0" width="5.2" x="142.4" y="62.4" /><rect fill="black" height="5.2" stroke="none" stroke-width="0" width="5.2" x="152.4" y="62.4" /><rect fill="black" height="4.7" stroke="none" stroke-width="0" width="4.7" x="162.7" y="62.7" /><rect fill="black" height="4.4" stroke="none" stroke-width="0" width="4.4" x="172.8" y="62.8" /><rect fill="black" height="4.3" stroke="none" stroke-width="0" width="4.3" x="182.8" y="62.8" /><rect fill="black" height="5.4" stroke="none" stroke-width="0" width="5.4" x="192.3" y="62.3" /><rect fill="black" height="4.1" stroke="none" stroke-width="0" width="4.1" x="203.0" y="63.0" /><rect fill="black" height="4.7" stroke="none" stroke-width="0" width="4.7" x="212.6" y="62.6" /><rect fill="black" height="4.6" stroke="none" stroke-width="0" width="4.6" x="222.7" y="62.7" /><rect fill="black" height="4.4" stroke="none" stroke-width="0" width="4.4" x="232.8" y="62.8" /><rect fill="black" height="3.6" stroke="none" stroke-width="0" width="3.6" x="243.2" y="63.2" /><rect fill="black" height="5.0" stroke="none" stroke-width="0" width="5.0" x="252.5" y="62.5" /><rect fill="black" height="5.2" stroke="none" stroke-width="0" width="5.2" x="262.4" y="62.4" /><rect fill="black" height="3.4" stroke="none" stroke-width="0" width="3.4" x="273.3" y="63.3" /><rect fill="black" height="4.0" stroke="none" stroke-width="0" width="4.0" x="283.0" y="63.0" /><rect fill="black" height="3.9" stroke="none" stroke-width="0" width="3.9" x="293.1" y="63.1" /><rect fill="black" height="4.4" stroke="none" stroke-width="0" width="4.4" x="302.8" y="62.8" /><rect fill="black" height="4.6" stroke="none" stroke-width="0" width="4.6" x="312.7" y="62.7" /><rect fill="black" height="3.9" stroke="none" stroke-width="0" width="3.9" x="323.0" y="63.0" /><rect fill="black" height="4.0" stroke="none" stroke-width="0" width="4.0" x="333.0" y="63.0" /><rect fill="black" height="4.4" stroke="none" stroke-width="0" width="4.4" x="342.8" y="62.8" /><rect fill="black" height="4.8" stroke="none" stroke-width="0" width="4.8" x="352.6" y="62.6" /><rect fill="black" height="3.6" stroke="none" stroke-width="0" width="3.6" x="363.2" y="63.2" /><rect fill="black" height="4.4" stroke="none" stroke-width="0" width="4.4" x="372.8" y="62.8" /><rect fill="black" height="4.3" stroke="none" stroke-width="0" width="4.3" x="382.9" y="62.9" /><rect fill="black" height="2.9" stroke="none" stroke-width="0" width="2.9" x="393.6" y="63.6" /><rect fill="black" height="5.1" stroke="none" stroke-width="0" width="5.1" x="402.5" y="62.5" /><rect fill="black" height="3.9" stroke="none" stroke-width="0" width="3.9" x="413.1" y="63.1" /><rect fill="black" height="4.3" stroke="none" stroke-width="0" width="4.3" x="422.9" y="62.9" /><rect fill="black" height="4.0" stroke="none" stroke-width="0" width="4.0" x="433.0" y="63.0" /><rect fill="black" height="3.9" stroke="none" stroke-width="0" width="3.9" x="443.0" y="63.0" /><rect fill="black" height="6.1" stroke="none" stroke-width="0" width="6.1" x="452.0" y="62.0" /><rect fill="black" height="2.7" stroke="none" stroke-width="0" width="2.7" x="463.6" y="63.6" /><rect fill="black" height="3.8" stroke="none" stroke-width="0" width="3.8" x="473.1" y="63.1" /><rect fill="black" height="4.7" stroke="none" stroke-width="0" width="4.7" x="482.6" y="62.6" /><rect fill="black" height="3.5" stroke="none" stroke-width="0" width="3.5" x="493.3" y="63.3" /><rect fill="black" height="6.5" stroke="none" stroke-width="0" width="6.5" x="1.7" y="71.7" /><rect fill="black" height="7.8" stroke="none" stroke-width="0" width="7.8" x="11.1" y="71.1" /><rect fill="black" height="8.4" stroke="none" stroke-width="0" width="8.4" x="20.8" y="70.8" /><rect fill="black" height="9.5" stroke="none" stroke-width="0" width="9.5" x="30.2" y="70.2" /><rect fill="black" height="9.4" stroke="none" stroke-width="0" width="9.4" x="40.3" y="70.3" /><rect fill="black" height="8.9" stroke="none" stroke-width="0" width="8.9" x="50.5" y="70.5" /><rect fill="black" height="9.0" stroke="none" stroke-width="0" width="9.0" x="60.5" y="70.5" /><rect fill="black" height="7.9" stroke="none" stroke-width="0" width="7.9" x="71.0" y="71.0" /><rect fill="black" height="8.3" stroke="none" stroke-width="0" width="8.3" x="80.9" y="70.9" /><rect fill="black" height="8.3" stroke="none" stroke-width="0" width="8.3" x="90.9" y="70.9" /><rect fill="black" height="7.2" stroke="none" stroke-width="0" width="7.2" x="101.4" y="71.4" /><rect fill="black" height="6.1" stroke="none" stroke-width="0" width="6.1" x="111.9" y="71.9" /><rect fill="black" height="3.9" stroke="none" stroke-width="0" width="3.9" x="123.1" y="73.1" /><rect fill="black" height="3.6" stroke="none" stroke-width="0" width="3.6" x="133.2" y="73.2" /><rect fill="black" height="4.8" stroke="none" stroke-width="0" width="4.8" x="142.6" y="72.6" /><rect fill="black" height="4.4" stroke="none" stroke-width="0" width="4.4" x="152.8" y="72.8" /><rect fill="black" height="4.9" stroke="none" stroke-width="0" width="4.9" x="162.6" y="72.6" /><rect fill="black" height="4.5" stroke="none" stroke-width="0" width="4.5" x="172.8" y="72.8" /><rect fill="black" height="4.0" stroke="none" stroke-width="0" width="4.0" x="183.0" y="73.0" /><rect fill="black" height="4.4" stroke="none" stroke-width="0" width="4.4" x="192.8" y="72.8" /><rect fill="black" height="4.2" stroke="none" stroke-width="0" width="4.2" x="202.9" y="72.9" /><rect fill="black" height="4.5" stroke="none" stroke-width="0" width="4.5" x="212.7" y="72.7" /><rect fill="black" height="4.5" stroke="none" stroke-width="0" width="4.5" x="222.8" y="72.8" /><rect fill="black" height="4.1" stroke="none" stroke-width="0" width="4.1" x="233.0" y="73.0" /><rect fill="black" height="3.8" stroke="none" stroke-width="0" width="3.8" x="243.1" y="73.1" /><rect fill="black" height="4.3" stroke="none" stroke-width="0" width="4.3" x="252.9" y="72.9" /><rect fill="black" height="5.0" stroke="none" stroke-width="0" width="5.0" x="262.5" y="72.5" /><rect fill="black" height="3.2" stroke="none" stroke-width="0" width="3.2" x="273.4" y="73.4" /><rect fill="black" height="3.7" stroke="none" stroke-width="0" width="3.7" x="283.1" y="73.1" /><rect fill="black" height="3.4" stroke="none" stroke-width="0" width="3.4" x="293.3" y="73.3" /><rect fill="black" height="4.4" stroke="none" stroke-width="0" width="4.4" x="302.8" y="72.8" /><rect fill="black" height="3.9" stroke="none" stroke-width="0" width="3.9" x="313.1" y="73.1" /><rect fill="black" height="3.8" stroke="none" stroke-width="0" width="3.8" x="323.1" y="73.1" /><rect fill="black" height="4.3" stroke="none" stroke-width="0" width="4.3" x="332.9" y="72.9" /><rect fill="black" height="4.6" stroke="none" stroke-width="0" width="4.6" x="342.7" y="72.7" /><rect fill="black" height="4.4" stroke="none" stroke-width="0" width="4.4" x="352.8" y="72.8" /><rect fill="black" height="3.5" stroke="none" stroke-width="0" width="3.5" x="363.3" y="73.3" /><rect fill="black" height="3.8" stroke="none" stroke-width="0" width="3.8" x="373.1" y="73.1" /><rect fill="black" height="4.1" stroke="none" stroke-width="0" width="4.1" x="382.9" y="72.9" /><rect fill="black" height="2.4" stroke="none" stroke-width="0" width="2.4" x="393.8" y="73.8" /><rect fill="black" height="5.0" stroke="none" stroke-width="0" width="5.0" x="402.5" y="72.5" /><rect fill="black" height="3.5" stroke="none" stroke-width="0" width="3.5" x="413.2" y="73.2" /><rect fill="black" height="4.5" stroke="none" stroke-width="0" width="4.5" x="422.7" y="72.7" /><rect fill="black" height="3.7" stroke="none" stroke-width="0" width="3.7" x="433.1" y="73.1" /><rect fill="black" height="3.9" stroke="none" stroke-width="0" width="3.9" x="443.1" y="73.1" /><rect fill="black" height="7.7" stroke="none" stroke-width="0" width="7.7" x="451.1" y="71.1" /><rect fill="black" height="2.6" stroke="none" stroke-width="0" width="2.6" x="463.7" y="73.7" /><rect fill="black" height="3.7" stroke="none" stroke-width="0" width="3.7" x="473.2" y="73.2" /><rect fill="black" height="4.3" stroke="none" stroke-width="0" width="4.3" x="482.9" y="72.9" /><rect fill="black" height="3.6" stroke="none" stroke-width="0" width="3.6" x="493.2" y="73.2" /><rect fill="black" height="9.4" stroke="none" stroke-width="0" width="9.4" x="0.3" y="80.3" /><rect fill="black" height="8.9" stroke="none" stroke-width="0" width="8.9" x="10.6" y="80.6" /><rect fill="black" height="9.2" stroke="none" stroke-width="0" width="9.2" x="20.4" y="80.4" /><rect fill="black" height="9.2" stroke="none" stroke-width="0" width="9.2" x="30.4" y="80.4" /><rect fill="black" height="9.1" stroke="none" stroke-width="0" width="9.1" x="40.4" y="80.4" /><rect fill="black" height="8.9" stroke="none" stroke-width="0" width="8.9" x="50.6" y="80.6" /><rect fill="black" height="8.6" stroke="none" stroke-width="0" width="8.6" x="60.7" y="80.7" /><rect fill="black" height="8.3" stroke="none" stroke-width="0" width="8.3" x="70.8" y="80.8" /><rect fill="black" height="8.7" stroke="none" stroke-width="0" width="8.7" x="80.6" y="80.6" /><rect fill="black" height="8.7" stroke="none" stroke-width="0" width="8.7" x="90.6" y="80.6" /><rect fill="black" height="8.3" stroke="none" stroke-width="0" width="8.3" x="100.8" y="80.8" /><rect fill="black" height="7.1" stroke="none" stroke-width="0" width="7.1" x="111.4" y="81.4" /><rect fill="black" height="5.1" stroke="none" stroke-width="0" width="5.1" x="122.4" y="82.4" /><rect fill="black" height="5.0" stroke="none" stroke-width="0" width="5.0" x="132.5" y="82.5" /><rect fill="black" height="6.7" stroke="none" stroke-width="0" width="6.7" x="141.7" y="81.7" /><rect fill="black" height="6.5" stroke="none" stroke-width="0" width="6.5" x="151.7" y="81.7" /><rect fill="black" height="6.1" stroke="none" stroke-width="0" width="6.1" x="161.9" y="81.9" /><rect fill="black" height="5.9" stroke="none" stroke-width="0" width="5.9" x="172.1" y="82.1" /><rect fill="black" height="5.7" stroke="none" stroke-width="0" width="5.7" x="182.1" y="82.1" /><rect fill="black" height="6.8" stroke="none" stroke-width="0" width="6.8" x="191.6" y="81.6" /><rect fill="black" height="5.4" stroke="none" stroke-width="0" width="5.4" x="202.3" y="82.3" /><rect fill="black" height="6.4" stroke="none" stroke-width="0" width="6.4" x="211.8" y="81.8" /><rect fill="black" height="6.3" stroke="none" stroke-width="0" width="6.3" x="221.9" y="81.9" /><rect fill="black" height="6.0" stroke="none" stroke-width="0" width="6.0" x="232.0" y="82.0" /><rect fill="black" height="5.1" stroke="none" stroke-width="0" width="5.1" x="242.4" y="82.4" /><rect fill="black" height="7.2" stroke="none" stroke-width="0" width="7.2" x="251.4" y="81.4" /><rect fill="black" height="6.6" stroke="none" stroke-width="0" width="6.6" x="261.7" y="81.7" /><rect fill="black" height="5.1" stroke="none" stroke-width="0" width="5.1" x="272.4" y="82.4" /><rect fill="black" height="5.7" stroke="none" stroke-width="0" width="5.7" x="282.2" y="82.2" /><rect fill="black" height="5.5" stroke="none" stroke-width="0" width="5.5" x="292.2" y="82.2" /><rect fill="black" height="6.3" stroke="none" stroke-width="0" width="6.3" x="301.9" y="81.9" /><rect fill="black" height="6.8" stroke="none" stroke-width="0" width="6.8" x="311.6" y="81.6" /><rect fill="black" height="5.7" stroke="none" stroke-width="0" width="5.7" x="322.2" y="82.2" /><rect fill="black" height="5.4" stroke="none" stroke-width="0" width="5.4" x="332.3" y="82.3" /><rect fill="black" height="6.5" stroke="none" stroke-width="0" width="6.5" x="341.8" y="81.8" /><rect fill="black" height="7.0" stroke="none" stroke-width="0" width="7.0" x="351.5" y="81.5" /><rect fill="black" height="5.4" stroke="none" stroke-width="0" width="5.4" x="362.3" y="82.3" /><rect fill="black" height="6.6" stroke="none" stroke-width="0" width="6.6" x="371.7" y="81.7" /><rect fill="black" height="6.2" stroke="none" stroke-width="0" width="6.2" x="381.9" y="81.9" /><rect fill="black" height="4.3" stroke="none" stroke-width="0" width="4.3" x="392.8" y="82.8" /><rect fill="black" height="7.1" stroke="none" stroke-width="0" width="7.1" x="401.4" y="81.4" /><rect fill="black" height="5.7" stroke="none" stroke-width="0" width="5.7" x="412.1" y="82.1" /><rect fill="black" height="6.3" stroke="none" stroke-width="0" width="6.3" x="421.9" y="81.9" /><rect fill="black" height="6.0" stroke="none" stroke-width="0" width="6.0" x="432.0" y="82.0" /><rect fill="black" height="5.6" stroke="none" stroke-width="0" width="5.6" x="442.2" y="82.2" /><rect fill="black" height="9.5" stroke="none" stroke-width="0" width="9.5" x="450.2" y="80.2" /><rect fill="black" height="4.2" stroke="none" stroke-width="0" width="4.2" x="462.9" y="82.9" /><rect fill="black" height="5.6" stroke="none" stroke-width="0" width="5.6" x="472.2" y="82.2" /><rect fill="black" height="6.8" stroke="none" stroke-width="0" width="6.8" x="481.6" y="81.6" /><rect fill="black" height="5.3" stroke="none" stroke-width="0" width="5.3" x="492.3" y="82.3" /></g><g><line stroke="black" stroke-width="0.5" x1="5.0" x2="5.0" y1="-4.0" y2="-7.0" /><text dominant-baseline="middle" font-size="6px" text-anchor="middle" x="5.0" y="-13.0">1</text><line stroke="black" stroke-width="0.5" x1="495.0" x2="495.0" y1="-4.0" y2="-7.0" /><text dominant-baseline="middle" font-size="6px" text-anchor="middle" x="495.0" y="-13.0">65536</text><text font-size="6px" text-anchor="middle" x="250.0" y="-17.0">Time (linear)</text><line stroke="black" stroke-width="0.5" x1="504.0" x2="507.0" y1="5.0" y2="5.0" /><text dominant-baseline="middle" font-size="6px" text-anchor="start" x="513.0" y="5.0">emb_pos</text><line stroke="black" stroke-width="0.5" x1="504.0" x2="507.0" y1="15.0" y2="15.0" /><text dominant-baseline="middle" font-size="6px" text-anchor="start" x="513.0" y="15.0">emb_tok</text><line stroke="black" stroke-width="0.5" x1="504.0" x2="507.0" y1="25.0" y2="25.0" /><text dominant-baseline="middle" font-size="6px" text-anchor="start" x="513.0" y="25.0">k</text><line stroke="black" stroke-width="0.5" x1="504.0" x2="507.0" y1="35.0" y2="35.0" /><text dominant-baseline="middle" font-size="6px" text-anchor="start" x="513.0" y="35.0">o</text><line stroke="black" stroke-width="0.5" x1="504.0" x2="507.0" y1="45.0" y2="45.0" /><text dominant-baseline="middle" font-size="6px" text-anchor="start" x="513.0" y="45.0">q</text><line stroke="black" stroke-width="0.5" x1="504.0" x2="507.0" y1="55.0" y2="55.0" /><text dominant-baseline="middle" font-size="6px" text-anchor="start" x="513.0" y="55.0">v</text><line stroke="black" stroke-width="0.5" x1="504.0" x2="507.0" y1="65.0" y2="65.0" /><text dominant-baseline="middle" font-size="6px" text-anchor="start" x="513.0" y="65.0">w_in</text><line stroke="black" stroke-width="0.5" x1="504.0" x2="507.0" y1="75.0" y2="75.0" /><text dominant-baseline="middle" font-size="6px" text-anchor="start" x="513.0" y="75.0">w_out</text><line stroke="black" stroke-width="0.5" x1="504.0" x2="507.0" y1="85.0" y2="85.0" /><text dominant-baseline="middle" font-size="6px" text-anchor="start" x="513.0" y="85.0">unbeds</text><text font-size="6px" text-anchor="middle" transform="rotate(-90, -17.0, 45.0)" x="-17.0" y="45.0">Gradient Norm (L2)</text></g></svg>