<?xml version="1.0" encoding="utf-8" ?>
<svg baseProfile="full" height="100%" preserveAspectRatio="xMidYMid meet" version="1.1" viewBox="-40,-40,580,170" width="100%" xmlns="http://www.w3.org/2000/svg" xmlns:ev="http://www.w3.org/2001/xml-events" xmlns:xlink="http://www.w3.org/1999/xlink"><defs><style type="text/css"><![CDATA[
        @import url(https://cdn.jsdelivr.net/npm/firacode@6.2.0/distr/fira_code.css);
        text {
            font-family: 'STIX Two', 'STIX Two Math', 'STIXMath', 'DejaVu Math TeX Glyph',
                        'DejaVu Serif', 'Cambria Math', 'Latin Modern Math', 'FiraCode',
                        'serif';
        }
    ]]></style><style type="text/css"><![CDATA[
        @import url(https://cdn.jsdelivr.net/npm/firacode@6.2.0/distr/fira_code.css);
        text {
            font-family: 'STIX Two', 'STIX Two Math', 'STIXMath', 'DejaVu Math TeX Glyph',
                        'DejaVu Serif', 'Cambria Math', 'Latin Modern Math', 'FiraCode',
                        'serif';
        }
    ]]></style></defs><g><rect fill="black" height="6.6" stroke="none" stroke-width="0" width="6.6" x="1.7" y="1.7" /><rect fill="black" height="7.7" stroke="none" stroke-width="0" width="7.7" x="11.2" y="1.2" /><rect fill="black" height="9.3" stroke="none" stroke-width="0" width="9.3" x="20.4" y="0.4" /><rect fill="black" height="7.1" stroke="none" stroke-width="0" width="7.1" x="31.4" y="1.4" /><rect fill="black" height="9.5" stroke="none" stroke-width="0" width="9.5" x="40.2" y="0.2" /><rect fill="black" height="7.4" stroke="none" stroke-width="0" width="7.4" x="51.3" y="1.3" /><rect fill="black" height="7.4" stroke="none" stroke-width="0" width="7.4" x="61.3" y="1.3" /><rect fill="black" height="6.9" stroke="none" stroke-width="0" width="6.9" x="71.6" y="1.6" /><rect fill="black" height="7.7" stroke="none" stroke-width="0" width="7.7" x="81.2" y="1.2" /><rect fill="black" height="7.6" stroke="none" stroke-width="0" width="7.6" x="91.2" y="1.2" /><rect fill="black" height="5.9" stroke="none" stroke-width="0" width="5.9" x="102.0" y="2.0" /><rect fill="black" height="6.8" stroke="none" stroke-width="0" width="6.8" x="111.6" y="1.6" /><rect fill="black" height="6.2" stroke="none" stroke-width="0" width="6.2" x="121.9" y="1.9" /><rect fill="black" height="6.2" stroke="none" stroke-width="0" width="6.2" x="131.9" y="1.9" /><rect fill="black" height="6.9" stroke="none" stroke-width="0" width="6.9" x="141.6" y="1.6" /><rect fill="black" height="6.1" stroke="none" stroke-width="0" width="6.1" x="152.0" y="2.0" /><rect fill="black" height="6.5" stroke="none" stroke-width="0" width="6.5" x="161.8" y="1.8" /><rect fill="black" height="5.3" stroke="none" stroke-width="0" width="5.3" x="172.3" y="2.3" /><rect fill="black" height="6.7" stroke="none" stroke-width="0" width="6.7" x="181.6" y="1.6" /><rect fill="black" height="6.5" stroke="none" stroke-width="0" width="6.5" x="191.7" y="1.7" /><rect fill="black" height="6.4" stroke="none" stroke-width="0" width="6.4" x="201.8" y="1.8" /><rect fill="black" height="5.8" stroke="none" stroke-width="0" width="5.8" x="212.1" y="2.1" /><rect fill="black" height="6.1" stroke="none" stroke-width="0" width="6.1" x="222.0" y="2.0" /><rect fill="black" height="6.7" stroke="none" stroke-width="0" width="6.7" x="231.6" y="1.6" /><rect fill="black" height="6.2" stroke="none" stroke-width="0" width="6.2" x="241.9" y="1.9" /><rect fill="black" height="6.3" stroke="none" stroke-width="0" width="6.3" x="251.8" y="1.8" /><rect fill="black" height="5.6" stroke="none" stroke-width="0" width="5.6" x="262.2" y="2.2" /><rect fill="black" height="5.0" stroke="none" stroke-width="0" width="5.0" x="272.5" y="2.5" /><rect fill="black" height="6.9" stroke="none" stroke-width="0" width="6.9" x="281.5" y="1.5" /><rect fill="black" height="5.8" stroke="none" stroke-width="0" width="5.8" x="292.1" y="2.1" /><rect fill="black" height="5.3" stroke="none" stroke-width="0" width="5.3" x="302.3" y="2.3" /><rect fill="black" height="5.4" stroke="none" stroke-width="0" width="5.4" x="312.3" y="2.3" /><rect fill="black" height="6.3" stroke="none" stroke-width="0" width="6.3" x="321.8" y="1.8" /><rect fill="black" height="6.1" stroke="none" stroke-width="0" width="6.1" x="332.0" y="2.0" /><rect fill="black" height="6.1" stroke="none" stroke-width="0" width="6.1" x="341.9" y="1.9" /><rect fill="black" height="5.7" stroke="none" stroke-width="0" width="5.7" x="352.2" y="2.2" /><rect fill="black" height="6.1" stroke="none" stroke-width="0" width="6.1" x="361.9" y="1.9" /><rect fill="black" height="5.6" stroke="none" stroke-width="0" width="5.6" x="372.2" y="2.2" /><rect fill="black" height="5.6" stroke="none" stroke-width="0" width="5.6" x="382.2" y="2.2" /><rect fill="black" height="4.9" stroke="none" stroke-width="0" width="4.9" x="392.5" y="2.5" /><rect fill="black" height="5.9" stroke="none" stroke-width="0" width="5.9" x="402.0" y="2.0" /><rect fill="black" height="5.8" stroke="none" stroke-width="0" width="5.8" x="412.1" y="2.1" /><rect fill="black" height="5.7" stroke="none" stroke-width="0" width="5.7" x="422.2" y="2.2" /><rect fill="black" height="6.0" stroke="none" stroke-width="0" width="6.0" x="432.0" y="2.0" /><rect fill="black" height="5.6" stroke="none" stroke-width="0" width="5.6" x="442.2" y="2.2" /><rect fill="black" height="6.0" stroke="none" stroke-width="0" width="6.0" x="452.0" y="2.0" /><rect fill="black" height="5.1" stroke="none" stroke-width="0" width="5.1" x="462.4" y="2.4" /><rect fill="black" height="5.2" stroke="none" stroke-width="0" width="5.2" x="472.4" y="2.4" /><rect fill="black" height="6.2" stroke="none" stroke-width="0" width="6.2" x="481.9" y="1.9" /><rect fill="black" height="5.2" stroke="none" stroke-width="0" width="5.2" x="492.4" y="2.4" /><rect fill="black" height="6.8" stroke="none" stroke-width="0" width="6.8" x="1.6" y="11.6" /><rect fill="black" height="7.9" stroke="none" stroke-width="0" width="7.9" x="11.1" y="11.1" /><rect fill="black" height="9.2" stroke="none" stroke-width="0" width="9.2" x="20.4" y="10.4" /><rect fill="black" height="8.8" stroke="none" stroke-width="0" width="8.8" x="30.6" y="10.6" /><rect fill="black" height="9.5" stroke="none" stroke-width="0" width="9.5" x="40.2" y="10.2" /><rect fill="black" height="8.7" stroke="none" stroke-width="0" width="8.7" x="50.6" y="10.6" /><rect fill="black" height="8.6" stroke="none" stroke-width="0" width="8.6" x="60.7" y="10.7" /><rect fill="black" height="8.9" stroke="none" stroke-width="0" width="8.9" x="70.6" y="10.6" /><rect fill="black" height="8.9" stroke="none" stroke-width="0" width="8.9" x="80.6" y="10.6" /><rect fill="black" height="9.5" stroke="none" stroke-width="0" width="9.5" x="90.3" y="10.3" /><rect fill="black" height="9.0" stroke="none" stroke-width="0" width="9.0" x="100.5" y="10.5" /><rect fill="black" height="8.4" stroke="none" stroke-width="0" width="8.4" x="110.8" y="10.8" /><rect fill="black" height="8.0" stroke="none" stroke-width="0" width="8.0" x="121.0" y="11.0" /><rect fill="black" height="8.3" stroke="none" stroke-width="0" width="8.3" x="130.9" y="10.9" /><rect fill="black" height="8.7" stroke="none" stroke-width="0" width="8.7" x="140.7" y="10.7" /><rect fill="black" height="9.1" stroke="none" stroke-width="0" width="9.1" x="150.4" y="10.4" /><rect fill="black" height="8.7" stroke="none" stroke-width="0" width="8.7" x="160.7" y="10.7" /><rect fill="black" height="8.6" stroke="none" stroke-width="0" width="8.6" x="170.7" y="10.7" /><rect fill="black" height="8.8" stroke="none" stroke-width="0" width="8.8" x="180.6" y="10.6" /><rect fill="black" height="9.4" stroke="none" stroke-width="0" width="9.4" x="190.3" y="10.3" /><rect fill="black" height="8.8" stroke="none" stroke-width="0" width="8.8" x="200.6" y="10.6" /><rect fill="black" height="9.0" stroke="none" stroke-width="0" width="9.0" x="210.5" y="10.5" /><rect fill="black" height="9.1" stroke="none" stroke-width="0" width="9.1" x="220.4" y="10.4" /><rect fill="black" height="9.1" stroke="none" stroke-width="0" width="9.1" x="230.5" y="10.5" /><rect fill="black" height="8.3" stroke="none" stroke-width="0" width="8.3" x="240.9" y="10.9" /><rect fill="black" height="9.2" stroke="none" stroke-width="0" width="9.2" x="250.4" y="10.4" /><rect fill="black" height="9.4" stroke="none" stroke-width="0" width="9.4" x="260.3" y="10.3" /><rect fill="black" height="7.7" stroke="none" stroke-width="0" width="7.7" x="271.2" y="11.2" /><rect fill="black" height="8.8" stroke="none" stroke-width="0" width="8.8" x="280.6" y="10.6" /><rect fill="black" height="8.7" stroke="none" stroke-width="0" width="8.7" x="290.7" y="10.7" /><rect fill="black" height="9.0" stroke="none" stroke-width="0" width="9.0" x="300.5" y="10.5" /><rect fill="black" height="8.7" stroke="none" stroke-width="0" width="8.7" x="310.6" y="10.6" /><rect fill="black" height="8.9" stroke="none" stroke-width="0" width="8.9" x="320.5" y="10.5" /><rect fill="black" height="9.1" stroke="none" stroke-width="0" width="9.1" x="330.4" y="10.4" /><rect fill="black" height="9.0" stroke="none" stroke-width="0" width="9.0" x="340.5" y="10.5" /><rect fill="black" height="8.8" stroke="none" stroke-width="0" width="8.8" x="350.6" y="10.6" /><rect fill="black" height="8.4" stroke="none" stroke-width="0" width="8.4" x="360.8" y="10.8" /><rect fill="black" height="8.9" stroke="none" stroke-width="0" width="8.9" x="370.6" y="10.6" /><rect fill="black" height="8.8" stroke="none" stroke-width="0" width="8.8" x="380.6" y="10.6" /><rect fill="black" height="8.3" stroke="none" stroke-width="0" width="8.3" x="390.8" y="10.8" /><rect fill="black" height="9.2" stroke="none" stroke-width="0" width="9.2" x="400.4" y="10.4" /><rect fill="black" height="8.7" stroke="none" stroke-width="0" width="8.7" x="410.7" y="10.7" /><rect fill="black" height="8.6" stroke="none" stroke-width="0" width="8.6" x="420.7" y="10.7" /><rect fill="black" height="8.7" stroke="none" stroke-width="0" width="8.7" x="430.6" y="10.6" /><rect fill="black" height="9.0" stroke="none" stroke-width="0" width="9.0" x="440.5" y="10.5" /><rect fill="black" height="8.6" stroke="none" stroke-width="0" width="8.6" x="450.7" y="10.7" /><rect fill="black" height="8.0" stroke="none" stroke-width="0" width="8.0" x="461.0" y="11.0" /><rect fill="black" height="8.6" stroke="none" stroke-width="0" width="8.6" x="470.7" y="10.7" /><rect fill="black" height="8.8" stroke="none" stroke-width="0" width="8.8" x="480.6" y="10.6" /><rect fill="black" height="8.0" stroke="none" stroke-width="0" width="8.0" x="491.0" y="11.0" /><rect fill="black" height="8.9" stroke="none" stroke-width="0" width="8.9" x="0.6" y="20.6" /><rect fill="black" height="7.4" stroke="none" stroke-width="0" width="7.4" x="11.3" y="21.3" /><rect fill="black" height="9.5" stroke="none" stroke-width="0" width="9.5" x="20.2" y="20.2" /><rect fill="black" height="5.9" stroke="none" stroke-width="0" width="5.9" x="32.1" y="22.1" /><rect fill="black" height="8.8" stroke="none" stroke-width="0" width="8.8" x="40.6" y="20.6" /><rect fill="black" height="6.4" stroke="none" stroke-width="0" width="6.4" x="51.8" y="21.8" /><rect fill="black" height="3.8" stroke="none" stroke-width="0" width="3.8" x="63.1" y="23.1" /><rect fill="black" height="2.9" stroke="none" stroke-width="0" width="2.9" x="73.6" y="23.6" /><rect fill="black" height="4.1" stroke="none" stroke-width="0" width="4.1" x="83.0" y="23.0" /><rect fill="black" height="4.2" stroke="none" stroke-width="0" width="4.2" x="92.9" y="22.9" /><rect fill="black" height="2.7" stroke="none" stroke-width="0" width="2.7" x="103.6" y="23.6" /><rect fill="black" height="3.1" stroke="none" stroke-width="0" width="3.1" x="113.4" y="23.4" /><rect fill="black" height="2.2" stroke="none" stroke-width="0" width="2.2" x="123.9" y="23.9" /><rect fill="black" height="2.6" stroke="none" stroke-width="0" width="2.6" x="133.7" y="23.7" /><rect fill="black" height="2.4" stroke="none" stroke-width="0" width="2.4" x="143.8" y="23.8" /><rect fill="black" height="2.3" stroke="none" stroke-width="0" width="2.3" x="153.9" y="23.9" /><rect fill="black" height="2.4" stroke="none" stroke-width="0" width="2.4" x="163.8" y="23.8" /><rect fill="black" height="2.1" stroke="none" stroke-width="0" width="2.1" x="173.9" y="23.9" /><rect fill="black" height="2.1" stroke="none" stroke-width="0" width="2.1" x="183.9" y="23.9" /><rect fill="black" height="2.2" stroke="none" stroke-width="0" width="2.2" x="193.9" y="23.9" /><rect fill="black" height="2.3" stroke="none" stroke-width="0" width="2.3" x="203.9" y="23.9" /><rect fill="black" height="2.1" stroke="none" stroke-width="0" width="2.1" x="213.9" y="23.9" /><rect fill="black" height="2.2" stroke="none" stroke-width="0" width="2.2" x="223.9" y="23.9" /><rect fill="black" height="2.5" stroke="none" stroke-width="0" width="2.5" x="233.7" y="23.7" /><rect fill="black" height="2.4" stroke="none" stroke-width="0" width="2.4" x="243.8" y="23.8" /><rect fill="black" height="2.2" stroke="none" stroke-width="0" width="2.2" x="253.9" y="23.9" /><rect fill="black" height="2.1" stroke="none" stroke-width="0" width="2.1" x="263.9" y="23.9" /><rect fill="black" height="2.1" stroke="none" stroke-width="0" width="2.1" x="273.9" y="23.9" /><rect fill="black" height="2.4" stroke="none" stroke-width="0" width="2.4" x="283.8" y="23.8" /><rect fill="black" height="2.1" stroke="none" stroke-width="0" width="2.1" x="293.9" y="23.9" /><rect fill="black" height="2.1" stroke="none" stroke-width="0" width="2.1" x="303.9" y="23.9" /><rect fill="black" height="2.1" stroke="none" stroke-width="0" width="2.1" x="313.9" y="23.9" /><rect fill="black" height="2.3" stroke="none" stroke-width="0" width="2.3" x="323.9" y="23.9" /><rect fill="black" height="2.4" stroke="none" stroke-width="0" width="2.4" x="333.8" y="23.8" /><rect fill="black" height="2.3" stroke="none" stroke-width="0" width="2.3" x="343.9" y="23.9" /><rect fill="black" height="2.1" stroke="none" stroke-width="0" width="2.1" x="353.9" y="23.9" /><rect fill="black" height="2.1" stroke="none" stroke-width="0" width="2.1" x="363.9" y="23.9" /><rect fill="black" height="2.1" stroke="none" stroke-width="0" width="2.1" x="373.9" y="23.9" /><rect fill="black" height="2.3" stroke="none" stroke-width="0" width="2.3" x="383.8" y="23.8" /><rect fill="black" height="2.1" stroke="none" stroke-width="0" width="2.1" x="393.9" y="23.9" /><rect fill="black" height="2.3" stroke="none" stroke-width="0" width="2.3" x="403.9" y="23.9" /><rect fill="black" height="2.2" stroke="none" stroke-width="0" width="2.2" x="413.9" y="23.9" /><rect fill="black" height="2.4" stroke="none" stroke-width="0" width="2.4" x="423.8" y="23.8" /><rect fill="black" height="2.1" stroke="none" stroke-width="0" width="2.1" x="433.9" y="23.9" /><rect fill="black" height="2.3" stroke="none" stroke-width="0" width="2.3" x="443.9" y="23.9" /><rect fill="black" height="2.4" stroke="none" stroke-width="0" width="2.4" x="453.8" y="23.8" /><rect fill="black" height="2.2" stroke="none" stroke-width="0" width="2.2" x="463.9" y="23.9" /><rect fill="black" height="2.3" stroke="none" stroke-width="0" width="2.3" x="473.9" y="23.9" /><rect fill="black" height="2.4" stroke="none" stroke-width="0" width="2.4" x="483.8" y="23.8" /><rect fill="black" height="2.1" stroke="none" stroke-width="0" width="2.1" x="493.9" y="23.9" /><rect fill="black" height="9.1" stroke="none" stroke-width="0" width="9.1" x="0.5" y="30.5" /><rect fill="black" height="8.9" stroke="none" stroke-width="0" width="8.9" x="10.5" y="30.5" /><rect fill="black" height="9.5" stroke="none" stroke-width="0" width="9.5" x="20.2" y="30.2" /><rect fill="black" height="8.7" stroke="none" stroke-width="0" width="8.7" x="30.7" y="30.7" /><rect fill="black" height="8.9" stroke="none" stroke-width="0" width="8.9" x="40.6" y="30.6" /><rect fill="black" height="8.3" stroke="none" stroke-width="0" width="8.3" x="50.9" y="30.9" /><rect fill="black" height="7.9" stroke="none" stroke-width="0" width="7.9" x="61.1" y="31.1" /><rect fill="black" height="8.2" stroke="none" stroke-width="0" width="8.2" x="70.9" y="30.9" /><rect fill="black" height="8.0" stroke="none" stroke-width="0" width="8.0" x="81.0" y="31.0" /><rect fill="black" height="8.6" stroke="none" stroke-width="0" width="8.6" x="90.7" y="30.7" /><rect fill="black" height="8.1" stroke="none" stroke-width="0" width="8.1" x="100.9" y="30.9" /><rect fill="black" height="7.4" stroke="none" stroke-width="0" width="7.4" x="111.3" y="31.3" /><rect fill="black" height="7.1" stroke="none" stroke-width="0" width="7.1" x="121.4" y="31.4" /><rect fill="black" height="7.3" stroke="none" stroke-width="0" width="7.3" x="131.4" y="31.4" /><rect fill="black" height="7.7" stroke="none" stroke-width="0" width="7.7" x="141.2" y="31.2" /><rect fill="black" height="8.1" stroke="none" stroke-width="0" width="8.1" x="150.9" y="30.9" /><rect fill="black" height="7.6" stroke="none" stroke-width="0" width="7.6" x="161.2" y="31.2" /><rect fill="black" height="7.8" stroke="none" stroke-width="0" width="7.8" x="171.1" y="31.1" /><rect fill="black" height="7.9" stroke="none" stroke-width="0" width="7.9" x="181.1" y="31.1" /><rect fill="black" height="8.4" stroke="none" stroke-width="0" width="8.4" x="190.8" y="30.8" /><rect fill="black" height="7.9" stroke="none" stroke-width="0" width="7.9" x="201.1" y="31.1" /><rect fill="black" height="8.2" stroke="none" stroke-width="0" width="8.2" x="210.9" y="30.9" /><rect fill="black" height="8.2" stroke="none" stroke-width="0" width="8.2" x="220.9" y="30.9" /><rect fill="black" height="8.2" stroke="none" stroke-width="0" width="8.2" x="230.9" y="30.9" /><rect fill="black" height="7.3" stroke="none" stroke-width="0" width="7.3" x="241.4" y="31.4" /><rect fill="black" height="8.2" stroke="none" stroke-width="0" width="8.2" x="250.9" y="30.9" /><rect fill="black" height="8.6" stroke="none" stroke-width="0" width="8.6" x="260.7" y="30.7" /><rect fill="black" height="6.8" stroke="none" stroke-width="0" width="6.8" x="271.6" y="31.6" /><rect fill="black" height="8.0" stroke="none" stroke-width="0" width="8.0" x="281.0" y="31.0" /><rect fill="black" height="8.0" stroke="none" stroke-width="0" width="8.0" x="291.0" y="31.0" /><rect fill="black" height="8.2" stroke="none" stroke-width="0" width="8.2" x="300.9" y="30.9" /><rect fill="black" height="8.2" stroke="none" stroke-width="0" width="8.2" x="310.9" y="30.9" /><rect fill="black" height="8.1" stroke="none" stroke-width="0" width="8.1" x="321.0" y="31.0" /><rect fill="black" height="8.3" stroke="none" stroke-width="0" width="8.3" x="330.8" y="30.8" /><rect fill="black" height="8.2" stroke="none" stroke-width="0" width="8.2" x="340.9" y="30.9" /><rect fill="black" height="8.2" stroke="none" stroke-width="0" width="8.2" x="350.9" y="30.9" /><rect fill="black" height="7.8" stroke="none" stroke-width="0" width="7.8" x="361.1" y="31.1" /><rect fill="black" height="8.2" stroke="none" stroke-width="0" width="8.2" x="370.9" y="30.9" /><rect fill="black" height="8.1" stroke="none" stroke-width="0" width="8.1" x="380.9" y="30.9" /><rect fill="black" height="7.7" stroke="none" stroke-width="0" width="7.7" x="391.2" y="31.2" /><rect fill="black" height="8.5" stroke="none" stroke-width="0" width="8.5" x="400.7" y="30.7" /><rect fill="black" height="8.0" stroke="none" stroke-width="0" width="8.0" x="411.0" y="31.0" /><rect fill="black" height="7.9" stroke="none" stroke-width="0" width="7.9" x="421.0" y="31.0" /><rect fill="black" height="8.2" stroke="none" stroke-width="0" width="8.2" x="430.9" y="30.9" /><rect fill="black" height="8.4" stroke="none" stroke-width="0" width="8.4" x="440.8" y="30.8" /><rect fill="black" height="8.0" stroke="none" stroke-width="0" width="8.0" x="451.0" y="31.0" /><rect fill="black" height="7.3" stroke="none" stroke-width="0" width="7.3" x="461.3" y="31.3" /><rect fill="black" height="7.9" stroke="none" stroke-width="0" width="7.9" x="471.0" y="31.0" /><rect fill="black" height="8.2" stroke="none" stroke-width="0" width="8.2" x="480.9" y="30.9" /><rect fill="black" height="7.4" stroke="none" stroke-width="0" width="7.4" x="491.3" y="31.3" /><rect fill="black" height="9.5" stroke="none" stroke-width="0" width="9.5" x="0.2" y="40.2" /><rect fill="black" height="6.8" stroke="none" stroke-width="0" width="6.8" x="11.6" y="41.6" /><rect fill="black" height="6.7" stroke="none" stroke-width="0" width="6.7" x="21.7" y="41.7" /><rect fill="black" height="3.0" stroke="none" stroke-width="0" width="3.0" x="33.5" y="43.5" /><rect fill="black" height="7.0" stroke="none" stroke-width="0" width="7.0" x="41.5" y="41.5" /><rect fill="black" height="2.7" stroke="none" stroke-width="0" width="2.7" x="53.7" y="43.7" /><rect fill="black" height="3.1" stroke="none" stroke-width="0" width="3.1" x="63.5" y="43.5" /><rect fill="black" height="2.1" stroke="none" stroke-width="0" width="2.1" x="73.9" y="43.9" /><rect fill="black" height="2.9" stroke="none" stroke-width="0" width="2.9" x="83.5" y="43.5" /><rect fill="black" height="3.4" stroke="none" stroke-width="0" width="3.4" x="93.3" y="43.3" /><rect fill="black" height="2.1" stroke="none" stroke-width="0" width="2.1" x="103.9" y="43.9" /><rect fill="black" height="2.7" stroke="none" stroke-width="0" width="2.7" x="113.7" y="43.7" /><rect fill="black" height="2.1" stroke="none" stroke-width="0" width="2.1" x="123.9" y="43.9" /><rect fill="black" height="2.1" stroke="none" stroke-width="0" width="2.1" x="133.9" y="43.9" /><rect fill="black" height="2.1" stroke="none" stroke-width="0" width="2.1" x="143.9" y="43.9" /><rect fill="black" height="2.1" stroke="none" stroke-width="0" width="2.1" x="153.9" y="43.9" /><rect fill="black" height="2.1" stroke="none" stroke-width="0" width="2.1" x="163.9" y="43.9" /><rect fill="black" height="2.1" stroke="none" stroke-width="0" width="2.1" x="173.9" y="43.9" /><rect fill="black" height="2.1" stroke="none" stroke-width="0" width="2.1" x="183.9" y="43.9" /><rect fill="black" height="2.1" stroke="none" stroke-width="0" width="2.1" x="193.9" y="43.9" /><rect fill="black" height="2.1" stroke="none" stroke-width="0" width="2.1" x="203.9" y="43.9" /><rect fill="black" height="2.1" stroke="none" stroke-width="0" width="2.1" x="213.9" y="43.9" /><rect fill="black" height="2.1" stroke="none" stroke-width="0" width="2.1" x="223.9" y="43.9" /><rect fill="black" height="2.1" stroke="none" stroke-width="0" width="2.1" x="233.9" y="43.9" /><rect fill="black" height="2.1" stroke="none" stroke-width="0" width="2.1" x="243.9" y="43.9" /><rect fill="black" height="2.1" stroke="none" stroke-width="0" width="2.1" x="253.9" y="43.9" /><rect fill="black" height="2.1" stroke="none" stroke-width="0" width="2.1" x="263.9" y="43.9" /><rect fill="black" height="2.1" stroke="none" stroke-width="0" width="2.1" x="273.9" y="43.9" /><rect fill="black" height="2.1" stroke="none" stroke-width="0" width="2.1" x="283.9" y="43.9" /><rect fill="black" height="2.1" stroke="none" stroke-width="0" width="2.1" x="293.9" y="43.9" /><rect fill="black" height="2.1" stroke="none" stroke-width="0" width="2.1" x="303.9" y="43.9" /><rect fill="black" height="2.1" stroke="none" stroke-width="0" width="2.1" x="313.9" y="43.9" /><rect fill="black" height="2.1" stroke="none" stroke-width="0" width="2.1" x="323.9" y="43.9" /><rect fill="black" height="2.1" stroke="none" stroke-width="0" width="2.1" x="333.9" y="43.9" /><rect fill="black" height="2.1" stroke="none" stroke-width="0" width="2.1" x="343.9" y="43.9" /><rect fill="black" height="2.1" stroke="none" stroke-width="0" width="2.1" x="353.9" y="43.9" /><rect fill="black" height="2.1" stroke="none" stroke-width="0" width="2.1" x="363.9" y="43.9" /><rect fill="black" height="2.1" stroke="none" stroke-width="0" width="2.1" x="373.9" y="43.9" /><rect fill="black" height="2.1" stroke="none" stroke-width="0" width="2.1" x="383.9" y="43.9" /><rect fill="black" height="2.1" stroke="none" stroke-width="0" width="2.1" x="393.9" y="43.9" /><rect fill="black" height="2.1" stroke="none" stroke-width="0" width="2.1" x="403.9" y="43.9" /><rect fill="black" height="2.1" stroke="none" stroke-width="0" width="2.1" x="413.9" y="43.9" /><rect fill="black" height="2.1" stroke="none" stroke-width="0" width="2.1" x="423.9" y="43.9" /><rect fill="black" height="2.1" stroke="none" stroke-width="0" width="2.1" x="433.9" y="43.9" /><rect fill="black" height="2.1" stroke="none" stroke-width="0" width="2.1" x="443.9" y="43.9" /><rect fill="black" height="2.1" stroke="none" stroke-width="0" width="2.1" x="453.9" y="43.9" /><rect fill="black" height="2.1" stroke="none" stroke-width="0" width="2.1" x="463.9" y="43.9" /><rect fill="black" height="2.1" stroke="none" stroke-width="0" width="2.1" x="473.9" y="43.9" /><rect fill="black" height="2.1" stroke="none" stroke-width="0" width="2.1" x="483.9" y="43.9" /><rect fill="black" height="2.1" stroke="none" stroke-width="0" width="2.1" x="493.9" y="43.9" /><rect fill="black" height="8.3" stroke="none" stroke-width="0" width="8.3" x="0.8" y="50.8" /><rect fill="black" height="8.9" stroke="none" stroke-width="0" width="8.9" x="10.6" y="50.6" /><rect fill="black" height="9.5" stroke="none" stroke-width="0" width="9.5" x="20.2" y="50.2" /><rect fill="black" height="7.3" stroke="none" stroke-width="0" width="7.3" x="31.3" y="51.3" /><rect fill="black" height="7.5" stroke="none" stroke-width="0" width="7.5" x="41.2" y="51.2" /><rect fill="black" height="5.9" stroke="none" stroke-width="0" width="5.9" x="52.0" y="52.0" /><rect fill="black" height="5.8" stroke="none" stroke-width="0" width="5.8" x="62.1" y="52.1" /><rect fill="black" height="5.3" stroke="none" stroke-width="0" width="5.3" x="72.4" y="52.4" /><rect fill="black" height="4.8" stroke="none" stroke-width="0" width="4.8" x="82.6" y="52.6" /><rect fill="black" height="4.5" stroke="none" stroke-width="0" width="4.5" x="92.7" y="52.7" /><rect fill="black" height="3.9" stroke="none" stroke-width="0" width="3.9" x="103.0" y="53.0" /><rect fill="black" height="3.6" stroke="none" stroke-width="0" width="3.6" x="113.2" y="53.2" /><rect fill="black" height="3.3" stroke="none" stroke-width="0" width="3.3" x="123.3" y="53.3" /><rect fill="black" height="3.2" stroke="none" stroke-width="0" width="3.2" x="133.4" y="53.4" /><rect fill="black" height="3.3" stroke="none" stroke-width="0" width="3.3" x="143.3" y="53.3" /><rect fill="black" height="3.4" stroke="none" stroke-width="0" width="3.4" x="153.3" y="53.3" /><rect fill="black" height="3.1" stroke="none" stroke-width="0" width="3.1" x="163.5" y="53.5" /><rect fill="black" height="3.0" stroke="none" stroke-width="0" width="3.0" x="173.5" y="53.5" /><rect fill="black" height="3.1" stroke="none" stroke-width="0" width="3.1" x="183.5" y="53.5" /><rect fill="black" height="3.2" stroke="none" stroke-width="0" width="3.2" x="193.4" y="53.4" /><rect fill="black" height="3.0" stroke="none" stroke-width="0" width="3.0" x="203.5" y="53.5" /><rect fill="black" height="3.0" stroke="none" stroke-width="0" width="3.0" x="213.5" y="53.5" /><rect fill="black" height="3.0" stroke="none" stroke-width="0" width="3.0" x="223.5" y="53.5" /><rect fill="black" height="3.0" stroke="none" stroke-width="0" width="3.0" x="233.5" y="53.5" /><rect fill="black" height="2.6" stroke="none" stroke-width="0" width="2.6" x="243.7" y="53.7" /><rect fill="black" height="3.0" stroke="none" stroke-width="0" width="3.0" x="253.5" y="53.5" /><rect fill="black" height="3.0" stroke="none" stroke-width="0" width="3.0" x="263.5" y="53.5" /><rect fill="black" height="2.5" stroke="none" stroke-width="0" width="2.5" x="273.8" y="53.8" /><rect fill="black" height="2.8" stroke="none" stroke-width="0" width="2.8" x="283.6" y="53.6" /><rect fill="black" height="2.9" stroke="none" stroke-width="0" width="2.9" x="293.6" y="53.6" /><rect fill="black" height="2.9" stroke="none" stroke-width="0" width="2.9" x="303.6" y="53.6" /><rect fill="black" height="2.8" stroke="none" stroke-width="0" width="2.8" x="313.6" y="53.6" /><rect fill="black" height="2.8" stroke="none" stroke-width="0" width="2.8" x="323.6" y="53.6" /><rect fill="black" height="2.9" stroke="none" stroke-width="0" width="2.9" x="333.6" y="53.6" /><rect fill="black" height="2.9" stroke="none" stroke-width="0" width="2.9" x="343.6" y="53.6" /><rect fill="black" height="2.8" stroke="none" stroke-width="0" width="2.8" x="353.6" y="53.6" /><rect fill="black" height="2.7" stroke="none" stroke-width="0" width="2.7" x="363.6" y="53.6" /><rect fill="black" height="2.9" stroke="none" stroke-width="0" width="2.9" x="373.6" y="53.6" /><rect fill="black" height="2.8" stroke="none" stroke-width="0" width="2.8" x="383.6" y="53.6" /><rect fill="black" height="2.6" stroke="none" stroke-width="0" width="2.6" x="393.7" y="53.7" /><rect fill="black" height="2.9" stroke="none" stroke-width="0" width="2.9" x="403.5" y="53.5" /><rect fill="black" height="2.8" stroke="none" stroke-width="0" width="2.8" x="413.6" y="53.6" /><rect fill="black" height="2.7" stroke="none" stroke-width="0" width="2.7" x="423.6" y="53.6" /><rect fill="black" height="2.8" stroke="none" stroke-width="0" width="2.8" x="433.6" y="53.6" /><rect fill="black" height="2.8" stroke="none" stroke-width="0" width="2.8" x="443.6" y="53.6" /><rect fill="black" height="2.7" stroke="none" stroke-width="0" width="2.7" x="453.6" y="53.6" /><rect fill="black" height="2.5" stroke="none" stroke-width="0" width="2.5" x="463.8" y="53.8" /><rect fill="black" height="2.7" stroke="none" stroke-width="0" width="2.7" x="473.7" y="53.7" /><rect fill="black" height="2.8" stroke="none" stroke-width="0" width="2.8" x="483.6" y="53.6" /><rect fill="black" height="2.5" stroke="none" stroke-width="0" width="2.5" x="493.8" y="53.8" /><rect fill="black" height="5.5" stroke="none" stroke-width="0" width="5.5" x="2.2" y="62.2" /><rect fill="black" height="7.6" stroke="none" stroke-width="0" width="7.6" x="11.2" y="61.2" /><rect fill="black" height="8.7" stroke="none" stroke-width="0" width="8.7" x="20.6" y="60.6" /><rect fill="black" height="8.6" stroke="none" stroke-width="0" width="8.6" x="30.7" y="60.7" /><rect fill="black" height="8.9" stroke="none" stroke-width="0" width="8.9" x="40.6" y="60.6" /><rect fill="black" height="8.6" stroke="none" stroke-width="0" width="8.6" x="50.7" y="60.7" /><rect fill="black" height="8.3" stroke="none" stroke-width="0" width="8.3" x="60.8" y="60.8" /><rect fill="black" height="8.7" stroke="none" stroke-width="0" width="8.7" x="70.7" y="60.7" /><rect fill="black" height="9.1" stroke="none" stroke-width="0" width="9.1" x="80.4" y="60.4" /><rect fill="black" height="9.5" stroke="none" stroke-width="0" width="9.5" x="90.2" y="60.2" /><rect fill="black" height="8.8" stroke="none" stroke-width="0" width="8.8" x="100.6" y="60.6" /><rect fill="black" height="8.0" stroke="none" stroke-width="0" width="8.0" x="111.0" y="61.0" /><rect fill="black" height="7.5" stroke="none" stroke-width="0" width="7.5" x="121.3" y="61.3" /><rect fill="black" height="7.7" stroke="none" stroke-width="0" width="7.7" x="131.1" y="61.1" /><rect fill="black" height="8.3" stroke="none" stroke-width="0" width="8.3" x="140.9" y="60.9" /><rect fill="black" height="8.9" stroke="none" stroke-width="0" width="8.9" x="150.5" y="60.5" /><rect fill="black" height="8.1" stroke="none" stroke-width="0" width="8.1" x="161.0" y="61.0" /><rect fill="black" height="8.2" stroke="none" stroke-width="0" width="8.2" x="170.9" y="60.9" /><rect fill="black" height="8.3" stroke="none" stroke-width="0" width="8.3" x="180.8" y="60.8" /><rect fill="black" height="8.8" stroke="none" stroke-width="0" width="8.8" x="190.6" y="60.6" /><rect fill="black" height="8.0" stroke="none" stroke-width="0" width="8.0" x="201.0" y="61.0" /><rect fill="black" height="8.6" stroke="none" stroke-width="0" width="8.6" x="210.7" y="60.7" /><rect fill="black" height="8.4" stroke="none" stroke-width="0" width="8.4" x="220.8" y="60.8" /><rect fill="black" height="8.6" stroke="none" stroke-width="0" width="8.6" x="230.7" y="60.7" /><rect fill="black" height="7.5" stroke="none" stroke-width="0" width="7.5" x="241.2" y="61.2" /><rect fill="black" height="8.5" stroke="none" stroke-width="0" width="8.5" x="250.8" y="60.8" /><rect fill="black" height="9.0" stroke="none" stroke-width="0" width="9.0" x="260.5" y="60.5" /><rect fill="black" height="7.1" stroke="none" stroke-width="0" width="7.1" x="271.5" y="61.5" /><rect fill="black" height="8.3" stroke="none" stroke-width="0" width="8.3" x="280.9" y="60.9" /><rect fill="black" height="8.5" stroke="none" stroke-width="0" width="8.5" x="290.8" y="60.8" /><rect fill="black" height="8.4" stroke="none" stroke-width="0" width="8.4" x="300.8" y="60.8" /><rect fill="black" height="8.5" stroke="none" stroke-width="0" width="8.5" x="310.8" y="60.8" /><rect fill="black" height="8.5" stroke="none" stroke-width="0" width="8.5" x="320.8" y="60.8" /><rect fill="black" height="8.6" stroke="none" stroke-width="0" width="8.6" x="330.7" y="60.7" /><rect fill="black" height="8.4" stroke="none" stroke-width="0" width="8.4" x="340.8" y="60.8" /><rect fill="black" height="8.6" stroke="none" stroke-width="0" width="8.6" x="350.7" y="60.7" /><rect fill="black" height="8.0" stroke="none" stroke-width="0" width="8.0" x="361.0" y="61.0" /><rect fill="black" height="8.3" stroke="none" stroke-width="0" width="8.3" x="370.8" y="60.8" /><rect fill="black" height="8.4" stroke="none" stroke-width="0" width="8.4" x="380.8" y="60.8" /><rect fill="black" height="7.8" stroke="none" stroke-width="0" width="7.8" x="391.1" y="61.1" /><rect fill="black" height="8.9" stroke="none" stroke-width="0" width="8.9" x="400.6" y="60.6" /><rect fill="black" height="8.6" stroke="none" stroke-width="0" width="8.6" x="410.7" y="60.7" /><rect fill="black" height="8.0" stroke="none" stroke-width="0" width="8.0" x="421.0" y="61.0" /><rect fill="black" height="8.6" stroke="none" stroke-width="0" width="8.6" x="430.7" y="60.7" /><rect fill="black" height="8.8" stroke="none" stroke-width="0" width="8.8" x="440.6" y="60.6" /><rect fill="black" height="8.0" stroke="none" stroke-width="0" width="8.0" x="451.0" y="61.0" /><rect fill="black" height="7.5" stroke="none" stroke-width="0" width="7.5" x="461.3" y="61.3" /><rect fill="black" height="8.5" stroke="none" stroke-width="0" width="8.5" x="470.8" y="60.8" /><rect fill="black" height="8.5" stroke="none" stroke-width="0" width="8.5" x="480.7" y="60.7" /><rect fill="black" height="7.7" stroke="none" stroke-width="0" width="7.7" x="491.2" y="61.2" /><rect fill="black" height="3.3" stroke="none" stroke-width="0" width="3.3" x="3.4" y="73.4" /><rect fill="black" height="5.8" stroke="none" stroke-width="0" width="5.8" x="12.1" y="72.1" /><rect fill="black" height="6.3" stroke="none" stroke-width="0" width="6.3" x="21.8" y="71.8" /><rect fill="black" height="7.2" stroke="none" stroke-width="0" width="7.2" x="31.4" y="71.4" /><rect fill="black" height="6.9" stroke="none" stroke-width="0" width="6.9" x="41.5" y="71.5" /><rect fill="black" height="7.4" stroke="none" stroke-width="0" width="7.4" x="51.3" y="71.3" /><rect fill="black" height="7.5" stroke="none" stroke-width="0" width="7.5" x="61.3" y="71.3" /><rect fill="black" height="7.4" stroke="none" stroke-width="0" width="7.4" x="71.3" y="71.3" /><rect fill="black" height="8.5" stroke="none" stroke-width="0" width="8.5" x="80.7" y="70.7" /><rect fill="black" height="8.7" stroke="none" stroke-width="0" width="8.7" x="90.7" y="70.7" /><rect fill="black" height="7.7" stroke="none" stroke-width="0" width="7.7" x="101.1" y="71.1" /><rect fill="black" height="7.9" stroke="none" stroke-width="0" width="7.9" x="111.1" y="71.1" /><rect fill="black" height="7.3" stroke="none" stroke-width="0" width="7.3" x="121.4" y="71.4" /><rect fill="black" height="8.1" stroke="none" stroke-width="0" width="8.1" x="131.0" y="71.0" /><rect fill="black" height="8.1" stroke="none" stroke-width="0" width="8.1" x="141.0" y="71.0" /><rect fill="black" height="9.2" stroke="none" stroke-width="0" width="9.2" x="150.4" y="70.4" /><rect fill="black" height="8.0" stroke="none" stroke-width="0" width="8.0" x="161.0" y="71.0" /><rect fill="black" height="7.9" stroke="none" stroke-width="0" width="7.9" x="171.0" y="71.0" /><rect fill="black" height="8.1" stroke="none" stroke-width="0" width="8.1" x="181.0" y="71.0" /><rect fill="black" height="8.5" stroke="none" stroke-width="0" width="8.5" x="190.8" y="70.8" /><rect fill="black" height="7.9" stroke="none" stroke-width="0" width="7.9" x="201.0" y="71.0" /><rect fill="black" height="8.0" stroke="none" stroke-width="0" width="8.0" x="211.0" y="71.0" /><rect fill="black" height="8.0" stroke="none" stroke-width="0" width="8.0" x="221.0" y="71.0" /><rect fill="black" height="7.9" stroke="none" stroke-width="0" width="7.9" x="231.1" y="71.1" /><rect fill="black" height="8.2" stroke="none" stroke-width="0" width="8.2" x="240.9" y="70.9" /><rect fill="black" height="8.6" stroke="none" stroke-width="0" width="8.6" x="250.7" y="70.7" /><rect fill="black" height="8.8" stroke="none" stroke-width="0" width="8.8" x="260.6" y="70.6" /><rect fill="black" height="8.1" stroke="none" stroke-width="0" width="8.1" x="271.0" y="71.0" /><rect fill="black" height="8.4" stroke="none" stroke-width="0" width="8.4" x="280.8" y="70.8" /><rect fill="black" height="9.0" stroke="none" stroke-width="0" width="9.0" x="290.5" y="70.5" /><rect fill="black" height="8.5" stroke="none" stroke-width="0" width="8.5" x="300.8" y="70.8" /><rect fill="black" height="8.8" stroke="none" stroke-width="0" width="8.8" x="310.6" y="70.6" /><rect fill="black" height="9.1" stroke="none" stroke-width="0" width="9.1" x="320.5" y="70.5" /><rect fill="black" height="8.6" stroke="none" stroke-width="0" width="8.6" x="330.7" y="70.7" /><rect fill="black" height="8.9" stroke="none" stroke-width="0" width="8.9" x="340.6" y="70.6" /><rect fill="black" height="8.4" stroke="none" stroke-width="0" width="8.4" x="350.8" y="70.8" /><rect fill="black" height="8.7" stroke="none" stroke-width="0" width="8.7" x="360.7" y="70.7" /><rect fill="black" height="8.3" stroke="none" stroke-width="0" width="8.3" x="370.9" y="70.9" /><rect fill="black" height="7.9" stroke="none" stroke-width="0" width="7.9" x="381.1" y="71.1" /><rect fill="black" height="7.6" stroke="none" stroke-width="0" width="7.6" x="391.2" y="71.2" /><rect fill="black" height="8.5" stroke="none" stroke-width="0" width="8.5" x="400.7" y="70.7" /><rect fill="black" height="9.5" stroke="none" stroke-width="0" width="9.5" x="410.2" y="70.2" /><rect fill="black" height="8.3" stroke="none" stroke-width="0" width="8.3" x="420.9" y="70.9" /><rect fill="black" height="9.2" stroke="none" stroke-width="0" width="9.2" x="430.4" y="70.4" /><rect fill="black" height="9.5" stroke="none" stroke-width="0" width="9.5" x="440.3" y="70.3" /><rect fill="black" height="7.7" stroke="none" stroke-width="0" width="7.7" x="451.2" y="71.2" /><rect fill="black" height="8.2" stroke="none" stroke-width="0" width="8.2" x="460.9" y="70.9" /><rect fill="black" height="9.3" stroke="none" stroke-width="0" width="9.3" x="470.4" y="70.4" /><rect fill="black" height="8.3" stroke="none" stroke-width="0" width="8.3" x="480.8" y="70.8" /><rect fill="black" height="8.4" stroke="none" stroke-width="0" width="8.4" x="490.8" y="70.8" /><rect fill="black" height="9.5" stroke="none" stroke-width="0" width="9.5" x="0.2" y="80.2" /><rect fill="black" height="8.6" stroke="none" stroke-width="0" width="8.6" x="10.7" y="80.7" /><rect fill="black" height="8.7" stroke="none" stroke-width="0" width="8.7" x="20.7" y="80.7" /><rect fill="black" height="8.5" stroke="none" stroke-width="0" width="8.5" x="30.8" y="80.8" /><rect fill="black" height="8.1" stroke="none" stroke-width="0" width="8.1" x="40.9" y="80.9" /><rect fill="black" height="7.6" stroke="none" stroke-width="0" width="7.6" x="51.2" y="81.2" /><rect fill="black" height="7.4" stroke="none" stroke-width="0" width="7.4" x="61.3" y="81.3" /><rect fill="black" height="7.4" stroke="none" stroke-width="0" width="7.4" x="71.3" y="81.3" /><rect fill="black" height="7.7" stroke="none" stroke-width="0" width="7.7" x="81.2" y="81.2" /><rect fill="black" height="8.0" stroke="none" stroke-width="0" width="8.0" x="91.0" y="81.0" /><rect fill="black" height="7.4" stroke="none" stroke-width="0" width="7.4" x="101.3" y="81.3" /><rect fill="black" height="7.0" stroke="none" stroke-width="0" width="7.0" x="111.5" y="81.5" /><rect fill="black" height="6.5" stroke="none" stroke-width="0" width="6.5" x="121.7" y="81.7" /><rect fill="black" height="6.8" stroke="none" stroke-width="0" width="6.8" x="131.6" y="81.6" /><rect fill="black" height="7.1" stroke="none" stroke-width="0" width="7.1" x="141.5" y="81.5" /><rect fill="black" height="7.6" stroke="none" stroke-width="0" width="7.6" x="151.2" y="81.2" /><rect fill="black" height="7.0" stroke="none" stroke-width="0" width="7.0" x="161.5" y="81.5" /><rect fill="black" height="7.0" stroke="none" stroke-width="0" width="7.0" x="171.5" y="81.5" /><rect fill="black" height="7.0" stroke="none" stroke-width="0" width="7.0" x="181.5" y="81.5" /><rect fill="black" height="7.3" stroke="none" stroke-width="0" width="7.3" x="191.3" y="81.3" /><rect fill="black" height="6.8" stroke="none" stroke-width="0" width="6.8" x="201.6" y="81.6" /><rect fill="black" height="7.2" stroke="none" stroke-width="0" width="7.2" x="211.4" y="81.4" /><rect fill="black" height="7.1" stroke="none" stroke-width="0" width="7.1" x="221.5" y="81.5" /><rect fill="black" height="7.1" stroke="none" stroke-width="0" width="7.1" x="231.4" y="81.4" /><rect fill="black" height="6.7" stroke="none" stroke-width="0" width="6.7" x="241.6" y="81.6" /><rect fill="black" height="7.3" stroke="none" stroke-width="0" width="7.3" x="251.4" y="81.4" /><rect fill="black" height="7.5" stroke="none" stroke-width="0" width="7.5" x="261.2" y="81.2" /><rect fill="black" height="6.5" stroke="none" stroke-width="0" width="6.5" x="271.7" y="81.7" /><rect fill="black" height="7.1" stroke="none" stroke-width="0" width="7.1" x="281.5" y="81.5" /><rect fill="black" height="7.2" stroke="none" stroke-width="0" width="7.2" x="291.4" y="81.4" /><rect fill="black" height="7.2" stroke="none" stroke-width="0" width="7.2" x="301.4" y="81.4" /><rect fill="black" height="7.1" stroke="none" stroke-width="0" width="7.1" x="311.5" y="81.5" /><rect fill="black" height="7.2" stroke="none" stroke-width="0" width="7.2" x="321.4" y="81.4" /><rect fill="black" height="7.2" stroke="none" stroke-width="0" width="7.2" x="331.4" y="81.4" /><rect fill="black" height="7.3" stroke="none" stroke-width="0" width="7.3" x="341.3" y="81.3" /><rect fill="black" height="7.2" stroke="none" stroke-width="0" width="7.2" x="351.4" y="81.4" /><rect fill="black" height="7.0" stroke="none" stroke-width="0" width="7.0" x="361.5" y="81.5" /><rect fill="black" height="7.1" stroke="none" stroke-width="0" width="7.1" x="371.5" y="81.5" /><rect fill="black" height="7.0" stroke="none" stroke-width="0" width="7.0" x="381.5" y="81.5" /><rect fill="black" height="6.6" stroke="none" stroke-width="0" width="6.6" x="391.7" y="81.7" /><rect fill="black" height="7.4" stroke="none" stroke-width="0" width="7.4" x="401.3" y="81.3" /><rect fill="black" height="7.4" stroke="none" stroke-width="0" width="7.4" x="411.3" y="81.3" /><rect fill="black" height="6.9" stroke="none" stroke-width="0" width="6.9" x="421.5" y="81.5" /><rect fill="black" height="7.2" stroke="none" stroke-width="0" width="7.2" x="431.4" y="81.4" /><rect fill="black" height="7.4" stroke="none" stroke-width="0" width="7.4" x="441.3" y="81.3" /><rect fill="black" height="6.7" stroke="none" stroke-width="0" width="6.7" x="451.6" y="81.6" /><rect fill="black" height="6.5" stroke="none" stroke-width="0" width="6.5" x="461.7" y="81.7" /><rect fill="black" height="7.2" stroke="none" stroke-width="0" width="7.2" x="471.4" y="81.4" /><rect fill="black" height="7.1" stroke="none" stroke-width="0" width="7.1" x="481.4" y="81.4" /><rect fill="black" height="6.6" stroke="none" stroke-width="0" width="6.6" x="491.7" y="81.7" /></g><g><text font-size="10px" text-anchor="middle" x="250.0" y="-22.0">Gradient L2 norms for different weight parameters</text><line stroke="black" stroke-width="0.5" x1="506.0" x2="512.0" y1="5.0" y2="5.0" /><text dominant-baseline="middle" font-size="10px" text-anchor="start" x="524.0" y="5.0">e.p</text><line stroke="black" stroke-width="0.5" x1="506.0" x2="512.0" y1="15.0" y2="15.0" /><text dominant-baseline="middle" font-size="10px" text-anchor="start" x="524.0" y="15.0">e.t</text><line stroke="black" stroke-width="0.5" x1="506.0" x2="512.0" y1="25.0" y2="25.0" /><text dominant-baseline="middle" font-size="10px" text-anchor="start" x="524.0" y="25.0">a.k</text><line stroke="black" stroke-width="0.5" x1="506.0" x2="512.0" y1="35.0" y2="35.0" /><text dominant-baseline="middle" font-size="10px" text-anchor="start" x="524.0" y="35.0">a.o</text><line stroke="black" stroke-width="0.5" x1="506.0" x2="512.0" y1="45.0" y2="45.0" /><text dominant-baseline="middle" font-size="10px" text-anchor="start" x="524.0" y="45.0">a.q</text><line stroke="black" stroke-width="0.5" x1="506.0" x2="512.0" y1="55.0" y2="55.0" /><text dominant-baseline="middle" font-size="10px" text-anchor="start" x="524.0" y="55.0">a.v</text><line stroke="black" stroke-width="0.5" x1="506.0" x2="512.0" y1="65.0" y2="65.0" /><text dominant-baseline="middle" font-size="10px" text-anchor="start" x="524.0" y="65.0">w.i</text><line stroke="black" stroke-width="0.5" x1="506.0" x2="512.0" y1="75.0" y2="75.0" /><text dominant-baseline="middle" font-size="10px" text-anchor="start" x="524.0" y="75.0">w.o</text><line stroke="black" stroke-width="0.5" x1="506.0" x2="512.0" y1="85.0" y2="85.0" /><text dominant-baseline="middle" font-size="10px" text-anchor="start" x="524.0" y="85.0">e.u</text><line stroke="black" stroke-width="0.5" x1="5.0" x2="5.0" y1="96.0" y2="102.0" /><text dominant-baseline="middle" font-size="10px" text-anchor="middle" x="5.0" y="114.0">1</text><line stroke="black" stroke-width="0.5" x1="495.0" x2="495.0" y1="96.0" y2="102.0" /><text dominant-baseline="middle" font-size="10px" text-anchor="middle" x="495.0" y="114.0">65536</text><text font-size="10px" text-anchor="middle" x="250.0" y="112.0">Time (linear)</text><text font-size="10px" text-anchor="middle" transform="rotate(-90, -22.0, 45.0)" x="-22.0" y="45.0">Gradient Norm (L2)</text></g></svg>