<?xml version="1.0" encoding="utf-8" ?>
<svg baseProfile="full" height="100%" preserveAspectRatio="xMidYMid meet" version="1.1" viewBox="-40,-40,1760,90" width="100%" xmlns="http://www.w3.org/2000/svg" xmlns:ev="http://www.w3.org/2001/xml-events" xmlns:xlink="http://www.w3.org/1999/xlink"><defs><style type="text/css"><![CDATA[
        @import url(https://cdn.jsdelivr.net/npm/firacode@6.2.0/distr/fira_code.css);
        text {
            font-family: 'STIX Two', 'STIX Two Math', 'STIXMath', 'DejaVu Math TeX Glyph',
                        'DejaVu Serif', 'Cambria Math', 'Latin Modern Math', 'FiraCode',
                        'serif';
        }
    ]]></style><style type="text/css"><![CDATA[
        @import url(https://cdn.jsdelivr.net/npm/firacode@6.2.0/distr/fira_code.css);
        text {
            font-family: 'STIX Two', 'STIX Two Math', 'STIXMath', 'DejaVu Math TeX Glyph',
                        'DejaVu Serif', 'Cambria Math', 'Latin Modern Math', 'FiraCode',
                        'serif';
        }
    ]]></style></defs><g><rect fill="black" height="2.1" stroke="none" stroke-width="0" width="2.1" x="3.9" y="3.9" /><rect fill="black" height="2.1" stroke="none" stroke-width="0" width="2.1" x="13.9" y="3.9" /><rect fill="black" height="2.1" stroke="none" stroke-width="0" width="2.1" x="23.9" y="3.9" /><rect fill="black" height="2.1" stroke="none" stroke-width="0" width="2.1" x="33.9" y="3.9" /><rect fill="black" height="2.1" stroke="none" stroke-width="0" width="2.1" x="43.9" y="3.9" /><rect fill="black" height="2.1" stroke="none" stroke-width="0" width="2.1" x="53.9" y="3.9" /><rect fill="black" height="2.1" stroke="none" stroke-width="0" width="2.1" x="63.9" y="3.9" /><rect fill="black" height="2.1" stroke="none" stroke-width="0" width="2.1" x="73.9" y="3.9" /><rect fill="black" height="2.1" stroke="none" stroke-width="0" width="2.1" x="83.9" y="3.9" /><rect fill="black" height="2.1" stroke="none" stroke-width="0" width="2.1" x="93.9" y="3.9" /><rect fill="black" height="2.1" stroke="none" stroke-width="0" width="2.1" x="103.9" y="3.9" /><rect fill="black" height="2.1" stroke="none" stroke-width="0" width="2.1" x="113.9" y="3.9" /><rect fill="black" height="2.1" stroke="none" stroke-width="0" width="2.1" x="123.9" y="3.9" /><rect fill="black" height="2.1" stroke="none" stroke-width="0" width="2.1" x="133.9" y="3.9" /><rect fill="black" height="2.1" stroke="none" stroke-width="0" width="2.1" x="143.9" y="3.9" /><rect fill="black" height="2.1" stroke="none" stroke-width="0" width="2.1" x="153.9" y="3.9" /><rect fill="black" height="2.1" stroke="none" stroke-width="0" width="2.1" x="163.9" y="3.9" /><rect fill="black" height="2.1" stroke="none" stroke-width="0" width="2.1" x="173.9" y="3.9" /><rect fill="black" height="2.1" stroke="none" stroke-width="0" width="2.1" x="183.9" y="3.9" /><rect fill="black" height="2.1" stroke="none" stroke-width="0" width="2.1" x="193.9" y="3.9" /><rect fill="black" height="2.1" stroke="none" stroke-width="0" width="2.1" x="203.9" y="3.9" /><rect fill="black" height="2.1" stroke="none" stroke-width="0" width="2.1" x="213.9" y="3.9" /><rect fill="black" height="2.1" stroke="none" stroke-width="0" width="2.1" x="223.9" y="3.9" /><rect fill="black" height="2.1" stroke="none" stroke-width="0" width="2.1" x="233.9" y="3.9" /><rect fill="black" height="2.1" stroke="none" stroke-width="0" width="2.1" x="243.9" y="3.9" /><rect fill="black" height="2.1" stroke="none" stroke-width="0" width="2.1" x="253.9" y="3.9" /><rect fill="black" height="2.1" stroke="none" stroke-width="0" width="2.1" x="263.9" y="3.9" /><rect fill="black" height="2.1" stroke="none" stroke-width="0" width="2.1" x="273.9" y="3.9" /><rect fill="black" height="2.1" stroke="none" stroke-width="0" width="2.1" x="283.9" y="3.9" /><rect fill="black" height="2.1" stroke="none" stroke-width="0" width="2.1" x="293.9" y="3.9" /><rect fill="black" height="2.1" stroke="none" stroke-width="0" width="2.1" x="303.9" y="3.9" /><rect fill="black" height="2.1" stroke="none" stroke-width="0" width="2.1" x="313.9" y="3.9" /><rect fill="black" height="2.1" stroke="none" stroke-width="0" width="2.1" x="323.9" y="3.9" /><rect fill="black" height="2.1" stroke="none" stroke-width="0" width="2.1" x="333.9" y="3.9" /><rect fill="black" height="2.1" stroke="none" stroke-width="0" width="2.1" x="343.9" y="3.9" /><rect fill="black" height="2.1" stroke="none" stroke-width="0" width="2.1" x="353.9" y="3.9" /><rect fill="black" height="2.1" stroke="none" stroke-width="0" width="2.1" x="363.9" y="3.9" /><rect fill="black" height="2.1" stroke="none" stroke-width="0" width="2.1" x="373.9" y="3.9" /><rect fill="black" height="2.1" stroke="none" stroke-width="0" width="2.1" x="383.9" y="3.9" /><rect fill="black" height="2.1" stroke="none" stroke-width="0" width="2.1" x="393.9" y="3.9" /><rect fill="black" height="2.1" stroke="none" stroke-width="0" width="2.1" x="403.9" y="3.9" /><rect fill="black" height="2.1" stroke="none" stroke-width="0" width="2.1" x="413.9" y="3.9" /><rect fill="black" height="2.1" stroke="none" stroke-width="0" width="2.1" x="423.9" y="3.9" /><rect fill="black" height="2.1" stroke="none" stroke-width="0" width="2.1" x="433.9" y="3.9" /><rect fill="black" height="2.1" stroke="none" stroke-width="0" width="2.1" x="443.9" y="3.9" /><rect fill="black" height="2.1" stroke="none" stroke-width="0" width="2.1" x="453.9" y="3.9" /><rect fill="black" height="2.1" stroke="none" stroke-width="0" width="2.1" x="463.9" y="3.9" /><rect fill="black" height="2.1" stroke="none" stroke-width="0" width="2.1" x="473.9" y="3.9" /><rect fill="black" height="2.1" stroke="none" stroke-width="0" width="2.1" x="483.9" y="3.9" /><rect fill="black" height="2.1" stroke="none" stroke-width="0" width="2.1" x="493.9" y="3.9" /><rect fill="black" height="2.1" stroke="none" stroke-width="0" width="2.1" x="503.9" y="3.9" /><rect fill="black" height="2.1" stroke="none" stroke-width="0" width="2.1" x="513.9" y="3.9" /><rect fill="black" height="2.1" stroke="none" stroke-width="0" width="2.1" x="523.9" y="3.9" /><rect fill="black" height="2.1" stroke="none" stroke-width="0" width="2.1" x="533.9" y="3.9" /><rect fill="black" height="2.1" stroke="none" stroke-width="0" width="2.1" x="543.9" y="3.9" /><rect fill="black" height="2.1" stroke="none" stroke-width="0" width="2.1" x="553.9" y="3.9" /><rect fill="black" height="2.1" stroke="none" stroke-width="0" width="2.1" x="563.9" y="3.9" /><rect fill="black" height="2.1" stroke="none" stroke-width="0" width="2.1" x="573.9" y="3.9" /><rect fill="black" height="2.1" stroke="none" stroke-width="0" width="2.1" x="583.9" y="3.9" /><rect fill="black" height="2.1" stroke="none" stroke-width="0" width="2.1" x="593.9" y="3.9" /><rect fill="black" height="2.1" stroke="none" stroke-width="0" width="2.1" x="603.9" y="3.9" /><rect fill="black" height="2.1" stroke="none" stroke-width="0" width="2.1" x="613.9" y="3.9" /><rect fill="black" height="2.1" stroke="none" stroke-width="0" width="2.1" x="623.9" y="3.9" /><rect fill="black" height="2.1" stroke="none" stroke-width="0" width="2.1" x="633.9" y="3.9" /><rect fill="black" height="2.1" stroke="none" stroke-width="0" width="2.1" x="643.9" y="3.9" /><rect fill="black" height="2.1" stroke="none" stroke-width="0" width="2.1" x="653.9" y="3.9" /><rect fill="black" height="2.1" stroke="none" stroke-width="0" width="2.1" x="663.9" y="3.9" /><rect fill="black" height="2.1" stroke="none" stroke-width="0" width="2.1" x="673.9" y="3.9" /><rect fill="black" height="2.1" stroke="none" stroke-width="0" width="2.1" x="683.9" y="3.9" /><rect fill="black" height="2.1" stroke="none" stroke-width="0" width="2.1" x="693.9" y="3.9" /><rect fill="black" height="2.1" stroke="none" stroke-width="0" width="2.1" x="703.9" y="3.9" /><rect fill="black" height="2.1" stroke="none" stroke-width="0" width="2.1" x="713.9" y="3.9" /><rect fill="black" height="2.1" stroke="none" stroke-width="0" width="2.1" x="723.9" y="3.9" /><rect fill="black" height="2.1" stroke="none" stroke-width="0" width="2.1" x="733.9" y="3.9" /><rect fill="black" height="2.1" stroke="none" stroke-width="0" width="2.1" x="743.9" y="3.9" /><rect fill="black" height="2.1" stroke="none" stroke-width="0" width="2.1" x="753.9" y="3.9" /><rect fill="black" height="2.1" stroke="none" stroke-width="0" width="2.1" x="763.9" y="3.9" /><rect fill="black" height="2.1" stroke="none" stroke-width="0" width="2.1" x="773.9" y="3.9" /><rect fill="black" height="2.1" stroke="none" stroke-width="0" width="2.1" x="783.9" y="3.9" /><rect fill="black" height="2.1" stroke="none" stroke-width="0" width="2.1" x="793.9" y="3.9" /><rect fill="black" height="2.1" stroke="none" stroke-width="0" width="2.1" x="803.9" y="3.9" /><rect fill="black" height="2.1" stroke="none" stroke-width="0" width="2.1" x="813.9" y="3.9" /><rect fill="black" height="2.1" stroke="none" stroke-width="0" width="2.1" x="823.9" y="3.9" /><rect fill="black" height="2.1" stroke="none" stroke-width="0" width="2.1" x="833.9" y="3.9" /><rect fill="black" height="2.1" stroke="none" stroke-width="0" width="2.1" x="843.9" y="3.9" /><rect fill="black" height="2.1" stroke="none" stroke-width="0" width="2.1" x="853.9" y="3.9" /><rect fill="black" height="2.1" stroke="none" stroke-width="0" width="2.1" x="863.9" y="3.9" /><rect fill="black" height="2.1" stroke="none" stroke-width="0" width="2.1" x="873.9" y="3.9" /><rect fill="black" height="2.1" stroke="none" stroke-width="0" width="2.1" x="883.9" y="3.9" /><rect fill="black" height="2.1" stroke="none" stroke-width="0" width="2.1" x="893.9" y="3.9" /><rect fill="black" height="2.1" stroke="none" stroke-width="0" width="2.1" x="903.9" y="3.9" /><rect fill="black" height="2.1" stroke="none" stroke-width="0" width="2.1" x="913.9" y="3.9" /><rect fill="black" height="2.1" stroke="none" stroke-width="0" width="2.1" x="923.9" y="3.9" /><rect fill="black" height="2.1" stroke="none" stroke-width="0" width="2.1" x="933.9" y="3.9" /><rect fill="black" height="2.1" stroke="none" stroke-width="0" width="2.1" x="943.9" y="3.9" /><rect fill="black" height="2.1" stroke="none" stroke-width="0" width="2.1" x="953.9" y="3.9" /><rect fill="black" height="2.1" stroke="none" stroke-width="0" width="2.1" x="963.9" y="3.9" /><rect fill="black" height="2.1" stroke="none" stroke-width="0" width="2.1" x="973.9" y="3.9" /><rect fill="black" height="2.1" stroke="none" stroke-width="0" width="2.1" x="983.9" y="3.9" /><rect fill="black" height="2.1" stroke="none" stroke-width="0" width="2.1" x="993.9" y="3.9" /><rect fill="black" height="2.1" stroke="none" stroke-width="0" width="2.1" x="1003.9" y="3.9" /><rect fill="black" height="2.1" stroke="none" stroke-width="0" width="2.1" x="1013.9" y="3.9" /><rect fill="black" height="2.1" stroke="none" stroke-width="0" width="2.1" x="1023.9" y="3.9" /><rect fill="black" height="2.1" stroke="none" stroke-width="0" width="2.1" x="1033.9" y="3.9" /><rect fill="black" height="2.1" stroke="none" stroke-width="0" width="2.1" x="1043.9" y="3.9" /><rect fill="black" height="2.1" stroke="none" stroke-width="0" width="2.1" x="1053.9" y="3.9" /><rect fill="black" height="2.1" stroke="none" stroke-width="0" width="2.1" x="1063.9" y="3.9" /><rect fill="black" height="2.1" stroke="none" stroke-width="0" width="2.1" x="1073.9" y="3.9" /><rect fill="black" height="2.1" stroke="none" stroke-width="0" width="2.1" x="1083.9" y="3.9" /><rect fill="black" height="2.1" stroke="none" stroke-width="0" width="2.1" x="1093.9" y="3.9" /><rect fill="black" height="2.1" stroke="none" stroke-width="0" width="2.1" x="1103.9" y="3.9" /><rect fill="black" height="2.1" stroke="none" stroke-width="0" width="2.1" x="1113.9" y="3.9" /><rect fill="black" height="2.1" stroke="none" stroke-width="0" width="2.1" x="1123.9" y="3.9" /><rect fill="black" height="2.1" stroke="none" stroke-width="0" width="2.1" x="1133.9" y="3.9" /><rect fill="black" height="2.1" stroke="none" stroke-width="0" width="2.1" x="1143.9" y="3.9" /><rect fill="black" height="2.1" stroke="none" stroke-width="0" width="2.1" x="1153.9" y="3.9" /><rect fill="black" height="2.1" stroke="none" stroke-width="0" width="2.1" x="1163.9" y="3.9" /><rect fill="black" height="3.1" stroke="none" stroke-width="0" width="3.1" x="1173.4" y="3.4" /><rect fill="black" height="3.5" stroke="none" stroke-width="0" width="3.5" x="1183.2" y="3.2" /><rect fill="black" height="2.7" stroke="none" stroke-width="0" width="2.7" x="1193.6" y="3.6" /><rect fill="black" height="3.3" stroke="none" stroke-width="0" width="3.3" x="1203.3" y="3.3" /><rect fill="black" height="4.6" stroke="none" stroke-width="0" width="4.6" x="1212.7" y="2.7" /><rect fill="black" height="4.7" stroke="none" stroke-width="0" width="4.7" x="1222.6" y="2.6" /><rect fill="black" height="4.7" stroke="none" stroke-width="0" width="4.7" x="1232.6" y="2.6" /><rect fill="black" height="5.1" stroke="none" stroke-width="0" width="5.1" x="1242.5" y="2.5" /><rect fill="black" height="4.9" stroke="none" stroke-width="0" width="4.9" x="1252.5" y="2.5" /><rect fill="black" height="5.6" stroke="none" stroke-width="0" width="5.6" x="1262.2" y="2.2" /><rect fill="black" height="5.9" stroke="none" stroke-width="0" width="5.9" x="1272.1" y="2.1" /><rect fill="black" height="5.9" stroke="none" stroke-width="0" width="5.9" x="1282.1" y="2.1" /><rect fill="black" height="6.4" stroke="none" stroke-width="0" width="6.4" x="1291.8" y="1.8" /><rect fill="black" height="6.0" stroke="none" stroke-width="0" width="6.0" x="1302.0" y="2.0" /><rect fill="black" height="6.7" stroke="none" stroke-width="0" width="6.7" x="1311.7" y="1.7" /><rect fill="black" height="6.8" stroke="none" stroke-width="0" width="6.8" x="1321.6" y="1.6" /><rect fill="black" height="7.0" stroke="none" stroke-width="0" width="7.0" x="1331.5" y="1.5" /><rect fill="black" height="7.0" stroke="none" stroke-width="0" width="7.0" x="1341.5" y="1.5" /><rect fill="black" height="6.8" stroke="none" stroke-width="0" width="6.8" x="1351.6" y="1.6" /><rect fill="black" height="7.0" stroke="none" stroke-width="0" width="7.0" x="1361.5" y="1.5" /><rect fill="black" height="7.1" stroke="none" stroke-width="0" width="7.1" x="1371.4" y="1.4" /><rect fill="black" height="7.3" stroke="none" stroke-width="0" width="7.3" x="1381.4" y="1.4" /><rect fill="black" height="7.5" stroke="none" stroke-width="0" width="7.5" x="1391.2" y="1.2" /><rect fill="black" height="7.5" stroke="none" stroke-width="0" width="7.5" x="1401.2" y="1.2" /><rect fill="black" height="7.8" stroke="none" stroke-width="0" width="7.8" x="1411.1" y="1.1" /><rect fill="black" height="8.0" stroke="none" stroke-width="0" width="8.0" x="1421.0" y="1.0" /><rect fill="black" height="8.0" stroke="none" stroke-width="0" width="8.0" x="1431.0" y="1.0" /><rect fill="black" height="8.1" stroke="none" stroke-width="0" width="8.1" x="1440.9" y="0.9" /><rect fill="black" height="8.1" stroke="none" stroke-width="0" width="8.1" x="1450.9" y="0.9" /><rect fill="black" height="7.7" stroke="none" stroke-width="0" width="7.7" x="1461.2" y="1.2" /><rect fill="black" height="8.3" stroke="none" stroke-width="0" width="8.3" x="1470.9" y="0.9" /><rect fill="black" height="8.7" stroke="none" stroke-width="0" width="8.7" x="1480.7" y="0.7" /><rect fill="black" height="8.5" stroke="none" stroke-width="0" width="8.5" x="1490.7" y="0.7" /><rect fill="black" height="8.7" stroke="none" stroke-width="0" width="8.7" x="1500.7" y="0.7" /><rect fill="black" height="8.8" stroke="none" stroke-width="0" width="8.8" x="1510.6" y="0.6" /><rect fill="black" height="8.8" stroke="none" stroke-width="0" width="8.8" x="1520.6" y="0.6" /><rect fill="black" height="8.3" stroke="none" stroke-width="0" width="8.3" x="1530.9" y="0.9" /><rect fill="black" height="8.5" stroke="none" stroke-width="0" width="8.5" x="1540.7" y="0.7" /><rect fill="black" height="9.0" stroke="none" stroke-width="0" width="9.0" x="1550.5" y="0.5" /><rect fill="black" height="9.4" stroke="none" stroke-width="0" width="9.4" x="1560.3" y="0.3" /><rect fill="black" height="8.4" stroke="none" stroke-width="0" width="8.4" x="1570.8" y="0.8" /><rect fill="black" height="9.5" stroke="none" stroke-width="0" width="9.5" x="1580.2" y="0.2" /><rect fill="black" height="8.1" stroke="none" stroke-width="0" width="8.1" x="1590.9" y="0.9" /><rect fill="black" height="7.5" stroke="none" stroke-width="0" width="7.5" x="1601.2" y="1.2" /><rect fill="black" height="7.3" stroke="none" stroke-width="0" width="7.3" x="1611.4" y="1.4" /><rect fill="black" height="7.1" stroke="none" stroke-width="0" width="7.1" x="1621.4" y="1.4" /><rect fill="black" height="6.8" stroke="none" stroke-width="0" width="6.8" x="1631.6" y="1.6" /><rect fill="black" height="7.3" stroke="none" stroke-width="0" width="7.3" x="1641.4" y="1.4" /><rect fill="black" height="6.7" stroke="none" stroke-width="0" width="6.7" x="1651.7" y="1.7" /><rect fill="black" height="6.7" stroke="none" stroke-width="0" width="6.7" x="1661.7" y="1.7" /><rect fill="black" height="7.0" stroke="none" stroke-width="0" width="7.0" x="1671.5" y="1.5" /></g><g><line stroke="black" stroke-width="0.5" x1="15.0" x2="15.0" y1="-6.0" y2="-12.0" /><text dominant-baseline="middle" font-size="22px" text-anchor="middle" x="15.0" y="-24.0">0</text><line stroke="black" stroke-width="0.5" x1="115.0" x2="115.0" y1="-6.0" y2="-12.0" /><text dominant-baseline="middle" font-size="22px" text-anchor="middle" x="115.0" y="-24.0">0</text><line stroke="black" stroke-width="0.5" x1="215.0" x2="215.0" y1="-6.0" y2="-12.0" /><text dominant-baseline="middle" font-size="22px" text-anchor="middle" x="215.0" y="-24.0">0</text><line stroke="black" stroke-width="0.5" x1="315.0" x2="315.0" y1="-6.0" y2="-12.0" /><text dominant-baseline="middle" font-size="22px" text-anchor="middle" x="315.0" y="-24.0">0</text><line stroke="black" stroke-width="0.5" x1="415.0" x2="415.0" y1="-6.0" y2="-12.0" /><text dominant-baseline="middle" font-size="22px" text-anchor="middle" x="415.0" y="-24.0">0</text><line stroke="black" stroke-width="0.5" x1="515.0" x2="515.0" y1="-6.0" y2="-12.0" /><text dominant-baseline="middle" font-size="22px" text-anchor="middle" x="515.0" y="-24.0">0</text><line stroke="black" stroke-width="0.5" x1="615.0" x2="615.0" y1="-6.0" y2="-12.0" /><text dominant-baseline="middle" font-size="22px" text-anchor="middle" x="615.0" y="-24.0">0</text><line stroke="black" stroke-width="0.5" x1="715.0" x2="715.0" y1="-6.0" y2="-12.0" /><text dominant-baseline="middle" font-size="22px" text-anchor="middle" x="715.0" y="-24.0">0</text><line stroke="black" stroke-width="0.5" x1="815.0" x2="815.0" y1="-6.0" y2="-12.0" /><text dominant-baseline="middle" font-size="22px" text-anchor="middle" x="815.0" y="-24.0">0</text><line stroke="black" stroke-width="0.5" x1="915.0" x2="915.0" y1="-6.0" y2="-12.0" /><text dominant-baseline="middle" font-size="22px" text-anchor="middle" x="915.0" y="-24.0">0</text><line stroke="black" stroke-width="0.5" x1="1015.0" x2="1015.0" y1="-6.0" y2="-12.0" /><text dominant-baseline="middle" font-size="22px" text-anchor="middle" x="1015.0" y="-24.0">0</text><line stroke="black" stroke-width="0.5" x1="1115.0" x2="1115.0" y1="-6.0" y2="-12.0" /><text dominant-baseline="middle" font-size="22px" text-anchor="middle" x="1115.0" y="-24.0">2</text><line stroke="black" stroke-width="0.5" x1="1215.0" x2="1215.0" y1="-6.0" y2="-12.0" /><text dominant-baseline="middle" font-size="22px" text-anchor="middle" x="1215.0" y="-24.0">9</text><line stroke="black" stroke-width="0.5" x1="1315.0" x2="1315.0" y1="-6.0" y2="-12.0" /><text dominant-baseline="middle" font-size="22px" text-anchor="middle" x="1315.0" y="-24.0">13</text><line stroke="black" stroke-width="0.5" x1="1415.0" x2="1415.0" y1="-6.0" y2="-12.0" /><text dominant-baseline="middle" font-size="22px" text-anchor="middle" x="1415.0" y="-24.0">16</text><line stroke="black" stroke-width="0.5" x1="1515.0" x2="1515.0" y1="-6.0" y2="-12.0" /><text dominant-baseline="middle" font-size="22px" text-anchor="middle" x="1515.0" y="-24.0">18</text><line stroke="black" stroke-width="0.5" x1="1615.0" x2="1615.0" y1="-6.0" y2="-12.0" /><text dominant-baseline="middle" font-size="22px" text-anchor="middle" x="1615.0" y="-24.0">15</text><line stroke="black" stroke-width="0.5" x1="15.0" x2="15.0" y1="16.0" y2="22.0" /><text dominant-baseline="middle" font-size="22px" text-anchor="middle" x="15.0" y="34.0">1</text><line stroke="black" stroke-width="0.5" x1="1665.0" x2="1665.0" y1="16.0" y2="22.0" /><text dominant-baseline="middle" font-size="22px" text-anchor="middle" x="1665.0" y="34.0">65536</text><text font-size="22px" text-anchor="middle" x="840.0" y="32.0">Time</text><text font-size="22px" text-anchor="middle" transform="rotate(-90, -22.0, 5.0)" x="-22.0" y="5.0">|{ω}|</text></g></svg>