<?xml version="1.0" encoding="utf-8" ?>
<svg baseProfile="full" height="100%" preserveAspectRatio="xMidYMid meet" version="1.1" viewBox="-40,-40,1210,90" width="100%" xmlns="http://www.w3.org/2000/svg" xmlns:ev="http://www.w3.org/2001/xml-events" xmlns:xlink="http://www.w3.org/1999/xlink"><defs><style type="text/css"><![CDATA[
        @import url(https://cdn.jsdelivr.net/npm/firacode@6.2.0/distr/fira_code.css);
        text {
            font-family: 'STIX Two', 'STIX Two Math', 'STIXMath', 'DejaVu Math TeX Glyph',
                        'DejaVu Serif', 'Cambria Math', 'Latin Modern Math', 'FiraCode',
                        'serif';
        }
    ]]></style><style type="text/css"><![CDATA[
        @import url(https://cdn.jsdelivr.net/npm/firacode@6.2.0/distr/fira_code.css);
        text {
            font-family: 'STIX Two', 'STIX Two Math', 'STIXMath', 'DejaVu Math TeX Glyph',
                        'DejaVu Serif', 'Cambria Math', 'Latin Modern Math', 'FiraCode',
                        'serif';
        }
    ]]></style></defs><g><rect fill="black" height="9.5" stroke="none" stroke-width="0" width="9.5" x="0.2" y="0.2" /><rect fill="black" height="9.5" stroke="none" stroke-width="0" width="9.5" x="10.3" y="0.3" /><rect fill="black" height="9.4" stroke="none" stroke-width="0" width="9.4" x="20.3" y="0.3" /><rect fill="black" height="9.3" stroke="none" stroke-width="0" width="9.3" x="30.3" y="0.3" /><rect fill="black" height="9.3" stroke="none" stroke-width="0" width="9.3" x="40.4" y="0.4" /><rect fill="black" height="9.3" stroke="none" stroke-width="0" width="9.3" x="50.4" y="0.4" /><rect fill="black" height="9.2" stroke="none" stroke-width="0" width="9.2" x="60.4" y="0.4" /><rect fill="black" height="9.1" stroke="none" stroke-width="0" width="9.1" x="70.4" y="0.4" /><rect fill="black" height="9.1" stroke="none" stroke-width="0" width="9.1" x="80.5" y="0.5" /><rect fill="black" height="9.0" stroke="none" stroke-width="0" width="9.0" x="90.5" y="0.5" /><rect fill="black" height="9.0" stroke="none" stroke-width="0" width="9.0" x="100.5" y="0.5" /><rect fill="black" height="9.0" stroke="none" stroke-width="0" width="9.0" x="110.5" y="0.5" /><rect fill="black" height="9.0" stroke="none" stroke-width="0" width="9.0" x="120.5" y="0.5" /><rect fill="black" height="9.0" stroke="none" stroke-width="0" width="9.0" x="130.5" y="0.5" /><rect fill="black" height="9.0" stroke="none" stroke-width="0" width="9.0" x="140.5" y="0.5" /><rect fill="black" height="8.9" stroke="none" stroke-width="0" width="8.9" x="150.5" y="0.5" /><rect fill="black" height="8.9" stroke="none" stroke-width="0" width="8.9" x="160.5" y="0.5" /><rect fill="black" height="8.9" stroke="none" stroke-width="0" width="8.9" x="170.5" y="0.5" /><rect fill="black" height="8.9" stroke="none" stroke-width="0" width="8.9" x="180.5" y="0.5" /><rect fill="black" height="8.9" stroke="none" stroke-width="0" width="8.9" x="190.6" y="0.6" /><rect fill="black" height="8.9" stroke="none" stroke-width="0" width="8.9" x="200.6" y="0.6" /><rect fill="black" height="8.9" stroke="none" stroke-width="0" width="8.9" x="210.6" y="0.6" /><rect fill="black" height="8.9" stroke="none" stroke-width="0" width="8.9" x="220.6" y="0.6" /><rect fill="black" height="8.8" stroke="none" stroke-width="0" width="8.8" x="230.6" y="0.6" /><rect fill="black" height="8.8" stroke="none" stroke-width="0" width="8.8" x="240.6" y="0.6" /><rect fill="black" height="8.7" stroke="none" stroke-width="0" width="8.7" x="250.6" y="0.6" /><rect fill="black" height="8.6" stroke="none" stroke-width="0" width="8.6" x="260.7" y="0.7" /><rect fill="black" height="8.6" stroke="none" stroke-width="0" width="8.6" x="270.7" y="0.7" /><rect fill="black" height="8.6" stroke="none" stroke-width="0" width="8.6" x="280.7" y="0.7" /><rect fill="black" height="8.5" stroke="none" stroke-width="0" width="8.5" x="290.7" y="0.7" /><rect fill="black" height="8.5" stroke="none" stroke-width="0" width="8.5" x="300.7" y="0.7" /><rect fill="black" height="8.5" stroke="none" stroke-width="0" width="8.5" x="310.7" y="0.7" /><rect fill="black" height="8.5" stroke="none" stroke-width="0" width="8.5" x="320.8" y="0.8" /><rect fill="black" height="8.4" stroke="none" stroke-width="0" width="8.4" x="330.8" y="0.8" /><rect fill="black" height="8.2" stroke="none" stroke-width="0" width="8.2" x="340.9" y="0.9" /><rect fill="black" height="8.2" stroke="none" stroke-width="0" width="8.2" x="350.9" y="0.9" /><rect fill="black" height="8.1" stroke="none" stroke-width="0" width="8.1" x="360.9" y="0.9" /><rect fill="black" height="8.1" stroke="none" stroke-width="0" width="8.1" x="371.0" y="1.0" /><rect fill="black" height="8.0" stroke="none" stroke-width="0" width="8.0" x="381.0" y="1.0" /><rect fill="black" height="7.9" stroke="none" stroke-width="0" width="7.9" x="391.0" y="1.0" /><rect fill="black" height="7.9" stroke="none" stroke-width="0" width="7.9" x="401.1" y="1.1" /><rect fill="black" height="7.8" stroke="none" stroke-width="0" width="7.8" x="411.1" y="1.1" /><rect fill="black" height="7.8" stroke="none" stroke-width="0" width="7.8" x="421.1" y="1.1" /><rect fill="black" height="7.8" stroke="none" stroke-width="0" width="7.8" x="431.1" y="1.1" /><rect fill="black" height="7.8" stroke="none" stroke-width="0" width="7.8" x="441.1" y="1.1" /><rect fill="black" height="7.8" stroke="none" stroke-width="0" width="7.8" x="451.1" y="1.1" /><rect fill="black" height="7.8" stroke="none" stroke-width="0" width="7.8" x="461.1" y="1.1" /><rect fill="black" height="7.8" stroke="none" stroke-width="0" width="7.8" x="471.1" y="1.1" /><rect fill="black" height="7.7" stroke="none" stroke-width="0" width="7.7" x="481.1" y="1.1" /><rect fill="black" height="7.7" stroke="none" stroke-width="0" width="7.7" x="491.1" y="1.1" /><rect fill="black" height="7.7" stroke="none" stroke-width="0" width="7.7" x="501.1" y="1.1" /><rect fill="black" height="7.6" stroke="none" stroke-width="0" width="7.6" x="511.2" y="1.2" /><rect fill="black" height="7.6" stroke="none" stroke-width="0" width="7.6" x="521.2" y="1.2" /><rect fill="black" height="7.6" stroke="none" stroke-width="0" width="7.6" x="531.2" y="1.2" /><rect fill="black" height="7.6" stroke="none" stroke-width="0" width="7.6" x="541.2" y="1.2" /><rect fill="black" height="7.5" stroke="none" stroke-width="0" width="7.5" x="551.3" y="1.3" /><rect fill="black" height="7.4" stroke="none" stroke-width="0" width="7.4" x="561.3" y="1.3" /><rect fill="black" height="7.4" stroke="none" stroke-width="0" width="7.4" x="571.3" y="1.3" /><rect fill="black" height="7.4" stroke="none" stroke-width="0" width="7.4" x="581.3" y="1.3" /><rect fill="black" height="7.4" stroke="none" stroke-width="0" width="7.4" x="591.3" y="1.3" /><rect fill="black" height="7.2" stroke="none" stroke-width="0" width="7.2" x="601.4" y="1.4" /><rect fill="black" height="7.2" stroke="none" stroke-width="0" width="7.2" x="611.4" y="1.4" /><rect fill="black" height="7.2" stroke="none" stroke-width="0" width="7.2" x="621.4" y="1.4" /><rect fill="black" height="7.2" stroke="none" stroke-width="0" width="7.2" x="631.4" y="1.4" /><rect fill="black" height="7.1" stroke="none" stroke-width="0" width="7.1" x="641.5" y="1.5" /><rect fill="black" height="7.0" stroke="none" stroke-width="0" width="7.0" x="651.5" y="1.5" /><rect fill="black" height="6.9" stroke="none" stroke-width="0" width="6.9" x="661.6" y="1.6" /><rect fill="black" height="6.9" stroke="none" stroke-width="0" width="6.9" x="671.6" y="1.6" /><rect fill="black" height="6.8" stroke="none" stroke-width="0" width="6.8" x="681.6" y="1.6" /><rect fill="black" height="6.7" stroke="none" stroke-width="0" width="6.7" x="691.7" y="1.7" /><rect fill="black" height="6.6" stroke="none" stroke-width="0" width="6.6" x="701.7" y="1.7" /><rect fill="black" height="6.5" stroke="none" stroke-width="0" width="6.5" x="711.7" y="1.7" /><rect fill="black" height="6.3" stroke="none" stroke-width="0" width="6.3" x="721.9" y="1.9" /><rect fill="black" height="6.2" stroke="none" stroke-width="0" width="6.2" x="731.9" y="1.9" /><rect fill="black" height="5.9" stroke="none" stroke-width="0" width="5.9" x="742.1" y="2.1" /><rect fill="black" height="5.8" stroke="none" stroke-width="0" width="5.8" x="752.1" y="2.1" /><rect fill="black" height="5.7" stroke="none" stroke-width="0" width="5.7" x="762.2" y="2.2" /><rect fill="black" height="5.3" stroke="none" stroke-width="0" width="5.3" x="772.4" y="2.4" /><rect fill="black" height="5.1" stroke="none" stroke-width="0" width="5.1" x="782.4" y="2.4" /><rect fill="black" height="5.0" stroke="none" stroke-width="0" width="5.0" x="792.5" y="2.5" /><rect fill="black" height="5.0" stroke="none" stroke-width="0" width="5.0" x="802.5" y="2.5" /><rect fill="black" height="4.9" stroke="none" stroke-width="0" width="4.9" x="812.5" y="2.5" /><rect fill="black" height="4.8" stroke="none" stroke-width="0" width="4.8" x="822.6" y="2.6" /><rect fill="black" height="4.1" stroke="none" stroke-width="0" width="4.1" x="833.0" y="3.0" /><rect fill="black" height="3.4" stroke="none" stroke-width="0" width="3.4" x="843.3" y="3.3" /><rect fill="black" height="3.3" stroke="none" stroke-width="0" width="3.3" x="853.4" y="3.4" /><rect fill="black" height="2.5" stroke="none" stroke-width="0" width="2.5" x="863.7" y="3.7" /><rect fill="black" height="2.4" stroke="none" stroke-width="0" width="2.4" x="873.8" y="3.8" /><rect fill="black" height="2.3" stroke="none" stroke-width="0" width="2.3" x="883.9" y="3.9" /><rect fill="black" height="2.2" stroke="none" stroke-width="0" width="2.2" x="893.9" y="3.9" /><rect fill="black" height="2.2" stroke="none" stroke-width="0" width="2.2" x="903.9" y="3.9" /><rect fill="black" height="2.1" stroke="none" stroke-width="0" width="2.1" x="913.9" y="3.9" /><rect fill="black" height="2.1" stroke="none" stroke-width="0" width="2.1" x="923.9" y="3.9" /><rect fill="black" height="2.1" stroke="none" stroke-width="0" width="2.1" x="933.9" y="3.9" /><rect fill="black" height="2.1" stroke="none" stroke-width="0" width="2.1" x="943.9" y="3.9" /><rect fill="black" height="2.1" stroke="none" stroke-width="0" width="2.1" x="953.9" y="3.9" /><rect fill="black" height="2.1" stroke="none" stroke-width="0" width="2.1" x="963.9" y="3.9" /><rect fill="black" height="2.1" stroke="none" stroke-width="0" width="2.1" x="973.9" y="3.9" /><rect fill="black" height="2.1" stroke="none" stroke-width="0" width="2.1" x="983.9" y="3.9" /><rect fill="black" height="2.1" stroke="none" stroke-width="0" width="2.1" x="993.9" y="3.9" /><rect fill="black" height="2.1" stroke="none" stroke-width="0" width="2.1" x="1003.9" y="3.9" /><rect fill="black" height="2.1" stroke="none" stroke-width="0" width="2.1" x="1013.9" y="3.9" /><rect fill="black" height="2.1" stroke="none" stroke-width="0" width="2.1" x="1023.9" y="3.9" /><rect fill="black" height="2.1" stroke="none" stroke-width="0" width="2.1" x="1033.9" y="3.9" /><rect fill="black" height="2.1" stroke="none" stroke-width="0" width="2.1" x="1043.9" y="3.9" /><rect fill="black" height="2.1" stroke="none" stroke-width="0" width="2.1" x="1053.9" y="3.9" /><rect fill="black" height="2.1" stroke="none" stroke-width="0" width="2.1" x="1063.9" y="3.9" /><rect fill="black" height="2.1" stroke="none" stroke-width="0" width="2.1" x="1073.9" y="3.9" /><rect fill="black" height="2.1" stroke="none" stroke-width="0" width="2.1" x="1083.9" y="3.9" /><rect fill="black" height="2.1" stroke="none" stroke-width="0" width="2.1" x="1093.9" y="3.9" /><rect fill="black" height="2.1" stroke="none" stroke-width="0" width="2.1" x="1103.9" y="3.9" /><rect fill="black" height="2.1" stroke="none" stroke-width="0" width="2.1" x="1113.9" y="3.9" /><rect fill="black" height="2.1" stroke="none" stroke-width="0" width="2.1" x="1123.9" y="3.9" /></g><g><line stroke="black" stroke-width="0.5" x1="325.0" x2="325.0" y1="16.0" y2="22.0" /><text dominant-baseline="middle" font-size="24px" text-anchor="middle" x="325.0" y="34.0">0.5</text><line stroke="black" stroke-width="0.5" x1="695.0" x2="695.0" y1="16.0" y2="22.0" /><text dominant-baseline="middle" font-size="24px" text-anchor="middle" x="695.0" y="34.0">0.9</text><text font-size="24px" text-anchor="middle" transform="rotate(-90, -22.0, 5.0)" x="-22.0" y="5.0">masks</text></g></svg>