<?xml version="1.0" encoding="utf-8" ?>
<svg baseProfile="full" height="100%" preserveAspectRatio="xMidYMid meet" version="1.1" viewBox="-40,-40,1210,90" width="100%" xmlns="http://www.w3.org/2000/svg" xmlns:ev="http://www.w3.org/2001/xml-events" xmlns:xlink="http://www.w3.org/1999/xlink"><defs><style type="text/css"><![CDATA[
        @import url(https://cdn.jsdelivr.net/npm/firacode@6.2.0/distr/fira_code.css);
        text {
            font-family: 'STIX Two', 'STIX Two Math', 'STIXMath', 'DejaVu Math TeX Glyph',
                        'DejaVu Serif', 'Cambria Math', 'Latin Modern Math', 'FiraCode',
                        'serif';
        }
    ]]></style><style type="text/css"><![CDATA[
        @import url(https://cdn.jsdelivr.net/npm/firacode@6.2.0/distr/fira_code.css);
        text {
            font-family: 'STIX Two', 'STIX Two Math', 'STIXMath', 'DejaVu Math TeX Glyph',
                        'DejaVu Serif', 'Cambria Math', 'Latin Modern Math', 'FiraCode',
                        'serif';
        }
    ]]></style></defs><g><rect fill="black" height="9.5" stroke="none" stroke-width="0" width="9.5" x="0.2" y="0.2" /><rect fill="black" height="8.9" stroke="none" stroke-width="0" width="8.9" x="10.6" y="0.6" /><rect fill="black" height="6.8" stroke="none" stroke-width="0" width="6.8" x="21.6" y="1.6" /><rect fill="black" height="6.6" stroke="none" stroke-width="0" width="6.6" x="31.7" y="1.7" /><rect fill="black" height="6.4" stroke="none" stroke-width="0" width="6.4" x="41.8" y="1.8" /><rect fill="black" height="6.4" stroke="none" stroke-width="0" width="6.4" x="51.8" y="1.8" /><rect fill="black" height="6.3" stroke="none" stroke-width="0" width="6.3" x="61.8" y="1.8" /><rect fill="black" height="6.2" stroke="none" stroke-width="0" width="6.2" x="71.9" y="1.9" /><rect fill="black" height="6.1" stroke="none" stroke-width="0" width="6.1" x="81.9" y="1.9" /><rect fill="black" height="6.1" stroke="none" stroke-width="0" width="6.1" x="92.0" y="2.0" /><rect fill="black" height="6.0" stroke="none" stroke-width="0" width="6.0" x="102.0" y="2.0" /><rect fill="black" height="5.9" stroke="none" stroke-width="0" width="5.9" x="112.1" y="2.1" /><rect fill="black" height="5.8" stroke="none" stroke-width="0" width="5.8" x="122.1" y="2.1" /><rect fill="black" height="5.8" stroke="none" stroke-width="0" width="5.8" x="132.1" y="2.1" /><rect fill="black" height="5.7" stroke="none" stroke-width="0" width="5.7" x="142.1" y="2.1" /><rect fill="black" height="5.6" stroke="none" stroke-width="0" width="5.6" x="152.2" y="2.2" /><rect fill="black" height="5.4" stroke="none" stroke-width="0" width="5.4" x="162.3" y="2.3" /><rect fill="black" height="5.2" stroke="none" stroke-width="0" width="5.2" x="172.4" y="2.4" /><rect fill="black" height="5.1" stroke="none" stroke-width="0" width="5.1" x="182.5" y="2.5" /><rect fill="black" height="4.8" stroke="none" stroke-width="0" width="4.8" x="192.6" y="2.6" /><rect fill="black" height="4.7" stroke="none" stroke-width="0" width="4.7" x="202.6" y="2.6" /><rect fill="black" height="4.6" stroke="none" stroke-width="0" width="4.6" x="212.7" y="2.7" /><rect fill="black" height="4.5" stroke="none" stroke-width="0" width="4.5" x="222.7" y="2.7" /><rect fill="black" height="4.4" stroke="none" stroke-width="0" width="4.4" x="232.8" y="2.8" /><rect fill="black" height="4.1" stroke="none" stroke-width="0" width="4.1" x="242.9" y="2.9" /><rect fill="black" height="4.1" stroke="none" stroke-width="0" width="4.1" x="253.0" y="3.0" /><rect fill="black" height="3.9" stroke="none" stroke-width="0" width="3.9" x="263.0" y="3.0" /><rect fill="black" height="3.9" stroke="none" stroke-width="0" width="3.9" x="273.1" y="3.1" /><rect fill="black" height="3.8" stroke="none" stroke-width="0" width="3.8" x="283.1" y="3.1" /><rect fill="black" height="3.7" stroke="none" stroke-width="0" width="3.7" x="293.2" y="3.2" /><rect fill="black" height="3.6" stroke="none" stroke-width="0" width="3.6" x="303.2" y="3.2" /><rect fill="black" height="3.6" stroke="none" stroke-width="0" width="3.6" x="313.2" y="3.2" /><rect fill="black" height="3.5" stroke="none" stroke-width="0" width="3.5" x="323.2" y="3.2" /><rect fill="black" height="3.5" stroke="none" stroke-width="0" width="3.5" x="333.3" y="3.3" /><rect fill="black" height="3.4" stroke="none" stroke-width="0" width="3.4" x="343.3" y="3.3" /><rect fill="black" height="3.4" stroke="none" stroke-width="0" width="3.4" x="353.3" y="3.3" /><rect fill="black" height="3.3" stroke="none" stroke-width="0" width="3.3" x="363.3" y="3.3" /><rect fill="black" height="3.3" stroke="none" stroke-width="0" width="3.3" x="373.3" y="3.3" /><rect fill="black" height="3.3" stroke="none" stroke-width="0" width="3.3" x="383.4" y="3.4" /><rect fill="black" height="3.2" stroke="none" stroke-width="0" width="3.2" x="393.4" y="3.4" /><rect fill="black" height="3.2" stroke="none" stroke-width="0" width="3.2" x="403.4" y="3.4" /><rect fill="black" height="3.1" stroke="none" stroke-width="0" width="3.1" x="413.4" y="3.4" /><rect fill="black" height="3.1" stroke="none" stroke-width="0" width="3.1" x="423.4" y="3.4" /><rect fill="black" height="3.1" stroke="none" stroke-width="0" width="3.1" x="433.5" y="3.5" /><rect fill="black" height="3.1" stroke="none" stroke-width="0" width="3.1" x="443.5" y="3.5" /><rect fill="black" height="3.0" stroke="none" stroke-width="0" width="3.0" x="453.5" y="3.5" /><rect fill="black" height="3.0" stroke="none" stroke-width="0" width="3.0" x="463.5" y="3.5" /><rect fill="black" height="3.0" stroke="none" stroke-width="0" width="3.0" x="473.5" y="3.5" /><rect fill="black" height="2.9" stroke="none" stroke-width="0" width="2.9" x="483.5" y="3.5" /><rect fill="black" height="2.9" stroke="none" stroke-width="0" width="2.9" x="493.5" y="3.5" /><rect fill="black" height="2.9" stroke="none" stroke-width="0" width="2.9" x="503.6" y="3.6" /><rect fill="black" height="2.8" stroke="none" stroke-width="0" width="2.8" x="513.6" y="3.6" /><rect fill="black" height="2.8" stroke="none" stroke-width="0" width="2.8" x="523.6" y="3.6" /><rect fill="black" height="2.8" stroke="none" stroke-width="0" width="2.8" x="533.6" y="3.6" /><rect fill="black" height="2.8" stroke="none" stroke-width="0" width="2.8" x="543.6" y="3.6" /><rect fill="black" height="2.7" stroke="none" stroke-width="0" width="2.7" x="553.6" y="3.6" /><rect fill="black" height="2.7" stroke="none" stroke-width="0" width="2.7" x="563.6" y="3.6" /><rect fill="black" height="2.7" stroke="none" stroke-width="0" width="2.7" x="573.7" y="3.7" /><rect fill="black" height="2.6" stroke="none" stroke-width="0" width="2.6" x="583.7" y="3.7" /><rect fill="black" height="2.6" stroke="none" stroke-width="0" width="2.6" x="593.7" y="3.7" /><rect fill="black" height="2.5" stroke="none" stroke-width="0" width="2.5" x="603.7" y="3.7" /><rect fill="black" height="2.5" stroke="none" stroke-width="0" width="2.5" x="613.7" y="3.7" /><rect fill="black" height="2.5" stroke="none" stroke-width="0" width="2.5" x="623.7" y="3.7" /><rect fill="black" height="2.5" stroke="none" stroke-width="0" width="2.5" x="633.8" y="3.8" /><rect fill="black" height="2.5" stroke="none" stroke-width="0" width="2.5" x="643.8" y="3.8" /><rect fill="black" height="2.4" stroke="none" stroke-width="0" width="2.4" x="653.8" y="3.8" /><rect fill="black" height="2.4" stroke="none" stroke-width="0" width="2.4" x="663.8" y="3.8" /><rect fill="black" height="2.4" stroke="none" stroke-width="0" width="2.4" x="673.8" y="3.8" /><rect fill="black" height="2.4" stroke="none" stroke-width="0" width="2.4" x="683.8" y="3.8" /><rect fill="black" height="2.4" stroke="none" stroke-width="0" width="2.4" x="693.8" y="3.8" /><rect fill="black" height="2.3" stroke="none" stroke-width="0" width="2.3" x="703.8" y="3.8" /><rect fill="black" height="2.3" stroke="none" stroke-width="0" width="2.3" x="713.9" y="3.9" /><rect fill="black" height="2.2" stroke="none" stroke-width="0" width="2.2" x="723.9" y="3.9" /><rect fill="black" height="2.2" stroke="none" stroke-width="0" width="2.2" x="733.9" y="3.9" /><rect fill="black" height="2.2" stroke="none" stroke-width="0" width="2.2" x="743.9" y="3.9" /><rect fill="black" height="2.2" stroke="none" stroke-width="0" width="2.2" x="753.9" y="3.9" /><rect fill="black" height="2.2" stroke="none" stroke-width="0" width="2.2" x="763.9" y="3.9" /><rect fill="black" height="2.1" stroke="none" stroke-width="0" width="2.1" x="773.9" y="3.9" /><rect fill="black" height="2.1" stroke="none" stroke-width="0" width="2.1" x="783.9" y="3.9" /><rect fill="black" height="2.1" stroke="none" stroke-width="0" width="2.1" x="793.9" y="3.9" /><rect fill="black" height="2.1" stroke="none" stroke-width="0" width="2.1" x="803.9" y="3.9" /><rect fill="black" height="2.1" stroke="none" stroke-width="0" width="2.1" x="813.9" y="3.9" /><rect fill="black" height="2.1" stroke="none" stroke-width="0" width="2.1" x="823.9" y="3.9" /><rect fill="black" height="2.1" stroke="none" stroke-width="0" width="2.1" x="833.9" y="3.9" /><rect fill="black" height="2.1" stroke="none" stroke-width="0" width="2.1" x="843.9" y="3.9" /><rect fill="black" height="2.1" stroke="none" stroke-width="0" width="2.1" x="853.9" y="3.9" /><rect fill="black" height="2.1" stroke="none" stroke-width="0" width="2.1" x="863.9" y="3.9" /><rect fill="black" height="2.1" stroke="none" stroke-width="0" width="2.1" x="873.9" y="3.9" /><rect fill="black" height="2.1" stroke="none" stroke-width="0" width="2.1" x="883.9" y="3.9" /><rect fill="black" height="2.1" stroke="none" stroke-width="0" width="2.1" x="893.9" y="3.9" /><rect fill="black" height="2.1" stroke="none" stroke-width="0" width="2.1" x="903.9" y="3.9" /><rect fill="black" height="2.1" stroke="none" stroke-width="0" width="2.1" x="913.9" y="3.9" /><rect fill="black" height="2.1" stroke="none" stroke-width="0" width="2.1" x="923.9" y="3.9" /><rect fill="black" height="2.1" stroke="none" stroke-width="0" width="2.1" x="933.9" y="3.9" /><rect fill="black" height="2.1" stroke="none" stroke-width="0" width="2.1" x="943.9" y="3.9" /><rect fill="black" height="2.1" stroke="none" stroke-width="0" width="2.1" x="953.9" y="3.9" /><rect fill="black" height="2.1" stroke="none" stroke-width="0" width="2.1" x="963.9" y="3.9" /><rect fill="black" height="2.1" stroke="none" stroke-width="0" width="2.1" x="973.9" y="3.9" /><rect fill="black" height="2.1" stroke="none" stroke-width="0" width="2.1" x="983.9" y="3.9" /><rect fill="black" height="2.1" stroke="none" stroke-width="0" width="2.1" x="993.9" y="3.9" /><rect fill="black" height="2.1" stroke="none" stroke-width="0" width="2.1" x="1003.9" y="3.9" /><rect fill="black" height="2.1" stroke="none" stroke-width="0" width="2.1" x="1013.9" y="3.9" /><rect fill="black" height="2.1" stroke="none" stroke-width="0" width="2.1" x="1023.9" y="3.9" /><rect fill="black" height="2.1" stroke="none" stroke-width="0" width="2.1" x="1033.9" y="3.9" /><rect fill="black" height="2.1" stroke="none" stroke-width="0" width="2.1" x="1043.9" y="3.9" /><rect fill="black" height="2.1" stroke="none" stroke-width="0" width="2.1" x="1053.9" y="3.9" /><rect fill="black" height="2.1" stroke="none" stroke-width="0" width="2.1" x="1063.9" y="3.9" /><rect fill="black" height="2.1" stroke="none" stroke-width="0" width="2.1" x="1073.9" y="3.9" /><rect fill="black" height="2.1" stroke="none" stroke-width="0" width="2.1" x="1083.9" y="3.9" /><rect fill="black" height="2.1" stroke="none" stroke-width="0" width="2.1" x="1093.9" y="3.9" /><rect fill="black" height="2.1" stroke="none" stroke-width="0" width="2.1" x="1103.9" y="3.9" /><rect fill="black" height="2.1" stroke="none" stroke-width="0" width="2.1" x="1113.9" y="3.9" /><rect fill="black" height="2.1" stroke="none" stroke-width="0" width="2.1" x="1123.9" y="3.9" /></g><g><line stroke="black" stroke-width="0.5" x1="155.0" x2="155.0" y1="14.0" y2="17.0" /><text dominant-baseline="middle" font-size="6px" text-anchor="middle" x="155.0" y="23.0">0.5</text><line stroke="black" stroke-width="0.5" x1="655.0" x2="655.0" y1="14.0" y2="17.0" /><text dominant-baseline="middle" font-size="6px" text-anchor="middle" x="655.0" y="23.0">0.9</text><line stroke="black" stroke-width="0.5" x1="-4.0" x2="-7.0" y1="5.0" y2="5.0" /><text dominant-baseline="middle" font-size="6px" text-anchor="end" x="-13.0" y="5.0">S</text></g></svg>