<?xml version="1.0" encoding="utf-8" ?>
<svg baseProfile="full" height="100%" preserveAspectRatio="xMidYMid meet" version="1.1" viewBox="-20,-20,410,140" width="100%" xmlns="http://www.w3.org/2000/svg" xmlns:ev="http://www.w3.org/2001/xml-events" xmlns:xlink="http://www.w3.org/1999/xlink"><defs><style type="text/css"><![CDATA[
        @import url(https://cdn.jsdelivr.net/npm/firacode@6.2.0/distr/fira_code.css);
        text { font-family: 'Fira Code', monospace; }
    ]]></style></defs><g><rect fill="black" height="7.5" stroke="none" stroke-width="0" width="7.5" x="1.3" y="1.3" /><rect fill="white" height="3.0" stroke="black" stroke-width="0.5" width="3.0" x="13.5" y="3.5" /><rect fill="black" height="4.6" stroke="none" stroke-width="0" width="4.6" x="22.7" y="2.7" /><rect fill="white" height="2.8" stroke="black" stroke-width="0.5" width="2.8" x="33.6" y="3.6" /><rect fill="white" height="4.8" stroke="black" stroke-width="0.5" width="4.8" x="42.6" y="2.6" /><rect fill="black" height="3.2" stroke="none" stroke-width="0" width="3.2" x="53.4" y="3.4" /><rect fill="white" height="6.8" stroke="black" stroke-width="0.5" width="6.8" x="61.6" y="1.6" /><rect fill="white" height="4.8" stroke="black" stroke-width="0.5" width="4.8" x="72.6" y="2.6" /><rect fill="white" height="3.9" stroke="black" stroke-width="0.5" width="3.9" x="83.1" y="3.1" /><rect fill="white" height="5.5" stroke="black" stroke-width="0.5" width="5.5" x="92.2" y="2.2" /><rect fill="black" height="2.0" stroke="none" stroke-width="0" width="2.0" x="104.0" y="4.0" /><rect fill="black" height="3.1" stroke="none" stroke-width="0" width="3.1" x="113.4" y="3.4" /><rect fill="black" height="3.3" stroke="none" stroke-width="0" width="3.3" x="123.4" y="3.4" /><rect fill="white" height="2.6" stroke="black" stroke-width="0.5" width="2.6" x="133.7" y="3.7" /><rect fill="black" height="6.2" stroke="none" stroke-width="0" width="6.2" x="141.9" y="1.9" /><rect fill="black" height="7.4" stroke="none" stroke-width="0" width="7.4" x="151.3" y="1.3" /><rect fill="white" height="2.2" stroke="black" stroke-width="0.5" width="2.2" x="163.9" y="3.9" /><rect fill="black" height="2.8" stroke="none" stroke-width="0" width="2.8" x="173.6" y="3.6" /><rect fill="white" height="3.4" stroke="black" stroke-width="0.5" width="3.4" x="183.3" y="3.3" /><rect fill="black" height="5.2" stroke="none" stroke-width="0" width="5.2" x="192.4" y="2.4" /><rect fill="black" height="2.6" stroke="none" stroke-width="0" width="2.6" x="203.7" y="3.7" /><rect fill="white" height="5.0" stroke="black" stroke-width="0.5" width="5.0" x="212.5" y="2.5" /><rect fill="white" height="2.0" stroke="black" stroke-width="0.5" width="2.0" x="224.0" y="4.0" /><rect fill="white" height="4.3" stroke="black" stroke-width="0.5" width="4.3" x="232.9" y="2.9" /><rect fill="white" height="7.4" stroke="black" stroke-width="0.5" width="7.4" x="241.3" y="1.3" /><rect fill="white" height="6.5" stroke="black" stroke-width="0.5" width="6.5" x="251.7" y="1.7" /><rect fill="white" height="4.3" stroke="black" stroke-width="0.5" width="4.3" x="262.8" y="2.8" /><rect fill="black" height="4.9" stroke="none" stroke-width="0" width="4.9" x="272.6" y="2.6" /><rect fill="black" height="6.7" stroke="none" stroke-width="0" width="6.7" x="281.6" y="1.6" /><rect fill="white" height="6.7" stroke="black" stroke-width="0.5" width="6.7" x="291.6" y="1.6" /><rect fill="white" height="3.6" stroke="black" stroke-width="0.5" width="3.6" x="303.2" y="3.2" /><rect fill="black" height="3.4" stroke="none" stroke-width="0" width="3.4" x="313.3" y="3.3" /><rect fill="white" height="5.0" stroke="black" stroke-width="0.5" width="5.0" x="322.5" y="2.5" /><rect fill="black" height="4.6" stroke="none" stroke-width="0" width="4.6" x="332.7" y="2.7" /><rect fill="black" height="2.7" stroke="none" stroke-width="0" width="2.7" x="343.7" y="3.7" /><rect fill="white" height="5.3" stroke="black" stroke-width="0.5" width="5.3" x="352.4" y="2.4" /><rect fill="black" height="6.5" stroke="none" stroke-width="0" width="6.5" x="361.8" y="1.8" /><rect fill="white" height="2.1" stroke="black" stroke-width="0.5" width="2.1" x="4.0" y="14.0" /><rect fill="black" height="4.1" stroke="none" stroke-width="0" width="4.1" x="13.0" y="13.0" /><rect fill="black" height="5.1" stroke="none" stroke-width="0" width="5.1" x="22.5" y="12.5" /><rect fill="black" height="3.7" stroke="none" stroke-width="0" width="3.7" x="33.2" y="13.2" /><rect fill="white" height="7.8" stroke="black" stroke-width="0.5" width="7.8" x="41.1" y="11.1" /><rect fill="black" height="7.0" stroke="none" stroke-width="0" width="7.0" x="51.5" y="11.5" /><rect fill="white" height="6.0" stroke="black" stroke-width="0.5" width="6.0" x="62.0" y="12.0" /><rect fill="black" height="2.9" stroke="none" stroke-width="0" width="2.9" x="73.6" y="13.6" /><rect fill="white" height="5.8" stroke="black" stroke-width="0.5" width="5.8" x="82.1" y="12.1" /><rect fill="white" height="6.9" stroke="black" stroke-width="0.5" width="6.9" x="91.6" y="11.6" /><rect fill="black" height="6.3" stroke="none" stroke-width="0" width="6.3" x="101.9" y="11.9" /><rect fill="black" height="3.4" stroke="none" stroke-width="0" width="3.4" x="113.3" y="13.3" /><rect fill="black" height="5.2" stroke="none" stroke-width="0" width="5.2" x="122.4" y="12.4" /><rect fill="white" height="4.9" stroke="black" stroke-width="0.5" width="4.9" x="132.5" y="12.5" /><rect fill="white" height="5.1" stroke="black" stroke-width="0.5" width="5.1" x="142.5" y="12.5" /><rect fill="white" height="4.2" stroke="black" stroke-width="0.5" width="4.2" x="152.9" y="12.9" /><rect fill="black" height="3.2" stroke="none" stroke-width="0" width="3.2" x="163.4" y="13.4" /><rect fill="white" height="4.7" stroke="black" stroke-width="0.5" width="4.7" x="172.6" y="12.6" /><rect fill="black" height="7.0" stroke="none" stroke-width="0" width="7.0" x="181.5" y="11.5" /><rect fill="white" height="4.7" stroke="black" stroke-width="0.5" width="4.7" x="192.7" y="12.7" /><rect fill="white" height="2.0" stroke="black" stroke-width="0.5" width="2.0" x="204.0" y="14.0" /><rect fill="black" height="2.0" stroke="none" stroke-width="0" width="2.0" x="214.0" y="14.0" /><rect fill="white" height="5.9" stroke="black" stroke-width="0.5" width="5.9" x="222.0" y="12.0" /><rect fill="white" height="2.0" stroke="black" stroke-width="0.5" width="2.0" x="234.0" y="14.0" /><rect fill="white" height="3.0" stroke="black" stroke-width="0.5" width="3.0" x="243.5" y="13.5" /><rect fill="black" height="5.4" stroke="none" stroke-width="0" width="5.4" x="252.3" y="12.3" /><rect fill="black" height="5.8" stroke="none" stroke-width="0" width="5.8" x="262.1" y="12.1" /><rect fill="white" height="6.6" stroke="black" stroke-width="0.5" width="6.6" x="271.7" y="11.7" /><rect fill="black" height="6.7" stroke="none" stroke-width="0" width="6.7" x="281.6" y="11.6" /><rect fill="black" height="5.5" stroke="none" stroke-width="0" width="5.5" x="292.2" y="12.2" /><rect fill="black" height="2.0" stroke="none" stroke-width="0" width="2.0" x="304.0" y="14.0" /><rect fill="white" height="2.2" stroke="black" stroke-width="0.5" width="2.2" x="313.9" y="13.9" /><rect fill="white" height="2.0" stroke="black" stroke-width="0.5" width="2.0" x="324.0" y="14.0" /><rect fill="white" height="2.0" stroke="black" stroke-width="0.5" width="2.0" x="334.0" y="14.0" /><rect fill="black" height="5.0" stroke="none" stroke-width="0" width="5.0" x="342.5" y="12.5" /><rect fill="black" height="3.2" stroke="none" stroke-width="0" width="3.2" x="353.4" y="13.4" /><rect fill="white" height="4.5" stroke="black" stroke-width="0.5" width="4.5" x="362.8" y="12.8" /><rect fill="white" height="6.7" stroke="black" stroke-width="0.5" width="6.7" x="1.7" y="21.7" /><rect fill="black" height="3.2" stroke="none" stroke-width="0" width="3.2" x="13.4" y="23.4" /><rect fill="black" height="5.8" stroke="none" stroke-width="0" width="5.8" x="22.1" y="22.1" /><rect fill="black" height="4.5" stroke="none" stroke-width="0" width="4.5" x="32.8" y="22.8" /><rect fill="black" height="5.8" stroke="none" stroke-width="0" width="5.8" x="42.1" y="22.1" /><rect fill="black" height="4.9" stroke="none" stroke-width="0" width="4.9" x="52.5" y="22.5" /><rect fill="black" height="2.1" stroke="none" stroke-width="0" width="2.1" x="64.0" y="24.0" /><rect fill="black" height="2.1" stroke="none" stroke-width="0" width="2.1" x="73.9" y="23.9" /><rect fill="white" height="4.8" stroke="black" stroke-width="0.5" width="4.8" x="82.6" y="22.6" /><rect fill="black" height="3.3" stroke="none" stroke-width="0" width="3.3" x="93.4" y="23.4" /><rect fill="black" height="3.3" stroke="none" stroke-width="0" width="3.3" x="103.4" y="23.4" /><rect fill="black" height="5.2" stroke="none" stroke-width="0" width="5.2" x="112.4" y="22.4" /><rect fill="black" height="3.0" stroke="none" stroke-width="0" width="3.0" x="123.5" y="23.5" /><rect fill="black" height="4.7" stroke="none" stroke-width="0" width="4.7" x="132.7" y="22.7" /><rect fill="black" height="5.7" stroke="none" stroke-width="0" width="5.7" x="142.1" y="22.1" /><rect fill="black" height="6.8" stroke="none" stroke-width="0" width="6.8" x="151.6" y="21.6" /><rect fill="white" height="4.3" stroke="black" stroke-width="0.5" width="4.3" x="162.8" y="22.8" /><rect fill="white" height="5.1" stroke="black" stroke-width="0.5" width="5.1" x="172.4" y="22.4" /><rect fill="black" height="2.7" stroke="none" stroke-width="0" width="2.7" x="183.7" y="23.7" /><rect fill="white" height="3.6" stroke="black" stroke-width="0.5" width="3.6" x="193.2" y="23.2" /><rect fill="black" height="7.4" stroke="none" stroke-width="0" width="7.4" x="201.3" y="21.3" /><rect fill="black" height="5.9" stroke="none" stroke-width="0" width="5.9" x="212.0" y="22.0" /><rect fill="black" height="2.2" stroke="none" stroke-width="0" width="2.2" x="223.9" y="23.9" /><rect fill="black" height="4.7" stroke="none" stroke-width="0" width="4.7" x="232.6" y="22.6" /><rect fill="white" height="3.5" stroke="black" stroke-width="0.5" width="3.5" x="243.2" y="23.2" /><rect fill="black" height="3.5" stroke="none" stroke-width="0" width="3.5" x="253.2" y="23.2" /><rect fill="black" height="2.1" stroke="none" stroke-width="0" width="2.1" x="263.9" y="23.9" /><rect fill="black" height="7.3" stroke="none" stroke-width="0" width="7.3" x="271.4" y="21.4" /><rect fill="black" height="4.2" stroke="none" stroke-width="0" width="4.2" x="282.9" y="22.9" /><rect fill="white" height="5.8" stroke="black" stroke-width="0.5" width="5.8" x="292.1" y="22.1" /><rect fill="black" height="3.1" stroke="none" stroke-width="0" width="3.1" x="303.5" y="23.5" /><rect fill="black" height="5.8" stroke="none" stroke-width="0" width="5.8" x="312.1" y="22.1" /><rect fill="white" height="4.0" stroke="black" stroke-width="0.5" width="4.0" x="323.0" y="23.0" /><rect fill="white" height="5.9" stroke="black" stroke-width="0.5" width="5.9" x="332.1" y="22.1" /><rect fill="white" height="2.0" stroke="black" stroke-width="0.5" width="2.0" x="344.0" y="24.0" /><rect fill="black" height="3.0" stroke="none" stroke-width="0" width="3.0" x="353.5" y="23.5" /><rect fill="white" height="8.3" stroke="black" stroke-width="0.5" width="8.3" x="360.8" y="20.8" /><rect fill="black" height="2.9" stroke="none" stroke-width="0" width="2.9" x="3.6" y="33.6" /><rect fill="white" height="5.9" stroke="black" stroke-width="0.5" width="5.9" x="12.0" y="32.0" /><rect fill="black" height="4.1" stroke="none" stroke-width="0" width="4.1" x="23.0" y="33.0" /><rect fill="black" height="6.3" stroke="none" stroke-width="0" width="6.3" x="31.8" y="31.8" /><rect fill="white" height="2.5" stroke="black" stroke-width="0.5" width="2.5" x="43.7" y="33.7" /><rect fill="white" height="5.4" stroke="black" stroke-width="0.5" width="5.4" x="52.3" y="32.3" /><rect fill="white" height="3.6" stroke="black" stroke-width="0.5" width="3.6" x="63.2" y="33.2" /><rect fill="black" height="4.0" stroke="none" stroke-width="0" width="4.0" x="73.0" y="33.0" /><rect fill="black" height="3.4" stroke="none" stroke-width="0" width="3.4" x="83.3" y="33.3" /><rect fill="black" height="4.8" stroke="none" stroke-width="0" width="4.8" x="92.6" y="32.6" /><rect fill="white" height="2.0" stroke="black" stroke-width="0.5" width="2.0" x="104.0" y="34.0" /><rect fill="black" height="5.1" stroke="none" stroke-width="0" width="5.1" x="112.4" y="32.4" /><rect fill="black" height="6.0" stroke="none" stroke-width="0" width="6.0" x="122.0" y="32.0" /><rect fill="white" height="2.0" stroke="black" stroke-width="0.5" width="2.0" x="134.0" y="34.0" /><rect fill="white" height="2.5" stroke="black" stroke-width="0.5" width="2.5" x="143.8" y="33.8" /><rect fill="white" height="9.0" stroke="black" stroke-width="0.5" width="9.0" x="150.5" y="30.5" /><rect fill="black" height="3.5" stroke="none" stroke-width="0" width="3.5" x="163.2" y="33.2" /><rect fill="white" height="2.0" stroke="black" stroke-width="0.5" width="2.0" x="174.0" y="34.0" /><rect fill="white" height="6.2" stroke="black" stroke-width="0.5" width="6.2" x="181.9" y="31.9" /><rect fill="white" height="4.7" stroke="black" stroke-width="0.5" width="4.7" x="192.6" y="32.6" /><rect fill="black" height="3.1" stroke="none" stroke-width="0" width="3.1" x="203.4" y="33.4" /><rect fill="white" height="2.0" stroke="black" stroke-width="0.5" width="2.0" x="214.0" y="34.0" /><rect fill="black" height="2.5" stroke="none" stroke-width="0" width="2.5" x="223.8" y="33.8" /><rect fill="white" height="5.9" stroke="black" stroke-width="0.5" width="5.9" x="232.1" y="32.1" /><rect fill="white" height="4.8" stroke="black" stroke-width="0.5" width="4.8" x="242.6" y="32.6" /><rect fill="white" height="2.6" stroke="black" stroke-width="0.5" width="2.6" x="253.7" y="33.7" /><rect fill="black" height="5.6" stroke="none" stroke-width="0" width="5.6" x="262.2" y="32.2" /><rect fill="black" height="5.7" stroke="none" stroke-width="0" width="5.7" x="272.2" y="32.2" /><rect fill="white" height="2.7" stroke="black" stroke-width="0.5" width="2.7" x="283.7" y="33.7" /><rect fill="white" height="3.2" stroke="black" stroke-width="0.5" width="3.2" x="293.4" y="33.4" /><rect fill="white" height="4.7" stroke="black" stroke-width="0.5" width="4.7" x="302.7" y="32.7" /><rect fill="black" height="4.4" stroke="none" stroke-width="0" width="4.4" x="312.8" y="32.8" /><rect fill="white" height="2.0" stroke="black" stroke-width="0.5" width="2.0" x="324.0" y="34.0" /><rect fill="black" height="4.6" stroke="none" stroke-width="0" width="4.6" x="332.7" y="32.7" /><rect fill="black" height="7.2" stroke="none" stroke-width="0" width="7.2" x="341.4" y="31.4" /><rect fill="white" height="7.7" stroke="black" stroke-width="0.5" width="7.7" x="351.1" y="31.1" /><rect fill="white" height="5.8" stroke="black" stroke-width="0.5" width="5.8" x="362.1" y="32.1" /><rect fill="white" height="5.1" stroke="black" stroke-width="0.5" width="5.1" x="2.4" y="42.4" /><rect fill="white" height="4.3" stroke="black" stroke-width="0.5" width="4.3" x="12.9" y="42.9" /><rect fill="black" height="4.8" stroke="none" stroke-width="0" width="4.8" x="22.6" y="42.6" /><rect fill="white" height="5.4" stroke="black" stroke-width="0.5" width="5.4" x="32.3" y="42.3" /><rect fill="black" height="5.4" stroke="none" stroke-width="0" width="5.4" x="42.3" y="42.3" /><rect fill="black" height="6.2" stroke="none" stroke-width="0" width="6.2" x="51.9" y="41.9" /><rect fill="white" height="5.5" stroke="black" stroke-width="0.5" width="5.5" x="62.3" y="42.3" /><rect fill="black" height="6.9" stroke="none" stroke-width="0" width="6.9" x="71.6" y="41.6" /><rect fill="white" height="2.6" stroke="black" stroke-width="0.5" width="2.6" x="83.7" y="43.7" /><rect fill="black" height="4.4" stroke="none" stroke-width="0" width="4.4" x="92.8" y="42.8" /><rect fill="white" height="3.7" stroke="black" stroke-width="0.5" width="3.7" x="103.2" y="43.2" /><rect fill="white" height="5.3" stroke="black" stroke-width="0.5" width="5.3" x="112.4" y="42.4" /><rect fill="white" height="4.5" stroke="black" stroke-width="0.5" width="4.5" x="122.8" y="42.8" /><rect fill="black" height="2.1" stroke="none" stroke-width="0" width="2.1" x="134.0" y="44.0" /><rect fill="white" height="4.5" stroke="black" stroke-width="0.5" width="4.5" x="142.8" y="42.8" /><rect fill="black" height="3.4" stroke="none" stroke-width="0" width="3.4" x="153.3" y="43.3" /><rect fill="black" height="4.8" stroke="none" stroke-width="0" width="4.8" x="162.6" y="42.6" /><rect fill="black" height="3.7" stroke="none" stroke-width="0" width="3.7" x="173.1" y="43.1" /><rect fill="white" height="2.0" stroke="black" stroke-width="0.5" width="2.0" x="184.0" y="44.0" /><rect fill="white" height="4.7" stroke="black" stroke-width="0.5" width="4.7" x="192.6" y="42.6" /><rect fill="black" height="2.0" stroke="none" stroke-width="0" width="2.0" x="204.0" y="44.0" /><rect fill="white" height="6.8" stroke="black" stroke-width="0.5" width="6.8" x="211.6" y="41.6" /><rect fill="white" height="3.0" stroke="black" stroke-width="0.5" width="3.0" x="223.5" y="43.5" /><rect fill="white" height="5.4" stroke="black" stroke-width="0.5" width="5.4" x="232.3" y="42.3" /><rect fill="white" height="4.6" stroke="black" stroke-width="0.5" width="4.6" x="242.7" y="42.7" /><rect fill="white" height="6.8" stroke="black" stroke-width="0.5" width="6.8" x="251.6" y="41.6" /><rect fill="white" height="7.2" stroke="black" stroke-width="0.5" width="7.2" x="261.4" y="41.4" /><rect fill="black" height="2.7" stroke="none" stroke-width="0" width="2.7" x="273.7" y="43.7" /><rect fill="white" height="2.7" stroke="black" stroke-width="0.5" width="2.7" x="283.6" y="43.6" /><rect fill="black" height="4.5" stroke="none" stroke-width="0" width="4.5" x="292.7" y="42.7" /><rect fill="black" height="4.4" stroke="none" stroke-width="0" width="4.4" x="302.8" y="42.8" /><rect fill="white" height="7.6" stroke="black" stroke-width="0.5" width="7.6" x="311.2" y="41.2" /><rect fill="white" height="3.3" stroke="black" stroke-width="0.5" width="3.3" x="323.3" y="43.3" /><rect fill="white" height="3.9" stroke="black" stroke-width="0.5" width="3.9" x="333.0" y="43.0" /><rect fill="black" height="7.4" stroke="none" stroke-width="0" width="7.4" x="341.3" y="41.3" /><rect fill="black" height="4.0" stroke="none" stroke-width="0" width="4.0" x="353.0" y="43.0" /><rect fill="white" height="5.8" stroke="black" stroke-width="0.5" width="5.8" x="362.1" y="42.1" /><rect fill="black" height="2.3" stroke="none" stroke-width="0" width="2.3" x="3.9" y="53.9" /><rect fill="black" height="5.2" stroke="none" stroke-width="0" width="5.2" x="12.4" y="52.4" /><rect fill="black" height="4.2" stroke="none" stroke-width="0" width="4.2" x="22.9" y="52.9" /><rect fill="black" height="5.6" stroke="none" stroke-width="0" width="5.6" x="32.2" y="52.2" /><rect fill="white" height="3.7" stroke="black" stroke-width="0.5" width="3.7" x="43.2" y="53.2" /><rect fill="white" height="4.6" stroke="black" stroke-width="0.5" width="4.6" x="52.7" y="52.7" /><rect fill="black" height="2.0" stroke="none" stroke-width="0" width="2.0" x="64.0" y="54.0" /><rect fill="white" height="2.6" stroke="black" stroke-width="0.5" width="2.6" x="73.7" y="53.7" /><rect fill="white" height="6.7" stroke="black" stroke-width="0.5" width="6.7" x="81.7" y="51.7" /><rect fill="black" height="2.0" stroke="none" stroke-width="0" width="2.0" x="94.0" y="54.0" /><rect fill="black" height="3.4" stroke="none" stroke-width="0" width="3.4" x="103.3" y="53.3" /><rect fill="white" height="8.1" stroke="black" stroke-width="0.5" width="8.1" x="110.9" y="50.9" /><rect fill="black" height="4.0" stroke="none" stroke-width="0" width="4.0" x="123.0" y="53.0" /><rect fill="white" height="4.0" stroke="black" stroke-width="0.5" width="4.0" x="133.0" y="53.0" /><rect fill="white" height="8.6" stroke="black" stroke-width="0.5" width="8.6" x="140.7" y="50.7" /><rect fill="white" height="4.0" stroke="black" stroke-width="0.5" width="4.0" x="153.0" y="53.0" /><rect fill="white" height="7.0" stroke="black" stroke-width="0.5" width="7.0" x="161.5" y="51.5" /><rect fill="white" height="3.6" stroke="black" stroke-width="0.5" width="3.6" x="173.2" y="53.2" /><rect fill="white" height="5.7" stroke="black" stroke-width="0.5" width="5.7" x="182.1" y="52.1" /><rect fill="white" height="2.8" stroke="black" stroke-width="0.5" width="2.8" x="193.6" y="53.6" /><rect fill="black" height="2.0" stroke="none" stroke-width="0" width="2.0" x="204.0" y="54.0" /><rect fill="black" height="2.0" stroke="none" stroke-width="0" width="2.0" x="214.0" y="54.0" /><rect fill="white" height="2.0" stroke="black" stroke-width="0.5" width="2.0" x="224.0" y="54.0" /><rect fill="black" height="2.2" stroke="none" stroke-width="0" width="2.2" x="233.9" y="53.9" /><rect fill="white" height="3.9" stroke="black" stroke-width="0.5" width="3.9" x="243.1" y="53.1" /><rect fill="white" height="5.7" stroke="black" stroke-width="0.5" width="5.7" x="252.2" y="52.2" /><rect fill="white" height="5.0" stroke="black" stroke-width="0.5" width="5.0" x="262.5" y="52.5" /><rect fill="black" height="3.6" stroke="none" stroke-width="0" width="3.6" x="273.2" y="53.2" /><rect fill="white" height="2.0" stroke="black" stroke-width="0.5" width="2.0" x="284.0" y="54.0" /><rect fill="white" height="5.5" stroke="black" stroke-width="0.5" width="5.5" x="292.3" y="52.3" /><rect fill="white" height="2.5" stroke="black" stroke-width="0.5" width="2.5" x="303.8" y="53.8" /><rect fill="white" height="3.4" stroke="black" stroke-width="0.5" width="3.4" x="313.3" y="53.3" /><rect fill="white" height="2.3" stroke="black" stroke-width="0.5" width="2.3" x="323.9" y="53.9" /><rect fill="black" height="6.2" stroke="none" stroke-width="0" width="6.2" x="331.9" y="51.9" /><rect fill="white" height="7.5" stroke="black" stroke-width="0.5" width="7.5" x="341.3" y="51.3" /><rect fill="black" height="4.8" stroke="none" stroke-width="0" width="4.8" x="352.6" y="52.6" /><rect fill="white" height="5.7" stroke="black" stroke-width="0.5" width="5.7" x="362.1" y="52.1" /><rect fill="white" height="5.4" stroke="black" stroke-width="0.5" width="5.4" x="2.3" y="62.3" /><rect fill="black" height="7.0" stroke="none" stroke-width="0" width="7.0" x="11.5" y="61.5" /><rect fill="black" height="6.8" stroke="none" stroke-width="0" width="6.8" x="21.6" y="61.6" /><rect fill="black" height="5.5" stroke="none" stroke-width="0" width="5.5" x="32.2" y="62.2" /><rect fill="black" height="2.0" stroke="none" stroke-width="0" width="2.0" x="44.0" y="64.0" /><rect fill="black" height="2.4" stroke="none" stroke-width="0" width="2.4" x="53.8" y="63.8" /><rect fill="white" height="4.0" stroke="black" stroke-width="0.5" width="4.0" x="63.0" y="63.0" /><rect fill="black" height="3.9" stroke="none" stroke-width="0" width="3.9" x="73.0" y="63.0" /><rect fill="black" height="6.6" stroke="none" stroke-width="0" width="6.6" x="81.7" y="61.7" /><rect fill="black" height="2.0" stroke="none" stroke-width="0" width="2.0" x="94.0" y="64.0" /><rect fill="white" height="2.2" stroke="black" stroke-width="0.5" width="2.2" x="103.9" y="63.9" /><rect fill="white" height="2.0" stroke="black" stroke-width="0.5" width="2.0" x="114.0" y="64.0" /><rect fill="black" height="2.0" stroke="none" stroke-width="0" width="2.0" x="124.0" y="64.0" /><rect fill="black" height="2.0" stroke="none" stroke-width="0" width="2.0" x="134.0" y="64.0" /><rect fill="white" height="5.3" stroke="black" stroke-width="0.5" width="5.3" x="142.3" y="62.3" /><rect fill="black" height="3.5" stroke="none" stroke-width="0" width="3.5" x="153.2" y="63.2" /><rect fill="black" height="6.3" stroke="none" stroke-width="0" width="6.3" x="161.8" y="61.8" /><rect fill="black" height="6.3" stroke="none" stroke-width="0" width="6.3" x="171.8" y="61.8" /><rect fill="black" height="5.5" stroke="none" stroke-width="0" width="5.5" x="182.2" y="62.2" /><rect fill="black" height="8.7" stroke="none" stroke-width="0" width="8.7" x="190.7" y="60.7" /><rect fill="black" height="2.9" stroke="none" stroke-width="0" width="2.9" x="203.5" y="63.5" /><rect fill="black" height="5.1" stroke="none" stroke-width="0" width="5.1" x="212.4" y="62.4" /><rect fill="black" height="3.9" stroke="none" stroke-width="0" width="3.9" x="223.0" y="63.0" /><rect fill="black" height="3.5" stroke="none" stroke-width="0" width="3.5" x="233.3" y="63.3" /><rect fill="white" height="4.1" stroke="black" stroke-width="0.5" width="4.1" x="243.0" y="63.0" /><rect fill="black" height="4.2" stroke="none" stroke-width="0" width="4.2" x="252.9" y="62.9" /><rect fill="white" height="5.5" stroke="black" stroke-width="0.5" width="5.5" x="262.3" y="62.3" /><rect fill="white" height="5.7" stroke="black" stroke-width="0.5" width="5.7" x="272.2" y="62.2" /><rect fill="white" height="5.9" stroke="black" stroke-width="0.5" width="5.9" x="282.1" y="62.1" /><rect fill="white" height="5.6" stroke="black" stroke-width="0.5" width="5.6" x="292.2" y="62.2" /><rect fill="white" height="6.0" stroke="black" stroke-width="0.5" width="6.0" x="302.0" y="62.0" /><rect fill="black" height="3.1" stroke="none" stroke-width="0" width="3.1" x="313.5" y="63.5" /><rect fill="black" height="2.4" stroke="none" stroke-width="0" width="2.4" x="323.8" y="63.8" /><rect fill="black" height="5.9" stroke="none" stroke-width="0" width="5.9" x="332.1" y="62.1" /><rect fill="black" height="4.6" stroke="none" stroke-width="0" width="4.6" x="342.7" y="62.7" /><rect fill="white" height="3.6" stroke="black" stroke-width="0.5" width="3.6" x="353.2" y="63.2" /><rect fill="white" height="3.0" stroke="black" stroke-width="0.5" width="3.0" x="363.5" y="63.5" /><rect fill="black" height="2.3" stroke="none" stroke-width="0" width="2.3" x="3.8" y="73.8" /><rect fill="white" height="4.1" stroke="black" stroke-width="0.5" width="4.1" x="12.9" y="72.9" /><rect fill="black" height="7.6" stroke="none" stroke-width="0" width="7.6" x="21.2" y="71.2" /><rect fill="black" height="4.2" stroke="none" stroke-width="0" width="4.2" x="32.9" y="72.9" /><rect fill="white" height="2.7" stroke="black" stroke-width="0.5" width="2.7" x="43.6" y="73.6" /><rect fill="white" height="4.8" stroke="black" stroke-width="0.5" width="4.8" x="52.6" y="72.6" /><rect fill="white" height="2.0" stroke="black" stroke-width="0.5" width="2.0" x="64.0" y="74.0" /><rect fill="black" height="7.0" stroke="none" stroke-width="0" width="7.0" x="71.5" y="71.5" /><rect fill="white" height="6.2" stroke="black" stroke-width="0.5" width="6.2" x="81.9" y="71.9" /><rect fill="black" height="7.0" stroke="none" stroke-width="0" width="7.0" x="91.5" y="71.5" /><rect fill="white" height="2.8" stroke="black" stroke-width="0.5" width="2.8" x="103.6" y="73.6" /><rect fill="white" height="6.4" stroke="black" stroke-width="0.5" width="6.4" x="111.8" y="71.8" /><rect fill="black" height="3.2" stroke="none" stroke-width="0" width="3.2" x="123.4" y="73.4" /><rect fill="white" height="3.7" stroke="black" stroke-width="0.5" width="3.7" x="133.1" y="73.1" /><rect fill="black" height="5.5" stroke="none" stroke-width="0" width="5.5" x="142.3" y="72.3" /><rect fill="black" height="6.6" stroke="none" stroke-width="0" width="6.6" x="151.7" y="71.7" /><rect fill="white" height="2.0" stroke="black" stroke-width="0.5" width="2.0" x="164.0" y="74.0" /><rect fill="black" height="2.0" stroke="none" stroke-width="0" width="2.0" x="174.0" y="74.0" /><rect fill="black" height="3.8" stroke="none" stroke-width="0" width="3.8" x="183.1" y="73.1" /><rect fill="white" height="2.0" stroke="black" stroke-width="0.5" width="2.0" x="194.0" y="74.0" /><rect fill="white" height="6.9" stroke="black" stroke-width="0.5" width="6.9" x="201.6" y="71.6" /><rect fill="black" height="2.8" stroke="none" stroke-width="0" width="2.8" x="213.6" y="73.6" /><rect fill="black" height="2.0" stroke="none" stroke-width="0" width="2.0" x="224.0" y="74.0" /><rect fill="black" height="6.7" stroke="none" stroke-width="0" width="6.7" x="231.7" y="71.7" /><rect fill="black" height="3.1" stroke="none" stroke-width="0" width="3.1" x="243.5" y="73.5" /><rect fill="white" height="4.9" stroke="black" stroke-width="0.5" width="4.9" x="252.5" y="72.5" /><rect fill="black" height="8.0" stroke="none" stroke-width="0" width="8.0" x="261.0" y="71.0" /><rect fill="black" height="2.0" stroke="none" stroke-width="0" width="2.0" x="274.0" y="74.0" /><rect fill="white" height="4.4" stroke="black" stroke-width="0.5" width="4.4" x="282.8" y="72.8" /><rect fill="black" height="3.7" stroke="none" stroke-width="0" width="3.7" x="293.2" y="73.2" /><rect fill="black" height="3.8" stroke="none" stroke-width="0" width="3.8" x="303.1" y="73.1" /><rect fill="black" height="4.0" stroke="none" stroke-width="0" width="4.0" x="313.0" y="73.0" /><rect fill="black" height="4.7" stroke="none" stroke-width="0" width="4.7" x="322.6" y="72.6" /><rect fill="black" height="5.0" stroke="none" stroke-width="0" width="5.0" x="332.5" y="72.5" /><rect fill="black" height="5.2" stroke="none" stroke-width="0" width="5.2" x="342.4" y="72.4" /><rect fill="black" height="3.1" stroke="none" stroke-width="0" width="3.1" x="353.4" y="73.4" /><rect fill="black" height="5.1" stroke="none" stroke-width="0" width="5.1" x="362.4" y="72.4" /><rect fill="white" height="5.3" stroke="black" stroke-width="0.5" width="5.3" x="2.3" y="82.3" /><rect fill="black" height="6.5" stroke="none" stroke-width="0" width="6.5" x="11.7" y="81.7" /><rect fill="white" height="3.0" stroke="black" stroke-width="0.5" width="3.0" x="23.5" y="83.5" /><rect fill="black" height="5.2" stroke="none" stroke-width="0" width="5.2" x="32.4" y="82.4" /><rect fill="white" height="2.0" stroke="black" stroke-width="0.5" width="2.0" x="44.0" y="84.0" /><rect fill="black" height="2.7" stroke="none" stroke-width="0" width="2.7" x="53.6" y="83.6" /><rect fill="black" height="6.3" stroke="none" stroke-width="0" width="6.3" x="61.8" y="81.8" /><rect fill="white" height="2.2" stroke="black" stroke-width="0.5" width="2.2" x="73.9" y="83.9" /><rect fill="black" height="7.2" stroke="none" stroke-width="0" width="7.2" x="81.4" y="81.4" /><rect fill="black" height="5.1" stroke="none" stroke-width="0" width="5.1" x="92.5" y="82.5" /><rect fill="white" height="2.0" stroke="black" stroke-width="0.5" width="2.0" x="104.0" y="84.0" /><rect fill="black" height="2.0" stroke="none" stroke-width="0" width="2.0" x="114.0" y="84.0" /><rect fill="white" height="6.9" stroke="black" stroke-width="0.5" width="6.9" x="121.5" y="81.5" /><rect fill="white" height="2.9" stroke="black" stroke-width="0.5" width="2.9" x="133.6" y="83.6" /><rect fill="white" height="3.6" stroke="black" stroke-width="0.5" width="3.6" x="143.2" y="83.2" /><rect fill="black" height="2.7" stroke="none" stroke-width="0" width="2.7" x="153.6" y="83.6" /><rect fill="white" height="2.0" stroke="black" stroke-width="0.5" width="2.0" x="164.0" y="84.0" /><rect fill="white" height="3.1" stroke="black" stroke-width="0.5" width="3.1" x="173.4" y="83.4" /><rect fill="white" height="3.1" stroke="black" stroke-width="0.5" width="3.1" x="183.5" y="83.5" /><rect fill="white" height="5.7" stroke="black" stroke-width="0.5" width="5.7" x="192.1" y="82.1" /><rect fill="white" height="6.9" stroke="black" stroke-width="0.5" width="6.9" x="201.6" y="81.6" /><rect fill="white" height="4.8" stroke="black" stroke-width="0.5" width="4.8" x="212.6" y="82.6" /><rect fill="white" height="6.7" stroke="black" stroke-width="0.5" width="6.7" x="221.7" y="81.7" /><rect fill="black" height="5.5" stroke="none" stroke-width="0" width="5.5" x="232.2" y="82.2" /><rect fill="white" height="8.3" stroke="black" stroke-width="0.5" width="8.3" x="240.8" y="80.8" /><rect fill="black" height="2.7" stroke="none" stroke-width="0" width="2.7" x="253.7" y="83.7" /><rect fill="black" height="6.1" stroke="none" stroke-width="0" width="6.1" x="262.0" y="82.0" /><rect fill="black" height="3.1" stroke="none" stroke-width="0" width="3.1" x="273.5" y="83.5" /><rect fill="black" height="5.5" stroke="none" stroke-width="0" width="5.5" x="282.3" y="82.3" /><rect fill="white" height="5.0" stroke="black" stroke-width="0.5" width="5.0" x="292.5" y="82.5" /><rect fill="white" height="3.2" stroke="black" stroke-width="0.5" width="3.2" x="303.4" y="83.4" /><rect fill="white" height="5.3" stroke="black" stroke-width="0.5" width="5.3" x="312.4" y="82.4" /><rect fill="white" height="5.9" stroke="black" stroke-width="0.5" width="5.9" x="322.1" y="82.1" /><rect fill="white" height="3.7" stroke="black" stroke-width="0.5" width="3.7" x="333.1" y="83.1" /><rect fill="black" height="2.0" stroke="none" stroke-width="0" width="2.0" x="344.0" y="84.0" /><rect fill="white" height="4.4" stroke="black" stroke-width="0.5" width="4.4" x="352.8" y="82.8" /><rect fill="black" height="4.1" stroke="none" stroke-width="0" width="4.1" x="363.0" y="83.0" /><rect fill="black" height="2.0" stroke="none" stroke-width="0" width="2.0" x="4.0" y="94.0" /><rect fill="white" height="2.3" stroke="black" stroke-width="0.5" width="2.3" x="13.8" y="93.8" /><rect fill="white" height="2.8" stroke="black" stroke-width="0.5" width="2.8" x="23.6" y="93.6" /><rect fill="white" height="5.1" stroke="black" stroke-width="0.5" width="5.1" x="32.5" y="92.5" /><rect fill="white" height="2.0" stroke="black" stroke-width="0.5" width="2.0" x="44.0" y="94.0" /><rect fill="white" height="2.8" stroke="black" stroke-width="0.5" width="2.8" x="53.6" y="93.6" /><rect fill="white" height="3.2" stroke="black" stroke-width="0.5" width="3.2" x="63.4" y="93.4" /><rect fill="black" height="3.8" stroke="none" stroke-width="0" width="3.8" x="73.1" y="93.1" /><rect fill="white" height="2.7" stroke="black" stroke-width="0.5" width="2.7" x="83.6" y="93.6" /><rect fill="black" height="2.5" stroke="none" stroke-width="0" width="2.5" x="93.7" y="93.7" /><rect fill="black" height="6.6" stroke="none" stroke-width="0" width="6.6" x="101.7" y="91.7" /><rect fill="black" height="2.0" stroke="none" stroke-width="0" width="2.0" x="114.0" y="94.0" /><rect fill="black" height="5.7" stroke="none" stroke-width="0" width="5.7" x="122.2" y="92.2" /><rect fill="black" height="7.8" stroke="none" stroke-width="0" width="7.8" x="131.1" y="91.1" /><rect fill="black" height="3.5" stroke="none" stroke-width="0" width="3.5" x="143.3" y="93.3" /><rect fill="white" height="5.2" stroke="black" stroke-width="0.5" width="5.2" x="152.4" y="92.4" /><rect fill="white" height="2.6" stroke="black" stroke-width="0.5" width="2.6" x="163.7" y="93.7" /><rect fill="white" height="3.0" stroke="black" stroke-width="0.5" width="3.0" x="173.5" y="93.5" /><rect fill="black" height="4.1" stroke="none" stroke-width="0" width="4.1" x="183.0" y="93.0" /><rect fill="black" height="5.9" stroke="none" stroke-width="0" width="5.9" x="192.1" y="92.1" /><rect fill="black" height="5.5" stroke="none" stroke-width="0" width="5.5" x="202.3" y="92.3" /><rect fill="white" height="3.2" stroke="black" stroke-width="0.5" width="3.2" x="213.4" y="93.4" /><rect fill="white" height="3.5" stroke="black" stroke-width="0.5" width="3.5" x="223.3" y="93.3" /><rect fill="black" height="5.9" stroke="none" stroke-width="0" width="5.9" x="232.1" y="92.1" /><rect fill="white" height="5.9" stroke="black" stroke-width="0.5" width="5.9" x="242.1" y="92.1" /><rect fill="black" height="4.9" stroke="none" stroke-width="0" width="4.9" x="252.5" y="92.5" /><rect fill="black" height="4.5" stroke="none" stroke-width="0" width="4.5" x="262.8" y="92.8" /><rect fill="black" height="6.4" stroke="none" stroke-width="0" width="6.4" x="271.8" y="91.8" /><rect fill="white" height="6.4" stroke="black" stroke-width="0.5" width="6.4" x="281.8" y="91.8" /><rect fill="black" height="5.6" stroke="none" stroke-width="0" width="5.6" x="292.2" y="92.2" /><rect fill="white" height="4.3" stroke="black" stroke-width="0.5" width="4.3" x="302.9" y="92.9" /><rect fill="white" height="7.0" stroke="black" stroke-width="0.5" width="7.0" x="311.5" y="91.5" /><rect fill="white" height="7.9" stroke="black" stroke-width="0.5" width="7.9" x="321.1" y="91.1" /><rect fill="black" height="5.6" stroke="none" stroke-width="0" width="5.6" x="332.2" y="92.2" /><rect fill="white" height="3.1" stroke="black" stroke-width="0.5" width="3.1" x="343.5" y="93.5" /><rect fill="black" height="5.5" stroke="none" stroke-width="0" width="5.5" x="352.2" y="92.2" /><rect fill="black" height="5.4" stroke="none" stroke-width="0" width="5.4" x="362.3" y="92.3" /></g><g /></svg>