<?xml version="1.0" encoding="utf-8" ?>
<svg baseProfile="full" height="100%" preserveAspectRatio="xMidYMid meet" version="1.1" viewBox="-20,-20,410,50" width="100%" xmlns="http://www.w3.org/2000/svg" xmlns:ev="http://www.w3.org/2001/xml-events" xmlns:xlink="http://www.w3.org/1999/xlink"><defs><style type="text/css"><![CDATA[
        @import url(https://cdn.jsdelivr.net/npm/firacode@6.2.0/distr/fira_code.css);
        text { font-family: 'Fira Code', monospace; }
    ]]></style></defs><g><rect fill="black" height="8.0" stroke="none" stroke-width="0" width="8.0" x="1.0" y="1.0" /><rect fill="black" height="7.0" stroke="none" stroke-width="0" width="7.0" x="11.5" y="1.5" /><rect fill="black" height="5.7" stroke="none" stroke-width="0" width="5.7" x="22.1" y="2.1" /><rect fill="black" height="4.3" stroke="none" stroke-width="0" width="4.3" x="32.9" y="2.9" /><rect fill="black" height="3.5" stroke="none" stroke-width="0" width="3.5" x="43.2" y="3.2" /><rect fill="black" height="3.2" stroke="none" stroke-width="0" width="3.2" x="53.4" y="3.4" /><rect fill="black" height="2.7" stroke="none" stroke-width="0" width="2.7" x="63.6" y="3.6" /><rect fill="black" height="2.5" stroke="none" stroke-width="0" width="2.5" x="73.7" y="3.7" /><rect fill="black" height="2.4" stroke="none" stroke-width="0" width="2.4" x="83.8" y="3.8" /><rect fill="black" height="2.4" stroke="none" stroke-width="0" width="2.4" x="93.8" y="3.8" /><rect fill="black" height="2.2" stroke="none" stroke-width="0" width="2.2" x="103.9" y="3.9" /><rect fill="black" height="1.9" stroke="none" stroke-width="0" width="1.9" x="114.0" y="4.0" /><rect fill="black" height="1.8" stroke="none" stroke-width="0" width="1.8" x="124.1" y="4.1" /><rect fill="black" height="1.8" stroke="none" stroke-width="0" width="1.8" x="134.1" y="4.1" /><rect fill="black" height="1.8" stroke="none" stroke-width="0" width="1.8" x="144.1" y="4.1" /><rect fill="black" height="1.8" stroke="none" stroke-width="0" width="1.8" x="154.1" y="4.1" /><rect fill="black" height="1.8" stroke="none" stroke-width="0" width="1.8" x="164.1" y="4.1" /><rect fill="black" height="1.8" stroke="none" stroke-width="0" width="1.8" x="174.1" y="4.1" /><rect fill="black" height="1.8" stroke="none" stroke-width="0" width="1.8" x="184.1" y="4.1" /><rect fill="black" height="1.8" stroke="none" stroke-width="0" width="1.8" x="194.1" y="4.1" /><rect fill="black" height="1.8" stroke="none" stroke-width="0" width="1.8" x="204.1" y="4.1" /><rect fill="black" height="1.8" stroke="none" stroke-width="0" width="1.8" x="214.1" y="4.1" /><rect fill="black" height="1.8" stroke="none" stroke-width="0" width="1.8" x="224.1" y="4.1" /><rect fill="black" height="1.8" stroke="none" stroke-width="0" width="1.8" x="234.1" y="4.1" /><rect fill="black" height="1.8" stroke="none" stroke-width="0" width="1.8" x="244.1" y="4.1" /><rect fill="black" height="1.8" stroke="none" stroke-width="0" width="1.8" x="254.1" y="4.1" /><rect fill="black" height="1.8" stroke="none" stroke-width="0" width="1.8" x="264.1" y="4.1" /><rect fill="black" height="1.8" stroke="none" stroke-width="0" width="1.8" x="274.1" y="4.1" /><rect fill="black" height="1.8" stroke="none" stroke-width="0" width="1.8" x="284.1" y="4.1" /><rect fill="black" height="1.8" stroke="none" stroke-width="0" width="1.8" x="294.1" y="4.1" /><rect fill="black" height="1.8" stroke="none" stroke-width="0" width="1.8" x="304.1" y="4.1" /><rect fill="black" height="1.8" stroke="none" stroke-width="0" width="1.8" x="314.1" y="4.1" /><rect fill="black" height="1.8" stroke="none" stroke-width="0" width="1.8" x="324.1" y="4.1" /><rect fill="black" height="1.8" stroke="none" stroke-width="0" width="1.8" x="334.1" y="4.1" /><rect fill="black" height="1.8" stroke="none" stroke-width="0" width="1.8" x="344.1" y="4.1" /><rect fill="black" height="1.8" stroke="none" stroke-width="0" width="1.8" x="354.1" y="4.1" /><rect fill="black" height="1.8" stroke="none" stroke-width="0" width="1.8" x="364.1" y="4.1" /></g><g><line stroke="black" stroke-width="0.5" x1="25.0" x2="25.0" y1="14.0" y2="17.0" /><text dominant-baseline="middle" font-size="6px" text-anchor="middle" x="25.0" y="23.0">0.5</text><line stroke="black" stroke-width="0.5" x1="95.0" x2="95.0" y1="14.0" y2="17.0" /><text dominant-baseline="middle" font-size="6px" text-anchor="middle" x="95.0" y="23.0">0.75</text><line stroke="black" stroke-width="0.5" x1="365.0" x2="365.0" y1="14.0" y2="17.0" /><text dominant-baseline="middle" font-size="6px" text-anchor="middle" x="365.0" y="23.0">0.9</text></g></svg>