<?xml version="1.0" encoding="utf-8" ?>
<svg baseProfile="full" height="100%" preserveAspectRatio="xMidYMid meet" version="1.1" viewBox="-20,-20,470,140" width="100%" xmlns="http://www.w3.org/2000/svg" xmlns:ev="http://www.w3.org/2001/xml-events" xmlns:xlink="http://www.w3.org/1999/xlink"><defs><style type="text/css"><![CDATA[
        @import url(https://cdn.jsdelivr.net/npm/firacode@6.2.0/distr/fira_code.css);
        text { font-family: 'Fira Code', monospace; }
    ]]></style></defs><g><rect fill="white" height="3.8" stroke="black" stroke-width="0.5" width="3.8" x="3.1" y="3.1" /><rect fill="black" height="4.3" stroke="none" stroke-width="0" width="4.3" x="12.9" y="2.9" /><rect fill="white" height="3.9" stroke="black" stroke-width="0.5" width="3.9" x="23.1" y="3.1" /><rect fill="black" height="2.2" stroke="none" stroke-width="0" width="2.2" x="33.9" y="3.9" /><rect fill="black" height="4.8" stroke="none" stroke-width="0" width="4.8" x="42.6" y="2.6" /><rect fill="white" height="5.5" stroke="black" stroke-width="0.5" width="5.5" x="52.2" y="2.2" /><rect fill="white" height="4.6" stroke="black" stroke-width="0.5" width="4.6" x="62.7" y="2.7" /><rect fill="black" height="2.7" stroke="none" stroke-width="0" width="2.7" x="73.6" y="3.6" /><rect fill="black" height="3.4" stroke="none" stroke-width="0" width="3.4" x="83.3" y="3.3" /><rect fill="white" height="4.7" stroke="black" stroke-width="0.5" width="4.7" x="92.7" y="2.7" /><rect fill="black" height="6.8" stroke="none" stroke-width="0" width="6.8" x="101.6" y="1.6" /><rect fill="white" height="2.7" stroke="black" stroke-width="0.5" width="2.7" x="113.7" y="3.7" /><rect fill="black" height="2.1" stroke="none" stroke-width="0" width="2.1" x="123.9" y="3.9" /><rect fill="black" height="2.6" stroke="none" stroke-width="0" width="2.6" x="133.7" y="3.7" /><rect fill="white" height="2.6" stroke="black" stroke-width="0.5" width="2.6" x="143.7" y="3.7" /><rect fill="black" height="4.2" stroke="none" stroke-width="0" width="4.2" x="152.9" y="2.9" /><rect fill="black" height="2.9" stroke="none" stroke-width="0" width="2.9" x="163.6" y="3.6" /><rect fill="white" height="2.0" stroke="black" stroke-width="0.5" width="2.0" x="174.0" y="4.0" /><rect fill="white" height="2.0" stroke="black" stroke-width="0.5" width="2.0" x="184.0" y="4.0" /><rect fill="black" height="2.4" stroke="none" stroke-width="0" width="2.4" x="193.8" y="3.8" /><rect fill="white" height="7.5" stroke="black" stroke-width="0.5" width="7.5" x="201.2" y="1.2" /><rect fill="black" height="3.2" stroke="none" stroke-width="0" width="3.2" x="213.4" y="3.4" /><rect fill="black" height="3.8" stroke="none" stroke-width="0" width="3.8" x="223.1" y="3.1" /><rect fill="white" height="2.0" stroke="black" stroke-width="0.5" width="2.0" x="234.0" y="4.0" /><rect fill="black" height="5.1" stroke="none" stroke-width="0" width="5.1" x="242.5" y="2.5" /><rect fill="white" height="6.7" stroke="black" stroke-width="0.5" width="6.7" x="251.7" y="1.7" /><rect fill="black" height="4.2" stroke="none" stroke-width="0" width="4.2" x="262.9" y="2.9" /><rect fill="white" height="2.0" stroke="black" stroke-width="0.5" width="2.0" x="274.0" y="4.0" /><rect fill="black" height="4.3" stroke="none" stroke-width="0" width="4.3" x="282.9" y="2.9" /><rect fill="white" height="2.3" stroke="black" stroke-width="0.5" width="2.3" x="293.8" y="3.8" /><rect fill="white" height="3.0" stroke="black" stroke-width="0.5" width="3.0" x="303.5" y="3.5" /><rect fill="black" height="3.2" stroke="none" stroke-width="0" width="3.2" x="313.4" y="3.4" /><rect fill="white" height="6.8" stroke="black" stroke-width="0.5" width="6.8" x="321.6" y="1.6" /><rect fill="black" height="5.4" stroke="none" stroke-width="0" width="5.4" x="332.3" y="2.3" /><rect fill="white" height="2.0" stroke="black" stroke-width="0.5" width="2.0" x="344.0" y="4.0" /><rect fill="white" height="6.4" stroke="black" stroke-width="0.5" width="6.4" x="351.8" y="1.8" /><rect fill="black" height="6.3" stroke="none" stroke-width="0" width="6.3" x="361.9" y="1.9" /><rect fill="white" height="5.8" stroke="black" stroke-width="0.5" width="5.8" x="372.1" y="2.1" /><rect fill="black" height="6.0" stroke="none" stroke-width="0" width="6.0" x="382.0" y="2.0" /><rect fill="black" height="4.9" stroke="none" stroke-width="0" width="4.9" x="392.5" y="2.5" /><rect fill="black" height="2.7" stroke="none" stroke-width="0" width="2.7" x="403.6" y="3.6" /><rect fill="white" height="2.2" stroke="black" stroke-width="0.5" width="2.2" x="413.9" y="3.9" /><rect fill="white" height="3.6" stroke="black" stroke-width="0.5" width="3.6" x="423.2" y="3.2" /><rect fill="black" height="4.3" stroke="none" stroke-width="0" width="4.3" x="2.9" y="12.9" /><rect fill="white" height="3.1" stroke="black" stroke-width="0.5" width="3.1" x="13.4" y="13.4" /><rect fill="black" height="6.1" stroke="none" stroke-width="0" width="6.1" x="21.9" y="11.9" /><rect fill="white" height="4.8" stroke="black" stroke-width="0.5" width="4.8" x="32.6" y="12.6" /><rect fill="white" height="4.3" stroke="black" stroke-width="0.5" width="4.3" x="42.9" y="12.9" /><rect fill="black" height="9.0" stroke="none" stroke-width="0" width="9.0" x="50.5" y="10.5" /><rect fill="white" height="2.8" stroke="black" stroke-width="0.5" width="2.8" x="63.6" y="13.6" /><rect fill="black" height="2.2" stroke="none" stroke-width="0" width="2.2" x="73.9" y="13.9" /><rect fill="white" height="3.2" stroke="black" stroke-width="0.5" width="3.2" x="83.4" y="13.4" /><rect fill="black" height="4.7" stroke="none" stroke-width="0" width="4.7" x="92.6" y="12.6" /><rect fill="white" height="3.6" stroke="black" stroke-width="0.5" width="3.6" x="103.2" y="13.2" /><rect fill="white" height="2.4" stroke="black" stroke-width="0.5" width="2.4" x="113.8" y="13.8" /><rect fill="black" height="2.0" stroke="none" stroke-width="0" width="2.0" x="124.0" y="14.0" /><rect fill="white" height="5.0" stroke="black" stroke-width="0.5" width="5.0" x="132.5" y="12.5" /><rect fill="white" height="3.7" stroke="black" stroke-width="0.5" width="3.7" x="143.2" y="13.2" /><rect fill="black" height="6.3" stroke="none" stroke-width="0" width="6.3" x="151.8" y="11.8" /><rect fill="white" height="8.0" stroke="black" stroke-width="0.5" width="8.0" x="161.0" y="11.0" /><rect fill="black" height="2.6" stroke="none" stroke-width="0" width="2.6" x="173.7" y="13.7" /><rect fill="black" height="3.0" stroke="none" stroke-width="0" width="3.0" x="183.5" y="13.5" /><rect fill="white" height="3.3" stroke="black" stroke-width="0.5" width="3.3" x="193.3" y="13.3" /><rect fill="white" height="4.4" stroke="black" stroke-width="0.5" width="4.4" x="202.8" y="12.8" /><rect fill="black" height="4.4" stroke="none" stroke-width="0" width="4.4" x="212.8" y="12.8" /><rect fill="white" height="3.1" stroke="black" stroke-width="0.5" width="3.1" x="223.5" y="13.5" /><rect fill="black" height="4.6" stroke="none" stroke-width="0" width="4.6" x="232.7" y="12.7" /><rect fill="black" height="5.4" stroke="none" stroke-width="0" width="5.4" x="242.3" y="12.3" /><rect fill="white" height="3.4" stroke="black" stroke-width="0.5" width="3.4" x="253.3" y="13.3" /><rect fill="white" height="2.0" stroke="black" stroke-width="0.5" width="2.0" x="264.0" y="14.0" /><rect fill="black" height="2.0" stroke="none" stroke-width="0" width="2.0" x="274.0" y="14.0" /><rect fill="white" height="3.6" stroke="black" stroke-width="0.5" width="3.6" x="283.2" y="13.2" /><rect fill="black" height="4.8" stroke="none" stroke-width="0" width="4.8" x="292.6" y="12.6" /><rect fill="white" height="3.4" stroke="black" stroke-width="0.5" width="3.4" x="303.3" y="13.3" /><rect fill="black" height="3.1" stroke="none" stroke-width="0" width="3.1" x="313.5" y="13.5" /><rect fill="white" height="4.9" stroke="black" stroke-width="0.5" width="4.9" x="322.6" y="12.6" /><rect fill="black" height="4.3" stroke="none" stroke-width="0" width="4.3" x="332.8" y="12.8" /><rect fill="white" height="2.8" stroke="black" stroke-width="0.5" width="2.8" x="343.6" y="13.6" /><rect fill="white" height="2.0" stroke="black" stroke-width="0.5" width="2.0" x="354.0" y="14.0" /><rect fill="black" height="4.1" stroke="none" stroke-width="0" width="4.1" x="362.9" y="12.9" /><rect fill="white" height="4.3" stroke="black" stroke-width="0.5" width="4.3" x="372.8" y="12.8" /><rect fill="white" height="4.2" stroke="black" stroke-width="0.5" width="4.2" x="382.9" y="12.9" /><rect fill="black" height="3.6" stroke="none" stroke-width="0" width="3.6" x="393.2" y="13.2" /><rect fill="white" height="2.8" stroke="black" stroke-width="0.5" width="2.8" x="403.6" y="13.6" /><rect fill="black" height="3.0" stroke="none" stroke-width="0" width="3.0" x="413.5" y="13.5" /><rect fill="white" height="4.0" stroke="black" stroke-width="0.5" width="4.0" x="423.0" y="13.0" /><rect fill="white" height="3.6" stroke="black" stroke-width="0.5" width="3.6" x="3.2" y="23.2" /><rect fill="black" height="4.0" stroke="none" stroke-width="0" width="4.0" x="13.0" y="23.0" /><rect fill="black" height="5.5" stroke="none" stroke-width="0" width="5.5" x="22.2" y="22.2" /><rect fill="white" height="3.0" stroke="black" stroke-width="0.5" width="3.0" x="33.5" y="23.5" /><rect fill="white" height="2.9" stroke="black" stroke-width="0.5" width="2.9" x="43.6" y="23.6" /><rect fill="black" height="2.0" stroke="none" stroke-width="0" width="2.0" x="54.0" y="24.0" /><rect fill="white" height="4.5" stroke="black" stroke-width="0.5" width="4.5" x="62.7" y="22.7" /><rect fill="black" height="8.1" stroke="none" stroke-width="0" width="8.1" x="70.9" y="20.9" /><rect fill="black" height="2.0" stroke="none" stroke-width="0" width="2.0" x="84.0" y="24.0" /><rect fill="black" height="2.8" stroke="none" stroke-width="0" width="2.8" x="93.6" y="23.6" /><rect fill="black" height="2.0" stroke="none" stroke-width="0" width="2.0" x="104.0" y="24.0" /><rect fill="white" height="5.2" stroke="black" stroke-width="0.5" width="5.2" x="112.4" y="22.4" /><rect fill="black" height="3.9" stroke="none" stroke-width="0" width="3.9" x="123.1" y="23.1" /><rect fill="black" height="2.1" stroke="none" stroke-width="0" width="2.1" x="133.9" y="23.9" /><rect fill="black" height="4.3" stroke="none" stroke-width="0" width="4.3" x="142.9" y="22.9" /><rect fill="white" height="5.9" stroke="black" stroke-width="0.5" width="5.9" x="152.1" y="22.1" /><rect fill="white" height="3.4" stroke="black" stroke-width="0.5" width="3.4" x="163.3" y="23.3" /><rect fill="white" height="2.3" stroke="black" stroke-width="0.5" width="2.3" x="173.9" y="23.9" /><rect fill="white" height="2.0" stroke="black" stroke-width="0.5" width="2.0" x="184.0" y="24.0" /><rect fill="black" height="7.5" stroke="none" stroke-width="0" width="7.5" x="191.3" y="21.3" /><rect fill="white" height="2.7" stroke="black" stroke-width="0.5" width="2.7" x="203.7" y="23.7" /><rect fill="white" height="3.1" stroke="black" stroke-width="0.5" width="3.1" x="213.4" y="23.4" /><rect fill="black" height="3.7" stroke="none" stroke-width="0" width="3.7" x="223.1" y="23.1" /><rect fill="white" height="6.1" stroke="black" stroke-width="0.5" width="6.1" x="231.9" y="21.9" /><rect fill="black" height="6.3" stroke="none" stroke-width="0" width="6.3" x="241.9" y="21.9" /><rect fill="black" height="5.7" stroke="none" stroke-width="0" width="5.7" x="252.2" y="22.2" /><rect fill="black" height="2.1" stroke="none" stroke-width="0" width="2.1" x="264.0" y="24.0" /><rect fill="white" height="4.8" stroke="black" stroke-width="0.5" width="4.8" x="272.6" y="22.6" /><rect fill="white" height="2.0" stroke="black" stroke-width="0.5" width="2.0" x="284.0" y="24.0" /><rect fill="black" height="2.0" stroke="none" stroke-width="0" width="2.0" x="294.0" y="24.0" /><rect fill="black" height="4.8" stroke="none" stroke-width="0" width="4.8" x="302.6" y="22.6" /><rect fill="black" height="3.3" stroke="none" stroke-width="0" width="3.3" x="313.4" y="23.4" /><rect fill="white" height="5.1" stroke="black" stroke-width="0.5" width="5.1" x="322.5" y="22.5" /><rect fill="white" height="6.0" stroke="black" stroke-width="0.5" width="6.0" x="332.0" y="22.0" /><rect fill="white" height="3.9" stroke="black" stroke-width="0.5" width="3.9" x="343.0" y="23.0" /><rect fill="black" height="4.3" stroke="none" stroke-width="0" width="4.3" x="352.8" y="22.8" /><rect fill="black" height="5.4" stroke="none" stroke-width="0" width="5.4" x="362.3" y="22.3" /><rect fill="black" height="3.4" stroke="none" stroke-width="0" width="3.4" x="373.3" y="23.3" /><rect fill="white" height="3.9" stroke="black" stroke-width="0.5" width="3.9" x="383.0" y="23.0" /><rect fill="white" height="3.5" stroke="black" stroke-width="0.5" width="3.5" x="393.2" y="23.2" /><rect fill="black" height="5.5" stroke="none" stroke-width="0" width="5.5" x="402.3" y="22.3" /><rect fill="black" height="2.0" stroke="none" stroke-width="0" width="2.0" x="414.0" y="24.0" /><rect fill="black" height="3.2" stroke="none" stroke-width="0" width="3.2" x="423.4" y="23.4" /><rect fill="black" height="3.7" stroke="none" stroke-width="0" width="3.7" x="3.2" y="33.2" /><rect fill="white" height="5.3" stroke="black" stroke-width="0.5" width="5.3" x="12.3" y="32.3" /><rect fill="white" height="4.0" stroke="black" stroke-width="0.5" width="4.0" x="23.0" y="33.0" /><rect fill="white" height="2.4" stroke="black" stroke-width="0.5" width="2.4" x="33.8" y="33.8" /><rect fill="white" height="3.4" stroke="black" stroke-width="0.5" width="3.4" x="43.3" y="33.3" /><rect fill="white" height="4.2" stroke="black" stroke-width="0.5" width="4.2" x="52.9" y="32.9" /><rect fill="white" height="5.5" stroke="black" stroke-width="0.5" width="5.5" x="62.3" y="32.3" /><rect fill="black" height="4.1" stroke="none" stroke-width="0" width="4.1" x="73.0" y="33.0" /><rect fill="black" height="2.0" stroke="none" stroke-width="0" width="2.0" x="84.0" y="34.0" /><rect fill="black" height="4.5" stroke="none" stroke-width="0" width="4.5" x="92.8" y="32.8" /><rect fill="black" height="3.7" stroke="none" stroke-width="0" width="3.7" x="103.2" y="33.2" /><rect fill="white" height="6.6" stroke="black" stroke-width="0.5" width="6.6" x="111.7" y="31.7" /><rect fill="black" height="3.2" stroke="none" stroke-width="0" width="3.2" x="123.4" y="33.4" /><rect fill="black" height="4.6" stroke="none" stroke-width="0" width="4.6" x="132.7" y="32.7" /><rect fill="black" height="3.1" stroke="none" stroke-width="0" width="3.1" x="143.5" y="33.5" /><rect fill="black" height="3.7" stroke="none" stroke-width="0" width="3.7" x="153.1" y="33.1" /><rect fill="white" height="3.6" stroke="black" stroke-width="0.5" width="3.6" x="163.2" y="33.2" /><rect fill="white" height="3.0" stroke="black" stroke-width="0.5" width="3.0" x="173.5" y="33.5" /><rect fill="black" height="5.0" stroke="none" stroke-width="0" width="5.0" x="182.5" y="32.5" /><rect fill="white" height="2.0" stroke="black" stroke-width="0.5" width="2.0" x="194.0" y="34.0" /><rect fill="white" height="2.2" stroke="black" stroke-width="0.5" width="2.2" x="203.9" y="33.9" /><rect fill="white" height="2.9" stroke="black" stroke-width="0.5" width="2.9" x="213.6" y="33.6" /><rect fill="white" height="6.6" stroke="black" stroke-width="0.5" width="6.6" x="221.7" y="31.7" /><rect fill="black" height="3.0" stroke="none" stroke-width="0" width="3.0" x="233.5" y="33.5" /><rect fill="white" height="3.4" stroke="black" stroke-width="0.5" width="3.4" x="243.3" y="33.3" /><rect fill="black" height="2.0" stroke="none" stroke-width="0" width="2.0" x="254.0" y="34.0" /><rect fill="white" height="3.4" stroke="black" stroke-width="0.5" width="3.4" x="263.3" y="33.3" /><rect fill="black" height="2.0" stroke="none" stroke-width="0" width="2.0" x="274.0" y="34.0" /><rect fill="black" height="5.5" stroke="none" stroke-width="0" width="5.5" x="282.3" y="32.3" /><rect fill="white" height="3.9" stroke="black" stroke-width="0.5" width="3.9" x="293.0" y="33.0" /><rect fill="black" height="5.3" stroke="none" stroke-width="0" width="5.3" x="302.3" y="32.3" /><rect fill="white" height="7.2" stroke="black" stroke-width="0.5" width="7.2" x="311.4" y="31.4" /><rect fill="white" height="2.2" stroke="black" stroke-width="0.5" width="2.2" x="323.9" y="33.9" /><rect fill="black" height="6.4" stroke="none" stroke-width="0" width="6.4" x="331.8" y="31.8" /><rect fill="white" height="5.7" stroke="black" stroke-width="0.5" width="5.7" x="342.1" y="32.1" /><rect fill="black" height="7.2" stroke="none" stroke-width="0" width="7.2" x="351.4" y="31.4" /><rect fill="white" height="3.3" stroke="black" stroke-width="0.5" width="3.3" x="363.4" y="33.4" /><rect fill="white" height="6.2" stroke="black" stroke-width="0.5" width="6.2" x="371.9" y="31.9" /><rect fill="black" height="2.3" stroke="none" stroke-width="0" width="2.3" x="383.8" y="33.8" /><rect fill="white" height="3.1" stroke="black" stroke-width="0.5" width="3.1" x="393.4" y="33.4" /><rect fill="white" height="2.5" stroke="black" stroke-width="0.5" width="2.5" x="403.8" y="33.8" /><rect fill="white" height="5.2" stroke="black" stroke-width="0.5" width="5.2" x="412.4" y="32.4" /><rect fill="black" height="4.9" stroke="none" stroke-width="0" width="4.9" x="422.5" y="32.5" /><rect fill="white" height="4.5" stroke="black" stroke-width="0.5" width="4.5" x="2.8" y="42.8" /><rect fill="black" height="4.2" stroke="none" stroke-width="0" width="4.2" x="12.9" y="42.9" /><rect fill="white" height="3.0" stroke="black" stroke-width="0.5" width="3.0" x="23.5" y="43.5" /><rect fill="black" height="4.4" stroke="none" stroke-width="0" width="4.4" x="32.8" y="42.8" /><rect fill="black" height="2.0" stroke="none" stroke-width="0" width="2.0" x="44.0" y="44.0" /><rect fill="black" height="4.0" stroke="none" stroke-width="0" width="4.0" x="53.0" y="43.0" /><rect fill="white" height="2.2" stroke="black" stroke-width="0.5" width="2.2" x="63.9" y="43.9" /><rect fill="black" height="2.7" stroke="none" stroke-width="0" width="2.7" x="73.7" y="43.7" /><rect fill="black" height="4.7" stroke="none" stroke-width="0" width="4.7" x="82.7" y="42.7" /><rect fill="black" height="5.6" stroke="none" stroke-width="0" width="5.6" x="92.2" y="42.2" /><rect fill="white" height="4.2" stroke="black" stroke-width="0.5" width="4.2" x="102.9" y="42.9" /><rect fill="white" height="3.5" stroke="black" stroke-width="0.5" width="3.5" x="113.2" y="43.2" /><rect fill="white" height="4.1" stroke="black" stroke-width="0.5" width="4.1" x="123.0" y="43.0" /><rect fill="black" height="2.0" stroke="none" stroke-width="0" width="2.0" x="134.0" y="44.0" /><rect fill="black" height="4.1" stroke="none" stroke-width="0" width="4.1" x="143.0" y="43.0" /><rect fill="black" height="2.6" stroke="none" stroke-width="0" width="2.6" x="153.7" y="43.7" /><rect fill="white" height="3.6" stroke="black" stroke-width="0.5" width="3.6" x="163.2" y="43.2" /><rect fill="white" height="5.5" stroke="black" stroke-width="0.5" width="5.5" x="172.2" y="42.2" /><rect fill="white" height="2.0" stroke="black" stroke-width="0.5" width="2.0" x="184.0" y="44.0" /><rect fill="black" height="5.4" stroke="none" stroke-width="0" width="5.4" x="192.3" y="42.3" /><rect fill="white" height="2.5" stroke="black" stroke-width="0.5" width="2.5" x="203.7" y="43.7" /><rect fill="black" height="4.8" stroke="none" stroke-width="0" width="4.8" x="212.6" y="42.6" /><rect fill="white" height="4.2" stroke="black" stroke-width="0.5" width="4.2" x="222.9" y="42.9" /><rect fill="white" height="5.4" stroke="black" stroke-width="0.5" width="5.4" x="232.3" y="42.3" /><rect fill="white" height="5.2" stroke="black" stroke-width="0.5" width="5.2" x="242.4" y="42.4" /><rect fill="black" height="4.9" stroke="none" stroke-width="0" width="4.9" x="252.5" y="42.5" /><rect fill="black" height="4.9" stroke="none" stroke-width="0" width="4.9" x="262.5" y="42.5" /><rect fill="black" height="2.6" stroke="none" stroke-width="0" width="2.6" x="273.7" y="43.7" /><rect fill="white" height="3.7" stroke="black" stroke-width="0.5" width="3.7" x="283.1" y="43.1" /><rect fill="white" height="2.6" stroke="black" stroke-width="0.5" width="2.6" x="293.7" y="43.7" /><rect fill="white" height="3.3" stroke="black" stroke-width="0.5" width="3.3" x="303.4" y="43.4" /><rect fill="black" height="7.9" stroke="none" stroke-width="0" width="7.9" x="311.0" y="41.0" /><rect fill="black" height="5.7" stroke="none" stroke-width="0" width="5.7" x="322.1" y="42.1" /><rect fill="black" height="7.2" stroke="none" stroke-width="0" width="7.2" x="331.4" y="41.4" /><rect fill="white" height="6.0" stroke="black" stroke-width="0.5" width="6.0" x="342.0" y="42.0" /><rect fill="white" height="4.6" stroke="black" stroke-width="0.5" width="4.6" x="352.7" y="42.7" /><rect fill="white" height="3.6" stroke="black" stroke-width="0.5" width="3.6" x="363.2" y="43.2" /><rect fill="black" height="2.7" stroke="none" stroke-width="0" width="2.7" x="373.7" y="43.7" /><rect fill="black" height="5.9" stroke="none" stroke-width="0" width="5.9" x="382.0" y="42.0" /><rect fill="white" height="5.1" stroke="black" stroke-width="0.5" width="5.1" x="392.4" y="42.4" /><rect fill="white" height="4.7" stroke="black" stroke-width="0.5" width="4.7" x="402.7" y="42.7" /><rect fill="white" height="4.6" stroke="black" stroke-width="0.5" width="4.6" x="412.7" y="42.7" /><rect fill="white" height="2.4" stroke="black" stroke-width="0.5" width="2.4" x="423.8" y="43.8" /><rect fill="black" height="5.4" stroke="none" stroke-width="0" width="5.4" x="2.3" y="52.3" /><rect fill="white" height="3.7" stroke="black" stroke-width="0.5" width="3.7" x="13.2" y="53.2" /><rect fill="white" height="2.3" stroke="black" stroke-width="0.5" width="2.3" x="23.8" y="53.8" /><rect fill="black" height="4.8" stroke="none" stroke-width="0" width="4.8" x="32.6" y="52.6" /><rect fill="white" height="8.0" stroke="black" stroke-width="0.5" width="8.0" x="41.0" y="51.0" /><rect fill="black" height="3.7" stroke="none" stroke-width="0" width="3.7" x="53.1" y="53.1" /><rect fill="black" height="4.2" stroke="none" stroke-width="0" width="4.2" x="62.9" y="52.9" /><rect fill="white" height="5.9" stroke="black" stroke-width="0.5" width="5.9" x="72.0" y="52.0" /><rect fill="black" height="4.3" stroke="none" stroke-width="0" width="4.3" x="82.8" y="52.8" /><rect fill="white" height="5.0" stroke="black" stroke-width="0.5" width="5.0" x="92.5" y="52.5" /><rect fill="white" height="2.7" stroke="black" stroke-width="0.5" width="2.7" x="103.7" y="53.7" /><rect fill="black" height="2.5" stroke="none" stroke-width="0" width="2.5" x="113.7" y="53.7" /><rect fill="black" height="4.2" stroke="none" stroke-width="0" width="4.2" x="122.9" y="52.9" /><rect fill="black" height="4.6" stroke="none" stroke-width="0" width="4.6" x="132.7" y="52.7" /><rect fill="black" height="2.9" stroke="none" stroke-width="0" width="2.9" x="143.5" y="53.5" /><rect fill="white" height="4.0" stroke="black" stroke-width="0.5" width="4.0" x="153.0" y="53.0" /><rect fill="black" height="2.0" stroke="none" stroke-width="0" width="2.0" x="164.0" y="54.0" /><rect fill="white" height="4.0" stroke="black" stroke-width="0.5" width="4.0" x="173.0" y="53.0" /><rect fill="black" height="3.3" stroke="none" stroke-width="0" width="3.3" x="183.4" y="53.4" /><rect fill="white" height="2.0" stroke="black" stroke-width="0.5" width="2.0" x="194.0" y="54.0" /><rect fill="black" height="4.2" stroke="none" stroke-width="0" width="4.2" x="202.9" y="52.9" /><rect fill="white" height="4.5" stroke="black" stroke-width="0.5" width="4.5" x="212.7" y="52.7" /><rect fill="white" height="3.7" stroke="black" stroke-width="0.5" width="3.7" x="223.1" y="53.1" /><rect fill="black" height="3.1" stroke="none" stroke-width="0" width="3.1" x="233.4" y="53.4" /><rect fill="white" height="4.9" stroke="black" stroke-width="0.5" width="4.9" x="242.5" y="52.5" /><rect fill="black" height="4.1" stroke="none" stroke-width="0" width="4.1" x="252.9" y="52.9" /><rect fill="black" height="5.3" stroke="none" stroke-width="0" width="5.3" x="262.4" y="52.4" /><rect fill="white" height="5.1" stroke="black" stroke-width="0.5" width="5.1" x="272.5" y="52.5" /><rect fill="black" height="4.0" stroke="none" stroke-width="0" width="4.0" x="283.0" y="53.0" /><rect fill="black" height="2.6" stroke="none" stroke-width="0" width="2.6" x="293.7" y="53.7" /><rect fill="black" height="2.3" stroke="none" stroke-width="0" width="2.3" x="303.8" y="53.8" /><rect fill="black" height="5.7" stroke="none" stroke-width="0" width="5.7" x="312.1" y="52.1" /><rect fill="white" height="5.1" stroke="black" stroke-width="0.5" width="5.1" x="322.5" y="52.5" /><rect fill="white" height="4.6" stroke="black" stroke-width="0.5" width="4.6" x="332.7" y="52.7" /><rect fill="white" height="3.6" stroke="black" stroke-width="0.5" width="3.6" x="343.2" y="53.2" /><rect fill="white" height="5.4" stroke="black" stroke-width="0.5" width="5.4" x="352.3" y="52.3" /><rect fill="black" height="6.9" stroke="none" stroke-width="0" width="6.9" x="361.6" y="51.6" /><rect fill="white" height="6.5" stroke="black" stroke-width="0.5" width="6.5" x="371.7" y="51.7" /><rect fill="white" height="2.0" stroke="black" stroke-width="0.5" width="2.0" x="384.0" y="54.0" /><rect fill="black" height="2.0" stroke="none" stroke-width="0" width="2.0" x="394.0" y="54.0" /><rect fill="white" height="2.0" stroke="black" stroke-width="0.5" width="2.0" x="404.0" y="54.0" /><rect fill="white" height="2.5" stroke="black" stroke-width="0.5" width="2.5" x="413.8" y="53.8" /><rect fill="black" height="6.3" stroke="none" stroke-width="0" width="6.3" x="421.8" y="51.8" /><rect fill="white" height="2.1" stroke="black" stroke-width="0.5" width="2.1" x="4.0" y="64.0" /><rect fill="white" height="5.6" stroke="black" stroke-width="0.5" width="5.6" x="12.2" y="62.2" /><rect fill="black" height="6.0" stroke="none" stroke-width="0" width="6.0" x="22.0" y="62.0" /><rect fill="black" height="4.0" stroke="none" stroke-width="0" width="4.0" x="33.0" y="63.0" /><rect fill="black" height="2.0" stroke="none" stroke-width="0" width="2.0" x="44.0" y="64.0" /><rect fill="white" height="2.0" stroke="black" stroke-width="0.5" width="2.0" x="54.0" y="64.0" /><rect fill="black" height="3.3" stroke="none" stroke-width="0" width="3.3" x="63.4" y="63.4" /><rect fill="white" height="4.8" stroke="black" stroke-width="0.5" width="4.8" x="72.6" y="62.6" /><rect fill="white" height="4.0" stroke="black" stroke-width="0.5" width="4.0" x="83.0" y="63.0" /><rect fill="white" height="2.0" stroke="black" stroke-width="0.5" width="2.0" x="94.0" y="64.0" /><rect fill="black" height="4.9" stroke="none" stroke-width="0" width="4.9" x="102.6" y="62.6" /><rect fill="white" height="2.0" stroke="black" stroke-width="0.5" width="2.0" x="114.0" y="64.0" /><rect fill="white" height="5.5" stroke="black" stroke-width="0.5" width="5.5" x="122.2" y="62.2" /><rect fill="black" height="2.0" stroke="none" stroke-width="0" width="2.0" x="134.0" y="64.0" /><rect fill="white" height="6.5" stroke="black" stroke-width="0.5" width="6.5" x="141.7" y="61.7" /><rect fill="black" height="4.3" stroke="none" stroke-width="0" width="4.3" x="152.8" y="62.8" /><rect fill="black" height="3.2" stroke="none" stroke-width="0" width="3.2" x="163.4" y="63.4" /><rect fill="white" height="4.3" stroke="black" stroke-width="0.5" width="4.3" x="172.9" y="62.9" /><rect fill="black" height="4.5" stroke="none" stroke-width="0" width="4.5" x="182.8" y="62.8" /><rect fill="black" height="3.0" stroke="none" stroke-width="0" width="3.0" x="193.5" y="63.5" /><rect fill="black" height="2.0" stroke="none" stroke-width="0" width="2.0" x="204.0" y="64.0" /><rect fill="black" height="8.4" stroke="none" stroke-width="0" width="8.4" x="210.8" y="60.8" /><rect fill="white" height="2.0" stroke="black" stroke-width="0.5" width="2.0" x="224.0" y="64.0" /><rect fill="white" height="2.0" stroke="black" stroke-width="0.5" width="2.0" x="234.0" y="64.0" /><rect fill="white" height="2.4" stroke="black" stroke-width="0.5" width="2.4" x="243.8" y="63.8" /><rect fill="black" height="5.6" stroke="none" stroke-width="0" width="5.6" x="252.2" y="62.2" /><rect fill="black" height="2.0" stroke="none" stroke-width="0" width="2.0" x="264.0" y="64.0" /><rect fill="white" height="4.1" stroke="black" stroke-width="0.5" width="4.1" x="273.0" y="63.0" /><rect fill="black" height="7.6" stroke="none" stroke-width="0" width="7.6" x="281.2" y="61.2" /><rect fill="white" height="6.6" stroke="black" stroke-width="0.5" width="6.6" x="291.7" y="61.7" /><rect fill="black" height="2.0" stroke="none" stroke-width="0" width="2.0" x="304.0" y="64.0" /><rect fill="black" height="2.3" stroke="none" stroke-width="0" width="2.3" x="313.8" y="63.8" /><rect fill="white" height="3.7" stroke="black" stroke-width="0.5" width="3.7" x="323.1" y="63.1" /><rect fill="white" height="2.5" stroke="black" stroke-width="0.5" width="2.5" x="333.7" y="63.7" /><rect fill="black" height="2.0" stroke="none" stroke-width="0" width="2.0" x="344.0" y="64.0" /><rect fill="white" height="2.0" stroke="black" stroke-width="0.5" width="2.0" x="354.0" y="64.0" /><rect fill="black" height="2.6" stroke="none" stroke-width="0" width="2.6" x="363.7" y="63.7" /><rect fill="black" height="5.6" stroke="none" stroke-width="0" width="5.6" x="372.2" y="62.2" /><rect fill="white" height="4.7" stroke="black" stroke-width="0.5" width="4.7" x="382.7" y="62.7" /><rect fill="white" height="2.8" stroke="black" stroke-width="0.5" width="2.8" x="393.6" y="63.6" /><rect fill="black" height="5.3" stroke="none" stroke-width="0" width="5.3" x="402.4" y="62.4" /><rect fill="white" height="4.4" stroke="black" stroke-width="0.5" width="4.4" x="412.8" y="62.8" /><rect fill="white" height="3.0" stroke="black" stroke-width="0.5" width="3.0" x="423.5" y="63.5" /><rect fill="white" height="4.2" stroke="black" stroke-width="0.5" width="4.2" x="2.9" y="72.9" /><rect fill="black" height="4.4" stroke="none" stroke-width="0" width="4.4" x="12.8" y="72.8" /><rect fill="white" height="2.9" stroke="black" stroke-width="0.5" width="2.9" x="23.5" y="73.5" /><rect fill="white" height="3.7" stroke="black" stroke-width="0.5" width="3.7" x="33.1" y="73.1" /><rect fill="white" height="2.2" stroke="black" stroke-width="0.5" width="2.2" x="43.9" y="73.9" /><rect fill="white" height="5.1" stroke="black" stroke-width="0.5" width="5.1" x="52.4" y="72.4" /><rect fill="white" height="2.0" stroke="black" stroke-width="0.5" width="2.0" x="64.0" y="74.0" /><rect fill="black" height="4.6" stroke="none" stroke-width="0" width="4.6" x="72.7" y="72.7" /><rect fill="black" height="3.2" stroke="none" stroke-width="0" width="3.2" x="83.4" y="73.4" /><rect fill="white" height="2.0" stroke="black" stroke-width="0.5" width="2.0" x="94.0" y="74.0" /><rect fill="black" height="5.2" stroke="none" stroke-width="0" width="5.2" x="102.4" y="72.4" /><rect fill="black" height="5.4" stroke="none" stroke-width="0" width="5.4" x="112.3" y="72.3" /><rect fill="white" height="6.1" stroke="black" stroke-width="0.5" width="6.1" x="122.0" y="72.0" /><rect fill="black" height="6.3" stroke="none" stroke-width="0" width="6.3" x="131.9" y="71.9" /><rect fill="white" height="2.6" stroke="black" stroke-width="0.5" width="2.6" x="143.7" y="73.7" /><rect fill="black" height="4.2" stroke="none" stroke-width="0" width="4.2" x="152.9" y="72.9" /><rect fill="black" height="2.9" stroke="none" stroke-width="0" width="2.9" x="163.5" y="73.5" /><rect fill="white" height="5.6" stroke="black" stroke-width="0.5" width="5.6" x="172.2" y="72.2" /><rect fill="white" height="3.7" stroke="black" stroke-width="0.5" width="3.7" x="183.1" y="73.1" /><rect fill="white" height="2.9" stroke="black" stroke-width="0.5" width="2.9" x="193.6" y="73.6" /><rect fill="white" height="2.0" stroke="black" stroke-width="0.5" width="2.0" x="204.0" y="74.0" /><rect fill="white" height="2.0" stroke="black" stroke-width="0.5" width="2.0" x="214.0" y="74.0" /><rect fill="white" height="6.4" stroke="black" stroke-width="0.5" width="6.4" x="221.8" y="71.8" /><rect fill="black" height="4.2" stroke="none" stroke-width="0" width="4.2" x="232.9" y="72.9" /><rect fill="white" height="3.8" stroke="black" stroke-width="0.5" width="3.8" x="243.1" y="73.1" /><rect fill="black" height="2.2" stroke="none" stroke-width="0" width="2.2" x="253.9" y="73.9" /><rect fill="white" height="2.5" stroke="black" stroke-width="0.5" width="2.5" x="263.7" y="73.7" /><rect fill="white" height="5.2" stroke="black" stroke-width="0.5" width="5.2" x="272.4" y="72.4" /><rect fill="white" height="5.2" stroke="black" stroke-width="0.5" width="5.2" x="282.4" y="72.4" /><rect fill="black" height="3.6" stroke="none" stroke-width="0" width="3.6" x="293.2" y="73.2" /><rect fill="white" height="3.6" stroke="black" stroke-width="0.5" width="3.6" x="303.2" y="73.2" /><rect fill="black" height="4.7" stroke="none" stroke-width="0" width="4.7" x="312.6" y="72.6" /><rect fill="white" height="5.2" stroke="black" stroke-width="0.5" width="5.2" x="322.4" y="72.4" /><rect fill="black" height="4.1" stroke="none" stroke-width="0" width="4.1" x="333.0" y="73.0" /><rect fill="white" height="3.1" stroke="black" stroke-width="0.5" width="3.1" x="343.5" y="73.5" /><rect fill="black" height="5.4" stroke="none" stroke-width="0" width="5.4" x="352.3" y="72.3" /><rect fill="black" height="3.4" stroke="none" stroke-width="0" width="3.4" x="363.3" y="73.3" /><rect fill="black" height="4.2" stroke="none" stroke-width="0" width="4.2" x="372.9" y="72.9" /><rect fill="white" height="8.1" stroke="black" stroke-width="0.5" width="8.1" x="380.9" y="70.9" /><rect fill="black" height="3.7" stroke="none" stroke-width="0" width="3.7" x="393.1" y="73.1" /><rect fill="white" height="5.8" stroke="black" stroke-width="0.5" width="5.8" x="402.1" y="72.1" /><rect fill="black" height="6.3" stroke="none" stroke-width="0" width="6.3" x="411.9" y="71.9" /><rect fill="white" height="2.0" stroke="black" stroke-width="0.5" width="2.0" x="424.0" y="74.0" /><rect fill="white" height="4.7" stroke="black" stroke-width="0.5" width="4.7" x="2.6" y="82.6" /><rect fill="white" height="3.8" stroke="black" stroke-width="0.5" width="3.8" x="13.1" y="83.1" /><rect fill="black" height="2.9" stroke="none" stroke-width="0" width="2.9" x="23.6" y="83.6" /><rect fill="black" height="4.6" stroke="none" stroke-width="0" width="4.6" x="32.7" y="82.7" /><rect fill="black" height="2.0" stroke="none" stroke-width="0" width="2.0" x="44.0" y="84.0" /><rect fill="black" height="6.1" stroke="none" stroke-width="0" width="6.1" x="52.0" y="82.0" /><rect fill="white" height="8.9" stroke="black" stroke-width="0.5" width="8.9" x="60.6" y="80.6" /><rect fill="white" height="5.7" stroke="black" stroke-width="0.5" width="5.7" x="72.1" y="82.1" /><rect fill="black" height="4.4" stroke="none" stroke-width="0" width="4.4" x="82.8" y="82.8" /><rect fill="white" height="2.6" stroke="black" stroke-width="0.5" width="2.6" x="93.7" y="83.7" /><rect fill="black" height="2.6" stroke="none" stroke-width="0" width="2.6" x="103.7" y="83.7" /><rect fill="white" height="2.0" stroke="black" stroke-width="0.5" width="2.0" x="114.0" y="84.0" /><rect fill="white" height="5.6" stroke="black" stroke-width="0.5" width="5.6" x="122.2" y="82.2" /><rect fill="white" height="3.4" stroke="black" stroke-width="0.5" width="3.4" x="133.3" y="83.3" /><rect fill="black" height="5.8" stroke="none" stroke-width="0" width="5.8" x="142.1" y="82.1" /><rect fill="black" height="4.8" stroke="none" stroke-width="0" width="4.8" x="152.6" y="82.6" /><rect fill="black" height="5.8" stroke="none" stroke-width="0" width="5.8" x="162.1" y="82.1" /><rect fill="black" height="5.9" stroke="none" stroke-width="0" width="5.9" x="172.0" y="82.0" /><rect fill="white" height="5.0" stroke="black" stroke-width="0.5" width="5.0" x="182.5" y="82.5" /><rect fill="black" height="6.0" stroke="none" stroke-width="0" width="6.0" x="192.0" y="82.0" /><rect fill="black" height="2.6" stroke="none" stroke-width="0" width="2.6" x="203.7" y="83.7" /><rect fill="white" height="3.8" stroke="black" stroke-width="0.5" width="3.8" x="213.1" y="83.1" /><rect fill="white" height="5.3" stroke="black" stroke-width="0.5" width="5.3" x="222.4" y="82.4" /><rect fill="black" height="4.0" stroke="none" stroke-width="0" width="4.0" x="233.0" y="83.0" /><rect fill="black" height="2.7" stroke="none" stroke-width="0" width="2.7" x="243.6" y="83.6" /><rect fill="black" height="3.0" stroke="none" stroke-width="0" width="3.0" x="253.5" y="83.5" /><rect fill="black" height="3.8" stroke="none" stroke-width="0" width="3.8" x="263.1" y="83.1" /><rect fill="white" height="4.1" stroke="black" stroke-width="0.5" width="4.1" x="272.9" y="82.9" /><rect fill="white" height="2.0" stroke="black" stroke-width="0.5" width="2.0" x="284.0" y="84.0" /><rect fill="white" height="3.3" stroke="black" stroke-width="0.5" width="3.3" x="293.3" y="83.3" /><rect fill="black" height="4.9" stroke="none" stroke-width="0" width="4.9" x="302.6" y="82.6" /><rect fill="white" height="4.0" stroke="black" stroke-width="0.5" width="4.0" x="313.0" y="83.0" /><rect fill="black" height="2.0" stroke="none" stroke-width="0" width="2.0" x="324.0" y="84.0" /><rect fill="white" height="4.3" stroke="black" stroke-width="0.5" width="4.3" x="332.8" y="82.8" /><rect fill="black" height="4.8" stroke="none" stroke-width="0" width="4.8" x="342.6" y="82.6" /><rect fill="white" height="3.3" stroke="black" stroke-width="0.5" width="3.3" x="353.3" y="83.3" /><rect fill="black" height="2.2" stroke="none" stroke-width="0" width="2.2" x="363.9" y="83.9" /><rect fill="black" height="3.0" stroke="none" stroke-width="0" width="3.0" x="373.5" y="83.5" /><rect fill="white" height="2.0" stroke="black" stroke-width="0.5" width="2.0" x="384.0" y="84.0" /><rect fill="black" height="3.7" stroke="none" stroke-width="0" width="3.7" x="393.2" y="83.2" /><rect fill="white" height="5.7" stroke="black" stroke-width="0.5" width="5.7" x="402.2" y="82.2" /><rect fill="white" height="2.7" stroke="black" stroke-width="0.5" width="2.7" x="413.6" y="83.6" /><rect fill="white" height="2.8" stroke="black" stroke-width="0.5" width="2.8" x="423.6" y="83.6" /><rect fill="black" height="4.6" stroke="none" stroke-width="0" width="4.6" x="2.7" y="92.7" /><rect fill="black" height="3.5" stroke="none" stroke-width="0" width="3.5" x="13.3" y="93.3" /><rect fill="white" height="6.5" stroke="black" stroke-width="0.5" width="6.5" x="21.7" y="91.7" /><rect fill="black" height="2.0" stroke="none" stroke-width="0" width="2.0" x="34.0" y="94.0" /><rect fill="black" height="4.0" stroke="none" stroke-width="0" width="4.0" x="43.0" y="93.0" /><rect fill="black" height="2.0" stroke="none" stroke-width="0" width="2.0" x="54.0" y="94.0" /><rect fill="black" height="4.8" stroke="none" stroke-width="0" width="4.8" x="62.6" y="92.6" /><rect fill="white" height="6.3" stroke="black" stroke-width="0.5" width="6.3" x="71.9" y="91.9" /><rect fill="white" height="2.0" stroke="black" stroke-width="0.5" width="2.0" x="84.0" y="94.0" /><rect fill="black" height="5.2" stroke="none" stroke-width="0" width="5.2" x="92.4" y="92.4" /><rect fill="black" height="3.6" stroke="none" stroke-width="0" width="3.6" x="103.2" y="93.2" /><rect fill="white" height="6.2" stroke="black" stroke-width="0.5" width="6.2" x="111.9" y="91.9" /><rect fill="white" height="2.6" stroke="black" stroke-width="0.5" width="2.6" x="123.7" y="93.7" /><rect fill="white" height="2.1" stroke="black" stroke-width="0.5" width="2.1" x="133.9" y="93.9" /><rect fill="white" height="3.9" stroke="black" stroke-width="0.5" width="3.9" x="143.0" y="93.0" /><rect fill="black" height="2.0" stroke="none" stroke-width="0" width="2.0" x="154.0" y="94.0" /><rect fill="black" height="3.3" stroke="none" stroke-width="0" width="3.3" x="163.4" y="93.4" /><rect fill="white" height="5.1" stroke="black" stroke-width="0.5" width="5.1" x="172.5" y="92.5" /><rect fill="black" height="5.6" stroke="none" stroke-width="0" width="5.6" x="182.2" y="92.2" /><rect fill="black" height="4.7" stroke="none" stroke-width="0" width="4.7" x="192.7" y="92.7" /><rect fill="white" height="2.0" stroke="black" stroke-width="0.5" width="2.0" x="204.0" y="94.0" /><rect fill="black" height="3.2" stroke="none" stroke-width="0" width="3.2" x="213.4" y="93.4" /><rect fill="white" height="3.5" stroke="black" stroke-width="0.5" width="3.5" x="223.3" y="93.3" /><rect fill="white" height="5.2" stroke="black" stroke-width="0.5" width="5.2" x="232.4" y="92.4" /><rect fill="black" height="6.4" stroke="none" stroke-width="0" width="6.4" x="241.8" y="91.8" /><rect fill="black" height="5.1" stroke="none" stroke-width="0" width="5.1" x="252.4" y="92.4" /><rect fill="white" height="6.4" stroke="black" stroke-width="0.5" width="6.4" x="261.8" y="91.8" /><rect fill="black" height="5.7" stroke="none" stroke-width="0" width="5.7" x="272.2" y="92.2" /><rect fill="white" height="5.9" stroke="black" stroke-width="0.5" width="5.9" x="282.1" y="92.1" /><rect fill="black" height="2.0" stroke="none" stroke-width="0" width="2.0" x="294.0" y="94.0" /><rect fill="black" height="6.2" stroke="none" stroke-width="0" width="6.2" x="301.9" y="91.9" /><rect fill="white" height="3.2" stroke="black" stroke-width="0.5" width="3.2" x="313.4" y="93.4" /><rect fill="white" height="2.0" stroke="black" stroke-width="0.5" width="2.0" x="324.0" y="94.0" /><rect fill="white" height="3.5" stroke="black" stroke-width="0.5" width="3.5" x="333.3" y="93.3" /><rect fill="black" height="2.4" stroke="none" stroke-width="0" width="2.4" x="343.8" y="93.8" /><rect fill="white" height="6.2" stroke="black" stroke-width="0.5" width="6.2" x="351.9" y="91.9" /><rect fill="black" height="3.3" stroke="none" stroke-width="0" width="3.3" x="363.3" y="93.3" /><rect fill="black" height="2.0" stroke="none" stroke-width="0" width="2.0" x="374.0" y="94.0" /><rect fill="white" height="4.5" stroke="black" stroke-width="0.5" width="4.5" x="382.7" y="92.7" /><rect fill="black" height="5.1" stroke="none" stroke-width="0" width="5.1" x="392.4" y="92.4" /><rect fill="white" height="5.4" stroke="black" stroke-width="0.5" width="5.4" x="402.3" y="92.3" /><rect fill="black" height="3.5" stroke="none" stroke-width="0" width="3.5" x="413.2" y="93.2" /><rect fill="black" height="4.2" stroke="none" stroke-width="0" width="4.2" x="422.9" y="92.9" /></g><g /></svg>