<?xml version="1.0" encoding="utf-8" ?>
<svg baseProfile="full" height="100%" preserveAspectRatio="xMidYMid meet" version="1.1" viewBox="-40,-40,370,100" width="100%" xmlns="http://www.w3.org/2000/svg" xmlns:ev="http://www.w3.org/2001/xml-events" xmlns:xlink="http://www.w3.org/1999/xlink"><defs><style type="text/css"><![CDATA[
        @import url(https://cdn.jsdelivr.net/npm/firacode@6.2.0/distr/fira_code.css);
        text {
            font-family: 'STIX Two', 'STIX Two Math', 'STIXMath', 'DejaVu Math TeX Glyph',
                        'DejaVu Serif', 'Cambria Math', 'Latin Modern Math', 'FiraCode',
                        'serif';
        }
    ]]></style><style type="text/css"><![CDATA[
        @import url(https://cdn.jsdelivr.net/npm/firacode@6.2.0/distr/fira_code.css);
        text {
            font-family: 'STIX Two', 'STIX Two Math', 'STIXMath', 'DejaVu Math TeX Glyph',
                        'DejaVu Serif', 'Cambria Math', 'Latin Modern Math', 'FiraCode',
                        'serif';
        }
    ]]></style></defs><g><rect fill="black" height="6.6" stroke="none" stroke-width="0" width="6.6" x="1.7" y="1.7" /><rect fill="black" height="8.1" stroke="none" stroke-width="0" width="8.1" x="11.0" y="1.0" /><rect fill="black" height="8.8" stroke="none" stroke-width="0" width="8.8" x="20.6" y="0.6" /><rect fill="black" height="9.2" stroke="none" stroke-width="0" width="9.2" x="30.4" y="0.4" /><rect fill="black" height="9.0" stroke="none" stroke-width="0" width="9.0" x="40.5" y="0.5" /><rect fill="black" height="9.2" stroke="none" stroke-width="0" width="9.2" x="50.4" y="0.4" /><rect fill="black" height="9.2" stroke="none" stroke-width="0" width="9.2" x="60.4" y="0.4" /><rect fill="black" height="9.3" stroke="none" stroke-width="0" width="9.3" x="70.3" y="0.3" /><rect fill="black" height="9.3" stroke="none" stroke-width="0" width="9.3" x="80.4" y="0.4" /><rect fill="black" height="9.4" stroke="none" stroke-width="0" width="9.4" x="90.3" y="0.3" /><rect fill="black" height="9.4" stroke="none" stroke-width="0" width="9.4" x="100.3" y="0.3" /><rect fill="black" height="9.4" stroke="none" stroke-width="0" width="9.4" x="110.3" y="0.3" /><rect fill="black" height="9.4" stroke="none" stroke-width="0" width="9.4" x="120.3" y="0.3" /><rect fill="black" height="9.4" stroke="none" stroke-width="0" width="9.4" x="130.3" y="0.3" /><rect fill="black" height="9.5" stroke="none" stroke-width="0" width="9.5" x="140.3" y="0.3" /><rect fill="black" height="9.4" stroke="none" stroke-width="0" width="9.4" x="150.3" y="0.3" /><rect fill="black" height="9.5" stroke="none" stroke-width="0" width="9.5" x="160.3" y="0.3" /><rect fill="black" height="9.5" stroke="none" stroke-width="0" width="9.5" x="170.3" y="0.3" /><rect fill="black" height="9.5" stroke="none" stroke-width="0" width="9.5" x="180.3" y="0.3" /><rect fill="black" height="9.5" stroke="none" stroke-width="0" width="9.5" x="190.3" y="0.3" /><rect fill="black" height="9.5" stroke="none" stroke-width="0" width="9.5" x="200.3" y="0.3" /><rect fill="black" height="9.5" stroke="none" stroke-width="0" width="9.5" x="210.3" y="0.3" /><rect fill="black" height="9.4" stroke="none" stroke-width="0" width="9.4" x="220.3" y="0.3" /><rect fill="black" height="9.5" stroke="none" stroke-width="0" width="9.5" x="230.3" y="0.3" /><rect fill="black" height="9.5" stroke="none" stroke-width="0" width="9.5" x="240.3" y="0.3" /><rect fill="black" height="9.4" stroke="none" stroke-width="0" width="9.4" x="250.3" y="0.3" /><rect fill="black" height="9.5" stroke="none" stroke-width="0" width="9.5" x="260.3" y="0.3" /><rect fill="black" height="9.5" stroke="none" stroke-width="0" width="9.5" x="270.2" y="0.2" /><rect fill="black" height="9.5" stroke="none" stroke-width="0" width="9.5" x="280.2" y="0.2" /><rect fill="black" height="5.8" stroke="none" stroke-width="0" width="5.8" x="2.1" y="12.1" /><rect fill="black" height="6.8" stroke="none" stroke-width="0" width="6.8" x="11.6" y="11.6" /><rect fill="black" height="8.9" stroke="none" stroke-width="0" width="8.9" x="20.6" y="10.6" /><rect fill="black" height="9.5" stroke="none" stroke-width="0" width="9.5" x="30.3" y="10.3" /><rect fill="black" height="9.1" stroke="none" stroke-width="0" width="9.1" x="40.4" y="10.4" /><rect fill="black" height="9.1" stroke="none" stroke-width="0" width="9.1" x="50.4" y="10.4" /><rect fill="black" height="9.3" stroke="none" stroke-width="0" width="9.3" x="60.3" y="10.3" /><rect fill="black" height="9.3" stroke="none" stroke-width="0" width="9.3" x="70.3" y="10.3" /><rect fill="black" height="9.4" stroke="none" stroke-width="0" width="9.4" x="80.3" y="10.3" /><rect fill="black" height="9.4" stroke="none" stroke-width="0" width="9.4" x="90.3" y="10.3" /><rect fill="black" height="9.4" stroke="none" stroke-width="0" width="9.4" x="100.3" y="10.3" /><rect fill="black" height="9.3" stroke="none" stroke-width="0" width="9.3" x="110.3" y="10.3" /><rect fill="black" height="9.3" stroke="none" stroke-width="0" width="9.3" x="120.3" y="10.3" /><rect fill="black" height="9.3" stroke="none" stroke-width="0" width="9.3" x="130.4" y="10.4" /><rect fill="black" height="9.5" stroke="none" stroke-width="0" width="9.5" x="140.3" y="10.3" /><rect fill="black" height="9.4" stroke="none" stroke-width="0" width="9.4" x="150.3" y="10.3" /><rect fill="black" height="9.5" stroke="none" stroke-width="0" width="9.5" x="160.3" y="10.3" /><rect fill="black" height="9.5" stroke="none" stroke-width="0" width="9.5" x="170.3" y="10.3" /><rect fill="black" height="9.5" stroke="none" stroke-width="0" width="9.5" x="180.3" y="10.3" /><rect fill="black" height="9.5" stroke="none" stroke-width="0" width="9.5" x="190.3" y="10.3" /><rect fill="black" height="9.5" stroke="none" stroke-width="0" width="9.5" x="200.3" y="10.3" /><rect fill="black" height="9.5" stroke="none" stroke-width="0" width="9.5" x="210.3" y="10.3" /><rect fill="black" height="9.5" stroke="none" stroke-width="0" width="9.5" x="220.3" y="10.3" /><rect fill="black" height="9.5" stroke="none" stroke-width="0" width="9.5" x="230.3" y="10.3" /><rect fill="black" height="9.5" stroke="none" stroke-width="0" width="9.5" x="240.3" y="10.3" /><rect fill="black" height="9.5" stroke="none" stroke-width="0" width="9.5" x="250.3" y="10.3" /><rect fill="black" height="9.5" stroke="none" stroke-width="0" width="9.5" x="260.3" y="10.3" /><rect fill="black" height="9.5" stroke="none" stroke-width="0" width="9.5" x="270.3" y="10.3" /><rect fill="black" height="9.5" stroke="none" stroke-width="0" width="9.5" x="280.3" y="10.3" /></g><g><line stroke="black" stroke-width="0.5" x1="5.0" x2="5.0" y1="24.0" y2="27.0" /><text dominant-baseline="middle" font-size="6px" text-anchor="middle" x="5.0" y="33.0">2</text><line stroke="black" stroke-width="0.5" x1="15.0" x2="15.0" y1="24.0" y2="27.0" /><text dominant-baseline="middle" font-size="6px" text-anchor="middle" x="15.0" y="33.0">3</text><line stroke="black" stroke-width="0.5" x1="25.0" x2="25.0" y1="24.0" y2="27.0" /><text dominant-baseline="middle" font-size="6px" text-anchor="middle" x="25.0" y="33.0">5</text><line stroke="black" stroke-width="0.5" x1="35.0" x2="35.0" y1="24.0" y2="27.0" /><text dominant-baseline="middle" font-size="6px" text-anchor="middle" x="35.0" y="33.0">7</text><line stroke="black" stroke-width="0.5" x1="45.0" x2="45.0" y1="24.0" y2="27.0" /><text dominant-baseline="middle" font-size="6px" text-anchor="middle" x="45.0" y="33.0">11</text><line stroke="black" stroke-width="0.5" x1="55.0" x2="55.0" y1="24.0" y2="27.0" /><text dominant-baseline="middle" font-size="6px" text-anchor="middle" x="55.0" y="33.0">13</text><line stroke="black" stroke-width="0.5" x1="65.0" x2="65.0" y1="24.0" y2="27.0" /><text dominant-baseline="middle" font-size="6px" text-anchor="middle" x="65.0" y="33.0">17</text><line stroke="black" stroke-width="0.5" x1="75.0" x2="75.0" y1="24.0" y2="27.0" /><text dominant-baseline="middle" font-size="6px" text-anchor="middle" x="75.0" y="33.0">19</text><line stroke="black" stroke-width="0.5" x1="85.0" x2="85.0" y1="24.0" y2="27.0" /><text dominant-baseline="middle" font-size="6px" text-anchor="middle" x="85.0" y="33.0">23</text><line stroke="black" stroke-width="0.5" x1="95.0" x2="95.0" y1="24.0" y2="27.0" /><text dominant-baseline="middle" font-size="6px" text-anchor="middle" x="95.0" y="33.0">29</text><line stroke="black" stroke-width="0.5" x1="105.0" x2="105.0" y1="24.0" y2="27.0" /><text dominant-baseline="middle" font-size="6px" text-anchor="middle" x="105.0" y="33.0">31</text><line stroke="black" stroke-width="0.5" x1="115.0" x2="115.0" y1="24.0" y2="27.0" /><text dominant-baseline="middle" font-size="6px" text-anchor="middle" x="115.0" y="33.0">37</text><line stroke="black" stroke-width="0.5" x1="125.0" x2="125.0" y1="24.0" y2="27.0" /><text dominant-baseline="middle" font-size="6px" text-anchor="middle" x="125.0" y="33.0">41</text><line stroke="black" stroke-width="0.5" x1="135.0" x2="135.0" y1="24.0" y2="27.0" /><text dominant-baseline="middle" font-size="6px" text-anchor="middle" x="135.0" y="33.0">43</text><line stroke="black" stroke-width="0.5" x1="145.0" x2="145.0" y1="24.0" y2="27.0" /><text dominant-baseline="middle" font-size="6px" text-anchor="middle" x="145.0" y="33.0">47</text><line stroke="black" stroke-width="0.5" x1="155.0" x2="155.0" y1="24.0" y2="27.0" /><text dominant-baseline="middle" font-size="6px" text-anchor="middle" x="155.0" y="33.0">53</text><line stroke="black" stroke-width="0.5" x1="165.0" x2="165.0" y1="24.0" y2="27.0" /><text dominant-baseline="middle" font-size="6px" text-anchor="middle" x="165.0" y="33.0">59</text><line stroke="black" stroke-width="0.5" x1="175.0" x2="175.0" y1="24.0" y2="27.0" /><text dominant-baseline="middle" font-size="6px" text-anchor="middle" x="175.0" y="33.0">61</text><line stroke="black" stroke-width="0.5" x1="185.0" x2="185.0" y1="24.0" y2="27.0" /><text dominant-baseline="middle" font-size="6px" text-anchor="middle" x="185.0" y="33.0">67</text><line stroke="black" stroke-width="0.5" x1="195.0" x2="195.0" y1="24.0" y2="27.0" /><text dominant-baseline="middle" font-size="6px" text-anchor="middle" x="195.0" y="33.0">71</text><line stroke="black" stroke-width="0.5" x1="205.0" x2="205.0" y1="24.0" y2="27.0" /><text dominant-baseline="middle" font-size="6px" text-anchor="middle" x="205.0" y="33.0">73</text><line stroke="black" stroke-width="0.5" x1="215.0" x2="215.0" y1="24.0" y2="27.0" /><text dominant-baseline="middle" font-size="6px" text-anchor="middle" x="215.0" y="33.0">79</text><line stroke="black" stroke-width="0.5" x1="225.0" x2="225.0" y1="24.0" y2="27.0" /><text dominant-baseline="middle" font-size="6px" text-anchor="middle" x="225.0" y="33.0">83</text><line stroke="black" stroke-width="0.5" x1="235.0" x2="235.0" y1="24.0" y2="27.0" /><text dominant-baseline="middle" font-size="6px" text-anchor="middle" x="235.0" y="33.0">89</text><line stroke="black" stroke-width="0.5" x1="245.0" x2="245.0" y1="24.0" y2="27.0" /><text dominant-baseline="middle" font-size="6px" text-anchor="middle" x="245.0" y="33.0">97</text><line stroke="black" stroke-width="0.5" x1="255.0" x2="255.0" y1="24.0" y2="27.0" /><text dominant-baseline="middle" font-size="6px" text-anchor="middle" x="255.0" y="33.0">101</text><line stroke="black" stroke-width="0.5" x1="265.0" x2="265.0" y1="24.0" y2="27.0" /><text dominant-baseline="middle" font-size="6px" text-anchor="middle" x="265.0" y="33.0">103</text><line stroke="black" stroke-width="0.5" x1="275.0" x2="275.0" y1="24.0" y2="27.0" /><text dominant-baseline="middle" font-size="6px" text-anchor="middle" x="275.0" y="33.0">107</text><line stroke="black" stroke-width="0.5" x1="285.0" x2="285.0" y1="24.0" y2="27.0" /><text dominant-baseline="middle" font-size="6px" text-anchor="middle" x="285.0" y="33.0">109</text><line stroke="black" stroke-width="0.5" x1="-4.0" x2="-7.0" y1="5.0" y2="5.0" /><text dominant-baseline="middle" font-size="6px" text-anchor="end" x="-13.0" y="5.0">Train</text><line stroke="black" stroke-width="0.5" x1="-4.0" x2="-7.0" y1="15.0" y2="15.0" /><text dominant-baseline="middle" font-size="6px" text-anchor="end" x="-13.0" y="15.0">Test</text></g></svg>