<?xml version="1.0" encoding="utf-8" ?>
<svg baseProfile="full" height="100%" preserveAspectRatio="xMidYMid meet" version="1.1" viewBox="-40,-40,230,230" width="100%" xmlns="http://www.w3.org/2000/svg" xmlns:ev="http://www.w3.org/2001/xml-events" xmlns:xlink="http://www.w3.org/1999/xlink"><defs><style type="text/css"><![CDATA[
        @import url(https://cdn.jsdelivr.net/npm/firacode@6.2.0/distr/fira_code.css);
        text {
            font-family: 'STIX Two', 'STIX Two Math', 'STIXMath', 'DejaVu Math TeX Glyph',
                        'DejaVu Serif', 'Cambria Math', 'Latin Modern Math', 'FiraCode',
                        'serif';
        }
    ]]></style><style type="text/css"><![CDATA[
        @import url(https://cdn.jsdelivr.net/npm/firacode@6.2.0/distr/fira_code.css);
        text {
            font-family: 'STIX Two', 'STIX Two Math', 'STIXMath', 'DejaVu Math TeX Glyph',
                        'DejaVu Serif', 'Cambria Math', 'Latin Modern Math', 'FiraCode',
                        'serif';
        }
    ]]></style></defs><g><rect fill="black" height="2.4" stroke="none" stroke-width="0" width="2.4" x="3.8" y="3.8" /><rect fill="black" height="2.1" stroke="none" stroke-width="0" width="2.1" x="13.9" y="3.9" /><rect fill="white" height="2.1" stroke="black" stroke-width="0.5" width="2.1" x="23.9" y="3.9" /><rect fill="white" height="2.1" stroke="black" stroke-width="0.5" width="2.1" x="33.9" y="3.9" /><rect fill="white" height="2.1" stroke="black" stroke-width="0.5" width="2.1" x="43.9" y="3.9" /><rect fill="black" height="2.1" stroke="none" stroke-width="0" width="2.1" x="53.9" y="3.9" /><rect fill="black" height="2.1" stroke="none" stroke-width="0" width="2.1" x="63.9" y="3.9" /><rect fill="white" height="2.1" stroke="black" stroke-width="0.5" width="2.1" x="73.9" y="3.9" /><rect fill="white" height="2.1" stroke="black" stroke-width="0.5" width="2.1" x="83.9" y="3.9" /><rect fill="white" height="2.1" stroke="black" stroke-width="0.5" width="2.1" x="93.9" y="3.9" /><rect fill="black" height="2.1" stroke="none" stroke-width="0" width="2.1" x="103.9" y="3.9" /><rect fill="black" height="2.1" stroke="none" stroke-width="0" width="2.1" x="113.9" y="3.9" /><rect fill="black" height="2.1" stroke="none" stroke-width="0" width="2.1" x="123.9" y="3.9" /><rect fill="white" height="2.1" stroke="black" stroke-width="0.5" width="2.1" x="133.9" y="3.9" /><rect fill="black" height="3.5" stroke="none" stroke-width="0" width="3.5" x="143.3" y="3.3" /><rect fill="black" height="2.1" stroke="none" stroke-width="0" width="2.1" x="3.9" y="13.9" /><rect fill="black" height="2.5" stroke="none" stroke-width="0" width="2.5" x="13.8" y="13.8" /><rect fill="black" height="2.1" stroke="none" stroke-width="0" width="2.1" x="23.9" y="13.9" /><rect fill="white" height="2.1" stroke="black" stroke-width="0.5" width="2.1" x="33.9" y="13.9" /><rect fill="black" height="2.1" stroke="none" stroke-width="0" width="2.1" x="43.9" y="13.9" /><rect fill="black" height="2.1" stroke="none" stroke-width="0" width="2.1" x="53.9" y="13.9" /><rect fill="white" height="2.1" stroke="black" stroke-width="0.5" width="2.1" x="63.9" y="13.9" /><rect fill="white" height="2.1" stroke="black" stroke-width="0.5" width="2.1" x="73.9" y="13.9" /><rect fill="white" height="2.1" stroke="black" stroke-width="0.5" width="2.1" x="83.9" y="13.9" /><rect fill="white" height="2.1" stroke="black" stroke-width="0.5" width="2.1" x="93.9" y="13.9" /><rect fill="white" height="2.1" stroke="black" stroke-width="0.5" width="2.1" x="103.9" y="13.9" /><rect fill="black" height="2.1" stroke="none" stroke-width="0" width="2.1" x="113.9" y="13.9" /><rect fill="black" height="2.1" stroke="none" stroke-width="0" width="2.1" x="123.9" y="13.9" /><rect fill="black" height="2.1" stroke="none" stroke-width="0" width="2.1" x="133.9" y="13.9" /><rect fill="black" height="2.1" stroke="none" stroke-width="0" width="2.1" x="143.9" y="13.9" /><rect fill="white" height="2.1" stroke="black" stroke-width="0.5" width="2.1" x="3.9" y="23.9" /><rect fill="black" height="2.1" stroke="none" stroke-width="0" width="2.1" x="13.9" y="23.9" /><rect fill="black" height="2.5" stroke="none" stroke-width="0" width="2.5" x="23.8" y="23.8" /><rect fill="black" height="2.1" stroke="none" stroke-width="0" width="2.1" x="33.9" y="23.9" /><rect fill="black" height="2.1" stroke="none" stroke-width="0" width="2.1" x="43.9" y="23.9" /><rect fill="black" height="2.1" stroke="none" stroke-width="0" width="2.1" x="53.9" y="23.9" /><rect fill="white" height="2.1" stroke="black" stroke-width="0.5" width="2.1" x="63.9" y="23.9" /><rect fill="black" height="2.1" stroke="none" stroke-width="0" width="2.1" x="73.9" y="23.9" /><rect fill="white" height="2.1" stroke="black" stroke-width="0.5" width="2.1" x="83.9" y="23.9" /><rect fill="white" height="2.1" stroke="black" stroke-width="0.5" width="2.1" x="93.9" y="23.9" /><rect fill="black" height="2.1" stroke="none" stroke-width="0" width="2.1" x="103.9" y="23.9" /><rect fill="black" height="2.1" stroke="none" stroke-width="0" width="2.1" x="113.9" y="23.9" /><rect fill="white" height="2.1" stroke="black" stroke-width="0.5" width="2.1" x="123.9" y="23.9" /><rect fill="black" height="2.1" stroke="none" stroke-width="0" width="2.1" x="133.9" y="23.9" /><rect fill="black" height="2.1" stroke="none" stroke-width="0" width="2.1" x="143.9" y="23.9" /><rect fill="white" height="2.1" stroke="black" stroke-width="0.5" width="2.1" x="3.9" y="33.9" /><rect fill="white" height="2.1" stroke="black" stroke-width="0.5" width="2.1" x="13.9" y="33.9" /><rect fill="black" height="2.1" stroke="none" stroke-width="0" width="2.1" x="23.9" y="33.9" /><rect fill="black" height="2.5" stroke="none" stroke-width="0" width="2.5" x="33.7" y="33.7" /><rect fill="white" height="2.1" stroke="black" stroke-width="0.5" width="2.1" x="43.9" y="33.9" /><rect fill="white" height="2.1" stroke="black" stroke-width="0.5" width="2.1" x="53.9" y="33.9" /><rect fill="white" height="2.1" stroke="black" stroke-width="0.5" width="2.1" x="63.9" y="33.9" /><rect fill="black" height="2.1" stroke="none" stroke-width="0" width="2.1" x="73.9" y="33.9" /><rect fill="black" height="2.1" stroke="none" stroke-width="0" width="2.1" x="83.9" y="33.9" /><rect fill="white" height="2.1" stroke="black" stroke-width="0.5" width="2.1" x="93.9" y="33.9" /><rect fill="white" height="2.2" stroke="black" stroke-width="0.5" width="2.2" x="103.9" y="33.9" /><rect fill="black" height="2.1" stroke="none" stroke-width="0" width="2.1" x="113.9" y="33.9" /><rect fill="black" height="2.8" stroke="none" stroke-width="0" width="2.8" x="123.6" y="33.6" /><rect fill="black" height="3.2" stroke="none" stroke-width="0" width="3.2" x="133.4" y="33.4" /><rect fill="white" height="2.1" stroke="black" stroke-width="0.5" width="2.1" x="143.9" y="33.9" /><rect fill="white" height="2.1" stroke="black" stroke-width="0.5" width="2.1" x="3.9" y="43.9" /><rect fill="black" height="2.1" stroke="none" stroke-width="0" width="2.1" x="13.9" y="43.9" /><rect fill="black" height="2.1" stroke="none" stroke-width="0" width="2.1" x="23.9" y="43.9" /><rect fill="white" height="2.1" stroke="black" stroke-width="0.5" width="2.1" x="33.9" y="43.9" /><rect fill="black" height="2.5" stroke="none" stroke-width="0" width="2.5" x="43.7" y="43.7" /><rect fill="white" height="2.1" stroke="black" stroke-width="0.5" width="2.1" x="53.9" y="43.9" /><rect fill="white" height="2.1" stroke="black" stroke-width="0.5" width="2.1" x="63.9" y="43.9" /><rect fill="white" height="2.1" stroke="black" stroke-width="0.5" width="2.1" x="73.9" y="43.9" /><rect fill="black" height="2.1" stroke="none" stroke-width="0" width="2.1" x="83.9" y="43.9" /><rect fill="black" height="2.1" stroke="none" stroke-width="0" width="2.1" x="93.9" y="43.9" /><rect fill="white" height="2.1" stroke="black" stroke-width="0.5" width="2.1" x="103.9" y="43.9" /><rect fill="white" height="2.1" stroke="black" stroke-width="0.5" width="2.1" x="113.9" y="43.9" /><rect fill="white" height="2.1" stroke="black" stroke-width="0.5" width="2.1" x="123.9" y="43.9" /><rect fill="black" height="2.1" stroke="none" stroke-width="0" width="2.1" x="133.9" y="43.9" /><rect fill="white" height="2.1" stroke="black" stroke-width="0.5" width="2.1" x="143.9" y="43.9" /><rect fill="black" height="2.1" stroke="none" stroke-width="0" width="2.1" x="3.9" y="53.9" /><rect fill="black" height="2.1" stroke="none" stroke-width="0" width="2.1" x="13.9" y="53.9" /><rect fill="black" height="2.1" stroke="none" stroke-width="0" width="2.1" x="23.9" y="53.9" /><rect fill="white" height="2.1" stroke="black" stroke-width="0.5" width="2.1" x="33.9" y="53.9" /><rect fill="white" height="2.1" stroke="black" stroke-width="0.5" width="2.1" x="43.9" y="53.9" /><rect fill="black" height="2.7" stroke="none" stroke-width="0" width="2.7" x="53.7" y="53.7" /><rect fill="black" height="2.1" stroke="none" stroke-width="0" width="2.1" x="63.9" y="53.9" /><rect fill="white" height="2.1" stroke="black" stroke-width="0.5" width="2.1" x="73.9" y="53.9" /><rect fill="white" height="2.2" stroke="black" stroke-width="0.5" width="2.2" x="83.9" y="53.9" /><rect fill="black" height="2.1" stroke="none" stroke-width="0" width="2.1" x="93.9" y="53.9" /><rect fill="white" height="2.1" stroke="black" stroke-width="0.5" width="2.1" x="103.9" y="53.9" /><rect fill="black" height="2.4" stroke="none" stroke-width="0" width="2.4" x="113.8" y="53.8" /><rect fill="white" height="2.1" stroke="black" stroke-width="0.5" width="2.1" x="123.9" y="53.9" /><rect fill="white" height="2.1" stroke="black" stroke-width="0.5" width="2.1" x="133.9" y="53.9" /><rect fill="black" height="4.1" stroke="none" stroke-width="0" width="4.1" x="143.0" y="53.0" /><rect fill="black" height="2.1" stroke="none" stroke-width="0" width="2.1" x="3.9" y="63.9" /><rect fill="white" height="2.1" stroke="black" stroke-width="0.5" width="2.1" x="13.9" y="63.9" /><rect fill="white" height="2.1" stroke="black" stroke-width="0.5" width="2.1" x="23.9" y="63.9" /><rect fill="white" height="2.1" stroke="black" stroke-width="0.5" width="2.1" x="33.9" y="63.9" /><rect fill="white" height="2.1" stroke="black" stroke-width="0.5" width="2.1" x="43.9" y="63.9" /><rect fill="black" height="2.1" stroke="none" stroke-width="0" width="2.1" x="53.9" y="63.9" /><rect fill="black" height="2.7" stroke="none" stroke-width="0" width="2.7" x="63.6" y="63.6" /><rect fill="white" height="2.1" stroke="black" stroke-width="0.5" width="2.1" x="73.9" y="63.9" /><rect fill="black" height="2.1" stroke="none" stroke-width="0" width="2.1" x="83.9" y="63.9" /><rect fill="black" height="2.1" stroke="none" stroke-width="0" width="2.1" x="93.9" y="63.9" /><rect fill="black" height="2.1" stroke="none" stroke-width="0" width="2.1" x="103.9" y="63.9" /><rect fill="white" height="2.1" stroke="black" stroke-width="0.5" width="2.1" x="113.9" y="63.9" /><rect fill="white" height="2.1" stroke="black" stroke-width="0.5" width="2.1" x="123.9" y="63.9" /><rect fill="white" height="2.1" stroke="black" stroke-width="0.5" width="2.1" x="133.9" y="63.9" /><rect fill="black" height="2.1" stroke="none" stroke-width="0" width="2.1" x="143.9" y="63.9" /><rect fill="white" height="2.1" stroke="black" stroke-width="0.5" width="2.1" x="3.9" y="73.9" /><rect fill="white" height="2.1" stroke="black" stroke-width="0.5" width="2.1" x="13.9" y="73.9" /><rect fill="black" height="2.1" stroke="none" stroke-width="0" width="2.1" x="23.9" y="73.9" /><rect fill="black" height="2.1" stroke="none" stroke-width="0" width="2.1" x="33.9" y="73.9" /><rect fill="white" height="2.1" stroke="black" stroke-width="0.5" width="2.1" x="43.9" y="73.9" /><rect fill="white" height="2.1" stroke="black" stroke-width="0.5" width="2.1" x="53.9" y="73.9" /><rect fill="white" height="2.1" stroke="black" stroke-width="0.5" width="2.1" x="63.9" y="73.9" /><rect fill="black" height="2.7" stroke="none" stroke-width="0" width="2.7" x="73.6" y="73.6" /><rect fill="black" height="2.1" stroke="none" stroke-width="0" width="2.1" x="83.9" y="73.9" /><rect fill="black" height="2.1" stroke="none" stroke-width="0" width="2.1" x="93.9" y="73.9" /><rect fill="black" height="2.1" stroke="none" stroke-width="0" width="2.1" x="103.9" y="73.9" /><rect fill="white" height="2.1" stroke="black" stroke-width="0.5" width="2.1" x="113.9" y="73.9" /><rect fill="white" height="2.1" stroke="black" stroke-width="0.5" width="2.1" x="123.9" y="73.9" /><rect fill="black" height="2.1" stroke="none" stroke-width="0" width="2.1" x="133.9" y="73.9" /><rect fill="white" height="3.9" stroke="black" stroke-width="0.5" width="3.9" x="143.0" y="73.0" /><rect fill="white" height="2.1" stroke="black" stroke-width="0.5" width="2.1" x="3.9" y="83.9" /><rect fill="white" height="2.1" stroke="black" stroke-width="0.5" width="2.1" x="13.9" y="83.9" /><rect fill="white" height="2.1" stroke="black" stroke-width="0.5" width="2.1" x="23.9" y="83.9" /><rect fill="black" height="2.1" stroke="none" stroke-width="0" width="2.1" x="33.9" y="83.9" /><rect fill="black" height="2.1" stroke="none" stroke-width="0" width="2.1" x="43.9" y="83.9" /><rect fill="white" height="2.2" stroke="black" stroke-width="0.5" width="2.2" x="53.9" y="83.9" /><rect fill="black" height="2.1" stroke="none" stroke-width="0" width="2.1" x="63.9" y="83.9" /><rect fill="black" height="2.1" stroke="none" stroke-width="0" width="2.1" x="73.9" y="83.9" /><rect fill="black" height="2.8" stroke="none" stroke-width="0" width="2.8" x="83.6" y="83.6" /><rect fill="white" height="2.1" stroke="black" stroke-width="0.5" width="2.1" x="93.9" y="83.9" /><rect fill="white" height="2.1" stroke="black" stroke-width="0.5" width="2.1" x="103.9" y="83.9" /><rect fill="white" height="2.5" stroke="black" stroke-width="0.5" width="2.5" x="113.7" y="83.7" /><rect fill="white" height="2.1" stroke="black" stroke-width="0.5" width="2.1" x="123.9" y="83.9" /><rect fill="black" height="2.1" stroke="none" stroke-width="0" width="2.1" x="133.9" y="83.9" /><rect fill="white" height="3.9" stroke="black" stroke-width="0.5" width="3.9" x="143.0" y="83.0" /><rect fill="white" height="2.1" stroke="black" stroke-width="0.5" width="2.1" x="3.9" y="93.9" /><rect fill="white" height="2.1" stroke="black" stroke-width="0.5" width="2.1" x="13.9" y="93.9" /><rect fill="white" height="2.1" stroke="black" stroke-width="0.5" width="2.1" x="23.9" y="93.9" /><rect fill="white" height="2.1" stroke="black" stroke-width="0.5" width="2.1" x="33.9" y="93.9" /><rect fill="black" height="2.1" stroke="none" stroke-width="0" width="2.1" x="43.9" y="93.9" /><rect fill="black" height="2.1" stroke="none" stroke-width="0" width="2.1" x="53.9" y="93.9" /><rect fill="black" height="2.1" stroke="none" stroke-width="0" width="2.1" x="63.9" y="93.9" /><rect fill="black" height="2.1" stroke="none" stroke-width="0" width="2.1" x="73.9" y="93.9" /><rect fill="white" height="2.1" stroke="black" stroke-width="0.5" width="2.1" x="83.9" y="93.9" /><rect fill="black" height="3.4" stroke="none" stroke-width="0" width="3.4" x="93.3" y="93.3" /><rect fill="black" height="2.2" stroke="none" stroke-width="0" width="2.2" x="103.9" y="93.9" /><rect fill="black" height="2.1" stroke="none" stroke-width="0" width="2.1" x="113.9" y="93.9" /><rect fill="white" height="3.4" stroke="black" stroke-width="0.5" width="3.4" x="123.3" y="93.3" /><rect fill="white" height="3.7" stroke="black" stroke-width="0.5" width="3.7" x="133.2" y="93.2" /><rect fill="black" height="2.1" stroke="none" stroke-width="0" width="2.1" x="143.9" y="93.9" /><rect fill="black" height="2.1" stroke="none" stroke-width="0" width="2.1" x="3.9" y="103.9" /><rect fill="white" height="2.1" stroke="black" stroke-width="0.5" width="2.1" x="13.9" y="103.9" /><rect fill="black" height="2.1" stroke="none" stroke-width="0" width="2.1" x="23.9" y="103.9" /><rect fill="white" height="2.2" stroke="black" stroke-width="0.5" width="2.2" x="33.9" y="103.9" /><rect fill="white" height="2.1" stroke="black" stroke-width="0.5" width="2.1" x="43.9" y="103.9" /><rect fill="white" height="2.1" stroke="black" stroke-width="0.5" width="2.1" x="53.9" y="103.9" /><rect fill="black" height="2.1" stroke="none" stroke-width="0" width="2.1" x="63.9" y="103.9" /><rect fill="black" height="2.1" stroke="none" stroke-width="0" width="2.1" x="73.9" y="103.9" /><rect fill="white" height="2.1" stroke="black" stroke-width="0.5" width="2.1" x="83.9" y="103.9" /><rect fill="black" height="2.2" stroke="none" stroke-width="0" width="2.2" x="93.9" y="103.9" /><rect fill="black" height="3.5" stroke="none" stroke-width="0" width="3.5" x="103.2" y="103.2" /><rect fill="white" height="2.1" stroke="black" stroke-width="0.5" width="2.1" x="113.9" y="103.9" /><rect fill="white" height="3.2" stroke="black" stroke-width="0.5" width="3.2" x="123.4" y="103.4" /><rect fill="white" height="4.4" stroke="black" stroke-width="0.5" width="4.4" x="132.8" y="102.8" /><rect fill="white" height="2.1" stroke="black" stroke-width="0.5" width="2.1" x="143.9" y="103.9" /><rect fill="black" height="2.1" stroke="none" stroke-width="0" width="2.1" x="3.9" y="113.9" /><rect fill="black" height="2.1" stroke="none" stroke-width="0" width="2.1" x="13.9" y="113.9" /><rect fill="black" height="2.1" stroke="none" stroke-width="0" width="2.1" x="23.9" y="113.9" /><rect fill="black" height="2.1" stroke="none" stroke-width="0" width="2.1" x="33.9" y="113.9" /><rect fill="white" height="2.1" stroke="black" stroke-width="0.5" width="2.1" x="43.9" y="113.9" /><rect fill="black" height="2.4" stroke="none" stroke-width="0" width="2.4" x="53.8" y="113.8" /><rect fill="white" height="2.1" stroke="black" stroke-width="0.5" width="2.1" x="63.9" y="113.9" /><rect fill="white" height="2.1" stroke="black" stroke-width="0.5" width="2.1" x="73.9" y="113.9" /><rect fill="white" height="2.5" stroke="black" stroke-width="0.5" width="2.5" x="83.7" y="113.7" /><rect fill="black" height="2.1" stroke="none" stroke-width="0" width="2.1" x="93.9" y="113.9" /><rect fill="white" height="2.1" stroke="black" stroke-width="0.5" width="2.1" x="103.9" y="113.9" /><rect fill="black" height="3.7" stroke="none" stroke-width="0" width="3.7" x="113.2" y="113.2" /><rect fill="black" height="2.1" stroke="none" stroke-width="0" width="2.1" x="123.9" y="113.9" /><rect fill="black" height="2.1" stroke="none" stroke-width="0" width="2.1" x="133.9" y="113.9" /><rect fill="black" height="5.2" stroke="none" stroke-width="0" width="5.2" x="142.4" y="112.4" /><rect fill="black" height="2.1" stroke="none" stroke-width="0" width="2.1" x="3.9" y="123.9" /><rect fill="black" height="2.1" stroke="none" stroke-width="0" width="2.1" x="13.9" y="123.9" /><rect fill="white" height="2.1" stroke="black" stroke-width="0.5" width="2.1" x="23.9" y="123.9" /><rect fill="black" height="2.8" stroke="none" stroke-width="0" width="2.8" x="33.6" y="123.6" /><rect fill="white" height="2.1" stroke="black" stroke-width="0.5" width="2.1" x="43.9" y="123.9" /><rect fill="white" height="2.1" stroke="black" stroke-width="0.5" width="2.1" x="53.9" y="123.9" /><rect fill="white" height="2.1" stroke="black" stroke-width="0.5" width="2.1" x="63.9" y="123.9" /><rect fill="white" height="2.1" stroke="black" stroke-width="0.5" width="2.1" x="73.9" y="123.9" /><rect fill="white" height="2.1" stroke="black" stroke-width="0.5" width="2.1" x="83.9" y="123.9" /><rect fill="white" height="3.4" stroke="black" stroke-width="0.5" width="3.4" x="93.3" y="123.3" /><rect fill="white" height="3.2" stroke="black" stroke-width="0.5" width="3.2" x="103.4" y="123.4" /><rect fill="black" height="2.1" stroke="none" stroke-width="0" width="2.1" x="113.9" y="123.9" /><rect fill="black" height="4.7" stroke="none" stroke-width="0" width="4.7" x="122.7" y="122.7" /><rect fill="black" height="4.9" stroke="none" stroke-width="0" width="4.9" x="132.6" y="122.6" /><rect fill="black" height="2.1" stroke="none" stroke-width="0" width="2.1" x="143.9" y="123.9" /><rect fill="white" height="2.1" stroke="black" stroke-width="0.5" width="2.1" x="3.9" y="133.9" /><rect fill="black" height="2.1" stroke="none" stroke-width="0" width="2.1" x="13.9" y="133.9" /><rect fill="black" height="2.1" stroke="none" stroke-width="0" width="2.1" x="23.9" y="133.9" /><rect fill="black" height="3.2" stroke="none" stroke-width="0" width="3.2" x="33.4" y="133.4" /><rect fill="black" height="2.1" stroke="none" stroke-width="0" width="2.1" x="43.9" y="133.9" /><rect fill="white" height="2.1" stroke="black" stroke-width="0.5" width="2.1" x="53.9" y="133.9" /><rect fill="white" height="2.1" stroke="black" stroke-width="0.5" width="2.1" x="63.9" y="133.9" /><rect fill="black" height="2.1" stroke="none" stroke-width="0" width="2.1" x="73.9" y="133.9" /><rect fill="black" height="2.1" stroke="none" stroke-width="0" width="2.1" x="83.9" y="133.9" /><rect fill="white" height="3.7" stroke="black" stroke-width="0.5" width="3.7" x="93.2" y="133.2" /><rect fill="white" height="4.4" stroke="black" stroke-width="0.5" width="4.4" x="102.8" y="132.8" /><rect fill="black" height="2.1" stroke="none" stroke-width="0" width="2.1" x="113.9" y="133.9" /><rect fill="black" height="4.9" stroke="none" stroke-width="0" width="4.9" x="122.6" y="132.6" /><rect fill="black" height="6.8" stroke="none" stroke-width="0" width="6.8" x="131.6" y="131.6" /><rect fill="white" height="2.1" stroke="black" stroke-width="0.5" width="2.1" x="143.9" y="133.9" /><rect fill="black" height="3.5" stroke="none" stroke-width="0" width="3.5" x="3.3" y="143.3" /><rect fill="black" height="2.1" stroke="none" stroke-width="0" width="2.1" x="13.9" y="143.9" /><rect fill="black" height="2.1" stroke="none" stroke-width="0" width="2.1" x="23.9" y="143.9" /><rect fill="white" height="2.1" stroke="black" stroke-width="0.5" width="2.1" x="33.9" y="143.9" /><rect fill="white" height="2.1" stroke="black" stroke-width="0.5" width="2.1" x="43.9" y="143.9" /><rect fill="black" height="4.1" stroke="none" stroke-width="0" width="4.1" x="53.0" y="143.0" /><rect fill="black" height="2.1" stroke="none" stroke-width="0" width="2.1" x="63.9" y="143.9" /><rect fill="white" height="3.9" stroke="black" stroke-width="0.5" width="3.9" x="73.0" y="143.0" /><rect fill="white" height="3.9" stroke="black" stroke-width="0.5" width="3.9" x="83.0" y="143.0" /><rect fill="black" height="2.1" stroke="none" stroke-width="0" width="2.1" x="93.9" y="143.9" /><rect fill="white" height="2.1" stroke="black" stroke-width="0.5" width="2.1" x="103.9" y="143.9" /><rect fill="black" height="5.2" stroke="none" stroke-width="0" width="5.2" x="112.4" y="142.4" /><rect fill="black" height="2.1" stroke="none" stroke-width="0" width="2.1" x="123.9" y="143.9" /><rect fill="white" height="2.1" stroke="black" stroke-width="0.5" width="2.1" x="133.9" y="143.9" /><rect fill="black" height="9.5" stroke="none" stroke-width="0" width="9.5" x="140.2" y="140.2" /></g><g /></svg>