<?xml version="1.0" encoding="utf-8" ?>
<svg baseProfile="full" height="100%" preserveAspectRatio="xMidYMid meet" version="1.1" viewBox="-40,-40,400,90" width="100%" xmlns="http://www.w3.org/2000/svg" xmlns:ev="http://www.w3.org/2001/xml-events" xmlns:xlink="http://www.w3.org/1999/xlink"><defs><style type="text/css"><![CDATA[
        @import url(https://cdn.jsdelivr.net/npm/firacode@6.2.0/distr/fira_code.css);
        text {
            font-family: 'STIX Two', 'STIX Two Math', 'STIXMath', 'DejaVu Math TeX Glyph',
                        'DejaVu Serif', 'Cambria Math', 'Latin Modern Math', 'FiraCode',
                        'serif';
        }
    ]]></style><style type="text/css"><![CDATA[
        @import url(https://cdn.jsdelivr.net/npm/firacode@6.2.0/distr/fira_code.css);
        text {
            font-family: 'STIX Two', 'STIX Two Math', 'STIXMath', 'DejaVu Math TeX Glyph',
                        'DejaVu Serif', 'Cambria Math', 'Latin Modern Math', 'FiraCode',
                        'serif';
        }
    ]]></style></defs><g><rect fill="black" height="9.5" stroke="none" stroke-width="0" width="9.5" x="0.2" y="0.2" /><rect fill="black" height="9.1" stroke="none" stroke-width="0" width="9.1" x="10.5" y="0.5" /><rect fill="black" height="8.7" stroke="none" stroke-width="0" width="8.7" x="20.6" y="0.6" /><rect fill="black" height="8.4" stroke="none" stroke-width="0" width="8.4" x="30.8" y="0.8" /><rect fill="black" height="8.3" stroke="none" stroke-width="0" width="8.3" x="40.8" y="0.8" /><rect fill="black" height="8.0" stroke="none" stroke-width="0" width="8.0" x="51.0" y="1.0" /><rect fill="black" height="7.9" stroke="none" stroke-width="0" width="7.9" x="61.1" y="1.1" /><rect fill="black" height="7.7" stroke="none" stroke-width="0" width="7.7" x="71.1" y="1.1" /><rect fill="black" height="7.5" stroke="none" stroke-width="0" width="7.5" x="81.3" y="1.3" /><rect fill="black" height="7.4" stroke="none" stroke-width="0" width="7.4" x="91.3" y="1.3" /><rect fill="black" height="7.1" stroke="none" stroke-width="0" width="7.1" x="101.5" y="1.5" /><rect fill="black" height="7.0" stroke="none" stroke-width="0" width="7.0" x="111.5" y="1.5" /><rect fill="black" height="6.8" stroke="none" stroke-width="0" width="6.8" x="121.6" y="1.6" /><rect fill="black" height="6.7" stroke="none" stroke-width="0" width="6.7" x="131.7" y="1.7" /><rect fill="black" height="6.4" stroke="none" stroke-width="0" width="6.4" x="141.8" y="1.8" /><rect fill="black" height="6.1" stroke="none" stroke-width="0" width="6.1" x="151.9" y="1.9" /><rect fill="black" height="6.1" stroke="none" stroke-width="0" width="6.1" x="162.0" y="2.0" /><rect fill="black" height="5.7" stroke="none" stroke-width="0" width="5.7" x="172.1" y="2.1" /><rect fill="black" height="5.7" stroke="none" stroke-width="0" width="5.7" x="182.2" y="2.2" /><rect fill="black" height="5.4" stroke="none" stroke-width="0" width="5.4" x="192.3" y="2.3" /><rect fill="black" height="5.2" stroke="none" stroke-width="0" width="5.2" x="202.4" y="2.4" /><rect fill="black" height="5.0" stroke="none" stroke-width="0" width="5.0" x="212.5" y="2.5" /><rect fill="black" height="4.9" stroke="none" stroke-width="0" width="4.9" x="222.6" y="2.6" /><rect fill="black" height="4.7" stroke="none" stroke-width="0" width="4.7" x="232.7" y="2.7" /><rect fill="black" height="4.6" stroke="none" stroke-width="0" width="4.6" x="242.7" y="2.7" /><rect fill="black" height="4.3" stroke="none" stroke-width="0" width="4.3" x="252.9" y="2.9" /><rect fill="black" height="4.0" stroke="none" stroke-width="0" width="4.0" x="263.0" y="3.0" /><rect fill="black" height="3.7" stroke="none" stroke-width="0" width="3.7" x="273.2" y="3.2" /><rect fill="black" height="3.3" stroke="none" stroke-width="0" width="3.3" x="283.4" y="3.4" /><rect fill="black" height="3.1" stroke="none" stroke-width="0" width="3.1" x="293.4" y="3.4" /><rect fill="black" height="2.8" stroke="none" stroke-width="0" width="2.8" x="303.6" y="3.6" /><rect fill="black" height="2.1" stroke="none" stroke-width="0" width="2.1" x="313.9" y="3.9" /></g><g /></svg>