<?xml version="1.0" encoding="utf-8" ?>
<svg baseProfile="full" height="100%" preserveAspectRatio="xMidYMid meet" version="1.1" viewBox="-30,-30,350,80" width="100%" xmlns="http://www.w3.org/2000/svg" xmlns:ev="http://www.w3.org/2001/xml-events" xmlns:xlink="http://www.w3.org/1999/xlink"><defs><style type="text/css"><![CDATA[
        @import url(https://cdn.jsdelivr.net/npm/firacode@6.2.0/distr/fira_code.css);
        text {
            font-family: 'STIX Two', 'STIX Two Math', 'STIXMath', 'DejaVu Math TeX Glyph',
                        'DejaVu Serif', 'Cambria Math', 'Latin Modern Math', 'FiraCode',
                        'serif';
        }
    ]]></style><style type="text/css"><![CDATA[
        @import url(https://cdn.jsdelivr.net/npm/firacode@6.2.0/distr/fira_code.css);
        text {
            font-family: 'STIX Two', 'STIX Two Math', 'STIXMath', 'DejaVu Math TeX Glyph',
                        'DejaVu Serif', 'Cambria Math', 'Latin Modern Math', 'FiraCode',
                        'serif';
        }
    ]]></style></defs><g><rect fill="black" height="9.5" stroke="none" stroke-width="0" width="9.5" x="0.2" y="0.2" /><rect fill="black" height="9.5" stroke="none" stroke-width="0" width="9.5" x="10.2" y="0.2" /><rect fill="black" height="9.5" stroke="none" stroke-width="0" width="9.5" x="20.2" y="0.2" /><rect fill="black" height="9.5" stroke="none" stroke-width="0" width="9.5" x="30.2" y="0.2" /><rect fill="black" height="6.7" stroke="none" stroke-width="0" width="6.7" x="41.6" y="1.6" /><rect fill="black" height="8.3" stroke="none" stroke-width="0" width="8.3" x="50.9" y="0.9" /><rect fill="black" height="5.7" stroke="none" stroke-width="0" width="5.7" x="62.2" y="2.2" /><rect fill="black" height="7.6" stroke="none" stroke-width="0" width="7.6" x="71.2" y="1.2" /><rect fill="black" height="5.8" stroke="none" stroke-width="0" width="5.8" x="82.1" y="2.1" /><rect fill="black" height="4.2" stroke="none" stroke-width="0" width="4.2" x="92.9" y="2.9" /><rect fill="black" height="4.2" stroke="none" stroke-width="0" width="4.2" x="102.9" y="2.9" /><rect fill="black" height="4.7" stroke="none" stroke-width="0" width="4.7" x="112.7" y="2.7" /><rect fill="black" height="4.1" stroke="none" stroke-width="0" width="4.1" x="122.9" y="2.9" /><rect fill="black" height="4.6" stroke="none" stroke-width="0" width="4.6" x="132.7" y="2.7" /><rect fill="black" height="3.8" stroke="none" stroke-width="0" width="3.8" x="143.1" y="3.1" /><rect fill="black" height="4.3" stroke="none" stroke-width="0" width="4.3" x="152.8" y="2.8" /><rect fill="black" height="3.9" stroke="none" stroke-width="0" width="3.9" x="163.0" y="3.0" /><rect fill="black" height="4.1" stroke="none" stroke-width="0" width="4.1" x="172.9" y="2.9" /><rect fill="black" height="2.8" stroke="none" stroke-width="0" width="2.8" x="183.6" y="3.6" /><rect fill="black" height="3.2" stroke="none" stroke-width="0" width="3.2" x="193.4" y="3.4" /><rect fill="black" height="4.1" stroke="none" stroke-width="0" width="4.1" x="202.9" y="2.9" /><rect fill="black" height="3.3" stroke="none" stroke-width="0" width="3.3" x="213.4" y="3.4" /><rect fill="black" height="3.6" stroke="none" stroke-width="0" width="3.6" x="223.2" y="3.2" /><rect fill="black" height="3.3" stroke="none" stroke-width="0" width="3.3" x="233.3" y="3.3" /><rect fill="black" height="2.9" stroke="none" stroke-width="0" width="2.9" x="243.5" y="3.5" /><rect fill="black" height="2.4" stroke="none" stroke-width="0" width="2.4" x="253.8" y="3.8" /><rect fill="black" height="2.3" stroke="none" stroke-width="0" width="2.3" x="263.8" y="3.8" /><rect fill="black" height="2.5" stroke="none" stroke-width="0" width="2.5" x="273.8" y="3.8" /><rect fill="black" height="2.1" stroke="none" stroke-width="0" width="2.1" x="283.9" y="3.9" /><rect fill="black" height="9.5" stroke="none" stroke-width="0" width="9.5" x="0.3" y="10.3" /><rect fill="black" height="9.5" stroke="none" stroke-width="0" width="9.5" x="10.3" y="10.3" /><rect fill="black" height="9.4" stroke="none" stroke-width="0" width="9.4" x="20.3" y="10.3" /><rect fill="black" height="9.4" stroke="none" stroke-width="0" width="9.4" x="30.3" y="10.3" /><rect fill="black" height="3.9" stroke="none" stroke-width="0" width="3.9" x="43.1" y="13.1" /><rect fill="black" height="5.8" stroke="none" stroke-width="0" width="5.8" x="52.1" y="12.1" /><rect fill="black" height="2.6" stroke="none" stroke-width="0" width="2.6" x="63.7" y="13.7" /><rect fill="black" height="4.0" stroke="none" stroke-width="0" width="4.0" x="73.0" y="13.0" /><rect fill="black" height="2.1" stroke="none" stroke-width="0" width="2.1" x="83.9" y="13.9" /><rect fill="black" height="2.1" stroke="none" stroke-width="0" width="2.1" x="93.9" y="13.9" /><rect fill="black" height="2.1" stroke="none" stroke-width="0" width="2.1" x="103.9" y="13.9" /><rect fill="black" height="2.1" stroke="none" stroke-width="0" width="2.1" x="113.9" y="13.9" /><rect fill="black" height="2.2" stroke="none" stroke-width="0" width="2.2" x="123.9" y="13.9" /><rect fill="black" height="2.1" stroke="none" stroke-width="0" width="2.1" x="133.9" y="13.9" /><rect fill="black" height="2.1" stroke="none" stroke-width="0" width="2.1" x="143.9" y="13.9" /><rect fill="black" height="2.1" stroke="none" stroke-width="0" width="2.1" x="153.9" y="13.9" /><rect fill="black" height="2.1" stroke="none" stroke-width="0" width="2.1" x="163.9" y="13.9" /><rect fill="black" height="2.1" stroke="none" stroke-width="0" width="2.1" x="173.9" y="13.9" /><rect fill="black" height="2.1" stroke="none" stroke-width="0" width="2.1" x="183.9" y="13.9" /><rect fill="black" height="2.1" stroke="none" stroke-width="0" width="2.1" x="193.9" y="13.9" /><rect fill="black" height="2.1" stroke="none" stroke-width="0" width="2.1" x="203.9" y="13.9" /><rect fill="black" height="2.1" stroke="none" stroke-width="0" width="2.1" x="213.9" y="13.9" /><rect fill="black" height="2.1" stroke="none" stroke-width="0" width="2.1" x="223.9" y="13.9" /><rect fill="black" height="2.1" stroke="none" stroke-width="0" width="2.1" x="233.9" y="13.9" /><rect fill="black" height="2.1" stroke="none" stroke-width="0" width="2.1" x="243.9" y="13.9" /><rect fill="black" height="2.1" stroke="none" stroke-width="0" width="2.1" x="253.9" y="13.9" /><rect fill="black" height="2.1" stroke="none" stroke-width="0" width="2.1" x="263.9" y="13.9" /><rect fill="black" height="2.1" stroke="none" stroke-width="0" width="2.1" x="273.9" y="13.9" /><rect fill="black" height="2.1" stroke="none" stroke-width="0" width="2.1" x="283.9" y="13.9" /></g><g><line stroke="black" stroke-width="0.5" x1="5.0" x2="5.0" y1="24.0" y2="27.0" /><text dominant-baseline="middle" font-size="6px" text-anchor="middle" x="5.0" y="33.0">2</text><line stroke="black" stroke-width="0.5" x1="25.0" x2="25.0" y1="24.0" y2="27.0" /><text dominant-baseline="middle" font-size="6px" text-anchor="middle" x="25.0" y="33.0">5</text><line stroke="black" stroke-width="0.5" x1="45.0" x2="45.0" y1="24.0" y2="27.0" /><text dominant-baseline="middle" font-size="6px" text-anchor="middle" x="45.0" y="33.0">11</text><line stroke="black" stroke-width="0.5" x1="65.0" x2="65.0" y1="24.0" y2="27.0" /><text dominant-baseline="middle" font-size="6px" text-anchor="middle" x="65.0" y="33.0">17</text><line stroke="black" stroke-width="0.5" x1="85.0" x2="85.0" y1="24.0" y2="27.0" /><text dominant-baseline="middle" font-size="6px" text-anchor="middle" x="85.0" y="33.0">23</text><line stroke="black" stroke-width="0.5" x1="105.0" x2="105.0" y1="24.0" y2="27.0" /><text dominant-baseline="middle" font-size="6px" text-anchor="middle" x="105.0" y="33.0">31</text><line stroke="black" stroke-width="0.5" x1="125.0" x2="125.0" y1="24.0" y2="27.0" /><text dominant-baseline="middle" font-size="6px" text-anchor="middle" x="125.0" y="33.0">41</text><line stroke="black" stroke-width="0.5" x1="145.0" x2="145.0" y1="24.0" y2="27.0" /><text dominant-baseline="middle" font-size="6px" text-anchor="middle" x="145.0" y="33.0">47</text><line stroke="black" stroke-width="0.5" x1="165.0" x2="165.0" y1="24.0" y2="27.0" /><text dominant-baseline="middle" font-size="6px" text-anchor="middle" x="165.0" y="33.0">59</text><line stroke="black" stroke-width="0.5" x1="185.0" x2="185.0" y1="24.0" y2="27.0" /><text dominant-baseline="middle" font-size="6px" text-anchor="middle" x="185.0" y="33.0">67</text><line stroke="black" stroke-width="0.5" x1="205.0" x2="205.0" y1="24.0" y2="27.0" /><text dominant-baseline="middle" font-size="6px" text-anchor="middle" x="205.0" y="33.0">73</text><line stroke="black" stroke-width="0.5" x1="225.0" x2="225.0" y1="24.0" y2="27.0" /><text dominant-baseline="middle" font-size="6px" text-anchor="middle" x="225.0" y="33.0">83</text><line stroke="black" stroke-width="0.5" x1="245.0" x2="245.0" y1="24.0" y2="27.0" /><text dominant-baseline="middle" font-size="6px" text-anchor="middle" x="245.0" y="33.0">97</text><line stroke="black" stroke-width="0.5" x1="265.0" x2="265.0" y1="24.0" y2="27.0" /><text dominant-baseline="middle" font-size="6px" text-anchor="middle" x="265.0" y="33.0">103</text><line stroke="black" stroke-width="0.5" x1="285.0" x2="285.0" y1="24.0" y2="27.0" /><text dominant-baseline="middle" font-size="6px" text-anchor="middle" x="285.0" y="33.0">109</text><line stroke="black" stroke-width="0.5" x1="-4.0" x2="-7.0" y1="5.0" y2="5.0" /><text dominant-baseline="middle" font-size="6px" text-anchor="end" x="-13.0" y="5.0">Train</text><line stroke="black" stroke-width="0.5" x1="-4.0" x2="-7.0" y1="15.0" y2="15.0" /><text dominant-baseline="middle" font-size="6px" text-anchor="end" x="-13.0" y="15.0">Test</text></g></svg>