<?xml version="1.0" encoding="utf-8" ?>
<svg baseProfile="full" height="100%" preserveAspectRatio="xMidYMid meet" version="1.1" viewBox="-40,-40,370,90" width="100%" xmlns="http://www.w3.org/2000/svg" xmlns:ev="http://www.w3.org/2001/xml-events" xmlns:xlink="http://www.w3.org/1999/xlink"><defs><style type="text/css"><![CDATA[
        @import url(https://cdn.jsdelivr.net/npm/firacode@6.2.0/distr/fira_code.css);
        text {
            font-family: 'STIX Two', 'STIX Two Math', 'STIXMath', 'DejaVu Math TeX Glyph',
                        'DejaVu Serif', 'Cambria Math', 'Latin Modern Math', 'FiraCode',
                        'serif';
        }
    ]]></style><style type="text/css"><![CDATA[
        @import url(https://cdn.jsdelivr.net/npm/firacode@6.2.0/distr/fira_code.css);
        text {
            font-family: 'STIX Two', 'STIX Two Math', 'STIXMath', 'DejaVu Math TeX Glyph',
                        'DejaVu Serif', 'Cambria Math', 'Latin Modern Math', 'FiraCode',
                        'serif';
        }
    ]]></style></defs><g><rect fill="black" height="9.5" stroke="none" stroke-width="0" width="9.5" x="0.2" y="0.2" /><rect fill="black" height="9.5" stroke="none" stroke-width="0" width="9.5" x="10.2" y="0.2" /><rect fill="black" height="4.9" stroke="none" stroke-width="0" width="4.9" x="22.6" y="2.6" /><rect fill="black" height="4.4" stroke="none" stroke-width="0" width="4.4" x="32.8" y="2.8" /><rect fill="black" height="3.7" stroke="none" stroke-width="0" width="3.7" x="43.2" y="3.2" /><rect fill="black" height="3.5" stroke="none" stroke-width="0" width="3.5" x="53.3" y="3.3" /><rect fill="black" height="3.1" stroke="none" stroke-width="0" width="3.1" x="63.5" y="3.5" /><rect fill="black" height="3.1" stroke="none" stroke-width="0" width="3.1" x="73.5" y="3.5" /><rect fill="black" height="2.7" stroke="none" stroke-width="0" width="2.7" x="83.7" y="3.7" /><rect fill="black" height="2.4" stroke="none" stroke-width="0" width="2.4" x="93.8" y="3.8" /><rect fill="black" height="2.5" stroke="none" stroke-width="0" width="2.5" x="103.7" y="3.7" /><rect fill="black" height="2.1" stroke="none" stroke-width="0" width="2.1" x="113.9" y="3.9" /><rect fill="black" height="2.2" stroke="none" stroke-width="0" width="2.2" x="123.9" y="3.9" /><rect fill="black" height="2.1" stroke="none" stroke-width="0" width="2.1" x="133.9" y="3.9" /><rect fill="black" height="2.1" stroke="none" stroke-width="0" width="2.1" x="143.9" y="3.9" /><rect fill="black" height="2.1" stroke="none" stroke-width="0" width="2.1" x="153.9" y="3.9" /><rect fill="black" height="2.1" stroke="none" stroke-width="0" width="2.1" x="163.9" y="3.9" /><rect fill="black" height="2.1" stroke="none" stroke-width="0" width="2.1" x="173.9" y="3.9" /><rect fill="black" height="2.1" stroke="none" stroke-width="0" width="2.1" x="183.9" y="3.9" /><rect fill="black" height="2.1" stroke="none" stroke-width="0" width="2.1" x="193.9" y="3.9" /><rect fill="black" height="2.1" stroke="none" stroke-width="0" width="2.1" x="203.9" y="3.9" /><rect fill="black" height="2.1" stroke="none" stroke-width="0" width="2.1" x="213.9" y="3.9" /><rect fill="black" height="2.1" stroke="none" stroke-width="0" width="2.1" x="223.9" y="3.9" /><rect fill="black" height="2.1" stroke="none" stroke-width="0" width="2.1" x="233.9" y="3.9" /><rect fill="black" height="2.1" stroke="none" stroke-width="0" width="2.1" x="243.9" y="3.9" /><rect fill="black" height="2.1" stroke="none" stroke-width="0" width="2.1" x="253.9" y="3.9" /><rect fill="black" height="2.1" stroke="none" stroke-width="0" width="2.1" x="263.9" y="3.9" /><rect fill="black" height="2.1" stroke="none" stroke-width="0" width="2.1" x="273.9" y="3.9" /><rect fill="black" height="2.1" stroke="none" stroke-width="0" width="2.1" x="283.9" y="3.9" /></g><g><text font-size="6px" text-anchor="middle" x="145.0" y="27.0">113x113</text></g></svg>