<?xml version="1.0" encoding="utf-8" ?>
<svg baseProfile="full" height="100%" preserveAspectRatio="xMidYMid meet" version="1.1" viewBox="-40,-40,1200,90" width="100%" xmlns="http://www.w3.org/2000/svg" xmlns:ev="http://www.w3.org/2001/xml-events" xmlns:xlink="http://www.w3.org/1999/xlink"><defs><style type="text/css"><![CDATA[
        @import url(https://cdn.jsdelivr.net/npm/firacode@6.2.0/distr/fira_code.css);
        text {
            font-family: 'STIX Two', 'STIX Two Math', 'STIXMath', 'DejaVu Math TeX Glyph',
                        'DejaVu Serif', 'Cambria Math', 'Latin Modern Math', 'FiraCode',
                        'serif';
        }
    ]]></style><style type="text/css"><![CDATA[
        @import url(https://cdn.jsdelivr.net/npm/firacode@6.2.0/distr/fira_code.css);
        text {
            font-family: 'STIX Two', 'STIX Two Math', 'STIXMath', 'DejaVu Math TeX Glyph',
                        'DejaVu Serif', 'Cambria Math', 'Latin Modern Math', 'FiraCode',
                        'serif';
        }
    ]]></style></defs><g><rect fill="black" height="4.3" stroke="none" stroke-width="0" width="4.3" x="2.9" y="2.9" /><rect fill="black" height="4.6" stroke="none" stroke-width="0" width="4.6" x="12.7" y="2.7" /><rect fill="black" height="4.4" stroke="none" stroke-width="0" width="4.4" x="22.8" y="2.8" /><rect fill="black" height="4.3" stroke="none" stroke-width="0" width="4.3" x="32.8" y="2.8" /><rect fill="black" height="4.2" stroke="none" stroke-width="0" width="4.2" x="42.9" y="2.9" /><rect fill="black" height="3.9" stroke="none" stroke-width="0" width="3.9" x="53.1" y="3.1" /><rect fill="black" height="3.8" stroke="none" stroke-width="0" width="3.8" x="63.1" y="3.1" /><rect fill="black" height="4.6" stroke="none" stroke-width="0" width="4.6" x="72.7" y="2.7" /><rect fill="black" height="4.3" stroke="none" stroke-width="0" width="4.3" x="82.8" y="2.8" /><rect fill="black" height="4.7" stroke="none" stroke-width="0" width="4.7" x="92.7" y="2.7" /><rect fill="black" height="4.3" stroke="none" stroke-width="0" width="4.3" x="102.8" y="2.8" /><rect fill="black" height="4.2" stroke="none" stroke-width="0" width="4.2" x="112.9" y="2.9" /><rect fill="black" height="4.5" stroke="none" stroke-width="0" width="4.5" x="122.8" y="2.8" /><rect fill="black" height="4.5" stroke="none" stroke-width="0" width="4.5" x="132.8" y="2.8" /><rect fill="black" height="4.6" stroke="none" stroke-width="0" width="4.6" x="142.7" y="2.7" /><rect fill="black" height="4.6" stroke="none" stroke-width="0" width="4.6" x="152.7" y="2.7" /><rect fill="black" height="4.0" stroke="none" stroke-width="0" width="4.0" x="163.0" y="3.0" /><rect fill="black" height="4.2" stroke="none" stroke-width="0" width="4.2" x="172.9" y="2.9" /><rect fill="black" height="5.1" stroke="none" stroke-width="0" width="5.1" x="182.5" y="2.5" /><rect fill="black" height="4.1" stroke="none" stroke-width="0" width="4.1" x="192.9" y="2.9" /><rect fill="black" height="4.2" stroke="none" stroke-width="0" width="4.2" x="202.9" y="2.9" /><rect fill="black" height="4.0" stroke="none" stroke-width="0" width="4.0" x="213.0" y="3.0" /><rect fill="black" height="4.6" stroke="none" stroke-width="0" width="4.6" x="222.7" y="2.7" /><rect fill="black" height="4.5" stroke="none" stroke-width="0" width="4.5" x="232.8" y="2.8" /><rect fill="black" height="4.4" stroke="none" stroke-width="0" width="4.4" x="242.8" y="2.8" /><rect fill="black" height="4.5" stroke="none" stroke-width="0" width="4.5" x="252.8" y="2.8" /><rect fill="black" height="4.5" stroke="none" stroke-width="0" width="4.5" x="262.8" y="2.8" /><rect fill="black" height="4.1" stroke="none" stroke-width="0" width="4.1" x="273.0" y="3.0" /><rect fill="black" height="4.2" stroke="none" stroke-width="0" width="4.2" x="282.9" y="2.9" /><rect fill="black" height="4.4" stroke="none" stroke-width="0" width="4.4" x="292.8" y="2.8" /><rect fill="black" height="3.7" stroke="none" stroke-width="0" width="3.7" x="303.2" y="3.2" /><rect fill="black" height="4.3" stroke="none" stroke-width="0" width="4.3" x="312.8" y="2.8" /><rect fill="black" height="4.4" stroke="none" stroke-width="0" width="4.4" x="322.8" y="2.8" /><rect fill="black" height="4.5" stroke="none" stroke-width="0" width="4.5" x="332.8" y="2.8" /><rect fill="black" height="5.1" stroke="none" stroke-width="0" width="5.1" x="342.5" y="2.5" /><rect fill="black" height="4.4" stroke="none" stroke-width="0" width="4.4" x="352.8" y="2.8" /><rect fill="black" height="5.7" stroke="none" stroke-width="0" width="5.7" x="362.2" y="2.2" /><rect fill="black" height="6.7" stroke="none" stroke-width="0" width="6.7" x="371.7" y="1.7" /><rect fill="black" height="4.6" stroke="none" stroke-width="0" width="4.6" x="382.7" y="2.7" /><rect fill="black" height="4.7" stroke="none" stroke-width="0" width="4.7" x="392.6" y="2.6" /><rect fill="black" height="4.2" stroke="none" stroke-width="0" width="4.2" x="402.9" y="2.9" /><rect fill="black" height="4.8" stroke="none" stroke-width="0" width="4.8" x="412.6" y="2.6" /><rect fill="black" height="4.2" stroke="none" stroke-width="0" width="4.2" x="422.9" y="2.9" /><rect fill="black" height="4.8" stroke="none" stroke-width="0" width="4.8" x="432.6" y="2.6" /><rect fill="black" height="4.8" stroke="none" stroke-width="0" width="4.8" x="442.6" y="2.6" /><rect fill="black" height="4.3" stroke="none" stroke-width="0" width="4.3" x="452.9" y="2.9" /><rect fill="black" height="4.4" stroke="none" stroke-width="0" width="4.4" x="462.8" y="2.8" /><rect fill="black" height="4.4" stroke="none" stroke-width="0" width="4.4" x="472.8" y="2.8" /><rect fill="black" height="4.5" stroke="none" stroke-width="0" width="4.5" x="482.7" y="2.7" /><rect fill="black" height="4.3" stroke="none" stroke-width="0" width="4.3" x="492.8" y="2.8" /><rect fill="black" height="4.4" stroke="none" stroke-width="0" width="4.4" x="502.8" y="2.8" /><rect fill="black" height="4.3" stroke="none" stroke-width="0" width="4.3" x="512.8" y="2.8" /><rect fill="black" height="4.8" stroke="none" stroke-width="0" width="4.8" x="522.6" y="2.6" /><rect fill="black" height="5.0" stroke="none" stroke-width="0" width="5.0" x="532.5" y="2.5" /><rect fill="black" height="5.9" stroke="none" stroke-width="0" width="5.9" x="542.1" y="2.1" /><rect fill="black" height="9.5" stroke="none" stroke-width="0" width="9.5" x="550.2" y="0.2" /><rect fill="black" height="4.0" stroke="none" stroke-width="0" width="4.0" x="563.0" y="3.0" /><rect fill="black" height="4.2" stroke="none" stroke-width="0" width="4.2" x="572.9" y="2.9" /><rect fill="black" height="4.0" stroke="none" stroke-width="0" width="4.0" x="583.0" y="3.0" /><rect fill="black" height="4.1" stroke="none" stroke-width="0" width="4.1" x="593.0" y="3.0" /><rect fill="black" height="4.5" stroke="none" stroke-width="0" width="4.5" x="602.7" y="2.7" /><rect fill="black" height="4.2" stroke="none" stroke-width="0" width="4.2" x="612.9" y="2.9" /><rect fill="black" height="4.5" stroke="none" stroke-width="0" width="4.5" x="622.7" y="2.7" /><rect fill="black" height="4.3" stroke="none" stroke-width="0" width="4.3" x="632.8" y="2.8" /><rect fill="black" height="3.8" stroke="none" stroke-width="0" width="3.8" x="643.1" y="3.1" /><rect fill="black" height="4.0" stroke="none" stroke-width="0" width="4.0" x="653.0" y="3.0" /><rect fill="black" height="4.1" stroke="none" stroke-width="0" width="4.1" x="663.0" y="3.0" /><rect fill="black" height="4.4" stroke="none" stroke-width="0" width="4.4" x="672.8" y="2.8" /><rect fill="black" height="4.8" stroke="none" stroke-width="0" width="4.8" x="682.6" y="2.6" /><rect fill="black" height="3.9" stroke="none" stroke-width="0" width="3.9" x="693.0" y="3.0" /><rect fill="black" height="4.2" stroke="none" stroke-width="0" width="4.2" x="702.9" y="2.9" /><rect fill="black" height="4.0" stroke="none" stroke-width="0" width="4.0" x="713.0" y="3.0" /><rect fill="black" height="4.0" stroke="none" stroke-width="0" width="4.0" x="723.0" y="3.0" /><rect fill="black" height="4.0" stroke="none" stroke-width="0" width="4.0" x="733.0" y="3.0" /><rect fill="black" height="5.2" stroke="none" stroke-width="0" width="5.2" x="742.4" y="2.4" /><rect fill="black" height="4.1" stroke="none" stroke-width="0" width="4.1" x="753.0" y="3.0" /><rect fill="black" height="4.2" stroke="none" stroke-width="0" width="4.2" x="762.9" y="2.9" /><rect fill="black" height="4.1" stroke="none" stroke-width="0" width="4.1" x="772.9" y="2.9" /><rect fill="black" height="4.0" stroke="none" stroke-width="0" width="4.0" x="783.0" y="3.0" /><rect fill="black" height="4.2" stroke="none" stroke-width="0" width="4.2" x="792.9" y="2.9" /><rect fill="black" height="4.4" stroke="none" stroke-width="0" width="4.4" x="802.8" y="2.8" /><rect fill="black" height="4.3" stroke="none" stroke-width="0" width="4.3" x="812.9" y="2.9" /><rect fill="black" height="4.3" stroke="none" stroke-width="0" width="4.3" x="822.8" y="2.8" /><rect fill="black" height="4.5" stroke="none" stroke-width="0" width="4.5" x="832.8" y="2.8" /><rect fill="black" height="4.5" stroke="none" stroke-width="0" width="4.5" x="842.7" y="2.7" /><rect fill="black" height="4.3" stroke="none" stroke-width="0" width="4.3" x="852.8" y="2.8" /><rect fill="black" height="4.7" stroke="none" stroke-width="0" width="4.7" x="862.7" y="2.7" /><rect fill="black" height="3.9" stroke="none" stroke-width="0" width="3.9" x="873.1" y="3.1" /><rect fill="black" height="4.2" stroke="none" stroke-width="0" width="4.2" x="882.9" y="2.9" /><rect fill="black" height="4.1" stroke="none" stroke-width="0" width="4.1" x="893.0" y="3.0" /><rect fill="black" height="4.1" stroke="none" stroke-width="0" width="4.1" x="902.9" y="2.9" /><rect fill="black" height="4.5" stroke="none" stroke-width="0" width="4.5" x="912.7" y="2.7" /><rect fill="black" height="5.8" stroke="none" stroke-width="0" width="5.8" x="922.1" y="2.1" /><rect fill="black" height="8.0" stroke="none" stroke-width="0" width="8.0" x="931.0" y="1.0" /><rect fill="black" height="4.9" stroke="none" stroke-width="0" width="4.9" x="942.6" y="2.6" /><rect fill="black" height="4.4" stroke="none" stroke-width="0" width="4.4" x="952.8" y="2.8" /><rect fill="black" height="4.1" stroke="none" stroke-width="0" width="4.1" x="962.9" y="2.9" /><rect fill="black" height="4.1" stroke="none" stroke-width="0" width="4.1" x="972.9" y="2.9" /><rect fill="black" height="3.9" stroke="none" stroke-width="0" width="3.9" x="983.0" y="3.0" /><rect fill="black" height="4.0" stroke="none" stroke-width="0" width="4.0" x="993.0" y="3.0" /><rect fill="black" height="4.2" stroke="none" stroke-width="0" width="4.2" x="1002.9" y="2.9" /><rect fill="black" height="4.5" stroke="none" stroke-width="0" width="4.5" x="1012.8" y="2.8" /><rect fill="black" height="4.9" stroke="none" stroke-width="0" width="4.9" x="1022.5" y="2.5" /><rect fill="black" height="4.7" stroke="none" stroke-width="0" width="4.7" x="1032.7" y="2.7" /><rect fill="black" height="4.5" stroke="none" stroke-width="0" width="4.5" x="1042.8" y="2.8" /><rect fill="black" height="4.5" stroke="none" stroke-width="0" width="4.5" x="1052.8" y="2.8" /><rect fill="black" height="4.3" stroke="none" stroke-width="0" width="4.3" x="1062.9" y="2.9" /><rect fill="black" height="4.2" stroke="none" stroke-width="0" width="4.2" x="1072.9" y="2.9" /><rect fill="black" height="4.4" stroke="none" stroke-width="0" width="4.4" x="1082.8" y="2.8" /><rect fill="black" height="4.1" stroke="none" stroke-width="0" width="4.1" x="1092.9" y="2.9" /><rect fill="black" height="4.3" stroke="none" stroke-width="0" width="4.3" x="1102.8" y="2.8" /><rect fill="black" height="3.8" stroke="none" stroke-width="0" width="3.8" x="1113.1" y="3.1" /></g><g><line stroke="black" stroke-width="0.5" x1="525.0" x2="525.0" y1="-4.0" y2="-7.0" /><text dominant-baseline="middle" font-size="6px" text-anchor="middle" x="525.0" y="-13.0">sin 26</text><line stroke="black" stroke-width="0.5" x1="445.0" x2="445.0" y1="-4.0" y2="-7.0" /><text dominant-baseline="middle" font-size="6px" text-anchor="middle" x="445.0" y="-13.0">sin 22</text><line stroke="black" stroke-width="0.5" x1="685.0" x2="685.0" y1="-4.0" y2="-7.0" /><text dominant-baseline="middle" font-size="6px" text-anchor="middle" x="685.0" y="-13.0">sin 34</text><line stroke="black" stroke-width="0.5" x1="945.0" x2="945.0" y1="-4.0" y2="-7.0" /><text dominant-baseline="middle" font-size="6px" text-anchor="middle" x="945.0" y="-13.0">sin 47</text><line stroke="black" stroke-width="0.5" x1="1025.0" x2="1025.0" y1="-4.0" y2="-7.0" /><text dominant-baseline="middle" font-size="6px" text-anchor="middle" x="1025.0" y="-13.0">sin 51</text><line stroke="black" stroke-width="0.5" x1="345.0" x2="345.0" y1="-4.0" y2="-7.0" /><text dominant-baseline="middle" font-size="6px" text-anchor="middle" x="345.0" y="-13.0">sin 17</text><line stroke="black" stroke-width="0.5" x1="185.0" x2="185.0" y1="-4.0" y2="-7.0" /><text dominant-baseline="middle" font-size="6px" text-anchor="middle" x="185.0" y="-13.0">sin 9</text><line stroke="black" stroke-width="0.5" x1="745.0" x2="745.0" y1="-4.0" y2="-7.0" /><text dominant-baseline="middle" font-size="6px" text-anchor="middle" x="745.0" y="-13.0">sin 37</text><line stroke="black" stroke-width="0.5" x1="365.0" x2="365.0" y1="-4.0" y2="-7.0" /><text dominant-baseline="middle" font-size="6px" text-anchor="middle" x="365.0" y="-13.0">sin 18</text><line stroke="black" stroke-width="0.5" x1="925.0" x2="925.0" y1="-4.0" y2="-7.0" /><text dominant-baseline="middle" font-size="6px" text-anchor="middle" x="925.0" y="-13.0">sin 46</text><line stroke="black" stroke-width="0.5" x1="545.0" x2="545.0" y1="-4.0" y2="-7.0" /><text dominant-baseline="middle" font-size="6px" text-anchor="middle" x="545.0" y="-13.0">sin 27</text><line stroke="black" stroke-width="0.5" x1="5.0" x2="5.0" y1="-4.0" y2="-7.0" /><text dominant-baseline="middle" font-size="6px" text-anchor="middle" x="5.0" y="-13.0">constant</text><line stroke="black" stroke-width="0.5" x1="535.0" x2="535.0" y1="14.0" y2="17.0" /><text dominant-baseline="middle" font-size="6px" text-anchor="middle" x="535.0" y="23.0">cos 26</text><line stroke="black" stroke-width="0.5" x1="375.0" x2="375.0" y1="14.0" y2="17.0" /><text dominant-baseline="middle" font-size="6px" text-anchor="middle" x="375.0" y="23.0">cos 18</text><line stroke="black" stroke-width="0.5" x1="935.0" x2="935.0" y1="14.0" y2="17.0" /><text dominant-baseline="middle" font-size="6px" text-anchor="middle" x="935.0" y="23.0">cos 46</text><line stroke="black" stroke-width="0.5" x1="555.0" x2="555.0" y1="14.0" y2="17.0" /><text dominant-baseline="middle" font-size="6px" text-anchor="middle" x="555.0" y="23.0">cos 27</text></g></svg>