<?xml version="1.0" encoding="utf-8" ?>
<svg baseProfile="full" height="100%" preserveAspectRatio="xMidYMid meet" version="1.1" viewBox="-40,-40,370,100" width="100%" xmlns="http://www.w3.org/2000/svg" xmlns:ev="http://www.w3.org/2001/xml-events" xmlns:xlink="http://www.w3.org/1999/xlink"><defs><style type="text/css"><![CDATA[
        @import url(https://cdn.jsdelivr.net/npm/firacode@6.2.0/distr/fira_code.css);
        text {
            font-family: 'STIX Two', 'STIX Two Math', 'STIXMath', 'DejaVu Math TeX Glyph',
                        'DejaVu Serif', 'Cambria Math', 'Latin Modern Math', 'FiraCode',
                        'serif';
        }
    ]]></style><style type="text/css"><![CDATA[
        @import url(https://cdn.jsdelivr.net/npm/firacode@6.2.0/distr/fira_code.css);
        text {
            font-family: 'STIX Two', 'STIX Two Math', 'STIXMath', 'DejaVu Math TeX Glyph',
                        'DejaVu Serif', 'Cambria Math', 'Latin Modern Math', 'FiraCode',
                        'serif';
        }
    ]]></style></defs><g><rect fill="black" height="9.5" stroke="none" stroke-width="0" width="9.5" x="0.3" y="0.3" /><rect fill="black" height="9.5" stroke="none" stroke-width="0" width="9.5" x="10.2" y="0.2" /><rect fill="black" height="5.4" stroke="none" stroke-width="0" width="5.4" x="22.3" y="2.3" /><rect fill="black" height="4.9" stroke="none" stroke-width="0" width="4.9" x="32.6" y="2.6" /><rect fill="black" height="4.1" stroke="none" stroke-width="0" width="4.1" x="43.0" y="3.0" /><rect fill="black" height="3.9" stroke="none" stroke-width="0" width="3.9" x="53.1" y="3.1" /><rect fill="black" height="3.4" stroke="none" stroke-width="0" width="3.4" x="63.3" y="3.3" /><rect fill="black" height="3.5" stroke="none" stroke-width="0" width="3.5" x="73.2" y="3.2" /><rect fill="black" height="3.2" stroke="none" stroke-width="0" width="3.2" x="83.4" y="3.4" /><rect fill="black" height="3.1" stroke="none" stroke-width="0" width="3.1" x="93.4" y="3.4" /><rect fill="black" height="3.0" stroke="none" stroke-width="0" width="3.0" x="103.5" y="3.5" /><rect fill="black" height="2.7" stroke="none" stroke-width="0" width="2.7" x="113.7" y="3.7" /><rect fill="black" height="2.6" stroke="none" stroke-width="0" width="2.6" x="123.7" y="3.7" /><rect fill="black" height="2.8" stroke="none" stroke-width="0" width="2.8" x="133.6" y="3.6" /><rect fill="black" height="2.8" stroke="none" stroke-width="0" width="2.8" x="143.6" y="3.6" /><rect fill="black" height="2.4" stroke="none" stroke-width="0" width="2.4" x="153.8" y="3.8" /><rect fill="black" height="2.6" stroke="none" stroke-width="0" width="2.6" x="163.7" y="3.7" /><rect fill="black" height="2.5" stroke="none" stroke-width="0" width="2.5" x="173.7" y="3.7" /><rect fill="black" height="2.2" stroke="none" stroke-width="0" width="2.2" x="183.9" y="3.9" /><rect fill="black" height="2.3" stroke="none" stroke-width="0" width="2.3" x="193.9" y="3.9" /><rect fill="black" height="2.2" stroke="none" stroke-width="0" width="2.2" x="203.9" y="3.9" /><rect fill="black" height="2.3" stroke="none" stroke-width="0" width="2.3" x="213.9" y="3.9" /><rect fill="black" height="2.4" stroke="none" stroke-width="0" width="2.4" x="223.8" y="3.8" /><rect fill="black" height="2.2" stroke="none" stroke-width="0" width="2.2" x="233.9" y="3.9" /><rect fill="black" height="2.5" stroke="none" stroke-width="0" width="2.5" x="243.7" y="3.7" /><rect fill="black" height="2.3" stroke="none" stroke-width="0" width="2.3" x="253.8" y="3.8" /><rect fill="black" height="2.1" stroke="none" stroke-width="0" width="2.1" x="263.9" y="3.9" /><rect fill="black" height="2.1" stroke="none" stroke-width="0" width="2.1" x="273.9" y="3.9" /><rect fill="black" height="3.2" stroke="none" stroke-width="0" width="3.2" x="283.4" y="3.4" /><rect fill="black" height="9.5" stroke="none" stroke-width="0" width="9.5" x="0.3" y="10.3" /><rect fill="black" height="9.5" stroke="none" stroke-width="0" width="9.5" x="10.3" y="10.3" /><rect fill="black" height="4.8" stroke="none" stroke-width="0" width="4.8" x="22.6" y="12.6" /><rect fill="black" height="3.9" stroke="none" stroke-width="0" width="3.9" x="33.1" y="13.1" /><rect fill="black" height="3.5" stroke="none" stroke-width="0" width="3.5" x="43.2" y="13.2" /><rect fill="black" height="3.0" stroke="none" stroke-width="0" width="3.0" x="53.5" y="13.5" /><rect fill="black" height="2.8" stroke="none" stroke-width="0" width="2.8" x="63.6" y="13.6" /><rect fill="black" height="2.3" stroke="none" stroke-width="0" width="2.3" x="73.9" y="13.9" /><rect fill="black" height="2.4" stroke="none" stroke-width="0" width="2.4" x="83.8" y="13.8" /><rect fill="black" height="2.2" stroke="none" stroke-width="0" width="2.2" x="93.9" y="13.9" /><rect fill="black" height="2.1" stroke="none" stroke-width="0" width="2.1" x="103.9" y="13.9" /><rect fill="black" height="2.1" stroke="none" stroke-width="0" width="2.1" x="113.9" y="13.9" /><rect fill="black" height="2.1" stroke="none" stroke-width="0" width="2.1" x="123.9" y="13.9" /><rect fill="black" height="2.1" stroke="none" stroke-width="0" width="2.1" x="133.9" y="13.9" /><rect fill="black" height="2.1" stroke="none" stroke-width="0" width="2.1" x="143.9" y="13.9" /><rect fill="black" height="2.1" stroke="none" stroke-width="0" width="2.1" x="153.9" y="13.9" /><rect fill="black" height="2.1" stroke="none" stroke-width="0" width="2.1" x="163.9" y="13.9" /><rect fill="black" height="2.1" stroke="none" stroke-width="0" width="2.1" x="173.9" y="13.9" /><rect fill="black" height="2.1" stroke="none" stroke-width="0" width="2.1" x="183.9" y="13.9" /><rect fill="black" height="2.1" stroke="none" stroke-width="0" width="2.1" x="193.9" y="13.9" /><rect fill="black" height="2.1" stroke="none" stroke-width="0" width="2.1" x="203.9" y="13.9" /><rect fill="black" height="2.1" stroke="none" stroke-width="0" width="2.1" x="213.9" y="13.9" /><rect fill="black" height="2.1" stroke="none" stroke-width="0" width="2.1" x="223.9" y="13.9" /><rect fill="black" height="2.1" stroke="none" stroke-width="0" width="2.1" x="233.9" y="13.9" /><rect fill="black" height="2.1" stroke="none" stroke-width="0" width="2.1" x="243.9" y="13.9" /><rect fill="black" height="2.1" stroke="none" stroke-width="0" width="2.1" x="253.9" y="13.9" /><rect fill="black" height="2.1" stroke="none" stroke-width="0" width="2.1" x="263.9" y="13.9" /><rect fill="black" height="2.1" stroke="none" stroke-width="0" width="2.1" x="273.9" y="13.9" /><rect fill="black" height="2.1" stroke="none" stroke-width="0" width="2.1" x="283.9" y="13.9" /></g><g><line stroke="black" stroke-width="0.5" x1="5.0" x2="5.0" y1="24.0" y2="27.0" /><text dominant-baseline="middle" font-size="6px" text-anchor="middle" x="5.0" y="33.0">2</text><line stroke="black" stroke-width="0.5" x1="25.0" x2="25.0" y1="24.0" y2="27.0" /><text dominant-baseline="middle" font-size="6px" text-anchor="middle" x="25.0" y="33.0">5</text><line stroke="black" stroke-width="0.5" x1="45.0" x2="45.0" y1="24.0" y2="27.0" /><text dominant-baseline="middle" font-size="6px" text-anchor="middle" x="45.0" y="33.0">11</text><line stroke="black" stroke-width="0.5" x1="65.0" x2="65.0" y1="24.0" y2="27.0" /><text dominant-baseline="middle" font-size="6px" text-anchor="middle" x="65.0" y="33.0">17</text><line stroke="black" stroke-width="0.5" x1="85.0" x2="85.0" y1="24.0" y2="27.0" /><text dominant-baseline="middle" font-size="6px" text-anchor="middle" x="85.0" y="33.0">23</text><line stroke="black" stroke-width="0.5" x1="105.0" x2="105.0" y1="24.0" y2="27.0" /><text dominant-baseline="middle" font-size="6px" text-anchor="middle" x="105.0" y="33.0">31</text><line stroke="black" stroke-width="0.5" x1="125.0" x2="125.0" y1="24.0" y2="27.0" /><text dominant-baseline="middle" font-size="6px" text-anchor="middle" x="125.0" y="33.0">41</text><line stroke="black" stroke-width="0.5" x1="145.0" x2="145.0" y1="24.0" y2="27.0" /><text dominant-baseline="middle" font-size="6px" text-anchor="middle" x="145.0" y="33.0">47</text><line stroke="black" stroke-width="0.5" x1="165.0" x2="165.0" y1="24.0" y2="27.0" /><text dominant-baseline="middle" font-size="6px" text-anchor="middle" x="165.0" y="33.0">59</text><line stroke="black" stroke-width="0.5" x1="185.0" x2="185.0" y1="24.0" y2="27.0" /><text dominant-baseline="middle" font-size="6px" text-anchor="middle" x="185.0" y="33.0">67</text><line stroke="black" stroke-width="0.5" x1="205.0" x2="205.0" y1="24.0" y2="27.0" /><text dominant-baseline="middle" font-size="6px" text-anchor="middle" x="205.0" y="33.0">73</text><line stroke="black" stroke-width="0.5" x1="225.0" x2="225.0" y1="24.0" y2="27.0" /><text dominant-baseline="middle" font-size="6px" text-anchor="middle" x="225.0" y="33.0">83</text><line stroke="black" stroke-width="0.5" x1="245.0" x2="245.0" y1="24.0" y2="27.0" /><text dominant-baseline="middle" font-size="6px" text-anchor="middle" x="245.0" y="33.0">97</text><line stroke="black" stroke-width="0.5" x1="265.0" x2="265.0" y1="24.0" y2="27.0" /><text dominant-baseline="middle" font-size="6px" text-anchor="middle" x="265.0" y="33.0">103</text><line stroke="black" stroke-width="0.5" x1="285.0" x2="285.0" y1="24.0" y2="27.0" /><text dominant-baseline="middle" font-size="6px" text-anchor="middle" x="285.0" y="33.0">109</text><line stroke="black" stroke-width="0.5" x1="-4.0" x2="-7.0" y1="5.0" y2="5.0" /><text dominant-baseline="middle" font-size="6px" text-anchor="end" x="-13.0" y="5.0">Train</text><line stroke="black" stroke-width="0.5" x1="-4.0" x2="-7.0" y1="15.0" y2="15.0" /><text dominant-baseline="middle" font-size="6px" text-anchor="end" x="-13.0" y="15.0">Test</text></g></svg>