<?xml version="1.0" encoding="utf-8" ?>
<svg baseProfile="full" height="100%" preserveAspectRatio="xMidYMid meet" version="1.1" viewBox="-20,-20,410,50" width="100%" xmlns="http://www.w3.org/2000/svg" xmlns:ev="http://www.w3.org/2001/xml-events" xmlns:xlink="http://www.w3.org/1999/xlink"><defs><style type="text/css"><![CDATA[
        @import url(https://cdn.jsdelivr.net/npm/firacode@6.2.0/distr/fira_code.css);
        text { font-family: 'Fira Code', monospace; }
    ]]></style></defs><g><rect fill="black" height="9.0" stroke="none" stroke-width="0" width="9.0" x="0.5" y="0.5" /><rect fill="black" height="8.9" stroke="none" stroke-width="0" width="8.9" x="10.6" y="0.6" /><rect fill="black" height="8.8" stroke="none" stroke-width="0" width="8.8" x="20.6" y="0.6" /><rect fill="black" height="8.6" stroke="none" stroke-width="0" width="8.6" x="30.7" y="0.7" /><rect fill="black" height="8.6" stroke="none" stroke-width="0" width="8.6" x="40.7" y="0.7" /><rect fill="black" height="8.5" stroke="none" stroke-width="0" width="8.5" x="50.8" y="0.8" /><rect fill="black" height="8.5" stroke="none" stroke-width="0" width="8.5" x="60.8" y="0.8" /><rect fill="black" height="8.2" stroke="none" stroke-width="0" width="8.2" x="70.9" y="0.9" /><rect fill="black" height="8.2" stroke="none" stroke-width="0" width="8.2" x="80.9" y="0.9" /><rect fill="black" height="8.2" stroke="none" stroke-width="0" width="8.2" x="90.9" y="0.9" /><rect fill="black" height="8.1" stroke="none" stroke-width="0" width="8.1" x="100.9" y="0.9" /><rect fill="black" height="8.1" stroke="none" stroke-width="0" width="8.1" x="111.0" y="1.0" /><rect fill="black" height="8.0" stroke="none" stroke-width="0" width="8.0" x="121.0" y="1.0" /><rect fill="black" height="7.9" stroke="none" stroke-width="0" width="7.9" x="131.1" y="1.1" /><rect fill="black" height="7.8" stroke="none" stroke-width="0" width="7.8" x="141.1" y="1.1" /><rect fill="black" height="7.7" stroke="none" stroke-width="0" width="7.7" x="151.1" y="1.1" /><rect fill="black" height="7.6" stroke="none" stroke-width="0" width="7.6" x="161.2" y="1.2" /><rect fill="black" height="7.5" stroke="none" stroke-width="0" width="7.5" x="171.2" y="1.2" /><rect fill="black" height="7.5" stroke="none" stroke-width="0" width="7.5" x="181.3" y="1.3" /><rect fill="black" height="7.4" stroke="none" stroke-width="0" width="7.4" x="191.3" y="1.3" /><rect fill="black" height="7.3" stroke="none" stroke-width="0" width="7.3" x="201.4" y="1.4" /><rect fill="black" height="7.2" stroke="none" stroke-width="0" width="7.2" x="211.4" y="1.4" /><rect fill="black" height="7.1" stroke="none" stroke-width="0" width="7.1" x="221.5" y="1.5" /><rect fill="black" height="6.9" stroke="none" stroke-width="0" width="6.9" x="231.5" y="1.5" /><rect fill="black" height="6.9" stroke="none" stroke-width="0" width="6.9" x="241.6" y="1.6" /><rect fill="black" height="6.8" stroke="none" stroke-width="0" width="6.8" x="251.6" y="1.6" /><rect fill="black" height="6.7" stroke="none" stroke-width="0" width="6.7" x="261.7" y="1.7" /><rect fill="black" height="6.6" stroke="none" stroke-width="0" width="6.6" x="271.7" y="1.7" /><rect fill="black" height="6.5" stroke="none" stroke-width="0" width="6.5" x="281.7" y="1.7" /><rect fill="black" height="6.3" stroke="none" stroke-width="0" width="6.3" x="291.8" y="1.8" /><rect fill="black" height="6.2" stroke="none" stroke-width="0" width="6.2" x="301.9" y="1.9" /><rect fill="black" height="6.1" stroke="none" stroke-width="0" width="6.1" x="311.9" y="1.9" /><rect fill="black" height="5.8" stroke="none" stroke-width="0" width="5.8" x="322.1" y="2.1" /><rect fill="black" height="5.7" stroke="none" stroke-width="0" width="5.7" x="332.1" y="2.1" /><rect fill="black" height="5.7" stroke="none" stroke-width="0" width="5.7" x="342.2" y="2.2" /><rect fill="black" height="5.5" stroke="none" stroke-width="0" width="5.5" x="352.2" y="2.2" /><rect fill="black" height="5.4" stroke="none" stroke-width="0" width="5.4" x="362.3" y="2.3" /></g><g><line stroke="black" stroke-width="0.5" x1="15.0" x2="15.0" y1="14.0" y2="17.0" /><text dominant-baseline="middle" font-size="6px" text-anchor="middle" x="15.0" y="23.0">0.5</text><line stroke="black" stroke-width="0.5" x1="95.0" x2="95.0" y1="14.0" y2="17.0" /><text dominant-baseline="middle" font-size="6px" text-anchor="middle" x="95.0" y="23.0">0.75</text><line stroke="black" stroke-width="0.5" x1="365.0" x2="365.0" y1="14.0" y2="17.0" /><text dominant-baseline="middle" font-size="6px" text-anchor="middle" x="365.0" y="23.0">0.9</text></g></svg>