<?xml version="1.0" encoding="utf-8" ?>
<svg baseProfile="full" height="100%" preserveAspectRatio="xMidYMid meet" version="1.1" viewBox="-20,-20,330,60" width="100%" xmlns="http://www.w3.org/2000/svg" xmlns:ev="http://www.w3.org/2001/xml-events" xmlns:xlink="http://www.w3.org/1999/xlink"><defs><style type="text/css"><![CDATA[
        @import url(https://cdn.jsdelivr.net/npm/firacode@6.2.0/distr/fira_code.css);
        text { font-family: 'Fira Code', monospace; }
    ]]></style></defs><g><rect fill="black" height="9.0" stroke="none" stroke-width="0" width="9.0" x="0.5" y="0.5" /><rect fill="black" height="9.0" stroke="none" stroke-width="0" width="9.0" x="10.5" y="0.5" /><rect fill="black" height="5.5" stroke="none" stroke-width="0" width="5.5" x="22.3" y="2.3" /><rect fill="black" height="7.8" stroke="none" stroke-width="0" width="7.8" x="31.1" y="1.1" /><rect fill="black" height="5.7" stroke="none" stroke-width="0" width="5.7" x="42.2" y="2.2" /><rect fill="black" height="4.6" stroke="none" stroke-width="0" width="4.6" x="52.7" y="2.7" /><rect fill="black" height="4.1" stroke="none" stroke-width="0" width="4.1" x="62.9" y="2.9" /><rect fill="black" height="4.3" stroke="none" stroke-width="0" width="4.3" x="72.9" y="2.9" /><rect fill="black" height="3.6" stroke="none" stroke-width="0" width="3.6" x="83.2" y="3.2" /><rect fill="black" height="3.8" stroke="none" stroke-width="0" width="3.8" x="93.1" y="3.1" /><rect fill="black" height="3.7" stroke="none" stroke-width="0" width="3.7" x="103.1" y="3.1" /><rect fill="black" height="2.8" stroke="none" stroke-width="0" width="2.8" x="113.6" y="3.6" /><rect fill="black" height="3.7" stroke="none" stroke-width="0" width="3.7" x="123.2" y="3.2" /><rect fill="black" height="3.0" stroke="none" stroke-width="0" width="3.0" x="133.5" y="3.5" /><rect fill="black" height="2.7" stroke="none" stroke-width="0" width="2.7" x="143.6" y="3.6" /><rect fill="black" height="3.1" stroke="none" stroke-width="0" width="3.1" x="153.4" y="3.4" /><rect fill="black" height="3.6" stroke="none" stroke-width="0" width="3.6" x="163.2" y="3.2" /><rect fill="black" height="3.0" stroke="none" stroke-width="0" width="3.0" x="173.5" y="3.5" /><rect fill="black" height="3.0" stroke="none" stroke-width="0" width="3.0" x="183.5" y="3.5" /><rect fill="black" height="2.9" stroke="none" stroke-width="0" width="2.9" x="193.6" y="3.6" /><rect fill="black" height="2.9" stroke="none" stroke-width="0" width="2.9" x="203.5" y="3.5" /><rect fill="black" height="3.7" stroke="none" stroke-width="0" width="3.7" x="213.2" y="3.2" /><rect fill="black" height="3.7" stroke="none" stroke-width="0" width="3.7" x="223.1" y="3.1" /><rect fill="black" height="3.1" stroke="none" stroke-width="0" width="3.1" x="233.4" y="3.4" /><rect fill="black" height="2.6" stroke="none" stroke-width="0" width="2.6" x="243.7" y="3.7" /><rect fill="black" height="2.6" stroke="none" stroke-width="0" width="2.6" x="253.7" y="3.7" /><rect fill="black" height="3.0" stroke="none" stroke-width="0" width="3.0" x="263.5" y="3.5" /><rect fill="black" height="2.8" stroke="none" stroke-width="0" width="2.8" x="273.6" y="3.6" /><rect fill="black" height="2.2" stroke="none" stroke-width="0" width="2.2" x="283.9" y="3.9" /><rect fill="black" height="9.0" stroke="none" stroke-width="0" width="9.0" x="0.5" y="10.5" /><rect fill="black" height="8.9" stroke="none" stroke-width="0" width="8.9" x="10.6" y="10.6" /><rect fill="black" height="4.3" stroke="none" stroke-width="0" width="4.3" x="22.8" y="12.8" /><rect fill="black" height="5.5" stroke="none" stroke-width="0" width="5.5" x="32.3" y="12.3" /><rect fill="black" height="3.1" stroke="none" stroke-width="0" width="3.1" x="43.4" y="13.4" /><rect fill="black" height="2.7" stroke="none" stroke-width="0" width="2.7" x="53.7" y="13.7" /><rect fill="black" height="2.6" stroke="none" stroke-width="0" width="2.6" x="63.7" y="13.7" /><rect fill="black" height="2.6" stroke="none" stroke-width="0" width="2.6" x="73.7" y="13.7" /><rect fill="black" height="2.3" stroke="none" stroke-width="0" width="2.3" x="83.8" y="13.8" /><rect fill="black" height="2.0" stroke="none" stroke-width="0" width="2.0" x="94.0" y="14.0" /><rect fill="black" height="2.0" stroke="none" stroke-width="0" width="2.0" x="104.0" y="14.0" /><rect fill="black" height="2.0" stroke="none" stroke-width="0" width="2.0" x="114.0" y="14.0" /><rect fill="black" height="2.0" stroke="none" stroke-width="0" width="2.0" x="124.0" y="14.0" /><rect fill="black" height="2.0" stroke="none" stroke-width="0" width="2.0" x="134.0" y="14.0" /><rect fill="black" height="2.0" stroke="none" stroke-width="0" width="2.0" x="144.0" y="14.0" /><rect fill="black" height="2.0" stroke="none" stroke-width="0" width="2.0" x="154.0" y="14.0" /><rect fill="black" height="2.0" stroke="none" stroke-width="0" width="2.0" x="164.0" y="14.0" /><rect fill="black" height="2.0" stroke="none" stroke-width="0" width="2.0" x="174.0" y="14.0" /><rect fill="black" height="2.0" stroke="none" stroke-width="0" width="2.0" x="184.0" y="14.0" /><rect fill="black" height="2.0" stroke="none" stroke-width="0" width="2.0" x="194.0" y="14.0" /><rect fill="black" height="2.0" stroke="none" stroke-width="0" width="2.0" x="204.0" y="14.0" /><rect fill="black" height="2.0" stroke="none" stroke-width="0" width="2.0" x="214.0" y="14.0" /><rect fill="black" height="2.0" stroke="none" stroke-width="0" width="2.0" x="224.0" y="14.0" /><rect fill="black" height="2.0" stroke="none" stroke-width="0" width="2.0" x="234.0" y="14.0" /><rect fill="black" height="2.0" stroke="none" stroke-width="0" width="2.0" x="244.0" y="14.0" /><rect fill="black" height="2.0" stroke="none" stroke-width="0" width="2.0" x="254.0" y="14.0" /><rect fill="black" height="2.0" stroke="none" stroke-width="0" width="2.0" x="264.0" y="14.0" /><rect fill="black" height="2.0" stroke="none" stroke-width="0" width="2.0" x="274.0" y="14.0" /><rect fill="black" height="2.0" stroke="none" stroke-width="0" width="2.0" x="284.0" y="14.0" /></g><g><line stroke="black" stroke-width="0.5" x1="5.0" x2="5.0" y1="24.0" y2="27.0" /><text dominant-baseline="middle" font-size="6px" text-anchor="middle" x="5.0" y="33.0">2</text><line stroke="black" stroke-width="0.5" x1="25.0" x2="25.0" y1="24.0" y2="27.0" /><text dominant-baseline="middle" font-size="6px" text-anchor="middle" x="25.0" y="33.0">5</text><line stroke="black" stroke-width="0.5" x1="45.0" x2="45.0" y1="24.0" y2="27.0" /><text dominant-baseline="middle" font-size="6px" text-anchor="middle" x="45.0" y="33.0">11</text><line stroke="black" stroke-width="0.5" x1="65.0" x2="65.0" y1="24.0" y2="27.0" /><text dominant-baseline="middle" font-size="6px" text-anchor="middle" x="65.0" y="33.0">17</text><line stroke="black" stroke-width="0.5" x1="85.0" x2="85.0" y1="24.0" y2="27.0" /><text dominant-baseline="middle" font-size="6px" text-anchor="middle" x="85.0" y="33.0">23</text><line stroke="black" stroke-width="0.5" x1="105.0" x2="105.0" y1="24.0" y2="27.0" /><text dominant-baseline="middle" font-size="6px" text-anchor="middle" x="105.0" y="33.0">31</text><line stroke="black" stroke-width="0.5" x1="125.0" x2="125.0" y1="24.0" y2="27.0" /><text dominant-baseline="middle" font-size="6px" text-anchor="middle" x="125.0" y="33.0">41</text><line stroke="black" stroke-width="0.5" x1="145.0" x2="145.0" y1="24.0" y2="27.0" /><text dominant-baseline="middle" font-size="6px" text-anchor="middle" x="145.0" y="33.0">47</text><line stroke="black" stroke-width="0.5" x1="165.0" x2="165.0" y1="24.0" y2="27.0" /><text dominant-baseline="middle" font-size="6px" text-anchor="middle" x="165.0" y="33.0">59</text><line stroke="black" stroke-width="0.5" x1="185.0" x2="185.0" y1="24.0" y2="27.0" /><text dominant-baseline="middle" font-size="6px" text-anchor="middle" x="185.0" y="33.0">67</text><line stroke="black" stroke-width="0.5" x1="205.0" x2="205.0" y1="24.0" y2="27.0" /><text dominant-baseline="middle" font-size="6px" text-anchor="middle" x="205.0" y="33.0">73</text><line stroke="black" stroke-width="0.5" x1="225.0" x2="225.0" y1="24.0" y2="27.0" /><text dominant-baseline="middle" font-size="6px" text-anchor="middle" x="225.0" y="33.0">83</text><line stroke="black" stroke-width="0.5" x1="245.0" x2="245.0" y1="24.0" y2="27.0" /><text dominant-baseline="middle" font-size="6px" text-anchor="middle" x="245.0" y="33.0">97</text><line stroke="black" stroke-width="0.5" x1="265.0" x2="265.0" y1="24.0" y2="27.0" /><text dominant-baseline="middle" font-size="6px" text-anchor="middle" x="265.0" y="33.0">103</text><line stroke="black" stroke-width="0.5" x1="285.0" x2="285.0" y1="24.0" y2="27.0" /><text dominant-baseline="middle" font-size="6px" text-anchor="middle" x="285.0" y="33.0">109</text><line stroke="black" stroke-width="0.5" x1="-4.0" x2="-7.0" y1="5.0" y2="5.0" /><text dominant-baseline="middle" font-size="6px" text-anchor="end" x="-13.0" y="5.0">train</text><line stroke="black" stroke-width="0.5" x1="-4.0" x2="-7.0" y1="15.0" y2="15.0" /><text dominant-baseline="middle" font-size="6px" text-anchor="end" x="-13.0" y="15.0">valid</text></g></svg>