<?xml version="1.0" encoding="utf-8" ?>
<svg baseProfile="full" height="100%" preserveAspectRatio="xMidYMid meet" version="1.1" viewBox="-40,-40,1200,90" width="100%" xmlns="http://www.w3.org/2000/svg" xmlns:ev="http://www.w3.org/2001/xml-events" xmlns:xlink="http://www.w3.org/1999/xlink"><defs><style type="text/css"><![CDATA[
        @import url(https://cdn.jsdelivr.net/npm/firacode@6.2.0/distr/fira_code.css);
        text {
            font-family: 'STIX Two', 'STIX Two Math', 'STIXMath', 'DejaVu Math TeX Glyph',
                        'DejaVu Serif', 'Cambria Math', 'Latin Modern Math', 'FiraCode',
                        'serif';
        }
    ]]></style><style type="text/css"><![CDATA[
        @import url(https://cdn.jsdelivr.net/npm/firacode@6.2.0/distr/fira_code.css);
        text {
            font-family: 'STIX Two', 'STIX Two Math', 'STIXMath', 'DejaVu Math TeX Glyph',
                        'DejaVu Serif', 'Cambria Math', 'Latin Modern Math', 'FiraCode',
                        'serif';
        }
    ]]></style></defs><g><rect fill="black" height="5.9" stroke="none" stroke-width="0" width="5.9" x="2.1" y="2.1" /><rect fill="black" height="6.8" stroke="none" stroke-width="0" width="6.8" x="11.6" y="1.6" /><rect fill="black" height="6.5" stroke="none" stroke-width="0" width="6.5" x="21.8" y="1.8" /><rect fill="black" height="6.5" stroke="none" stroke-width="0" width="6.5" x="31.7" y="1.7" /><rect fill="black" height="6.6" stroke="none" stroke-width="0" width="6.6" x="41.7" y="1.7" /><rect fill="black" height="6.6" stroke="none" stroke-width="0" width="6.6" x="51.7" y="1.7" /><rect fill="black" height="6.5" stroke="none" stroke-width="0" width="6.5" x="61.8" y="1.8" /><rect fill="black" height="6.5" stroke="none" stroke-width="0" width="6.5" x="71.7" y="1.7" /><rect fill="black" height="6.4" stroke="none" stroke-width="0" width="6.4" x="81.8" y="1.8" /><rect fill="black" height="6.5" stroke="none" stroke-width="0" width="6.5" x="91.8" y="1.8" /><rect fill="black" height="6.3" stroke="none" stroke-width="0" width="6.3" x="101.9" y="1.9" /><rect fill="black" height="6.8" stroke="none" stroke-width="0" width="6.8" x="111.6" y="1.6" /><rect fill="black" height="6.5" stroke="none" stroke-width="0" width="6.5" x="121.8" y="1.8" /><rect fill="black" height="6.3" stroke="none" stroke-width="0" width="6.3" x="131.8" y="1.8" /><rect fill="black" height="6.6" stroke="none" stroke-width="0" width="6.6" x="141.7" y="1.7" /><rect fill="black" height="7.0" stroke="none" stroke-width="0" width="7.0" x="151.5" y="1.5" /><rect fill="black" height="6.6" stroke="none" stroke-width="0" width="6.6" x="161.7" y="1.7" /><rect fill="black" height="6.7" stroke="none" stroke-width="0" width="6.7" x="171.6" y="1.6" /><rect fill="black" height="6.5" stroke="none" stroke-width="0" width="6.5" x="181.7" y="1.7" /><rect fill="black" height="6.7" stroke="none" stroke-width="0" width="6.7" x="191.7" y="1.7" /><rect fill="black" height="6.9" stroke="none" stroke-width="0" width="6.9" x="201.6" y="1.6" /><rect fill="black" height="7.3" stroke="none" stroke-width="0" width="7.3" x="211.4" y="1.4" /><rect fill="black" height="8.2" stroke="none" stroke-width="0" width="8.2" x="220.9" y="0.9" /><rect fill="black" height="7.0" stroke="none" stroke-width="0" width="7.0" x="231.5" y="1.5" /><rect fill="black" height="6.6" stroke="none" stroke-width="0" width="6.6" x="241.7" y="1.7" /><rect fill="black" height="6.7" stroke="none" stroke-width="0" width="6.7" x="251.6" y="1.6" /><rect fill="black" height="6.7" stroke="none" stroke-width="0" width="6.7" x="261.7" y="1.7" /><rect fill="black" height="6.6" stroke="none" stroke-width="0" width="6.6" x="271.7" y="1.7" /><rect fill="black" height="6.4" stroke="none" stroke-width="0" width="6.4" x="281.8" y="1.8" /><rect fill="black" height="6.8" stroke="none" stroke-width="0" width="6.8" x="291.6" y="1.6" /><rect fill="black" height="7.0" stroke="none" stroke-width="0" width="7.0" x="301.5" y="1.5" /><rect fill="black" height="7.3" stroke="none" stroke-width="0" width="7.3" x="311.4" y="1.4" /><rect fill="black" height="7.0" stroke="none" stroke-width="0" width="7.0" x="321.5" y="1.5" /><rect fill="black" height="6.5" stroke="none" stroke-width="0" width="6.5" x="331.8" y="1.8" /><rect fill="black" height="6.8" stroke="none" stroke-width="0" width="6.8" x="341.6" y="1.6" /><rect fill="black" height="7.2" stroke="none" stroke-width="0" width="7.2" x="351.4" y="1.4" /><rect fill="black" height="7.2" stroke="none" stroke-width="0" width="7.2" x="361.4" y="1.4" /><rect fill="black" height="8.8" stroke="none" stroke-width="0" width="8.8" x="370.6" y="0.6" /><rect fill="black" height="6.9" stroke="none" stroke-width="0" width="6.9" x="381.5" y="1.5" /><rect fill="black" height="6.6" stroke="none" stroke-width="0" width="6.6" x="391.7" y="1.7" /><rect fill="black" height="6.9" stroke="none" stroke-width="0" width="6.9" x="401.6" y="1.6" /><rect fill="black" height="6.7" stroke="none" stroke-width="0" width="6.7" x="411.6" y="1.6" /><rect fill="black" height="6.6" stroke="none" stroke-width="0" width="6.6" x="421.7" y="1.7" /><rect fill="black" height="6.4" stroke="none" stroke-width="0" width="6.4" x="431.8" y="1.8" /><rect fill="black" height="8.2" stroke="none" stroke-width="0" width="8.2" x="440.9" y="0.9" /><rect fill="black" height="6.8" stroke="none" stroke-width="0" width="6.8" x="451.6" y="1.6" /><rect fill="black" height="7.0" stroke="none" stroke-width="0" width="7.0" x="461.5" y="1.5" /><rect fill="black" height="7.8" stroke="none" stroke-width="0" width="7.8" x="471.1" y="1.1" /><rect fill="black" height="7.1" stroke="none" stroke-width="0" width="7.1" x="481.4" y="1.4" /><rect fill="black" height="6.4" stroke="none" stroke-width="0" width="6.4" x="491.8" y="1.8" /><rect fill="black" height="6.9" stroke="none" stroke-width="0" width="6.9" x="501.6" y="1.6" /><rect fill="black" height="6.9" stroke="none" stroke-width="0" width="6.9" x="511.6" y="1.6" /><rect fill="black" height="6.8" stroke="none" stroke-width="0" width="6.8" x="521.6" y="1.6" /><rect fill="black" height="6.7" stroke="none" stroke-width="0" width="6.7" x="531.6" y="1.6" /><rect fill="black" height="6.9" stroke="none" stroke-width="0" width="6.9" x="541.6" y="1.6" /><rect fill="black" height="9.5" stroke="none" stroke-width="0" width="9.5" x="550.2" y="0.2" /><rect fill="black" height="6.2" stroke="none" stroke-width="0" width="6.2" x="561.9" y="1.9" /><rect fill="black" height="6.6" stroke="none" stroke-width="0" width="6.6" x="571.7" y="1.7" /><rect fill="black" height="6.6" stroke="none" stroke-width="0" width="6.6" x="581.7" y="1.7" /><rect fill="black" height="6.3" stroke="none" stroke-width="0" width="6.3" x="591.8" y="1.8" /><rect fill="black" height="6.7" stroke="none" stroke-width="0" width="6.7" x="601.6" y="1.6" /><rect fill="black" height="6.7" stroke="none" stroke-width="0" width="6.7" x="611.6" y="1.6" /><rect fill="black" height="6.7" stroke="none" stroke-width="0" width="6.7" x="621.7" y="1.7" /><rect fill="black" height="6.6" stroke="none" stroke-width="0" width="6.6" x="631.7" y="1.7" /><rect fill="black" height="6.2" stroke="none" stroke-width="0" width="6.2" x="641.9" y="1.9" /><rect fill="black" height="6.5" stroke="none" stroke-width="0" width="6.5" x="651.8" y="1.8" /><rect fill="black" height="6.5" stroke="none" stroke-width="0" width="6.5" x="661.7" y="1.7" /><rect fill="black" height="6.5" stroke="none" stroke-width="0" width="6.5" x="671.7" y="1.7" /><rect fill="black" height="6.2" stroke="none" stroke-width="0" width="6.2" x="681.9" y="1.9" /><rect fill="black" height="6.3" stroke="none" stroke-width="0" width="6.3" x="691.9" y="1.9" /><rect fill="black" height="6.6" stroke="none" stroke-width="0" width="6.6" x="701.7" y="1.7" /><rect fill="black" height="8.1" stroke="none" stroke-width="0" width="8.1" x="711.0" y="1.0" /><rect fill="black" height="6.5" stroke="none" stroke-width="0" width="6.5" x="721.8" y="1.8" /><rect fill="black" height="6.2" stroke="none" stroke-width="0" width="6.2" x="731.9" y="1.9" /><rect fill="black" height="6.5" stroke="none" stroke-width="0" width="6.5" x="741.8" y="1.8" /><rect fill="black" height="6.5" stroke="none" stroke-width="0" width="6.5" x="751.8" y="1.8" /><rect fill="black" height="6.7" stroke="none" stroke-width="0" width="6.7" x="761.6" y="1.6" /><rect fill="black" height="6.8" stroke="none" stroke-width="0" width="6.8" x="771.6" y="1.6" /><rect fill="black" height="7.3" stroke="none" stroke-width="0" width="7.3" x="781.4" y="1.4" /><rect fill="black" height="6.7" stroke="none" stroke-width="0" width="6.7" x="791.6" y="1.6" /><rect fill="black" height="6.0" stroke="none" stroke-width="0" width="6.0" x="802.0" y="2.0" /><rect fill="black" height="6.8" stroke="none" stroke-width="0" width="6.8" x="811.6" y="1.6" /><rect fill="black" height="6.5" stroke="none" stroke-width="0" width="6.5" x="821.7" y="1.7" /><rect fill="black" height="6.1" stroke="none" stroke-width="0" width="6.1" x="831.9" y="1.9" /><rect fill="black" height="6.6" stroke="none" stroke-width="0" width="6.6" x="841.7" y="1.7" /><rect fill="black" height="6.9" stroke="none" stroke-width="0" width="6.9" x="851.6" y="1.6" /><rect fill="black" height="6.9" stroke="none" stroke-width="0" width="6.9" x="861.5" y="1.5" /><rect fill="black" height="6.6" stroke="none" stroke-width="0" width="6.6" x="871.7" y="1.7" /><rect fill="black" height="6.4" stroke="none" stroke-width="0" width="6.4" x="881.8" y="1.8" /><rect fill="black" height="6.9" stroke="none" stroke-width="0" width="6.9" x="891.6" y="1.6" /><rect fill="black" height="7.1" stroke="none" stroke-width="0" width="7.1" x="901.4" y="1.4" /><rect fill="black" height="6.8" stroke="none" stroke-width="0" width="6.8" x="911.6" y="1.6" /><rect fill="black" height="7.0" stroke="none" stroke-width="0" width="7.0" x="921.5" y="1.5" /><rect fill="black" height="8.7" stroke="none" stroke-width="0" width="8.7" x="930.6" y="0.6" /><rect fill="black" height="6.5" stroke="none" stroke-width="0" width="6.5" x="941.7" y="1.7" /><rect fill="black" height="6.8" stroke="none" stroke-width="0" width="6.8" x="951.6" y="1.6" /><rect fill="black" height="6.8" stroke="none" stroke-width="0" width="6.8" x="961.6" y="1.6" /><rect fill="black" height="6.1" stroke="none" stroke-width="0" width="6.1" x="971.9" y="1.9" /><rect fill="black" height="6.2" stroke="none" stroke-width="0" width="6.2" x="981.9" y="1.9" /><rect fill="black" height="6.7" stroke="none" stroke-width="0" width="6.7" x="991.6" y="1.6" /><rect fill="black" height="8.2" stroke="none" stroke-width="0" width="8.2" x="1000.9" y="0.9" /><rect fill="black" height="6.3" stroke="none" stroke-width="0" width="6.3" x="1011.8" y="1.8" /><rect fill="black" height="6.5" stroke="none" stroke-width="0" width="6.5" x="1021.7" y="1.7" /><rect fill="black" height="8.0" stroke="none" stroke-width="0" width="8.0" x="1031.0" y="1.0" /><rect fill="black" height="7.5" stroke="none" stroke-width="0" width="7.5" x="1041.3" y="1.3" /><rect fill="black" height="6.9" stroke="none" stroke-width="0" width="6.9" x="1051.5" y="1.5" /><rect fill="black" height="6.4" stroke="none" stroke-width="0" width="6.4" x="1061.8" y="1.8" /><rect fill="black" height="7.1" stroke="none" stroke-width="0" width="7.1" x="1071.5" y="1.5" /><rect fill="black" height="6.3" stroke="none" stroke-width="0" width="6.3" x="1081.8" y="1.8" /><rect fill="black" height="6.1" stroke="none" stroke-width="0" width="6.1" x="1092.0" y="2.0" /><rect fill="black" height="6.2" stroke="none" stroke-width="0" width="6.2" x="1101.9" y="1.9" /><rect fill="black" height="6.3" stroke="none" stroke-width="0" width="6.3" x="1111.8" y="1.8" /></g><g><line stroke="black" stroke-width="0.5" x1="545.0" x2="545.0" y1="-4.0" y2="-7.0" /><text dominant-baseline="middle" font-size="6px" text-anchor="middle" x="545.0" y="-13.0">sin 27</text><line stroke="black" stroke-width="0.5" x1="865.0" x2="865.0" y1="-4.0" y2="-7.0" /><text dominant-baseline="middle" font-size="6px" text-anchor="middle" x="865.0" y="-13.0">sin 43</text><line stroke="black" stroke-width="0.5" x1="385.0" x2="385.0" y1="-4.0" y2="-7.0" /><text dominant-baseline="middle" font-size="6px" text-anchor="middle" x="385.0" y="-13.0">sin 19</text><line stroke="black" stroke-width="0.5" x1="325.0" x2="325.0" y1="-4.0" y2="-7.0" /><text dominant-baseline="middle" font-size="6px" text-anchor="middle" x="325.0" y="-13.0">sin 16</text><line stroke="black" stroke-width="0.5" x1="305.0" x2="305.0" y1="-4.0" y2="-7.0" /><text dominant-baseline="middle" font-size="6px" text-anchor="middle" x="305.0" y="-13.0">sin 15</text><line stroke="black" stroke-width="0.5" x1="465.0" x2="465.0" y1="-4.0" y2="-7.0" /><text dominant-baseline="middle" font-size="6px" text-anchor="middle" x="465.0" y="-13.0">sin 23</text><line stroke="black" stroke-width="0.5" x1="925.0" x2="925.0" y1="-4.0" y2="-7.0" /><text dominant-baseline="middle" font-size="6px" text-anchor="middle" x="925.0" y="-13.0">sin 46</text><line stroke="black" stroke-width="0.5" x1="905.0" x2="905.0" y1="-4.0" y2="-7.0" /><text dominant-baseline="middle" font-size="6px" text-anchor="middle" x="905.0" y="-13.0">sin 45</text><line stroke="black" stroke-width="0.5" x1="485.0" x2="485.0" y1="-4.0" y2="-7.0" /><text dominant-baseline="middle" font-size="6px" text-anchor="middle" x="485.0" y="-13.0">sin 24</text><line stroke="black" stroke-width="0.5" x1="365.0" x2="365.0" y1="-4.0" y2="-7.0" /><text dominant-baseline="middle" font-size="6px" text-anchor="middle" x="365.0" y="-13.0">sin 18</text><line stroke="black" stroke-width="0.5" x1="785.0" x2="785.0" y1="-4.0" y2="-7.0" /><text dominant-baseline="middle" font-size="6px" text-anchor="middle" x="785.0" y="-13.0">sin 39</text><line stroke="black" stroke-width="0.5" x1="1045.0" x2="1045.0" y1="-4.0" y2="-7.0" /><text dominant-baseline="middle" font-size="6px" text-anchor="middle" x="1045.0" y="-13.0">sin 52</text><line stroke="black" stroke-width="0.5" x1="1005.0" x2="1005.0" y1="-4.0" y2="-7.0" /><text dominant-baseline="middle" font-size="6px" text-anchor="middle" x="1005.0" y="-13.0">sin 50</text><line stroke="black" stroke-width="0.5" x1="225.0" x2="225.0" y1="-4.0" y2="-7.0" /><text dominant-baseline="middle" font-size="6px" text-anchor="middle" x="225.0" y="-13.0">sin 11</text><line stroke="black" stroke-width="0.5" x1="445.0" x2="445.0" y1="-4.0" y2="-7.0" /><text dominant-baseline="middle" font-size="6px" text-anchor="middle" x="445.0" y="-13.0">sin 22</text><line stroke="black" stroke-width="0.5" x1="855.0" x2="855.0" y1="14.0" y2="17.0" /><text dominant-baseline="middle" font-size="6px" text-anchor="middle" x="855.0" y="23.0">cos 42</text><line stroke="black" stroke-width="0.5" x1="895.0" x2="895.0" y1="14.0" y2="17.0" /><text dominant-baseline="middle" font-size="6px" text-anchor="middle" x="895.0" y="23.0">cos 44</text><line stroke="black" stroke-width="0.5" x1="515.0" x2="515.0" y1="14.0" y2="17.0" /><text dominant-baseline="middle" font-size="6px" text-anchor="middle" x="515.0" y="23.0">cos 25</text><line stroke="black" stroke-width="0.5" x1="1055.0" x2="1055.0" y1="14.0" y2="17.0" /><text dominant-baseline="middle" font-size="6px" text-anchor="middle" x="1055.0" y="23.0">cos 52</text><line stroke="black" stroke-width="0.5" x1="155.0" x2="155.0" y1="14.0" y2="17.0" /><text dominant-baseline="middle" font-size="6px" text-anchor="middle" x="155.0" y="23.0">cos 7</text><line stroke="black" stroke-width="0.5" x1="235.0" x2="235.0" y1="14.0" y2="17.0" /><text dominant-baseline="middle" font-size="6px" text-anchor="middle" x="235.0" y="23.0">cos 11</text><line stroke="black" stroke-width="0.5" x1="1075.0" x2="1075.0" y1="14.0" y2="17.0" /><text dominant-baseline="middle" font-size="6px" text-anchor="middle" x="1075.0" y="23.0">cos 53</text><line stroke="black" stroke-width="0.5" x1="355.0" x2="355.0" y1="14.0" y2="17.0" /><text dominant-baseline="middle" font-size="6px" text-anchor="middle" x="355.0" y="23.0">cos 17</text><line stroke="black" stroke-width="0.5" x1="315.0" x2="315.0" y1="14.0" y2="17.0" /><text dominant-baseline="middle" font-size="6px" text-anchor="middle" x="315.0" y="23.0">cos 15</text><line stroke="black" stroke-width="0.5" x1="215.0" x2="215.0" y1="14.0" y2="17.0" /><text dominant-baseline="middle" font-size="6px" text-anchor="middle" x="215.0" y="23.0">cos 10</text><line stroke="black" stroke-width="0.5" x1="475.0" x2="475.0" y1="14.0" y2="17.0" /><text dominant-baseline="middle" font-size="6px" text-anchor="middle" x="475.0" y="23.0">cos 23</text><line stroke="black" stroke-width="0.5" x1="1035.0" x2="1035.0" y1="14.0" y2="17.0" /><text dominant-baseline="middle" font-size="6px" text-anchor="middle" x="1035.0" y="23.0">cos 51</text><line stroke="black" stroke-width="0.5" x1="715.0" x2="715.0" y1="14.0" y2="17.0" /><text dominant-baseline="middle" font-size="6px" text-anchor="middle" x="715.0" y="23.0">cos 35</text><line stroke="black" stroke-width="0.5" x1="935.0" x2="935.0" y1="14.0" y2="17.0" /><text dominant-baseline="middle" font-size="6px" text-anchor="middle" x="935.0" y="23.0">cos 46</text><line stroke="black" stroke-width="0.5" x1="375.0" x2="375.0" y1="14.0" y2="17.0" /><text dominant-baseline="middle" font-size="6px" text-anchor="middle" x="375.0" y="23.0">cos 18</text><line stroke="black" stroke-width="0.5" x1="555.0" x2="555.0" y1="14.0" y2="17.0" /><text dominant-baseline="middle" font-size="6px" text-anchor="middle" x="555.0" y="23.0">cos 27</text></g></svg>