<?xml version="1.0" encoding="utf-8" ?>
<svg baseProfile="full" height="100%" preserveAspectRatio="xMidYMid meet" version="1.1" viewBox="-40,-40,370,100" width="100%" xmlns="http://www.w3.org/2000/svg" xmlns:ev="http://www.w3.org/2001/xml-events" xmlns:xlink="http://www.w3.org/1999/xlink"><defs><style type="text/css"><![CDATA[
        @import url(https://cdn.jsdelivr.net/npm/firacode@6.2.0/distr/fira_code.css);
        text {
            font-family: 'STIX Two', 'STIX Two Math', 'STIXMath', 'DejaVu Math TeX Glyph',
                        'DejaVu Serif', 'Cambria Math', 'Latin Modern Math', 'FiraCode',
                        'serif';
        }
    ]]></style><style type="text/css"><![CDATA[
        @import url(https://cdn.jsdelivr.net/npm/firacode@6.2.0/distr/fira_code.css);
        text {
            font-family: 'STIX Two', 'STIX Two Math', 'STIXMath', 'DejaVu Math TeX Glyph',
                        'DejaVu Serif', 'Cambria Math', 'Latin Modern Math', 'FiraCode',
                        'serif';
        }
    ]]></style></defs><g><rect fill="black" height="9.5" stroke="none" stroke-width="0" width="9.5" x="0.3" y="0.3" /><rect fill="black" height="9.5" stroke="none" stroke-width="0" width="9.5" x="10.2" y="0.2" /><rect fill="black" height="9.5" stroke="none" stroke-width="0" width="9.5" x="20.2" y="0.2" /><rect fill="black" height="9.5" stroke="none" stroke-width="0" width="9.5" x="30.2" y="0.2" /><rect fill="black" height="8.8" stroke="none" stroke-width="0" width="8.8" x="40.6" y="0.6" /><rect fill="black" height="8.7" stroke="none" stroke-width="0" width="8.7" x="50.7" y="0.7" /><rect fill="black" height="9.1" stroke="none" stroke-width="0" width="9.1" x="60.4" y="0.4" /><rect fill="black" height="8.8" stroke="none" stroke-width="0" width="8.8" x="70.6" y="0.6" /><rect fill="black" height="8.4" stroke="none" stroke-width="0" width="8.4" x="80.8" y="0.8" /><rect fill="black" height="8.7" stroke="none" stroke-width="0" width="8.7" x="90.6" y="0.6" /><rect fill="black" height="8.3" stroke="none" stroke-width="0" width="8.3" x="100.8" y="0.8" /><rect fill="black" height="8.6" stroke="none" stroke-width="0" width="8.6" x="110.7" y="0.7" /><rect fill="black" height="7.9" stroke="none" stroke-width="0" width="7.9" x="121.0" y="1.0" /><rect fill="black" height="7.7" stroke="none" stroke-width="0" width="7.7" x="131.2" y="1.2" /><rect fill="black" height="8.5" stroke="none" stroke-width="0" width="8.5" x="140.8" y="0.8" /><rect fill="black" height="6.5" stroke="none" stroke-width="0" width="6.5" x="151.8" y="1.8" /><rect fill="black" height="7.6" stroke="none" stroke-width="0" width="7.6" x="161.2" y="1.2" /><rect fill="black" height="7.7" stroke="none" stroke-width="0" width="7.7" x="171.2" y="1.2" /><rect fill="black" height="7.5" stroke="none" stroke-width="0" width="7.5" x="181.3" y="1.3" /><rect fill="black" height="5.6" stroke="none" stroke-width="0" width="5.6" x="192.2" y="2.2" /><rect fill="black" height="6.4" stroke="none" stroke-width="0" width="6.4" x="201.8" y="1.8" /><rect fill="black" height="5.4" stroke="none" stroke-width="0" width="5.4" x="212.3" y="2.3" /><rect fill="black" height="6.3" stroke="none" stroke-width="0" width="6.3" x="221.9" y="1.9" /><rect fill="black" height="5.7" stroke="none" stroke-width="0" width="5.7" x="232.1" y="2.1" /><rect fill="black" height="7.5" stroke="none" stroke-width="0" width="7.5" x="241.2" y="1.2" /><rect fill="black" height="6.5" stroke="none" stroke-width="0" width="6.5" x="251.8" y="1.8" /><rect fill="black" height="5.1" stroke="none" stroke-width="0" width="5.1" x="262.5" y="2.5" /><rect fill="black" height="7.0" stroke="none" stroke-width="0" width="7.0" x="271.5" y="1.5" /><rect fill="black" height="5.6" stroke="none" stroke-width="0" width="5.6" x="282.2" y="2.2" /><rect fill="black" height="9.4" stroke="none" stroke-width="0" width="9.4" x="0.3" y="10.3" /><rect fill="black" height="9.5" stroke="none" stroke-width="0" width="9.5" x="10.3" y="10.3" /><rect fill="black" height="9.5" stroke="none" stroke-width="0" width="9.5" x="20.3" y="10.3" /><rect fill="black" height="9.2" stroke="none" stroke-width="0" width="9.2" x="30.4" y="10.4" /><rect fill="black" height="2.5" stroke="none" stroke-width="0" width="2.5" x="43.8" y="13.8" /><rect fill="black" height="2.1" stroke="none" stroke-width="0" width="2.1" x="53.9" y="13.9" /><rect fill="black" height="2.1" stroke="none" stroke-width="0" width="2.1" x="63.9" y="13.9" /><rect fill="black" height="2.1" stroke="none" stroke-width="0" width="2.1" x="73.9" y="13.9" /><rect fill="black" height="2.1" stroke="none" stroke-width="0" width="2.1" x="83.9" y="13.9" /><rect fill="black" height="2.1" stroke="none" stroke-width="0" width="2.1" x="93.9" y="13.9" /><rect fill="black" height="2.1" stroke="none" stroke-width="0" width="2.1" x="103.9" y="13.9" /><rect fill="black" height="2.1" stroke="none" stroke-width="0" width="2.1" x="113.9" y="13.9" /><rect fill="black" height="2.1" stroke="none" stroke-width="0" width="2.1" x="123.9" y="13.9" /><rect fill="black" height="2.1" stroke="none" stroke-width="0" width="2.1" x="133.9" y="13.9" /><rect fill="black" height="2.1" stroke="none" stroke-width="0" width="2.1" x="143.9" y="13.9" /><rect fill="black" height="2.1" stroke="none" stroke-width="0" width="2.1" x="153.9" y="13.9" /><rect fill="black" height="2.1" stroke="none" stroke-width="0" width="2.1" x="163.9" y="13.9" /><rect fill="black" height="2.1" stroke="none" stroke-width="0" width="2.1" x="173.9" y="13.9" /><rect fill="black" height="2.1" stroke="none" stroke-width="0" width="2.1" x="183.9" y="13.9" /><rect fill="black" height="2.1" stroke="none" stroke-width="0" width="2.1" x="193.9" y="13.9" /><rect fill="black" height="2.1" stroke="none" stroke-width="0" width="2.1" x="203.9" y="13.9" /><rect fill="black" height="2.1" stroke="none" stroke-width="0" width="2.1" x="213.9" y="13.9" /><rect fill="black" height="2.1" stroke="none" stroke-width="0" width="2.1" x="223.9" y="13.9" /><rect fill="black" height="2.1" stroke="none" stroke-width="0" width="2.1" x="233.9" y="13.9" /><rect fill="black" height="2.1" stroke="none" stroke-width="0" width="2.1" x="243.9" y="13.9" /><rect fill="black" height="2.1" stroke="none" stroke-width="0" width="2.1" x="253.9" y="13.9" /><rect fill="black" height="2.1" stroke="none" stroke-width="0" width="2.1" x="263.9" y="13.9" /><rect fill="black" height="2.1" stroke="none" stroke-width="0" width="2.1" x="273.9" y="13.9" /><rect fill="black" height="2.1" stroke="none" stroke-width="0" width="2.1" x="283.9" y="13.9" /></g><g><line stroke="black" stroke-width="0.5" x1="5.0" x2="5.0" y1="24.0" y2="27.0" /><text dominant-baseline="middle" font-size="6px" text-anchor="middle" x="5.0" y="33.0">2</text><line stroke="black" stroke-width="0.5" x1="15.0" x2="15.0" y1="24.0" y2="27.0" /><text dominant-baseline="middle" font-size="6px" text-anchor="middle" x="15.0" y="33.0">3</text><line stroke="black" stroke-width="0.5" x1="25.0" x2="25.0" y1="24.0" y2="27.0" /><text dominant-baseline="middle" font-size="6px" text-anchor="middle" x="25.0" y="33.0">5</text><line stroke="black" stroke-width="0.5" x1="35.0" x2="35.0" y1="24.0" y2="27.0" /><text dominant-baseline="middle" font-size="6px" text-anchor="middle" x="35.0" y="33.0">7</text><line stroke="black" stroke-width="0.5" x1="45.0" x2="45.0" y1="24.0" y2="27.0" /><text dominant-baseline="middle" font-size="6px" text-anchor="middle" x="45.0" y="33.0">11</text><line stroke="black" stroke-width="0.5" x1="55.0" x2="55.0" y1="24.0" y2="27.0" /><text dominant-baseline="middle" font-size="6px" text-anchor="middle" x="55.0" y="33.0">13</text><line stroke="black" stroke-width="0.5" x1="65.0" x2="65.0" y1="24.0" y2="27.0" /><text dominant-baseline="middle" font-size="6px" text-anchor="middle" x="65.0" y="33.0">17</text><line stroke="black" stroke-width="0.5" x1="75.0" x2="75.0" y1="24.0" y2="27.0" /><text dominant-baseline="middle" font-size="6px" text-anchor="middle" x="75.0" y="33.0">19</text><line stroke="black" stroke-width="0.5" x1="85.0" x2="85.0" y1="24.0" y2="27.0" /><text dominant-baseline="middle" font-size="6px" text-anchor="middle" x="85.0" y="33.0">23</text><line stroke="black" stroke-width="0.5" x1="95.0" x2="95.0" y1="24.0" y2="27.0" /><text dominant-baseline="middle" font-size="6px" text-anchor="middle" x="95.0" y="33.0">29</text><line stroke="black" stroke-width="0.5" x1="105.0" x2="105.0" y1="24.0" y2="27.0" /><text dominant-baseline="middle" font-size="6px" text-anchor="middle" x="105.0" y="33.0">31</text><line stroke="black" stroke-width="0.5" x1="115.0" x2="115.0" y1="24.0" y2="27.0" /><text dominant-baseline="middle" font-size="6px" text-anchor="middle" x="115.0" y="33.0">37</text><line stroke="black" stroke-width="0.5" x1="125.0" x2="125.0" y1="24.0" y2="27.0" /><text dominant-baseline="middle" font-size="6px" text-anchor="middle" x="125.0" y="33.0">41</text><line stroke="black" stroke-width="0.5" x1="135.0" x2="135.0" y1="24.0" y2="27.0" /><text dominant-baseline="middle" font-size="6px" text-anchor="middle" x="135.0" y="33.0">43</text><line stroke="black" stroke-width="0.5" x1="145.0" x2="145.0" y1="24.0" y2="27.0" /><text dominant-baseline="middle" font-size="6px" text-anchor="middle" x="145.0" y="33.0">47</text><line stroke="black" stroke-width="0.5" x1="155.0" x2="155.0" y1="24.0" y2="27.0" /><text dominant-baseline="middle" font-size="6px" text-anchor="middle" x="155.0" y="33.0">53</text><line stroke="black" stroke-width="0.5" x1="165.0" x2="165.0" y1="24.0" y2="27.0" /><text dominant-baseline="middle" font-size="6px" text-anchor="middle" x="165.0" y="33.0">59</text><line stroke="black" stroke-width="0.5" x1="175.0" x2="175.0" y1="24.0" y2="27.0" /><text dominant-baseline="middle" font-size="6px" text-anchor="middle" x="175.0" y="33.0">61</text><line stroke="black" stroke-width="0.5" x1="185.0" x2="185.0" y1="24.0" y2="27.0" /><text dominant-baseline="middle" font-size="6px" text-anchor="middle" x="185.0" y="33.0">67</text><line stroke="black" stroke-width="0.5" x1="195.0" x2="195.0" y1="24.0" y2="27.0" /><text dominant-baseline="middle" font-size="6px" text-anchor="middle" x="195.0" y="33.0">71</text><line stroke="black" stroke-width="0.5" x1="205.0" x2="205.0" y1="24.0" y2="27.0" /><text dominant-baseline="middle" font-size="6px" text-anchor="middle" x="205.0" y="33.0">73</text><line stroke="black" stroke-width="0.5" x1="215.0" x2="215.0" y1="24.0" y2="27.0" /><text dominant-baseline="middle" font-size="6px" text-anchor="middle" x="215.0" y="33.0">79</text><line stroke="black" stroke-width="0.5" x1="225.0" x2="225.0" y1="24.0" y2="27.0" /><text dominant-baseline="middle" font-size="6px" text-anchor="middle" x="225.0" y="33.0">83</text><line stroke="black" stroke-width="0.5" x1="235.0" x2="235.0" y1="24.0" y2="27.0" /><text dominant-baseline="middle" font-size="6px" text-anchor="middle" x="235.0" y="33.0">89</text><line stroke="black" stroke-width="0.5" x1="245.0" x2="245.0" y1="24.0" y2="27.0" /><text dominant-baseline="middle" font-size="6px" text-anchor="middle" x="245.0" y="33.0">97</text><line stroke="black" stroke-width="0.5" x1="255.0" x2="255.0" y1="24.0" y2="27.0" /><text dominant-baseline="middle" font-size="6px" text-anchor="middle" x="255.0" y="33.0">101</text><line stroke="black" stroke-width="0.5" x1="265.0" x2="265.0" y1="24.0" y2="27.0" /><text dominant-baseline="middle" font-size="6px" text-anchor="middle" x="265.0" y="33.0">103</text><line stroke="black" stroke-width="0.5" x1="275.0" x2="275.0" y1="24.0" y2="27.0" /><text dominant-baseline="middle" font-size="6px" text-anchor="middle" x="275.0" y="33.0">107</text><line stroke="black" stroke-width="0.5" x1="285.0" x2="285.0" y1="24.0" y2="27.0" /><text dominant-baseline="middle" font-size="6px" text-anchor="middle" x="285.0" y="33.0">109</text><line stroke="black" stroke-width="0.5" x1="-4.0" x2="-7.0" y1="5.0" y2="5.0" /><text dominant-baseline="middle" font-size="6px" text-anchor="end" x="-13.0" y="5.0">Train</text><line stroke="black" stroke-width="0.5" x1="-4.0" x2="-7.0" y1="15.0" y2="15.0" /><text dominant-baseline="middle" font-size="6px" text-anchor="end" x="-13.0" y="15.0">Test</text></g></svg>