<?xml version="1.0" encoding="utf-8" ?>
<svg baseProfile="full" height="100%" preserveAspectRatio="xMidYMid meet" version="1.1" viewBox="-40,-40,1210,100" width="100%" xmlns="http://www.w3.org/2000/svg" xmlns:ev="http://www.w3.org/2001/xml-events" xmlns:xlink="http://www.w3.org/1999/xlink"><defs><style type="text/css"><![CDATA[
        @import url(https://cdn.jsdelivr.net/npm/firacode@6.2.0/distr/fira_code.css);
        text {
            font-family: 'STIX Two', 'STIX Two Math', 'STIXMath', 'DejaVu Math TeX Glyph',
                        'DejaVu Serif', 'Cambria Math', 'Latin Modern Math', 'FiraCode',
                        'serif';
        }
    ]]></style><style type="text/css"><![CDATA[
        @import url(https://cdn.jsdelivr.net/npm/firacode@6.2.0/distr/fira_code.css);
        text {
            font-family: 'STIX Two', 'STIX Two Math', 'STIXMath', 'DejaVu Math TeX Glyph',
                        'DejaVu Serif', 'Cambria Math', 'Latin Modern Math', 'FiraCode',
                        'serif';
        }
    ]]></style></defs><g><rect fill="black" height="4.2" stroke="none" stroke-width="0" width="4.2" x="2.9" y="2.9" /><rect fill="white" height="6.3" stroke="black" stroke-width="0.5" width="6.3" x="11.9" y="1.9" /><rect fill="black" height="7.2" stroke="none" stroke-width="0" width="7.2" x="21.4" y="1.4" /><rect fill="white" height="8.1" stroke="black" stroke-width="0.5" width="8.1" x="31.0" y="1.0" /><rect fill="black" height="8.8" stroke="none" stroke-width="0" width="8.8" x="40.6" y="0.6" /><rect fill="white" height="8.6" stroke="black" stroke-width="0.5" width="8.6" x="50.7" y="0.7" /><rect fill="black" height="9.5" stroke="none" stroke-width="0" width="9.5" x="60.3" y="0.3" /><rect fill="white" height="7.8" stroke="black" stroke-width="0.5" width="7.8" x="71.1" y="1.1" /><rect fill="black" height="8.6" stroke="none" stroke-width="0" width="8.6" x="80.7" y="0.7" /><rect fill="white" height="6.1" stroke="black" stroke-width="0.5" width="6.1" x="91.9" y="1.9" /><rect fill="black" height="6.1" stroke="none" stroke-width="0" width="6.1" x="101.9" y="1.9" /><rect fill="white" height="2.8" stroke="black" stroke-width="0.5" width="2.8" x="113.6" y="3.6" /><rect fill="white" height="2.8" stroke="black" stroke-width="0.5" width="2.8" x="123.6" y="3.6" /><rect fill="black" height="5.1" stroke="none" stroke-width="0" width="5.1" x="132.5" y="2.5" /><rect fill="white" height="6.9" stroke="black" stroke-width="0.5" width="6.9" x="141.6" y="1.6" /><rect fill="black" height="7.6" stroke="none" stroke-width="0" width="7.6" x="151.2" y="1.2" /><rect fill="white" height="8.4" stroke="black" stroke-width="0.5" width="8.4" x="160.8" y="0.8" /><rect fill="black" height="8.9" stroke="none" stroke-width="0" width="8.9" x="170.5" y="0.5" /><rect fill="white" height="8.5" stroke="black" stroke-width="0.5" width="8.5" x="180.8" y="0.8" /><rect fill="black" height="9.5" stroke="none" stroke-width="0" width="9.5" x="190.2" y="0.2" /><rect fill="white" height="7.5" stroke="black" stroke-width="0.5" width="7.5" x="201.3" y="1.3" /><rect fill="black" height="8.1" stroke="none" stroke-width="0" width="8.1" x="210.9" y="0.9" /><rect fill="white" height="5.6" stroke="black" stroke-width="0.5" width="5.6" x="222.2" y="2.2" /><rect fill="black" height="5.2" stroke="none" stroke-width="0" width="5.2" x="232.4" y="2.4" /><rect fill="white" height="2.1" stroke="black" stroke-width="0.5" width="2.1" x="243.9" y="3.9" /><rect fill="white" height="4.2" stroke="black" stroke-width="0.5" width="4.2" x="252.9" y="2.9" /><rect fill="black" height="5.9" stroke="none" stroke-width="0" width="5.9" x="262.1" y="2.1" /><rect fill="white" height="7.3" stroke="black" stroke-width="0.5" width="7.3" x="271.4" y="1.4" /><rect fill="black" height="8.0" stroke="none" stroke-width="0" width="8.0" x="281.0" y="1.0" /><rect fill="white" height="8.6" stroke="black" stroke-width="0.5" width="8.6" x="290.7" y="0.7" /><rect fill="black" height="9.1" stroke="none" stroke-width="0" width="9.1" x="300.5" y="0.5" /><rect fill="white" height="8.3" stroke="black" stroke-width="0.5" width="8.3" x="310.8" y="0.8" /><rect fill="black" height="9.4" stroke="none" stroke-width="0" width="9.4" x="320.3" y="0.3" /><rect fill="white" height="7.1" stroke="black" stroke-width="0.5" width="7.1" x="331.5" y="1.5" /><rect fill="black" height="7.5" stroke="none" stroke-width="0" width="7.5" x="341.2" y="1.2" /><rect fill="white" height="5.1" stroke="black" stroke-width="0.5" width="5.1" x="352.5" y="2.5" /><rect fill="black" height="4.2" stroke="none" stroke-width="0" width="4.2" x="362.9" y="2.9" /><rect fill="black" height="2.6" stroke="none" stroke-width="0" width="2.6" x="373.7" y="3.7" /><rect fill="white" height="5.2" stroke="black" stroke-width="0.5" width="5.2" x="382.4" y="2.4" /><rect fill="black" height="6.5" stroke="none" stroke-width="0" width="6.5" x="391.7" y="1.7" /><rect fill="white" height="7.6" stroke="black" stroke-width="0.5" width="7.6" x="401.2" y="1.2" /><rect fill="black" height="8.3" stroke="none" stroke-width="0" width="8.3" x="410.8" y="0.8" /><rect fill="white" height="8.6" stroke="black" stroke-width="0.5" width="8.6" x="420.7" y="0.7" /><rect fill="black" height="9.3" stroke="none" stroke-width="0" width="9.3" x="430.4" y="0.4" /><rect fill="white" height="8.2" stroke="black" stroke-width="0.5" width="8.2" x="440.9" y="0.9" /><rect fill="black" height="9.1" stroke="none" stroke-width="0" width="9.1" x="450.5" y="0.5" /><rect fill="white" height="6.7" stroke="black" stroke-width="0.5" width="6.7" x="461.7" y="1.7" /><rect fill="black" height="7.0" stroke="none" stroke-width="0" width="7.0" x="471.5" y="1.5" /><rect fill="white" height="4.3" stroke="black" stroke-width="0.5" width="4.3" x="482.8" y="2.8" /><rect fill="black" height="2.9" stroke="none" stroke-width="0" width="2.9" x="493.6" y="3.6" /><rect fill="black" height="3.8" stroke="none" stroke-width="0" width="3.8" x="503.1" y="3.1" /><rect fill="white" height="6.0" stroke="black" stroke-width="0.5" width="6.0" x="512.0" y="2.0" /><rect fill="black" height="7.0" stroke="none" stroke-width="0" width="7.0" x="521.5" y="1.5" /><rect fill="white" height="7.9" stroke="black" stroke-width="0.5" width="7.9" x="531.0" y="1.0" /><rect fill="black" height="8.6" stroke="none" stroke-width="0" width="8.6" x="540.7" y="0.7" /><rect fill="white" height="8.6" stroke="black" stroke-width="0.5" width="8.6" x="550.7" y="0.7" /><rect fill="black" height="9.5" stroke="none" stroke-width="0" width="9.5" x="560.3" y="0.3" /><rect fill="white" height="8.0" stroke="black" stroke-width="0.5" width="8.0" x="571.0" y="1.0" /><rect fill="black" height="8.8" stroke="none" stroke-width="0" width="8.8" x="580.6" y="0.6" /><rect fill="white" height="6.3" stroke="black" stroke-width="0.5" width="6.3" x="591.9" y="1.9" /><rect fill="black" height="6.5" stroke="none" stroke-width="0" width="6.5" x="601.8" y="1.8" /><rect fill="white" height="3.4" stroke="black" stroke-width="0.5" width="3.4" x="613.3" y="3.3" /><rect fill="white" height="2.1" stroke="black" stroke-width="0.5" width="2.1" x="623.9" y="3.9" /><rect fill="black" height="4.6" stroke="none" stroke-width="0" width="4.6" x="632.7" y="2.7" /><rect fill="white" height="6.6" stroke="black" stroke-width="0.5" width="6.6" x="641.7" y="1.7" /><rect fill="black" height="7.4" stroke="none" stroke-width="0" width="7.4" x="651.3" y="1.3" /><rect fill="white" height="8.3" stroke="black" stroke-width="0.5" width="8.3" x="660.9" y="0.9" /><rect fill="black" height="8.8" stroke="none" stroke-width="0" width="8.8" x="670.6" y="0.6" /><rect fill="white" height="8.5" stroke="black" stroke-width="0.5" width="8.5" x="680.7" y="0.7" /><rect fill="black" height="9.4" stroke="none" stroke-width="0" width="9.4" x="690.3" y="0.3" /><rect fill="white" height="7.6" stroke="black" stroke-width="0.5" width="7.6" x="701.2" y="1.2" /><rect fill="black" height="8.4" stroke="none" stroke-width="0" width="8.4" x="710.8" y="0.8" /><rect fill="white" height="5.9" stroke="black" stroke-width="0.5" width="5.9" x="722.1" y="2.1" /><rect fill="black" height="5.8" stroke="none" stroke-width="0" width="5.8" x="732.1" y="2.1" /><rect fill="white" height="2.1" stroke="black" stroke-width="0.5" width="2.1" x="743.9" y="3.9" /><rect fill="white" height="3.6" stroke="black" stroke-width="0.5" width="3.6" x="753.2" y="3.2" /><rect fill="black" height="5.5" stroke="none" stroke-width="0" width="5.5" x="762.3" y="2.3" /><rect fill="white" height="7.1" stroke="black" stroke-width="0.5" width="7.1" x="771.5" y="1.5" /><rect fill="black" height="7.8" stroke="none" stroke-width="0" width="7.8" x="781.1" y="1.1" /><rect fill="white" height="8.4" stroke="black" stroke-width="0.5" width="8.4" x="790.8" y="0.8" /><rect fill="black" height="9.0" stroke="none" stroke-width="0" width="9.0" x="800.5" y="0.5" /><rect fill="white" height="8.4" stroke="black" stroke-width="0.5" width="8.4" x="810.8" y="0.8" /><rect fill="black" height="9.5" stroke="none" stroke-width="0" width="9.5" x="820.3" y="0.3" /><rect fill="white" height="7.3" stroke="black" stroke-width="0.5" width="7.3" x="831.4" y="1.4" /><rect fill="black" height="7.8" stroke="none" stroke-width="0" width="7.8" x="841.1" y="1.1" /><rect fill="white" height="5.4" stroke="black" stroke-width="0.5" width="5.4" x="852.3" y="2.3" /><rect fill="black" height="4.8" stroke="none" stroke-width="0" width="4.8" x="862.6" y="2.6" /><rect fill="black" height="2.1" stroke="none" stroke-width="0" width="2.1" x="873.9" y="3.9" /><rect fill="white" height="4.8" stroke="black" stroke-width="0.5" width="4.8" x="882.6" y="2.6" /><rect fill="black" height="6.1" stroke="none" stroke-width="0" width="6.1" x="891.9" y="1.9" /><rect fill="white" height="7.4" stroke="black" stroke-width="0.5" width="7.4" x="901.3" y="1.3" /><rect fill="black" height="8.1" stroke="none" stroke-width="0" width="8.1" x="910.9" y="0.9" /><rect fill="white" height="8.7" stroke="black" stroke-width="0.5" width="8.7" x="920.6" y="0.6" /><rect fill="black" height="9.3" stroke="none" stroke-width="0" width="9.3" x="930.4" y="0.4" /><rect fill="white" height="8.3" stroke="black" stroke-width="0.5" width="8.3" x="940.8" y="0.8" /><rect fill="black" height="9.3" stroke="none" stroke-width="0" width="9.3" x="950.3" y="0.3" /><rect fill="white" height="6.9" stroke="black" stroke-width="0.5" width="6.9" x="961.6" y="1.6" /><rect fill="black" height="7.4" stroke="none" stroke-width="0" width="7.4" x="971.3" y="1.3" /><rect fill="white" height="4.7" stroke="black" stroke-width="0.5" width="4.7" x="982.6" y="2.6" /><rect fill="black" height="3.7" stroke="none" stroke-width="0" width="3.7" x="993.2" y="3.2" /><rect fill="black" height="3.2" stroke="none" stroke-width="0" width="3.2" x="1003.4" y="3.4" /><rect fill="white" height="5.7" stroke="black" stroke-width="0.5" width="5.7" x="1012.2" y="2.2" /><rect fill="black" height="6.7" stroke="none" stroke-width="0" width="6.7" x="1021.6" y="1.6" /><rect fill="white" height="7.8" stroke="black" stroke-width="0.5" width="7.8" x="1031.1" y="1.1" /><rect fill="black" height="8.5" stroke="none" stroke-width="0" width="8.5" x="1040.8" y="0.8" /><rect fill="white" height="8.7" stroke="black" stroke-width="0.5" width="8.7" x="1050.6" y="0.6" /><rect fill="black" height="9.4" stroke="none" stroke-width="0" width="9.4" x="1060.3" y="0.3" /><rect fill="white" height="8.1" stroke="black" stroke-width="0.5" width="8.1" x="1070.9" y="0.9" /><rect fill="black" height="9.1" stroke="none" stroke-width="0" width="9.1" x="1080.4" y="0.4" /><rect fill="white" height="6.5" stroke="black" stroke-width="0.5" width="6.5" x="1091.7" y="1.7" /><rect fill="black" height="6.8" stroke="none" stroke-width="0" width="6.8" x="1101.6" y="1.6" /><rect fill="white" height="3.9" stroke="black" stroke-width="0.5" width="3.9" x="1113.1" y="3.1" /><rect fill="black" height="2.1" stroke="none" stroke-width="0" width="2.1" x="1123.9" y="3.9" /><rect fill="white" height="9.3" stroke="black" stroke-width="0.5" width="9.3" x="0.4" y="10.4" /><rect fill="black" height="7.7" stroke="none" stroke-width="0" width="7.7" x="11.2" y="11.2" /><rect fill="white" height="8.4" stroke="black" stroke-width="0.5" width="8.4" x="20.8" y="10.8" /><rect fill="black" height="5.7" stroke="none" stroke-width="0" width="5.7" x="32.2" y="12.2" /><rect fill="white" height="6.0" stroke="black" stroke-width="0.5" width="6.0" x="42.0" y="12.0" /><rect fill="white" height="2.1" stroke="black" stroke-width="0.5" width="2.1" x="53.9" y="13.9" /><rect fill="black" height="3.2" stroke="none" stroke-width="0" width="3.2" x="63.4" y="13.4" /><rect fill="white" height="5.8" stroke="black" stroke-width="0.5" width="5.8" x="72.1" y="12.1" /><rect fill="black" height="7.0" stroke="none" stroke-width="0" width="7.0" x="81.5" y="11.5" /><rect fill="white" height="7.9" stroke="black" stroke-width="0.5" width="7.9" x="91.1" y="11.1" /><rect fill="black" height="8.4" stroke="none" stroke-width="0" width="8.4" x="100.8" y="10.8" /><rect fill="white" height="9.0" stroke="black" stroke-width="0.5" width="9.0" x="110.5" y="10.5" /><rect fill="black" height="8.6" stroke="none" stroke-width="0" width="8.6" x="120.7" y="10.7" /><rect fill="white" height="9.1" stroke="black" stroke-width="0.5" width="9.1" x="130.4" y="10.4" /><rect fill="black" height="7.3" stroke="none" stroke-width="0" width="7.3" x="141.4" y="11.4" /><rect fill="white" height="8.0" stroke="black" stroke-width="0.5" width="8.0" x="151.0" y="11.0" /><rect fill="black" height="4.9" stroke="none" stroke-width="0" width="4.9" x="162.6" y="12.6" /><rect fill="white" height="5.1" stroke="black" stroke-width="0.5" width="5.1" x="172.5" y="12.5" /><rect fill="white" height="2.9" stroke="black" stroke-width="0.5" width="2.9" x="183.5" y="13.5" /><rect fill="black" height="4.6" stroke="none" stroke-width="0" width="4.6" x="192.7" y="12.7" /><rect fill="white" height="6.3" stroke="black" stroke-width="0.5" width="6.3" x="201.8" y="11.8" /><rect fill="black" height="7.4" stroke="none" stroke-width="0" width="7.4" x="211.3" y="11.3" /><rect fill="white" height="8.2" stroke="black" stroke-width="0.5" width="8.2" x="220.9" y="10.9" /><rect fill="black" height="8.5" stroke="none" stroke-width="0" width="8.5" x="230.8" y="10.8" /><rect fill="white" height="9.3" stroke="black" stroke-width="0.5" width="9.3" x="240.3" y="10.3" /><rect fill="black" height="8.4" stroke="none" stroke-width="0" width="8.4" x="250.8" y="10.8" /><rect fill="white" height="9.1" stroke="black" stroke-width="0.5" width="9.1" x="260.5" y="10.5" /><rect fill="black" height="6.9" stroke="none" stroke-width="0" width="6.9" x="271.5" y="11.5" /><rect fill="white" height="7.5" stroke="black" stroke-width="0.5" width="7.5" x="281.2" y="11.2" /><rect fill="black" height="4.1" stroke="none" stroke-width="0" width="4.1" x="293.0" y="13.0" /><rect fill="white" height="3.9" stroke="black" stroke-width="0.5" width="3.9" x="303.1" y="13.1" /><rect fill="white" height="4.0" stroke="black" stroke-width="0.5" width="4.0" x="313.0" y="13.0" /><rect fill="black" height="5.6" stroke="none" stroke-width="0" width="5.6" x="322.2" y="12.2" /><rect fill="white" height="6.8" stroke="black" stroke-width="0.5" width="6.8" x="331.6" y="11.6" /><rect fill="black" height="7.6" stroke="none" stroke-width="0" width="7.6" x="341.2" y="11.2" /><rect fill="white" height="8.6" stroke="black" stroke-width="0.5" width="8.6" x="350.7" y="10.7" /><rect fill="black" height="8.5" stroke="none" stroke-width="0" width="8.5" x="360.8" y="10.8" /><rect fill="white" height="9.3" stroke="black" stroke-width="0.5" width="9.3" x="370.4" y="10.4" /><rect fill="black" height="8.2" stroke="none" stroke-width="0" width="8.2" x="380.9" y="10.9" /><rect fill="white" height="9.1" stroke="black" stroke-width="0.5" width="9.1" x="390.5" y="10.5" /><rect fill="black" height="6.5" stroke="none" stroke-width="0" width="6.5" x="401.8" y="11.8" /><rect fill="white" height="6.9" stroke="black" stroke-width="0.5" width="6.9" x="411.5" y="11.5" /><rect fill="black" height="3.2" stroke="none" stroke-width="0" width="3.2" x="423.4" y="13.4" /><rect fill="white" height="2.4" stroke="black" stroke-width="0.5" width="2.4" x="433.8" y="13.8" /><rect fill="white" height="4.8" stroke="black" stroke-width="0.5" width="4.8" x="442.6" y="12.6" /><rect fill="black" height="6.3" stroke="none" stroke-width="0" width="6.3" x="451.9" y="11.9" /><rect fill="white" height="7.2" stroke="black" stroke-width="0.5" width="7.2" x="461.4" y="11.4" /><rect fill="black" height="8.0" stroke="none" stroke-width="0" width="8.0" x="471.0" y="11.0" /><rect fill="white" height="8.9" stroke="black" stroke-width="0.5" width="8.9" x="480.5" y="10.5" /><rect fill="black" height="8.6" stroke="none" stroke-width="0" width="8.6" x="490.7" y="10.7" /><rect fill="white" height="9.2" stroke="black" stroke-width="0.5" width="9.2" x="500.4" y="10.4" /><rect fill="black" height="7.8" stroke="none" stroke-width="0" width="7.8" x="511.1" y="11.1" /><rect fill="white" height="8.6" stroke="black" stroke-width="0.5" width="8.6" x="520.7" y="10.7" /><rect fill="black" height="5.9" stroke="none" stroke-width="0" width="5.9" x="532.1" y="12.1" /><rect fill="white" height="6.3" stroke="black" stroke-width="0.5" width="6.3" x="541.9" y="11.9" /><rect fill="black" height="2.1" stroke="none" stroke-width="0" width="2.1" x="553.9" y="13.9" /><rect fill="black" height="2.3" stroke="none" stroke-width="0" width="2.3" x="563.8" y="13.8" /><rect fill="white" height="5.5" stroke="black" stroke-width="0.5" width="5.5" x="572.3" y="12.3" /><rect fill="black" height="6.8" stroke="none" stroke-width="0" width="6.8" x="581.6" y="11.6" /><rect fill="white" height="7.6" stroke="black" stroke-width="0.5" width="7.6" x="591.2" y="11.2" /><rect fill="black" height="8.3" stroke="none" stroke-width="0" width="8.3" x="600.9" y="10.9" /><rect fill="white" height="9.1" stroke="black" stroke-width="0.5" width="9.1" x="610.4" y="10.4" /><rect fill="black" height="8.7" stroke="none" stroke-width="0" width="8.7" x="620.6" y="10.6" /><rect fill="white" height="9.2" stroke="black" stroke-width="0.5" width="9.2" x="630.4" y="10.4" /><rect fill="black" height="7.5" stroke="none" stroke-width="0" width="7.5" x="641.2" y="11.2" /><rect fill="white" height="8.2" stroke="black" stroke-width="0.5" width="8.2" x="650.9" y="10.9" /><rect fill="black" height="5.3" stroke="none" stroke-width="0" width="5.3" x="662.4" y="12.4" /><rect fill="white" height="5.5" stroke="black" stroke-width="0.5" width="5.5" x="672.3" y="12.3" /><rect fill="white" height="2.2" stroke="black" stroke-width="0.5" width="2.2" x="683.9" y="13.9" /><rect fill="black" height="4.1" stroke="none" stroke-width="0" width="4.1" x="692.9" y="12.9" /><rect fill="white" height="6.1" stroke="black" stroke-width="0.5" width="6.1" x="702.0" y="12.0" /><rect fill="black" height="7.3" stroke="none" stroke-width="0" width="7.3" x="711.4" y="11.4" /><rect fill="white" height="8.1" stroke="black" stroke-width="0.5" width="8.1" x="720.9" y="10.9" /><rect fill="black" height="8.6" stroke="none" stroke-width="0" width="8.6" x="730.7" y="10.7" /><rect fill="white" height="9.2" stroke="black" stroke-width="0.5" width="9.2" x="740.4" y="10.4" /><rect fill="black" height="8.5" stroke="none" stroke-width="0" width="8.5" x="750.7" y="10.7" /><rect fill="white" height="9.1" stroke="black" stroke-width="0.5" width="9.1" x="760.5" y="10.5" /><rect fill="black" height="7.1" stroke="none" stroke-width="0" width="7.1" x="771.4" y="11.4" /><rect fill="white" height="7.7" stroke="black" stroke-width="0.5" width="7.7" x="781.1" y="11.1" /><rect fill="black" height="4.5" stroke="none" stroke-width="0" width="4.5" x="792.7" y="12.7" /><rect fill="white" height="4.6" stroke="black" stroke-width="0.5" width="4.6" x="802.7" y="12.7" /><rect fill="white" height="3.6" stroke="black" stroke-width="0.5" width="3.6" x="813.2" y="13.2" /><rect fill="black" height="5.2" stroke="none" stroke-width="0" width="5.2" x="822.4" y="12.4" /><rect fill="white" height="6.6" stroke="black" stroke-width="0.5" width="6.6" x="831.7" y="11.7" /><rect fill="black" height="7.6" stroke="none" stroke-width="0" width="7.6" x="841.2" y="11.2" /><rect fill="white" height="8.5" stroke="black" stroke-width="0.5" width="8.5" x="850.8" y="10.8" /><rect fill="black" height="8.5" stroke="none" stroke-width="0" width="8.5" x="860.7" y="10.7" /><rect fill="white" height="9.3" stroke="black" stroke-width="0.5" width="9.3" x="870.4" y="10.4" /><rect fill="black" height="8.3" stroke="none" stroke-width="0" width="8.3" x="880.9" y="10.9" /><rect fill="white" height="8.9" stroke="black" stroke-width="0.5" width="8.9" x="890.5" y="10.5" /><rect fill="black" height="6.6" stroke="none" stroke-width="0" width="6.6" x="901.7" y="11.7" /><rect fill="white" height="7.2" stroke="black" stroke-width="0.5" width="7.2" x="911.4" y="11.4" /><rect fill="black" height="3.7" stroke="none" stroke-width="0" width="3.7" x="923.2" y="13.2" /><rect fill="white" height="3.3" stroke="black" stroke-width="0.5" width="3.3" x="933.4" y="13.4" /><rect fill="white" height="4.4" stroke="black" stroke-width="0.5" width="4.4" x="942.8" y="12.8" /><rect fill="black" height="6.0" stroke="none" stroke-width="0" width="6.0" x="952.0" y="12.0" /><rect fill="white" height="7.0" stroke="black" stroke-width="0.5" width="7.0" x="961.5" y="11.5" /><rect fill="black" height="7.9" stroke="none" stroke-width="0" width="7.9" x="971.1" y="11.1" /><rect fill="white" height="8.8" stroke="black" stroke-width="0.5" width="8.8" x="980.6" y="10.6" /><rect fill="black" height="8.8" stroke="none" stroke-width="0" width="8.8" x="990.6" y="10.6" /><rect fill="white" height="9.3" stroke="black" stroke-width="0.5" width="9.3" x="1000.4" y="10.4" /><rect fill="black" height="7.9" stroke="none" stroke-width="0" width="7.9" x="1011.0" y="11.0" /><rect fill="white" height="8.8" stroke="black" stroke-width="0.5" width="8.8" x="1020.6" y="10.6" /><rect fill="black" height="6.1" stroke="none" stroke-width="0" width="6.1" x="1031.9" y="11.9" /><rect fill="white" height="6.7" stroke="black" stroke-width="0.5" width="6.7" x="1041.7" y="11.7" /><rect fill="black" height="2.6" stroke="none" stroke-width="0" width="2.6" x="1053.7" y="13.7" /><rect fill="black" height="2.1" stroke="none" stroke-width="0" width="2.1" x="1063.9" y="13.9" /><rect fill="white" height="5.1" stroke="black" stroke-width="0.5" width="5.1" x="1072.4" y="12.4" /><rect fill="black" height="6.7" stroke="none" stroke-width="0" width="6.7" x="1081.7" y="11.7" /><rect fill="white" height="7.4" stroke="black" stroke-width="0.5" width="7.4" x="1091.3" y="11.3" /><rect fill="black" height="8.1" stroke="none" stroke-width="0" width="8.1" x="1100.9" y="10.9" /><rect fill="white" height="9.0" stroke="black" stroke-width="0.5" width="9.0" x="1110.5" y="10.5" /><rect fill="black" height="8.6" stroke="none" stroke-width="0" width="8.6" x="1120.7" y="10.7" /></g><g><line stroke="black" stroke-width="0.5" x1="-4.0" x2="-7.0" y1="5.0" y2="5.0" /><text dominant-baseline="middle" font-size="6px" text-anchor="end" x="-13.0" y="5.0">𝘶₀</text><line stroke="black" stroke-width="0.5" x1="-4.0" x2="-7.0" y1="15.0" y2="15.0" /><text dominant-baseline="middle" font-size="6px" text-anchor="end" x="-13.0" y="15.0">𝘶₁</text></g></svg>