<?xml version="1.0" encoding="utf-8" ?>
<svg baseProfile="full" height="100%" preserveAspectRatio="xMidYMid meet" version="1.1" viewBox="-40,-40,1210,90" width="100%" xmlns="http://www.w3.org/2000/svg" xmlns:ev="http://www.w3.org/2001/xml-events" xmlns:xlink="http://www.w3.org/1999/xlink"><defs><style type="text/css"><![CDATA[
        @import url(https://cdn.jsdelivr.net/npm/firacode@6.2.0/distr/fira_code.css);
        text {
            font-family: 'STIX Two', 'STIX Two Math', 'STIXMath', 'DejaVu Math TeX Glyph',
                        'DejaVu Serif', 'Cambria Math', 'Latin Modern Math', 'FiraCode',
                        'serif';
        }
    ]]></style><style type="text/css"><![CDATA[
        @import url(https://cdn.jsdelivr.net/npm/firacode@6.2.0/distr/fira_code.css);
        text {
            font-family: 'STIX Two', 'STIX Two Math', 'STIXMath', 'DejaVu Math TeX Glyph',
                        'DejaVu Serif', 'Cambria Math', 'Latin Modern Math', 'FiraCode',
                        'serif';
        }
    ]]></style></defs><g><rect fill="black" height="9.5" stroke="none" stroke-width="0" width="9.5" x="0.2" y="0.2" /><rect fill="black" height="9.2" stroke="none" stroke-width="0" width="9.2" x="10.4" y="0.4" /><rect fill="black" height="8.9" stroke="none" stroke-width="0" width="8.9" x="20.6" y="0.6" /><rect fill="black" height="8.4" stroke="none" stroke-width="0" width="8.4" x="30.8" y="0.8" /><rect fill="black" height="8.0" stroke="none" stroke-width="0" width="8.0" x="41.0" y="1.0" /><rect fill="black" height="7.9" stroke="none" stroke-width="0" width="7.9" x="51.1" y="1.1" /><rect fill="black" height="7.6" stroke="none" stroke-width="0" width="7.6" x="61.2" y="1.2" /><rect fill="black" height="7.4" stroke="none" stroke-width="0" width="7.4" x="71.3" y="1.3" /><rect fill="black" height="7.3" stroke="none" stroke-width="0" width="7.3" x="81.4" y="1.4" /><rect fill="black" height="7.0" stroke="none" stroke-width="0" width="7.0" x="91.5" y="1.5" /><rect fill="black" height="6.9" stroke="none" stroke-width="0" width="6.9" x="101.5" y="1.5" /><rect fill="black" height="6.6" stroke="none" stroke-width="0" width="6.6" x="111.7" y="1.7" /><rect fill="black" height="6.5" stroke="none" stroke-width="0" width="6.5" x="121.8" y="1.8" /><rect fill="black" height="6.4" stroke="none" stroke-width="0" width="6.4" x="131.8" y="1.8" /><rect fill="black" height="6.2" stroke="none" stroke-width="0" width="6.2" x="141.9" y="1.9" /><rect fill="black" height="6.0" stroke="none" stroke-width="0" width="6.0" x="152.0" y="2.0" /><rect fill="black" height="5.9" stroke="none" stroke-width="0" width="5.9" x="162.0" y="2.0" /><rect fill="black" height="5.7" stroke="none" stroke-width="0" width="5.7" x="172.1" y="2.1" /><rect fill="black" height="5.5" stroke="none" stroke-width="0" width="5.5" x="182.2" y="2.2" /><rect fill="black" height="5.4" stroke="none" stroke-width="0" width="5.4" x="192.3" y="2.3" /><rect fill="black" height="5.2" stroke="none" stroke-width="0" width="5.2" x="202.4" y="2.4" /><rect fill="black" height="5.1" stroke="none" stroke-width="0" width="5.1" x="212.4" y="2.4" /><rect fill="black" height="4.9" stroke="none" stroke-width="0" width="4.9" x="222.5" y="2.5" /><rect fill="black" height="4.8" stroke="none" stroke-width="0" width="4.8" x="232.6" y="2.6" /><rect fill="black" height="4.7" stroke="none" stroke-width="0" width="4.7" x="242.6" y="2.6" /><rect fill="black" height="4.4" stroke="none" stroke-width="0" width="4.4" x="252.8" y="2.8" /><rect fill="black" height="4.3" stroke="none" stroke-width="0" width="4.3" x="262.8" y="2.8" /><rect fill="black" height="4.3" stroke="none" stroke-width="0" width="4.3" x="272.9" y="2.9" /><rect fill="black" height="4.1" stroke="none" stroke-width="0" width="4.1" x="282.9" y="2.9" /><rect fill="black" height="4.1" stroke="none" stroke-width="0" width="4.1" x="293.0" y="3.0" /><rect fill="black" height="3.5" stroke="none" stroke-width="0" width="3.5" x="303.2" y="3.2" /><rect fill="black" height="3.4" stroke="none" stroke-width="0" width="3.4" x="313.3" y="3.3" /><rect fill="black" height="3.3" stroke="none" stroke-width="0" width="3.3" x="323.3" y="3.3" /><rect fill="black" height="3.1" stroke="none" stroke-width="0" width="3.1" x="333.4" y="3.4" /><rect fill="black" height="3.0" stroke="none" stroke-width="0" width="3.0" x="343.5" y="3.5" /><rect fill="black" height="2.9" stroke="none" stroke-width="0" width="2.9" x="353.5" y="3.5" /><rect fill="black" height="2.9" stroke="none" stroke-width="0" width="2.9" x="363.6" y="3.6" /><rect fill="black" height="2.8" stroke="none" stroke-width="0" width="2.8" x="373.6" y="3.6" /><rect fill="black" height="2.8" stroke="none" stroke-width="0" width="2.8" x="383.6" y="3.6" /><rect fill="black" height="2.7" stroke="none" stroke-width="0" width="2.7" x="393.7" y="3.7" /><rect fill="black" height="2.6" stroke="none" stroke-width="0" width="2.6" x="403.7" y="3.7" /><rect fill="black" height="2.6" stroke="none" stroke-width="0" width="2.6" x="413.7" y="3.7" /><rect fill="black" height="2.5" stroke="none" stroke-width="0" width="2.5" x="423.8" y="3.8" /><rect fill="black" height="2.4" stroke="none" stroke-width="0" width="2.4" x="433.8" y="3.8" /><rect fill="black" height="2.4" stroke="none" stroke-width="0" width="2.4" x="443.8" y="3.8" /><rect fill="black" height="2.4" stroke="none" stroke-width="0" width="2.4" x="453.8" y="3.8" /><rect fill="black" height="2.2" stroke="none" stroke-width="0" width="2.2" x="463.9" y="3.9" /><rect fill="black" height="2.2" stroke="none" stroke-width="0" width="2.2" x="473.9" y="3.9" /><rect fill="black" height="2.2" stroke="none" stroke-width="0" width="2.2" x="483.9" y="3.9" /><rect fill="black" height="2.1" stroke="none" stroke-width="0" width="2.1" x="493.9" y="3.9" /><rect fill="black" height="2.1" stroke="none" stroke-width="0" width="2.1" x="503.9" y="3.9" /><rect fill="black" height="2.1" stroke="none" stroke-width="0" width="2.1" x="513.9" y="3.9" /><rect fill="black" height="2.1" stroke="none" stroke-width="0" width="2.1" x="523.9" y="3.9" /><rect fill="black" height="2.1" stroke="none" stroke-width="0" width="2.1" x="533.9" y="3.9" /><rect fill="black" height="2.1" stroke="none" stroke-width="0" width="2.1" x="543.9" y="3.9" /><rect fill="black" height="2.1" stroke="none" stroke-width="0" width="2.1" x="553.9" y="3.9" /><rect fill="black" height="2.1" stroke="none" stroke-width="0" width="2.1" x="563.9" y="3.9" /><rect fill="black" height="2.1" stroke="none" stroke-width="0" width="2.1" x="573.9" y="3.9" /><rect fill="black" height="2.1" stroke="none" stroke-width="0" width="2.1" x="583.9" y="3.9" /><rect fill="black" height="2.1" stroke="none" stroke-width="0" width="2.1" x="593.9" y="3.9" /><rect fill="black" height="2.1" stroke="none" stroke-width="0" width="2.1" x="603.9" y="3.9" /><rect fill="black" height="2.1" stroke="none" stroke-width="0" width="2.1" x="613.9" y="3.9" /><rect fill="black" height="2.1" stroke="none" stroke-width="0" width="2.1" x="623.9" y="3.9" /><rect fill="black" height="2.1" stroke="none" stroke-width="0" width="2.1" x="633.9" y="3.9" /><rect fill="black" height="2.1" stroke="none" stroke-width="0" width="2.1" x="643.9" y="3.9" /><rect fill="black" height="2.1" stroke="none" stroke-width="0" width="2.1" x="653.9" y="3.9" /><rect fill="black" height="2.1" stroke="none" stroke-width="0" width="2.1" x="663.9" y="3.9" /><rect fill="black" height="2.1" stroke="none" stroke-width="0" width="2.1" x="673.9" y="3.9" /><rect fill="black" height="2.1" stroke="none" stroke-width="0" width="2.1" x="683.9" y="3.9" /><rect fill="black" height="2.1" stroke="none" stroke-width="0" width="2.1" x="693.9" y="3.9" /><rect fill="black" height="2.1" stroke="none" stroke-width="0" width="2.1" x="703.9" y="3.9" /><rect fill="black" height="2.1" stroke="none" stroke-width="0" width="2.1" x="713.9" y="3.9" /><rect fill="black" height="2.1" stroke="none" stroke-width="0" width="2.1" x="723.9" y="3.9" /><rect fill="black" height="2.1" stroke="none" stroke-width="0" width="2.1" x="733.9" y="3.9" /><rect fill="black" height="2.1" stroke="none" stroke-width="0" width="2.1" x="743.9" y="3.9" /><rect fill="black" height="2.1" stroke="none" stroke-width="0" width="2.1" x="753.9" y="3.9" /><rect fill="black" height="2.1" stroke="none" stroke-width="0" width="2.1" x="763.9" y="3.9" /><rect fill="black" height="2.1" stroke="none" stroke-width="0" width="2.1" x="773.9" y="3.9" /><rect fill="black" height="2.1" stroke="none" stroke-width="0" width="2.1" x="783.9" y="3.9" /><rect fill="black" height="2.1" stroke="none" stroke-width="0" width="2.1" x="793.9" y="3.9" /><rect fill="black" height="2.1" stroke="none" stroke-width="0" width="2.1" x="803.9" y="3.9" /><rect fill="black" height="2.1" stroke="none" stroke-width="0" width="2.1" x="813.9" y="3.9" /><rect fill="black" height="2.1" stroke="none" stroke-width="0" width="2.1" x="823.9" y="3.9" /><rect fill="black" height="2.1" stroke="none" stroke-width="0" width="2.1" x="833.9" y="3.9" /><rect fill="black" height="2.1" stroke="none" stroke-width="0" width="2.1" x="843.9" y="3.9" /><rect fill="black" height="2.1" stroke="none" stroke-width="0" width="2.1" x="853.9" y="3.9" /><rect fill="black" height="2.1" stroke="none" stroke-width="0" width="2.1" x="863.9" y="3.9" /><rect fill="black" height="2.1" stroke="none" stroke-width="0" width="2.1" x="873.9" y="3.9" /><rect fill="black" height="2.1" stroke="none" stroke-width="0" width="2.1" x="883.9" y="3.9" /><rect fill="black" height="2.1" stroke="none" stroke-width="0" width="2.1" x="893.9" y="3.9" /><rect fill="black" height="2.1" stroke="none" stroke-width="0" width="2.1" x="903.9" y="3.9" /><rect fill="black" height="2.1" stroke="none" stroke-width="0" width="2.1" x="913.9" y="3.9" /><rect fill="black" height="2.1" stroke="none" stroke-width="0" width="2.1" x="923.9" y="3.9" /><rect fill="black" height="2.1" stroke="none" stroke-width="0" width="2.1" x="933.9" y="3.9" /><rect fill="black" height="2.1" stroke="none" stroke-width="0" width="2.1" x="943.9" y="3.9" /><rect fill="black" height="2.1" stroke="none" stroke-width="0" width="2.1" x="953.9" y="3.9" /><rect fill="black" height="2.1" stroke="none" stroke-width="0" width="2.1" x="963.9" y="3.9" /><rect fill="black" height="2.1" stroke="none" stroke-width="0" width="2.1" x="973.9" y="3.9" /><rect fill="black" height="2.1" stroke="none" stroke-width="0" width="2.1" x="983.9" y="3.9" /><rect fill="black" height="2.1" stroke="none" stroke-width="0" width="2.1" x="993.9" y="3.9" /><rect fill="black" height="2.1" stroke="none" stroke-width="0" width="2.1" x="1003.9" y="3.9" /><rect fill="black" height="2.1" stroke="none" stroke-width="0" width="2.1" x="1013.9" y="3.9" /><rect fill="black" height="2.1" stroke="none" stroke-width="0" width="2.1" x="1023.9" y="3.9" /><rect fill="black" height="2.1" stroke="none" stroke-width="0" width="2.1" x="1033.9" y="3.9" /><rect fill="black" height="2.1" stroke="none" stroke-width="0" width="2.1" x="1043.9" y="3.9" /><rect fill="black" height="2.1" stroke="none" stroke-width="0" width="2.1" x="1053.9" y="3.9" /><rect fill="black" height="2.1" stroke="none" stroke-width="0" width="2.1" x="1063.9" y="3.9" /><rect fill="black" height="2.1" stroke="none" stroke-width="0" width="2.1" x="1073.9" y="3.9" /><rect fill="black" height="2.1" stroke="none" stroke-width="0" width="2.1" x="1083.9" y="3.9" /><rect fill="black" height="2.1" stroke="none" stroke-width="0" width="2.1" x="1093.9" y="3.9" /><rect fill="black" height="2.1" stroke="none" stroke-width="0" width="2.1" x="1103.9" y="3.9" /><rect fill="black" height="2.1" stroke="none" stroke-width="0" width="2.1" x="1113.9" y="3.9" /><rect fill="black" height="2.1" stroke="none" stroke-width="0" width="2.1" x="1123.9" y="3.9" /></g><g><line stroke="black" stroke-width="0.5" x1="105.0" x2="105.0" y1="14.0" y2="17.0" /><text dominant-baseline="middle" font-size="6px" text-anchor="middle" x="105.0" y="23.0">0.5</text><line stroke="black" stroke-width="0.5" x1="395.0" x2="395.0" y1="14.0" y2="17.0" /><text dominant-baseline="middle" font-size="6px" text-anchor="middle" x="395.0" y="23.0">0.9</text><line stroke="black" stroke-width="0.5" x1="-4.0" x2="-7.0" y1="5.0" y2="5.0" /><text dominant-baseline="middle" font-size="6px" text-anchor="end" x="-13.0" y="5.0">S</text></g></svg>