<?xml version="1.0" encoding="utf-8" ?>
<svg baseProfile="full" height="100%" preserveAspectRatio="xMidYMid meet" version="1.1" viewBox="-40,-40,260,260" width="100%" xmlns="http://www.w3.org/2000/svg" xmlns:ev="http://www.w3.org/2001/xml-events" xmlns:xlink="http://www.w3.org/1999/xlink"><defs><style type="text/css"><![CDATA[
        @import url(https://cdn.jsdelivr.net/npm/firacode@6.2.0/distr/fira_code.css);
        text {
            font-family: 'STIX Two', 'STIX Two Math', 'STIXMath', 'DejaVu Math TeX Glyph',
                        'DejaVu Serif', 'Cambria Math', 'Latin Modern Math', 'FiraCode',
                        'serif';
        }
    ]]></style><style type="text/css"><![CDATA[
        @import url(https://cdn.jsdelivr.net/npm/firacode@6.2.0/distr/fira_code.css);
        text {
            font-family: 'STIX Two', 'STIX Two Math', 'STIXMath', 'DejaVu Math TeX Glyph',
                        'DejaVu Serif', 'Cambria Math', 'Latin Modern Math', 'FiraCode',
                        'serif';
        }
    ]]></style></defs><g><rect fill="white" height="5.3" stroke="black" stroke-width="0.5" width="5.3" x="2.4" y="2.4" /><rect fill="white" height="4.7" stroke="black" stroke-width="0.5" width="4.7" x="12.6" y="2.6" /><rect fill="black" height="5.5" stroke="none" stroke-width="0" width="5.5" x="22.3" y="2.3" /><rect fill="black" height="4.1" stroke="none" stroke-width="0" width="4.1" x="33.0" y="3.0" /><rect fill="white" height="3.6" stroke="black" stroke-width="0.5" width="3.6" x="43.2" y="3.2" /><rect fill="white" height="5.6" stroke="black" stroke-width="0.5" width="5.6" x="52.2" y="2.2" /><rect fill="black" height="2.1" stroke="none" stroke-width="0" width="2.1" x="63.9" y="3.9" /><rect fill="black" height="2.5" stroke="none" stroke-width="0" width="2.5" x="73.8" y="3.8" /><rect fill="black" height="3.6" stroke="none" stroke-width="0" width="3.6" x="83.2" y="3.2" /><rect fill="black" height="5.1" stroke="none" stroke-width="0" width="5.1" x="92.4" y="2.4" /><rect fill="black" height="6.0" stroke="none" stroke-width="0" width="6.0" x="102.0" y="2.0" /><rect fill="black" height="3.6" stroke="none" stroke-width="0" width="3.6" x="113.2" y="3.2" /><rect fill="black" height="3.6" stroke="none" stroke-width="0" width="3.6" x="123.2" y="3.2" /><rect fill="white" height="4.0" stroke="black" stroke-width="0.5" width="4.0" x="133.0" y="3.0" /><rect fill="black" height="3.7" stroke="none" stroke-width="0" width="3.7" x="143.2" y="3.2" /><rect fill="white" height="4.2" stroke="black" stroke-width="0.5" width="4.2" x="152.9" y="2.9" /><rect fill="white" height="3.4" stroke="black" stroke-width="0.5" width="3.4" x="163.3" y="3.3" /><rect fill="black" height="3.7" stroke="none" stroke-width="0" width="3.7" x="173.1" y="3.1" /><rect fill="black" height="3.4" stroke="none" stroke-width="0" width="3.4" x="3.3" y="13.3" /><rect fill="black" height="3.1" stroke="none" stroke-width="0" width="3.1" x="13.4" y="13.4" /><rect fill="white" height="6.0" stroke="black" stroke-width="0.5" width="6.0" x="22.0" y="12.0" /><rect fill="white" height="4.3" stroke="black" stroke-width="0.5" width="4.3" x="32.8" y="12.8" /><rect fill="white" height="2.1" stroke="black" stroke-width="0.5" width="2.1" x="43.9" y="13.9" /><rect fill="white" height="6.0" stroke="black" stroke-width="0.5" width="6.0" x="52.0" y="12.0" /><rect fill="black" height="3.8" stroke="none" stroke-width="0" width="3.8" x="63.1" y="13.1" /><rect fill="white" height="5.2" stroke="black" stroke-width="0.5" width="5.2" x="72.4" y="12.4" /><rect fill="white" height="4.7" stroke="black" stroke-width="0.5" width="4.7" x="82.7" y="12.7" /><rect fill="white" height="6.4" stroke="black" stroke-width="0.5" width="6.4" x="91.8" y="11.8" /><rect fill="white" height="6.2" stroke="black" stroke-width="0.5" width="6.2" x="101.9" y="11.9" /><rect fill="white" height="5.2" stroke="black" stroke-width="0.5" width="5.2" x="112.4" y="12.4" /><rect fill="white" height="4.9" stroke="black" stroke-width="0.5" width="4.9" x="122.6" y="12.6" /><rect fill="black" height="4.1" stroke="none" stroke-width="0" width="4.1" x="132.9" y="12.9" /><rect fill="white" height="5.0" stroke="black" stroke-width="0.5" width="5.0" x="142.5" y="12.5" /><rect fill="white" height="6.7" stroke="black" stroke-width="0.5" width="6.7" x="151.6" y="11.6" /><rect fill="black" height="4.8" stroke="none" stroke-width="0" width="4.8" x="162.6" y="12.6" /><rect fill="black" height="2.8" stroke="none" stroke-width="0" width="2.8" x="173.6" y="13.6" /><rect fill="black" height="3.6" stroke="none" stroke-width="0" width="3.6" x="3.2" y="23.2" /><rect fill="black" height="3.0" stroke="none" stroke-width="0" width="3.0" x="13.5" y="23.5" /><rect fill="white" height="4.5" stroke="black" stroke-width="0.5" width="4.5" x="22.7" y="22.7" /><rect fill="white" height="4.4" stroke="black" stroke-width="0.5" width="4.4" x="32.8" y="22.8" /><rect fill="black" height="3.9" stroke="none" stroke-width="0" width="3.9" x="43.0" y="23.0" /><rect fill="black" height="4.5" stroke="none" stroke-width="0" width="4.5" x="52.8" y="22.8" /><rect fill="white" height="2.7" stroke="black" stroke-width="0.5" width="2.7" x="63.6" y="23.6" /><rect fill="white" height="3.5" stroke="black" stroke-width="0.5" width="3.5" x="73.2" y="23.2" /><rect fill="white" height="3.3" stroke="black" stroke-width="0.5" width="3.3" x="83.3" y="23.3" /><rect fill="white" height="5.5" stroke="black" stroke-width="0.5" width="5.5" x="92.3" y="22.3" /><rect fill="white" height="4.6" stroke="black" stroke-width="0.5" width="4.6" x="102.7" y="22.7" /><rect fill="black" height="2.3" stroke="none" stroke-width="0" width="2.3" x="113.9" y="23.9" /><rect fill="white" height="2.1" stroke="black" stroke-width="0.5" width="2.1" x="123.9" y="23.9" /><rect fill="black" height="3.2" stroke="none" stroke-width="0" width="3.2" x="133.4" y="23.4" /><rect fill="white" height="4.4" stroke="black" stroke-width="0.5" width="4.4" x="142.8" y="22.8" /><rect fill="white" height="5.1" stroke="black" stroke-width="0.5" width="5.1" x="152.5" y="22.5" /><rect fill="black" height="3.1" stroke="none" stroke-width="0" width="3.1" x="163.4" y="23.4" /><rect fill="white" height="2.8" stroke="black" stroke-width="0.5" width="2.8" x="173.6" y="23.6" /><rect fill="black" height="4.9" stroke="none" stroke-width="0" width="4.9" x="2.6" y="32.6" /><rect fill="black" height="5.5" stroke="none" stroke-width="0" width="5.5" x="12.2" y="32.2" /><rect fill="white" height="7.4" stroke="black" stroke-width="0.5" width="7.4" x="21.3" y="31.3" /><rect fill="white" height="5.7" stroke="black" stroke-width="0.5" width="5.7" x="32.2" y="32.2" /><rect fill="white" height="2.8" stroke="black" stroke-width="0.5" width="2.8" x="43.6" y="33.6" /><rect fill="white" height="8.2" stroke="black" stroke-width="0.5" width="8.2" x="50.9" y="30.9" /><rect fill="white" height="3.1" stroke="black" stroke-width="0.5" width="3.1" x="63.5" y="33.5" /><rect fill="white" height="2.1" stroke="black" stroke-width="0.5" width="2.1" x="73.9" y="33.9" /><rect fill="black" height="3.7" stroke="none" stroke-width="0" width="3.7" x="83.1" y="33.1" /><rect fill="black" height="7.0" stroke="none" stroke-width="0" width="7.0" x="91.5" y="31.5" /><rect fill="white" height="5.9" stroke="black" stroke-width="0.5" width="5.9" x="102.1" y="32.1" /><rect fill="white" height="4.3" stroke="black" stroke-width="0.5" width="4.3" x="112.8" y="32.8" /><rect fill="white" height="4.4" stroke="black" stroke-width="0.5" width="4.4" x="122.8" y="32.8" /><rect fill="white" height="3.1" stroke="black" stroke-width="0.5" width="3.1" x="133.4" y="33.4" /><rect fill="white" height="5.3" stroke="black" stroke-width="0.5" width="5.3" x="142.4" y="32.4" /><rect fill="white" height="4.0" stroke="black" stroke-width="0.5" width="4.0" x="153.0" y="33.0" /><rect fill="black" height="6.0" stroke="none" stroke-width="0" width="6.0" x="162.0" y="32.0" /><rect fill="black" height="3.3" stroke="none" stroke-width="0" width="3.3" x="173.4" y="33.4" /><rect fill="white" height="4.2" stroke="black" stroke-width="0.5" width="4.2" x="2.9" y="42.9" /><rect fill="black" height="4.0" stroke="none" stroke-width="0" width="4.0" x="13.0" y="43.0" /><rect fill="black" height="6.1" stroke="none" stroke-width="0" width="6.1" x="21.9" y="41.9" /><rect fill="black" height="4.5" stroke="none" stroke-width="0" width="4.5" x="32.7" y="42.7" /><rect fill="white" height="2.5" stroke="black" stroke-width="0.5" width="2.5" x="43.8" y="43.8" /><rect fill="black" height="5.4" stroke="none" stroke-width="0" width="5.4" x="52.3" y="42.3" /><rect fill="black" height="3.8" stroke="none" stroke-width="0" width="3.8" x="63.1" y="43.1" /><rect fill="black" height="3.0" stroke="none" stroke-width="0" width="3.0" x="73.5" y="43.5" /><rect fill="white" height="2.8" stroke="black" stroke-width="0.5" width="2.8" x="83.6" y="43.6" /><rect fill="white" height="5.4" stroke="black" stroke-width="0.5" width="5.4" x="92.3" y="42.3" /><rect fill="white" height="5.9" stroke="black" stroke-width="0.5" width="5.9" x="102.1" y="42.1" /><rect fill="black" height="3.7" stroke="none" stroke-width="0" width="3.7" x="113.2" y="43.2" /><rect fill="white" height="3.0" stroke="black" stroke-width="0.5" width="3.0" x="123.5" y="43.5" /><rect fill="white" height="3.7" stroke="black" stroke-width="0.5" width="3.7" x="133.1" y="43.1" /><rect fill="black" height="5.4" stroke="none" stroke-width="0" width="5.4" x="142.3" y="42.3" /><rect fill="black" height="5.0" stroke="none" stroke-width="0" width="5.0" x="152.5" y="42.5" /><rect fill="black" height="4.5" stroke="none" stroke-width="0" width="4.5" x="162.8" y="42.8" /><rect fill="white" height="3.8" stroke="black" stroke-width="0.5" width="3.8" x="173.1" y="43.1" /><rect fill="black" height="4.2" stroke="none" stroke-width="0" width="4.2" x="2.9" y="52.9" /><rect fill="white" height="3.1" stroke="black" stroke-width="0.5" width="3.1" x="13.4" y="53.4" /><rect fill="black" height="4.2" stroke="none" stroke-width="0" width="4.2" x="22.9" y="52.9" /><rect fill="black" height="2.1" stroke="none" stroke-width="0" width="2.1" x="33.9" y="53.9" /><rect fill="black" height="2.5" stroke="none" stroke-width="0" width="2.5" x="43.8" y="53.8" /><rect fill="white" height="3.5" stroke="black" stroke-width="0.5" width="3.5" x="53.2" y="53.2" /><rect fill="white" height="2.9" stroke="black" stroke-width="0.5" width="2.9" x="63.5" y="53.5" /><rect fill="black" height="2.1" stroke="none" stroke-width="0" width="2.1" x="73.9" y="53.9" /><rect fill="black" height="2.8" stroke="none" stroke-width="0" width="2.8" x="83.6" y="53.6" /><rect fill="white" height="2.2" stroke="black" stroke-width="0.5" width="2.2" x="93.9" y="53.9" /><rect fill="black" height="4.7" stroke="none" stroke-width="0" width="4.7" x="102.7" y="52.7" /><rect fill="white" height="2.6" stroke="black" stroke-width="0.5" width="2.6" x="113.7" y="53.7" /><rect fill="white" height="2.2" stroke="black" stroke-width="0.5" width="2.2" x="123.9" y="53.9" /><rect fill="black" height="3.2" stroke="none" stroke-width="0" width="3.2" x="133.4" y="53.4" /><rect fill="white" height="2.7" stroke="black" stroke-width="0.5" width="2.7" x="143.6" y="53.6" /><rect fill="white" height="3.9" stroke="black" stroke-width="0.5" width="3.9" x="153.0" y="53.0" /><rect fill="white" height="3.4" stroke="black" stroke-width="0.5" width="3.4" x="163.3" y="53.3" /><rect fill="black" height="2.7" stroke="none" stroke-width="0" width="2.7" x="173.6" y="53.6" /><rect fill="white" height="2.8" stroke="black" stroke-width="0.5" width="2.8" x="3.6" y="63.6" /><rect fill="black" height="3.0" stroke="none" stroke-width="0" width="3.0" x="13.5" y="63.5" /><rect fill="black" height="3.1" stroke="none" stroke-width="0" width="3.1" x="23.5" y="63.5" /><rect fill="white" height="4.2" stroke="black" stroke-width="0.5" width="4.2" x="32.9" y="62.9" /><rect fill="white" height="2.3" stroke="black" stroke-width="0.5" width="2.3" x="43.8" y="63.8" /><rect fill="black" height="2.8" stroke="none" stroke-width="0" width="2.8" x="53.6" y="63.6" /><rect fill="white" height="3.6" stroke="black" stroke-width="0.5" width="3.6" x="63.2" y="63.2" /><rect fill="black" height="2.6" stroke="none" stroke-width="0" width="2.6" x="73.7" y="63.7" /><rect fill="black" height="3.7" stroke="none" stroke-width="0" width="3.7" x="83.2" y="63.2" /><rect fill="white" height="3.6" stroke="black" stroke-width="0.5" width="3.6" x="93.2" y="63.2" /><rect fill="white" height="4.3" stroke="black" stroke-width="0.5" width="4.3" x="102.8" y="62.8" /><rect fill="black" height="3.5" stroke="none" stroke-width="0" width="3.5" x="113.2" y="63.2" /><rect fill="white" height="3.0" stroke="black" stroke-width="0.5" width="3.0" x="123.5" y="63.5" /><rect fill="white" height="3.6" stroke="black" stroke-width="0.5" width="3.6" x="133.2" y="63.2" /><rect fill="black" height="2.7" stroke="none" stroke-width="0" width="2.7" x="143.7" y="63.7" /><rect fill="black" height="4.3" stroke="none" stroke-width="0" width="4.3" x="152.9" y="62.9" /><rect fill="black" height="2.6" stroke="none" stroke-width="0" width="2.6" x="163.7" y="63.7" /><rect fill="black" height="2.6" stroke="none" stroke-width="0" width="2.6" x="173.7" y="63.7" /><rect fill="white" height="2.3" stroke="black" stroke-width="0.5" width="2.3" x="3.8" y="73.8" /><rect fill="white" height="2.1" stroke="black" stroke-width="0.5" width="2.1" x="13.9" y="73.9" /><rect fill="black" height="5.8" stroke="none" stroke-width="0" width="5.8" x="22.1" y="72.1" /><rect fill="black" height="3.8" stroke="none" stroke-width="0" width="3.8" x="33.1" y="73.1" /><rect fill="white" height="4.3" stroke="black" stroke-width="0.5" width="4.3" x="42.8" y="72.8" /><rect fill="black" height="2.2" stroke="none" stroke-width="0" width="2.2" x="53.9" y="73.9" /><rect fill="black" height="2.7" stroke="none" stroke-width="0" width="2.7" x="63.7" y="73.7" /><rect fill="white" height="3.9" stroke="black" stroke-width="0.5" width="3.9" x="73.1" y="73.1" /><rect fill="white" height="4.3" stroke="black" stroke-width="0.5" width="4.3" x="82.9" y="72.9" /><rect fill="black" height="5.3" stroke="none" stroke-width="0" width="5.3" x="92.4" y="72.4" /><rect fill="black" height="6.4" stroke="none" stroke-width="0" width="6.4" x="101.8" y="71.8" /><rect fill="white" height="3.8" stroke="black" stroke-width="0.5" width="3.8" x="113.1" y="73.1" /><rect fill="white" height="2.9" stroke="black" stroke-width="0.5" width="2.9" x="123.5" y="73.5" /><rect fill="black" height="3.7" stroke="none" stroke-width="0" width="3.7" x="133.1" y="73.1" /><rect fill="white" height="2.1" stroke="black" stroke-width="0.5" width="2.1" x="143.9" y="73.9" /><rect fill="black" height="5.3" stroke="none" stroke-width="0" width="5.3" x="152.3" y="72.3" /><rect fill="black" height="2.6" stroke="none" stroke-width="0" width="2.6" x="163.7" y="73.7" /><rect fill="black" height="5.1" stroke="none" stroke-width="0" width="5.1" x="172.5" y="72.5" /><rect fill="black" height="2.8" stroke="none" stroke-width="0" width="2.8" x="3.6" y="83.6" /><rect fill="black" height="2.9" stroke="none" stroke-width="0" width="2.9" x="13.6" y="83.6" /><rect fill="black" height="3.8" stroke="none" stroke-width="0" width="3.8" x="23.1" y="83.1" /><rect fill="black" height="4.9" stroke="none" stroke-width="0" width="4.9" x="32.5" y="82.5" /><rect fill="black" height="4.4" stroke="none" stroke-width="0" width="4.4" x="42.8" y="82.8" /><rect fill="white" height="3.4" stroke="black" stroke-width="0.5" width="3.4" x="53.3" y="83.3" /><rect fill="black" height="3.4" stroke="none" stroke-width="0" width="3.4" x="63.3" y="83.3" /><rect fill="black" height="2.1" stroke="none" stroke-width="0" width="2.1" x="73.9" y="83.9" /><rect fill="white" height="5.6" stroke="black" stroke-width="0.5" width="5.6" x="82.2" y="82.2" /><rect fill="white" height="4.4" stroke="black" stroke-width="0.5" width="4.4" x="92.8" y="82.8" /><rect fill="white" height="5.0" stroke="black" stroke-width="0.5" width="5.0" x="102.5" y="82.5" /><rect fill="white" height="2.5" stroke="black" stroke-width="0.5" width="2.5" x="113.8" y="83.8" /><rect fill="black" height="3.4" stroke="none" stroke-width="0" width="3.4" x="123.3" y="83.3" /><rect fill="black" height="2.5" stroke="none" stroke-width="0" width="2.5" x="133.7" y="83.7" /><rect fill="black" height="4.2" stroke="none" stroke-width="0" width="4.2" x="142.9" y="82.9" /><rect fill="white" height="3.9" stroke="black" stroke-width="0.5" width="3.9" x="153.0" y="83.0" /><rect fill="white" height="2.1" stroke="black" stroke-width="0.5" width="2.1" x="163.9" y="83.9" /><rect fill="white" height="4.5" stroke="black" stroke-width="0.5" width="4.5" x="172.8" y="82.8" /><rect fill="black" height="5.3" stroke="none" stroke-width="0" width="5.3" x="2.4" y="92.4" /><rect fill="black" height="4.1" stroke="none" stroke-width="0" width="4.1" x="13.0" y="93.0" /><rect fill="white" height="6.6" stroke="black" stroke-width="0.5" width="6.6" x="21.7" y="91.7" /><rect fill="black" height="3.2" stroke="none" stroke-width="0" width="3.2" x="33.4" y="93.4" /><rect fill="black" height="2.7" stroke="none" stroke-width="0" width="2.7" x="43.6" y="93.6" /><rect fill="white" height="6.6" stroke="black" stroke-width="0.5" width="6.6" x="51.7" y="91.7" /><rect fill="black" height="2.9" stroke="none" stroke-width="0" width="2.9" x="63.6" y="93.6" /><rect fill="black" height="2.1" stroke="none" stroke-width="0" width="2.1" x="73.9" y="93.9" /><rect fill="white" height="2.9" stroke="black" stroke-width="0.5" width="2.9" x="83.5" y="93.5" /><rect fill="white" height="4.8" stroke="black" stroke-width="0.5" width="4.8" x="92.6" y="92.6" /><rect fill="black" height="5.8" stroke="none" stroke-width="0" width="5.8" x="102.1" y="92.1" /><rect fill="white" height="2.3" stroke="black" stroke-width="0.5" width="2.3" x="113.8" y="93.8" /><rect fill="black" height="2.8" stroke="none" stroke-width="0" width="2.8" x="123.6" y="93.6" /><rect fill="black" height="3.4" stroke="none" stroke-width="0" width="3.4" x="133.3" y="93.3" /><rect fill="white" height="3.8" stroke="black" stroke-width="0.5" width="3.8" x="143.1" y="93.1" /><rect fill="white" height="5.2" stroke="black" stroke-width="0.5" width="5.2" x="152.4" y="92.4" /><rect fill="white" height="4.8" stroke="black" stroke-width="0.5" width="4.8" x="162.6" y="92.6" /><rect fill="black" height="3.0" stroke="none" stroke-width="0" width="3.0" x="173.5" y="93.5" /><rect fill="black" height="4.4" stroke="none" stroke-width="0" width="4.4" x="2.8" y="102.8" /><rect fill="black" height="3.5" stroke="none" stroke-width="0" width="3.5" x="13.2" y="103.2" /><rect fill="white" height="6.1" stroke="black" stroke-width="0.5" width="6.1" x="21.9" y="101.9" /><rect fill="white" height="2.6" stroke="black" stroke-width="0.5" width="2.6" x="33.7" y="103.7" /><rect fill="black" height="4.0" stroke="none" stroke-width="0" width="4.0" x="43.0" y="103.0" /><rect fill="black" height="6.1" stroke="none" stroke-width="0" width="6.1" x="51.9" y="101.9" /><rect fill="black" height="3.0" stroke="none" stroke-width="0" width="3.0" x="63.5" y="103.5" /><rect fill="white" height="3.5" stroke="black" stroke-width="0.5" width="3.5" x="73.2" y="103.2" /><rect fill="white" height="4.6" stroke="black" stroke-width="0.5" width="4.6" x="82.7" y="102.7" /><rect fill="white" height="6.4" stroke="black" stroke-width="0.5" width="6.4" x="91.8" y="101.8" /><rect fill="white" height="6.9" stroke="black" stroke-width="0.5" width="6.9" x="101.5" y="101.5" /><rect fill="white" height="3.6" stroke="black" stroke-width="0.5" width="3.6" x="113.2" y="103.2" /><rect fill="black" height="2.8" stroke="none" stroke-width="0" width="2.8" x="123.6" y="103.6" /><rect fill="black" height="3.8" stroke="none" stroke-width="0" width="3.8" x="133.1" y="103.1" /><rect fill="white" height="4.7" stroke="black" stroke-width="0.5" width="4.7" x="142.6" y="102.6" /><rect fill="white" height="3.2" stroke="black" stroke-width="0.5" width="3.2" x="153.4" y="103.4" /><rect fill="black" height="5.4" stroke="none" stroke-width="0" width="5.4" x="162.3" y="102.3" /><rect fill="black" height="3.1" stroke="none" stroke-width="0" width="3.1" x="173.4" y="103.4" /><rect fill="white" height="2.1" stroke="black" stroke-width="0.5" width="2.1" x="3.9" y="113.9" /><rect fill="black" height="3.6" stroke="none" stroke-width="0" width="3.6" x="13.2" y="113.2" /><rect fill="black" height="4.2" stroke="none" stroke-width="0" width="4.2" x="22.9" y="112.9" /><rect fill="black" height="3.9" stroke="none" stroke-width="0" width="3.9" x="33.0" y="113.0" /><rect fill="white" height="2.1" stroke="black" stroke-width="0.5" width="2.1" x="43.9" y="113.9" /><rect fill="black" height="3.4" stroke="none" stroke-width="0" width="3.4" x="53.3" y="113.3" /><rect fill="black" height="4.5" stroke="none" stroke-width="0" width="4.5" x="62.7" y="112.7" /><rect fill="black" height="3.3" stroke="none" stroke-width="0" width="3.3" x="73.3" y="113.3" /><rect fill="white" height="2.8" stroke="black" stroke-width="0.5" width="2.8" x="83.6" y="113.6" /><rect fill="white" height="2.1" stroke="black" stroke-width="0.5" width="2.1" x="93.9" y="113.9" /><rect fill="black" height="5.1" stroke="none" stroke-width="0" width="5.1" x="102.4" y="112.4" /><rect fill="black" height="2.6" stroke="none" stroke-width="0" width="2.6" x="113.7" y="113.7" /><rect fill="white" height="3.7" stroke="black" stroke-width="0.5" width="3.7" x="123.2" y="113.2" /><rect fill="black" height="3.7" stroke="none" stroke-width="0" width="3.7" x="133.2" y="113.2" /><rect fill="black" height="5.0" stroke="none" stroke-width="0" width="5.0" x="142.5" y="112.5" /><rect fill="black" height="5.7" stroke="none" stroke-width="0" width="5.7" x="152.2" y="112.2" /><rect fill="black" height="2.1" stroke="none" stroke-width="0" width="2.1" x="163.9" y="113.9" /><rect fill="black" height="3.2" stroke="none" stroke-width="0" width="3.2" x="173.4" y="113.4" /><rect fill="white" height="3.7" stroke="black" stroke-width="0.5" width="3.7" x="3.2" y="123.2" /><rect fill="black" height="5.0" stroke="none" stroke-width="0" width="5.0" x="12.5" y="122.5" /><rect fill="black" height="6.7" stroke="none" stroke-width="0" width="6.7" x="21.7" y="121.7" /><rect fill="white" height="4.9" stroke="black" stroke-width="0.5" width="4.9" x="32.5" y="122.5" /><rect fill="white" height="2.1" stroke="black" stroke-width="0.5" width="2.1" x="43.9" y="123.9" /><rect fill="black" height="7.3" stroke="none" stroke-width="0" width="7.3" x="51.3" y="121.3" /><rect fill="black" height="3.5" stroke="none" stroke-width="0" width="3.5" x="63.2" y="123.2" /><rect fill="black" height="4.2" stroke="none" stroke-width="0" width="4.2" x="72.9" y="122.9" /><rect fill="white" height="3.7" stroke="black" stroke-width="0.5" width="3.7" x="83.1" y="123.1" /><rect fill="white" height="4.4" stroke="black" stroke-width="0.5" width="4.4" x="92.8" y="122.8" /><rect fill="white" height="6.8" stroke="black" stroke-width="0.5" width="6.8" x="101.6" y="121.6" /><rect fill="black" height="4.5" stroke="none" stroke-width="0" width="4.5" x="112.7" y="122.7" /><rect fill="white" height="5.7" stroke="black" stroke-width="0.5" width="5.7" x="122.2" y="122.2" /><rect fill="black" height="5.1" stroke="none" stroke-width="0" width="5.1" x="132.5" y="122.5" /><rect fill="black" height="5.2" stroke="none" stroke-width="0" width="5.2" x="142.4" y="122.4" /><rect fill="white" height="4.3" stroke="black" stroke-width="0.5" width="4.3" x="152.9" y="122.9" /><rect fill="black" height="5.8" stroke="none" stroke-width="0" width="5.8" x="162.1" y="122.1" /><rect fill="white" height="2.3" stroke="black" stroke-width="0.5" width="2.3" x="173.9" y="123.9" /><rect fill="black" height="5.9" stroke="none" stroke-width="0" width="5.9" x="2.1" y="132.1" /><rect fill="white" height="6.0" stroke="black" stroke-width="0.5" width="6.0" x="12.0" y="132.0" /><rect fill="white" height="9.3" stroke="black" stroke-width="0.5" width="9.3" x="20.3" y="130.3" /><rect fill="black" height="3.7" stroke="none" stroke-width="0" width="3.7" x="33.2" y="133.2" /><rect fill="black" height="3.2" stroke="none" stroke-width="0" width="3.2" x="43.4" y="133.4" /><rect fill="white" height="8.6" stroke="black" stroke-width="0.5" width="8.6" x="50.7" y="130.7" /><rect fill="white" height="3.8" stroke="black" stroke-width="0.5" width="3.8" x="63.1" y="133.1" /><rect fill="white" height="4.0" stroke="black" stroke-width="0.5" width="4.0" x="73.0" y="133.0" /><rect fill="white" height="4.8" stroke="black" stroke-width="0.5" width="4.8" x="82.6" y="132.6" /><rect fill="black" height="7.2" stroke="none" stroke-width="0" width="7.2" x="91.4" y="131.4" /><rect fill="black" height="9.5" stroke="none" stroke-width="0" width="9.5" x="100.2" y="130.2" /><rect fill="white" height="3.7" stroke="black" stroke-width="0.5" width="3.7" x="113.2" y="133.2" /><rect fill="black" height="5.2" stroke="none" stroke-width="0" width="5.2" x="122.4" y="132.4" /><rect fill="black" height="3.5" stroke="none" stroke-width="0" width="3.5" x="133.2" y="133.2" /><rect fill="white" height="6.1" stroke="black" stroke-width="0.5" width="6.1" x="141.9" y="131.9" /><rect fill="white" height="8.0" stroke="black" stroke-width="0.5" width="8.0" x="151.0" y="131.0" /><rect fill="white" height="6.2" stroke="black" stroke-width="0.5" width="6.2" x="161.9" y="131.9" /><rect fill="black" height="4.9" stroke="none" stroke-width="0" width="4.9" x="172.5" y="132.5" /><rect fill="black" height="3.9" stroke="none" stroke-width="0" width="3.9" x="3.0" y="143.0" /><rect fill="white" height="2.1" stroke="black" stroke-width="0.5" width="2.1" x="13.9" y="143.9" /><rect fill="black" height="5.2" stroke="none" stroke-width="0" width="5.2" x="22.4" y="142.4" /><rect fill="white" height="4.5" stroke="black" stroke-width="0.5" width="4.5" x="32.7" y="142.7" /><rect fill="black" height="2.8" stroke="none" stroke-width="0" width="2.8" x="43.6" y="143.6" /><rect fill="black" height="3.7" stroke="none" stroke-width="0" width="3.7" x="53.1" y="143.1" /><rect fill="white" height="2.1" stroke="black" stroke-width="0.5" width="2.1" x="63.9" y="143.9" /><rect fill="black" height="3.4" stroke="none" stroke-width="0" width="3.4" x="73.3" y="143.3" /><rect fill="black" height="2.4" stroke="none" stroke-width="0" width="2.4" x="83.8" y="143.8" /><rect fill="white" height="3.8" stroke="black" stroke-width="0.5" width="3.8" x="93.1" y="143.1" /><rect fill="white" height="4.0" stroke="black" stroke-width="0.5" width="4.0" x="103.0" y="143.0" /><rect fill="black" height="3.9" stroke="none" stroke-width="0" width="3.9" x="113.1" y="143.1" /><rect fill="white" height="4.5" stroke="black" stroke-width="0.5" width="4.5" x="122.7" y="142.7" /><rect fill="white" height="3.2" stroke="black" stroke-width="0.5" width="3.2" x="133.4" y="143.4" /><rect fill="black" height="3.8" stroke="none" stroke-width="0" width="3.8" x="143.1" y="143.1" /><rect fill="white" height="4.3" stroke="black" stroke-width="0.5" width="4.3" x="152.8" y="142.8" /><rect fill="black" height="4.3" stroke="none" stroke-width="0" width="4.3" x="162.8" y="142.8" /><rect fill="black" height="2.8" stroke="none" stroke-width="0" width="2.8" x="173.6" y="143.6" /><rect fill="black" height="4.7" stroke="none" stroke-width="0" width="4.7" x="2.7" y="152.7" /><rect fill="black" height="3.8" stroke="none" stroke-width="0" width="3.8" x="13.1" y="153.1" /><rect fill="white" height="2.1" stroke="black" stroke-width="0.5" width="2.1" x="23.9" y="153.9" /><rect fill="black" height="3.5" stroke="none" stroke-width="0" width="3.5" x="33.2" y="153.2" /><rect fill="black" height="3.8" stroke="none" stroke-width="0" width="3.8" x="43.1" y="153.1" /><rect fill="black" height="3.3" stroke="none" stroke-width="0" width="3.3" x="53.4" y="153.4" /><rect fill="black" height="3.8" stroke="none" stroke-width="0" width="3.8" x="63.1" y="153.1" /><rect fill="white" height="2.8" stroke="black" stroke-width="0.5" width="2.8" x="73.6" y="153.6" /><rect fill="white" height="4.8" stroke="black" stroke-width="0.5" width="4.8" x="82.6" y="152.6" /><rect fill="white" height="3.2" stroke="black" stroke-width="0.5" width="3.2" x="93.4" y="153.4" /><rect fill="white" height="4.2" stroke="black" stroke-width="0.5" width="4.2" x="102.9" y="152.9" /><rect fill="white" height="3.0" stroke="black" stroke-width="0.5" width="3.0" x="113.5" y="153.5" /><rect fill="black" height="3.0" stroke="none" stroke-width="0" width="3.0" x="123.5" y="153.5" /><rect fill="black" height="4.0" stroke="none" stroke-width="0" width="4.0" x="133.0" y="153.0" /><rect fill="black" height="4.6" stroke="none" stroke-width="0" width="4.6" x="142.7" y="152.7" /><rect fill="white" height="2.2" stroke="black" stroke-width="0.5" width="2.2" x="153.9" y="153.9" /><rect fill="white" height="2.1" stroke="black" stroke-width="0.5" width="2.1" x="163.9" y="153.9" /><rect fill="black" height="2.6" stroke="none" stroke-width="0" width="2.6" x="173.7" y="153.7" /><rect fill="black" height="4.6" stroke="none" stroke-width="0" width="4.6" x="2.7" y="162.7" /><rect fill="black" height="3.8" stroke="none" stroke-width="0" width="3.8" x="13.1" y="163.1" /><rect fill="white" height="5.4" stroke="black" stroke-width="0.5" width="5.4" x="22.3" y="162.3" /><rect fill="black" height="2.1" stroke="none" stroke-width="0" width="2.1" x="33.9" y="163.9" /><rect fill="black" height="4.1" stroke="none" stroke-width="0" width="4.1" x="42.9" y="162.9" /><rect fill="white" height="4.5" stroke="black" stroke-width="0.5" width="4.5" x="52.7" y="162.7" /><rect fill="white" height="3.2" stroke="black" stroke-width="0.5" width="3.2" x="63.4" y="163.4" /><rect fill="black" height="3.4" stroke="none" stroke-width="0" width="3.4" x="73.3" y="163.3" /><rect fill="white" height="2.1" stroke="black" stroke-width="0.5" width="2.1" x="83.9" y="163.9" /><rect fill="white" height="5.5" stroke="black" stroke-width="0.5" width="5.5" x="92.2" y="162.2" /><rect fill="white" height="5.9" stroke="black" stroke-width="0.5" width="5.9" x="102.1" y="162.1" /><rect fill="black" height="3.7" stroke="none" stroke-width="0" width="3.7" x="113.2" y="163.2" /><rect fill="black" height="4.0" stroke="none" stroke-width="0" width="4.0" x="123.0" y="163.0" /><rect fill="white" height="3.4" stroke="black" stroke-width="0.5" width="3.4" x="133.3" y="163.3" /><rect fill="white" height="3.4" stroke="black" stroke-width="0.5" width="3.4" x="143.3" y="163.3" /><rect fill="white" height="5.0" stroke="black" stroke-width="0.5" width="5.0" x="152.5" y="162.5" /><rect fill="white" height="3.5" stroke="black" stroke-width="0.5" width="3.5" x="163.3" y="163.3" /><rect fill="white" height="4.9" stroke="black" stroke-width="0.5" width="4.9" x="172.5" y="162.5" /><rect fill="black" height="2.5" stroke="none" stroke-width="0" width="2.5" x="3.8" y="173.8" /><rect fill="black" height="2.7" stroke="none" stroke-width="0" width="2.7" x="13.6" y="173.6" /><rect fill="white" height="4.7" stroke="black" stroke-width="0.5" width="4.7" x="22.6" y="172.6" /><rect fill="black" height="4.2" stroke="none" stroke-width="0" width="4.2" x="32.9" y="172.9" /><rect fill="black" height="2.1" stroke="none" stroke-width="0" width="2.1" x="43.9" y="173.9" /><rect fill="white" height="4.6" stroke="black" stroke-width="0.5" width="4.6" x="52.7" y="172.7" /><rect fill="white" height="2.1" stroke="black" stroke-width="0.5" width="2.1" x="63.9" y="173.9" /><rect fill="white" height="3.4" stroke="black" stroke-width="0.5" width="3.4" x="73.3" y="173.3" /><rect fill="white" height="4.4" stroke="black" stroke-width="0.5" width="4.4" x="82.8" y="172.8" /><rect fill="white" height="5.5" stroke="black" stroke-width="0.5" width="5.5" x="92.3" y="172.3" /><rect fill="black" height="5.4" stroke="none" stroke-width="0" width="5.4" x="102.3" y="172.3" /><rect fill="black" height="2.5" stroke="none" stroke-width="0" width="2.5" x="113.8" y="173.8" /><rect fill="black" height="2.9" stroke="none" stroke-width="0" width="2.9" x="123.5" y="173.5" /><rect fill="black" height="3.3" stroke="none" stroke-width="0" width="3.3" x="133.3" y="173.3" /><rect fill="white" height="2.1" stroke="black" stroke-width="0.5" width="2.1" x="143.9" y="173.9" /><rect fill="white" height="4.2" stroke="black" stroke-width="0.5" width="4.2" x="152.9" y="172.9" /><rect fill="white" height="3.6" stroke="black" stroke-width="0.5" width="3.6" x="163.2" y="173.2" /><rect fill="black" height="4.4" stroke="none" stroke-width="0" width="4.4" x="172.8" y="172.8" /></g><g><text font-size="20px" text-anchor="middle" x="90.0" y="202.0">ω₁</text><text font-size="20px" text-anchor="middle" transform="rotate(-90, -22.0, 90.0)" x="-22.0" y="90.0">ω₀</text></g></svg>