<?xml version="1.0" encoding="utf-8" ?>
<svg baseProfile="full" height="100%" preserveAspectRatio="xMidYMid meet" version="1.1" viewBox="-40,-40,260,260" width="100%" xmlns="http://www.w3.org/2000/svg" xmlns:ev="http://www.w3.org/2001/xml-events" xmlns:xlink="http://www.w3.org/1999/xlink"><defs><style type="text/css"><![CDATA[
        @import url(https://cdn.jsdelivr.net/npm/firacode@6.2.0/distr/fira_code.css);
        text {
            font-family: 'STIX Two', 'STIX Two Math', 'STIXMath', 'DejaVu Math TeX Glyph',
                        'DejaVu Serif', 'Cambria Math', 'Latin Modern Math', 'FiraCode',
                        'serif';
        }
    ]]></style><style type="text/css"><![CDATA[
        @import url(https://cdn.jsdelivr.net/npm/firacode@6.2.0/distr/fira_code.css);
        text {
            font-family: 'STIX Two', 'STIX Two Math', 'STIXMath', 'DejaVu Math TeX Glyph',
                        'DejaVu Serif', 'Cambria Math', 'Latin Modern Math', 'FiraCode',
                        'serif';
        }
    ]]></style></defs><g><rect fill="black" height="2.2" stroke="none" stroke-width="0" width="2.2" x="3.9" y="3.9" /><rect fill="white" height="2.1" stroke="black" stroke-width="0.5" width="2.1" x="13.9" y="3.9" /><rect fill="black" height="2.1" stroke="none" stroke-width="0" width="2.1" x="23.9" y="3.9" /><rect fill="black" height="3.3" stroke="none" stroke-width="0" width="3.3" x="33.4" y="3.4" /><rect fill="black" height="2.1" stroke="none" stroke-width="0" width="2.1" x="43.9" y="3.9" /><rect fill="white" height="2.1" stroke="black" stroke-width="0.5" width="2.1" x="53.9" y="3.9" /><rect fill="white" height="2.1" stroke="black" stroke-width="0.5" width="2.1" x="63.9" y="3.9" /><rect fill="black" height="2.3" stroke="none" stroke-width="0" width="2.3" x="73.9" y="3.9" /><rect fill="black" height="2.1" stroke="none" stroke-width="0" width="2.1" x="83.9" y="3.9" /><rect fill="white" height="2.1" stroke="black" stroke-width="0.5" width="2.1" x="93.9" y="3.9" /><rect fill="black" height="2.1" stroke="none" stroke-width="0" width="2.1" x="103.9" y="3.9" /><rect fill="black" height="2.1" stroke="none" stroke-width="0" width="2.1" x="113.9" y="3.9" /><rect fill="black" height="2.1" stroke="none" stroke-width="0" width="2.1" x="123.9" y="3.9" /><rect fill="black" height="2.1" stroke="none" stroke-width="0" width="2.1" x="133.9" y="3.9" /><rect fill="black" height="2.1" stroke="none" stroke-width="0" width="2.1" x="143.9" y="3.9" /><rect fill="black" height="2.1" stroke="none" stroke-width="0" width="2.1" x="153.9" y="3.9" /><rect fill="black" height="2.1" stroke="none" stroke-width="0" width="2.1" x="163.9" y="3.9" /><rect fill="white" height="2.1" stroke="black" stroke-width="0.5" width="2.1" x="173.9" y="3.9" /><rect fill="white" height="2.1" stroke="black" stroke-width="0.5" width="2.1" x="3.9" y="13.9" /><rect fill="black" height="2.1" stroke="none" stroke-width="0" width="2.1" x="13.9" y="13.9" /><rect fill="black" height="2.1" stroke="none" stroke-width="0" width="2.1" x="23.9" y="13.9" /><rect fill="white" height="2.7" stroke="black" stroke-width="0.5" width="2.7" x="33.6" y="13.6" /><rect fill="white" height="2.1" stroke="black" stroke-width="0.5" width="2.1" x="43.9" y="13.9" /><rect fill="white" height="2.1" stroke="black" stroke-width="0.5" width="2.1" x="53.9" y="13.9" /><rect fill="black" height="2.1" stroke="none" stroke-width="0" width="2.1" x="63.9" y="13.9" /><rect fill="white" height="2.1" stroke="black" stroke-width="0.5" width="2.1" x="73.9" y="13.9" /><rect fill="black" height="2.1" stroke="none" stroke-width="0" width="2.1" x="83.9" y="13.9" /><rect fill="white" height="2.1" stroke="black" stroke-width="0.5" width="2.1" x="93.9" y="13.9" /><rect fill="white" height="2.1" stroke="black" stroke-width="0.5" width="2.1" x="103.9" y="13.9" /><rect fill="white" height="2.1" stroke="black" stroke-width="0.5" width="2.1" x="113.9" y="13.9" /><rect fill="black" height="2.1" stroke="none" stroke-width="0" width="2.1" x="123.9" y="13.9" /><rect fill="white" height="2.1" stroke="black" stroke-width="0.5" width="2.1" x="133.9" y="13.9" /><rect fill="black" height="2.1" stroke="none" stroke-width="0" width="2.1" x="143.9" y="13.9" /><rect fill="black" height="2.1" stroke="none" stroke-width="0" width="2.1" x="153.9" y="13.9" /><rect fill="black" height="2.1" stroke="none" stroke-width="0" width="2.1" x="163.9" y="13.9" /><rect fill="black" height="2.1" stroke="none" stroke-width="0" width="2.1" x="173.9" y="13.9" /><rect fill="black" height="2.1" stroke="none" stroke-width="0" width="2.1" x="3.9" y="23.9" /><rect fill="black" height="2.1" stroke="none" stroke-width="0" width="2.1" x="13.9" y="23.9" /><rect fill="white" height="2.1" stroke="black" stroke-width="0.5" width="2.1" x="23.9" y="23.9" /><rect fill="white" height="2.8" stroke="black" stroke-width="0.5" width="2.8" x="33.6" y="23.6" /><rect fill="white" height="2.1" stroke="black" stroke-width="0.5" width="2.1" x="43.9" y="23.9" /><rect fill="white" height="2.1" stroke="black" stroke-width="0.5" width="2.1" x="53.9" y="23.9" /><rect fill="white" height="2.1" stroke="black" stroke-width="0.5" width="2.1" x="63.9" y="23.9" /><rect fill="white" height="2.2" stroke="black" stroke-width="0.5" width="2.2" x="73.9" y="23.9" /><rect fill="white" height="2.1" stroke="black" stroke-width="0.5" width="2.1" x="83.9" y="23.9" /><rect fill="black" height="2.1" stroke="none" stroke-width="0" width="2.1" x="93.9" y="23.9" /><rect fill="white" height="2.1" stroke="black" stroke-width="0.5" width="2.1" x="103.9" y="23.9" /><rect fill="white" height="2.1" stroke="black" stroke-width="0.5" width="2.1" x="113.9" y="23.9" /><rect fill="white" height="2.1" stroke="black" stroke-width="0.5" width="2.1" x="123.9" y="23.9" /><rect fill="white" height="2.1" stroke="black" stroke-width="0.5" width="2.1" x="133.9" y="23.9" /><rect fill="black" height="2.1" stroke="none" stroke-width="0" width="2.1" x="143.9" y="23.9" /><rect fill="white" height="2.1" stroke="black" stroke-width="0.5" width="2.1" x="153.9" y="23.9" /><rect fill="white" height="2.1" stroke="black" stroke-width="0.5" width="2.1" x="163.9" y="23.9" /><rect fill="white" height="2.1" stroke="black" stroke-width="0.5" width="2.1" x="173.9" y="23.9" /><rect fill="black" height="3.3" stroke="none" stroke-width="0" width="3.3" x="3.4" y="33.4" /><rect fill="white" height="2.7" stroke="black" stroke-width="0.5" width="2.7" x="13.6" y="33.6" /><rect fill="white" height="2.8" stroke="black" stroke-width="0.5" width="2.8" x="23.6" y="33.6" /><rect fill="black" height="9.5" stroke="none" stroke-width="0" width="9.5" x="30.2" y="30.2" /><rect fill="black" height="2.1" stroke="none" stroke-width="0" width="2.1" x="43.9" y="33.9" /><rect fill="black" height="2.1" stroke="none" stroke-width="0" width="2.1" x="53.9" y="33.9" /><rect fill="white" height="2.1" stroke="black" stroke-width="0.5" width="2.1" x="63.9" y="33.9" /><rect fill="white" height="2.1" stroke="black" stroke-width="0.5" width="2.1" x="73.9" y="33.9" /><rect fill="black" height="2.3" stroke="none" stroke-width="0" width="2.3" x="83.8" y="33.8" /><rect fill="black" height="2.1" stroke="none" stroke-width="0" width="2.1" x="93.9" y="33.9" /><rect fill="black" height="2.1" stroke="none" stroke-width="0" width="2.1" x="103.9" y="33.9" /><rect fill="white" height="2.1" stroke="black" stroke-width="0.5" width="2.1" x="113.9" y="33.9" /><rect fill="black" height="2.1" stroke="none" stroke-width="0" width="2.1" x="123.9" y="33.9" /><rect fill="white" height="2.1" stroke="black" stroke-width="0.5" width="2.1" x="133.9" y="33.9" /><rect fill="black" height="2.1" stroke="none" stroke-width="0" width="2.1" x="143.9" y="33.9" /><rect fill="black" height="2.1" stroke="none" stroke-width="0" width="2.1" x="153.9" y="33.9" /><rect fill="white" height="2.1" stroke="black" stroke-width="0.5" width="2.1" x="163.9" y="33.9" /><rect fill="black" height="2.1" stroke="none" stroke-width="0" width="2.1" x="173.9" y="33.9" /><rect fill="black" height="2.1" stroke="none" stroke-width="0" width="2.1" x="3.9" y="43.9" /><rect fill="white" height="2.1" stroke="black" stroke-width="0.5" width="2.1" x="13.9" y="43.9" /><rect fill="white" height="2.1" stroke="black" stroke-width="0.5" width="2.1" x="23.9" y="43.9" /><rect fill="black" height="2.1" stroke="none" stroke-width="0" width="2.1" x="33.9" y="43.9" /><rect fill="black" height="2.1" stroke="none" stroke-width="0" width="2.1" x="43.9" y="43.9" /><rect fill="black" height="2.1" stroke="none" stroke-width="0" width="2.1" x="53.9" y="43.9" /><rect fill="white" height="2.1" stroke="black" stroke-width="0.5" width="2.1" x="63.9" y="43.9" /><rect fill="white" height="2.1" stroke="black" stroke-width="0.5" width="2.1" x="73.9" y="43.9" /><rect fill="white" height="2.1" stroke="black" stroke-width="0.5" width="2.1" x="83.9" y="43.9" /><rect fill="white" height="2.1" stroke="black" stroke-width="0.5" width="2.1" x="93.9" y="43.9" /><rect fill="black" height="2.1" stroke="none" stroke-width="0" width="2.1" x="103.9" y="43.9" /><rect fill="black" height="2.1" stroke="none" stroke-width="0" width="2.1" x="113.9" y="43.9" /><rect fill="white" height="2.1" stroke="black" stroke-width="0.5" width="2.1" x="123.9" y="43.9" /><rect fill="black" height="2.1" stroke="none" stroke-width="0" width="2.1" x="133.9" y="43.9" /><rect fill="white" height="2.1" stroke="black" stroke-width="0.5" width="2.1" x="143.9" y="43.9" /><rect fill="black" height="2.1" stroke="none" stroke-width="0" width="2.1" x="153.9" y="43.9" /><rect fill="white" height="2.1" stroke="black" stroke-width="0.5" width="2.1" x="163.9" y="43.9" /><rect fill="black" height="2.1" stroke="none" stroke-width="0" width="2.1" x="173.9" y="43.9" /><rect fill="white" height="2.1" stroke="black" stroke-width="0.5" width="2.1" x="3.9" y="53.9" /><rect fill="white" height="2.1" stroke="black" stroke-width="0.5" width="2.1" x="13.9" y="53.9" /><rect fill="white" height="2.1" stroke="black" stroke-width="0.5" width="2.1" x="23.9" y="53.9" /><rect fill="black" height="2.1" stroke="none" stroke-width="0" width="2.1" x="33.9" y="53.9" /><rect fill="black" height="2.1" stroke="none" stroke-width="0" width="2.1" x="43.9" y="53.9" /><rect fill="white" height="2.1" stroke="black" stroke-width="0.5" width="2.1" x="53.9" y="53.9" /><rect fill="black" height="2.1" stroke="none" stroke-width="0" width="2.1" x="63.9" y="53.9" /><rect fill="black" height="2.1" stroke="none" stroke-width="0" width="2.1" x="73.9" y="53.9" /><rect fill="black" height="2.1" stroke="none" stroke-width="0" width="2.1" x="83.9" y="53.9" /><rect fill="black" height="2.1" stroke="none" stroke-width="0" width="2.1" x="93.9" y="53.9" /><rect fill="white" height="2.1" stroke="black" stroke-width="0.5" width="2.1" x="103.9" y="53.9" /><rect fill="black" height="2.1" stroke="none" stroke-width="0" width="2.1" x="113.9" y="53.9" /><rect fill="white" height="2.1" stroke="black" stroke-width="0.5" width="2.1" x="123.9" y="53.9" /><rect fill="black" height="2.1" stroke="none" stroke-width="0" width="2.1" x="133.9" y="53.9" /><rect fill="white" height="2.1" stroke="black" stroke-width="0.5" width="2.1" x="143.9" y="53.9" /><rect fill="white" height="2.1" stroke="black" stroke-width="0.5" width="2.1" x="153.9" y="53.9" /><rect fill="white" height="2.1" stroke="black" stroke-width="0.5" width="2.1" x="163.9" y="53.9" /><rect fill="white" height="2.1" stroke="black" stroke-width="0.5" width="2.1" x="173.9" y="53.9" /><rect fill="white" height="2.1" stroke="black" stroke-width="0.5" width="2.1" x="3.9" y="63.9" /><rect fill="black" height="2.1" stroke="none" stroke-width="0" width="2.1" x="13.9" y="63.9" /><rect fill="white" height="2.1" stroke="black" stroke-width="0.5" width="2.1" x="23.9" y="63.9" /><rect fill="white" height="2.1" stroke="black" stroke-width="0.5" width="2.1" x="33.9" y="63.9" /><rect fill="white" height="2.1" stroke="black" stroke-width="0.5" width="2.1" x="43.9" y="63.9" /><rect fill="black" height="2.1" stroke="none" stroke-width="0" width="2.1" x="53.9" y="63.9" /><rect fill="black" height="2.1" stroke="none" stroke-width="0" width="2.1" x="63.9" y="63.9" /><rect fill="white" height="2.1" stroke="black" stroke-width="0.5" width="2.1" x="73.9" y="63.9" /><rect fill="black" height="2.1" stroke="none" stroke-width="0" width="2.1" x="83.9" y="63.9" /><rect fill="white" height="2.1" stroke="black" stroke-width="0.5" width="2.1" x="93.9" y="63.9" /><rect fill="white" height="2.1" stroke="black" stroke-width="0.5" width="2.1" x="103.9" y="63.9" /><rect fill="black" height="2.1" stroke="none" stroke-width="0" width="2.1" x="113.9" y="63.9" /><rect fill="white" height="2.1" stroke="black" stroke-width="0.5" width="2.1" x="123.9" y="63.9" /><rect fill="black" height="2.1" stroke="none" stroke-width="0" width="2.1" x="133.9" y="63.9" /><rect fill="white" height="2.1" stroke="black" stroke-width="0.5" width="2.1" x="143.9" y="63.9" /><rect fill="white" height="2.1" stroke="black" stroke-width="0.5" width="2.1" x="153.9" y="63.9" /><rect fill="black" height="2.1" stroke="none" stroke-width="0" width="2.1" x="163.9" y="63.9" /><rect fill="black" height="2.1" stroke="none" stroke-width="0" width="2.1" x="173.9" y="63.9" /><rect fill="black" height="2.3" stroke="none" stroke-width="0" width="2.3" x="3.9" y="73.9" /><rect fill="white" height="2.1" stroke="black" stroke-width="0.5" width="2.1" x="13.9" y="73.9" /><rect fill="white" height="2.2" stroke="black" stroke-width="0.5" width="2.2" x="23.9" y="73.9" /><rect fill="white" height="2.1" stroke="black" stroke-width="0.5" width="2.1" x="33.9" y="73.9" /><rect fill="white" height="2.1" stroke="black" stroke-width="0.5" width="2.1" x="43.9" y="73.9" /><rect fill="black" height="2.1" stroke="none" stroke-width="0" width="2.1" x="53.9" y="73.9" /><rect fill="white" height="2.1" stroke="black" stroke-width="0.5" width="2.1" x="63.9" y="73.9" /><rect fill="black" height="3.2" stroke="none" stroke-width="0" width="3.2" x="73.4" y="73.4" /><rect fill="black" height="2.1" stroke="none" stroke-width="0" width="2.1" x="83.9" y="73.9" /><rect fill="black" height="2.1" stroke="none" stroke-width="0" width="2.1" x="93.9" y="73.9" /><rect fill="black" height="2.1" stroke="none" stroke-width="0" width="2.1" x="103.9" y="73.9" /><rect fill="black" height="2.1" stroke="none" stroke-width="0" width="2.1" x="113.9" y="73.9" /><rect fill="white" height="2.1" stroke="black" stroke-width="0.5" width="2.1" x="123.9" y="73.9" /><rect fill="white" height="2.1" stroke="black" stroke-width="0.5" width="2.1" x="133.9" y="73.9" /><rect fill="white" height="2.1" stroke="black" stroke-width="0.5" width="2.1" x="143.9" y="73.9" /><rect fill="white" height="2.1" stroke="black" stroke-width="0.5" width="2.1" x="153.9" y="73.9" /><rect fill="white" height="2.1" stroke="black" stroke-width="0.5" width="2.1" x="163.9" y="73.9" /><rect fill="black" height="2.1" stroke="none" stroke-width="0" width="2.1" x="173.9" y="73.9" /><rect fill="black" height="2.1" stroke="none" stroke-width="0" width="2.1" x="3.9" y="83.9" /><rect fill="black" height="2.1" stroke="none" stroke-width="0" width="2.1" x="13.9" y="83.9" /><rect fill="white" height="2.1" stroke="black" stroke-width="0.5" width="2.1" x="23.9" y="83.9" /><rect fill="black" height="2.3" stroke="none" stroke-width="0" width="2.3" x="33.8" y="83.8" /><rect fill="white" height="2.1" stroke="black" stroke-width="0.5" width="2.1" x="43.9" y="83.9" /><rect fill="black" height="2.1" stroke="none" stroke-width="0" width="2.1" x="53.9" y="83.9" /><rect fill="black" height="2.1" stroke="none" stroke-width="0" width="2.1" x="63.9" y="83.9" /><rect fill="black" height="2.1" stroke="none" stroke-width="0" width="2.1" x="73.9" y="83.9" /><rect fill="black" height="3.4" stroke="none" stroke-width="0" width="3.4" x="83.3" y="83.3" /><rect fill="white" height="2.1" stroke="black" stroke-width="0.5" width="2.1" x="93.9" y="83.9" /><rect fill="black" height="2.1" stroke="none" stroke-width="0" width="2.1" x="103.9" y="83.9" /><rect fill="white" height="2.1" stroke="black" stroke-width="0.5" width="2.1" x="113.9" y="83.9" /><rect fill="white" height="2.1" stroke="black" stroke-width="0.5" width="2.1" x="123.9" y="83.9" /><rect fill="white" height="2.1" stroke="black" stroke-width="0.5" width="2.1" x="133.9" y="83.9" /><rect fill="black" height="2.1" stroke="none" stroke-width="0" width="2.1" x="143.9" y="83.9" /><rect fill="white" height="2.1" stroke="black" stroke-width="0.5" width="2.1" x="153.9" y="83.9" /><rect fill="white" height="2.1" stroke="black" stroke-width="0.5" width="2.1" x="163.9" y="83.9" /><rect fill="white" height="2.1" stroke="black" stroke-width="0.5" width="2.1" x="173.9" y="83.9" /><rect fill="white" height="2.1" stroke="black" stroke-width="0.5" width="2.1" x="3.9" y="93.9" /><rect fill="white" height="2.1" stroke="black" stroke-width="0.5" width="2.1" x="13.9" y="93.9" /><rect fill="black" height="2.1" stroke="none" stroke-width="0" width="2.1" x="23.9" y="93.9" /><rect fill="black" height="2.1" stroke="none" stroke-width="0" width="2.1" x="33.9" y="93.9" /><rect fill="white" height="2.1" stroke="black" stroke-width="0.5" width="2.1" x="43.9" y="93.9" /><rect fill="black" height="2.1" stroke="none" stroke-width="0" width="2.1" x="53.9" y="93.9" /><rect fill="white" height="2.1" stroke="black" stroke-width="0.5" width="2.1" x="63.9" y="93.9" /><rect fill="black" height="2.1" stroke="none" stroke-width="0" width="2.1" x="73.9" y="93.9" /><rect fill="white" height="2.1" stroke="black" stroke-width="0.5" width="2.1" x="83.9" y="93.9" /><rect fill="black" height="2.1" stroke="none" stroke-width="0" width="2.1" x="93.9" y="93.9" /><rect fill="black" height="2.1" stroke="none" stroke-width="0" width="2.1" x="103.9" y="93.9" /><rect fill="white" height="2.1" stroke="black" stroke-width="0.5" width="2.1" x="113.9" y="93.9" /><rect fill="white" height="2.1" stroke="black" stroke-width="0.5" width="2.1" x="123.9" y="93.9" /><rect fill="white" height="2.1" stroke="black" stroke-width="0.5" width="2.1" x="133.9" y="93.9" /><rect fill="black" height="2.1" stroke="none" stroke-width="0" width="2.1" x="143.9" y="93.9" /><rect fill="black" height="2.1" stroke="none" stroke-width="0" width="2.1" x="153.9" y="93.9" /><rect fill="white" height="2.1" stroke="black" stroke-width="0.5" width="2.1" x="163.9" y="93.9" /><rect fill="white" height="2.1" stroke="black" stroke-width="0.5" width="2.1" x="173.9" y="93.9" /><rect fill="black" height="2.1" stroke="none" stroke-width="0" width="2.1" x="3.9" y="103.9" /><rect fill="white" height="2.1" stroke="black" stroke-width="0.5" width="2.1" x="13.9" y="103.9" /><rect fill="white" height="2.1" stroke="black" stroke-width="0.5" width="2.1" x="23.9" y="103.9" /><rect fill="black" height="2.1" stroke="none" stroke-width="0" width="2.1" x="33.9" y="103.9" /><rect fill="black" height="2.1" stroke="none" stroke-width="0" width="2.1" x="43.9" y="103.9" /><rect fill="white" height="2.1" stroke="black" stroke-width="0.5" width="2.1" x="53.9" y="103.9" /><rect fill="white" height="2.1" stroke="black" stroke-width="0.5" width="2.1" x="63.9" y="103.9" /><rect fill="black" height="2.1" stroke="none" stroke-width="0" width="2.1" x="73.9" y="103.9" /><rect fill="black" height="2.1" stroke="none" stroke-width="0" width="2.1" x="83.9" y="103.9" /><rect fill="black" height="2.1" stroke="none" stroke-width="0" width="2.1" x="93.9" y="103.9" /><rect fill="white" height="2.1" stroke="black" stroke-width="0.5" width="2.1" x="103.9" y="103.9" /><rect fill="white" height="2.1" stroke="black" stroke-width="0.5" width="2.1" x="113.9" y="103.9" /><rect fill="black" height="2.1" stroke="none" stroke-width="0" width="2.1" x="123.9" y="103.9" /><rect fill="black" height="2.1" stroke="none" stroke-width="0" width="2.1" x="133.9" y="103.9" /><rect fill="white" height="2.1" stroke="black" stroke-width="0.5" width="2.1" x="143.9" y="103.9" /><rect fill="black" height="2.1" stroke="none" stroke-width="0" width="2.1" x="153.9" y="103.9" /><rect fill="white" height="2.1" stroke="black" stroke-width="0.5" width="2.1" x="163.9" y="103.9" /><rect fill="white" height="2.1" stroke="black" stroke-width="0.5" width="2.1" x="173.9" y="103.9" /><rect fill="black" height="2.1" stroke="none" stroke-width="0" width="2.1" x="3.9" y="113.9" /><rect fill="white" height="2.1" stroke="black" stroke-width="0.5" width="2.1" x="13.9" y="113.9" /><rect fill="white" height="2.1" stroke="black" stroke-width="0.5" width="2.1" x="23.9" y="113.9" /><rect fill="white" height="2.1" stroke="black" stroke-width="0.5" width="2.1" x="33.9" y="113.9" /><rect fill="black" height="2.1" stroke="none" stroke-width="0" width="2.1" x="43.9" y="113.9" /><rect fill="black" height="2.1" stroke="none" stroke-width="0" width="2.1" x="53.9" y="113.9" /><rect fill="black" height="2.1" stroke="none" stroke-width="0" width="2.1" x="63.9" y="113.9" /><rect fill="black" height="2.1" stroke="none" stroke-width="0" width="2.1" x="73.9" y="113.9" /><rect fill="white" height="2.1" stroke="black" stroke-width="0.5" width="2.1" x="83.9" y="113.9" /><rect fill="white" height="2.1" stroke="black" stroke-width="0.5" width="2.1" x="93.9" y="113.9" /><rect fill="white" height="2.1" stroke="black" stroke-width="0.5" width="2.1" x="103.9" y="113.9" /><rect fill="black" height="2.1" stroke="none" stroke-width="0" width="2.1" x="113.9" y="113.9" /><rect fill="white" height="2.1" stroke="black" stroke-width="0.5" width="2.1" x="123.9" y="113.9" /><rect fill="black" height="2.1" stroke="none" stroke-width="0" width="2.1" x="133.9" y="113.9" /><rect fill="black" height="2.1" stroke="none" stroke-width="0" width="2.1" x="143.9" y="113.9" /><rect fill="black" height="2.1" stroke="none" stroke-width="0" width="2.1" x="153.9" y="113.9" /><rect fill="black" height="2.1" stroke="none" stroke-width="0" width="2.1" x="163.9" y="113.9" /><rect fill="white" height="2.1" stroke="black" stroke-width="0.5" width="2.1" x="173.9" y="113.9" /><rect fill="black" height="2.1" stroke="none" stroke-width="0" width="2.1" x="3.9" y="123.9" /><rect fill="black" height="2.1" stroke="none" stroke-width="0" width="2.1" x="13.9" y="123.9" /><rect fill="white" height="2.1" stroke="black" stroke-width="0.5" width="2.1" x="23.9" y="123.9" /><rect fill="black" height="2.1" stroke="none" stroke-width="0" width="2.1" x="33.9" y="123.9" /><rect fill="white" height="2.1" stroke="black" stroke-width="0.5" width="2.1" x="43.9" y="123.9" /><rect fill="white" height="2.1" stroke="black" stroke-width="0.5" width="2.1" x="53.9" y="123.9" /><rect fill="white" height="2.1" stroke="black" stroke-width="0.5" width="2.1" x="63.9" y="123.9" /><rect fill="white" height="2.1" stroke="black" stroke-width="0.5" width="2.1" x="73.9" y="123.9" /><rect fill="white" height="2.1" stroke="black" stroke-width="0.5" width="2.1" x="83.9" y="123.9" /><rect fill="white" height="2.1" stroke="black" stroke-width="0.5" width="2.1" x="93.9" y="123.9" /><rect fill="black" height="2.1" stroke="none" stroke-width="0" width="2.1" x="103.9" y="123.9" /><rect fill="white" height="2.1" stroke="black" stroke-width="0.5" width="2.1" x="113.9" y="123.9" /><rect fill="black" height="2.1" stroke="none" stroke-width="0" width="2.1" x="123.9" y="123.9" /><rect fill="white" height="2.1" stroke="black" stroke-width="0.5" width="2.1" x="133.9" y="123.9" /><rect fill="black" height="2.1" stroke="none" stroke-width="0" width="2.1" x="143.9" y="123.9" /><rect fill="black" height="2.1" stroke="none" stroke-width="0" width="2.1" x="153.9" y="123.9" /><rect fill="black" height="2.1" stroke="none" stroke-width="0" width="2.1" x="163.9" y="123.9" /><rect fill="black" height="2.1" stroke="none" stroke-width="0" width="2.1" x="173.9" y="123.9" /><rect fill="black" height="2.1" stroke="none" stroke-width="0" width="2.1" x="3.9" y="133.9" /><rect fill="white" height="2.1" stroke="black" stroke-width="0.5" width="2.1" x="13.9" y="133.9" /><rect fill="white" height="2.1" stroke="black" stroke-width="0.5" width="2.1" x="23.9" y="133.9" /><rect fill="white" height="2.1" stroke="black" stroke-width="0.5" width="2.1" x="33.9" y="133.9" /><rect fill="black" height="2.1" stroke="none" stroke-width="0" width="2.1" x="43.9" y="133.9" /><rect fill="black" height="2.1" stroke="none" stroke-width="0" width="2.1" x="53.9" y="133.9" /><rect fill="black" height="2.1" stroke="none" stroke-width="0" width="2.1" x="63.9" y="133.9" /><rect fill="white" height="2.1" stroke="black" stroke-width="0.5" width="2.1" x="73.9" y="133.9" /><rect fill="white" height="2.1" stroke="black" stroke-width="0.5" width="2.1" x="83.9" y="133.9" /><rect fill="white" height="2.1" stroke="black" stroke-width="0.5" width="2.1" x="93.9" y="133.9" /><rect fill="black" height="2.1" stroke="none" stroke-width="0" width="2.1" x="103.9" y="133.9" /><rect fill="black" height="2.1" stroke="none" stroke-width="0" width="2.1" x="113.9" y="133.9" /><rect fill="white" height="2.1" stroke="black" stroke-width="0.5" width="2.1" x="123.9" y="133.9" /><rect fill="black" height="2.1" stroke="none" stroke-width="0" width="2.1" x="133.9" y="133.9" /><rect fill="white" height="2.1" stroke="black" stroke-width="0.5" width="2.1" x="143.9" y="133.9" /><rect fill="black" height="2.1" stroke="none" stroke-width="0" width="2.1" x="153.9" y="133.9" /><rect fill="black" height="2.1" stroke="none" stroke-width="0" width="2.1" x="163.9" y="133.9" /><rect fill="black" height="2.1" stroke="none" stroke-width="0" width="2.1" x="173.9" y="133.9" /><rect fill="black" height="2.1" stroke="none" stroke-width="0" width="2.1" x="3.9" y="143.9" /><rect fill="black" height="2.1" stroke="none" stroke-width="0" width="2.1" x="13.9" y="143.9" /><rect fill="black" height="2.1" stroke="none" stroke-width="0" width="2.1" x="23.9" y="143.9" /><rect fill="black" height="2.1" stroke="none" stroke-width="0" width="2.1" x="33.9" y="143.9" /><rect fill="white" height="2.1" stroke="black" stroke-width="0.5" width="2.1" x="43.9" y="143.9" /><rect fill="white" height="2.1" stroke="black" stroke-width="0.5" width="2.1" x="53.9" y="143.9" /><rect fill="white" height="2.1" stroke="black" stroke-width="0.5" width="2.1" x="63.9" y="143.9" /><rect fill="white" height="2.1" stroke="black" stroke-width="0.5" width="2.1" x="73.9" y="143.9" /><rect fill="black" height="2.1" stroke="none" stroke-width="0" width="2.1" x="83.9" y="143.9" /><rect fill="black" height="2.1" stroke="none" stroke-width="0" width="2.1" x="93.9" y="143.9" /><rect fill="white" height="2.1" stroke="black" stroke-width="0.5" width="2.1" x="103.9" y="143.9" /><rect fill="black" height="2.1" stroke="none" stroke-width="0" width="2.1" x="113.9" y="143.9" /><rect fill="black" height="2.1" stroke="none" stroke-width="0" width="2.1" x="123.9" y="143.9" /><rect fill="white" height="2.1" stroke="black" stroke-width="0.5" width="2.1" x="133.9" y="143.9" /><rect fill="white" height="2.1" stroke="black" stroke-width="0.5" width="2.1" x="143.9" y="143.9" /><rect fill="white" height="2.1" stroke="black" stroke-width="0.5" width="2.1" x="153.9" y="143.9" /><rect fill="white" height="2.1" stroke="black" stroke-width="0.5" width="2.1" x="163.9" y="143.9" /><rect fill="white" height="2.1" stroke="black" stroke-width="0.5" width="2.1" x="173.9" y="143.9" /><rect fill="black" height="2.1" stroke="none" stroke-width="0" width="2.1" x="3.9" y="153.9" /><rect fill="black" height="2.1" stroke="none" stroke-width="0" width="2.1" x="13.9" y="153.9" /><rect fill="white" height="2.1" stroke="black" stroke-width="0.5" width="2.1" x="23.9" y="153.9" /><rect fill="black" height="2.1" stroke="none" stroke-width="0" width="2.1" x="33.9" y="153.9" /><rect fill="black" height="2.1" stroke="none" stroke-width="0" width="2.1" x="43.9" y="153.9" /><rect fill="white" height="2.1" stroke="black" stroke-width="0.5" width="2.1" x="53.9" y="153.9" /><rect fill="white" height="2.1" stroke="black" stroke-width="0.5" width="2.1" x="63.9" y="153.9" /><rect fill="white" height="2.1" stroke="black" stroke-width="0.5" width="2.1" x="73.9" y="153.9" /><rect fill="white" height="2.1" stroke="black" stroke-width="0.5" width="2.1" x="83.9" y="153.9" /><rect fill="black" height="2.1" stroke="none" stroke-width="0" width="2.1" x="93.9" y="153.9" /><rect fill="black" height="2.1" stroke="none" stroke-width="0" width="2.1" x="103.9" y="153.9" /><rect fill="black" height="2.1" stroke="none" stroke-width="0" width="2.1" x="113.9" y="153.9" /><rect fill="black" height="2.1" stroke="none" stroke-width="0" width="2.1" x="123.9" y="153.9" /><rect fill="black" height="2.1" stroke="none" stroke-width="0" width="2.1" x="133.9" y="153.9" /><rect fill="white" height="2.1" stroke="black" stroke-width="0.5" width="2.1" x="143.9" y="153.9" /><rect fill="white" height="2.1" stroke="black" stroke-width="0.5" width="2.1" x="153.9" y="153.9" /><rect fill="white" height="2.1" stroke="black" stroke-width="0.5" width="2.1" x="163.9" y="153.9" /><rect fill="white" height="2.1" stroke="black" stroke-width="0.5" width="2.1" x="173.9" y="153.9" /><rect fill="black" height="2.1" stroke="none" stroke-width="0" width="2.1" x="3.9" y="163.9" /><rect fill="black" height="2.1" stroke="none" stroke-width="0" width="2.1" x="13.9" y="163.9" /><rect fill="white" height="2.1" stroke="black" stroke-width="0.5" width="2.1" x="23.9" y="163.9" /><rect fill="white" height="2.1" stroke="black" stroke-width="0.5" width="2.1" x="33.9" y="163.9" /><rect fill="white" height="2.1" stroke="black" stroke-width="0.5" width="2.1" x="43.9" y="163.9" /><rect fill="white" height="2.1" stroke="black" stroke-width="0.5" width="2.1" x="53.9" y="163.9" /><rect fill="black" height="2.1" stroke="none" stroke-width="0" width="2.1" x="63.9" y="163.9" /><rect fill="white" height="2.1" stroke="black" stroke-width="0.5" width="2.1" x="73.9" y="163.9" /><rect fill="white" height="2.1" stroke="black" stroke-width="0.5" width="2.1" x="83.9" y="163.9" /><rect fill="white" height="2.1" stroke="black" stroke-width="0.5" width="2.1" x="93.9" y="163.9" /><rect fill="black" height="2.1" stroke="none" stroke-width="0" width="2.1" x="103.9" y="163.9" /><rect fill="black" height="2.1" stroke="none" stroke-width="0" width="2.1" x="113.9" y="163.9" /><rect fill="black" height="2.1" stroke="none" stroke-width="0" width="2.1" x="123.9" y="163.9" /><rect fill="black" height="2.1" stroke="none" stroke-width="0" width="2.1" x="133.9" y="163.9" /><rect fill="white" height="2.1" stroke="black" stroke-width="0.5" width="2.1" x="143.9" y="163.9" /><rect fill="white" height="2.1" stroke="black" stroke-width="0.5" width="2.1" x="153.9" y="163.9" /><rect fill="white" height="2.1" stroke="black" stroke-width="0.5" width="2.1" x="163.9" y="163.9" /><rect fill="white" height="2.1" stroke="black" stroke-width="0.5" width="2.1" x="173.9" y="163.9" /><rect fill="white" height="2.1" stroke="black" stroke-width="0.5" width="2.1" x="3.9" y="173.9" /><rect fill="black" height="2.1" stroke="none" stroke-width="0" width="2.1" x="13.9" y="173.9" /><rect fill="white" height="2.1" stroke="black" stroke-width="0.5" width="2.1" x="23.9" y="173.9" /><rect fill="black" height="2.1" stroke="none" stroke-width="0" width="2.1" x="33.9" y="173.9" /><rect fill="black" height="2.1" stroke="none" stroke-width="0" width="2.1" x="43.9" y="173.9" /><rect fill="white" height="2.1" stroke="black" stroke-width="0.5" width="2.1" x="53.9" y="173.9" /><rect fill="black" height="2.1" stroke="none" stroke-width="0" width="2.1" x="63.9" y="173.9" /><rect fill="black" height="2.1" stroke="none" stroke-width="0" width="2.1" x="73.9" y="173.9" /><rect fill="white" height="2.1" stroke="black" stroke-width="0.5" width="2.1" x="83.9" y="173.9" /><rect fill="white" height="2.1" stroke="black" stroke-width="0.5" width="2.1" x="93.9" y="173.9" /><rect fill="white" height="2.1" stroke="black" stroke-width="0.5" width="2.1" x="103.9" y="173.9" /><rect fill="white" height="2.1" stroke="black" stroke-width="0.5" width="2.1" x="113.9" y="173.9" /><rect fill="black" height="2.1" stroke="none" stroke-width="0" width="2.1" x="123.9" y="173.9" /><rect fill="black" height="2.1" stroke="none" stroke-width="0" width="2.1" x="133.9" y="173.9" /><rect fill="white" height="2.1" stroke="black" stroke-width="0.5" width="2.1" x="143.9" y="173.9" /><rect fill="white" height="2.1" stroke="black" stroke-width="0.5" width="2.1" x="153.9" y="173.9" /><rect fill="white" height="2.1" stroke="black" stroke-width="0.5" width="2.1" x="163.9" y="173.9" /><rect fill="white" height="2.1" stroke="black" stroke-width="0.5" width="2.1" x="173.9" y="173.9" /></g><g><text font-size="20px" text-anchor="middle" x="90.0" y="202.0">ω₁</text><text font-size="20px" text-anchor="middle" transform="rotate(-90, -22.0, 90.0)" x="-22.0" y="90.0">ω₀</text></g></svg>