<?xml version="1.0" encoding="utf-8" ?>
<svg baseProfile="full" height="100%" preserveAspectRatio="xMidYMid meet" version="1.1" viewBox="-40,-40,1210,90" width="100%" xmlns="http://www.w3.org/2000/svg" xmlns:ev="http://www.w3.org/2001/xml-events" xmlns:xlink="http://www.w3.org/1999/xlink"><defs><style type="text/css"><![CDATA[
        @import url(https://cdn.jsdelivr.net/npm/firacode@6.2.0/distr/fira_code.css);
        text {
            font-family: 'STIX Two', 'STIX Two Math', 'STIXMath', 'DejaVu Math TeX Glyph',
                        'DejaVu Serif', 'Cambria Math', 'Latin Modern Math', 'FiraCode',
                        'serif';
        }
    ]]></style><style type="text/css"><![CDATA[
        @import url(https://cdn.jsdelivr.net/npm/firacode@6.2.0/distr/fira_code.css);
        text {
            font-family: 'STIX Two', 'STIX Two Math', 'STIXMath', 'DejaVu Math TeX Glyph',
                        'DejaVu Serif', 'Cambria Math', 'Latin Modern Math', 'FiraCode',
                        'serif';
        }
    ]]></style></defs><g><rect fill="black" height="9.5" stroke="none" stroke-width="0" width="9.5" x="0.2" y="0.2" /><rect fill="black" height="8.1" stroke="none" stroke-width="0" width="8.1" x="11.0" y="1.0" /><rect fill="black" height="7.8" stroke="none" stroke-width="0" width="7.8" x="21.1" y="1.1" /><rect fill="black" height="7.7" stroke="none" stroke-width="0" width="7.7" x="31.1" y="1.1" /><rect fill="black" height="7.7" stroke="none" stroke-width="0" width="7.7" x="41.1" y="1.1" /><rect fill="black" height="7.7" stroke="none" stroke-width="0" width="7.7" x="51.2" y="1.2" /><rect fill="black" height="7.6" stroke="none" stroke-width="0" width="7.6" x="61.2" y="1.2" /><rect fill="black" height="7.6" stroke="none" stroke-width="0" width="7.6" x="71.2" y="1.2" /><rect fill="black" height="7.5" stroke="none" stroke-width="0" width="7.5" x="81.2" y="1.2" /><rect fill="black" height="7.5" stroke="none" stroke-width="0" width="7.5" x="91.3" y="1.3" /><rect fill="black" height="7.4" stroke="none" stroke-width="0" width="7.4" x="101.3" y="1.3" /><rect fill="black" height="7.4" stroke="none" stroke-width="0" width="7.4" x="111.3" y="1.3" /><rect fill="black" height="7.3" stroke="none" stroke-width="0" width="7.3" x="121.3" y="1.3" /><rect fill="black" height="7.3" stroke="none" stroke-width="0" width="7.3" x="131.3" y="1.3" /><rect fill="black" height="7.3" stroke="none" stroke-width="0" width="7.3" x="141.4" y="1.4" /><rect fill="black" height="7.2" stroke="none" stroke-width="0" width="7.2" x="151.4" y="1.4" /><rect fill="black" height="7.2" stroke="none" stroke-width="0" width="7.2" x="161.4" y="1.4" /><rect fill="black" height="7.2" stroke="none" stroke-width="0" width="7.2" x="171.4" y="1.4" /><rect fill="black" height="7.1" stroke="none" stroke-width="0" width="7.1" x="181.4" y="1.4" /><rect fill="black" height="7.0" stroke="none" stroke-width="0" width="7.0" x="191.5" y="1.5" /><rect fill="black" height="7.0" stroke="none" stroke-width="0" width="7.0" x="201.5" y="1.5" /><rect fill="black" height="6.9" stroke="none" stroke-width="0" width="6.9" x="211.5" y="1.5" /><rect fill="black" height="6.9" stroke="none" stroke-width="0" width="6.9" x="221.5" y="1.5" /><rect fill="black" height="6.9" stroke="none" stroke-width="0" width="6.9" x="231.6" y="1.6" /><rect fill="black" height="6.8" stroke="none" stroke-width="0" width="6.8" x="241.6" y="1.6" /><rect fill="black" height="6.8" stroke="none" stroke-width="0" width="6.8" x="251.6" y="1.6" /><rect fill="black" height="6.7" stroke="none" stroke-width="0" width="6.7" x="261.6" y="1.6" /><rect fill="black" height="6.7" stroke="none" stroke-width="0" width="6.7" x="271.7" y="1.7" /><rect fill="black" height="6.6" stroke="none" stroke-width="0" width="6.6" x="281.7" y="1.7" /><rect fill="black" height="6.5" stroke="none" stroke-width="0" width="6.5" x="291.7" y="1.7" /><rect fill="black" height="6.5" stroke="none" stroke-width="0" width="6.5" x="301.8" y="1.8" /><rect fill="black" height="6.4" stroke="none" stroke-width="0" width="6.4" x="311.8" y="1.8" /><rect fill="black" height="6.3" stroke="none" stroke-width="0" width="6.3" x="321.8" y="1.8" /><rect fill="black" height="6.3" stroke="none" stroke-width="0" width="6.3" x="331.9" y="1.9" /><rect fill="black" height="6.2" stroke="none" stroke-width="0" width="6.2" x="341.9" y="1.9" /><rect fill="black" height="6.2" stroke="none" stroke-width="0" width="6.2" x="351.9" y="1.9" /><rect fill="black" height="6.2" stroke="none" stroke-width="0" width="6.2" x="361.9" y="1.9" /><rect fill="black" height="6.1" stroke="none" stroke-width="0" width="6.1" x="372.0" y="2.0" /><rect fill="black" height="6.0" stroke="none" stroke-width="0" width="6.0" x="382.0" y="2.0" /><rect fill="black" height="6.0" stroke="none" stroke-width="0" width="6.0" x="392.0" y="2.0" /><rect fill="black" height="5.8" stroke="none" stroke-width="0" width="5.8" x="402.1" y="2.1" /><rect fill="black" height="5.8" stroke="none" stroke-width="0" width="5.8" x="412.1" y="2.1" /><rect fill="black" height="5.7" stroke="none" stroke-width="0" width="5.7" x="422.1" y="2.1" /><rect fill="black" height="5.6" stroke="none" stroke-width="0" width="5.6" x="432.2" y="2.2" /><rect fill="black" height="5.6" stroke="none" stroke-width="0" width="5.6" x="442.2" y="2.2" /><rect fill="black" height="5.5" stroke="none" stroke-width="0" width="5.5" x="452.3" y="2.3" /><rect fill="black" height="5.4" stroke="none" stroke-width="0" width="5.4" x="462.3" y="2.3" /><rect fill="black" height="5.4" stroke="none" stroke-width="0" width="5.4" x="472.3" y="2.3" /><rect fill="black" height="5.3" stroke="none" stroke-width="0" width="5.3" x="482.3" y="2.3" /><rect fill="black" height="5.2" stroke="none" stroke-width="0" width="5.2" x="492.4" y="2.4" /><rect fill="black" height="5.1" stroke="none" stroke-width="0" width="5.1" x="502.4" y="2.4" /><rect fill="black" height="5.0" stroke="none" stroke-width="0" width="5.0" x="512.5" y="2.5" /><rect fill="black" height="4.9" stroke="none" stroke-width="0" width="4.9" x="522.6" y="2.6" /><rect fill="black" height="4.8" stroke="none" stroke-width="0" width="4.8" x="532.6" y="2.6" /><rect fill="black" height="4.7" stroke="none" stroke-width="0" width="4.7" x="542.6" y="2.6" /><rect fill="black" height="4.6" stroke="none" stroke-width="0" width="4.6" x="552.7" y="2.7" /><rect fill="black" height="4.5" stroke="none" stroke-width="0" width="4.5" x="562.8" y="2.8" /><rect fill="black" height="4.3" stroke="none" stroke-width="0" width="4.3" x="572.8" y="2.8" /><rect fill="black" height="4.1" stroke="none" stroke-width="0" width="4.1" x="582.9" y="2.9" /><rect fill="black" height="4.0" stroke="none" stroke-width="0" width="4.0" x="593.0" y="3.0" /><rect fill="black" height="3.9" stroke="none" stroke-width="0" width="3.9" x="603.0" y="3.0" /><rect fill="black" height="3.9" stroke="none" stroke-width="0" width="3.9" x="613.1" y="3.1" /><rect fill="black" height="3.8" stroke="none" stroke-width="0" width="3.8" x="623.1" y="3.1" /><rect fill="black" height="3.7" stroke="none" stroke-width="0" width="3.7" x="633.2" y="3.2" /><rect fill="black" height="3.6" stroke="none" stroke-width="0" width="3.6" x="643.2" y="3.2" /><rect fill="black" height="3.4" stroke="none" stroke-width="0" width="3.4" x="653.3" y="3.3" /><rect fill="black" height="3.3" stroke="none" stroke-width="0" width="3.3" x="663.3" y="3.3" /><rect fill="black" height="3.2" stroke="none" stroke-width="0" width="3.2" x="673.4" y="3.4" /><rect fill="black" height="3.2" stroke="none" stroke-width="0" width="3.2" x="683.4" y="3.4" /><rect fill="black" height="3.1" stroke="none" stroke-width="0" width="3.1" x="693.4" y="3.4" /><rect fill="black" height="3.1" stroke="none" stroke-width="0" width="3.1" x="703.5" y="3.5" /><rect fill="black" height="3.0" stroke="none" stroke-width="0" width="3.0" x="713.5" y="3.5" /><rect fill="black" height="3.0" stroke="none" stroke-width="0" width="3.0" x="723.5" y="3.5" /><rect fill="black" height="2.9" stroke="none" stroke-width="0" width="2.9" x="733.5" y="3.5" /><rect fill="black" height="2.9" stroke="none" stroke-width="0" width="2.9" x="743.5" y="3.5" /><rect fill="black" height="2.8" stroke="none" stroke-width="0" width="2.8" x="753.6" y="3.6" /><rect fill="black" height="2.8" stroke="none" stroke-width="0" width="2.8" x="763.6" y="3.6" /><rect fill="black" height="2.8" stroke="none" stroke-width="0" width="2.8" x="773.6" y="3.6" /><rect fill="black" height="2.7" stroke="none" stroke-width="0" width="2.7" x="783.6" y="3.6" /><rect fill="black" height="2.7" stroke="none" stroke-width="0" width="2.7" x="793.7" y="3.7" /><rect fill="black" height="2.6" stroke="none" stroke-width="0" width="2.6" x="803.7" y="3.7" /><rect fill="black" height="2.6" stroke="none" stroke-width="0" width="2.6" x="813.7" y="3.7" /><rect fill="black" height="2.6" stroke="none" stroke-width="0" width="2.6" x="823.7" y="3.7" /><rect fill="black" height="2.6" stroke="none" stroke-width="0" width="2.6" x="833.7" y="3.7" /><rect fill="black" height="2.5" stroke="none" stroke-width="0" width="2.5" x="843.7" y="3.7" /><rect fill="black" height="2.5" stroke="none" stroke-width="0" width="2.5" x="853.7" y="3.7" /><rect fill="black" height="2.5" stroke="none" stroke-width="0" width="2.5" x="863.8" y="3.8" /><rect fill="black" height="2.5" stroke="none" stroke-width="0" width="2.5" x="873.8" y="3.8" /><rect fill="black" height="2.4" stroke="none" stroke-width="0" width="2.4" x="883.8" y="3.8" /><rect fill="black" height="2.4" stroke="none" stroke-width="0" width="2.4" x="893.8" y="3.8" /><rect fill="black" height="2.4" stroke="none" stroke-width="0" width="2.4" x="903.8" y="3.8" /><rect fill="black" height="2.3" stroke="none" stroke-width="0" width="2.3" x="913.8" y="3.8" /><rect fill="black" height="2.3" stroke="none" stroke-width="0" width="2.3" x="923.8" y="3.8" /><rect fill="black" height="2.3" stroke="none" stroke-width="0" width="2.3" x="933.9" y="3.9" /><rect fill="black" height="2.2" stroke="none" stroke-width="0" width="2.2" x="943.9" y="3.9" /><rect fill="black" height="2.2" stroke="none" stroke-width="0" width="2.2" x="953.9" y="3.9" /><rect fill="black" height="2.2" stroke="none" stroke-width="0" width="2.2" x="963.9" y="3.9" /><rect fill="black" height="2.1" stroke="none" stroke-width="0" width="2.1" x="973.9" y="3.9" /><rect fill="black" height="2.1" stroke="none" stroke-width="0" width="2.1" x="983.9" y="3.9" /><rect fill="black" height="2.1" stroke="none" stroke-width="0" width="2.1" x="993.9" y="3.9" /><rect fill="black" height="2.1" stroke="none" stroke-width="0" width="2.1" x="1003.9" y="3.9" /><rect fill="black" height="2.1" stroke="none" stroke-width="0" width="2.1" x="1013.9" y="3.9" /><rect fill="black" height="2.1" stroke="none" stroke-width="0" width="2.1" x="1023.9" y="3.9" /><rect fill="black" height="2.1" stroke="none" stroke-width="0" width="2.1" x="1033.9" y="3.9" /><rect fill="black" height="2.1" stroke="none" stroke-width="0" width="2.1" x="1043.9" y="3.9" /><rect fill="black" height="2.1" stroke="none" stroke-width="0" width="2.1" x="1053.9" y="3.9" /><rect fill="black" height="2.1" stroke="none" stroke-width="0" width="2.1" x="1063.9" y="3.9" /><rect fill="black" height="2.1" stroke="none" stroke-width="0" width="2.1" x="1073.9" y="3.9" /><rect fill="black" height="2.1" stroke="none" stroke-width="0" width="2.1" x="1083.9" y="3.9" /><rect fill="black" height="2.1" stroke="none" stroke-width="0" width="2.1" x="1093.9" y="3.9" /><rect fill="black" height="2.1" stroke="none" stroke-width="0" width="2.1" x="1103.9" y="3.9" /><rect fill="black" height="2.1" stroke="none" stroke-width="0" width="2.1" x="1113.9" y="3.9" /><rect fill="black" height="2.1" stroke="none" stroke-width="0" width="2.1" x="1123.9" y="3.9" /></g><g><line stroke="black" stroke-width="0.5" x1="255.0" x2="255.0" y1="-6.0" y2="-12.0" /><text dominant-baseline="middle" font-size="24px" text-anchor="middle" x="255.0" y="-24.0">0.5</text><line stroke="black" stroke-width="0.5" x1="645.0" x2="645.0" y1="-6.0" y2="-12.0" /><text dominant-baseline="middle" font-size="24px" text-anchor="middle" x="645.0" y="-24.0">0.9</text><text font-size="24px" text-anchor="middle" transform="rotate(-90, -22.0, 5.0)" x="-22.0" y="5.0">nodro</text></g></svg>