<?xml version="1.0" encoding="utf-8" ?>
<svg baseProfile="full" height="100%" preserveAspectRatio="xMidYMid meet" version="1.1" viewBox="-40,-40,1760,90" width="100%" xmlns="http://www.w3.org/2000/svg" xmlns:ev="http://www.w3.org/2001/xml-events" xmlns:xlink="http://www.w3.org/1999/xlink"><defs><style type="text/css"><![CDATA[
        @import url(https://cdn.jsdelivr.net/npm/firacode@6.2.0/distr/fira_code.css);
        text {
            font-family: 'STIX Two', 'STIX Two Math', 'STIXMath', 'DejaVu Math TeX Glyph',
                        'DejaVu Serif', 'Cambria Math', 'Latin Modern Math', 'FiraCode',
                        'serif';
        }
    ]]></style><style type="text/css"><![CDATA[
        @import url(https://cdn.jsdelivr.net/npm/firacode@6.2.0/distr/fira_code.css);
        text {
            font-family: 'STIX Two', 'STIX Two Math', 'STIXMath', 'DejaVu Math TeX Glyph',
                        'DejaVu Serif', 'Cambria Math', 'Latin Modern Math', 'FiraCode',
                        'serif';
        }
    ]]></style></defs><g><rect fill="black" height="8.8" stroke="none" stroke-width="0" width="8.8" x="0.6" y="0.6" /><rect fill="black" height="8.8" stroke="none" stroke-width="0" width="8.8" x="10.6" y="0.6" /><rect fill="black" height="8.8" stroke="none" stroke-width="0" width="8.8" x="20.6" y="0.6" /><rect fill="black" height="8.8" stroke="none" stroke-width="0" width="8.8" x="30.6" y="0.6" /><rect fill="black" height="8.8" stroke="none" stroke-width="0" width="8.8" x="40.6" y="0.6" /><rect fill="black" height="8.8" stroke="none" stroke-width="0" width="8.8" x="50.6" y="0.6" /><rect fill="black" height="8.8" stroke="none" stroke-width="0" width="8.8" x="60.6" y="0.6" /><rect fill="black" height="8.8" stroke="none" stroke-width="0" width="8.8" x="70.6" y="0.6" /><rect fill="black" height="8.8" stroke="none" stroke-width="0" width="8.8" x="80.6" y="0.6" /><rect fill="black" height="8.8" stroke="none" stroke-width="0" width="8.8" x="90.6" y="0.6" /><rect fill="black" height="8.8" stroke="none" stroke-width="0" width="8.8" x="100.6" y="0.6" /><rect fill="black" height="8.8" stroke="none" stroke-width="0" width="8.8" x="110.6" y="0.6" /><rect fill="black" height="8.8" stroke="none" stroke-width="0" width="8.8" x="120.6" y="0.6" /><rect fill="black" height="8.8" stroke="none" stroke-width="0" width="8.8" x="130.6" y="0.6" /><rect fill="black" height="8.8" stroke="none" stroke-width="0" width="8.8" x="140.6" y="0.6" /><rect fill="black" height="8.8" stroke="none" stroke-width="0" width="8.8" x="150.6" y="0.6" /><rect fill="black" height="8.8" stroke="none" stroke-width="0" width="8.8" x="160.6" y="0.6" /><rect fill="black" height="8.8" stroke="none" stroke-width="0" width="8.8" x="170.6" y="0.6" /><rect fill="black" height="8.8" stroke="none" stroke-width="0" width="8.8" x="180.6" y="0.6" /><rect fill="black" height="8.8" stroke="none" stroke-width="0" width="8.8" x="190.6" y="0.6" /><rect fill="black" height="8.8" stroke="none" stroke-width="0" width="8.8" x="200.6" y="0.6" /><rect fill="black" height="8.8" stroke="none" stroke-width="0" width="8.8" x="210.6" y="0.6" /><rect fill="black" height="8.8" stroke="none" stroke-width="0" width="8.8" x="220.6" y="0.6" /><rect fill="black" height="8.8" stroke="none" stroke-width="0" width="8.8" x="230.6" y="0.6" /><rect fill="black" height="8.8" stroke="none" stroke-width="0" width="8.8" x="240.6" y="0.6" /><rect fill="black" height="8.8" stroke="none" stroke-width="0" width="8.8" x="250.6" y="0.6" /><rect fill="black" height="8.8" stroke="none" stroke-width="0" width="8.8" x="260.6" y="0.6" /><rect fill="black" height="8.8" stroke="none" stroke-width="0" width="8.8" x="270.6" y="0.6" /><rect fill="black" height="8.8" stroke="none" stroke-width="0" width="8.8" x="280.6" y="0.6" /><rect fill="black" height="8.8" stroke="none" stroke-width="0" width="8.8" x="290.6" y="0.6" /><rect fill="black" height="8.8" stroke="none" stroke-width="0" width="8.8" x="300.6" y="0.6" /><rect fill="black" height="8.8" stroke="none" stroke-width="0" width="8.8" x="310.6" y="0.6" /><rect fill="black" height="9.5" stroke="none" stroke-width="0" width="9.5" x="320.2" y="0.2" /><rect fill="black" height="9.5" stroke="none" stroke-width="0" width="9.5" x="330.2" y="0.2" /><rect fill="black" height="9.5" stroke="none" stroke-width="0" width="9.5" x="340.2" y="0.2" /><rect fill="black" height="8.8" stroke="none" stroke-width="0" width="8.8" x="350.6" y="0.6" /><rect fill="black" height="8.8" stroke="none" stroke-width="0" width="8.8" x="360.6" y="0.6" /><rect fill="black" height="8.0" stroke="none" stroke-width="0" width="8.0" x="371.0" y="1.0" /><rect fill="black" height="8.0" stroke="none" stroke-width="0" width="8.0" x="381.0" y="1.0" /><rect fill="black" height="8.0" stroke="none" stroke-width="0" width="8.0" x="391.0" y="1.0" /><rect fill="black" height="8.8" stroke="none" stroke-width="0" width="8.8" x="400.6" y="0.6" /><rect fill="black" height="8.8" stroke="none" stroke-width="0" width="8.8" x="410.6" y="0.6" /><rect fill="black" height="8.8" stroke="none" stroke-width="0" width="8.8" x="420.6" y="0.6" /><rect fill="black" height="8.8" stroke="none" stroke-width="0" width="8.8" x="430.6" y="0.6" /><rect fill="black" height="8.8" stroke="none" stroke-width="0" width="8.8" x="440.6" y="0.6" /><rect fill="black" height="7.3" stroke="none" stroke-width="0" width="7.3" x="451.3" y="1.3" /><rect fill="black" height="8.8" stroke="none" stroke-width="0" width="8.8" x="460.6" y="0.6" /><rect fill="black" height="8.8" stroke="none" stroke-width="0" width="8.8" x="470.6" y="0.6" /><rect fill="black" height="8.8" stroke="none" stroke-width="0" width="8.8" x="480.6" y="0.6" /><rect fill="black" height="6.6" stroke="none" stroke-width="0" width="6.6" x="491.7" y="1.7" /><rect fill="black" height="8.0" stroke="none" stroke-width="0" width="8.0" x="501.0" y="1.0" /><rect fill="black" height="6.6" stroke="none" stroke-width="0" width="6.6" x="511.7" y="1.7" /><rect fill="black" height="8.0" stroke="none" stroke-width="0" width="8.0" x="521.0" y="1.0" /><rect fill="black" height="8.0" stroke="none" stroke-width="0" width="8.0" x="531.0" y="1.0" /><rect fill="black" height="6.6" stroke="none" stroke-width="0" width="6.6" x="541.7" y="1.7" /><rect fill="black" height="8.0" stroke="none" stroke-width="0" width="8.0" x="551.0" y="1.0" /><rect fill="black" height="6.6" stroke="none" stroke-width="0" width="6.6" x="561.7" y="1.7" /><rect fill="black" height="8.0" stroke="none" stroke-width="0" width="8.0" x="571.0" y="1.0" /><rect fill="black" height="8.0" stroke="none" stroke-width="0" width="8.0" x="581.0" y="1.0" /><rect fill="black" height="7.3" stroke="none" stroke-width="0" width="7.3" x="591.3" y="1.3" /><rect fill="black" height="7.3" stroke="none" stroke-width="0" width="7.3" x="601.3" y="1.3" /><rect fill="black" height="8.0" stroke="none" stroke-width="0" width="8.0" x="611.0" y="1.0" /><rect fill="black" height="8.8" stroke="none" stroke-width="0" width="8.8" x="620.6" y="0.6" /><rect fill="black" height="8.0" stroke="none" stroke-width="0" width="8.0" x="631.0" y="1.0" /><rect fill="black" height="7.3" stroke="none" stroke-width="0" width="7.3" x="641.3" y="1.3" /><rect fill="black" height="7.3" stroke="none" stroke-width="0" width="7.3" x="651.3" y="1.3" /><rect fill="black" height="7.3" stroke="none" stroke-width="0" width="7.3" x="661.3" y="1.3" /><rect fill="black" height="7.3" stroke="none" stroke-width="0" width="7.3" x="671.3" y="1.3" /><rect fill="black" height="7.3" stroke="none" stroke-width="0" width="7.3" x="681.3" y="1.3" /><rect fill="black" height="8.0" stroke="none" stroke-width="0" width="8.0" x="691.0" y="1.0" /><rect fill="black" height="5.8" stroke="none" stroke-width="0" width="5.8" x="702.1" y="2.1" /><rect fill="black" height="6.6" stroke="none" stroke-width="0" width="6.6" x="711.7" y="1.7" /><rect fill="black" height="5.1" stroke="none" stroke-width="0" width="5.1" x="722.4" y="2.4" /><rect fill="black" height="5.8" stroke="none" stroke-width="0" width="5.8" x="732.1" y="2.1" /><rect fill="black" height="5.1" stroke="none" stroke-width="0" width="5.1" x="742.4" y="2.4" /><rect fill="black" height="8.0" stroke="none" stroke-width="0" width="8.0" x="751.0" y="1.0" /><rect fill="black" height="6.6" stroke="none" stroke-width="0" width="6.6" x="761.7" y="1.7" /><rect fill="black" height="7.3" stroke="none" stroke-width="0" width="7.3" x="771.3" y="1.3" /><rect fill="black" height="5.8" stroke="none" stroke-width="0" width="5.8" x="782.1" y="2.1" /><rect fill="black" height="7.3" stroke="none" stroke-width="0" width="7.3" x="791.3" y="1.3" /><rect fill="black" height="8.0" stroke="none" stroke-width="0" width="8.0" x="801.0" y="1.0" /><rect fill="black" height="7.3" stroke="none" stroke-width="0" width="7.3" x="811.3" y="1.3" /><rect fill="black" height="7.3" stroke="none" stroke-width="0" width="7.3" x="821.3" y="1.3" /><rect fill="black" height="7.3" stroke="none" stroke-width="0" width="7.3" x="831.3" y="1.3" /><rect fill="black" height="7.3" stroke="none" stroke-width="0" width="7.3" x="841.3" y="1.3" /><rect fill="black" height="8.0" stroke="none" stroke-width="0" width="8.0" x="851.0" y="1.0" /><rect fill="black" height="8.8" stroke="none" stroke-width="0" width="8.8" x="860.6" y="0.6" /><rect fill="black" height="7.3" stroke="none" stroke-width="0" width="7.3" x="871.3" y="1.3" /><rect fill="black" height="9.5" stroke="none" stroke-width="0" width="9.5" x="880.2" y="0.2" /><rect fill="black" height="8.8" stroke="none" stroke-width="0" width="8.8" x="890.6" y="0.6" /><rect fill="black" height="8.0" stroke="none" stroke-width="0" width="8.0" x="901.0" y="1.0" /><rect fill="black" height="8.0" stroke="none" stroke-width="0" width="8.0" x="911.0" y="1.0" /><rect fill="black" height="8.0" stroke="none" stroke-width="0" width="8.0" x="921.0" y="1.0" /><rect fill="black" height="8.0" stroke="none" stroke-width="0" width="8.0" x="931.0" y="1.0" /><rect fill="black" height="8.0" stroke="none" stroke-width="0" width="8.0" x="941.0" y="1.0" /><rect fill="black" height="8.8" stroke="none" stroke-width="0" width="8.8" x="950.6" y="0.6" /><rect fill="black" height="8.0" stroke="none" stroke-width="0" width="8.0" x="961.0" y="1.0" /><rect fill="black" height="7.3" stroke="none" stroke-width="0" width="7.3" x="971.3" y="1.3" /><rect fill="black" height="6.6" stroke="none" stroke-width="0" width="6.6" x="981.7" y="1.7" /><rect fill="black" height="6.6" stroke="none" stroke-width="0" width="6.6" x="991.7" y="1.7" /><rect fill="black" height="6.6" stroke="none" stroke-width="0" width="6.6" x="1001.7" y="1.7" /><rect fill="black" height="6.6" stroke="none" stroke-width="0" width="6.6" x="1011.7" y="1.7" /><rect fill="black" height="4.4" stroke="none" stroke-width="0" width="4.4" x="1022.8" y="2.8" /><rect fill="black" height="6.6" stroke="none" stroke-width="0" width="6.6" x="1031.7" y="1.7" /><rect fill="black" height="5.1" stroke="none" stroke-width="0" width="5.1" x="1042.4" y="2.4" /><rect fill="black" height="6.6" stroke="none" stroke-width="0" width="6.6" x="1051.7" y="1.7" /><rect fill="black" height="5.8" stroke="none" stroke-width="0" width="5.8" x="1062.1" y="2.1" /><rect fill="black" height="5.8" stroke="none" stroke-width="0" width="5.8" x="1072.1" y="2.1" /><rect fill="black" height="5.1" stroke="none" stroke-width="0" width="5.1" x="1082.4" y="2.4" /><rect fill="black" height="5.1" stroke="none" stroke-width="0" width="5.1" x="1092.4" y="2.4" /><rect fill="black" height="7.3" stroke="none" stroke-width="0" width="7.3" x="1101.3" y="1.3" /><rect fill="black" height="7.3" stroke="none" stroke-width="0" width="7.3" x="1111.3" y="1.3" /><rect fill="black" height="6.6" stroke="none" stroke-width="0" width="6.6" x="1121.7" y="1.7" /><rect fill="black" height="5.1" stroke="none" stroke-width="0" width="5.1" x="1132.4" y="2.4" /><rect fill="black" height="4.4" stroke="none" stroke-width="0" width="4.4" x="1142.8" y="2.8" /><rect fill="black" height="3.7" stroke="none" stroke-width="0" width="3.7" x="1153.2" y="3.2" /><rect fill="black" height="5.1" stroke="none" stroke-width="0" width="5.1" x="1162.4" y="2.4" /><rect fill="black" height="5.8" stroke="none" stroke-width="0" width="5.8" x="1172.1" y="2.1" /><rect fill="black" height="5.8" stroke="none" stroke-width="0" width="5.8" x="1182.1" y="2.1" /><rect fill="black" height="6.6" stroke="none" stroke-width="0" width="6.6" x="1191.7" y="1.7" /><rect fill="black" height="6.6" stroke="none" stroke-width="0" width="6.6" x="1201.7" y="1.7" /><rect fill="black" height="5.1" stroke="none" stroke-width="0" width="5.1" x="1212.4" y="2.4" /><rect fill="black" height="5.1" stroke="none" stroke-width="0" width="5.1" x="1222.4" y="2.4" /><rect fill="black" height="5.8" stroke="none" stroke-width="0" width="5.8" x="1232.1" y="2.1" /><rect fill="black" height="5.8" stroke="none" stroke-width="0" width="5.8" x="1242.1" y="2.1" /><rect fill="black" height="4.4" stroke="none" stroke-width="0" width="4.4" x="1252.8" y="2.8" /><rect fill="black" height="5.1" stroke="none" stroke-width="0" width="5.1" x="1262.4" y="2.4" /><rect fill="black" height="3.7" stroke="none" stroke-width="0" width="3.7" x="1273.2" y="3.2" /><rect fill="black" height="4.4" stroke="none" stroke-width="0" width="4.4" x="1282.8" y="2.8" /><rect fill="black" height="4.4" stroke="none" stroke-width="0" width="4.4" x="1292.8" y="2.8" /><rect fill="black" height="5.8" stroke="none" stroke-width="0" width="5.8" x="1302.1" y="2.1" /><rect fill="black" height="5.1" stroke="none" stroke-width="0" width="5.1" x="1312.4" y="2.4" /><rect fill="black" height="6.6" stroke="none" stroke-width="0" width="6.6" x="1321.7" y="1.7" /><rect fill="black" height="6.6" stroke="none" stroke-width="0" width="6.6" x="1331.7" y="1.7" /><rect fill="black" height="6.6" stroke="none" stroke-width="0" width="6.6" x="1341.7" y="1.7" /><rect fill="black" height="7.3" stroke="none" stroke-width="0" width="7.3" x="1351.3" y="1.3" /><rect fill="black" height="6.6" stroke="none" stroke-width="0" width="6.6" x="1361.7" y="1.7" /><rect fill="black" height="8.0" stroke="none" stroke-width="0" width="8.0" x="1371.0" y="1.0" /><rect fill="black" height="8.0" stroke="none" stroke-width="0" width="8.0" x="1381.0" y="1.0" /><rect fill="black" height="6.6" stroke="none" stroke-width="0" width="6.6" x="1391.7" y="1.7" /><rect fill="black" height="7.3" stroke="none" stroke-width="0" width="7.3" x="1401.3" y="1.3" /><rect fill="black" height="7.3" stroke="none" stroke-width="0" width="7.3" x="1411.3" y="1.3" /><rect fill="black" height="6.6" stroke="none" stroke-width="0" width="6.6" x="1421.7" y="1.7" /><rect fill="black" height="6.6" stroke="none" stroke-width="0" width="6.6" x="1431.7" y="1.7" /><rect fill="black" height="7.3" stroke="none" stroke-width="0" width="7.3" x="1441.3" y="1.3" /><rect fill="black" height="8.8" stroke="none" stroke-width="0" width="8.8" x="1450.6" y="0.6" /><rect fill="black" height="8.0" stroke="none" stroke-width="0" width="8.0" x="1461.0" y="1.0" /><rect fill="black" height="8.0" stroke="none" stroke-width="0" width="8.0" x="1471.0" y="1.0" /><rect fill="black" height="8.0" stroke="none" stroke-width="0" width="8.0" x="1481.0" y="1.0" /><rect fill="black" height="8.0" stroke="none" stroke-width="0" width="8.0" x="1491.0" y="1.0" /><rect fill="black" height="6.6" stroke="none" stroke-width="0" width="6.6" x="1501.7" y="1.7" /><rect fill="black" height="8.0" stroke="none" stroke-width="0" width="8.0" x="1511.0" y="1.0" /><rect fill="black" height="5.8" stroke="none" stroke-width="0" width="5.8" x="1522.1" y="2.1" /><rect fill="black" height="7.3" stroke="none" stroke-width="0" width="7.3" x="1531.3" y="1.3" /><rect fill="black" height="6.6" stroke="none" stroke-width="0" width="6.6" x="1541.7" y="1.7" /><rect fill="black" height="7.3" stroke="none" stroke-width="0" width="7.3" x="1551.3" y="1.3" /><rect fill="black" height="6.6" stroke="none" stroke-width="0" width="6.6" x="1561.7" y="1.7" /><rect fill="black" height="5.8" stroke="none" stroke-width="0" width="5.8" x="1572.1" y="2.1" /><rect fill="black" height="7.3" stroke="none" stroke-width="0" width="7.3" x="1581.3" y="1.3" /><rect fill="black" height="5.1" stroke="none" stroke-width="0" width="5.1" x="1592.4" y="2.4" /><rect fill="black" height="4.4" stroke="none" stroke-width="0" width="4.4" x="1602.8" y="2.8" /><rect fill="black" height="4.4" stroke="none" stroke-width="0" width="4.4" x="1612.8" y="2.8" /><rect fill="black" height="4.4" stroke="none" stroke-width="0" width="4.4" x="1622.8" y="2.8" /><rect fill="black" height="3.7" stroke="none" stroke-width="0" width="3.7" x="1633.2" y="3.2" /><rect fill="black" height="4.4" stroke="none" stroke-width="0" width="4.4" x="1642.8" y="2.8" /><rect fill="black" height="3.7" stroke="none" stroke-width="0" width="3.7" x="1653.2" y="3.2" /><rect fill="black" height="2.9" stroke="none" stroke-width="0" width="2.9" x="1663.5" y="3.5" /><rect fill="black" height="2.2" stroke="none" stroke-width="0" width="2.2" x="1673.9" y="3.9" /></g><g><line stroke="black" stroke-width="0.5" x1="15.0" x2="15.0" y1="-6.0" y2="-12.0" /><text dominant-baseline="middle" font-size="22px" text-anchor="middle" x="15.0" y="-24.0">12</text><line stroke="black" stroke-width="0.5" x1="125.0" x2="125.0" y1="-6.0" y2="-12.0" /><text dominant-baseline="middle" font-size="22px" text-anchor="middle" x="125.0" y="-24.0">12</text><line stroke="black" stroke-width="0.5" x1="235.0" x2="235.0" y1="-6.0" y2="-12.0" /><text dominant-baseline="middle" font-size="22px" text-anchor="middle" x="235.0" y="-24.0">12</text><line stroke="black" stroke-width="0.5" x1="345.0" x2="345.0" y1="-6.0" y2="-12.0" /><text dominant-baseline="middle" font-size="22px" text-anchor="middle" x="345.0" y="-24.0">13</text><line stroke="black" stroke-width="0.5" x1="455.0" x2="455.0" y1="-6.0" y2="-12.0" /><text dominant-baseline="middle" font-size="22px" text-anchor="middle" x="455.0" y="-24.0">10</text><line stroke="black" stroke-width="0.5" x1="565.0" x2="565.0" y1="-6.0" y2="-12.0" /><text dominant-baseline="middle" font-size="22px" text-anchor="middle" x="565.0" y="-24.0">9</text><line stroke="black" stroke-width="0.5" x1="675.0" x2="675.0" y1="-6.0" y2="-12.0" /><text dominant-baseline="middle" font-size="22px" text-anchor="middle" x="675.0" y="-24.0">10</text><line stroke="black" stroke-width="0.5" x1="785.0" x2="785.0" y1="-6.0" y2="-12.0" /><text dominant-baseline="middle" font-size="22px" text-anchor="middle" x="785.0" y="-24.0">8</text><line stroke="black" stroke-width="0.5" x1="895.0" x2="895.0" y1="-6.0" y2="-12.0" /><text dominant-baseline="middle" font-size="22px" text-anchor="middle" x="895.0" y="-24.0">12</text><line stroke="black" stroke-width="0.5" x1="1005.0" x2="1005.0" y1="-6.0" y2="-12.0" /><text dominant-baseline="middle" font-size="22px" text-anchor="middle" x="1005.0" y="-24.0">9</text><line stroke="black" stroke-width="0.5" x1="1115.0" x2="1115.0" y1="-6.0" y2="-12.0" /><text dominant-baseline="middle" font-size="22px" text-anchor="middle" x="1115.0" y="-24.0">10</text><line stroke="black" stroke-width="0.5" x1="1225.0" x2="1225.0" y1="-6.0" y2="-12.0" /><text dominant-baseline="middle" font-size="22px" text-anchor="middle" x="1225.0" y="-24.0">7</text><line stroke="black" stroke-width="0.5" x1="1335.0" x2="1335.0" y1="-6.0" y2="-12.0" /><text dominant-baseline="middle" font-size="22px" text-anchor="middle" x="1335.0" y="-24.0">9</text><line stroke="black" stroke-width="0.5" x1="1445.0" x2="1445.0" y1="-6.0" y2="-12.0" /><text dominant-baseline="middle" font-size="22px" text-anchor="middle" x="1445.0" y="-24.0">10</text><line stroke="black" stroke-width="0.5" x1="1555.0" x2="1555.0" y1="-6.0" y2="-12.0" /><text dominant-baseline="middle" font-size="22px" text-anchor="middle" x="1555.0" y="-24.0">10</text><line stroke="black" stroke-width="0.5" x1="1665.0" x2="1665.0" y1="-6.0" y2="-12.0" /><text dominant-baseline="middle" font-size="22px" text-anchor="middle" x="1665.0" y="-24.0">4</text><line stroke="black" stroke-width="0.5" x1="15.0" x2="15.0" y1="16.0" y2="22.0" /><text dominant-baseline="middle" font-size="22px" text-anchor="middle" x="15.0" y="34.0">1</text><line stroke="black" stroke-width="0.5" x1="1665.0" x2="1665.0" y1="16.0" y2="22.0" /><text dominant-baseline="middle" font-size="22px" text-anchor="middle" x="1665.0" y="34.0">65536</text><text font-size="22px" text-anchor="middle" x="840.0" y="32.0">Time</text><text font-size="22px" text-anchor="middle" transform="rotate(-90, -22.0, 5.0)" x="-22.0" y="5.0">|{ω}|</text></g></svg>