<?xml version="1.0" encoding="utf-8" ?>
<svg baseProfile="full" height="100%" preserveAspectRatio="xMidYMid meet" version="1.1" viewBox="-40,-40,910,140" width="100%" xmlns="http://www.w3.org/2000/svg" xmlns:ev="http://www.w3.org/2001/xml-events" xmlns:xlink="http://www.w3.org/1999/xlink"><defs><style type="text/css"><![CDATA[
        @import url(https://cdn.jsdelivr.net/npm/firacode@6.2.0/distr/fira_code.css);
        text {
            font-family: 'STIX Two', 'STIX Two Math', 'STIXMath', 'DejaVu Math TeX Glyph',
                        'DejaVu Serif', 'Cambria Math', 'Latin Modern Math', 'FiraCode',
                        'serif';
        }
    ]]></style><style type="text/css"><![CDATA[
        @import url(https://cdn.jsdelivr.net/npm/firacode@6.2.0/distr/fira_code.css);
        text {
            font-family: 'STIX Two', 'STIX Two Math', 'STIXMath', 'DejaVu Math TeX Glyph',
                        'DejaVu Serif', 'Cambria Math', 'Latin Modern Math', 'FiraCode',
                        'serif';
        }
    ]]></style></defs><g><rect fill="black" height="9.5" stroke="none" stroke-width="0" width="9.5" x="0.2" y="0.2" /><rect fill="black" height="9.4" stroke="none" stroke-width="0" width="9.4" x="10.3" y="0.3" /><rect fill="black" height="9.2" stroke="none" stroke-width="0" width="9.2" x="20.4" y="0.4" /><rect fill="black" height="9.1" stroke="none" stroke-width="0" width="9.1" x="30.4" y="0.4" /><rect fill="black" height="9.0" stroke="none" stroke-width="0" width="9.0" x="40.5" y="0.5" /><rect fill="black" height="8.9" stroke="none" stroke-width="0" width="8.9" x="50.5" y="0.5" /><rect fill="black" height="8.3" stroke="none" stroke-width="0" width="8.3" x="60.9" y="0.9" /><rect fill="black" height="8.2" stroke="none" stroke-width="0" width="8.2" x="70.9" y="0.9" /><rect fill="black" height="6.4" stroke="none" stroke-width="0" width="6.4" x="81.8" y="1.8" /><rect fill="black" height="6.3" stroke="none" stroke-width="0" width="6.3" x="91.9" y="1.9" /><rect fill="black" height="4.5" stroke="none" stroke-width="0" width="4.5" x="102.7" y="2.7" /><rect fill="black" height="3.6" stroke="none" stroke-width="0" width="3.6" x="113.2" y="3.2" /><rect fill="black" height="3.5" stroke="none" stroke-width="0" width="3.5" x="123.2" y="3.2" /><rect fill="black" height="3.4" stroke="none" stroke-width="0" width="3.4" x="133.3" y="3.3" /><rect fill="black" height="3.2" stroke="none" stroke-width="0" width="3.2" x="143.4" y="3.4" /><rect fill="black" height="3.2" stroke="none" stroke-width="0" width="3.2" x="153.4" y="3.4" /><rect fill="black" height="3.1" stroke="none" stroke-width="0" width="3.1" x="163.4" y="3.4" /><rect fill="black" height="3.0" stroke="none" stroke-width="0" width="3.0" x="173.5" y="3.5" /><rect fill="black" height="2.9" stroke="none" stroke-width="0" width="2.9" x="183.5" y="3.5" /><rect fill="black" height="2.9" stroke="none" stroke-width="0" width="2.9" x="193.6" y="3.6" /><rect fill="black" height="2.8" stroke="none" stroke-width="0" width="2.8" x="203.6" y="3.6" /><rect fill="black" height="2.8" stroke="none" stroke-width="0" width="2.8" x="213.6" y="3.6" /><rect fill="black" height="2.7" stroke="none" stroke-width="0" width="2.7" x="223.6" y="3.6" /><rect fill="black" height="2.7" stroke="none" stroke-width="0" width="2.7" x="233.6" y="3.6" /><rect fill="black" height="2.7" stroke="none" stroke-width="0" width="2.7" x="243.7" y="3.7" /><rect fill="black" height="2.7" stroke="none" stroke-width="0" width="2.7" x="253.7" y="3.7" /><rect fill="black" height="2.6" stroke="none" stroke-width="0" width="2.6" x="263.7" y="3.7" /><rect fill="black" height="2.6" stroke="none" stroke-width="0" width="2.6" x="273.7" y="3.7" /><rect fill="black" height="2.5" stroke="none" stroke-width="0" width="2.5" x="283.7" y="3.7" /><rect fill="black" height="2.5" stroke="none" stroke-width="0" width="2.5" x="293.8" y="3.8" /><rect fill="black" height="2.5" stroke="none" stroke-width="0" width="2.5" x="303.8" y="3.8" /><rect fill="black" height="2.4" stroke="none" stroke-width="0" width="2.4" x="313.8" y="3.8" /><rect fill="black" height="2.4" stroke="none" stroke-width="0" width="2.4" x="323.8" y="3.8" /><rect fill="black" height="2.4" stroke="none" stroke-width="0" width="2.4" x="333.8" y="3.8" /><rect fill="black" height="2.4" stroke="none" stroke-width="0" width="2.4" x="343.8" y="3.8" /><rect fill="black" height="2.3" stroke="none" stroke-width="0" width="2.3" x="353.8" y="3.8" /><rect fill="black" height="2.3" stroke="none" stroke-width="0" width="2.3" x="363.9" y="3.9" /><rect fill="black" height="2.3" stroke="none" stroke-width="0" width="2.3" x="373.9" y="3.9" /><rect fill="black" height="2.2" stroke="none" stroke-width="0" width="2.2" x="383.9" y="3.9" /><rect fill="black" height="2.2" stroke="none" stroke-width="0" width="2.2" x="393.9" y="3.9" /><rect fill="black" height="2.2" stroke="none" stroke-width="0" width="2.2" x="403.9" y="3.9" /><rect fill="black" height="2.2" stroke="none" stroke-width="0" width="2.2" x="413.9" y="3.9" /><rect fill="black" height="2.1" stroke="none" stroke-width="0" width="2.1" x="423.9" y="3.9" /><rect fill="black" height="2.1" stroke="none" stroke-width="0" width="2.1" x="433.9" y="3.9" /><rect fill="black" height="2.1" stroke="none" stroke-width="0" width="2.1" x="443.9" y="3.9" /><rect fill="black" height="2.1" stroke="none" stroke-width="0" width="2.1" x="453.9" y="3.9" /><rect fill="black" height="2.1" stroke="none" stroke-width="0" width="2.1" x="463.9" y="3.9" /><rect fill="black" height="2.1" stroke="none" stroke-width="0" width="2.1" x="473.9" y="3.9" /><rect fill="black" height="2.1" stroke="none" stroke-width="0" width="2.1" x="483.9" y="3.9" /><rect fill="black" height="2.1" stroke="none" stroke-width="0" width="2.1" x="493.9" y="3.9" /><rect fill="black" height="2.1" stroke="none" stroke-width="0" width="2.1" x="503.9" y="3.9" /><rect fill="black" height="2.1" stroke="none" stroke-width="0" width="2.1" x="513.9" y="3.9" /><rect fill="black" height="2.1" stroke="none" stroke-width="0" width="2.1" x="523.9" y="3.9" /><rect fill="black" height="2.1" stroke="none" stroke-width="0" width="2.1" x="533.9" y="3.9" /><rect fill="black" height="2.1" stroke="none" stroke-width="0" width="2.1" x="543.9" y="3.9" /><rect fill="black" height="2.1" stroke="none" stroke-width="0" width="2.1" x="553.9" y="3.9" /><rect fill="black" height="2.1" stroke="none" stroke-width="0" width="2.1" x="563.9" y="3.9" /><rect fill="black" height="2.1" stroke="none" stroke-width="0" width="2.1" x="573.9" y="3.9" /><rect fill="black" height="2.1" stroke="none" stroke-width="0" width="2.1" x="583.9" y="3.9" /><rect fill="black" height="2.1" stroke="none" stroke-width="0" width="2.1" x="593.9" y="3.9" /><rect fill="black" height="2.1" stroke="none" stroke-width="0" width="2.1" x="603.9" y="3.9" /><rect fill="black" height="2.1" stroke="none" stroke-width="0" width="2.1" x="613.9" y="3.9" /><rect fill="black" height="2.1" stroke="none" stroke-width="0" width="2.1" x="623.9" y="3.9" /><rect fill="black" height="2.1" stroke="none" stroke-width="0" width="2.1" x="633.9" y="3.9" /><rect fill="black" height="2.1" stroke="none" stroke-width="0" width="2.1" x="643.9" y="3.9" /><rect fill="black" height="2.1" stroke="none" stroke-width="0" width="2.1" x="653.9" y="3.9" /><rect fill="black" height="2.1" stroke="none" stroke-width="0" width="2.1" x="663.9" y="3.9" /><rect fill="black" height="2.1" stroke="none" stroke-width="0" width="2.1" x="673.9" y="3.9" /><rect fill="black" height="2.1" stroke="none" stroke-width="0" width="2.1" x="683.9" y="3.9" /><rect fill="black" height="2.1" stroke="none" stroke-width="0" width="2.1" x="693.9" y="3.9" /><rect fill="black" height="2.1" stroke="none" stroke-width="0" width="2.1" x="703.9" y="3.9" /><rect fill="black" height="2.1" stroke="none" stroke-width="0" width="2.1" x="713.9" y="3.9" /><rect fill="black" height="2.1" stroke="none" stroke-width="0" width="2.1" x="723.9" y="3.9" /><rect fill="black" height="2.1" stroke="none" stroke-width="0" width="2.1" x="733.9" y="3.9" /><rect fill="black" height="2.1" stroke="none" stroke-width="0" width="2.1" x="743.9" y="3.9" /><rect fill="black" height="2.1" stroke="none" stroke-width="0" width="2.1" x="753.9" y="3.9" /><rect fill="black" height="2.1" stroke="none" stroke-width="0" width="2.1" x="763.9" y="3.9" /><rect fill="black" height="2.1" stroke="none" stroke-width="0" width="2.1" x="773.9" y="3.9" /><rect fill="black" height="2.1" stroke="none" stroke-width="0" width="2.1" x="783.9" y="3.9" /><rect fill="black" height="2.1" stroke="none" stroke-width="0" width="2.1" x="793.9" y="3.9" /><rect fill="black" height="2.1" stroke="none" stroke-width="0" width="2.1" x="803.9" y="3.9" /><rect fill="black" height="2.1" stroke="none" stroke-width="0" width="2.1" x="813.9" y="3.9" /><rect fill="black" height="2.1" stroke="none" stroke-width="0" width="2.1" x="823.9" y="3.9" /></g><g><line stroke="black" stroke-width="0.5" x1="365.0" x2="365.0" y1="-4.0" y2="-7.0" /><text dominant-baseline="middle" font-size="6px" text-anchor="middle" x="365.0" y="-13.0">0.5</text><line stroke="black" stroke-width="0.5" x1="875.0" x2="875.0" y1="-4.0" y2="-7.0" /><text dominant-baseline="middle" font-size="6px" text-anchor="middle" x="875.0" y="-13.0">0.9</text><text font-size="6px" text-anchor="middle" transform="rotate(-90, -17.0, 5.0)" x="-17.0" y="5.0">nanda</text></g><g><rect fill="black" height="4.5" stroke="none" stroke-width="0" width="4.5" x="2.7" y="52.7" /><rect fill="black" height="4.4" stroke="none" stroke-width="0" width="4.4" x="12.8" y="52.8" /><rect fill="black" height="4.4" stroke="none" stroke-width="0" width="4.4" x="22.8" y="52.8" /><rect fill="black" height="4.2" stroke="none" stroke-width="0" width="4.2" x="32.9" y="52.9" /><rect fill="black" height="4.1" stroke="none" stroke-width="0" width="4.1" x="42.9" y="52.9" /><rect fill="black" height="4.1" stroke="none" stroke-width="0" width="4.1" x="52.9" y="52.9" /><rect fill="black" height="4.1" stroke="none" stroke-width="0" width="4.1" x="62.9" y="52.9" /><rect fill="black" height="4.1" stroke="none" stroke-width="0" width="4.1" x="73.0" y="53.0" /><rect fill="black" height="4.0" stroke="none" stroke-width="0" width="4.0" x="83.0" y="53.0" /><rect fill="black" height="4.0" stroke="none" stroke-width="0" width="4.0" x="93.0" y="53.0" /><rect fill="black" height="4.0" stroke="none" stroke-width="0" width="4.0" x="103.0" y="53.0" /><rect fill="black" height="4.0" stroke="none" stroke-width="0" width="4.0" x="113.0" y="53.0" /><rect fill="black" height="3.9" stroke="none" stroke-width="0" width="3.9" x="123.0" y="53.0" /><rect fill="black" height="3.9" stroke="none" stroke-width="0" width="3.9" x="133.0" y="53.0" /><rect fill="black" height="3.9" stroke="none" stroke-width="0" width="3.9" x="143.0" y="53.0" /><rect fill="black" height="3.9" stroke="none" stroke-width="0" width="3.9" x="153.1" y="53.1" /><rect fill="black" height="3.8" stroke="none" stroke-width="0" width="3.8" x="163.1" y="53.1" /><rect fill="black" height="3.8" stroke="none" stroke-width="0" width="3.8" x="173.1" y="53.1" /><rect fill="black" height="3.8" stroke="none" stroke-width="0" width="3.8" x="183.1" y="53.1" /><rect fill="black" height="3.8" stroke="none" stroke-width="0" width="3.8" x="193.1" y="53.1" /><rect fill="black" height="3.8" stroke="none" stroke-width="0" width="3.8" x="203.1" y="53.1" /><rect fill="black" height="3.7" stroke="none" stroke-width="0" width="3.7" x="213.1" y="53.1" /><rect fill="black" height="3.7" stroke="none" stroke-width="0" width="3.7" x="223.1" y="53.1" /><rect fill="black" height="3.7" stroke="none" stroke-width="0" width="3.7" x="233.1" y="53.1" /><rect fill="black" height="3.7" stroke="none" stroke-width="0" width="3.7" x="243.1" y="53.1" /><rect fill="black" height="3.7" stroke="none" stroke-width="0" width="3.7" x="253.2" y="53.2" /><rect fill="black" height="3.7" stroke="none" stroke-width="0" width="3.7" x="263.2" y="53.2" /><rect fill="black" height="3.7" stroke="none" stroke-width="0" width="3.7" x="273.2" y="53.2" /><rect fill="black" height="3.6" stroke="none" stroke-width="0" width="3.6" x="283.2" y="53.2" /><rect fill="black" height="3.6" stroke="none" stroke-width="0" width="3.6" x="293.2" y="53.2" /><rect fill="black" height="3.6" stroke="none" stroke-width="0" width="3.6" x="303.2" y="53.2" /><rect fill="black" height="3.6" stroke="none" stroke-width="0" width="3.6" x="313.2" y="53.2" /><rect fill="black" height="3.6" stroke="none" stroke-width="0" width="3.6" x="323.2" y="53.2" /><rect fill="black" height="3.5" stroke="none" stroke-width="0" width="3.5" x="333.2" y="53.2" /><rect fill="black" height="3.5" stroke="none" stroke-width="0" width="3.5" x="343.2" y="53.2" /><rect fill="black" height="3.5" stroke="none" stroke-width="0" width="3.5" x="353.3" y="53.3" /><rect fill="black" height="3.5" stroke="none" stroke-width="0" width="3.5" x="363.3" y="53.3" /><rect fill="black" height="3.5" stroke="none" stroke-width="0" width="3.5" x="373.3" y="53.3" /><rect fill="black" height="3.4" stroke="none" stroke-width="0" width="3.4" x="383.3" y="53.3" /><rect fill="black" height="3.4" stroke="none" stroke-width="0" width="3.4" x="393.3" y="53.3" /><rect fill="black" height="3.4" stroke="none" stroke-width="0" width="3.4" x="403.3" y="53.3" /><rect fill="black" height="3.4" stroke="none" stroke-width="0" width="3.4" x="413.3" y="53.3" /><rect fill="black" height="3.4" stroke="none" stroke-width="0" width="3.4" x="423.3" y="53.3" /><rect fill="black" height="3.3" stroke="none" stroke-width="0" width="3.3" x="433.3" y="53.3" /><rect fill="black" height="3.3" stroke="none" stroke-width="0" width="3.3" x="443.3" y="53.3" /><rect fill="black" height="3.3" stroke="none" stroke-width="0" width="3.3" x="453.3" y="53.3" /><rect fill="black" height="3.3" stroke="none" stroke-width="0" width="3.3" x="463.4" y="53.4" /><rect fill="black" height="3.3" stroke="none" stroke-width="0" width="3.3" x="473.4" y="53.4" /><rect fill="black" height="3.2" stroke="none" stroke-width="0" width="3.2" x="483.4" y="53.4" /><rect fill="black" height="3.2" stroke="none" stroke-width="0" width="3.2" x="493.4" y="53.4" /><rect fill="black" height="3.2" stroke="none" stroke-width="0" width="3.2" x="503.4" y="53.4" /><rect fill="black" height="3.2" stroke="none" stroke-width="0" width="3.2" x="513.4" y="53.4" /><rect fill="black" height="3.2" stroke="none" stroke-width="0" width="3.2" x="523.4" y="53.4" /><rect fill="black" height="3.2" stroke="none" stroke-width="0" width="3.2" x="533.4" y="53.4" /><rect fill="black" height="3.1" stroke="none" stroke-width="0" width="3.1" x="543.4" y="53.4" /><rect fill="black" height="3.1" stroke="none" stroke-width="0" width="3.1" x="553.4" y="53.4" /><rect fill="black" height="3.1" stroke="none" stroke-width="0" width="3.1" x="563.4" y="53.4" /><rect fill="black" height="3.1" stroke="none" stroke-width="0" width="3.1" x="573.5" y="53.5" /><rect fill="black" height="3.1" stroke="none" stroke-width="0" width="3.1" x="583.5" y="53.5" /><rect fill="black" height="3.0" stroke="none" stroke-width="0" width="3.0" x="593.5" y="53.5" /><rect fill="black" height="3.0" stroke="none" stroke-width="0" width="3.0" x="603.5" y="53.5" /><rect fill="black" height="3.0" stroke="none" stroke-width="0" width="3.0" x="613.5" y="53.5" /><rect fill="black" height="3.0" stroke="none" stroke-width="0" width="3.0" x="623.5" y="53.5" /><rect fill="black" height="3.0" stroke="none" stroke-width="0" width="3.0" x="633.5" y="53.5" /><rect fill="black" height="2.9" stroke="none" stroke-width="0" width="2.9" x="643.5" y="53.5" /><rect fill="black" height="2.9" stroke="none" stroke-width="0" width="2.9" x="653.5" y="53.5" /><rect fill="black" height="2.9" stroke="none" stroke-width="0" width="2.9" x="663.5" y="53.5" /><rect fill="black" height="2.9" stroke="none" stroke-width="0" width="2.9" x="673.6" y="53.6" /><rect fill="black" height="2.9" stroke="none" stroke-width="0" width="2.9" x="683.6" y="53.6" /><rect fill="black" height="2.8" stroke="none" stroke-width="0" width="2.8" x="693.6" y="53.6" /><rect fill="black" height="2.8" stroke="none" stroke-width="0" width="2.8" x="703.6" y="53.6" /><rect fill="black" height="2.8" stroke="none" stroke-width="0" width="2.8" x="713.6" y="53.6" /><rect fill="black" height="2.8" stroke="none" stroke-width="0" width="2.8" x="723.6" y="53.6" /><rect fill="black" height="2.8" stroke="none" stroke-width="0" width="2.8" x="733.6" y="53.6" /><rect fill="black" height="2.8" stroke="none" stroke-width="0" width="2.8" x="743.6" y="53.6" /><rect fill="black" height="2.7" stroke="none" stroke-width="0" width="2.7" x="753.6" y="53.6" /><rect fill="black" height="2.7" stroke="none" stroke-width="0" width="2.7" x="763.7" y="53.7" /><rect fill="black" height="2.6" stroke="none" stroke-width="0" width="2.6" x="773.7" y="53.7" /><rect fill="black" height="2.6" stroke="none" stroke-width="0" width="2.6" x="783.7" y="53.7" /><rect fill="black" height="2.6" stroke="none" stroke-width="0" width="2.6" x="793.7" y="53.7" /><rect fill="black" height="2.6" stroke="none" stroke-width="0" width="2.6" x="803.7" y="53.7" /><rect fill="black" height="2.6" stroke="none" stroke-width="0" width="2.6" x="813.7" y="53.7" /><rect fill="black" height="2.6" stroke="none" stroke-width="0" width="2.6" x="823.7" y="53.7" /></g><g><line stroke="black" stroke-width="0.5" x1="55.0" x2="55.0" y1="64.0" y2="67.0" /><text dominant-baseline="middle" font-size="6px" text-anchor="middle" x="55.0" y="73.0">0.5</text><line stroke="black" stroke-width="0.5" x1="495.0" x2="495.0" y1="64.0" y2="67.0" /><text dominant-baseline="middle" font-size="6px" text-anchor="middle" x="495.0" y="73.0">0.9</text><text font-size="6px" text-anchor="middle" transform="rotate(-90, -17.0, 55.0)" x="-17.0" y="55.0">miiii</text></g></svg>