<?xml version="1.0" encoding="utf-8" ?>
<svg baseProfile="full" height="100%" preserveAspectRatio="xMidYMid meet" version="1.1" viewBox="-40,-40,120,110" width="100%" xmlns="http://www.w3.org/2000/svg" xmlns:ev="http://www.w3.org/2001/xml-events" xmlns:xlink="http://www.w3.org/1999/xlink"><defs><style type="text/css"><![CDATA[
        @import url(https://cdn.jsdelivr.net/npm/firacode@6.2.0/distr/fira_code.css);
        text {
            font-family: 'STIX Two', 'STIX Two Math', 'STIXMath', 'DejaVu Math TeX Glyph',
                        'DejaVu Serif', 'Cambria Math', 'Latin Modern Math', 'FiraCode',
                        'serif';
        }
    ]]></style><style type="text/css"><![CDATA[
        @import url(https://cdn.jsdelivr.net/npm/firacode@6.2.0/distr/fira_code.css);
        text {
            font-family: 'STIX Two', 'STIX Two Math', 'STIXMath', 'DejaVu Math TeX Glyph',
                        'DejaVu Serif', 'Cambria Math', 'Latin Modern Math', 'FiraCode',
                        'serif';
        }
    ]]></style></defs><g><rect fill="black" height="6.6" stroke="none" stroke-width="0" width="6.6" x="1.7" y="1.7" /><rect fill="black" height="8.6" stroke="none" stroke-width="0" width="8.6" x="10.7" y="0.7" /><rect fill="black" height="4.9" stroke="none" stroke-width="0" width="4.9" x="22.6" y="2.6" /><rect fill="black" height="8.5" stroke="none" stroke-width="0" width="8.5" x="30.7" y="0.7" /><rect fill="black" height="8.6" stroke="none" stroke-width="0" width="8.6" x="0.7" y="10.7" /><rect fill="black" height="6.4" stroke="none" stroke-width="0" width="6.4" x="11.8" y="11.8" /><rect fill="black" height="9.5" stroke="none" stroke-width="0" width="9.5" x="20.2" y="10.2" /><rect fill="black" height="6.7" stroke="none" stroke-width="0" width="6.7" x="31.7" y="11.7" /><rect fill="black" height="2.1" stroke="none" stroke-width="0" width="2.1" x="3.9" y="23.9" /><rect fill="black" height="2.1" stroke="none" stroke-width="0" width="2.1" x="13.9" y="23.9" /><rect fill="black" height="2.1" stroke="none" stroke-width="0" width="2.1" x="23.9" y="23.9" /><rect fill="black" height="2.1" stroke="none" stroke-width="0" width="2.1" x="33.9" y="23.9" /></g><g><line stroke="black" stroke-width="0.5" x1="5.0" x2="5.0" y1="-4.0" y2="-7.0" /><text dominant-baseline="middle" font-size="6px" text-anchor="middle" x="5.0" y="-13.0">𝘩₀</text><line stroke="black" stroke-width="0.5" x1="15.0" x2="15.0" y1="-4.0" y2="-7.0" /><text dominant-baseline="middle" font-size="6px" text-anchor="middle" x="15.0" y="-13.0">𝘩₁</text><line stroke="black" stroke-width="0.5" x1="25.0" x2="25.0" y1="-4.0" y2="-7.0" /><text dominant-baseline="middle" font-size="6px" text-anchor="middle" x="25.0" y="-13.0">𝘩₂</text><line stroke="black" stroke-width="0.5" x1="35.0" x2="35.0" y1="-4.0" y2="-7.0" /><text dominant-baseline="middle" font-size="6px" text-anchor="middle" x="35.0" y="-13.0">𝘩₃</text><line stroke="black" stroke-width="0.5" x1="-4.0" x2="-7.0" y1="5.0" y2="5.0" /><text dominant-baseline="middle" font-size="6px" text-anchor="end" x="-13.0" y="5.0">𝘱</text><line stroke="black" stroke-width="0.5" x1="-4.0" x2="-7.0" y1="15.0" y2="15.0" /><text dominant-baseline="middle" font-size="6px" text-anchor="end" x="-13.0" y="15.0">1-𝘱</text><line stroke="black" stroke-width="0.5" x1="-4.0" x2="-7.0" y1="25.0" y2="25.0" /><text dominant-baseline="middle" font-size="6px" text-anchor="end" x="-13.0" y="25.0">0</text></g></svg>