<?xml version="1.0" encoding="utf-8" ?>
<svg baseProfile="full" height="100%" preserveAspectRatio="xMidYMid meet" version="1.1" viewBox="-40,-40,370,90" width="100%" xmlns="http://www.w3.org/2000/svg" xmlns:ev="http://www.w3.org/2001/xml-events" xmlns:xlink="http://www.w3.org/1999/xlink"><defs><style type="text/css"><![CDATA[
        @import url(https://cdn.jsdelivr.net/npm/firacode@6.2.0/distr/fira_code.css);
        text {
            font-family: 'STIX Two', 'STIX Two Math', 'STIXMath', 'DejaVu Math TeX Glyph',
                        'DejaVu Serif', 'Cambria Math', 'Latin Modern Math', 'FiraCode',
                        'serif';
        }
    ]]></style><style type="text/css"><![CDATA[
        @import url(https://cdn.jsdelivr.net/npm/firacode@6.2.0/distr/fira_code.css);
        text {
            font-family: 'STIX Two', 'STIX Two Math', 'STIXMath', 'DejaVu Math TeX Glyph',
                        'DejaVu Serif', 'Cambria Math', 'Latin Modern Math', 'FiraCode',
                        'serif';
        }
    ]]></style></defs><g><rect fill="black" height="2.7" stroke="none" stroke-width="0" width="2.7" x="3.6" y="3.6" /><rect fill="black" height="3.6" stroke="none" stroke-width="0" width="3.6" x="13.2" y="3.2" /><rect fill="black" height="5.1" stroke="none" stroke-width="0" width="5.1" x="22.5" y="2.5" /><rect fill="black" height="4.3" stroke="none" stroke-width="0" width="4.3" x="32.9" y="2.9" /><rect fill="black" height="7.0" stroke="none" stroke-width="0" width="7.0" x="41.5" y="1.5" /><rect fill="black" height="5.2" stroke="none" stroke-width="0" width="5.2" x="52.4" y="2.4" /><rect fill="black" height="6.7" stroke="none" stroke-width="0" width="6.7" x="61.6" y="1.6" /><rect fill="black" height="7.7" stroke="none" stroke-width="0" width="7.7" x="71.2" y="1.2" /><rect fill="black" height="7.8" stroke="none" stroke-width="0" width="7.8" x="81.1" y="1.1" /><rect fill="black" height="7.1" stroke="none" stroke-width="0" width="7.1" x="91.4" y="1.4" /><rect fill="black" height="8.1" stroke="none" stroke-width="0" width="8.1" x="101.0" y="1.0" /><rect fill="black" height="7.8" stroke="none" stroke-width="0" width="7.8" x="111.1" y="1.1" /><rect fill="black" height="8.2" stroke="none" stroke-width="0" width="8.2" x="120.9" y="0.9" /><rect fill="black" height="9.5" stroke="none" stroke-width="0" width="9.5" x="130.2" y="0.2" /><rect fill="black" height="7.7" stroke="none" stroke-width="0" width="7.7" x="141.1" y="1.1" /><rect fill="black" height="7.2" stroke="none" stroke-width="0" width="7.2" x="151.4" y="1.4" /><rect fill="black" height="8.3" stroke="none" stroke-width="0" width="8.3" x="160.8" y="0.8" /><rect fill="black" height="8.1" stroke="none" stroke-width="0" width="8.1" x="171.0" y="1.0" /><rect fill="black" height="6.6" stroke="none" stroke-width="0" width="6.6" x="181.7" y="1.7" /><rect fill="black" height="7.1" stroke="none" stroke-width="0" width="7.1" x="191.5" y="1.5" /><rect fill="black" height="7.0" stroke="none" stroke-width="0" width="7.0" x="201.5" y="1.5" /><rect fill="black" height="6.7" stroke="none" stroke-width="0" width="6.7" x="211.6" y="1.6" /><rect fill="black" height="7.3" stroke="none" stroke-width="0" width="7.3" x="221.3" y="1.3" /><rect fill="black" height="7.1" stroke="none" stroke-width="0" width="7.1" x="231.5" y="1.5" /><rect fill="black" height="7.5" stroke="none" stroke-width="0" width="7.5" x="241.3" y="1.3" /><rect fill="black" height="6.6" stroke="none" stroke-width="0" width="6.6" x="251.7" y="1.7" /><rect fill="black" height="7.0" stroke="none" stroke-width="0" width="7.0" x="261.5" y="1.5" /><rect fill="black" height="7.1" stroke="none" stroke-width="0" width="7.1" x="271.5" y="1.5" /><rect fill="black" height="8.0" stroke="none" stroke-width="0" width="8.0" x="281.0" y="1.0" /></g><g><line stroke="black" stroke-width="0.5" x1="5.0" x2="5.0" y1="14.0" y2="17.0" /><text dominant-baseline="middle" font-size="6px" text-anchor="middle" x="5.0" y="23.0">2</text><line stroke="black" stroke-width="0.5" x1="25.0" x2="25.0" y1="14.0" y2="17.0" /><text dominant-baseline="middle" font-size="6px" text-anchor="middle" x="25.0" y="23.0">5</text><line stroke="black" stroke-width="0.5" x1="45.0" x2="45.0" y1="14.0" y2="17.0" /><text dominant-baseline="middle" font-size="6px" text-anchor="middle" x="45.0" y="23.0">11</text><line stroke="black" stroke-width="0.5" x1="65.0" x2="65.0" y1="14.0" y2="17.0" /><text dominant-baseline="middle" font-size="6px" text-anchor="middle" x="65.0" y="23.0">17</text><line stroke="black" stroke-width="0.5" x1="85.0" x2="85.0" y1="14.0" y2="17.0" /><text dominant-baseline="middle" font-size="6px" text-anchor="middle" x="85.0" y="23.0">23</text><line stroke="black" stroke-width="0.5" x1="105.0" x2="105.0" y1="14.0" y2="17.0" /><text dominant-baseline="middle" font-size="6px" text-anchor="middle" x="105.0" y="23.0">31</text><line stroke="black" stroke-width="0.5" x1="125.0" x2="125.0" y1="14.0" y2="17.0" /><text dominant-baseline="middle" font-size="6px" text-anchor="middle" x="125.0" y="23.0">41</text><line stroke="black" stroke-width="0.5" x1="145.0" x2="145.0" y1="14.0" y2="17.0" /><text dominant-baseline="middle" font-size="6px" text-anchor="middle" x="145.0" y="23.0">47</text><line stroke="black" stroke-width="0.5" x1="165.0" x2="165.0" y1="14.0" y2="17.0" /><text dominant-baseline="middle" font-size="6px" text-anchor="middle" x="165.0" y="23.0">59</text><line stroke="black" stroke-width="0.5" x1="185.0" x2="185.0" y1="14.0" y2="17.0" /><text dominant-baseline="middle" font-size="6px" text-anchor="middle" x="185.0" y="23.0">67</text><line stroke="black" stroke-width="0.5" x1="205.0" x2="205.0" y1="14.0" y2="17.0" /><text dominant-baseline="middle" font-size="6px" text-anchor="middle" x="205.0" y="23.0">73</text><line stroke="black" stroke-width="0.5" x1="225.0" x2="225.0" y1="14.0" y2="17.0" /><text dominant-baseline="middle" font-size="6px" text-anchor="middle" x="225.0" y="23.0">83</text><line stroke="black" stroke-width="0.5" x1="245.0" x2="245.0" y1="14.0" y2="17.0" /><text dominant-baseline="middle" font-size="6px" text-anchor="middle" x="245.0" y="23.0">97</text><line stroke="black" stroke-width="0.5" x1="265.0" x2="265.0" y1="14.0" y2="17.0" /><text dominant-baseline="middle" font-size="6px" text-anchor="middle" x="265.0" y="23.0">103</text><line stroke="black" stroke-width="0.5" x1="285.0" x2="285.0" y1="14.0" y2="17.0" /><text dominant-baseline="middle" font-size="6px" text-anchor="middle" x="285.0" y="23.0">109</text></g></svg>