<?xml version="1.0" encoding="utf-8" ?>
<svg baseProfile="full" height="100%" preserveAspectRatio="xMidYMid meet" version="1.1" viewBox="-40,-40,370,90" width="100%" xmlns="http://www.w3.org/2000/svg" xmlns:ev="http://www.w3.org/2001/xml-events" xmlns:xlink="http://www.w3.org/1999/xlink"><defs><style type="text/css"><![CDATA[
        @import url(https://cdn.jsdelivr.net/npm/firacode@6.2.0/distr/fira_code.css);
        text {
            font-family: 'STIX Two', 'STIX Two Math', 'STIXMath', 'DejaVu Math TeX Glyph',
                        'DejaVu Serif', 'Cambria Math', 'Latin Modern Math', 'FiraCode',
                        'serif';
        }
    ]]></style><style type="text/css"><![CDATA[
        @import url(https://cdn.jsdelivr.net/npm/firacode@6.2.0/distr/fira_code.css);
        text {
            font-family: 'STIX Two', 'STIX Two Math', 'STIXMath', 'DejaVu Math TeX Glyph',
                        'DejaVu Serif', 'Cambria Math', 'Latin Modern Math', 'FiraCode',
                        'serif';
        }
    ]]></style></defs><g><rect fill="black" height="2.1" stroke="none" stroke-width="0" width="2.1" x="3.9" y="3.9" /><rect fill="black" height="3.5" stroke="none" stroke-width="0" width="3.5" x="13.2" y="3.2" /><rect fill="black" height="5.2" stroke="none" stroke-width="0" width="5.2" x="22.4" y="2.4" /><rect fill="black" height="4.9" stroke="none" stroke-width="0" width="4.9" x="32.6" y="2.6" /><rect fill="black" height="8.2" stroke="none" stroke-width="0" width="8.2" x="40.9" y="0.9" /><rect fill="black" height="5.3" stroke="none" stroke-width="0" width="5.3" x="52.3" y="2.3" /><rect fill="black" height="8.5" stroke="none" stroke-width="0" width="8.5" x="60.8" y="0.8" /><rect fill="black" height="8.2" stroke="none" stroke-width="0" width="8.2" x="70.9" y="0.9" /><rect fill="black" height="8.9" stroke="none" stroke-width="0" width="8.9" x="80.5" y="0.5" /><rect fill="black" height="6.9" stroke="none" stroke-width="0" width="6.9" x="91.5" y="1.5" /><rect fill="black" height="8.3" stroke="none" stroke-width="0" width="8.3" x="100.9" y="0.9" /><rect fill="black" height="7.4" stroke="none" stroke-width="0" width="7.4" x="111.3" y="1.3" /><rect fill="black" height="7.5" stroke="none" stroke-width="0" width="7.5" x="121.2" y="1.2" /><rect fill="black" height="9.5" stroke="none" stroke-width="0" width="9.5" x="130.2" y="0.2" /><rect fill="black" height="7.5" stroke="none" stroke-width="0" width="7.5" x="141.3" y="1.3" /><rect fill="black" height="7.6" stroke="none" stroke-width="0" width="7.6" x="151.2" y="1.2" /><rect fill="black" height="7.4" stroke="none" stroke-width="0" width="7.4" x="161.3" y="1.3" /><rect fill="black" height="8.1" stroke="none" stroke-width="0" width="8.1" x="170.9" y="0.9" /><rect fill="black" height="6.1" stroke="none" stroke-width="0" width="6.1" x="182.0" y="2.0" /><rect fill="black" height="6.4" stroke="none" stroke-width="0" width="6.4" x="191.8" y="1.8" /><rect fill="black" height="5.5" stroke="none" stroke-width="0" width="5.5" x="202.2" y="2.2" /><rect fill="black" height="7.5" stroke="none" stroke-width="0" width="7.5" x="211.2" y="1.2" /><rect fill="black" height="7.0" stroke="none" stroke-width="0" width="7.0" x="221.5" y="1.5" /><rect fill="black" height="7.3" stroke="none" stroke-width="0" width="7.3" x="231.3" y="1.3" /><rect fill="black" height="8.0" stroke="none" stroke-width="0" width="8.0" x="241.0" y="1.0" /><rect fill="black" height="7.8" stroke="none" stroke-width="0" width="7.8" x="251.1" y="1.1" /><rect fill="black" height="6.6" stroke="none" stroke-width="0" width="6.6" x="261.7" y="1.7" /><rect fill="black" height="7.3" stroke="none" stroke-width="0" width="7.3" x="271.3" y="1.3" /><rect fill="black" height="9.1" stroke="none" stroke-width="0" width="9.1" x="280.4" y="0.4" /></g><g><line stroke="black" stroke-width="0.5" x1="5.0" x2="5.0" y1="14.0" y2="17.0" /><text dominant-baseline="middle" font-size="6px" text-anchor="middle" x="5.0" y="23.0">2</text><line stroke="black" stroke-width="0.5" x1="25.0" x2="25.0" y1="14.0" y2="17.0" /><text dominant-baseline="middle" font-size="6px" text-anchor="middle" x="25.0" y="23.0">5</text><line stroke="black" stroke-width="0.5" x1="45.0" x2="45.0" y1="14.0" y2="17.0" /><text dominant-baseline="middle" font-size="6px" text-anchor="middle" x="45.0" y="23.0">11</text><line stroke="black" stroke-width="0.5" x1="65.0" x2="65.0" y1="14.0" y2="17.0" /><text dominant-baseline="middle" font-size="6px" text-anchor="middle" x="65.0" y="23.0">17</text><line stroke="black" stroke-width="0.5" x1="85.0" x2="85.0" y1="14.0" y2="17.0" /><text dominant-baseline="middle" font-size="6px" text-anchor="middle" x="85.0" y="23.0">23</text><line stroke="black" stroke-width="0.5" x1="105.0" x2="105.0" y1="14.0" y2="17.0" /><text dominant-baseline="middle" font-size="6px" text-anchor="middle" x="105.0" y="23.0">31</text><line stroke="black" stroke-width="0.5" x1="125.0" x2="125.0" y1="14.0" y2="17.0" /><text dominant-baseline="middle" font-size="6px" text-anchor="middle" x="125.0" y="23.0">41</text><line stroke="black" stroke-width="0.5" x1="145.0" x2="145.0" y1="14.0" y2="17.0" /><text dominant-baseline="middle" font-size="6px" text-anchor="middle" x="145.0" y="23.0">47</text><line stroke="black" stroke-width="0.5" x1="165.0" x2="165.0" y1="14.0" y2="17.0" /><text dominant-baseline="middle" font-size="6px" text-anchor="middle" x="165.0" y="23.0">59</text><line stroke="black" stroke-width="0.5" x1="185.0" x2="185.0" y1="14.0" y2="17.0" /><text dominant-baseline="middle" font-size="6px" text-anchor="middle" x="185.0" y="23.0">67</text><line stroke="black" stroke-width="0.5" x1="205.0" x2="205.0" y1="14.0" y2="17.0" /><text dominant-baseline="middle" font-size="6px" text-anchor="middle" x="205.0" y="23.0">73</text><line stroke="black" stroke-width="0.5" x1="225.0" x2="225.0" y1="14.0" y2="17.0" /><text dominant-baseline="middle" font-size="6px" text-anchor="middle" x="225.0" y="23.0">83</text><line stroke="black" stroke-width="0.5" x1="245.0" x2="245.0" y1="14.0" y2="17.0" /><text dominant-baseline="middle" font-size="6px" text-anchor="middle" x="245.0" y="23.0">97</text><line stroke="black" stroke-width="0.5" x1="265.0" x2="265.0" y1="14.0" y2="17.0" /><text dominant-baseline="middle" font-size="6px" text-anchor="middle" x="265.0" y="23.0">103</text><line stroke="black" stroke-width="0.5" x1="285.0" x2="285.0" y1="14.0" y2="17.0" /><text dominant-baseline="middle" font-size="6px" text-anchor="middle" x="285.0" y="23.0">109</text></g></svg>